<svg width="67" height="56" viewBox="0 0 67 56" fill="none" xmlns="http://www.w3.org/2000/svg">
<path d="M2.75487 25.7513H7.90422C9.42339 25.7513 10.6594 26.9873 10.6594 28.5065V29.3889C15.791 27.9043 21.3373 28.3617 26.1375 30.7225L38.2708 36.6593L58.9704 25.4294C64.355 22.3451 70.541 29.5929 64.5318 34.609C63.7273 35.3466 43.4761 53.9087 43.3607 53.995C40.9947 55.7995 37.7517 56.2534 34.896 55.1741L17.8907 48.7538C15.5211 47.9597 12.9837 48.0308 10.6597 48.9374V49.6957C10.6597 51.2149 9.42371 52.4509 7.90454 52.4509H2.75519C1.23602 52.4509 1.84472e-06 51.2149 1.84472e-06 49.6957V28.5062C-0.000321383 26.9873 1.2357 25.7513 2.75487 25.7513ZM10.6594 46.199C13.5125 45.3234 16.5939 45.4999 18.7815 46.3264L35.8098 52.7551C37.8151 53.513 40.0803 53.2147 41.751 51.9703C42.7705 51.04 62.607 32.8652 62.8077 32.6816C66.5232 29.2603 62.745 26.2484 60.2297 27.6874L41.1072 38.0624C46.7795 41.2481 42.2427 50.0086 36.3405 47.0326L20.4025 39.2364C18.8688 38.4862 20.0007 36.1631 21.5389 36.9133L37.4909 44.7167C40.4326 46.201 42.6839 41.7401 39.7538 40.2633L24.9991 33.0443C20.5499 30.856 15.3724 30.5231 10.6597 32.0921V46.199H10.6594ZM2.5855 49.696C2.5855 49.7894 2.66146 49.8654 2.75487 49.8654H7.90422C7.99763 49.8654 8.07359 49.7894 8.07359 49.696V28.5065C8.07359 28.4131 7.99763 28.3371 7.90422 28.3371H2.75487C2.66146 28.3371 2.5855 28.4131 2.5855 28.5065V49.696Z" fill="#018786"/>
<path d="M35.2667 3.68399C30.0789 -1.57008 24.0439 -0.63466 20.5049 2.93313C16.6475 6.82674 16.6472 13.1656 20.5056 17.064L33.1021 29.7882C34.3071 31.0123 36.2529 30.9871 37.4307 29.7905C50.3599 16.7262 48.4018 18.7034 50.0308 17.0624C53.8837 13.1652 53.8834 6.82674 50.0302 2.93345C46.5516 -0.581328 40.5079 -1.61178 35.2667 3.68399ZM48.1923 4.7529C51.0535 7.64386 51.0535 12.3504 48.1936 15.2429L35.59 27.9743C35.4115 28.1553 35.1258 28.1585 34.9422 27.972C22.3463 15.2446 24.5168 17.4364 22.3425 15.2446C19.4783 12.3504 19.478 7.64418 22.3415 4.75388C25.2396 1.83254 29.8543 1.8891 32.6871 4.75194C34.4053 6.49219 34.5673 6.81607 35.2651 6.81639C35.2654 6.81639 35.2654 6.81639 35.2658 6.81639C35.9639 6.81639 36.1268 6.49155 37.8471 4.75323C40.6462 1.92531 45.2891 1.81864 48.1923 4.7529Z" fill="#018786"/>
<path d="M36.559 10.8242C36.559 9.1159 33.9732 9.11364 33.9732 10.8242V14.3503H30.4471C28.7388 14.3503 28.7366 16.9361 30.4471 16.9361H33.9732V20.4625C33.9732 22.1708 36.559 22.173 36.559 20.4625V16.9361H40.0854C41.7937 16.9361 41.7959 14.3503 40.0854 14.3503H36.559V10.8242Z" fill="#018786"/>
</svg>
