<svg width="55" height="56" viewBox="0 0 55 56" fill="none" xmlns="http://www.w3.org/2000/svg">
<circle cx="27.6562" cy="27.9043" r="16.8215" stroke="#018786" stroke-width="1.4" stroke-dasharray="20 20"/>
<circle cx="27.6566" cy="27.9041" r="23.0791" stroke="#018786" stroke-width="1.4" stroke-dasharray="16 2"/>
<circle cx="27.6565" cy="4.3796" r="3.0546" fill="#018786" stroke="#018786" stroke-width="1.4"/>
<path d="M27.6562 6.88269V12.8275" stroke="#018786" stroke-width="1.4"/>
<circle cx="11.3157" cy="10.9375" r="3.0546" transform="rotate(-45 11.3157 10.9375)" fill="#018786" stroke="#018786" stroke-width="1.4"/>
<path d="M13.0854 12.7073L17.289 16.9109" stroke="#018786" stroke-width="1.4"/>
<circle cx="10.6899" cy="46.2918" r="3.0546" transform="rotate(-135 10.6899 46.2918)" fill="#018786" stroke="#018786" stroke-width="1.4"/>
<path d="M12.46 44.5226L16.6636 40.319" stroke="#018786" stroke-width="1.4"/>
<circle cx="44.7937" cy="46.2969" r="3.0546" transform="rotate(135 44.7937 46.2969)" fill="#018786" stroke="#018786" stroke-width="1.4"/>
<path d="M43.0239 44.5271L38.8203 40.3235" stroke="#018786" stroke-width="1.4"/>
<circle cx="44.7944" cy="10.9387" r="3.0546" transform="rotate(45 44.7944 10.9387)" fill="#018786" stroke="#018786" stroke-width="1.4"/>
<path d="M43.0244 12.7078L38.8208 16.9114" stroke="#018786" stroke-width="1.4"/>
<circle cx="27.6565" cy="51.7454" r="3.0546" transform="rotate(-180 27.6565 51.7454)" fill="#018786" stroke="#018786" stroke-width="1.4"/>
<path d="M27.6562 48.6166V42.6718" stroke="#018786" stroke-width="1.4"/>
<circle cx="3.7546" cy="27.9056" r="3.0546" transform="rotate(-90 3.7546 27.9056)" fill="#018786" stroke="#018786" stroke-width="1.4"/>
<path d="M6.25781 27.9055H12.2026" stroke="#018786" stroke-width="1.4"/>
<circle cx="51.2454" cy="27.9069" r="3.0546" transform="rotate(90 51.2454 27.9069)" fill="#018786" stroke="#018786" stroke-width="1.4"/>
<path d="M48.7422 27.907H42.7974" stroke="#018786" stroke-width="1.4"/>
<path d="M23.2147 24.4628H20.5215C19.9692 24.4628 19.5215 24.9105 19.5215 25.4628V30.3462C19.5215 30.8985 19.9692 31.3462 20.5215 31.3462H23.2147C23.767 31.3462 24.2147 31.7939 24.2147 32.3462V34.7266C24.2147 35.2789 24.6625 35.7266 25.2147 35.7266H30.0982C30.6505 35.7266 31.0982 35.2789 31.0982 34.7266V32.3462C31.0982 31.7939 31.5459 31.3462 32.0982 31.3462H34.4785C35.0308 31.3462 35.4785 30.8985 35.4785 30.3462V25.4628C35.4785 24.9105 35.0308 24.4628 34.4785 24.4628H32.0982C31.5459 24.4628 31.0982 24.0151 31.0982 23.4628V20.7695C31.0982 20.2172 30.6505 19.7695 30.0982 19.7695H25.2147C24.6625 19.7695 24.2147 20.2172 24.2147 20.7695V23.4628C24.2147 24.0151 23.767 24.4628 23.2147 24.4628Z" stroke="#018786" stroke-width="1.4"/>
</svg>
