<svg width="45" height="45" viewBox="0 0 45 45" fill="none" xmlns="http://www.w3.org/2000/svg">
<g clip-path="url(#clip0_698_688)">
<path d="M12.1738 14.9634L22.3077 11.5906C22.4286 11.5503 22.5568 11.554 22.6666 11.5906L32.9324 15.1062C33.1851 15.1904 33.3389 15.4358 33.3133 15.6921C33.3169 15.7031 33.3169 15.7178 33.3169 15.7324V27.6709H33.3133C33.3133 27.876 33.1997 28.0774 33.0019 28.1763L22.8095 33.3545C22.7252 33.4058 22.6227 33.4351 22.5165 33.4351C22.4029 33.4351 22.2967 33.4021 22.2088 33.3435L11.9907 28.0151C11.7966 27.9126 11.6867 27.7185 11.6867 27.5134V15.5273C11.6831 15.238 11.8955 15.0037 12.1738 14.9634ZM8.89232 7.93213L11.9907 11.0303C12.2617 11.3013 12.2617 11.7371 11.9907 12.0081C11.7234 12.2754 11.2839 12.2754 11.0165 12.0081L7.9401 8.93188L8.02433 10.968C8.02433 10.9863 8.02433 11.0083 8.01701 11.0266C7.9694 11.1804 7.87051 11.3123 7.74599 11.4038C7.62147 11.4954 7.47131 11.5503 7.3065 11.5503C7.10141 11.554 6.91096 11.4697 6.77545 11.3342C6.63628 11.1987 6.55205 11.012 6.54838 10.8032C6.48979 9.63135 6.36893 8.32031 6.36893 7.16675C6.36893 6.93237 6.4495 6.73462 6.59233 6.59546C6.7315 6.45996 6.92195 6.37939 7.14902 6.37573C8.13054 6.33911 9.78961 6.47095 10.8114 6.54419C11.0165 6.54785 11.2033 6.62842 11.3351 6.76392C11.467 6.89575 11.5512 7.07886 11.5586 7.28027V7.29858C11.5586 7.50366 11.4743 7.69409 11.3388 7.82959C11.207 7.96143 11.0238 8.04565 10.8224 8.04932H10.8078C10.1852 8.04932 9.70538 8.00537 9.22927 7.96143L8.89232 7.93213ZM2.57833 21.8188H6.95857C7.33946 21.8188 7.64711 22.1265 7.64711 22.5073C7.64711 22.8882 7.33946 23.1958 6.95857 23.1958H2.60763L4.10922 24.5764C4.12387 24.5911 4.13486 24.6057 4.14584 24.624C4.21909 24.7668 4.24473 24.928 4.21909 25.0818C4.19712 25.2319 4.12753 25.3784 4.01034 25.4956C3.8675 25.6421 3.67339 25.719 3.48295 25.719C3.28884 25.719 3.09473 25.6494 2.94824 25.5029C2.08025 24.7156 1.06576 23.8733 0.249044 23.0566C0.0805729 22.8955 0 22.7014 0 22.5037C0 22.3096 0.0805729 22.1191 0.238056 21.958C0.904615 21.2366 2.17547 20.1599 2.94824 19.4897C3.09473 19.3469 3.28518 19.2737 3.47562 19.2737C3.66241 19.2737 3.84919 19.3433 3.99569 19.4788L4.01034 19.4934C4.15683 19.6399 4.23008 19.834 4.23008 20.0244C4.23008 20.2112 4.16049 20.3979 4.02132 20.5444L4.014 20.5554C3.57451 20.9985 3.20461 21.3025 2.8347 21.6064L2.57833 21.8188ZM7.93277 36.1084L11.0312 33.0103C11.2985 32.7429 11.738 32.7429 12.0054 33.0103C12.2764 33.2812 12.2764 33.717 12.0054 33.988L8.92895 37.0642L10.9652 36.98C10.9836 36.98 11.0055 36.9836 11.0238 36.9873C11.1777 37.0386 11.3095 37.1338 11.4011 37.2583C11.4926 37.3828 11.5476 37.533 11.5476 37.6978C11.5476 37.9028 11.467 38.0933 11.3315 38.2288C11.196 38.3679 11.0092 38.4521 10.8004 38.4558C9.62847 38.5144 8.31733 38.6353 7.16001 38.6353C6.92561 38.6353 6.72784 38.5547 6.58867 38.4155C6.45316 38.2764 6.37259 38.0859 6.36893 37.8589C6.32864 36.8774 6.46415 35.2185 6.5374 34.1968C6.54106 33.9917 6.62163 33.8049 6.75714 33.6731C6.88899 33.5413 7.07211 33.457 7.26988 33.4497H7.28819C7.49328 33.4497 7.68373 33.5339 7.81924 33.6694C7.95109 33.8013 8.03532 33.9844 8.04265 34.1858V34.1968C8.04631 34.823 7.9987 35.2991 7.95475 35.7751L7.93277 36.1084ZM21.8206 42.4182V38.0383C21.8206 37.6575 22.1283 37.3499 22.5092 37.3499C22.89 37.3499 23.1977 37.6575 23.1977 38.0383V42.3889L24.5784 40.8875C24.5931 40.8728 24.6077 40.8618 24.626 40.8508C24.7689 40.7776 24.93 40.752 25.0838 40.7776C25.234 40.7996 25.3805 40.8691 25.4977 40.9863C25.6442 41.1292 25.7211 41.3232 25.7211 41.5173C25.7211 41.7114 25.6515 41.9055 25.505 42.052C24.7176 42.9199 23.8752 43.9343 23.0585 44.751C22.89 44.9158 22.6959 45 22.4982 45C22.3041 45 22.1136 44.9194 21.9525 44.762C21.231 44.0955 20.1542 42.8284 19.484 42.052C19.3412 41.9055 19.2679 41.7151 19.2679 41.5247C19.2679 41.3379 19.3375 41.1475 19.473 41.0046L19.4877 40.99C19.6342 40.8435 19.8283 40.7703 20.0187 40.7703C20.2055 40.7703 20.3923 40.8398 20.5388 40.979L20.5461 40.9863C20.9893 41.4258 21.2932 41.7957 21.5972 42.1655L21.8206 42.4182ZM36.1113 37.0679L33.0129 33.9697C32.7419 33.6987 32.7419 33.2629 33.0129 32.9919C33.2803 32.7246 33.7198 32.7246 33.9871 32.9919L37.0636 36.0681L36.9793 34.032C36.9793 34.0137 36.9793 33.9917 36.9866 33.9734C37.0343 33.8196 37.1331 33.6877 37.2577 33.5962C37.3822 33.5046 37.5323 33.4497 37.6972 33.4497C37.9022 33.446 38.0927 33.5303 38.2282 33.6658C38.3674 33.8013 38.4516 33.988 38.4553 34.1968C38.5139 35.3687 38.6347 36.6797 38.6347 37.8369C38.6347 38.0713 38.5542 38.269 38.4113 38.4082C38.2722 38.5437 38.0817 38.6243 37.8546 38.6279C36.8731 38.6646 35.214 38.5327 34.1922 38.4595C33.9871 38.4558 33.8004 38.3752 33.6685 38.2397C33.5367 38.1079 33.4524 37.9248 33.4451 37.7234V37.7051C33.4451 37.5 33.5293 37.3096 33.6648 37.1741C33.7967 37.0422 33.9798 36.958 34.1812 36.9507H34.1959C34.8222 36.947 35.2983 36.9946 35.7707 37.0386L36.1113 37.0679ZM42.4253 23.1775H38.0451C37.6642 23.1775 37.3529 22.8699 37.3529 22.489C37.3529 22.1082 37.6642 21.8005 38.0451 21.8005H42.396L40.8944 20.4199C40.8798 20.4053 40.8688 20.3906 40.8578 20.3723C40.7846 20.2295 40.7589 20.0684 40.7846 19.9146C40.8065 19.7644 40.8761 19.6179 40.9933 19.5007C41.1398 19.3542 41.3303 19.2773 41.5244 19.2773C41.7185 19.2773 41.9126 19.3469 42.0591 19.4934C42.9271 20.2808 43.9416 21.123 44.7583 21.9397C44.9231 22.1082 45.0073 22.3022 45.0037 22.5C45.0037 22.6941 44.9231 22.8845 44.7656 23.0457C44.099 23.7671 42.8282 24.8438 42.0554 25.5139C41.9089 25.6567 41.7185 25.73 41.528 25.73C41.3413 25.73 41.1508 25.6604 41.008 25.5249L40.9933 25.5103C40.8468 25.3638 40.7736 25.1697 40.7736 24.9792C40.7736 24.7925 40.8432 24.6021 40.9823 24.4592L40.9897 24.4482C41.4291 24.0051 41.799 23.7012 42.169 23.3972L42.4253 23.1775ZM37.0672 8.8916L33.9688 11.9897C33.7015 12.2571 33.262 12.2571 32.9946 11.9897C32.7236 11.7188 32.7236 11.283 32.9946 11.0156L36.071 7.93945L34.0348 8.02368C34.0164 8.02368 33.9945 8.02002 33.9762 8.01636C33.8223 7.96509 33.6905 7.86987 33.5989 7.74536C33.5074 7.62085 33.4524 7.4707 33.4524 7.30591C33.4524 7.10083 33.533 6.9104 33.6685 6.7749C33.804 6.63574 33.9908 6.55151 34.1996 6.54785C35.3715 6.48926 36.6827 6.36841 37.84 6.36841C38.0744 6.36841 38.2722 6.44897 38.4113 6.58813C38.5468 6.72729 38.6274 6.91772 38.6311 7.14478C38.6714 8.12622 38.5358 9.78516 38.4626 10.8069C38.4589 11.012 38.3784 11.1987 38.2429 11.3342C38.111 11.4661 37.9279 11.5503 37.7265 11.5576H37.7081C37.503 11.5576 37.3126 11.4734 37.1771 11.3379C37.0452 11.2061 36.961 11.0229 36.9537 10.8215V10.8105C36.9537 10.1843 36.9976 9.70825 37.0416 9.23218L37.0672 8.8916ZM23.1794 2.57812V6.95801C23.1794 7.33887 22.8717 7.64648 22.4908 7.64648C22.11 7.64648 21.7986 7.33887 21.7986 6.95801V2.61108L20.4216 4.10889C20.4069 4.12354 20.3923 4.13452 20.374 4.14551C20.2311 4.21875 20.07 4.24438 19.9162 4.21875C19.766 4.19678 19.6195 4.1272 19.5023 4.01001C19.3558 3.86719 19.2789 3.6731 19.2789 3.48267C19.2789 3.28857 19.3485 3.09448 19.495 2.948C20.2824 2.08008 21.1248 1.06567 21.9415 0.249023C22.1026 0.0805664 22.3004 0 22.4982 0C22.6923 0 22.8827 0.0805664 23.0439 0.238037C23.7654 0.904541 24.8421 2.17163 25.5123 2.948C25.6552 3.09448 25.7284 3.28491 25.7284 3.47534C25.7284 3.66211 25.6588 3.84888 25.5233 3.99536L25.5087 4.01001C25.3622 4.15649 25.1681 4.22974 24.9776 4.22974C24.7908 4.22974 24.6041 4.16016 24.4576 4.021L24.4466 4.01367C24.0034 3.57422 23.6994 3.20435 23.3955 2.83447L23.1794 2.57812ZM14.4152 23.7122C14.4152 23.4961 14.591 23.3167 14.8108 23.3167C15.0269 23.3167 15.2063 23.4924 15.2063 23.7122V25.3198C15.2063 25.3308 15.2063 25.3455 15.2027 25.3601C15.2027 25.415 15.21 25.459 15.221 25.4956C15.2283 25.5066 15.2319 25.5176 15.2429 25.5249L16.2281 25.9827C16.4259 26.0742 16.5101 26.3086 16.4222 26.5063C16.3307 26.7041 16.0999 26.7883 15.9022 26.7004L14.895 26.2317C14.8767 26.2244 14.8584 26.217 14.8437 26.2024C14.6826 26.0999 14.5691 25.9644 14.4995 25.7959C14.4445 25.6604 14.4189 25.5103 14.4226 25.3491V25.3235L14.4152 23.7122ZM21.9488 31.9373V20.5151L12.8184 16.377V27.1729L21.9488 31.9373ZM32.1779 16.5125L23.0842 20.5225V31.9482L32.1779 27.3267V16.5125ZM22.4799 12.7222L13.8476 15.5969L22.5201 19.53L31.1927 15.7104L22.4799 12.7222Z" fill="black"/>
</g>
<defs>
<clipPath id="clip0_698_688">
<rect width="45" height="45" fill="white"/>
</clipPath>
</defs>
</svg>
