<svg width="34" height="34" viewBox="0 0 34 34" fill="none" xmlns="http://www.w3.org/2000/svg">
<g clip-path="url(#clip0_698_685)">
<path d="M33.9634 25.4139L33.3315 22.2095C33.0776 20.9219 32.4522 19.7515 31.5228 18.8246L30.4133 17.7183V13.9477C31.1067 13.6735 31.5988 12.9972 31.5988 12.2074C31.5988 11.9941 31.5624 11.7895 31.4966 11.5983C32.282 11.3765 32.8597 10.6538 32.8597 9.79806C32.8597 9.57212 32.8195 9.35526 32.7456 9.15449C33.475 8.89898 33.9995 8.20431 33.9995 7.38876C33.9995 6.57346 33.475 5.87879 32.7456 5.62302C32.8195 5.42225 32.8597 5.20565 32.8597 4.97971C32.8597 3.94808 32.0205 3.10893 30.9889 3.10893H27.2395C27.5838 2.69311 27.7493 2.13514 27.6494 1.56861C27.5602 1.06227 27.2774 0.623622 26.8533 0.332835C26.4294 0.0423082 25.9179 -0.063008 25.4139 0.0366014L22.2095 0.668498C20.9216 0.92245 19.7512 1.54786 18.8246 2.47729L17.7183 3.58674H13.9474C13.6735 2.89337 12.997 2.40103 12.2074 2.40103C11.9941 2.40103 11.7895 2.4376 11.5983 2.50349C11.3765 1.71777 10.6538 1.14009 9.79806 1.14009C9.57212 1.14009 9.35526 1.18055 9.15475 1.25422C8.89898 0.52505 8.20431 0.000544873 7.38902 0.000544873C6.57346 0.000544873 5.87879 0.52505 5.62303 1.25422C5.42251 1.18055 5.20565 1.14009 4.97971 1.14009C3.94808 1.14009 3.10893 1.9795 3.10893 3.01113V6.76023C2.69311 6.41627 2.1354 6.25077 1.56861 6.35064C1.06227 6.43987 0.623622 6.72262 0.332835 7.14674C0.0423082 7.57059 -0.063008 8.08187 0.0366014 8.58614L0.668498 11.7905C0.92245 13.0782 1.54786 14.2486 2.47729 15.1754L3.58674 16.2817V20.0524C2.89311 20.3263 2.40103 21.0031 2.40103 21.7927C2.40103 22.0059 2.43734 22.2106 2.50349 22.4018C1.71777 22.6235 1.14009 23.3462 1.14009 24.202C1.14009 24.4279 1.18029 24.6448 1.25422 24.8456C0.52505 25.1011 0.000285474 25.7957 0.000285474 26.6113C0.000285474 27.4266 0.52505 28.1212 1.25422 28.377C1.18029 28.5775 1.14009 28.7944 1.14009 29.0203C1.14009 30.052 1.9795 30.8911 3.01087 30.8911H6.76023C6.41601 31.3069 6.25051 31.8646 6.35064 32.4314C6.43987 32.9378 6.72236 33.3764 7.14648 33.6669C7.46632 33.8864 7.8357 34 8.21442 34C8.33764 34 8.46215 33.9878 8.58614 33.9634L11.7905 33.3315C13.0779 33.0778 14.2486 32.4522 15.1754 31.5228L16.2817 30.4133H20.0524C20.3263 31.1069 21.0028 31.599 21.7927 31.599C22.0057 31.599 22.2106 31.5627 22.4015 31.4966C22.6235 32.2823 23.3462 32.86 24.2017 32.86C24.4279 32.86 24.6445 32.8195 24.8453 32.7458C25.1008 33.475 25.7957 33.9995 26.611 33.9995C27.4263 33.9995 28.1212 33.475 28.3768 32.7458C28.5775 32.8195 28.7944 32.86 29.0203 32.86C30.052 32.86 30.8911 32.0205 30.8911 30.9892V27.2398C31.3069 27.5838 31.8644 27.7495 32.4314 27.6494C32.9375 27.5602 33.3764 27.2774 33.6669 26.8536C33.9575 26.4294 34.0628 25.9182 33.9634 25.4139ZM17.9938 4.91486C18.1704 4.91486 18.3396 4.84457 18.4641 4.71954L19.765 3.41502C20.5048 2.6734 21.4389 2.17405 22.4663 1.97146L25.6707 1.33956C25.8222 1.30999 25.9755 1.34138 26.1026 1.42854C26.23 1.5157 26.3148 1.64747 26.3415 1.79922C26.3934 2.09364 26.2066 2.38001 25.9166 2.45109L24.5849 2.77767C24.1649 2.88066 23.8974 3.2669 23.9493 3.69621C24.0012 4.12551 24.3527 4.43705 24.7854 4.43705H30.9892C31.2883 4.43705 31.5318 4.68063 31.5318 4.97971C31.5318 5.25701 31.3228 5.48606 31.054 5.51823L27.3786 5.52238C27.0118 5.52238 26.7145 5.81991 26.7145 6.18644C26.7145 6.55323 27.0118 6.8505 27.3786 6.8505L32.1287 6.84635C32.4281 6.84635 32.6716 7.08993 32.6716 7.38902C32.6716 7.68836 32.4281 7.93168 32.1287 7.93168H27.3786C27.0118 7.93168 26.7145 8.22895 26.7145 8.59574C26.7145 8.96253 27.0118 9.2598 27.3786 9.2598H31.0543C31.3228 9.29223 31.5318 9.52102 31.5318 9.79832C31.5318 10.0974 31.2883 10.341 30.9892 10.341H27.3786C27.0118 10.341 26.7145 10.6383 26.7145 11.005C26.7145 11.3718 27.0118 11.6691 27.3786 11.6691H29.7931C30.0616 11.7013 30.2709 11.9303 30.2709 12.2076C30.2709 12.5067 30.0273 12.7503 29.7282 12.7503H23.022C21.6171 12.7503 20.297 12.2024 19.305 11.2076L18.4643 10.3643C18.3396 10.2393 18.1704 10.1693 17.994 10.1693H14.0781V4.91486H17.9938ZM19.9421 22.5029H16.2817L15.6356 21.8549C14.5155 20.7317 13.0616 20.0635 11.4971 19.9421V16.2817L12.1451 15.6356C13.2507 14.5331 13.9318 13.0478 14.0569 11.4971H17.7183L18.3645 12.1451C19.4845 13.2686 20.9385 13.9368 22.5029 14.0579V17.7186L21.8549 18.3647C20.7315 19.4845 20.0633 20.9385 19.9421 22.5029ZM3.41502 14.2351C2.67314 13.4953 2.17405 12.5612 1.97146 11.5337L1.33956 8.32934C1.30973 8.17811 1.34112 8.02454 1.42854 7.89744C1.5157 7.77007 1.64721 7.68525 1.79922 7.65853C2.0939 7.60691 2.37976 7.79342 2.45083 8.08369L2.77741 9.41518C2.88014 9.83515 3.2669 10.1021 3.69595 10.0507C4.12525 9.99883 4.43679 9.64735 4.43679 9.21493V3.01113C4.43679 2.71179 4.68037 2.46821 4.97971 2.46821C5.25675 2.46821 5.4858 2.67729 5.51797 2.94602L5.52238 6.62145C5.52238 6.98824 5.81965 7.28551 6.18618 7.28551C6.55297 7.28551 6.85024 6.98824 6.85024 6.62145V3.01113C6.85024 2.97067 6.84869 2.93072 6.84609 2.89077V1.87133C6.84609 1.57199 7.08941 1.32867 7.38876 1.32867C7.6881 1.32867 7.93142 1.57199 7.93142 1.87133V2.89077C7.92909 2.93072 7.92727 2.97067 7.92727 3.01113L7.93142 6.62171C7.93142 6.98824 8.22895 7.28577 8.59548 7.28577C8.96227 7.28577 9.25954 6.98824 9.25954 6.62171V2.94602C9.29197 2.67729 9.52076 2.46821 9.79806 2.46821C10.0974 2.46821 10.3407 2.71179 10.3407 3.01113C10.3407 3.01113 10.3381 6.24143 10.3407 6.26582V6.62145C10.3407 6.98824 10.6383 7.28551 11.0048 7.28551C11.3716 7.28551 11.6688 6.98824 11.6688 6.62145V4.20696C11.701 3.93823 11.9301 3.72915 12.2074 3.72915C12.5064 3.72915 12.75 3.97273 12.75 4.27207V10.9781C12.75 12.3627 12.1876 13.7176 11.2074 14.6953L10.3641 15.536C10.2393 15.6605 10.169 15.8296 10.169 16.0063V19.9219H8.84087V18.1588C8.84087 17.792 8.5436 17.4947 8.17681 17.4947C7.81028 17.4947 7.51275 17.792 7.51275 18.1588V19.9219H4.91461V16.0063C4.91461 15.8296 4.84431 15.6605 4.71954 15.536L3.41502 14.2351ZM16.006 29.0852C15.8296 29.0852 15.6605 29.1555 15.5357 29.2805L14.2348 30.585C13.4953 31.3269 12.5612 31.826 11.5334 32.0286L8.32908 32.6605C8.17759 32.6903 8.02428 32.6587 7.89718 32.5715C7.76981 32.4841 7.68499 32.3526 7.65827 32.2008C7.60639 31.9064 7.79316 31.6203 8.08343 31.549L9.41518 31.2226C9.83515 31.1196 10.1023 30.7331 10.0505 30.3038C9.99857 29.8745 9.64709 29.563 9.21467 29.563H3.01087C2.71153 29.563 2.46821 29.3197 2.46821 29.0203C2.46821 28.743 2.67755 28.514 2.94628 28.4818L6.62145 28.4777C6.98824 28.4777 7.28552 28.1804 7.28552 27.8136C7.28552 27.4471 6.98824 27.1495 6.62145 27.1495L1.87133 27.1537C1.57199 27.1537 1.32841 26.9104 1.32841 26.611C1.32841 26.3119 1.57199 26.0684 1.87133 26.0684H6.62145C6.98824 26.0684 7.28552 25.7711 7.28552 25.4043C7.28552 25.0378 6.98824 24.7402 6.62145 24.7402H2.94628C2.67755 24.7083 2.46821 24.4793 2.46821 24.202C2.46821 23.9026 2.71153 23.6593 3.01087 23.6593H6.62145C6.98824 23.6593 7.28552 23.3618 7.28552 22.9953C7.28552 22.6285 6.98824 22.3312 6.62145 22.3312H4.20722C3.93849 22.299 3.72915 22.07 3.72915 21.7927C3.72915 21.4933 3.97273 21.25 4.27181 21.25H10.9781C12.383 21.25 13.7031 21.7979 14.695 22.7927L15.536 23.6357C15.6605 23.7607 15.8296 23.831 16.006 23.831H19.9219V29.0852H16.006ZM32.5715 26.1029C32.4843 26.23 32.3526 26.3148 32.2006 26.3415C31.9059 26.3939 31.62 26.2069 31.549 25.9166L31.2224 24.5849C31.1194 24.1646 30.7326 23.898 30.3038 23.9496C29.8745 24.0015 29.563 24.353 29.563 24.7854V30.9892C29.563 31.2885 29.3197 31.5318 29.0203 31.5318C28.743 31.5318 28.514 31.3225 28.4818 31.0538L28.4777 27.3786C28.4777 27.0118 28.1804 26.7145 27.8136 26.7145C27.4471 26.7145 27.1495 27.0118 27.1495 27.3786L27.1537 32.129C27.1537 32.4281 26.9104 32.6716 26.611 32.6716C26.3119 32.6716 26.0684 32.4281 26.0684 32.129V27.3786C26.0684 27.0118 25.7711 26.7145 25.4043 26.7145C25.0378 26.7145 24.7402 27.0118 24.7402 27.3786V31.0538C24.7083 31.3225 24.4793 31.5318 24.2017 31.5318C23.9026 31.5318 23.6591 31.2885 23.6591 30.9892V27.3786C23.6591 27.0118 23.3618 26.7145 22.995 26.7145C22.6285 26.7145 22.3309 27.0118 22.3309 27.3786V29.7933C22.2988 30.0618 22.0697 30.2709 21.7927 30.2709C21.4933 30.2709 21.2498 30.0276 21.2498 29.7282V23.022C21.2498 21.6171 21.7979 20.2972 22.7927 19.305L23.6357 18.4643C23.7607 18.3396 23.831 18.1704 23.831 17.994V14.0784H26.3924V16.0926C26.3924 16.4594 26.6896 16.7567 27.0562 16.7567C27.4229 16.7567 27.7202 16.4594 27.7202 16.0926V14.0784H29.0852V17.994C29.0852 18.1704 29.1555 18.3396 29.2802 18.4643L30.585 19.7652C31.3266 20.5048 31.826 21.4389 32.0283 22.4666L32.6605 25.671C32.6903 25.8222 32.6587 25.9755 32.5715 26.1029Z" fill="black"/>
</g>
<defs>
<clipPath id="clip0_698_685">
<rect width="34" height="34" fill="white"/>
</clipPath>
</defs>
</svg>
