<svg width="56" height="56" viewBox="0 0 56 56" fill="none" xmlns="http://www.w3.org/2000/svg">
<path d="M27.9607 1.12006C27.7237 1.12851 27.4954 1.212 27.3089 1.3585L4.95261 18.8563L1.54886 21.5185C1.43305 21.6093 1.33626 21.7219 1.264 21.8501C1.19175 21.9783 1.14545 22.1195 1.12776 22.2655C1.11006 22.4116 1.12132 22.5597 1.16088 22.7014C1.20044 22.8432 1.26753 22.9757 1.35832 23.0915C1.44912 23.2073 1.56183 23.304 1.69002 23.3763C1.81822 23.4485 1.95938 23.4947 2.10546 23.5124C2.25153 23.5301 2.39966 23.5188 2.54137 23.4792C2.68308 23.4396 2.8156 23.3724 2.93136 23.2816L4.48011 22.0697V51.5201C4.48014 51.8171 4.59815 52.1019 4.80818 52.312C5.01822 52.522 5.30308 52.64 5.60011 52.6401H50.4001C50.6971 52.64 50.982 52.522 51.192 52.312C51.4021 52.1019 51.5201 51.8171 51.5201 51.5201V22.0697L53.0689 23.2816C53.1846 23.3724 53.3171 23.4396 53.4588 23.4791C53.6006 23.5187 53.7487 23.53 53.8947 23.5124C54.0408 23.4947 54.182 23.4485 54.3102 23.3762C54.4384 23.304 54.5511 23.2072 54.6419 23.0915C54.7326 22.9757 54.7997 22.8431 54.8393 22.7014C54.8789 22.5597 54.8901 22.4116 54.8724 22.2655C54.8547 22.1194 54.8084 21.9783 54.7362 21.8501C54.6639 21.7219 54.5672 21.6093 54.4514 21.5185L51.1089 18.9044L28.6914 1.3585C28.4836 1.19534 28.2248 1.11089 27.9607 1.12006V1.12006ZM28.0001 3.66194L49.2801 20.3154V50.4001H6.72011V20.3154L28.0001 3.66194ZM33.4776 16.8001C31.1798 16.8001 28.8975 17.7127 27.1185 19.4272C27.0949 19.4496 27.0723 19.4729 27.0507 19.4972C27.1026 19.4377 26.8195 19.7384 26.4732 20.0901C26.127 20.4417 25.6521 20.9205 25.0929 21.4835C23.9745 22.6094 22.5169 24.0723 21.057 25.5369C19.5971 27.0016 18.1362 28.4677 17.0079 29.6035C16.4438 30.1714 15.9621 30.657 15.6057 31.0188C15.2691 31.3607 15.1005 31.5304 14.9604 31.686C11.4517 35.2148 11.4477 40.9308 14.9714 44.4019C16.6982 46.1315 18.9959 47.0401 21.3435 47.0401C23.6932 47.0401 25.934 46.1175 27.7026 44.4129C27.7078 44.4078 27.7129 44.4027 27.7179 44.3976C28.1469 43.9674 39.3634 32.715 39.9132 32.1629C43.4315 28.6332 43.4353 22.9071 39.9045 19.4338C39.9023 19.4316 39.9001 19.4294 39.8979 19.4272C38.1198 17.7123 35.8272 16.8001 33.4776 16.8001ZM33.4776 19.0401C35.2521 19.0401 36.9633 19.7111 38.3382 21.0351C40.992 23.6504 40.9967 27.9032 38.3273 30.5813C38.3266 30.5813 38.3258 30.5813 38.3251 30.5813C38.1153 30.792 35.7691 33.1476 33.5979 35.326L24.0298 25.7251C24.9616 24.7899 25.9474 23.8037 26.6832 23.0629C27.2436 22.4987 27.7194 22.0191 28.0701 21.6629C28.3854 21.3427 28.5274 21.1998 28.6717 21.0394C30.0489 19.712 31.7703 19.0401 33.4776 19.0401ZM22.4504 27.3132L32.0164 36.9119C29.2015 39.7361 26.3625 42.5849 26.1473 42.8007C24.7598 44.138 23.12 44.8001 21.3435 44.8001C19.5671 44.8001 17.8585 44.1255 16.5529 42.816C16.5507 42.8138 16.5486 42.8116 16.5464 42.8094C13.8881 40.1944 13.882 35.9384 16.5529 33.2588C16.5687 33.2432 16.584 33.2272 16.5989 33.2107C16.5767 33.2357 16.8506 32.949 17.2026 32.5916C17.5546 32.2342 18.033 31.7496 18.596 31.1829C19.6683 30.1035 21.0608 28.7074 22.4504 27.3132ZM21.2801 30.2401C20.6619 30.2401 20.1601 30.7418 20.1601 31.3601C20.1601 31.9783 20.6619 32.4801 21.2801 32.4801C21.8983 32.4801 22.4001 31.9783 22.4001 31.3601C22.4001 30.7418 21.8983 30.2401 21.2801 30.2401ZM17.9201 33.6001C17.3019 33.6001 16.8001 34.1018 16.8001 34.7201C16.8001 35.3383 17.3019 35.8401 17.9201 35.8401C18.5383 35.8401 19.0401 35.3383 19.0401 34.7201C19.0401 34.1018 18.5383 33.6001 17.9201 33.6001ZM24.6401 33.6001C24.0219 33.6001 23.5201 34.1018 23.5201 34.7201C23.5201 35.3383 24.0219 35.8401 24.6401 35.8401C25.2583 35.8401 25.7601 35.3383 25.7601 34.7201C25.7601 34.1018 25.2583 33.6001 24.6401 33.6001ZM21.2801 36.9601C20.6619 36.9601 20.1601 37.4618 20.1601 38.0801C20.1601 38.6983 20.6619 39.2001 21.2801 39.2001C21.8983 39.2001 22.4001 38.6983 22.4001 38.0801C22.4001 37.4618 21.8983 36.9601 21.2801 36.9601ZM28.0001 36.9601C27.3819 36.9601 26.8801 37.4618 26.8801 38.0801C26.8801 38.6983 27.3819 39.2001 28.0001 39.2001C28.6183 39.2001 29.1201 38.6983 29.1201 38.0801C29.1201 37.4618 28.6183 36.9601 28.0001 36.9601ZM17.9201 40.3201C17.3019 40.3201 16.8001 40.8218 16.8001 41.4401C16.8001 42.0583 17.3019 42.5601 17.9201 42.5601C18.5383 42.5601 19.0401 42.0583 19.0401 41.4401C19.0401 40.8218 18.5383 40.3201 17.9201 40.3201ZM24.6401 40.3201C24.0219 40.3201 23.5201 40.8218 23.5201 41.4401C23.5201 42.0583 24.0219 42.5601 24.6401 42.5601C25.2583 42.5601 25.7601 42.0583 25.7601 41.4401C25.7601 40.8218 25.2583 40.3201 24.6401 40.3201Z" fill="#AA7EF0"/>
</svg>
