<?xml version="1.0" encoding="utf-8"?><!-- Generator: Adobe Illustrator 15.0.0, SVG Export Plug-In . SVG Version: 6.00 Build 0)  --><!DOCTYPE svg PUBLIC "-//W3C//DTD SVG 1.1//EN" "http://www.w3.org/Graphics/SVG/1.1/DTD/svg11.dtd"><svg xmlns="http://www.w3.org/2000/svg" xmlns:xlink="http://www.w3.org/1999/xlink" viewBox="0 0 48 48" width="2.2rem" height="2.2rem"><path fill="#2196F3" d="M41,10H25v28h16c0.553,0,1-0.447,1-1V11C42,10.447,41.553,10,41,10z"/><g><rect x="25" y="15.001" fill="#FFFFFF" width="14" height="1.999"/><rect x="25" y="19" fill="#FFFFFF" width="14" height="2"/><rect x="25" y="23.001" fill="#FFFFFF" width="14" height="2"/><rect x="25" y="27.001" fill="#FFFFFF" width="14" height="1.999"/><rect x="25" y="31" fill="#FFFFFF" width="14" height="2.001"/></g><polygon fill="#0D47A1" points="27,42 6,38 6,10 27,6 "/><path fill="#FFFFFF" d="M21.167,31.012H18.45l-1.802-8.988c-0.098-0.477-0.155-0.996-0.174-1.576h-0.032c-0.043,0.637-0.11,1.162-0.197,1.576l-1.85,8.988h-2.827l-2.86-14.014h2.675l1.536,9.328c0.062,0.404,0.111,0.938,0.143,1.607h0.042c0.019-0.498,0.098-1.051,0.223-1.645l1.97-9.291h2.622l1.785,9.404c0.062,0.348,0.119,0.846,0.17,1.511h0.031c0.02-0.515,0.073-1.035,0.16-1.563l1.503-9.352h2.468L21.167,31.012z"/></svg>