<svg width="228" height="134" viewBox="0 0 228 134" fill="none" xmlns="http://www.w3.org/2000/svg">
<path d="M223.717 66.9448L114.157 3L4 65.975L113.432 130.88L223.717 66.9448Z" fill="#152841" stroke="#90EDC5" stroke-width="4" stroke-miterlimit="10"/>
<path d="M139.914 94.8759C137.542 96.6944 134.771 97.9234 131.831 98.4616C127.826 99.2865 123.679 99.1217 119.752 97.9815C117.499 97.3808 115.331 96.5021 113.295 95.3656C111.596 94.4252 110.098 93.1604 108.887 91.6428C106.506 88.5569 107.064 85.5785 110.415 82.8255C112.552 81.1106 115.073 79.9406 117.763 79.4163C119.699 79.0448 121.671 78.9001 123.641 78.9853L123.21 78.7502L113.09 73.2736L112.962 73.1953C111.003 72.0589 110.934 70.2563 112.873 69.0904C113.992 68.5131 115.233 68.2119 116.493 68.2119C117.752 68.2119 118.993 68.5131 120.113 69.0904C124.397 71.4149 128.679 73.7336 132.957 76.0463L148.828 84.6482L148.975 84.7376C150.651 85.7171 151.082 87.0203 150.102 88.1763C148.672 89.8517 145.125 90.3023 142.421 89.1559L142.196 89.0578C142.287 89.5729 142.346 90.0931 142.372 90.6155C142.402 92.1819 141.521 93.6022 139.914 94.8759ZM127.089 93.2005C129.688 93.4569 132.298 92.8287 134.496 91.4175C136.112 90.3301 136.886 89.0564 136.455 87.6262C135.948 86.16 134.896 84.9458 133.516 84.2363C132.17 83.5024 130.725 82.9677 129.225 82.6491C122.945 81.1993 117.096 84.4124 117.645 87.6557C117.89 89.1645 119.094 90.3792 120.838 91.3883L120.976 91.4667C122.867 92.4906 124.961 93.0828 127.108 93.2008" fill="#6DF0C2"/>
<path d="M90.0372 46.9679C91.5949 47.8595 91.9379 49.2897 90.6249 50.3968C89.7634 50.9767 88.7829 51.3561 87.7554 51.507C86.728 51.6579 85.6797 51.5765 84.6879 51.2688C83.4615 50.9246 82.205 50.6983 80.9356 50.5929C78.0934 50.3588 75.2323 50.6409 72.4906 51.4255C70.1829 51.9935 68.0027 52.9905 66.0636 54.3645C63.3988 56.4506 62.6544 58.7927 63.7418 61.2909C64.9082 63.8034 66.8618 65.8671 69.3066 67.1692C70.5018 67.8432 71.7541 68.4103 73.049 68.864C77.2645 70.3105 81.8168 70.4606 86.1184 69.2949C87.0392 69.0598 87.9112 68.7758 88.8029 68.5112C91.8497 67.3257 94.1325 65.8171 95.3177 63.7892C95.7635 63.036 95.9655 62.1634 95.8958 61.2909C95.7781 59.4197 98.6972 58.0578 101.774 58.5281C102.509 58.6328 103.219 58.8684 103.871 59.2236C104.255 59.396 104.585 59.6692 104.826 60.0142C105.068 60.3592 105.211 60.7631 105.242 61.183C105.242 63.8479 103.694 66.2195 101.019 68.3651C98.8907 69.995 96.5296 71.2958 94.0148 72.2241C90.4713 73.6437 86.7375 74.5317 82.9344 74.8594C75.3223 75.5255 68.7583 74.1934 63.2522 71.1367L62.8505 70.9015C58.8631 68.5994 56.1005 65.8562 54.915 62.6427C53.1418 57.8912 55.3558 53.7667 61.2537 50.3572C66.2512 47.5685 71.8061 45.9257 77.5165 45.5475C81.1895 45.2068 84.8936 45.475 88.4792 46.3411C89.0257 46.4742 89.5503 46.6849 90.0369 46.967L90.0372 46.9679Z" fill="#6DF0C2"/>
<path d="M176.838 67.3165C177.441 67.6263 177.919 68.1351 178.19 68.7568C178.896 70.589 176.495 72.3228 173.223 72.3228H160.585V79.6215C160.585 81.9042 156.421 83.3344 152.992 82.1882C152.592 82.0601 152.204 81.8927 151.836 81.6885C151.439 81.5047 151.098 81.2163 150.852 80.8541C150.605 80.492 150.461 80.0696 150.436 79.6322C150.436 77.3396 150.436 75.0473 150.436 72.7743C150.452 72.6491 150.475 72.5248 150.504 72.4021H137.855C136.613 72.4511 135.379 72.1705 134.279 71.5888C133.948 71.4045 133.644 71.1737 133.378 70.9034C133.146 70.721 132.961 70.4862 132.838 70.2182C132.715 69.9502 132.657 69.6568 132.669 69.3622C132.682 69.0675 132.764 68.78 132.909 68.5233C133.055 68.2667 133.259 68.0483 133.505 67.886C134.766 66.8993 136.347 66.4138 137.945 66.5229H149.701C149.928 66.515 150.156 66.538 150.377 66.5915V59.3417C150.377 58.2346 151.249 57.2452 153.012 56.6769C154.744 56.1118 156.618 56.1672 158.312 56.8337C158.582 56.9433 158.844 57.0709 159.096 57.2157C159.504 57.3951 159.854 57.6844 160.106 58.0511C160.359 58.4179 160.504 58.8478 160.527 59.2926V66.6109C160.749 66.5637 160.975 66.5338 161.203 66.5214H173.057C174.365 66.4559 175.667 66.7298 176.838 67.3165V67.3165Z" fill="#6DF0C2"/>
<path d="M146.918 38.0146C148.878 39.1706 148.956 40.9536 147.008 42.0509C145.931 42.623 144.73 42.9222 143.51 42.9222C142.291 42.9222 141.09 42.623 140.013 42.0509C137.965 40.8654 137.975 39.2496 140.013 38.0438C141.07 37.4622 142.256 37.1547 143.462 37.1495C144.669 37.1443 145.857 37.4415 146.919 38.014L146.918 38.0146Z" fill="#6DF0C2"/>
<path d="M127.481 38.5642C133.643 42.1793 134.574 47.695 129.666 51.8978C128.155 53.1654 126.434 54.16 124.581 54.8368C123.752 55.1291 122.872 55.2502 121.995 55.193C121.118 55.1357 120.261 54.9012 119.477 54.5036C119.388 54.4572 119.303 54.4048 119.222 54.3469C117.851 53.3673 117.919 52.0251 119.418 51.1727C120.143 50.7612 121.005 50.4185 121.73 50.0069C124.973 48.1357 125.453 45.1869 122.935 42.953C122.556 42.6346 122.149 42.3494 121.721 42.1007C121.103 41.7607 120.469 41.4534 119.82 41.1798C119.643 41.1014 119.477 41.0231 119.32 40.9348C117.86 40.0825 117.723 38.8285 119.065 37.7801C119.884 37.2755 120.809 36.9701 121.767 36.8884C122.725 36.8067 123.689 36.9511 124.581 37.3098C125.58 37.6627 126.502 38.1517 127.481 38.5642Z" fill="#6DF0C2"/>
<path d="M110.023 37.563C110.237 37.685 110.437 37.8296 110.621 37.9942C111.786 39.0327 111.296 40.4924 109.465 41.1978C105.663 42.6771 104.341 45.1167 105.213 47.2621C105.745 48.4319 106.656 49.3879 107.799 49.9758C108.29 50.2574 108.801 50.503 109.327 50.7107C109.583 50.8014 109.829 50.9162 110.062 51.0537C111.385 51.8178 111.747 52.9347 110.885 53.8752C109.758 55.1293 106.966 55.5507 104.919 54.7374C103.939 54.3357 102.959 53.8752 102.44 53.6303C98.5212 51.3085 96.6697 48.8004 96.6992 45.882C96.6992 43.4424 98.1198 41.2675 100.785 39.3767C102.079 38.443 103.501 37.7003 105.007 37.1714C105.826 36.8943 106.693 36.7861 107.555 36.8534C108.417 36.9207 109.257 37.1621 110.023 37.563V37.563Z" fill="#6DF0C2"/>
<path d="M110.111 51.1802L110.366 51.3369C111.679 52.3165 111.463 53.6489 109.856 54.4133C109.056 54.761 108.189 54.9281 107.317 54.9027C106.445 54.8773 105.59 54.6601 104.811 54.2664L104.556 54.1096C103.234 53.1301 103.459 51.8075 105.056 51.0431C105.856 50.6883 106.725 50.5165 107.599 50.5402C108.474 50.564 109.332 50.7826 110.111 51.1802V51.1802Z" fill="#52CE9E"/>
<path d="M125.878 39.2461C125.882 38.0449 124.205 37.0661 122.133 37.0599C120.06 37.0537 118.377 38.0224 118.374 39.2235C118.37 40.4247 120.047 41.4035 122.12 41.4097C124.192 41.4159 125.875 40.4472 125.878 39.2461Z" fill="#52CE9E"/>
</svg>
