<svg width="115" height="100" viewBox="0 0 115 100" fill="none" xmlns="http://www.w3.org/2000/svg">
<path d="M93.9199 45.0898L94.0099 77.6297H94.0699L113.83 66.2397L113.74 33.9298C113.741 33.8989 113.734 33.8684 113.719 33.8414C113.704 33.8145 113.682 33.7921 113.655 33.7767C113.628 33.7612 113.598 33.7534 113.567 33.7539C113.536 33.7545 113.506 33.7634 113.48 33.7798L93.9199 45.0898Z" fill="#2C86A6" stroke="#172842" stroke-miterlimit="10"/>
<path d="M62.79 44.01L62.88 76.62C62.8902 75.969 63.0403 75.3278 63.32 74.74C64.0427 73.368 65.1658 72.2484 66.54 71.53C70.3811 69.5295 74.7745 68.8511 79.04 69.6C84.48 70.53 86.04 73.23 87.33 76.1C88.11 77.77 91.33 78.49 93.74 77.78C93.8184 77.758 93.8872 77.7108 93.9361 77.6457C93.9849 77.5807 94.0109 77.5013 94.01 77.42L93.92 45.09C91.42 45.94 88.04 45.22 87.23 43.5C85.9 40.63 84.39 37.92 78.95 36.99C74.6835 36.2381 70.288 36.9203 66.45 38.93C65.0723 39.6389 63.9476 40.7567 63.23 42.13C62.9512 42.7182 62.8011 43.3591 62.79 44.01Z" fill="#38ACD4"/>
<path d="M91.7298 78.5506C89.6598 78.5506 87.5698 77.8006 86.8698 76.3106C85.4798 73.3106 84.0098 70.9606 78.9598 70.0906C74.8067 69.3671 70.531 70.0276 66.7898 71.9706C65.5059 72.6394 64.4586 73.6867 63.7898 74.9706C63.5371 75.4917 63.4007 76.0615 63.3898 76.6406H62.3898L62.2998 44.0406C62.3104 43.3211 62.474 42.612 62.7798 41.9606C63.5458 40.4912 64.7426 39.2909 66.2098 38.5206C70.1546 36.4636 74.6663 35.7608 79.0498 36.5206C84.5698 37.4606 86.2298 40.1506 87.6998 43.3006C88.3698 44.7506 91.4398 45.4206 93.7698 44.6406L94.4298 44.4206L94.5198 77.9906L94.1798 78.1906C93.3887 78.4453 92.5608 78.567 91.7298 78.5506ZM75.7298 68.8206C76.8757 68.8173 78.0197 68.911 79.1498 69.1006C84.6698 70.0506 86.3298 72.7406 87.7998 75.8906C88.4398 77.2706 91.2498 77.8906 93.5298 77.3306L93.4398 45.7506C90.9298 46.3206 87.6998 45.6306 86.7998 43.7506C85.4098 40.7506 83.9398 38.3906 78.8898 37.5206C74.7367 36.7971 70.461 37.4576 66.7198 39.4006C65.437 40.0709 64.3901 41.1178 63.7198 42.4006C63.4732 42.9234 63.3403 43.4926 63.3298 44.0706L63.4098 73.7106C64.1842 72.6566 65.1811 71.786 66.3298 71.1606C69.2102 69.6048 72.4362 68.8 75.7098 68.8206H75.7298Z" fill="#172842"/>
<path d="M62.79 44.0105L62.88 76.6205C62.8902 75.9695 63.0403 75.3284 63.32 74.7405C64.0427 73.3685 65.1658 72.2489 66.54 71.5305C67.1483 71.1869 67.7798 70.8861 68.43 70.6305L68.34 38.0205C67.6879 38.2754 67.056 38.5796 66.45 38.9305C65.0723 39.6395 63.9476 40.7572 63.23 42.1305C62.9512 42.7187 62.8011 43.3597 62.79 44.0105Z" fill="#38ACD4"/>
<path d="M62.38 76.6208L62.29 44.0208C62.3006 43.3012 62.4642 42.5922 62.77 41.9408C63.5361 40.4713 64.7328 39.2711 66.2 38.5008C66.8426 38.1415 67.5112 37.8306 68.2 37.5708L68.88 37.3008L68.97 70.9808L68.65 71.1108C68.0223 71.3544 67.4138 71.6452 66.83 71.9808C65.5461 72.6496 64.4988 73.6969 63.83 74.9808C63.5788 75.4989 63.4423 76.0651 63.43 76.6408H62.43L62.38 76.6208ZM67.84 38.7808C67.4501 38.954 67.0696 39.1476 66.7 39.3608C65.4173 40.0311 64.3704 41.078 63.7 42.3608C63.4535 42.8836 63.3206 43.4528 63.31 44.0308L63.39 73.6708C64.1644 72.6168 65.1613 71.7462 66.31 71.1208C66.8396 70.8204 67.3873 70.5532 67.95 70.3208L67.84 38.7808Z" fill="#172842"/>
<path d="M1.04989 33.65C1.04989 33.76 0.87989 34.99 1.40989 33.89L56.0399 65.63L57.1899 66.3L57.4699 66.14L65.4099 61.55L77.3599 54.65C78.9099 53.18 77.6099 51.14 74.4999 50.72C67.2299 49.72 61.0599 46.9 63.2299 42.13C63.9474 40.7567 65.0722 39.639 66.4499 38.93C70.2879 36.9203 74.6833 36.2381 78.9499 36.99C84.3899 37.92 85.9499 40.63 87.2299 43.5C88.0399 45.22 91.4199 45.94 93.9199 45.09L113.63 33.69C113.63 33.69 113.63 33.63 113.63 33.62L94.7799 22.62C92.8899 21.52 93.0999 19.84 94.7799 18.86C95.4002 18.5149 96.0777 18.2845 96.7799 18.18C100.13 17.65 103.35 17.08 105.59 15.79C106.623 15.2358 107.471 14.391 108.03 13.36C110.03 9.53 105.86 5.28 99.1899 4.27C94.7899 3.61 91.3399 4.33 88.8199 5.79C86.813 6.9132 85.2369 8.67227 84.3399 10.79C84.0872 11.3349 83.6619 11.7813 83.1299 12.06C82.1243 12.5704 81.0126 12.8363 79.8849 12.8363C78.7572 12.8363 77.6455 12.5704 76.6399 12.06L57.5599 1L1.28989 33.49C1.28989 33.49 1.04989 33.63 1.04989 33.65Z" fill="#3EBFEC" stroke="#172842" stroke-miterlimit="10"/>
<path d="M77.8899 87.2604L65.6899 94.1604L57.5799 98.7404L57.2999 98.9104L57.1899 66.3004L57.4899 66.1404L65.5999 61.5504L77.7999 54.6504L77.8899 87.2604Z" fill="#2C86A6"/>
<path d="M57.6297 99.32C57.5462 99.3718 57.4504 99.4003 57.3521 99.4026C57.2539 99.4048 57.1569 99.3807 57.0711 99.3327C56.9854 99.2847 56.914 99.2146 56.8645 99.1298C56.8151 99.0449 56.7892 98.9483 56.7897 98.85L56.6797 66.01L57.2397 65.7L78.3097 53.79L78.3997 87.55L57.6297 99.32ZM57.7097 66.59L57.7997 98.04L77.3797 86.97L77.2897 55.52L57.7097 66.59Z" fill="#172842"/>
<path d="M57.28 98.2404C57.28 98.6004 57.28 98.9204 57.07 98.7904L1.1 66.2404L1 34.2404C1.00147 34.1837 1.01753 34.1283 1.04664 34.0796C1.07574 34.0309 1.11691 33.9906 1.16616 33.9624C1.21541 33.9343 1.27109 33.9193 1.32781 33.919C1.38454 33.9186 1.4404 33.9329 1.49 33.9604L56.04 65.6604L57.18 66.3304L57.28 96.4004V98.2404Z" fill="#349FC4" stroke="#172842" stroke-miterlimit="10"/>
</svg>
