<svg width="115" height="100" viewBox="0 0 115 100" fill="none" xmlns="http://www.w3.org/2000/svg">
<path d="M21.2412 77.82C21.2406 77.8468 21.2332 77.873 21.2198 77.8962C21.2064 77.9195 21.1874 77.9389 21.1645 77.9529C21.1416 77.9668 21.1156 77.9747 21.0888 77.976C21.062 77.9773 21.0353 77.9718 21.0112 77.96L9.37124 71.2L1.47124 66.61L1.20124 66.45L1.10125 34.11C1.09691 34.0809 1.10123 34.0512 1.11368 34.0245C1.12613 33.9978 1.14615 33.9754 1.17125 33.96C1.20772 33.9438 1.24875 33.9409 1.28715 33.9519C1.32555 33.9628 1.35886 33.987 1.38124 34.02L9.27124 38.61L21.1412 45.51L21.2412 77.82Z" fill="#00B085" stroke="#172842" stroke-miterlimit="10"/>
<path d="M113.801 66.6901L106.301 70.9301L93.2411 78.3001L93.1411 45.7001L106.201 38.3201L113.581 34.1601C113.594 34.1535 113.608 34.1502 113.623 34.1504C113.637 34.1506 113.652 34.1543 113.664 34.1612C113.677 34.168 113.688 34.1779 113.696 34.1899C113.704 34.2019 113.709 34.2157 113.711 34.2301L113.801 66.6901Z" fill="#00B085" stroke="#172842" stroke-miterlimit="10"/>
<path d="M51.9111 76.9406L51.8111 44.3406C51.8111 41.1506 48.2611 38.0806 42.8111 37.2606C38.4111 36.5906 34.9511 37.2606 32.4311 38.7706C30.4251 39.895 28.8494 41.6537 27.9511 43.7706C27.6985 44.3156 27.2732 44.7619 26.7411 45.0406C25.8808 45.4747 24.9431 45.7344 23.982 45.8048C23.021 45.8751 22.0555 45.7548 21.1411 45.4506L21.2311 78.0006C21.2319 78.0159 21.237 78.0305 21.2459 78.0429C21.2548 78.0553 21.267 78.065 21.2811 78.0706C23.1141 78.668 25.1089 78.517 26.8311 77.6506C27.3655 77.3719 27.794 76.9258 28.0511 76.3806C28.9396 74.2607 30.5136 72.5001 32.5211 71.3806C35.0511 69.9206 38.5211 69.2006 42.9011 69.8606C48.3711 70.6906 51.9111 73.7506 51.9111 76.9406Z" fill="#00B085"/>
<path d="M51.9111 76.9406L51.8111 44.3406C51.8111 41.1506 48.2611 38.0806 42.8111 37.2606C38.4111 36.5906 34.9511 37.2606 32.4311 38.7706C30.4251 39.895 28.8494 41.6537 27.9511 43.7706C27.6985 44.3156 27.2732 44.7619 26.7411 45.0406C25.8808 45.4747 24.9431 45.7344 23.982 45.8048C23.021 45.8751 22.0555 45.7548 21.1411 45.4506L21.2311 78.0006C21.2319 78.0159 21.237 78.0305 21.2459 78.0429C21.2548 78.0553 21.267 78.065 21.2811 78.0706C23.1141 78.668 25.1089 78.517 26.8311 77.6506C27.3655 77.3719 27.794 76.9258 28.0511 76.3806C28.9396 74.2607 30.5136 72.5001 32.5211 71.3806C35.0511 69.9206 38.5211 69.2006 42.9011 69.8606C48.3711 70.6906 51.9111 73.7506 51.9111 76.9406Z" stroke="#172842" stroke-miterlimit="10"/>
<path d="M93.1411 46.8402L93.2411 79.4502C93.2436 79.0244 93.4039 78.6146 93.6911 78.3002L93.5911 45.7002C93.3124 46.0159 93.1531 46.4193 93.1411 46.8402Z" fill="#3B7865"/>
<path d="M108.461 88.7404L108.361 56.1304C108.359 56.7781 108.212 57.4171 107.931 58.0004C107.214 59.3767 106.09 60.4978 104.711 61.2104C100.864 63.2051 96.4665 63.873 92.201 63.1104C86.771 62.1804 85.2511 59.4704 83.9211 56.6004C83.1511 54.9504 80.0311 54.2304 77.5811 54.9004L77.6711 87.5104C80.1311 86.8404 83.2511 87.5604 84.0111 89.2104C85.3511 92.0804 86.8611 94.7804 92.3011 95.7204C96.5677 96.4662 100.961 95.7844 104.801 93.7804C106.177 93.0646 107.301 91.9443 108.021 90.5704C108.294 89.998 108.444 89.3745 108.461 88.7404Z" fill="#00B085"/>
<path d="M108.461 88.7404L108.361 56.1304C108.359 56.7781 108.212 57.4171 107.931 58.0004C107.214 59.3767 106.09 60.4978 104.711 61.2104C100.864 63.2051 96.4665 63.873 92.201 63.1104C86.771 62.1804 85.2511 59.4704 83.9211 56.6004C83.1511 54.9504 80.0311 54.2304 77.5811 54.9004L77.6711 87.5104C80.1311 86.8404 83.2511 87.5604 84.0111 89.2104C85.3511 92.0804 86.8611 94.7804 92.3011 95.7204C96.5677 96.4662 100.961 95.7844 104.801 93.7804C106.177 93.0646 107.301 91.9443 108.021 90.5704C108.294 89.998 108.444 89.3745 108.461 88.7404V88.7404Z" stroke="#172842" stroke-miterlimit="10"/>
<path d="M57.5212 99.0003C57.5199 99.0184 57.5141 99.036 57.5044 99.0513C57.4946 99.0667 57.4812 99.0794 57.4654 99.0883C57.4495 99.0973 57.4317 99.1021 57.4135 99.1024C57.3953 99.1028 57.3773 99.0986 57.3612 99.0903L49.0512 94.2903L37.0512 87.3903L36.9512 54.0703L48.9512 60.9603L57.4312 65.8603L57.5212 99.0003Z" fill="#00B085" stroke="#172842" stroke-miterlimit="10"/>
<path d="M113.451 33.52V33.9L106.111 38.11L93.3412 45.48C92.1212 46.94 93.4512 48.81 96.4112 49.2C103.671 50.2 109.841 53.03 107.671 57.79C106.952 59.1643 105.828 60.2847 104.451 61C100.612 63.0046 96.2178 63.6865 91.9512 62.94C86.5112 62 85.0012 59.3 83.6712 56.43C82.9012 54.78 79.7812 54.06 77.3312 54.73L57.1812 66.36L48.9612 61.58L37.3512 54.83C36.1112 53.73 36.3512 52.54 37.7812 51.73C38.5141 51.3373 39.3089 51.0735 40.1312 50.95C43.4412 50.38 46.5012 49.86 48.6512 48.62C49.6744 48.0717 50.5129 47.2333 51.0612 46.21C53.0612 42.39 49.2212 38.05 42.5612 37.04C38.1612 36.38 34.7012 37.1 32.1712 38.56C30.1694 39.6867 28.5975 41.445 27.7012 43.56C27.451 44.1124 27.0209 44.5636 26.4812 44.84C25.622 45.2727 24.6857 45.5308 23.7262 45.5995C22.7667 45.6681 21.8031 45.546 20.8912 45.24L9.02116 38.34L1.12116 33.75C1.09166 33.7405 1.06511 33.7235 1.04409 33.7008C1.02306 33.678 1.00827 33.6502 1.00116 33.62C0.998387 33.595 1.00061 33.5697 1.00767 33.5456C1.01474 33.5215 1.02651 33.499 1.04232 33.4795C1.05813 33.46 1.07767 33.4438 1.09978 33.4319C1.1219 33.4199 1.14616 33.4125 1.17116 33.41L7.28116 29.88L54.9612 2.41L57.3912 1L57.6612 1.16L64.9612 5.39L77.6512 12.77L113.451 33.52Z" fill="#42E4BC" stroke="#172842" stroke-miterlimit="10"/>
<path d="M57.4312 66.5703L57.5211 99.0203C57.5202 99.037 57.5239 99.0537 57.5319 99.0684C57.5398 99.0831 57.5518 99.0954 57.5663 99.1037C57.5809 99.112 57.5975 99.1161 57.6142 99.1155C57.631 99.1149 57.6472 99.1096 57.6611 99.1003L77.6611 87.5503L77.5712 55.8703C77.5698 55.7761 77.5439 55.684 77.496 55.6029C77.448 55.5219 77.3797 55.4548 77.2979 55.4083C77.216 55.3618 77.1234 55.3376 77.0293 55.3379C76.9351 55.3382 76.8427 55.3632 76.7612 55.4103L57.4312 66.5703Z" fill="#00B085" stroke="#172842" stroke-miterlimit="10"/>
</svg>
