<svg width="115" height="100" viewBox="0 0 115 100" fill="none" xmlns="http://www.w3.org/2000/svg">
<path d="M57.186 66.3097L57.246 98.6397C57.2498 98.6655 57.2456 98.6919 57.2342 98.7153C57.2227 98.7388 57.2045 98.7582 57.1819 98.7712C57.1592 98.7841 57.1332 98.79 57.1072 98.7879C57.0812 98.7859 57.0564 98.776 57.036 98.7597L37.246 87.2797L21.336 78.0397L8.66603 70.6397L1.37603 66.3997L1.09603 66.2397L1.00604 33.9697C0.993378 33.9181 1.00079 33.8635 1.02677 33.8171C1.05276 33.7707 1.09538 33.7359 1.14603 33.7197C1.21603 33.7197 1.27603 33.7997 1.28603 33.7997L8.57604 38.0297L57.186 66.3097Z" fill="#DEB037" stroke="#172842" stroke-miterlimit="10"/>
<path d="M113.836 66.2695L99.586 74.5495L68.806 92.2595L57.436 98.8295C57.4199 98.8378 57.4019 98.842 57.3837 98.8416C57.3655 98.8413 57.3477 98.8364 57.3318 98.8275C57.316 98.8186 57.3026 98.8059 57.2928 98.7905C57.2831 98.7752 57.2773 98.7576 57.276 98.7395L57.186 66.3095L68.716 59.6395L99.496 41.9295L113.546 33.7695C113.566 33.7569 113.588 33.7499 113.612 33.7491C113.635 33.7483 113.658 33.7539 113.679 33.7651C113.699 33.7764 113.716 33.7929 113.728 33.813C113.74 33.8332 113.746 33.8561 113.746 33.8795L113.836 66.2695Z" fill="#DEB037" stroke="#172842" stroke-miterlimit="10"/>
<path d="M10.3662 6.43C8.98714 7.14523 7.86 8.26539 7.13621 9.64C4.97621 14.41 11.1362 17.25 18.4162 18.22C21.2462 18.61 22.5862 20.33 21.6362 21.75L1.37621 33.45C1.3409 33.4689 1.31067 33.4961 1.28805 33.5291C1.26542 33.5622 1.25107 33.6002 1.24621 33.64C1.23672 33.678 1.2363 33.7178 1.24499 33.756C1.25367 33.7942 1.27122 33.8298 1.29622 33.86L8.57622 38.1L21.2762 45.47L21.3962 45.65L36.8862 54.65L37.1762 54.72L57.1762 66.36L68.7062 59.64L99.4862 41.93L113.486 33.8C113.514 33.7871 113.537 33.7666 113.554 33.741C113.57 33.7153 113.579 33.6855 113.579 33.655C113.579 33.6245 113.57 33.5947 113.554 33.569C113.537 33.5434 113.514 33.5229 113.486 33.51L94.0562 22.21C93.2002 21.8623 92.2793 21.7029 91.3562 21.7426C90.433 21.7822 89.5293 22.0201 88.7062 22.44C88.1314 22.7575 87.6595 23.2329 87.3462 23.81C86.3462 25.72 85.4462 27.49 83.3462 28.73C82.0477 29.4324 80.6365 29.9028 79.1762 30.12C72.5562 31.26 65.0762 29.03 63.3662 25.17C62.2362 22.62 63.4962 20.62 66.0162 19.17C68.7391 17.7801 71.6954 16.9054 74.7362 16.59C75.5045 16.5 76.2482 16.2623 76.9262 15.89C78.3662 15.06 78.7362 13.71 77.6462 12.65L65.7662 5.75L57.8762 1.17L57.5962 1L37.2262 12.77C34.8262 13.3 31.9262 12.57 31.2262 10.99C29.8862 8.12 28.3762 5.42 22.9362 4.48C18.6459 3.71831 14.2241 4.40428 10.3662 6.43Z" fill="#F7C43D" stroke="#172842" stroke-miterlimit="10"/>
<path d="M8.56592 38.0596L57.1859 66.3196" stroke="#172842" stroke-miterlimit="10"/>
</svg>
