<svg width="115" height="100" viewBox="0 0 115 100" fill="none" xmlns="http://www.w3.org/2000/svg">
<path d="M1.21924 33.9507L1.30924 66.4007L19.9992 77.2607L22.3192 46.0607L1.31924 33.8707C1.30741 33.8693 1.29542 33.8703 1.28397 33.8736C1.27251 33.8769 1.26183 33.8824 1.25253 33.8898C1.24322 33.8973 1.2355 33.9065 1.22978 33.9169C1.22407 33.9274 1.22048 33.9389 1.21924 33.9507Z" fill="#D95A85" stroke="#172842" stroke-miterlimit="10"/>
<path d="M5.87939 55.8809L5.96939 88.4909C5.97852 89.1162 6.11817 89.7327 6.37939 90.3009C8.08939 94.1609 15.3794 96.5809 22.0494 95.4509C23.5194 95.2365 24.9388 94.7589 26.2394 94.0409C28.1481 92.8382 29.6149 91.0486 30.4194 88.9409C30.6826 88.4419 31.0904 88.0341 31.5894 87.7709C32.5932 87.2606 33.7033 86.9947 34.8294 86.9947C35.9554 86.9947 37.0656 87.2606 38.0694 87.7709L37.9694 55.1609C36.9673 54.6507 35.8588 54.3848 34.7344 54.3848C33.6099 54.3848 32.5014 54.6507 31.4994 55.1609C30.9971 55.4277 30.5862 55.8386 30.3194 56.3409C29.5188 58.4453 28.0551 60.2319 26.1494 61.4309C24.8481 62.1473 23.429 62.6248 21.9594 62.8409C15.3394 63.9709 7.9594 61.5509 6.2894 57.6909C6.02817 57.1227 5.88852 56.5062 5.87939 55.8809Z" fill="#D95A85"/>
<path d="M5.87939 55.8809L5.96939 88.4909C5.97852 89.1162 6.11817 89.7327 6.37939 90.3009C8.08939 94.1609 15.3794 96.5809 22.0494 95.4509C23.5194 95.2365 24.9388 94.7589 26.2394 94.0409C28.1481 92.8382 29.6149 91.0486 30.4194 88.9409C30.6826 88.4419 31.0904 88.0341 31.5894 87.7709C32.5932 87.2606 33.7033 86.9947 34.8294 86.9947C35.9554 86.9947 37.0656 87.2606 38.0694 87.7709L37.9694 55.1609C36.9673 54.6507 35.8588 54.3848 34.7344 54.3848C33.6099 54.3848 32.5014 54.6507 31.4994 55.1609C30.9971 55.4277 30.5862 55.8386 30.3194 56.3409C29.5188 58.4453 28.0551 60.2319 26.1494 61.4309C24.8481 62.1473 23.429 62.6248 21.9594 62.8409C15.3394 63.9709 7.9594 61.5509 6.2894 57.6909C6.02817 57.1227 5.88852 56.5062 5.87939 55.8809V55.8809Z" stroke="#172842" stroke-miterlimit="10"/>
<path d="M113.549 66.1205L113.269 66.2805L109.499 68.4605L105.319 70.8705L93.3794 77.7305L76.8194 87.2905L65.6994 93.7305L57.0994 98.7305C57.0494 98.7305 56.9994 98.7305 56.9994 98.7305L56.9094 66.2305L65.5994 61.2305L76.7194 54.7305L93.2894 45.1705L105.229 38.2705L109.409 35.8605L113.179 33.6805C113.225 33.6677 113.274 33.6677 113.319 33.6805C113.361 33.6998 113.397 33.7308 113.422 33.7698C113.447 33.8089 113.46 33.8542 113.459 33.9005L113.549 66.1205Z" fill="#D95A85" stroke="#172842" stroke-miterlimit="10"/>
<path d="M37.9795 55.1602L38.0795 87.7702L56.7695 98.6302C56.8995 98.7102 56.9995 98.6302 56.9995 98.5002L56.8795 66.1602L37.9795 55.1602Z" fill="#D95A85" stroke="#172842" stroke-miterlimit="10"/>
<path d="M57.1894 1L56.9094 1.16L49.7194 5.48L36.9494 12.86C35.7294 14.32 37.0594 16.18 40.0194 16.58C47.2794 17.58 53.4394 20.41 51.2794 25.17C50.5598 26.5443 49.4359 27.6647 48.0594 28.38C44.2183 30.3805 39.8249 31.0588 35.5594 30.31C30.1194 29.38 28.5594 26.68 27.2794 23.81C26.5094 22.16 23.3894 21.44 20.9394 22.1L1.06938 33.57C1.04844 33.581 1.03092 33.5976 1.01869 33.6179C1.00647 33.6381 1 33.6613 1 33.685C1 33.7087 1.00647 33.7319 1.01869 33.7522C1.03092 33.7724 1.04844 33.789 1.06938 33.8L19.5594 44.55C21.4494 45.64 21.2294 47.32 19.5594 48.3C18.874 48.672 18.1239 48.9096 17.3494 49C14.3092 49.3123 11.3529 50.1836 8.62938 51.57C6.10938 53.03 4.84938 55.03 5.97938 57.57C7.68938 61.43 14.9794 63.86 21.6494 62.72C23.1159 62.504 24.5317 62.0265 25.8294 61.31C27.7349 60.1083 29.2011 58.3229 30.0094 56.22C30.2731 55.7155 30.6849 55.3037 31.1894 55.04C32.1914 54.5298 33.2999 54.2639 34.4244 54.2639C35.5488 54.2639 36.6573 54.5298 37.6594 55.04L56.5894 66.04L65.2794 61.04L76.4094 54.62L92.9694 45.06L104.909 38.16L109.089 35.75L112.859 33.57C112.887 33.5571 112.91 33.5366 112.927 33.511C112.943 33.4853 112.952 33.4555 112.952 33.425C112.952 33.3946 112.943 33.3647 112.927 33.339C112.91 33.3134 112.887 33.2929 112.859 33.28L112.249 32.93L92.8794 21.64L77.4394 12.64L58.8094 1.85001L57.1894 1Z" fill="#FE6A9C" stroke="#172842" stroke-miterlimit="10"/>
</svg>
