<svg width="62" height="47" viewBox="0 0 62 47" fill="none" xmlns="http://www.w3.org/2000/svg">
<path d="M9.88119 22.4787C10.9199 22.8966 12.019 23.4897 12.9469 24.2274C13.8799 24.9693 14.5871 25.8148 14.9337 26.7245L16.8027 26.0126C16.2861 24.6567 15.2953 23.5395 14.1916 22.6619C13.0827 21.7803 11.8065 21.0974 10.6276 20.6232L9.88119 22.4787ZM6.53421 23.6325C7.46854 22.4905 8.77714 22.0346 9.88119 22.4787L10.6276 20.6232C8.46294 19.7525 6.28298 20.7812 4.9863 22.366L6.53421 23.6325Z" fill="#F4A36A"/>
<path d="M6.54945 30.3298V31.7457C6.54945 32.4634 6.16488 33.1261 5.54173 33.4822L2.00772 35.5016C1.38457 35.8577 1 36.5204 1 37.2381V44.7981M12.4953 30.3298V31.6703C12.4953 32.4278 12.9233 33.1204 13.6009 33.4592L15.27 34.2937" stroke="#F4A36A" stroke-width="2"/>
<path d="M16.2602 23.595C16.062 24.9823 16.0224 28.1535 17.4494 29.739" stroke="#F4A36A" stroke-width="2"/>
<path d="M3.53399 24.213C3.54735 23.799 3.22256 23.4526 2.80856 23.4392C2.39457 23.4259 2.04813 23.7507 2.03477 24.1647L3.53399 24.213ZM13.0905 32.9094L12.8898 32.1868L12.5742 32.2744L12.424 32.5654L13.0905 32.9094ZM17.3413 29.9961L16.6669 29.6679L17.3413 29.9961ZM2.03477 24.1647C2.01001 24.9323 2.00441 25.7518 1.95034 26.561C1.89617 27.3717 1.79704 28.0864 1.61306 28.6152L3.02976 29.1081C3.28237 28.382 3.3908 27.5021 3.447 26.661C3.50331 25.8184 3.5109 24.929 3.53399 24.213L2.03477 24.1647ZM2.2345 31.347C2.89572 31.7918 3.66544 32.2507 4.20322 32.597C4.48815 32.7804 4.71888 32.9384 4.88786 33.0727C5.08233 33.2273 5.10519 33.2822 5.08648 33.2448L6.42813 32.574C6.28639 32.2905 6.02517 32.0606 5.82133 31.8986C5.59201 31.7163 5.31023 31.5257 5.01531 31.3358C4.39339 30.9354 3.73404 30.5479 3.07175 30.1024L2.2345 31.347ZM5.08648 33.2448C5.22172 33.5153 5.57287 34.0521 6.06311 34.6053C6.55527 35.1607 7.23923 35.7917 8.05766 36.1863C8.89334 36.5892 9.90676 36.7592 10.9616 36.3008C11.9882 35.8546 12.9236 34.8682 13.757 33.2534L12.424 32.5654C11.6719 34.0227 10.9474 34.6714 10.3637 34.9251C9.80816 35.1665 9.2608 35.1011 8.70911 34.8351C8.14017 34.5608 7.6102 34.0894 7.18571 33.6104C6.7593 33.1293 6.49109 32.6999 6.42813 32.574L5.08648 33.2448ZM13.2912 33.6321C13.9121 33.4596 14.8433 33.1054 15.7315 32.5779C16.6048 32.0591 17.5331 31.3157 18.0157 30.3243L16.6669 29.6679C16.3734 30.271 15.7411 30.8274 14.9654 31.2882C14.2045 31.7402 13.3984 32.0455 12.8898 32.1868L13.2912 33.6321ZM18.0157 30.3243C18.2498 29.8432 18.0971 29.324 17.7829 29.0098L16.7223 30.0704C16.6499 29.9981 16.5824 29.8415 16.6669 29.6679L18.0157 30.3243ZM1.61306 28.6152C1.47301 29.0177 1.39751 29.5067 1.45488 29.9795C1.5121 30.4509 1.71755 30.9992 2.2345 31.347L3.07175 30.1024C3.03887 30.0803 2.96959 30.01 2.94396 29.7988C2.9185 29.589 2.95205 29.3314 3.02976 29.1081L1.61306 28.6152Z" fill="#F4A36A"/>
<path d="M41.6304 40.6367V44.997" stroke="#F4A36A" stroke-width="2" stroke-linecap="round"/>
<path d="M20.2256 40.438V44.9965" stroke="#F4A36A" stroke-width="2" stroke-linecap="round"/>
<path d="M30.9277 33.3059V45.1976" stroke="#F4A36A" stroke-width="2" stroke-linecap="round"/>
<path d="M57.2876 38.2626V45.0012" stroke="#F4A36A" stroke-width="2" stroke-linecap="round"/>
<path d="M22.8008 31.5208L23.1387 32.462L23.1556 32.4559L23.1722 32.4493L22.8008 31.5208ZM13.8732 44.5824C13.8626 45.1346 14.3016 45.5908 14.8538 45.6015C15.406 45.6121 15.8622 45.173 15.8729 44.6209L13.8732 44.5824ZM22.463 30.5796L19.2743 31.7242L19.95 33.6066L23.1387 32.462L22.463 30.5796ZM13.9787 39.1L13.8732 44.5824L15.8729 44.6209L15.9783 39.1384L13.9787 39.1ZM23.1722 32.4493L24.1632 32.0529L23.4204 30.1959L22.4294 30.5923L23.1722 32.4493ZM19.2743 31.7242C16.1497 32.8459 14.0425 35.7808 13.9787 39.1L15.9783 39.1384C16.0262 36.649 17.6065 34.4479 19.95 33.6066L19.2743 31.7242Z" fill="#F4A36A"/>
<path d="M25.3779 25.1776V28.3487M25.3779 28.3487L33.8782 35.583C34.3191 35.9582 34.9854 35.8818 35.3299 35.4167L38.2306 31.5008C38.4855 31.1566 38.493 30.6884 38.2492 30.3363L36.8732 28.3487M25.3779 28.3487L23.1978 30.9252L26.3514 35.4067C26.6832 35.8782 27.3438 35.9722 27.7939 35.6121L36.8732 28.3487M36.8732 28.3487V24.9794" stroke="#F4A36A" stroke-width="2"/>
<path d="M23.9905 12.4953V11.8497C23.9905 10.3048 25.1642 9.0056 26.7084 8.95792C31.0753 8.82308 36.9738 9.25776 38.2606 11.7025M21.2158 14.0809C19.6302 10.3812 18.5599 2.58556 26.9634 1H41.6299V10.9097C41.5638 11.9668 40.8371 13.4863 40.8371 14.0809C43.6118 26.9635 22.0086 35.4859 21.2158 14.0809Z" stroke="#F4A36A" stroke-width="2" stroke-linecap="round"/>
<path d="M39.2515 31.9171L43.0518 33.6273C45.5638 34.7576 47.1793 37.2561 47.1793 40.0107V44.7998" stroke="#F4A36A" stroke-width="2"/>
<path d="M48.3677 30.1359V32.7124L44.8002 34.298M45.593 22.8027C44.4699 20.6225 43.4525 16.1037 48.3677 15.4695H58.4757V20.4244L57.0883 22.8027C58.8721 30.5323 46.1876 36.0817 45.593 22.8027Z" stroke="#F4A36A" stroke-width="2"/>
<path d="M54.5132 29.7375V32.9087L57.8852 33.9964C59.5374 34.5294 60.6572 36.0672 60.6572 37.8033V44.8004" stroke="#F4A36A" stroke-width="2"/>
<path d="M48.3691 32.7137L51.3421 35.4885M51.3421 35.4885L54.5132 32.9119M51.3421 35.4885V45.2" stroke="#F4A36A" stroke-width="2"/>
<path d="M9.41216 31.7306C13.6578 31.7306 16.8414 27.7568 16.8414 23.1992C16.8414 18.6417 13.6578 14.6678 9.41216 14.6678C5.16654 14.6678 1.98291 18.6417 1.98291 23.1992C1.98291 27.7568 5.16654 31.7306 9.41216 31.7306Z" stroke="#F4A36A" stroke-width="2"/>
<path d="M4.76758 39.4504V44.9999" stroke="#F4A36A" stroke-width="2" stroke-linecap="round"/>
<path d="M48.1704 20.2233C49.822 20.0912 53.3631 20.144 54.3144 21.4125" stroke="#F4A36A" stroke-width="2" stroke-linecap="round"/>
</svg>
