<svg width="38" height="50" viewBox="0 0 38 50" fill="none" xmlns="http://www.w3.org/2000/svg">
<path d="M16.2956 20.0429L17.7688 17.7363C17.8054 17.6787 17.864 17.6465 17.9324 17.6465H21.3051C21.3786 17.6465 21.4415 17.6843 21.4764 17.7491C21.5113 17.8141 21.507 17.8876 21.4661 17.9483L18.0893 22.9614C18.0449 23.0278 18.0443 23.1108 18.0891 23.1769L21.7461 28.5929C21.7872 28.6536 21.7905 28.7273 21.7558 28.792C21.7213 28.8568 21.6581 28.894 21.585 28.894H17.9984C17.9291 28.894 17.8715 28.8589 17.8328 28.8012L16.1556 26.2907C16.0775 26.1736 15.9082 26.1664 15.8294 26.2837L14.1288 28.8089C14.0918 28.8638 14.0344 28.8942 13.9681 28.8942H10.5331C10.4598 28.8942 10.3968 28.857 10.3621 28.7916C10.3275 28.7275 10.3312 28.6538 10.372 28.5931L13.9537 23.2351C13.9989 23.1674 13.9983 23.083 13.9516 23.0167L9.75544 17.0649H9.56151V21.1391C9.56151 21.2451 9.47385 21.3328 9.36758 21.3328H6.46013C6.35386 21.3328 6.26639 21.2459 6.26639 21.1391L6.26465 9.69545C6.26465 9.58859 6.35172 9.50171 6.45858 9.50171H11.3851C13.7415 9.50171 15.4873 10.8666 15.4873 13.3212C15.4873 14.6948 14.8683 15.9124 13.7505 16.5776C13.7035 16.6055 13.6733 16.6468 13.6607 16.7001C13.6485 16.7534 13.6558 16.805 13.6871 16.8496L15.9132 20.0519C15.9939 20.1678 16.2181 20.1643 16.2956 20.0429ZM31.476 28.8948H23.7177V26.5676H31.476V28.8948ZM31.476 34.3249H6.26465V31.9977H31.476V34.3249ZM31.476 39.7551H6.26465V37.4277H31.476V39.7551ZM9.56074 12.6048L9.56151 14.1561C9.56171 14.2626 9.64859 14.3498 9.75544 14.3498H10.793C11.1188 14.3498 11.6599 14.327 11.9209 14.1022C12.1141 13.936 12.1466 13.5601 12.1466 13.3214C12.1466 13.0895 12.1183 12.8011 11.9265 12.6397C11.6711 12.4251 11.1072 12.4109 10.792 12.4109H9.75448C9.6482 12.4109 9.56074 12.4988 9.56074 12.6048Z" fill="#F4A36A"/>
<path d="M37.5932 9.5882V47.9746C37.5932 48.6409 37.0127 49.181 36.2965 49.181H1.29661C0.580491 49.181 0 48.6409 0 47.9746V1.30731C0 0.641037 0.580491 0.100952 1.29661 0.100952H27.396C27.4472 0.101193 27.496 0.103003 27.5454 0.10807L27.5496 0.108432L27.5539 0.108914L27.5582 0.109397L27.5623 0.109879C27.6167 0.116032 27.6705 0.12532 27.723 0.137746L27.7251 0.138228C27.9402 0.189137 28.1418 0.291556 28.3076 0.441144L28.3105 0.443677L28.3118 0.444883L28.3133 0.446331L28.3154 0.448141C28.3174 0.44995 28.3201 0.452483 28.3219 0.454172L37.2134 8.72638L37.216 8.72879L37.2187 8.73132C37.2205 8.73301 37.2228 8.7353 37.2247 8.73699L37.2275 8.73977C37.3825 8.88851 37.4903 9.06826 37.5469 9.26019L37.5478 9.26333L37.5483 9.26514L37.5488 9.26683L37.5495 9.26924C37.5657 9.32606 37.5776 9.38444 37.5847 9.44331L37.5848 9.44476L37.585 9.44621L37.5852 9.44886C37.5909 9.49495 37.5935 9.54163 37.5932 9.5882ZM28.7021 8.37304H33.1663L28.7021 4.21968V8.37304ZM34.9999 10.7857H27.4055C26.6893 10.7857 26.1089 10.2457 26.1089 9.57939V2.51366H2.59321V46.7682H34.9999V10.7857Z" fill="#F4A36A"/>
</svg>
