<svg width="56" height="56" viewBox="0 0 56 56" fill="none" xmlns="http://www.w3.org/2000/svg">
<path d="M15.75 15.75L24.5 24.5M15.75 15.75L19.8333 11.6666V11.0833L16.4733 9.68331C14.0584 8.6769 11.7964 7.33697 9.75333 5.70265L7 3.49998H6.41667L3.5 6.41665V6.99998L5.70267 9.75331C7.33699 11.7963 8.67692 14.0583 9.68333 16.4733L11.0833 19.8333H11.6667L15.75 15.75ZM32.046 39.6666C35.7065 43.8207 39.2211 48.1011 42.5833 52.5H43.1667L52.5 43.1666V42.5833C52.5 42.5833 46.7367 38.262 39.6667 32.046M40.8333 26.8333C42.7708 26.8339 44.6779 26.3519 46.3824 25.4309C48.087 24.51 49.5354 23.179 50.5968 21.5581C51.6582 19.9373 52.2992 18.0776 52.4621 16.147C52.6249 14.2164 52.3043 12.2757 51.5293 10.5H50.1667L43.1667 17.5H38.5V12.8333L45.5 5.83331V4.47065C43.4086 3.5563 41.095 3.27551 38.8456 3.66305C36.5963 4.05059 34.51 5.08943 32.8452 6.65092C31.1804 8.21241 30.0102 10.2279 29.4795 12.4479C28.9488 14.6679 29.081 16.9947 29.8597 19.1403L25.6667 23.3333C15.1667 33.8333 3.5 42.5833 3.5 42.5833V43.1666L12.8333 52.5H13.4167C13.4167 52.5 22.1667 40.8333 32.6667 30.3333L36.8597 26.1403C38.1338 26.6008 39.4785 26.8353 40.8333 26.8333Z" stroke="#220047"/>
</svg>
