<svg width="14" height="14" viewBox="0 0 14 14" fill="none" xmlns="http://www.w3.org/2000/svg">
<g clip-path="url(#clip0_3665_5232)">
<path d="M5.70897 5.75924C5.18885 5.75924 4.68043 5.60496 4.24803 5.31593C3.81563 5.02689 3.47868 4.61608 3.27982 4.13549C3.08096 3.65489 3.02913 3.12611 3.13088 2.61605C3.23263 2.10599 3.48339 1.63758 3.85144 1.27007C4.21949 0.902573 4.68827 0.652503 5.19848 0.551506C5.70869 0.450509 6.2374 0.503125 6.71769 0.702696C7.19799 0.902267 7.6083 1.23982 7.8967 1.67265C8.1851 2.10548 8.33862 2.61413 8.33785 3.13424C8.3358 3.83048 8.05804 4.49755 7.56536 4.9895C7.07269 5.48145 6.4052 5.75822 5.70897 5.75924ZM5.70897 1.28313C5.34285 1.28313 4.98496 1.3917 4.68054 1.5951C4.37613 1.7985 4.13887 2.08761 3.99876 2.42585C3.85866 2.7641 3.822 3.1363 3.89342 3.49538C3.96485 3.85446 4.14115 4.18429 4.40003 4.44318C4.65891 4.70206 4.98875 4.87836 5.34783 4.94979C5.70691 5.02121 6.07911 4.98455 6.41736 4.84445C6.7556 4.70434 7.04471 4.46708 7.24811 4.16267C7.45151 3.85825 7.56008 3.50036 7.56008 3.13424C7.56008 2.6433 7.36505 2.17246 7.0179 1.82531C6.67075 1.47816 6.19991 1.28313 5.70897 1.28313Z" />
<path d="M6.38512 12.32C6.30013 12.235 6.23456 12.1325 6.19294 12.0198C6.15132 11.907 6.13463 11.7865 6.14401 11.6667H1.55512V9.41888C2.10653 8.83051 2.77534 8.36448 3.51827 8.05097C4.2612 7.73745 5.06168 7.58343 5.8679 7.59888H6.1479C6.13005 7.4685 6.14252 7.33575 6.18434 7.21097C6.22615 7.08619 6.2962 6.97274 6.38901 6.87944L6.43568 6.83666C6.2529 6.83666 6.04679 6.81333 5.8679 6.81333C4.91917 6.7908 3.97728 6.97938 3.11036 7.36543C2.24343 7.75148 1.47312 8.32535 0.855122 9.04555C0.804635 9.11287 0.777344 9.19474 0.777344 9.27888V11.6667C0.777344 11.8729 0.859288 12.0708 1.00515 12.2166C1.15101 12.3625 1.34884 12.4444 1.55512 12.4444H6.49401L6.38512 12.32Z" />
<path d="M10.4492 6.33502C10.4685 6.33104 10.4883 6.33104 10.5076 6.33502C10.4883 6.33152 10.4685 6.33152 10.4492 6.33502Z" />
<path d="M13.0978 9.0689L12.32 8.83168C12.2644 8.64145 12.1888 8.45764 12.0944 8.28335L12.4833 7.56002C12.496 7.53108 12.499 7.49886 12.492 7.46806C12.485 7.43727 12.4684 7.40953 12.4444 7.38891L11.8805 6.82502C11.8592 6.80193 11.8307 6.78669 11.7997 6.78176C11.7687 6.77682 11.7369 6.78247 11.7094 6.79779L10.9939 7.18668C10.8177 7.08763 10.6312 7.00809 10.4378 6.94946L10.2005 6.17168C10.1905 6.14305 10.1714 6.11847 10.1461 6.10164C10.1209 6.0848 10.0908 6.07663 10.0605 6.07835H9.26333C9.2327 6.078 9.20281 6.08769 9.17822 6.10596C9.15364 6.12422 9.13572 6.15004 9.12721 6.17946L8.88999 6.95724C8.69521 7.01391 8.50738 7.09217 8.32999 7.19057L7.62221 6.80168C7.59537 6.78665 7.56422 6.78116 7.53385 6.7861C7.50348 6.79105 7.47569 6.80613 7.45499 6.8289L6.87944 7.38891C6.8581 7.41138 6.84436 7.43999 6.84017 7.4707C6.83599 7.5014 6.84156 7.53265 6.8561 7.56002L7.24499 8.26779C7.14213 8.44309 7.05992 8.6297 6.99999 8.82391L6.22221 9.05724C6.19279 9.06574 6.16697 9.08366 6.14871 9.10825C6.13045 9.13283 6.12075 9.16273 6.1211 9.19335V9.99057C6.1234 10.0187 6.13436 10.0453 6.15247 10.0669C6.17059 10.0885 6.19495 10.104 6.22221 10.1111L6.99999 10.3483C7.05747 10.5391 7.13572 10.723 7.23333 10.8967L6.84444 11.6395C6.8296 11.6661 6.82385 11.6968 6.82806 11.727C6.83227 11.7572 6.84621 11.7851 6.86777 11.8067L7.43166 12.3706C7.45368 12.3925 7.48208 12.407 7.51281 12.4119C7.54353 12.4168 7.57501 12.4118 7.60277 12.3978L8.32999 12.0089C8.50306 12.102 8.68557 12.1763 8.87444 12.2306L9.10777 13.0083C9.11734 13.0371 9.13553 13.0623 9.15988 13.0804C9.18423 13.0985 9.21356 13.1086 9.24388 13.1095H10.0411C10.0716 13.1092 10.1012 13.0993 10.1256 13.0811C10.1501 13.0629 10.1682 13.0374 10.1772 13.0083L10.4144 12.2111C10.6008 12.1568 10.7807 12.0825 10.9511 11.9895L11.6861 12.3783C11.7131 12.3927 11.7441 12.3978 11.7743 12.3929C11.8045 12.388 11.8323 12.3733 11.8533 12.3511L12.4444 11.8222C12.4603 11.7994 12.4688 11.7723 12.4688 11.7445C12.4688 11.7166 12.4603 11.6895 12.4444 11.6667L12.0555 10.9356C12.15 10.764 12.2256 10.5828 12.2811 10.395L13.0589 10.1578C13.0883 10.1493 13.1141 10.1314 13.1324 10.1068C13.1506 10.0822 13.1603 10.0523 13.16 10.0217V9.20502C13.1636 9.17877 13.1596 9.15204 13.1486 9.12795C13.1376 9.10386 13.12 9.08338 13.0978 9.0689ZM9.66388 10.8889C9.40666 10.8897 9.15499 10.8141 8.9408 10.6716C8.7266 10.5292 8.55952 10.3264 8.46073 10.0889C8.36193 9.85138 8.33588 9.5899 8.38588 9.33757C8.43587 9.08525 8.55966 8.85346 8.74154 8.67157C8.92343 8.48968 9.15523 8.3659 9.40755 8.3159C9.65987 8.26591 9.92136 8.29196 10.1589 8.39075C10.3964 8.48954 10.5992 8.65663 10.7416 8.87082C10.884 9.08502 10.9597 9.33668 10.9589 9.5939C10.9579 9.93704 10.8211 10.2658 10.5785 10.5085C10.3358 10.7511 10.007 10.8879 9.66388 10.8889Z" />
</g>
<defs>
<clipPath id="clip0_3665_5232">
<rect width="14" height="14" fill="none"/>
</clipPath>
</defs>
</svg>
