<svg width="32" height="32" viewBox="0 0 32 32" fill="none" xmlns="http://www.w3.org/2000/svg">
<g clip-path="url(#clip0_74_1371)">
<path d="M0.5 30.5H31.5V31.5H0.5V30.5Z" fill="#220047"/>
<path d="M26.5 2.5C25.535 2.5 24.75 3.285 24.75 4.25H25.75C25.75 3.835 26.085 3.5 26.5 3.5C26.915 3.5 27.25 3.835 27.25 4.25C27.25 4.665 26.915 5 26.5 5C26.225 5 26 5.225 26 5.5V6.75H27V5.925C27.72 5.71 28.25 5.04 28.25 4.25C28.25 3.285 27.465 2.5 26.5 2.5Z" fill="#220047"/>
<path d="M26 7.5H27V8.5H26V7.5Z" fill="#220047"/>
<path d="M26.5 0.5C23.745 0.5 21.5 2.745 21.5 5.5C21.5 8.255 23.745 10.5 26.5 10.5C29.255 10.5 31.5 8.255 31.5 5.5C31.5 2.745 29.255 0.5 26.5 0.5ZM26.5 9.5C24.295 9.5 22.5 7.705 22.5 5.5C22.5 3.295 24.295 1.5 26.5 1.5C28.705 1.5 30.5 3.295 30.5 5.5C30.5 7.705 28.705 9.5 26.5 9.5Z" fill="#220047"/>
<path d="M21.5 29.5V20.5C21.5 20.225 21.275 20 21 20H18C17.725 20 17.5 20.225 17.5 20.5V29.5H18.5V21H20.5V29.5H21.5Z" fill="#220047"/>
<path d="M14.5 29.5V17.5C14.5 17.225 14.275 17 14 17H11C10.725 17 10.5 17.225 10.5 17.5V29.5H11.5V18H13.5V29.5H14.5Z" fill="#220047"/>
<path d="M28.75 29.5V13.66C28.75 13.297 28.525 13 28.25 13H25.25C24.975 13 24.75 13.297 24.75 13.66V29.5H25.75V14.32H27.75V29.5H28.75Z" fill="#220047"/>
<path d="M4.5 23.5H6.5V29.5H7.5V23C7.5 22.725 7.275 22.5 7 22.5H4C3.725 22.5 3.5 22.725 3.5 23V29.5H4.5V23.5Z" fill="#220047"/>
<path d="M11.62 12.055L18.365 13.98C18.54 14.03 18.73 13.98 18.855 13.855L21.855 10.855L21.15 10.15L18.36 12.94L11.645 11.02C11.485 10.975 11.31 11.01 11.185 11.12L4.685 16.62L5.33 17.385L11.625 12.055H11.62Z" fill="#220047"/>
</g>
<defs>
<clipPath id="clip0_74_1371">
<rect width="32" height="32" fill="white"/>
</clipPath>
</defs>
</svg>
