<?xml version="1.0" encoding="utf-8"?>
<!-- Generator: Adobe Illustrator 28.1.0, SVG Export Plug-In . SVG Version: 6.00 Build 0)  -->
<svg version="1.1" id="Layer_1" xmlns="http://www.w3.org/2000/svg" xmlns:xlink="http://www.w3.org/1999/xlink" x="0px" y="0px"
	 viewBox="0 0 40 40" style="enable-background:new 0 0 40 40;" xml:space="preserve">
<g>
	<path d="M22.63,31.08c-1.77,1.02-3.52,1.01-5.22,0.04c-0.23,0.74-0.41,1.45-0.68,2.12c-0.46,1.14-1.21,2.05-2.34,2.61
		c-0.09,0.04-0.17,0.08-0.26,0.11c-0.23,0.09-0.4,0.02-0.5-0.2c-0.1-0.22-0.01-0.4,0.2-0.5c1.88-0.86,2.46-2.53,2.76-4.38
		c0.01-0.08-0.1-0.22-0.19-0.27c-0.88-0.56-1.69-1.2-2.41-1.95c-0.98-1.01-1.58-2.24-2-3.56c-0.08-0.26-0.18-0.37-0.46-0.4
		c-0.56-0.06-1.04-0.34-1.47-0.7c-1.19-0.97-1.73-2.5-1.31-3.79c0.08-0.25,0.2-0.5,0.36-0.7c0.15-0.19,0.19-0.36,0.16-0.6
		c-0.29-2.09-0.26-4.17,0.1-6.26c0.37-2.18,1.5-3.93,3.07-5.42c1.78-1.68,3.87-2.78,6.32-3.14c1.83-0.27,3.59,0.05,5.26,0.79
		c2.57,1.14,4.56,2.92,5.87,5.43c0.56,1.08,0.78,2.25,0.91,3.44c0.2,1.79,0.18,3.57-0.09,5.35c-0.01,0.07,0.01,0.17,0.05,0.23
		c0.84,1.08,0.81,2.23,0.21,3.37c-0.56,1.07-1.4,1.85-2.67,2.03c-0.11,0.02-0.23,0.19-0.28,0.31c-0.44,1.34-1.01,2.62-2.04,3.61
		c-0.74,0.7-1.57,1.31-2.38,1.94c-0.16,0.13-0.23,0.22-0.19,0.43c0.17,1.08,0.49,2.1,1.15,2.99c0.39,0.52,0.86,0.93,1.46,1.19
		c0.04,0.02,0.08,0.03,0.11,0.05c0.22,0.11,0.33,0.28,0.22,0.52c-0.11,0.23-0.3,0.28-0.53,0.18c-0.98-0.41-1.69-1.1-2.22-2
		C23.08,33.09,22.81,32.15,22.63,31.08z M28.07,18.75c0.03-1.09-0.11-2.47-0.47-3.83c-0.05-0.2-0.15-0.34-0.33-0.47
		c-0.3-0.21-0.58-0.46-0.81-0.75c-0.4-0.49-0.73-1.04-1.11-1.54c-0.37-0.48-0.85-0.78-1.49-0.76c-0.43,0.01-0.73-0.18-0.97-0.54
		c-0.44-0.68-1.08-1.12-1.87-1.33C19.56,9.14,17.96,9.75,17,11c-0.58,0.76-1.16,1.51-1.81,2.2c-0.71,0.76-1.6,1.28-2.64,1.48
		c-0.09,0.02-0.21,0.17-0.23,0.27c-0.58,2.89-0.55,5.78,0.04,8.66c0.7,3.41,2.71,5.73,5.9,7.05c0.67,0.28,1.37,0.58,2.12,0.39
		c3.17-0.8,5.52-2.6,6.72-5.71C27.87,23.34,28.06,21.21,28.07,18.75z M11.52,14.8c-0.32-0.15-0.45-0.28-0.35-0.48
		c0.06-0.13,0.26-0.28,0.39-0.28c1.3,0.02,2.35-0.52,3.2-1.44c0.6-0.64,1.13-1.34,1.65-2.05c1.75-2.34,5.41-2.64,7.13-0.07
		c0.06,0.09,0.21,0.17,0.31,0.16c0.97-0.02,1.65,0.48,2.2,1.19c0.35,0.45,0.65,0.94,0.99,1.4c0.37,0.5,0.86,0.8,1.47,0.93
		c0.25,0.05,0.58,0.06,0.55,0.43c-0.03,0.39-0.35,0.35-0.59,0.33c0.15,1.2,0.29,2.39,0.43,3.57c0.33,0.07,0.69,0.15,1.06,0.23
		c0.02-0.1,0.04-0.19,0.05-0.29c0.16-1.38,0.18-2.77,0.06-4.15c-0.1-1.12-0.25-2.24-0.72-3.27c-1.05-2.33-2.79-4.01-5.05-5.16
		c-1.74-0.89-3.59-1.3-5.56-1c-2.19,0.34-4.07,1.32-5.69,2.81c-1.29,1.19-2.31,2.57-2.77,4.29c-0.53,2.01-0.56,4.06-0.38,6.12
		c0.02,0.22,0.06,0.45,0.09,0.66c0.4-0.09,0.76-0.16,1.08-0.23C11.23,17.26,11.37,16.05,11.52,14.8z M28.35,23.92
		c0.03,0,0.06,0.02,0.08,0.01c1.25-0.27,2.38-1.95,2.14-3.21c-0.16-0.87-0.9-1.48-1.75-1.4c0,0.41,0,0.82,0,1.22
		c0.26-0.03,0.51-0.07,0.76-0.08c0.24,0,0.41,0.14,0.39,0.4c-0.01,0.23-0.16,0.35-0.4,0.35c-0.09,0-0.21-0.02-0.28,0.02
		c-0.21,0.12-0.54,0.23-0.58,0.4C28.55,22.39,28.47,23.16,28.35,23.92z M11.65,23.93c-0.07-0.37-0.14-0.7-0.2-1.04
		c-0.06-0.35-0.13-0.71-0.15-1.07c-0.02-0.25-0.13-0.4-0.34-0.48c-0.16-0.06-0.34-0.11-0.52-0.11c-0.26-0.01-0.44-0.1-0.46-0.37
		c-0.02-0.23,0.18-0.4,0.47-0.39c0.23,0.01,0.46,0.06,0.69,0.09c0-0.41,0-0.81,0-1.22c-0.85-0.12-1.67,0.59-1.77,1.51
		c-0.13,1.25,0.88,2.73,2.1,3.07C11.52,23.92,11.57,23.92,11.65,23.93z"/>
	<path d="M21.27,26.34c-0.25,0.07-0.51,0.14-0.76,0.23c-0.41,0.14-0.8,0.13-1.2-0.07c-0.13-0.06-0.3-0.08-0.45-0.09
		c-0.39-0.04-0.77-0.06-1.16-0.12c-0.14-0.02-0.28-0.11-0.38-0.21c-0.07-0.07-0.1-0.25-0.06-0.33c0.04-0.08,0.2-0.12,0.31-0.12
		c0.43,0,0.85,0.01,1.28,0.04c0.25,0.02,0.52,0.02,0.76,0.11c0.26,0.1,0.47,0.1,0.73,0c0.24-0.09,0.52-0.09,0.79-0.11
		c0.41-0.03,0.83-0.04,1.25-0.04c0.11,0,0.29,0.04,0.31,0.11c0.03,0.1-0.01,0.32-0.08,0.35c-0.3,0.14-0.62,0.23-0.94,0.32
		c-0.12,0.03-0.25,0.01-0.38,0.01C21.29,26.39,21.28,26.37,21.27,26.34z"/>
	<path d="M27.39,17.94c-0.09,0.02-0.19,0.07-0.27,0.04c-0.2-0.06-0.39-0.16-0.59-0.23c-0.57-0.22-1.14-0.13-1.72-0.07
		c-0.89,0.09-1.79,0.16-2.68,0.23c-0.19,0.02-0.38,0-0.42-0.23c-0.04-0.25,0.14-0.31,0.34-0.36c1.18-0.29,2.38-0.34,3.59-0.27
		c0.58,0.03,1.1,0.28,1.58,0.61c0.08,0.05,0.18,0.07,0.28,0.1C27.46,17.81,27.42,17.87,27.39,17.94z"/>
	<path d="M15.29,16.95c0.83,0.11,1.65,0.21,2.48,0.32c0.09,0.01,0.21,0.02,0.27,0.07c0.1,0.09,0.23,0.22,0.21,0.32
		c-0.01,0.09-0.19,0.23-0.3,0.23c-0.43,0-0.86-0.04-1.3-0.08c-0.63-0.05-1.26-0.1-1.89-0.19c-0.63-0.09-1.21,0.04-1.79,0.29
		c-0.1,0.04-0.24,0.01-0.36,0.01c0.06-0.11,0.1-0.25,0.19-0.31c0.74-0.53,1.58-0.66,2.47-0.59C15.29,17,15.29,16.98,15.29,16.95z"/>
	<path d="M26.06,20.28c-0.15,0.05-0.32,0.09-0.45,0.17c-1.02,0.6-2.09,0.56-3.18,0.24c-0.09-0.03-0.14-0.19-0.21-0.3
		c0.12-0.06,0.23-0.18,0.35-0.18c0.63-0.04,1.26-0.02,1.89-0.09c0.33-0.03,0.64-0.19,0.96-0.31c0.31-0.12,0.94-0.02,1.16,0.21
		c0.12,0.13,0.06,0.24-0.09,0.28c-0.13,0.03-0.27,0.03-0.41,0.04C26.07,20.32,26.07,20.3,26.06,20.28z"/>
	<path d="M16.18,20.96c-0.68-0.04-1.31-0.18-1.88-0.55c-0.1-0.06-0.23-0.07-0.35-0.08c-0.15-0.01-0.3,0.01-0.44-0.02
		c-0.07-0.01-0.14-0.09-0.17-0.15c-0.01-0.04,0.06-0.13,0.11-0.16c0.41-0.21,0.8-0.35,1.28-0.11c0.74,0.38,1.57,0.36,2.39,0.34
		c0.09,0,0.2-0.04,0.28-0.01c0.12,0.04,0.23,0.13,0.35,0.19c-0.08,0.1-0.15,0.27-0.25,0.3C17.07,20.81,16.62,20.88,16.18,20.96z"/>
	<path d="M19.98,24.14c-0.43-0.01-0.81-0.17-1.14-0.45c-0.17-0.14-0.23-0.31-0.09-0.5c0.15-0.2,0.35-0.2,0.53-0.06
		c0.48,0.39,0.95,0.4,1.43,0c0.18-0.15,0.38-0.15,0.53,0.05c0.15,0.2,0.07,0.38-0.11,0.52C20.79,23.98,20.42,24.13,19.98,24.14z"/>
	<path d="M20.01,28.07c-0.21-0.06-0.44-0.07-0.6-0.19c-0.11-0.08-0.2-0.29-0.18-0.44c0.02-0.22,0.22-0.27,0.44-0.26
		c0.22,0.02,0.45,0.02,0.67,0c0.22-0.02,0.41,0.05,0.44,0.26c0.02,0.14-0.08,0.35-0.19,0.44C20.43,27.99,20.21,28.01,20.01,28.07z"
		/>
	<path d="M22.01,14.32c-0.23-0.04-0.39-0.04-0.52-0.1c-0.1-0.05-0.15-0.19-0.22-0.29c0.1-0.07,0.2-0.17,0.31-0.19
		c0.13-0.02,0.27,0.03,0.4,0.05c0.17,0.03,0.33,0.11,0.27,0.31C22.22,14.2,22.07,14.27,22.01,14.32z"/>
	<path d="M16.23,14.77c-0.07-0.07-0.19-0.14-0.2-0.22c-0.01-0.09,0.06-0.23,0.13-0.27c0.16-0.09,0.35-0.14,0.54-0.17
		c0.09-0.01,0.23,0.08,0.26,0.15c0.03,0.07-0.03,0.25-0.1,0.28C16.68,14.64,16.48,14.69,16.23,14.77z"/>
	<path d="M20.24,16.96c-0.02,0.18,0.07,0.49-0.26,0.48c-0.33,0-0.24-0.3-0.25-0.51c0-0.05,0-0.11,0-0.16
		c-0.01-0.18,0.06-0.32,0.26-0.32c0.2,0,0.26,0.14,0.25,0.33C20.24,16.83,20.24,16.88,20.24,16.96z"/>
	<path d="M20.24,18.74c0,0.06,0.02,0.14,0,0.19c-0.07,0.11-0.16,0.21-0.24,0.31c-0.09-0.1-0.2-0.18-0.25-0.3
		c-0.04-0.11-0.01-0.25-0.01-0.37c-0.01-0.18,0.05-0.33,0.25-0.33c0.2,0,0.27,0.13,0.26,0.32C20.24,18.61,20.24,18.68,20.24,18.74z"
		/>
	<path d="M20.24,20.51c0,0.07,0.03,0.16-0.01,0.22c-0.06,0.11-0.15,0.19-0.23,0.29c-0.09-0.1-0.21-0.18-0.26-0.29
		c-0.04-0.12-0.04-0.28,0-0.4c0.04-0.12,0.14-0.28,0.23-0.3c0.19-0.04,0.27,0.12,0.26,0.3C20.24,20.38,20.24,20.45,20.24,20.51z"/>
	<path d="M19.96,14.14c-0.09-0.01-0.2,0.01-0.28-0.03c-0.08-0.04-0.18-0.15-0.18-0.22c0.01-0.09,0.1-0.22,0.18-0.24
		c0.18-0.04,0.38-0.04,0.56-0.01c0.09,0.02,0.24,0.16,0.23,0.22c-0.02,0.1-0.14,0.2-0.24,0.26C20.17,14.16,20.06,14.13,19.96,14.14
		C19.96,14.13,19.96,14.13,19.96,14.14z"/>
	<path d="M17.38,29.2c-0.22-0.19-0.43-0.36-0.61-0.56c-0.03-0.03,0.02-0.19,0.08-0.24c0.06-0.05,0.19-0.08,0.25-0.05
		c0.18,0.11,0.35,0.23,0.5,0.38c0.05,0.05,0.05,0.19,0.02,0.26C17.59,29.06,17.49,29.11,17.38,29.2z"/>
	<path d="M23.22,28.58c0,0.19-0.55,0.6-0.73,0.54c-0.18-0.06-0.23-0.29-0.08-0.43c0.13-0.12,0.27-0.23,0.43-0.32
		C23.01,28.26,23.22,28.39,23.22,28.58z"/>
	<path d="M19.04,29.9c-0.24-0.08-0.45-0.13-0.63-0.23c-0.07-0.04-0.12-0.21-0.09-0.28c0.03-0.08,0.18-0.17,0.26-0.15
		c0.18,0.02,0.37,0.09,0.53,0.17c0.08,0.04,0.15,0.19,0.14,0.27C19.24,29.76,19.12,29.83,19.04,29.9z"/>
	<path d="M20.94,29.9c-0.08-0.07-0.2-0.14-0.21-0.22c-0.01-0.09,0.06-0.23,0.13-0.27c0.16-0.09,0.35-0.15,0.53-0.17
		c0.08-0.01,0.23,0.08,0.26,0.15c0.03,0.08-0.02,0.25-0.09,0.28C21.38,29.77,21.18,29.82,20.94,29.9z"/>
	<path d="M16.06,22.92c-0.08-0.08-0.19-0.14-0.22-0.22c-0.02-0.07,0.04-0.22,0.1-0.26c0.17-0.1,0.37-0.17,0.56-0.21
		c0.08-0.01,0.22,0.08,0.26,0.16c0.03,0.06-0.02,0.23-0.08,0.26C16.5,22.76,16.3,22.82,16.06,22.92z"/>
	<path d="M23.9,22.91c-0.23-0.09-0.43-0.15-0.6-0.25c-0.07-0.04-0.12-0.21-0.09-0.29c0.03-0.08,0.18-0.16,0.27-0.14
		c0.18,0.03,0.37,0.1,0.53,0.2c0.07,0.04,0.13,0.2,0.11,0.28C24.11,22.79,23.98,22.85,23.9,22.91z"/>
	<path d="M22.59,21.8c0,0.18-0.18,0.32-0.35,0.22c-0.18-0.11-0.35-0.27-0.49-0.43c-0.11-0.13,0.02-0.35,0.19-0.37
		C22.1,21.2,22.59,21.64,22.59,21.8z"/>
	<path d="M17.69,22.11c-0.26-0.1-0.38-0.24-0.28-0.39c0.13-0.19,0.33-0.35,0.52-0.48c0.14-0.09,0.4,0.13,0.31,0.25
		C18.1,21.73,17.88,21.91,17.69,22.11z"/>
	<path d="M19.73,22.27c0-0.06-0.02-0.14,0.01-0.19c0.07-0.11,0.17-0.2,0.26-0.29c0.08,0.1,0.19,0.19,0.24,0.31
		c0.04,0.1,0.01,0.23,0.01,0.34c0,0.18-0.07,0.35-0.26,0.31c-0.1-0.02-0.17-0.21-0.25-0.33C19.71,22.38,19.73,22.32,19.73,22.27z"/>
	<path d="M14.6,22.66c0.07,0,0.16-0.03,0.22,0c0.1,0.06,0.22,0.14,0.24,0.23c0.02,0.06-0.1,0.21-0.18,0.24
		c-0.17,0.05-0.36,0.07-0.53,0.04c-0.1-0.02-0.19-0.15-0.28-0.23c0.09-0.09,0.17-0.2,0.28-0.26C14.42,22.64,14.52,22.67,14.6,22.66
		C14.6,22.66,14.6,22.66,14.6,22.66z"/>
	<path d="M25.49,22.67c-0.01,0,0.08-0.03,0.14,0.01c0.1,0.06,0.18,0.16,0.27,0.24c-0.09,0.09-0.18,0.22-0.29,0.25
		c-0.13,0.04-0.3,0.03-0.43-0.02c-0.11-0.04-0.19-0.18-0.28-0.27c0.11-0.07,0.21-0.16,0.33-0.22
		C25.28,22.63,25.35,22.66,25.49,22.67z"/>
	<path d="M17.96,14.31c-0.06-0.06-0.21-0.14-0.21-0.22c0-0.1,0.11-0.24,0.21-0.28c0.15-0.07,0.33-0.09,0.49-0.08
		c0.1,0.01,0.24,0.12,0.25,0.2c0.01,0.08-0.09,0.23-0.18,0.27C18.38,14.27,18.2,14.27,17.96,14.31z"/>
	<path d="M23.78,14.74c-0.41,0-0.8-0.22-0.76-0.39c0.03-0.1,0.16-0.23,0.26-0.24c0.33-0.02,0.72,0.21,0.68,0.38
		C23.94,14.6,23.82,14.68,23.78,14.74z"/>
	<path d="M27.46,22.74c-0.17,0.09-0.33,0.22-0.51,0.26c-0.07,0.02-0.24-0.11-0.28-0.21c-0.06-0.15,0.22-0.38,0.46-0.37
		c0.11,0.01,0.21,0.12,0.31,0.18C27.45,22.65,27.46,22.7,27.46,22.74z"/>
	<path d="M13.04,23.13c-0.2-0.18-0.34-0.31-0.48-0.45c0.09-0.09,0.16-0.23,0.26-0.25c0.21-0.04,0.52,0.2,0.48,0.35
		C13.27,22.88,13.16,22.97,13.04,23.13z"/>
</g>
</svg>
