<svg width="32" height="32" viewBox="0 0 32 32" fill="none" xmlns="http://www.w3.org/2000/svg">
<path d="M18.8278 16.1618L14.3928 22.8476L14.3885 22.8541C14.3769 22.8722 14.362 22.8877 14.3444 22.8999C14.3268 22.9121 14.307 22.9206 14.286 22.925C14.2651 22.9295 14.2435 22.9298 14.2225 22.9258C14.2015 22.9217 14.1815 22.9136 14.1636 22.9018C14.1457 22.8899 14.1305 22.8746 14.1186 22.8569C14.1067 22.8391 14.0985 22.8191 14.0945 22.798C14.0904 22.777 14.0905 22.7554 14.0949 22.7345C14.0993 22.7136 14.1078 22.6937 14.1199 22.6761L14.1241 22.6698L18.0125 16.8085L18.4138 16.2035L17.6926 16.1212L13.0315 15.589C13.0041 15.5858 12.978 15.5757 12.9556 15.5595C12.9332 15.5434 12.9153 15.5218 12.9037 15.4969C12.8921 15.4718 12.8871 15.4442 12.8891 15.4168C12.8912 15.3892 12.9003 15.3627 12.9155 15.3398L17.4372 8.52436L17.4415 8.5178C17.4529 8.49976 17.468 8.48421 17.4856 8.47202C17.5032 8.45984 17.523 8.45128 17.544 8.44685C17.5649 8.44242 17.5865 8.44221 17.6075 8.44621C17.6285 8.45022 17.6485 8.45837 17.6664 8.4702C17.6841 8.48203 17.6995 8.49728 17.7113 8.51508C17.7233 8.53288 17.7314 8.55286 17.7355 8.57388C17.7396 8.59487 17.7394 8.61648 17.7351 8.63743C17.7306 8.65839 17.7222 8.67825 17.71 8.69588L17.7058 8.70212L13.7307 14.6932L13.3293 15.2982L14.0506 15.3805L18.7116 15.9124C18.7391 15.9156 18.7653 15.9258 18.7877 15.9419C18.8101 15.9581 18.8281 15.9798 18.8397 16.0049C18.8513 16.0299 18.8564 16.0576 18.8543 16.0851C18.8522 16.1122 18.8433 16.1384 18.8278 16.1618Z"  stroke-width="0.5"/>
<path d="M16.0006 30.3097C23.9044 30.3097 30.3117 23.9024 30.3117 15.9986C30.3117 8.0948 23.9044 1.6875 16.0006 1.6875C8.09676 1.6875 1.68945 8.0948 1.68945 15.9986C1.68945 23.9024 8.09676 30.3097 16.0006 30.3097Z"  stroke-width="0.6"/>
</svg>
