<svg width="25" height="25" viewBox="0 0 36 36" fill="none" xmlns="http://www.w3.org/2000/svg">
<path id='alertSVGPath' d="M21.1815 18.1833L21.1814 18.1834L16.1921 25.7048L16.192 25.7047L16.1873 25.7121C16.1743 25.7324 16.1575 25.7499 16.1377 25.7636C16.1179 25.7773 16.0956 25.7869 16.072 25.7919C16.0485 25.7969 16.0242 25.7972 16.0005 25.7927C15.9769 25.7881 15.9544 25.779 15.9343 25.7657C15.9142 25.7524 15.897 25.7352 15.8837 25.7152C15.8703 25.6952 15.8611 25.6727 15.8565 25.649C15.8519 25.6254 15.8521 25.6011 15.857 25.5775C15.8619 25.554 15.8715 25.5316 15.8851 25.5118L15.8852 25.5118L15.8899 25.5047L20.2643 18.9108L20.7158 18.2302L19.9044 18.1376L14.6607 17.5388C14.6607 17.5388 14.6607 17.5388 14.6607 17.5388C14.6299 17.5352 14.6005 17.5239 14.5753 17.5057C14.5501 17.4876 14.53 17.4633 14.5169 17.4352C14.5038 17.407 14.4982 17.376 14.5005 17.3451C14.5028 17.3141 14.5131 17.2843 14.5302 17.2585L19.6171 9.59112L19.6171 9.59117L19.6219 9.58374C19.6348 9.56345 19.6517 9.54595 19.6715 9.53224C19.6913 9.51854 19.7136 9.50891 19.7372 9.50393C19.7607 9.49894 19.785 9.4987 19.8087 9.50321C19.8323 9.50772 19.8548 9.51689 19.8749 9.53019C19.8949 9.5435 19.9122 9.56066 19.9255 9.58068C19.9389 9.60071 19.9481 9.62319 19.9527 9.64683C19.9573 9.67045 19.9571 9.69476 19.9522 9.71833C19.9472 9.74191 19.9377 9.76425 19.924 9.78408L19.924 9.78404L19.9193 9.7911L15.4473 16.5311L14.9957 17.2117L15.8072 17.3043L21.0508 17.9027C21.0817 17.9063 21.1112 17.9177 21.1364 17.9359C21.1616 17.9541 21.1818 17.9785 21.1949 18.0067C21.208 18.0349 21.2137 18.066 21.2113 18.097C21.209 18.1275 21.199 18.1569 21.1815 18.1833Z"/>
<circle id='alertSVGCircle' cx="18" cy="18" r="16.1" stroke-width="1.8"/>
</svg>
