<svg width="32" height="32" viewBox="0 0 32 32" fill="none" xmlns="http://www.w3.org/2000/svg">
<g clip-path="url(#clip0_74_1439)">
<path d="M26.4613 28.9405C26.4613 30.1173 25.5064 31.0707 24.3312 31.0707H7.50588C6.3307 31.0707 5.37577 30.1173 5.37577 28.9405V3.23921C5.37577 2.06404 6.3307 1.1091 7.50588 1.1091H20.7664C21.07 1.1091 21.3547 1.22709 21.5687 1.44105L26.1325 6.02377C26.3449 6.23773 26.4613 6.52248 26.4613 6.82296V28.9405ZM21.6741 21.7479V14.7157C21.6741 14.4089 21.4255 14.1604 21.1188 14.1604C20.812 14.1604 20.565 14.4089 20.565 14.7157V21.7479C20.565 22.0531 20.812 22.3032 21.1188 22.3032C21.4255 22.3032 21.6741 22.0531 21.6741 21.7479ZM18.1926 22.3032C18.4994 22.3032 18.7479 22.0531 18.7479 21.7479V16.7687C18.7479 16.4619 18.4994 16.2149 18.1926 16.2149C17.8858 16.2149 17.6373 16.4619 17.6373 16.7687V21.7479C17.6373 22.0531 17.8858 22.3032 18.1926 22.3032ZM15.4159 22.3032C15.7227 22.3032 15.9713 22.0531 15.9713 21.7479V13.0324C15.9713 12.7256 15.7227 12.4786 15.4159 12.4786C15.1091 12.4786 14.8606 12.7256 14.8606 13.0324V21.7479C14.8606 22.0531 15.1091 22.3032 15.4159 22.3032ZM12.5385 22.3032C12.8453 22.3032 13.0939 22.0531 13.0939 21.7479V16.1646C13.0939 15.8578 12.8453 15.6108 12.5385 15.6108C12.2333 15.6108 11.9832 15.8578 11.9832 16.1646V21.7479C11.9832 22.0531 12.2333 22.3032 12.5385 22.3032ZM23.2709 24.1643H9.88455V10.778C9.88455 10.4712 9.63441 10.2226 9.32921 10.2226C9.02087 10.2226 8.77387 10.4712 8.77387 10.778V24.7181C8.77387 25.0249 9.02087 25.2734 9.32921 25.2734H23.2709C23.5745 25.2734 23.8247 25.0249 23.8247 24.7181C23.8247 24.4113 23.5745 24.1643 23.2709 24.1643ZM24.8787 6.19368H21.3956V2.52813C21.3956 2.21978 21.1455 1.97279 20.8403 1.97279C20.5335 1.97279 20.2865 2.21978 20.2865 2.52813V6.74744C20.2865 7.05422 20.5335 7.30278 20.8403 7.30278H24.8787C25.1855 7.30278 25.434 7.05422 25.434 6.74744C25.434 6.44067 25.1855 6.19368 24.8787 6.19368ZM26.9191 5.24189L22.3553 0.657597C21.9321 0.232833 21.3673 0 20.7664 0H7.50588C5.7203 0 4.26666 1.45363 4.26666 3.23921V28.9405C4.26666 30.7277 5.7203 32.1813 7.50588 32.1813H24.3312C26.1184 32.1813 27.5704 30.7277 27.5704 28.9405V6.82296C27.5704 6.22829 27.3392 5.66351 26.9191 5.24189Z" fill="#220047"/>
</g>
<defs>
<clipPath id="clip0_74_1439">
<rect width="32" height="32" fill="white"/>
</clipPath>
</defs>
</svg>
