<?xml version="1.0" encoding="UTF-8"?><svg id="Layer_1" xmlns="http://www.w3.org/2000/svg" viewBox="0 0 373.59 348.51"><defs><style></style></defs><path class="cls-2" d="m89.11,70.88c-.18,10.87-16.36,10.87-16.54,0,.18-10.87,16.36-10.87,16.54,0Z"/><path class="cls-2" d="m124.47,70.88c-.17,10.87-16.36,10.87-16.53,0,.17-10.87,16.36-10.87,16.53,0Z"/><path class="cls-2" d="m159.85,70.88c-.17,10.87-16.36,10.87-16.53,0,.17-10.87,16.36-10.87,16.53,0Z"/><path class="cls-2" d="m314.41,40.86h-54.53v10.29h54.53c10.42,0,18.9,8.48,18.9,18.91v191.77c0,10.42-8.48,18.9-18.9,18.9H124.47v10.29h189.94c16.1,0,29.19-13.09,29.19-29.19V70.06c0-16.1-13.09-29.2-29.19-29.2ZM47.18,261.83V70.06c0-10.43,8.48-18.91,18.9-18.91h173.49v-10.29H66.08c-16.1,0-29.2,13.1-29.2,29.2v191.77c0,16.1,13.1,29.19,29.2,29.19h38.09v-10.29h-38.09c-10.42,0-18.9-8.48-18.9-18.9Z"/><rect class="cls-2" x="49.95" y="91.71" width="281.33" height="10.3"/><path class="cls-2" d="m309.52,144.72l-23.99,23.67c2.9,7.46,4.49,15.57,4.49,24.04,0,16.31-5.89,31.27-15.66,42.86l20.83,21.87c1.96,2.05,1.88,5.31-.18,7.27-.99.95-2.27,1.42-3.55,1.42-1.36,0-2.71-.53-3.72-1.59l-20.6-21.62c-11.71,10.21-27.02,16.41-43.74,16.41-19.62,0-37.28-8.52-49.48-22.06-.05.06-.1.11-.16.16l-14.41,13.31-39.38-47.6-49.66,47.83c-1,.97-2.28,1.44-3.57,1.44s-2.7-.52-3.71-1.57c-1.97-2.05-1.91-5.31.14-7.28l57.65-55.54,39.53,47.78,6.43-5.93c.28-.26.59-.49.91-.67-6.9-10.49-10.91-23.03-10.91-36.49,0-36.73,29.89-66.62,66.62-66.62,17.02,0,32.57,6.42,44.36,16.96l-7.3,7.3c-9.91-8.69-22.88-13.96-37.06-13.96-31.06,0-56.32,25.27-56.32,56.32s25.26,56.33,56.32,56.33,56.32-25.27,56.32-56.33c0-5.56-.81-10.94-2.33-16.02l-37.27,36.77-22.93-30.76-28.62,32.47c-1.02,1.16-2.44,1.75-3.86,1.75-1.21,0-2.43-.43-3.4-1.29-2.14-1.88-2.34-5.13-.46-7.26l37.01-42,23.44,31.46,25.37-25.03.03.03,6.49-6.42,7.59-7.5,9.9-9.79,3.35-3.31,8.26-8.14c2.02-2,5.28-1.98,7.27.05,2,2.02,1.98,5.28-.04,7.28Z"/><polygon class="cls-2" points="290.68 148.84 280.78 158.63 273.19 166.13 266.7 172.55 266.67 172.52 273.18 166.11 280.77 158.61 290.68 148.84"/><path class="cls-2" d="m280.77,158.61l-7.59,7.5s0,.01,0,.02l7.59-7.5s-.01-.02-.01-.02Z"/><polygon class="cls-1" points="290.68 148.84 280.78 158.63 273.19 166.13 266.7 172.55 266.67 172.52 273.18 166.11 280.77 158.61 290.68 148.84"/></svg>