<svg width="32" height="32" viewBox="0 0 32 32" fill="none" xmlns="http://www.w3.org/2000/svg">
<path d="M11.7472 28.929C10.6656 28.929 9.60264 28.5678 8.70967 27.8772C7.35219 26.8275 6.57361 25.2015 6.57361 23.4161C6.57361 17.8667 10.8022 13.3517 15.9999 13.3517C21.1977 13.3517 25.4263 17.8667 25.4263 23.4161C25.4263 25.2015 24.6477 26.8273 23.2902 27.8772C22.0578 28.83 20.5012 29.1558 19.0205 28.7708L16.9794 28.2404C16.3388 28.074 15.6613 28.074 15.0207 28.2404L12.9796 28.7708C12.5715 28.8769 12.1579 28.929 11.7472 28.929ZM15.9999 27.126C16.4132 27.126 16.8264 27.1782 17.2282 27.2827L19.2694 27.8131C20.4522 28.1203 21.6968 27.8586 22.685 27.0945C23.7984 26.2336 24.4369 24.8929 24.4369 23.4163C24.4369 18.4123 20.6522 14.3415 16.0001 14.3415C11.348 14.3415 7.56336 18.4123 7.56336 23.4163C7.56336 24.8929 8.20183 26.2336 9.31528 27.0945C10.3034 27.8586 11.5485 28.1209 12.7308 27.8131L14.7719 27.2827C15.1733 27.1782 15.5867 27.126 15.9999 27.126Z" fill="#220047"/>
<path d="M6.29085 16.021C6.16122 16.021 6.02862 16.0117 5.89364 15.9925C4.8459 15.8453 3.7655 15.1172 3.00374 14.0449C1.68307 12.1859 1.66328 9.91962 2.95841 8.88533C3.46467 8.4812 4.10412 8.3199 4.80928 8.41905C5.85722 8.5663 6.93762 9.29442 7.69938 10.3667C9.02005 12.2257 9.03984 14.492 7.74471 15.5264C7.33523 15.853 6.83847 16.021 6.29085 16.021ZM4.4188 9.3809C4.15538 9.3809 3.84664 9.44245 3.5757 9.65857C2.71973 10.342 2.8272 12.0881 3.81023 13.4719C4.41742 14.3265 5.24766 14.9026 6.03139 15.0127C6.33043 15.0546 6.76287 15.0437 7.12702 14.753C7.98279 14.0696 7.87553 12.3233 6.8925 10.9397C6.28531 10.0851 5.45507 9.50895 4.67154 9.39891C4.59495 9.38803 4.50965 9.3809 4.4188 9.3809Z" fill="#220047"/>
<path d="M12.355 12.0278C11.8988 12.0278 11.4353 11.896 10.988 11.6355C9.96161 11.0382 9.13316 9.8161 8.77217 8.36601C8.15547 5.88914 9.02589 3.57041 10.7535 3.08691C11.4052 2.90464 12.0965 3.01032 12.753 3.39209C13.7795 3.98939 14.6078 5.21149 14.9688 6.66159C15.5855 9.13826 14.7152 11.4574 12.9875 11.9409C12.7799 11.9991 12.5683 12.0278 12.355 12.0278ZM11.382 3.99058C11.2651 3.99058 11.1437 4.00542 11.02 4.04006C9.85177 4.36681 9.262 6.23846 9.73223 8.12713C10.0301 9.32291 10.6854 10.3148 11.4855 10.7803C11.7784 10.9509 12.2307 11.1255 12.7207 10.9879C13.889 10.661 14.4787 8.78934 14.0085 6.90087C13.7108 5.70509 13.0554 4.71315 12.2554 4.24767C12.0363 4.12021 11.7284 3.99058 11.382 3.99058Z" fill="#220047"/>
<path d="M19.6438 12.0278C19.4305 12.0278 19.2189 11.9989 19.0113 11.9409C17.2835 11.4574 16.4133 9.1383 17.03 6.66163C17.391 5.21173 18.2193 3.98943 19.2458 3.39213C19.9025 3.01017 20.5938 2.90468 21.2453 3.08696C22.9731 3.57045 23.8433 5.88938 23.2266 8.36605C22.8656 9.81614 22.0372 11.0382 21.0108 11.6355C20.5633 11.896 20.0998 12.0278 19.6438 12.0278ZM20.6166 3.99062C20.2702 3.99062 19.9623 4.12025 19.7432 4.24771C18.9432 4.71319 18.2877 5.70513 17.9901 6.90091C17.5198 8.78938 18.1096 10.6612 19.2779 10.988C19.7683 11.1255 20.2199 10.9508 20.513 10.7804C21.3132 10.3149 21.9685 9.32295 22.2663 8.12717C22.7366 6.2387 22.1468 4.36685 20.9785 4.0401C20.8548 4.00546 20.7335 3.99062 20.6166 3.99062Z" fill="#220047"/>
<path d="M17.8961 26.2886H14.1035V23.2675H11.0824V19.4749H14.1035V16.4538H17.8961V19.4749H20.9172V23.2675H17.8961V26.2886V26.2886ZM15.0931 25.2991H16.9065V22.278H19.9277V20.4645H16.9065V17.4434H15.0931V20.4645H12.072V22.278H15.0931V25.2991V25.2991Z" fill="#220047"/>
<path d="M25.7087 16.023C25.1609 16.023 24.6643 15.855 24.255 15.5283C22.9599 14.4938 22.9797 12.2275 24.3004 10.3685C25.0621 9.29623 26.1425 8.56811 27.1905 8.42086C27.8956 8.32171 28.5351 8.48301 29.0413 8.88714C30.3367 9.92143 30.3169 12.1877 28.9962 14.0467C28.2345 15.119 27.1541 15.8471 26.1061 15.9943C25.9711 16.0135 25.8383 16.023 25.7087 16.023ZM25.1071 10.9417C24.1242 12.3253 24.0168 14.0716 24.8725 14.755C25.2365 15.0458 25.6693 15.0566 25.9682 15.0147C26.7517 14.9044 27.5821 14.3285 28.1893 13.4739C29.1724 12.0903 29.2796 10.3442 28.4239 9.66058C28.0599 9.36985 27.6275 9.35897 27.3282 9.40073C26.5445 9.51096 25.7142 10.0869 25.1071 10.9417Z" fill="#220047"/>
</svg>
