<svg width="32" height="32" viewBox="0 0 32 32" fill="none" xmlns="http://www.w3.org/2000/svg">
<g clip-path="url(#clip0_74_1297)">
<path d="M16 22.5454C13.6 22.5454 11.6364 24.5091 11.6364 26.9091C11.6364 29.3091 13.6 31.2727 16 31.2727C18.4 31.2727 20.3636 29.3091 20.3636 26.9091C20.3636 24.5091 18.4 22.5454 16 22.5454ZM16 29.8182C14.4 29.8182 13.0909 28.5091 13.0909 26.9091C13.0909 25.3091 14.4 24 16 24C17.6 24 18.909 25.3091 18.909 26.9091C18.909 28.5091 17.6 29.8182 16 29.8182Z" fill="#220047"/>
<path d="M27.6364 22.5454C25.2364 22.5454 23.2728 24.5091 23.2728 26.9091C23.2728 29.3091 25.2364 31.2727 27.6364 31.2727C30.0364 31.2727 32 29.3091 32 26.9091C32 24.5091 30.0364 22.5454 27.6364 22.5454ZM27.6364 29.8182C26.0364 29.8182 24.7273 28.5091 24.7273 26.9091C24.7273 25.3091 26.0364 24.0001 27.6364 24.0001C29.2364 24.0001 30.5455 25.3091 30.5455 26.9091C30.5455 28.5091 29.2364 29.8182 27.6364 29.8182Z" fill="#220047"/>
<path d="M4.36363 22.5454C1.96363 22.5454 0 24.5091 0 26.9091C0 29.3091 1.96363 31.2727 4.36363 31.2727C6.76363 31.2727 8.72725 29.3091 8.72725 26.9091C8.72725 24.5091 6.76363 22.5454 4.36363 22.5454ZM4.36363 29.8182C2.76363 29.8182 1.45456 28.5091 1.45456 26.9091C1.45456 25.3091 2.76363 24.0001 4.36363 24.0001C5.96363 24.0001 7.27269 25.3091 7.27269 26.9091C7.27275 28.5091 5.96363 29.8182 4.36363 29.8182Z" fill="#220047"/>
<path d="M20.3637 0.727249H11.6364C10.4 0.727249 9.45459 1.67269 9.45459 2.90906V5.81812C9.45459 7.0545 10.4 7.99994 11.6364 7.99994H20.3637C21.6 7.99994 22.5455 7.0545 22.5455 5.81812V2.90906C22.5455 1.67275 21.6 0.727249 20.3637 0.727249ZM21.091 5.81819C21.091 6.25456 20.8 6.54544 20.3637 6.54544H11.6364C11.2 6.54544 10.9092 6.2545 10.9092 5.81819V2.90906C10.9092 2.47269 11.2001 2.18181 11.6364 2.18181H20.3637C20.8 2.18181 21.0909 2.47275 21.0909 2.90906L21.091 5.81819Z" fill="#220047"/>
<path d="M26.9091 14.5454H16.7272V10.1818C16.7272 9.74543 16.4363 9.45456 16 9.45456C15.5637 9.45456 15.2727 9.7455 15.2727 10.1818V14.5454H5.09093C3.85456 14.5454 2.90912 15.4909 2.90912 16.7272V20.3636C2.90912 20.8 3.20006 21.0909 3.63637 21.0909C4.07268 21.0909 4.36362 20.7999 4.36362 20.3636V16.7272C4.36362 16.2909 4.65456 16 5.09087 16H15.2727V20.3636C15.2727 20.8 15.5636 21.0909 15.9999 21.0909C16.4362 21.0909 16.7272 20.7999 16.7272 20.3636V16H26.909C27.3454 16 27.6362 16.2909 27.6362 16.7272V20.3636C27.6362 20.8 27.9272 21.0909 28.3635 21.0909C28.7998 21.0909 29.0907 20.7999 29.0907 20.3636V16.7272C29.0909 15.4909 28.1454 14.5454 26.9091 14.5454Z" fill="#220047"/>
</g>
<defs>
<clipPath id="clip0_74_1297">
<rect width="32" height="32" fill="white"/>
</clipPath>
</defs>
</svg>
