<svg width="56" height="57" viewBox="0 0 56 57" fill="none" xmlns="http://www.w3.org/2000/svg">
<g filter="url(#filter0_b_7891_20004)">
<rect width="56" height="56" rx="8" fill="#25486D" fill-opacity="0.7"/>
<g filter="url(#filter1_d_7891_20004)">
<circle cx="26.8423" cy="27.8423" r="19.8423" fill="#132742"/>
</g>
<path d="M27.7198 19C27.832 19.6864 28.2288 20.2937 28.8112 20.6723H26.6194C27.2018 20.2937 27.5985 19.6864 27.7107 19H27.7198ZM25.6144 21.1408L25.6145 21.1408L25.6144 21.1408Z" fill="url(#paint0_linear_7891_20004)" stroke="url(#paint1_linear_7891_20004)" stroke-width="2"/>
<path d="M22 22.6228C22 22.4526 22.1401 22.3125 22.3103 22.3125H22.832C22.9304 23.01 23.5298 23.5467 24.2546 23.5467H31.1758C31.9006 23.5467 32.5 23.01 32.5984 22.3125H33.1201C33.2903 22.3125 33.4304 22.4526 33.4304 22.6228V29.1563C33.1669 28.8423 32.7715 28.6427 32.3294 28.6427H23.101C22.659 28.6427 22.2635 28.8423 22 29.1564V27.5666C22.2635 27.8806 22.659 28.0803 23.101 28.0803H26.9156C27.7092 28.0803 28.3524 27.4369 28.3524 26.6435C28.3524 25.8501 27.7092 25.2067 26.9156 25.2067H23.101C22.659 25.2067 22.2635 25.4064 22 25.7204V22.6228ZM32.3294 31.5162C32.7715 31.5162 33.1669 31.3166 33.4304 31.0026V32.3616C33.1669 32.0476 32.7715 31.848 32.3294 31.848H23.101C22.659 31.848 22.2635 32.0476 22 32.3617V31.0026C22.2635 31.3166 22.659 31.5162 23.101 31.5162H32.3294ZM32.3294 34.7215C32.7715 34.7215 33.1669 34.5219 33.4304 34.2079V35.6904C33.4304 35.8607 33.2903 36.0008 33.1201 36.0008H22.3103C22.1401 36.0008 22 35.8607 22 35.6904V34.2079C22.2635 34.5219 22.659 34.7215 23.101 34.7215H32.3294Z" fill="url(#paint2_linear_7891_20004)" stroke="url(#paint3_linear_7891_20004)" stroke-width="2"/>
<rect x="0.25" y="0.25" width="55.5" height="55.5" rx="7.75" stroke="url(#paint4_linear_7891_20004)" stroke-width="0.5"/>
</g>
<defs>
<filter id="filter0_b_7891_20004" x="-24" y="-24" width="104" height="104" filterUnits="userSpaceOnUse" color-interpolation-filters="sRGB">
<feFlood flood-opacity="0" result="BackgroundImageFix"/>
<feGaussianBlur in="BackgroundImageFix" stdDeviation="12"/>
<feComposite in2="SourceAlpha" operator="in" result="effect1_backgroundBlur_7891_20004"/>
<feBlend mode="normal" in="SourceGraphic" in2="effect1_backgroundBlur_7891_20004" result="shape"/>
</filter>
<filter id="filter1_d_7891_20004" x="6" y="7" width="49.6836" height="49.6836" filterUnits="userSpaceOnUse" color-interpolation-filters="sRGB">
<feFlood flood-opacity="0" result="BackgroundImageFix"/>
<feColorMatrix in="SourceAlpha" type="matrix" values="0 0 0 0 0 0 0 0 0 0 0 0 0 0 0 0 0 0 127 0" result="hardAlpha"/>
<feMorphology radius="1" operator="dilate" in="SourceAlpha" result="effect1_dropShadow_7891_20004"/>
<feOffset dx="4" dy="4"/>
<feGaussianBlur stdDeviation="2"/>
<feComposite in2="hardAlpha" operator="out"/>
<feColorMatrix type="matrix" values="0 0 0 0 0 0 0 0 0 0 0 0 0 0 0 0 0 0 0.2 0"/>
<feBlend mode="normal" in2="BackgroundImageFix" result="effect1_dropShadow_7891_20004"/>
<feBlend mode="normal" in="SourceGraphic" in2="effect1_dropShadow_7891_20004" result="shape"/>
</filter>
<linearGradient id="paint0_linear_7891_20004" x1="24.6914" y1="18" x2="28.8261" y2="23.347" gradientUnits="userSpaceOnUse">
<stop stop-color="#6DF0C2" stop-opacity="0.8"/>
<stop offset="1" stop-color="#6DF0C2" stop-opacity="0.3"/>
</linearGradient>
<linearGradient id="paint1_linear_7891_20004" x1="24.6914" y1="18.8612" x2="31.0479" y2="20.1524" gradientUnits="userSpaceOnUse">
<stop stop-color="#6DF0C2" stop-opacity="0.4"/>
<stop offset="0.51532" stop-color="#6DF0C2"/>
<stop offset="1" stop-color="#6DF0C2" stop-opacity="0.4"/>
</linearGradient>
<linearGradient id="paint2_linear_7891_20004" x1="21" y1="21.3125" x2="37.9005" y2="32.6738" gradientUnits="userSpaceOnUse">
<stop stop-color="#6DF0C2" stop-opacity="0.8"/>
<stop offset="1" stop-color="#6DF0C2" stop-opacity="0.3"/>
</linearGradient>
<linearGradient id="paint3_linear_7891_20004" x1="21" y1="24.9916" x2="35.5365" y2="26.5266" gradientUnits="userSpaceOnUse">
<stop stop-color="#6DF0C2" stop-opacity="0.4"/>
<stop offset="0.51532" stop-color="#6DF0C2"/>
<stop offset="1" stop-color="#6DF0C2" stop-opacity="0.4"/>
</linearGradient>
<linearGradient id="paint4_linear_7891_20004" x1="-2.07636e-07" y1="13.1327" x2="60.3691" y2="20.5793" gradientUnits="userSpaceOnUse">
<stop stop-color="#6DF0C2" stop-opacity="0.4"/>
<stop offset="0.51532" stop-color="#6DF0C2"/>
<stop offset="1" stop-color="#6DF0C2" stop-opacity="0.4"/>
</linearGradient>
</defs>
</svg>
