<?xml version="1.0"?>
<svg xmlns="http://www.w3.org/2000/svg" xmlns:xlink="http://www.w3.org/1999/xlink" version="1.1" viewBox="0 0 64 64" style="enable-background:new 0 0 512 512" xml:space="preserve"><g><g xmlns="http://www.w3.org/2000/svg"><path d="m55 21.059v-17.059c0-1.654-1.346-3-3-3h-39.172c-.801 0-1.555.312-2.121.879l-8.828 8.828c-.566.566-.879 1.32-.879 2.122v43.171c0 1.654 1.346 3 3 3h46.382l2 4h3.236l2.599-5.197-1.93-1.93 1.915-2.873-2-3 1.798-2.697v-5.066l4.05-8.1c.621-1.243.95-2.635.95-4.025v-.112c0-4.624-3.507-8.442-8-8.941zm-44-16.645v5.586c0 .551-.448 1-1 1h-5.586zm-8 51.586v-43h7c1.654 0 3-1.346 3-3v-7h39c.552 0 1 .449 1 1v17.059c-.695.077-1.362.24-2 .466v-.525c0-3.026-2.252-5.537-5.169-5.942l-.886-4.431c-.652-3.26-3.54-5.627-6.864-5.627h-14.018c-2.879 0-5.431 1.727-6.5 4.4l-2.24 5.6h-1.323c-3.859 0-7 3.14-7 7v1.184c-1.161.414-2 1.514-2 2.816 0 1.654 1.346 3 3 3h4.026c.914 1.207 2.348 2 3.974 2s3.061-.793 3.974-2h15.051c.914 1.207 2.348 2 3.974 2s3.061-.793 3.974-2h2.085c-.036.329-.058.662-.058 1v.111c0 1.39.329 2.782.95 4.025l4.05 8.1v14.764h-46c-.552 0-1-.449-1-1zm42.525-29h-1.626c.066-.323.101-.658.101-1s-.035-.677-.101-1h2.623c-.414.616-.745 1.289-.997 2zm2.831-4h-5.381c-.914-1.207-2.348-2-3.974-2s-3.061.793-3.974 2h-15.053c-.914-1.207-2.348-2-3.974-2s-3.061.793-3.974 2h-3.026v-1c0-2.757 2.243-5 5-5h2.677l2.743-6.857c.764-1.909 2.586-3.143 4.643-3.143h14.019c2.375 0 4.437 1.69 4.903 4.02l1.195 5.98h.82c2.206 0 4 1.794 4 4v1.522c-.223.149-.436.31-.644.478zm-6.356 3c0 1.654-1.346 3-3 3s-3-1.346-3-3 1.346-3 3-3 3 1.346 3 3zm-7.899 1h-13.202c.066-.323.101-.658.101-1s-.035-.677-.101-1h13.202c-.066.323-.101.658-.101 1s.035.677.101 1zm-23 0h-3.101c-.552 0-1-.449-1-1s.448-1 1-1h3.101c-.066.323-.101.658-.101 1s.035.677.101 1zm4.899-4c1.654 0 3 1.346 3 3s-1.346 3-3 3-3-1.346-3-3 1.346-3 3-3zm39.798 30-2.085 3.127 2.07 2.07-1.401 2.803h-.764l-1.618-3.236v-14.764h4v3.697l-2.202 3.303zm5.202-22.889c0 1.081-.256 2.164-.739 3.13l-3.879 7.759h-4.764l-3.879-7.758c-.483-.967-.739-2.05-.739-3.131v-.111c0-3.86 3.141-7 7-7s7 3.14 7 7z" data-original="#000000" style=""/><path d="m54 25c-2.757 0-5 2.243-5 5 0 1.654 1.346 3 3 3h4c1.654 0 3-1.346 3-3 0-2.757-2.243-5-5-5zm-3 5c0-1.302.839-2.402 2-2.816v3.816h-1c-.552 0-1-.449-1-1zm5 1h-1v-3.816c1.161.414 2 1.514 2 2.816 0 .551-.448 1-1 1z" data-original="#000000" style=""/><path d="m51 35h2v2h-2z" data-original="#000000" style=""/><path d="m55 35h2v2h-2z" data-original="#000000" style=""/><path d="m37.306 9h-12.865c-1.293 0-2.437.824-2.846 2.051l-1.544 4.632c-.103.305-.051.64.137.901.189.262.491.416.812.416h19c.294 0 .573-.129.763-.354s.272-.521.224-.811l-.722-4.328c-.242-1.452-1.486-2.507-2.959-2.507zm-13.814 2.684c.137-.409.519-.684.949-.684h5.559v4h-7.612zm8.508 3.316v-4h5.306c.491 0 .906.351.986.836l.527 3.164z" data-original="#000000" style=""/><path d="m9 41h2c1.103 0 2 .897 2 2h2c0-2.206-1.794-4-4-4v-2h-2v2c-2.206 0-4 1.794-4 4s1.794 4 4 4h2c1.103 0 2 .897 2 2s-.897 2-2 2h-2c-1.103 0-2-.897-2-2v-1h-2v1c0 2.206 1.794 4 4 4v2h2v-2c2.206 0 4-1.794 4-4s-1.794-4-4-4h-2c-1.103 0-2-.897-2-2s.897-2 2-2z" data-original="#000000" style=""/><path d="m17 33h22v2h-22z" data-original="#000000" style=""/><path d="m37 37h2v2h-2z" data-original="#000000" style=""/><path d="m23 37h12v2h-12z" data-original="#000000" style=""/><path d="m17 37h4v2h-4z" data-original="#000000" style=""/><path d="m17 41h22v2h-22z" data-original="#000000" style=""/><path d="m17 45h8v2h-8z" data-original="#000000" style=""/><path d="m27 45h12v2h-12z" data-original="#000000" style=""/><path d="m46.5 50c-1.274 0-2.458.633-3.164 1.693l-.336.504c-.335.503-.896.803-1.5.803s-1.165-.3-1.5-.803l-.336-.504c-.706-1.06-1.89-1.693-3.164-1.693s-2.458.633-3.164 1.693l-.595.892c-.335.502-1.158.525-1.521.042l-1.82-2.427c-.563-.751-1.46-1.2-2.4-1.2-1.654 0-3 1.346-3 3v3h2v-3c0-.551.448-1 1-1 .313 0 .612.149.8.4l1.82 2.427c.551.735 1.428 1.173 2.346 1.173.982 0 1.895-.488 2.439-1.306l.595-.891c.335-.503.896-.803 1.5-.803s1.165.3 1.5.803l.336.504c.706 1.06 1.89 1.693 3.164 1.693s2.458-.633 3.164-1.693l.336-.504c.335-.503.896-.803 1.5-.803h1.5v-2z" data-original="#000000" style=""/></g></g></svg>
