<svg width="32" height="32" viewBox="0 0 32 32" fill="none" xmlns="http://www.w3.org/2000/svg">
<g clip-path="url(#clip0_74_1132)">
<path d="M7.8125 28.1875C5.46875 28.1875 3.5625 26.2812 3.5625 23.9375C3.5625 21.5938 5.46875 19.6875 7.8125 19.6875C10.1562 19.6875 12.0625 21.5938 12.0625 23.9375C12.0625 26.2812 10.1562 28.1875 7.8125 28.1875ZM7.8125 20.3125C5.8125 20.3125 4.1875 21.9375 4.1875 23.9375C4.1875 25.9375 5.8125 27.5625 7.8125 27.5625C9.8125 27.5625 11.4375 25.9375 11.4375 23.9375C11.4375 21.9375 9.8125 20.3125 7.8125 20.3125Z" fill="#220047"/>
<path d="M7.8125 26.25C6.5375 26.25 5.5 25.2125 5.5 23.9375C5.5 22.6625 6.5375 21.625 7.8125 21.625C9.0875 21.625 10.125 22.6625 10.125 23.9375C10.125 25.2125 9.0875 26.25 7.8125 26.25ZM7.8125 22.25C6.88125 22.25 6.125 23.0063 6.125 23.9375C6.125 24.8687 6.88125 25.625 7.8125 25.625C8.74375 25.625 9.5 24.8687 9.5 23.9375C9.5 23.0063 8.74375 22.25 7.8125 22.25Z" fill="#220047"/>
<path d="M3.875 25.875H0.3125C0.1375 25.875 0 25.7375 0 25.5625V22.3125C0 22.1375 0.1375 22 0.3125 22H3.875C4.05 22 4.1875 22.1375 4.1875 22.3125V25.5625C4.1875 25.7375 4.05 25.875 3.875 25.875ZM0.625 25.25H3.5625V22.625H0.625V25.25Z" fill="#220047"/>
<path d="M1.75 22.3125H1.125V19.25C1.125 19.175 1.15 19.1062 1.2 19.05C3.0875 16.7937 5.85 15.5 8.79375 15.5H11.9125L13.5625 13.45C14.8312 11.875 16.4687 10.5812 18.3 9.70624C20.125 8.83124 22.1625 8.36874 24.1875 8.36874V8.99374C20.2313 8.99374 16.5375 10.7625 14.05 13.8375L12.3062 16C12.25 16.075 12.1562 16.1187 12.0625 16.1187H8.79375C6.075 16.1187 3.5125 17.3 1.75 19.3562V22.3125Z" fill="#220047"/>
<path d="M17.0625 16.125H14.125C13.95 16.125 13.8125 15.9875 13.8125 15.8125V15C13.8125 14.3813 14.3188 13.875 14.9375 13.875H17.0625C17.6812 13.875 18.1875 14.3813 18.1875 15C18.1875 15.6187 17.6812 16.125 17.0625 16.125ZM14.4375 15.5H17.0625C17.3375 15.5 17.5625 15.275 17.5625 15C17.5625 14.725 17.3375 14.5 17.0625 14.5H14.9375C14.6625 14.5 14.4375 14.725 14.4375 15V15.5Z" fill="#220047"/>
<path d="M3.68751 19.5625H1.43751C1.31876 19.5625 1.20626 19.4938 1.15626 19.3813C1.10626 19.2688 1.11876 19.1437 1.20001 19.05C2.05626 18.025 3.31251 17.4375 4.65001 17.4375H5.18751C5.36251 17.4375 5.50001 17.575 5.50001 17.75C5.50001 18.75 4.68751 19.5625 3.68751 19.5625ZM2.19376 18.9375H3.68751C4.23126 18.9375 4.69376 18.5688 4.83126 18.0625H4.64376C3.74376 18.0625 2.88126 18.375 2.19376 18.9375Z" fill="#220047"/>
<path d="M29.5 28.1875C29.4438 28.1875 29.3875 28.175 29.3375 28.1438C29.2438 28.0875 29.1875 27.9875 29.1875 27.875V25.3563L27.9375 24.7188L26.6875 25.3563V27.875C26.6875 27.9813 26.6313 28.0875 26.5375 28.1438C26.4438 28.2 26.3313 28.2063 26.2313 28.1563L24.5875 27.3125L24.875 26.7563L26.0688 27.3688V25.1688C26.0688 25.05 26.1375 24.9438 26.2375 24.8875L27.8 24.0875C27.8875 24.0438 27.9938 24.0438 28.0875 24.0875L29.65 24.8875C29.7563 24.9438 29.8188 25.05 29.8188 25.1688V27.3688L31.3813 26.5688V23.1125L29.3625 22.0812C29.2563 22.025 29.1938 21.9187 29.1938 21.8V10.2C29.1938 10.0812 29.2625 9.975 29.3625 9.91875L31.3813 8.8875V5.4375L29.8188 4.6375V6.8375C29.8188 6.95625 29.75 7.0625 29.65 7.11875L28.0875 7.91875C28 7.9625 27.8938 7.9625 27.8 7.91875L26.2375 7.11875C26.1313 7.0625 26.0688 6.95625 26.0688 6.8375V4.6375L24.5 5.4375V8.89375L26.5188 9.925C26.625 9.98125 26.6875 10.0875 26.6875 10.2062V21.8062C26.6875 21.925 26.6188 22.0312 26.5188 22.0875L24.5 23.1125V23.875C24.5 24.05 24.3625 24.1875 24.1875 24.1875H24.125C24.0438 24.4625 23.9313 24.725 23.8 24.975L24.375 25.55C24.4313 25.6062 24.4688 25.6875 24.4688 25.7687C24.4688 25.85 24.4375 25.9312 24.375 25.9875L23.05 27.3125C22.925 27.4375 22.7313 27.4375 22.6063 27.3125L22.0313 26.7375C21.7813 26.8688 21.5188 26.9813 21.2438 27.0625V27.875C21.2438 28.05 21.1063 28.1875 20.9313 28.1875H19.0563C18.8813 28.1875 18.7438 28.05 18.7438 27.875V27.0625C18.4688 26.9813 18.2062 26.8688 17.9562 26.7375L17.3813 27.3125C17.2563 27.4375 17.0625 27.4375 16.9375 27.3125L15.625 25.9875C15.5 25.8625 15.5 25.6688 15.625 25.5438L16.2 24.9688C16.0688 24.7188 15.9563 24.4563 15.875 24.1813H15.0625C14.8875 24.1813 14.75 24.0438 14.75 23.8688V21.9937C14.75 21.8187 14.8875 21.6812 15.0625 21.6812H15.875C15.9563 21.4062 16.0688 21.1437 16.2 20.8937L15.625 20.3188C15.5 20.1938 15.5 20 15.625 19.875L16.95 18.55C17.075 18.425 17.2687 18.425 17.3937 18.55L17.9688 19.125C18.2188 18.9937 18.4813 18.8812 18.7563 18.8V17.9875C18.7563 17.8125 18.8938 17.675 19.0688 17.675H20.9438C21.1188 17.675 21.2563 17.8125 21.2563 17.9875V18.8C21.5313 18.8812 21.7938 18.9937 22.0438 19.125L22.6188 18.55C22.7438 18.425 22.9375 18.425 23.0625 18.55L24.3875 19.875C24.4438 19.9313 24.4813 20.0125 24.4813 20.0938C24.4813 20.175 24.45 20.2563 24.3875 20.3125L23.8125 20.8875C23.9438 21.1375 24.0563 21.4 24.1375 21.675H24.95C25.125 21.675 25.2625 21.8125 25.2625 21.9875V22.0125L26.075 21.5938V10.3937L24.0563 9.3625C23.95 9.30625 23.8875 9.2 23.8875 9.08125V5.24375C23.8875 5.125 23.9563 5.01875 24.0563 4.9625L26.2438 3.84375C26.3375 3.79375 26.4563 3.8 26.55 3.85625C26.6438 3.9125 26.7 4.0125 26.7 4.125V6.64375L27.95 7.28125L29.2 6.64375V4.125C29.2 4.01875 29.2563 3.9125 29.35 3.85625C29.4438 3.8 29.5563 3.79375 29.6563 3.84375L31.8438 4.9625C31.95 5.01875 32.0125 5.125 32.0125 5.24375V9.08125C32.0125 9.2 31.9438 9.30625 31.8438 9.3625L29.8125 10.3937V21.6125L31.8313 22.6437C31.9375 22.7 32 22.8062 32 22.925V26.7625C32 26.8813 31.9313 26.9875 31.8313 27.0438L29.6438 28.1625C29.6 28.175 29.55 28.1875 29.5 28.1875ZM19.375 27.5625H20.625V26.825C20.625 26.6813 20.725 26.5563 20.8625 26.5188C21.2375 26.4313 21.5938 26.2813 21.9188 26.0812C22.0438 26.0062 22.2 26.025 22.3 26.125L22.8188 26.6438L23.7 25.7625L23.1813 25.2438C23.0813 25.1438 23.0625 24.9812 23.1375 24.8625C23.3375 24.5375 23.4875 24.1813 23.575 23.8063C23.6063 23.6688 23.725 23.575 23.8625 23.5688V22.925C23.8625 22.8062 23.9313 22.7 24.0313 22.6437L24.6125 22.35V22.3125H23.875C23.7313 22.3125 23.6063 22.2125 23.5688 22.075C23.4813 21.7 23.3313 21.3437 23.1313 21.0187C23.0563 20.8937 23.075 20.7375 23.175 20.6375L23.6938 20.1187L22.8125 19.2375L22.2938 19.7563C22.1938 19.8563 22.0313 19.875 21.9125 19.8C21.5875 19.6 21.2313 19.45 20.8563 19.3625C20.7188 19.3312 20.6188 19.2062 20.6188 19.0562V18.3125H19.3688V19.05C19.3688 19.1937 19.2688 19.3188 19.1313 19.3563C18.7563 19.4438 18.4 19.5938 18.075 19.7938C17.95 19.8688 17.7938 19.85 17.6938 19.75L17.175 19.2313L16.2938 20.1125L16.8125 20.6313C16.9125 20.7313 16.9313 20.8938 16.8563 21.0125C16.6563 21.3375 16.5063 21.6938 16.4188 22.0688C16.3875 22.2063 16.2562 22.3062 16.1125 22.3062H15.375V23.5563H16.1125C16.2562 23.5563 16.3813 23.6563 16.4188 23.7938C16.5063 24.1688 16.6563 24.525 16.8563 24.85C16.9313 24.975 16.9125 25.1313 16.8125 25.2313L16.2938 25.75L17.175 26.6313L17.6938 26.1125C17.7938 26.0125 17.9563 25.9938 18.075 26.0688C18.4 26.2688 18.7563 26.4188 19.1313 26.5063C19.2688 26.5375 19.3688 26.6625 19.3688 26.8125V27.5625H19.375ZM20 25.4375C18.6188 25.4375 17.5 24.3188 17.5 22.9375C17.5 21.5563 18.6188 20.4375 20 20.4375C21.3813 20.4375 22.5 21.5563 22.5 22.9375C22.5 24.3188 21.3813 25.4375 20 25.4375ZM20 21.0625C18.9688 21.0625 18.125 21.9063 18.125 22.9375C18.125 23.9688 18.9688 24.8125 20 24.8125C21.0313 24.8125 21.875 23.9688 21.875 22.9375C21.875 21.9063 21.0313 21.0625 20 21.0625Z" fill="#220047"/>
<path d="M15.7063 14.3875L15.225 13.9875L15.6 13.5375C17.4875 11.25 20.2688 9.9375 23.2375 9.9375H26.375V10.5625H23.2375C20.4563 10.5625 17.85 11.7937 16.0813 13.9375L15.7063 14.3875Z" fill="#220047"/>
<path d="M14.125 15.5H25.125V16.125H14.125V15.5Z" fill="#220047"/>
<path d="M16.05 25.875H11.75C11.575 25.875 11.4375 25.7375 11.4375 25.5625V22.3125C11.4375 22.1375 11.575 22 11.75 22H15.0625V22.625H12.0625V25.25H16.05V25.875Z" fill="#220047"/>
<path d="M17.9062 22H22.1V22.625H17.9062V22Z" fill="#220047"/>
</g>
<defs>
<clipPath id="clip0_74_1132">
<rect width="32" height="32" fill="white"/>
</clipPath>
</defs>
</svg>
