<?xml version="1.0"?>
<svg xmlns="http://www.w3.org/2000/svg" xmlns:xlink="http://www.w3.org/1999/xlink" version="1.1" viewBox="0 0 512 512" style="enable-background:new 0 0 512 512" xml:space="preserve" class=""><g><g xmlns="http://www.w3.org/2000/svg" id="Outline"><path d="M136,184V456c0,13.009,10.532,24,23,24H328v16H159c-21.141,0-39-18.318-39-40V184ZM195.056,64l5.789,11.578A8,8,0,0,0,208,80h96a8,8,0,0,0,7.155-4.422L316.944,64H352a24.027,24.027,0,0,1,24,24V348.687l-19.716-19.716a30.627,30.627,0,0,0-43.314,43.313l29.3,29.3-.56,1.12A92.52,92.52,0,0,0,344,490.164V496h16v-8a8.009,8.009,0,0,0-1.14-4.116,76.615,76.615,0,0,1-2.843-74.029l3.138-6.277a8,8,0,0,0-1.5-9.235l-33.373-33.372a14.628,14.628,0,0,1,20.686-20.687l33.373,33.373,24,24,11.314-11.314L392,364.686V315.313L428.284,351.6A39.734,39.734,0,0,1,440,379.882V496h16V379.882a55.637,55.637,0,0,0-16.4-39.6l-47.6-47.6V88a40.045,40.045,0,0,0-40-40H168V64h27.056Zm.248,112.928L217.6,147.2A8,8,0,0,1,224,144h64a8,8,0,0,1,6.4,3.2l22.3,29.728,23.186,5.8A15.975,15.975,0,0,1,352,198.25V224a8,8,0,0,1-8,8H326.624a24,24,0,0,1-45.248,0H230.624a24,24,0,0,1-45.248,0H168a8,8,0,0,1-8-8V198.25a15.975,15.975,0,0,1,12.12-15.521ZM216,224a8,8,0,1,0-8,8A8.009,8.009,0,0,0,216,224Zm96,0a8,8,0,1,0-8,8A8.009,8.009,0,0,0,312,224ZM201.941,191.761,176,198.251V216h9.376a24,24,0,0,1,45.248,0h50.752a24,24,0,0,1,45.248,0H336V198.25l-25.941-6.489A8,8,0,0,1,305.6,188.8L284,160H228l-21.6,28.8A8,8,0,0,1,201.941,191.761ZM16,141.036a27,27,0,0,1,3.554-13.378L73.115,33.923a35.572,35.572,0,0,1,61.77,0l53.562,93.735A26.964,26.964,0,0,1,165.036,168H42.964A27,27,0,0,1,16,141.036Zm16,0A10.976,10.976,0,0,0,42.964,152H165.036a10.964,10.964,0,0,0,9.52-16.4L120.992,41.861a19.57,19.57,0,0,0-33.984,0L33.445,135.6A10.967,10.967,0,0,0,32,141.036ZM112,56H96v48h16Zm0,64H96v16h16Zm48,284a12.013,12.013,0,0,1,12-12h24a12.013,12.013,0,0,1,12,12v24a12.013,12.013,0,0,1-12,12H172a12.013,12.013,0,0,1-12-12Zm16,20h16V408H176Zm48-16h80V392H224Zm0,32h88V424H224ZM160,340a12.013,12.013,0,0,1,12-12h24a12.013,12.013,0,0,1,12,12v24a12.013,12.013,0,0,1-12,12H172a12.013,12.013,0,0,1-12-12Zm16,20h16V344H176Zm104-32H224v16h56Zm-56,48h56V360H224ZM160,276a12.013,12.013,0,0,1,12-12h24a12.013,12.013,0,0,1,12,12v24a12.013,12.013,0,0,1-12,12H172a12.013,12.013,0,0,1-12-12Zm16,20h16V280H176Zm176-32H224v16H352Zm0,32H224v16H352ZM485.657,85.657,474.343,74.343l-16,16,11.314,11.314Zm-28,28-11.314-11.314-36,36,11.314,11.314ZM479,184v16h17V184Zm-63,0v16h45V184Zm69.657,114.343-16-16-11.314,11.314,16,16ZM455.99,268.677l-34.333-34.334-11.314,11.314,34.333,34.333ZM240,104H200v16h40Zm56,0H256v16h40Zm56,0H312v16h40Z" data-original="#000000" style="" class=""/></g></g></svg>
