<?xml version="1.0"?>
<svg xmlns="http://www.w3.org/2000/svg" xmlns:xlink="http://www.w3.org/1999/xlink" version="1.1" viewBox="0 0 512 512" xml:space="preserve"><g><g xmlns="http://www.w3.org/2000/svg"><path d="m224.02 415.724h30.542c4.15 0 7.515-3.365 7.515-7.515s-3.365-7.515-7.515-7.515h-30.542c-4.15 0-7.515 3.365-7.515 7.515 0 4.151 3.364 7.515 7.515 7.515z" data-original="#000000" style=""/><path d="m489.503 467.005h-14.74v-67.346c0-18.193-14.825-32.995-33.048-32.995h-25.436l-24.101-41.853c-9.93-17.244-28.477-27.955-48.403-27.955h-106.178c-14.499 0-28.241 5.524-38.693 15.555l-57.312 55.001-74.162 19.635c-17.778 4.706-30.194 20.817-30.194 39.178v40.78h-14.74c-12.404 0-22.496 10.093-22.496 22.498s10.092 22.497 22.497 22.497h141.044c4.15 0 7.515-3.364 7.515-7.515s-3.365-7.515-7.515-7.515h-141.044c-4.118 0-7.468-3.35-7.468-7.468s3.35-7.468 7.468-7.468h467.006c4.118 0 7.468 3.35 7.468 7.468s-3.35 7.468-7.468 7.468h-295.903c-4.15 0-7.515 3.365-7.515 7.515s3.365 7.515 7.515 7.515h295.903c12.405 0 22.497-10.092 22.497-22.498 0-12.405-10.092-22.497-22.497-22.497zm-29.769-67.346v7.469h-9.876c-4.051 0-7.346-3.281-7.346-7.315v-18.079c9.565.42 17.222 8.287 17.222 17.925zm-250.424-76.405c7.64-7.331 17.685-11.369 28.287-11.369h45.463v54.779h-118.983zm-138.033 78.321 11.168-2.957v8.118c0 4.516-3.689 8.19-8.224 8.19h-19.281c3.198-6.43 9.041-11.419 16.337-13.351zm-19.011 28.381h21.955c12.822 0 23.253-10.416 23.253-23.22v-12.097l48.896-12.946h189.865c4.15 0 7.515-3.364 7.515-7.515s-3.365-7.515-7.515-7.515h-38.146v-54.779h45.686c14.566 0 28.123 7.827 35.378 20.426l19.783 34.353h-32.642c-4.15 0-7.515 3.365-7.515 7.515s3.364 7.515 7.515 7.515h45.641 15.548v18.119c0 12.321 10.038 22.344 22.376 22.344h9.876v44.848h-37.526c-7.641-18.576-25.986-31.118-46.46-31.118-20.473 0-38.818 12.542-46.459 31.118h-139.713c-7.641-18.576-25.986-31.118-46.459-31.118s-38.819 12.542-46.459 31.118h-44.393zm353.047 37.049h-59.129c6.364-9.805 17.43-16.089 29.564-16.089 12.135.001 23.2 6.284 29.565 16.089zm-232.631 0h-59.129c6.364-9.805 17.43-16.089 29.565-16.089 12.134.001 23.199 6.284 29.564 16.089z" data-original="#000000" style=""/><path d="m22.497 44.995h60.751v62.783c-6.014 5.847-9.759 14.008-9.759 23.031 0 17.736 14.453 32.165 32.217 32.165.236 0 .469-.013.703-.018l43.286 43.196c-.001.102-.007.203-.007.305 0 8.559 3.34 16.605 9.403 22.656l39.091 39.009c2.594 2.51 7.316 3.183 10.616 0l13.571-13.543 24.922 24.87c7.347 6.823 17.212-3.646 10.616-10.638l-24.9-24.848 10.538-10.516c2.495-2.465 3.18-7.466 0-10.639l-39.091-39.009c-6.331-6.317-14.671-9.431-22.986-9.352l-43.55-43.459c0-.06.005-.12.005-.18 0-9.022-3.745-17.184-9.759-23.031v-62.782h57.638c4.15 0 7.515-3.365 7.515-7.515s-3.364-7.515-7.515-7.515h-163.305c-4.118 0-7.468-3.35-7.468-7.468s3.35-7.468 7.468-7.468h467.006c4.118 0 7.468 3.35 7.468 7.468s-3.35 7.468-7.468 7.468h-273.642c-4.15 0-7.515 3.364-7.515 7.515s3.365 7.515 7.515 7.515h121.992v112.135c-5.935 5.816-9.626 13.908-9.626 22.848v55.167c0 4.15 3.365 7.515 7.515 7.515h17.055v33.022c0 4.15 3.364 7.515 7.515 7.515 4.15 0 7.515-3.365 7.515-7.515v-33.022h17.055c4.15 0 7.515-3.365 7.515-7.515v-55.167c0-8.94-3.691-17.032-9.627-22.849v-112.134h106.733c12.405 0 22.497-10.092 22.497-22.498 0-12.405-10.092-22.497-22.497-22.497h-467.006c-12.405 0-22.497 10.093-22.497 22.498s10.092 22.497 22.497 22.497zm66.022 85.813c0-9.449 7.71-17.136 17.187-17.136s17.188 7.687 17.188 17.136-7.71 17.136-17.188 17.136c-9.477 0-17.187-7.687-17.187-17.136zm139.08 97.32-24.109 24.058-33.783-33.712c-15.707-17.544 8.572-38.877 24.131-24.036zm-62.655-48.938c-3.764 2.296-7.81 6.064-10.497 10.47l-31.663-31.597c4.24-2.658 7.822-6.267 10.433-10.534zm-51.809-79.674c-4.177-.996-9.738-1.251-14.858 0v-54.521h14.858zm264.232 128.114h-34.111v-47.653c0-9.376 7.651-17.004 17.055-17.004s17.055 7.628 17.055 17.004v47.653zm-9.626-78.81c-4.176-.999-9.738-1.256-14.858 0v-103.825h14.858z" data-original="#000000" style=""/></g></g></svg>
