<?xml version="1.0" encoding="UTF-8"?>
<svg width="24px" height="23px" viewBox="0 0 24 23" version="1.1" xmlns="http://www.w3.org/2000/svg" xmlns:xlink="http://www.w3.org/1999/xlink">
    <!-- Generator: Sketch 63.1 (92452) - https://sketch.com -->
    <title>Shape</title>
    <desc>Created with Sketch.</desc>
    <g id="hierarchy" stroke="none" stroke-width="1" fill="none" fill-rule="evenodd">
        <g id="1" transform="translate(-270.000000, -406.000000)" fill="#6df0c2">
            <path d="M274.407407,406 C273.666667,406.260256 273.111111,406.855127 272.740741,407.821793 C271.814815,410.498712 270.962963,413.138452 270,415.778193 L270.037037,425.073052 L270.037037,426.523051 C270.037037,427.564075 270.888889,428.382022 271.888889,428.382022 C272.925926,428.382022 273.740741,427.564075 273.740741,426.523051 L273.740741,425.110232 L290.259259,425.110232 L290.259259,426.523051 C290.259259,427.564075 291.074074,428.382022 292.111111,428.382022 C293.111111,428.382022 293.962963,427.564075 293.962963,426.523051 L293.962963,425.073052 L294,415.778193 C293.037037,413.138452 292.148148,410.498712 291.259259,407.821793 C290.888889,406.855127 290.333333,406.260256 289.592593,406 L274.407407,406 Z M272.696629,414.359551 L274.874799,408.157303 L289.088283,408.157303 L291.303371,414.359551 L272.696629,414.359551 Z M289.41573,416.786517 C288.24246,416.786517 287.258427,417.732703 287.258427,418.94382 C287.258427,420.11709 288.24246,421.101124 289.41573,421.101124 C290.626848,421.101124 291.573034,420.11709 291.573034,418.94382 C291.573034,417.732703 290.626848,416.786517 289.41573,416.786517 Z M274.58427,416.786517 C275.795387,416.786517 276.741573,417.732703 276.741573,418.94382 C276.741573,420.11709 275.795387,421.101124 274.58427,421.101124 C273.410999,421.101124 272.426966,420.11709 272.426966,418.94382 C272.426966,417.732703 273.410999,416.786517 274.58427,416.786517 Z" id="Shape"></path>
        </g>
    </g>
</svg>