<?xml version="1.0"?>
<svg xmlns="http://www.w3.org/2000/svg" xmlns:xlink="http://www.w3.org/1999/xlink" version="1.1" viewBox="0 0 64 64" style="enable-background:new 0 0 512 512" xml:space="preserve"><g><g xmlns="http://www.w3.org/2000/svg" id="outline"><path d="M61,2H3A1,1,0,0,0,2,3V6a1.006,1.006,0,0,0,.168.555L4,9.3V61a1,1,0,0,0,1,1H59a1,1,0,0,0,1-1V9.3l1.832-2.748A1.006,1.006,0,0,0,62,6V3A1,1,0,0,0,61,2ZM21,60V50H31V60Zm0-12V46H43v2Zm-3-4V42H46v2Zm27,2h3V40H16v6h3V56H10V38H54V56H45ZM33,60V50H43V60Zm25,0H45V58H56V36H8V58H19v2H6V10H58ZM60,5.7,58.465,8H5.535L4,5.7V4H7V6H9V4h3V6h2V4H36V6h2V4H48V6h2V4H60Z" data-original="#000000" style=""/><path d="M56,12H8V34H56ZM37,32H11.414l4.293-4.293-1.414-1.414L10,30.586V27.414l6.707-6.707-1.414-1.414L10,24.586V14H46.586l-5.293,5.293,1.414,1.414L49.414,14h3.172l-4.293,4.293,1.414,1.414L54,15.414V32Z" data-original="#000000" style=""/><path d="M39.829,30H46V23.153l-6.581-1.1L35.572,19H24.779L20,23.886V30h4.171a3,3,0,0,0,5.658,0h4.342a3,3,0,0,0,5.658,0ZM38,29a1,1,0,0,1-2,0V28H28v1a1,1,0,0,1-2,0V28H22V24.7L25.621,21h9.254l3.706,2.944,5.419.9V28H38Z" data-original="#000000" style=""/><rect x="27" y="54" width="2" height="2" data-original="#000000" style=""/><rect x="35" y="54" width="2" height="2" data-original="#000000" style=""/></g></g></svg>
