<svg width="32" height="32" viewBox="0 0 32 32" fill="none" xmlns="http://www.w3.org/2000/svg">
<g clip-path="url(#clip0_74_1189)">
<path d="M31.9831 19.8837L30.3582 5.93118C30.2003 4.57537 28.9687 3.60088 27.613 3.75869L3.69436 6.54418C3.05836 6.61824 2.48318 6.93042 2.0748 7.4233C1.90962 7.62261 1.9373 7.91811 2.13662 8.08329C2.33599 8.24848 2.63143 8.22079 2.79668 8.02142C3.05036 7.7153 3.40767 7.52136 3.8028 7.47536L27.7215 4.68993C28.1295 4.64237 28.5316 4.75656 28.8538 5.01156C29.1759 5.26649 29.3795 5.63162 29.427 6.03968L31.0519 19.9922C31.15 20.8346 30.5445 21.5997 29.7022 21.6978L29.0313 21.7759V21.2676C29.0313 21.0087 28.8214 20.7989 28.5626 20.7989C28.3037 20.7989 28.0938 21.0087 28.0938 21.2676V25.7827C28.0938 26.6307 27.4039 27.3206 26.5559 27.3206H2.47543C1.62743 27.3206 0.937496 26.6307 0.937496 25.7827V11.7358C0.937496 10.8878 1.62743 10.1978 2.47543 10.1978H26.5558C27.4038 10.1978 28.0938 10.8878 28.0938 11.7358V19.2609C28.0938 19.5197 28.3036 19.7296 28.5625 19.7296C28.8214 19.7296 29.0313 19.5197 29.0313 19.2609V11.7358C29.0313 10.3708 27.9208 9.26035 26.5558 9.26035H2.47543C1.1105 9.26029 0 10.3708 0 11.7358V25.7827C0 27.1476 1.1105 28.2581 2.47543 28.2581H26.5558C27.9208 28.2581 29.0313 27.1476 29.0313 25.7827V22.7197L29.8106 22.629C30.4673 22.5525 31.055 22.2248 31.4654 21.7063C31.8757 21.1878 32.0596 20.5406 31.9831 19.8837Z" fill="#220047"/>
<path d="M3.47879 22.238H7.49217C7.75104 22.238 7.96092 22.0281 7.96092 21.7692C7.96092 21.5104 7.75104 21.3005 7.49217 21.3005H3.47879C3.21992 21.3005 3.01004 21.5104 3.01004 21.7692C3.01004 22.0281 3.21992 22.238 3.47879 22.238Z" fill="#220047"/>
<path d="M3.47879 24.7463H13.5123C13.7712 24.7463 13.981 24.5365 13.981 24.2776C13.981 24.0187 13.7712 23.8088 13.5123 23.8088H3.47879C3.21992 23.8088 3.01004 24.0187 3.01004 24.2776C3.01004 24.5365 3.21992 24.7463 3.47879 24.7463Z" fill="#220047"/>
<path d="M13.5123 21.3005H9.4989C9.24003 21.3005 9.03015 21.5104 9.03015 21.7692C9.03015 22.0281 9.24003 22.238 9.4989 22.238H13.5123C13.7712 22.238 13.981 22.0281 13.981 21.7692C13.981 21.5104 13.7712 21.3005 13.5123 21.3005Z" fill="#220047"/>
<path d="M19.5324 21.3005H15.519C15.2601 21.3005 15.0503 21.5104 15.0503 21.7692C15.0503 22.0281 15.2601 22.238 15.519 22.238H19.5324C19.7913 22.238 20.0011 22.0281 20.0011 21.7692C20.0011 21.5104 19.7913 21.3005 19.5324 21.3005Z" fill="#220047"/>
<path d="M21.0703 21.7692C21.0703 22.0281 21.2802 22.238 21.539 22.238H25.5525C25.8113 22.238 26.0212 22.0281 26.0212 21.7692C26.0212 21.5104 25.8113 21.3005 25.5525 21.3005H21.539C21.2802 21.3005 21.0703 21.5104 21.0703 21.7692Z" fill="#220047"/>
<path d="M4.4821 19.7296H7.49217C8.30392 19.7296 8.96429 19.0692 8.96429 18.2575V16.2508C8.96429 15.4391 8.30392 14.7787 7.49217 14.7787H4.4821C3.67042 14.7787 3.01004 15.4391 3.01004 16.2508V18.2575C3.01004 19.0692 3.67042 19.7296 4.4821 19.7296ZM3.94754 16.2508C3.94754 15.9561 4.18735 15.7162 4.4821 15.7162H7.49217C7.78692 15.7162 8.02679 15.9561 8.02679 16.2508V18.2575C8.02679 18.5522 7.78698 18.7921 7.49217 18.7921H4.4821C4.18735 18.7921 3.94754 18.5523 3.94754 18.2575V16.2508Z" fill="#220047"/>
<path d="M5.48547 17.7229H6.48885C6.74772 17.7229 6.9576 17.5131 6.9576 17.2542C6.9576 16.9953 6.74772 16.7854 6.48885 16.7854H5.48547C5.2266 16.7854 5.01672 16.9953 5.01672 17.2542C5.01672 17.5131 5.2266 17.7229 5.48547 17.7229Z" fill="#220047"/>
<path d="M23.8069 18.1755C23.874 18.2089 23.9452 18.2247 24.0154 18.2247C24.1876 18.2247 24.3535 18.1294 24.4354 17.9646C24.822 17.1877 25.0179 16.3579 25.0179 15.4983C25.0179 14.6387 24.8219 13.8089 24.4354 13.032C24.32 12.8002 24.0387 12.7059 23.8069 12.8211C23.5752 12.9364 23.4807 13.2178 23.596 13.4496C23.9175 14.0956 24.0804 14.7849 24.0804 15.4984C24.0804 16.2118 23.9175 16.9011 23.596 17.5471C23.4807 17.7788 23.5751 18.0602 23.8069 18.1755Z" fill="#220047"/>
<path d="M22.0072 17.2693C22.0744 17.3029 22.1458 17.3188 22.2162 17.3188C22.3882 17.3188 22.5539 17.2237 22.6359 17.0593C22.8849 16.5606 23.0111 16.0354 23.0111 15.4983C23.0111 14.9613 22.8849 14.4361 22.6359 13.9373C22.5202 13.7057 22.2388 13.6116 22.0071 13.7273C21.7755 13.8429 21.6815 14.1244 21.7971 14.3561C21.9806 14.7236 22.0736 15.1079 22.0736 15.4983C22.0736 15.8887 21.9806 16.273 21.7971 16.6405C21.6815 16.8721 21.7756 17.1537 22.0072 17.2693Z" fill="#220047"/>
<path d="M20.2118 16.3652C20.28 16.3999 20.3526 16.4164 20.4242 16.4164C20.5949 16.4164 20.7594 16.3228 20.8422 16.1604C20.9499 15.9491 21.0044 15.7264 21.0044 15.4983C21.0044 15.2703 20.9499 15.0475 20.8422 14.8363C20.7246 14.6056 20.4424 14.5139 20.2117 14.6314C19.9811 14.749 19.8894 15.0313 20.0069 15.2619C20.0467 15.3401 20.0669 15.4196 20.0669 15.4984C20.0669 15.5771 20.0467 15.6566 20.0069 15.7348C19.8894 15.9654 19.9811 16.2477 20.2118 16.3652Z" fill="#220047"/>
</g>
<defs>
<clipPath id="clip0_74_1189">
<rect width="32" height="32" fill="white"/>
</clipPath>
</defs>
</svg>
