<svg width="20" height="20" viewBox="0 0 20 20" fill="none" xmlns="http://www.w3.org/2000/svg">
<path d="M10.0026 5.83331C7.70142 5.83331 5.83594 7.6988 5.83594 9.99998C5.83594 11.1344 6.28929 12.1629 7.0247 12.9143C7.31115 13.207 7.54661 13.5552 7.62696 13.9568L8.06788 16.1603C8.22375 16.9393 8.90777 17.5 9.70219 17.5H10.303C11.0974 17.5 11.7814 16.9393 11.9374 16.1603L12.3783 13.9568C12.4586 13.5552 12.694 13.207 12.9805 12.9143C13.7159 12.1629 14.1693 11.1344 14.1693 9.99998C14.1693 7.6988 12.3038 5.83331 10.0026 5.83331Z" stroke="#220047"/>
<path d="M10 3.33333V2.5" stroke="#220047" stroke-linecap="round" stroke-linejoin="round"/>
<path d="M15 5.00002L15.8333 4.16669" stroke="#220047" stroke-linecap="round" stroke-linejoin="round"/>
<path d="M16.6641 10H17.4974" stroke="#220047" stroke-linecap="round" stroke-linejoin="round"/>
<path d="M3.33333 10H2.5" stroke="#220047" stroke-linecap="round" stroke-linejoin="round"/>
<path d="M4.16406 4.16669L4.9974 5.00002" stroke="#220047" stroke-linecap="round" stroke-linejoin="round"/>
<path d="M8.33594 14.1667H11.6693" stroke="#220047" stroke-linecap="round" stroke-linejoin="round"/>
</svg>
