<svg width="20" height="20" viewBox="0 0 20 20" fill="none" xmlns="http://www.w3.org/2000/svg">
<path d="M10 5.8335C7.69886 5.8335 5.83337 7.69898 5.83337 10.0002C5.83337 11.1346 6.28672 12.1631 7.02213 12.9145C7.30858 13.2072 7.54405 13.5554 7.6244 13.957L8.06532 16.1605C8.22118 16.9395 8.90521 17.5002 9.69962 17.5002H10.3005C11.0949 17.5002 11.7789 16.9395 11.9348 16.1605L12.3757 13.957C12.456 13.5554 12.6915 13.2072 12.978 12.9145C13.7134 12.1631 14.1667 11.1346 14.1667 10.0002C14.1667 7.69898 12.3012 5.8335 10 5.8335Z"  stroke-width="2"/>
<path d="M10 3.33333V2.5"  stroke-width="2" stroke-linecap="round" stroke-linejoin="round"/>
<path d="M15 4.99984L15.8333 4.1665"  stroke-width="2" stroke-linecap="round" stroke-linejoin="round"/>
<path d="M16.6666 10H17.5"  stroke-width="2" stroke-linecap="round" stroke-linejoin="round"/>
<path d="M3.33333 10H2.5"  stroke-width="2" stroke-linecap="round" stroke-linejoin="round"/>
<path d="M4.16663 4.1665L4.99996 4.99984"  stroke-width="2" stroke-linecap="round" stroke-linejoin="round"/>
<path d="M8.33337 14.1665H11.6667"  stroke-width="2" stroke-linecap="round" stroke-linejoin="round"/>
</svg>
