<svg width="32" height="40" viewBox="0 0 32 40" fill="none" xmlns="http://www.w3.org/2000/svg">
<g>
<mask id="path-1-inside-1_194_5314" fill="white">
<path d="M31.1429 3.85479H22.7232L19.0346 0.245567C18.6999 -0.0818556 18.1572 -0.0818556 17.8224 0.245567L13.8829 4.10042C13.5482 4.42792 13.5482 4.95901 13.8829 5.28659L17.5715 8.89581V11.9032H11.1429C10.6695 11.9032 10.2857 12.2786 10.2857 12.7418V14.4193H6.8571V12.7418C6.8571 12.2786 6.47338 11.9032 5.99991 11.9032H0.857107C0.383722 11.9032 0 12.2786 0 12.7418V17.7741C0 18.2373 0.383722 18.6128 0.857107 18.6128H2.51423V25.9408C2.51423 26.404 2.89796 26.7795 3.37134 26.7795H10.9913L10.1652 27.5878C9.83051 27.9153 9.83043 28.4464 10.1652 28.7739C10.3326 28.9377 10.552 29.0195 10.7713 29.0195C10.9906 29.0195 11.21 28.9376 11.3774 28.7739L12.5799 27.5972C12.8988 28.2871 13.4199 28.9144 14.1217 29.4363C15.0744 30.1448 16.2764 30.5912 17.5713 30.7284V33.2903H14.1427C13.6693 33.2903 13.2856 33.6658 13.2856 34.1291V39.1613C13.2856 39.6245 13.6693 40 14.1427 40H22.7142C23.1876 40 23.5713 39.6245 23.5713 39.1613V34.1291C23.5713 33.6659 23.1876 33.2903 22.7142 33.2903H19.2856V30.7284C20.5805 30.5912 21.7824 30.1448 22.7352 29.4363C23.4379 28.9137 23.9593 28.2855 24.2781 27.5947L25.4831 28.7738C25.6505 28.9376 25.8699 29.0194 26.0892 29.0194C26.3085 29.0194 26.5279 28.9375 26.6953 28.7738C27.03 28.4463 27.03 27.9152 26.6953 27.5877L25.8692 26.7794H31.1428C31.6162 26.7794 32 26.404 32 25.9407V4.69354C32.0001 4.23034 31.6163 3.85479 31.1429 3.85479ZM15.7012 4.69362L18.4286 2.02487L21.156 4.69362L18.4286 7.36237L15.7012 4.69362ZM12 13.5807H24.8571V16.9355H12V13.5807ZM1.71421 16.9355V13.5807H5.1428V16.9355H1.71421ZM12.5867 24.2908L11.3776 23.1078C11.0429 22.7803 10.5001 22.7803 10.1654 23.1078C9.83067 23.4353 9.83067 23.9664 10.1654 24.294L10.9914 25.1022H4.22861V18.6129H6.00007C6.47346 18.6129 6.85718 18.2375 6.85718 17.7743V16.0968H10.2858V17.7743C10.2858 18.2375 10.6695 18.6129 11.1429 18.6129H17.5715V21.1748C16.2766 21.312 15.0746 21.7585 14.1219 22.4669C13.4251 22.9851 12.9061 23.6069 12.5867 24.2908ZM21.8572 34.9678V38.3227H15V34.9678H21.8572ZM18.4286 29.0969C15.9472 29.0969 13.9286 27.686 13.9286 25.9517C13.9286 24.2174 15.9472 22.8065 18.4286 22.8065C20.9099 22.8065 22.9286 24.2174 22.9286 25.9517C22.9286 27.686 20.91 29.0969 18.4286 29.0969ZM25.8693 25.1022L26.6954 24.294C27.0301 23.9665 27.0301 23.4354 26.6954 23.1078C26.3607 22.7804 25.818 22.7804 25.4832 23.1078L24.2716 24.2933C23.9522 23.6085 23.4328 22.9857 22.7353 22.4669C21.7826 21.7585 20.5806 21.312 19.2857 21.1748V18.6129H25.7143C26.1876 18.6129 26.5714 18.2375 26.5714 17.7743V12.742C26.5714 12.2788 26.1876 11.9033 25.7143 11.9033H19.2857V8.89597L22.7232 5.53237H30.2857V25.1022H25.8693Z"/>
</mask>
<path d="M31.1429 3.85479H22.7232L19.0346 0.245567C18.6999 -0.0818556 18.1572 -0.0818556 17.8224 0.245567L13.8829 4.10042C13.5482 4.42792 13.5482 4.95901 13.8829 5.28659L17.5715 8.89581V11.9032H11.1429C10.6695 11.9032 10.2857 12.2786 10.2857 12.7418V14.4193H6.8571V12.7418C6.8571 12.2786 6.47338 11.9032 5.99991 11.9032H0.857107C0.383722 11.9032 0 12.2786 0 12.7418V17.7741C0 18.2373 0.383722 18.6128 0.857107 18.6128H2.51423V25.9408C2.51423 26.404 2.89796 26.7795 3.37134 26.7795H10.9913L10.1652 27.5878C9.83051 27.9153 9.83043 28.4464 10.1652 28.7739C10.3326 28.9377 10.552 29.0195 10.7713 29.0195C10.9906 29.0195 11.21 28.9376 11.3774 28.7739L12.5799 27.5972C12.8988 28.2871 13.4199 28.9144 14.1217 29.4363C15.0744 30.1448 16.2764 30.5912 17.5713 30.7284V33.2903H14.1427C13.6693 33.2903 13.2856 33.6658 13.2856 34.1291V39.1613C13.2856 39.6245 13.6693 40 14.1427 40H22.7142C23.1876 40 23.5713 39.6245 23.5713 39.1613V34.1291C23.5713 33.6659 23.1876 33.2903 22.7142 33.2903H19.2856V30.7284C20.5805 30.5912 21.7824 30.1448 22.7352 29.4363C23.4379 28.9137 23.9593 28.2855 24.2781 27.5947L25.4831 28.7738C25.6505 28.9376 25.8699 29.0194 26.0892 29.0194C26.3085 29.0194 26.5279 28.9375 26.6953 28.7738C27.03 28.4463 27.03 27.9152 26.6953 27.5877L25.8692 26.7794H31.1428C31.6162 26.7794 32 26.404 32 25.9407V4.69354C32.0001 4.23034 31.6163 3.85479 31.1429 3.85479ZM15.7012 4.69362L18.4286 2.02487L21.156 4.69362L18.4286 7.36237L15.7012 4.69362ZM12 13.5807H24.8571V16.9355H12V13.5807ZM1.71421 16.9355V13.5807H5.1428V16.9355H1.71421ZM12.5867 24.2908L11.3776 23.1078C11.0429 22.7803 10.5001 22.7803 10.1654 23.1078C9.83067 23.4353 9.83067 23.9664 10.1654 24.294L10.9914 25.1022H4.22861V18.6129H6.00007C6.47346 18.6129 6.85718 18.2375 6.85718 17.7743V16.0968H10.2858V17.7743C10.2858 18.2375 10.6695 18.6129 11.1429 18.6129H17.5715V21.1748C16.2766 21.312 15.0746 21.7585 14.1219 22.4669C13.4251 22.9851 12.9061 23.6069 12.5867 24.2908ZM21.8572 34.9678V38.3227H15V34.9678H21.8572ZM18.4286 29.0969C15.9472 29.0969 13.9286 27.686 13.9286 25.9517C13.9286 24.2174 15.9472 22.8065 18.4286 22.8065C20.9099 22.8065 22.9286 24.2174 22.9286 25.9517C22.9286 27.686 20.91 29.0969 18.4286 29.0969ZM25.8693 25.1022L26.6954 24.294C27.0301 23.9665 27.0301 23.4354 26.6954 23.1078C26.3607 22.7804 25.818 22.7804 25.4832 23.1078L24.2716 24.2933C23.9522 23.6085 23.4328 22.9857 22.7353 22.4669C21.7826 21.7585 20.5806 21.312 19.2857 21.1748V18.6129H25.7143C26.1876 18.6129 26.5714 18.2375 26.5714 17.7743V12.742C26.5714 12.2788 26.1876 11.9033 25.7143 11.9033H19.2857V8.89597L22.7232 5.53237H30.2857V25.1022H25.8693Z" stroke="white" stroke-width="0.4" mask="url(#path-1-inside-1_194_5314)"/>
</g>
</svg>
