<?xml version="1.0" encoding="UTF-8"?>
<svg width="110px" height="110px" viewBox="0 0 110 110" version="1.1" xmlns="http://www.w3.org/2000/svg" xmlns:xlink="http://www.w3.org/1999/xlink">
    <title>Artboard Copy 2</title>
    <g id="Artboard-Copy-2" stroke="none" stroke-width="1" fill="none" fill-rule="evenodd">
        <g id="Group-2" transform="translate(4.000000, 10.000000)" fill="#000000">
            <path d="M3.41658698,84.7329361 L3.41658698,45.971831 L0,45.971831 L0,84.7329361 C0,87.5251753 2.29448714,89.7887324 5.12488047,89.7887324 L44.5352113,89.7887324 L44.5352113,86.4182015 L5.12488047,86.4182015 C4.18141603,86.4182015 3.41658698,85.6636825 3.41658698,84.7329361 Z" id="Path" fill-rule="nonzero"></path>
            <rect id="Rectangle" fill-rule="nonzero" x="0" y="28.7323944" width="3.5915493" height="8.61971831"></rect>
            <rect id="Rectangle" fill-rule="nonzero" x="51" y="86.1971831" width="51" height="3.5915493"></rect>
            <polygon id="Path" fill-rule="nonzero" points="55.3098592 79.7323944 55.3098592 61.056338 45.2535211 61.056338 45.2535211 79.7323944 48.6056338 79.7323944 48.6056338 64.4519846 51.9577465 64.4519846 51.9577465 79.7323944"></polygon>
            <polygon id="Path" fill-rule="nonzero" points="40.2253521 79.7323944 40.2253521 52.4366197 30.1690141 52.4366197 30.1690141 79.7323944 33.5211268 79.7323944 33.5211268 55.8485915 36.8732394 55.8485915 36.8732394 79.7323944"></polygon>
            <polygon id="Path" fill-rule="nonzero" points="25.1408451 79.7323944 25.1408451 43.8169014 15.084507 43.8169014 15.084507 79.7323944 18.4366197 79.7323944 18.4366197 47.2374245 21.7887324 47.2374245 21.7887324 79.7323944"></polygon>
            <rect id="Rectangle" fill-rule="nonzero" x="0" y="0" width="3.5915493" height="20.1126761"></rect>
            <rect id="Rectangle" x="15.084507" y="7.18309859" width="12.2112676" height="3.5915493"></rect>
            <rect id="Rectangle" x="31.6056338" y="7.18309859" width="12.2112676" height="3.5915493"></rect>
            <rect id="Rectangle" x="48.1267606" y="7.18309859" width="12.2112676" height="3.5915493"></rect>
            <g id="noun_loss_1658303" transform="translate(20.112676, 20.112676)" fill-rule="nonzero">
                <g id="Group">
                    <path d="M0.731704915,3.95531225 C1.49421846,4.72010896 2.24902984,5.47718044 3.01154339,6.24197715 C4.82155028,8.05740367 6.63925933,9.88055541 8.44926623,11.6959819 C10.6520831,13.9053946 12.8549,16.1148073 15.0500148,18.3164948 C16.9447454,20.2168988 18.839476,22.1173027 20.7342066,24.0177066 C21.6584655,24.9447329 22.56732,25.8949349 23.5069832,26.7987855 C23.5223875,26.814236 23.5300896,26.8219612 23.5454939,26.8374116 C24.431242,27.7258119 25.9254605,27.7258119 26.8112085,26.8374116 C28.2284054,25.4159713 29.6456023,23.994531 31.0627992,22.5730906 C33.3195312,20.3096014 35.5762632,18.0461121 37.8406973,15.7748977 C38.3567418,15.257308 38.8727864,14.7397183 39.3888309,14.2221286 C38.3028268,14.2221286 37.2091205,14.2221286 36.1231163,14.2221286 C36.9857579,15.0873532 37.8561016,15.9603029 38.7187432,16.8255275 C40.7752191,18.888161 42.8393972,20.9585198 44.8958731,23.0211533 C47.4067763,25.5395748 49.9099773,28.0502711 52.4208805,30.5686925 C54.5697823,32.7240287 56.7263863,34.8870901 58.8752881,37.0424263 C59.9304836,38.1007813 60.9625726,39.1745868 62.0331725,40.2097661 C62.0485768,40.2252166 62.0639811,40.240667 62.0793854,40.2561175 C62.9343248,41.1136168 64.5055649,41.1754185 65.3451,40.2561175 C66.1923372,39.3290912 66.2616567,37.8922004 65.3451,36.9806245 C64.4824584,36.1153999 63.6121146,35.2424502 62.7494731,34.3772256 C60.6929971,32.3145921 58.6288191,30.2442333 56.5723431,28.1815998 C54.06144,25.6631783 51.5582389,23.1524821 49.0473358,20.6340606 C46.898434,18.4787244 44.74183,16.315663 42.5929282,14.1603269 C41.5377327,13.1019718 40.5056437,12.0281664 39.4350438,10.992987 C39.4196395,10.9775365 39.4042352,10.9620861 39.3888309,10.9466357 C38.5030828,10.0582355 37.0088644,10.0582355 36.1231163,10.9466357 C34.7059194,12.368076 33.2887225,13.7895163 31.8715257,15.2109567 C29.6147937,17.4744459 27.3580617,19.7379352 25.0936275,22.0091496 C24.577583,22.5267393 24.0615385,23.044329 23.5454939,23.5619187 C24.6314981,23.5619187 25.7252044,23.5619187 26.8112085,23.5619187 C26.048695,22.797122 25.2938836,22.0400505 24.53137,21.2752538 C22.7213631,19.4598273 20.9036541,17.6366755 19.0936472,15.821249 C16.8908303,13.6118363 14.6880134,11.4024236 12.4928987,9.20073611 C10.598168,7.30033218 8.70343741,5.39992825 6.80870679,3.49952432 C5.88444795,2.57249801 4.97559342,1.62229604 4.03593027,0.718445389 C4.02052595,0.702994951 4.0128238,0.695269732 3.99741948,0.679819293 C3.14248006,-0.177680043 1.57124003,-0.239481796 0.731704915,0.679819293 C-0.115532355,1.6068456 -0.177149611,3.04373638 0.731704915,3.95531225 L0.731704915,3.95531225 Z" id="Path"></path>
                    <path d="M46.7289865,40.943662 C48.6391214,40.943662 50.5492564,40.943662 52.4593913,40.943662 C55.5094455,40.943662 58.5517975,40.943662 61.6018517,40.943662 C62.3104501,40.943662 63.0113464,40.943662 63.7199448,40.943662 C64.9676943,40.943662 66.0305919,39.8853069 66.0305919,38.6260962 C66.0305919,36.7102418 66.0305919,34.7943875 66.0305919,32.8785331 C66.0305919,29.8193463 66.0305919,26.7678847 66.0305919,23.7086978 C66.0305919,22.9979777 66.0305919,22.2949827 66.0305919,21.5842626 C66.0305919,20.3714031 64.9676943,19.2126202 63.7199448,19.2666968 C62.4644933,19.3207733 61.4092977,20.2864257 61.4092977,21.5842626 C61.4092977,23.5001169 61.4092977,25.4159713 61.4092977,27.3318257 C61.4092977,30.3910125 61.4092977,33.4424741 61.4092977,36.5016609 C61.4092977,37.2123811 61.4092977,37.915376 61.4092977,38.6260962 C62.1795134,37.8535743 62.9497291,37.0810524 63.7199448,36.3085304 C61.8098099,36.3085304 59.899675,36.3085304 57.98954,36.3085304 C54.9394859,36.3085304 51.8971339,36.3085304 48.8470797,36.3085304 C48.1384812,36.3085304 47.437585,36.3085304 46.7289865,36.3085304 C45.5197479,36.3085304 44.3644243,37.3746107 44.4183394,38.6260962 C44.4722545,39.8853069 45.4350241,40.943662 46.7289865,40.943662 L46.7289865,40.943662 Z" id="Path"></path>
                </g>
            </g>
        </g>
    </g>
</svg>