<?xml version="1.0" encoding="UTF-8"?>
<svg width="110px" height="110px" viewBox="0 0 110 110" version="1.1" xmlns="http://www.w3.org/2000/svg" xmlns:xlink="http://www.w3.org/1999/xlink">
    <title>Artboard Copy</title>
    <g id="Artboard-Copy" stroke="none" stroke-width="1" fill="none" fill-rule="evenodd">
        <g id="noun_Profit_3596152" transform="translate(4.000000, 10.000000)" fill="#000000" fill-rule="nonzero">
            <path d="M3.41658698,84.7329361 L3.41658698,45.971831 L0,45.971831 L0,84.7329361 C0,87.5251753 2.29448714,89.7887324 5.12488047,89.7887324 L44.5352113,89.7887324 L44.5352113,86.4182015 L5.12488047,86.4182015 C4.18141603,86.4182015 3.41658698,85.6636825 3.41658698,84.7329361 Z" id="Path"></path>
            <rect id="Rectangle" x="0" y="28.7323944" width="3.5915493" height="8.61971831"></rect>
            <rect id="Rectangle" x="51" y="86.1971831" width="51" height="3.5915493"></rect>
            <polygon id="Path" points="14.6325108 59.6197183 40.7035029 33.6818202 58.8969289 51.7823678 93.5616293 17.2776688 93.5616293 25.8614337 96.971831 25.8614337 96.971831 11.4929577 82.5296268 11.4929577 82.5296268 14.8857502 91.1574371 14.8857502 58.8969289 46.9815665 40.7035029 28.8810189 12.2112676 57.2277996"></polygon>
            <polygon id="Path" points="66.084507 79.7323944 66.084507 61.056338 56.028169 61.056338 56.028169 79.7323944 59.3802817 79.7323944 59.3802817 64.4519846 62.7323944 64.4519846 62.7323944 79.7323944"></polygon>
            <polygon id="Path" points="81.1690141 79.7323944 81.1690141 52.4366197 71.1126761 52.4366197 71.1126761 79.7323944 74.4647887 79.7323944 74.4647887 55.8485915 77.8169014 55.8485915 77.8169014 79.7323944"></polygon>
            <polygon id="Path" points="96.971831 79.7323944 96.971831 43.8169014 86.915493 43.8169014 86.915493 79.7323944 90.2676056 79.7323944 90.2676056 47.2374245 93.6197183 47.2374245 93.6197183 79.7323944"></polygon>
            <rect id="Rectangle" x="0" y="0" width="3.5915493" height="20.1126761"></rect>
            <polygon id="Path" points="15.1358149 20.8309859 18.6247485 20.8309859 18.6247485 16.4698189 22.9859155 16.4698189 22.9859155 12.9808853 18.6247485 12.9808853 18.6247485 8.61971831 15.1358149 8.61971831 15.1358149 12.9808853 10.7746479 12.9808853 10.7746479 16.4698189 15.1358149 16.4698189"></polygon>
            <polygon id="Path" points="48.8963783 20.8309859 52.3853119 20.8309859 52.3853119 16.4698189 56.7464789 16.4698189 56.7464789 12.9808853 52.3853119 12.9808853 52.3853119 8.61971831 48.8963783 8.61971831 48.8963783 12.9808853 44.5352113 12.9808853 44.5352113 16.4698189 48.8963783 16.4698189"></polygon>
            <polygon id="Path" points="32.3752515 20.8309859 35.8641851 20.8309859 35.8641851 16.4698189 40.2253521 16.4698189 40.2253521 12.9808853 35.8641851 12.9808853 35.8641851 8.61971831 32.3752515 8.61971831 32.3752515 12.9808853 28.0140845 12.9808853 28.0140845 16.4698189 32.3752515 16.4698189"></polygon>
        </g>
    </g>
</svg>