<svg width="24" height="24" viewBox="0 0 24 24" xmlns="http://www.w3.org/2000/svg">
<path stroke-width="2" d="M2 0.5H15C15.8284 0.5 16.5 1.17157 16.5 2V17C16.5 17.8284 15.8284 18.5 15 18.5H2C1.17157 18.5 0.5 17.8284 0.5 17V8.66358V4.33179V2C0.5 1.17157 1.17157 0.5 2 0.5Z"/>
<path stroke-width="2" d="M9 5.5H22C22.8284 5.5 23.5 6.17157 23.5 7V22C23.5 22.8284 22.8284 23.5 22 23.5H9C8.17157 23.5 7.5 22.8284 7.5 22V13.6636V9.33179V7C7.5 6.17157 8.17157 5.5 9 5.5Z"/>
<path stroke-width="1.4" d="M4.72206 10.2742L4.72206 12.6905L16.0618 12.6905L13.582 10.3709C13.421 10.2203 13.3306 10.016 13.3306 9.80304C13.3306 9.59006 13.421 9.3858 13.582 9.2352C13.743 9.08461 13.9614 9 14.1891 9C14.4167 9 14.6351 9.08461 14.7961 9.2352L18.7482 12.9322C18.828 13.0067 18.8913 13.0952 18.9346 13.1926C18.9778 13.2901 19 13.3945 19 13.5C19 13.6055 18.9778 13.7099 18.9346 13.8074C18.8913 13.9048 18.828 13.9933 18.7482 14.0678L14.7961 17.7648C14.7164 17.8394 14.6217 17.8985 14.5176 17.9389C14.4134 17.9792 14.3018 18 14.1891 18C14.0763 18 13.9647 17.9792 13.8605 17.9389C13.7564 17.8985 13.6617 17.8394 13.582 17.7648C13.5023 17.6902 13.4391 17.6017 13.3959 17.5043C13.3528 17.4068 13.3306 17.3024 13.3306 17.197C13.3306 17.0915 13.3528 16.9871 13.3959 16.8897C13.4391 16.7922 13.5023 16.7037 13.582 16.6291L16.0618 14.3014L3.86103 14.3014C3.38746 14.3014 3 13.939 3 13.496L3 10.2742C3 9.83123 3.38746 9.46878 3.86103 9.46878C4.33459 9.46878 4.72206 9.83123 4.72206 10.2742Z"/>
</svg>
