<svg xmlns="http://www.w3.org/2000/svg" viewBox="0 0 299.64 299.64"><defs><style>.cls-1{fill:#0c2744;}.cls-2{fill:#6df0c2;}.cls-3{fill:#52ce9e;}</style></defs><g id="Layer_2" data-name="Layer 2"><g id="Layer_1-2" data-name="Layer 1"><rect class="cls-1" width="299.64" height="299.64" rx="77.88"/><path class="cls-2" d="M124.12,270.77h0a11.4,11.4,0,0,1-11.4-11.41V259c-5.67,8.2-14.31,12.67-25.34,12.67-22.8,0-37.86-16.54-37.86-41.28,0-24.45,14.91-40.69,37.26-40.69,11.33,0,20.12,4.47,25.94,12.67V168.79a11.4,11.4,0,0,1,11.4-11.4h0a11.4,11.4,0,0,1,11.4,11.4v90.57A11.4,11.4,0,0,1,124.12,270.77ZM112.72,231c0-13.11-8.2-22.21-20-22.21-11.93,0-20.12,9.25-20.27,22.21.15,13.12,8.19,22.21,20.27,22.21C104.52,253.18,112.72,244.09,112.72,231Z"/><path class="cls-2" d="M62.88,134.81a50.24,50.24,0,0,1-20-20.1q-7.17-13-7.17-29.86t7.09-29.73A49.69,49.69,0,0,1,62.72,35.06Q75.52,28,92.11,28a65.16,65.16,0,0,1,25,4.67A48.16,48.16,0,0,1,135.9,46.11,45.51,45.51,0,0,1,138.84,50a10.58,10.58,0,0,1-8.78,16.47h0A10.8,10.8,0,0,1,120.77,61,27.59,27.59,0,0,0,112.13,52Q103.7,46.41,92,46.41a35.91,35.91,0,0,0-18.64,4.75A31.5,31.5,0,0,0,60.92,64.71,45.42,45.42,0,0,0,56.59,85,44.29,44.29,0,0,0,61,105.33a31,31,0,0,0,12.46,13.3A36.66,36.66,0,0,0,92,123.21a35.86,35.86,0,0,0,20-5.54,26.67,26.67,0,0,0,8.88-9.17,10.75,10.75,0,0,1,9.3-5.55h.1a10.58,10.58,0,0,1,8.83,16.4,46.18,46.18,0,0,1-2.88,3.91A48.92,48.92,0,0,1,117.47,137a63.65,63.65,0,0,1-25.36,4.88Q75.69,141.9,62.88,134.81Z"/><path class="cls-2" d="M241.59,130.63c0-6.68,4.94-11,11.15-11s11.16,4.37,11.16,11a11.16,11.16,0,1,1-22.31,0Z"/><path class="cls-2" d="M163.49,115.63a9.38,9.38,0,0,1-13.74-6.28,41,41,0,0,1,48.61-48.61,9.36,9.36,0,0,1,6.28,13.74h0a9.38,9.38,0,0,1-10.14,4.57,22.31,22.31,0,0,0-26.44,26.44,9.37,9.37,0,0,1-4.57,10.13Z"/><path class="cls-2" d="M189.84,141.9a41,41,0,0,1-8.61-.91,9.34,9.34,0,0,1-6.07-13.7h0a9.38,9.38,0,0,1,10.14-4.57,22.31,22.31,0,0,0,26.44-26.44,9.39,9.39,0,0,1,4.57-10.14h0a9.38,9.38,0,0,1,13.74,6.28,41,41,0,0,1-40.21,49.48Z"/><circle class="cls-3" cx="220.86" cy="93.91" r="8.92"/><circle class="cls-3" cx="159.01" cy="107.91" r="8.92"/><rect class="cls-2" x="179.63" y="178.88" width="23.02" height="103.79" rx="11.51" transform="translate(219.17 -67.56) rotate(45)"/><rect class="cls-2" x="179.55" y="179.01" width="23.02" height="103.55" rx="11.51" transform="translate(489.34 258.87) rotate(135)"/></g></g></svg>