<svg id="Layer_1" data-name="Layer 1" xmlns="http://www.w3.org/2000/svg" viewBox="0 0 184.14 182.6">
    <defs>
        <style>.g-1 .cls-1,.g-1 .cls-2,.g-1 .cls-3{}.g-1 .cls-2{opacity:0.3;}.g-1 .cls-3{opacity:0.7;}</style>
    </defs>
    <g class="g-1">
        <path class="cls-1" d="M86.35,4.26c-.44.45-1,.18-1.49.24V4.26Z"/><path class="cls-2" d="M136.76,166.45c.24.47-.17.54-.44.68a95.77,95.77,0,0,1-23.3,8.52,89.8,89.8,0,0,1-13.54,2c-.46.29-1-.08-1.49.24H90c-1.11-.55-2.34-.31-3.5-.43A87.84,87.84,0,0,1,63,171.3a80,80,0,0,1-8.2-3.76c-.74-.4-1.54-.52-2.29-.84.47-.5,1.06-.32,1.62-.26a14.46,14.46,0,0,0,3.66,0c7.12-1,12.41-4.63,15.5-11.1a18.7,18.7,0,0,0,1.4-12.8A12.65,12.65,0,0,0,71,136.42c-.85-.79-1.3-1.37-1-1.9.57-.19,3.79,1.83,4.28,2A52.63,52.63,0,0,0,89.62,141a41.26,41.26,0,0,0,11.53-.34,62,62,0,0,0,12.91-3.46,1.56,1.56,0,0,1,1.3-.18c.27.9-.33,1.59-.65,2.3a19.93,19.93,0,0,0-1.37,10.26,19.63,19.63,0,0,0,16.16,16.61c2.07.57,4.15.19,6.22,0C136.09,166.24,136.45,166.13,136.76,166.45Z"/><path class="cls-1" d="M86.35,4.76c-.44.44-1,.17-1.49.24V4.76Z"/><path class="cls-2" d="M105.69,35A17.9,17.9,0,0,0,110,46.58c.31.37.6.75.89,1.13-.57.47-1.09.09-1.6-.12A57.58,57.58,0,0,0,96.26,44a47.15,47.15,0,0,0-16.37.81c-2.55.5-5.06,1.2-7.54,1.94-.46.13-.93.38-1.43.08,1.62-2,1.68-2.74,2.48-5.2.09-.27.3,0,.62-.83.26-.7.57-1.38.76-2.1a17.47,17.47,0,0,0,.32-2.94c.75-9.06-5.63-17-14.39-19.15-.29-.07-.89-.16-1.43-.3a15.17,15.17,0,0,0-4.09-.36h-.37a100.92,100.92,0,0,1,16.56-5.07A91.4,91.4,0,0,1,83.92,9a88,88,0,0,1,15.31.16,121.33,121.33,0,0,1,25.49,5.44c1.13.35,2.23.8,3.34,1.2-.63.56-1.42.35-2.13.33a19.2,19.2,0,0,0-14.65,5.84,18.37,18.37,0,0,0-5.47,12.34C105.79,34.51,105.87,34.75,105.69,35Z"/><path class="cls-3" d="M51.1,16.59c-3.54.27-6.29,2.31-9,4.28C20.79,36.64,8.23,57.61,5.69,84.11c-2,21.24,3.52,40.62,15.84,58A79.06,79.06,0,0,0,45.85,165,19.31,19.31,0,0,0,70.27,161c6.94-8.4,6.57-19.12-.29-26.43-2.89-3.08-6.57-5.13-9.69-7.93A47.14,47.14,0,0,1,53,65.22,53.66,53.66,0,0,1,67.88,51a10.64,10.64,0,0,0,4.37-5.38c-1.49.11-2.19,1.34-3.1,2.23a18.09,18.09,0,0,1-27.72-23,17.45,17.45,0,0,1,7.4-6.3C49.76,18.14,51,17.94,51.1,16.59Z"/><path class="cls-3" d="M138.44,166.21c3-.44,5.23-2.35,7.41-4.13,18.87-15.44,30-35.24,32.52-59.52,2.29-22-3.48-42-16.35-59.85a83.8,83.8,0,0,0-27.38-24.23,19.7,19.7,0,0,0-24.14,3.68,19.9,19.9,0,0,0-1.91,24.58,21.69,21.69,0,0,0,7.22,6.57c24.25,14.11,31,45.74,14.18,68.91a50.07,50.07,0,0,1-10.48,10.33,15.19,15.19,0,0,0-5.55,7.88c1.34,0,1.74-1.09,2.33-1.93,6.66-9.57,19-11.29,27.6-3.48a18.09,18.09,0,0,1,2.58,23.57,19,19,0,0,1-6.51,5.87C139.25,164.85,138.46,165.21,138.44,166.21Z"/><path class="cls-1" d="M138.44,166.21a23.06,23.06,0,0,0,4.72-2.83,19.32,19.32,0,0,0,6.11-9.29,18.53,18.53,0,0,0-1.38-14.54,19.41,19.41,0,0,0-14.43-10c-8.74-1.19-14.68,4.79-15.72,5.8a16.8,16.8,0,0,0-3.77,5.1,19.45,19.45,0,0,0,3.55,20.81C123.3,167.48,132.48,168.84,138.44,166.21Z"/><path class="cls-1" d="M61.3,16.79a18.55,18.55,0,0,0-18.74,4.94l-.07.08a19.1,19.1,0,0,0,23.28,29.7,20.78,20.78,0,0,0,4.63-3.69,18.8,18.8,0,0,0,4.38-9.15,18.8,18.8,0,0,0-2.42-13.5A19,19,0,0,0,61.3,16.79Z"/>
        <animate
        id="frame1"
        attributeName="display"
        values="inline;none;none;none;none"
        keyTimes="0;0.25;0.50;0.75;1"
        dur="1.5s"
        begin="0s"
        repeatCount="indefinite" />
    </g>

    <defs><style>.g-2 .cls-1,.g-2 .cls-2,.g-2 .cls-3{;}.g-2 .cls-2{opacity:0.3;}.g-2 .cls-3{opacity:0.7;}</style></defs>
    <g class="g-2">
        <path class="cls-1" d="M86.35,4.26c-.44.45-1,.18-1.49.24V4.26Z"/><path class="cls-1" d="M149.86,150.27a23.71,23.71,0,0,0,4.72-2.83,19.33,19.33,0,0,0,6.11-9.3,18.54,18.54,0,0,0-1.37-14.53,19.41,19.41,0,0,0-14.44-10c-8.74-1.19-14.67,4.78-15.72,5.79a17.1,17.1,0,0,0-3.77,5.1,19.45,19.45,0,0,0,3.55,20.81C134.72,151.53,143.9,152.89,149.86,150.27Z"/><path class="cls-1" d="M42.72,33.85A18.51,18.51,0,0,0,24,38.79l-.07.07A19.11,19.11,0,0,0,47.19,68.57a20.87,20.87,0,0,0,4.63-3.7,18.58,18.58,0,0,0,4.38-9.15A18.95,18.95,0,0,0,42.72,33.85Z"/><path class="cls-2" d="M35.55,156.65c-.37.38-.57,0-.79-.2a96.09,96.09,0,0,1-15.3-19.52,90.11,90.11,0,0,1-6.05-12.27c-.42-.35-.24-1-.69-1.35l-2.46-7.56c.18-1.23-.43-2.32-.67-3.46A87.19,87.19,0,0,1,8.13,88a76.8,76.8,0,0,1,1-9c.15-.83,0-1.63.09-2.44.61.3.62.91.74,1.46a15.31,15.31,0,0,0,1.1,3.5c3.14,6.46,8.24,10.37,15.36,11.3a18.63,18.63,0,0,0,12.6-2.63,12.58,12.58,0,0,0,4.69-5.46c.49-1,.9-1.66,1.51-1.51.36.48-.57,4.17-.63,4.7a52.6,52.6,0,0,0,.51,16A41.38,41.38,0,0,0,49,114.83,62.57,62.57,0,0,0,56.31,126c.28.34.64.66.57,1.18-.77.54-1.61.18-2.39.1a20,20,0,0,0-10.18,1.86,19.66,19.66,0,0,0-10.8,20.51c.1,2.15,1.11,4,1.89,5.93C35.54,156,35.76,156.26,35.55,156.65Z"/><path class="cls-2" d="M151,86.44a17.91,17.91,0,0,0-9.71,7.73c-.25.41-.53.8-.79,1.2-.62-.41-.42-1-.39-1.57a57.45,57.45,0,0,0-.59-13.54,47.42,47.42,0,0,0-5.83-15.32c-1.27-2.27-2.71-4.44-4.18-6.58-.27-.39-.66-.76-.52-1.32,2.44.9,3.13.75,5.71.74.29,0,.07.3,1,.34.74,0,1.49.11,2.23.07a18.08,18.08,0,0,0,2.9-.6C149.63,55.49,155.2,47,154.54,38c0-.3-.12-.89-.15-1.45a15.37,15.37,0,0,0-.92-4c0-.12-.08-.23-.11-.35a101.09,101.09,0,0,1,9.95,14.18A90.2,90.2,0,0,1,169,57.7a88.17,88.17,0,0,1,4.59,14.61,121.71,121.71,0,0,1,2.71,25.92c0,1.18-.07,2.36-.11,3.55-.73-.43-.77-1.24-1-1.93A19.21,19.21,0,0,0,165.1,87.72a18.43,18.43,0,0,0-13.43-1.38C151.44,86.4,151.23,86.54,151,86.44Z"/><path class="cls-3" d="M160.55,142.46A84,84,0,0,0,175.21,109a19.74,19.74,0,0,0-34.9-16.11,22,22,0,0,0-4,8.89A47.09,47.09,0,0,1,75.05,136.4a50.12,50.12,0,0,1-13-6.81,15.14,15.14,0,0,0-9.2-2.85h0a19.46,19.46,0,0,0-18.71,9.77c-4.17,7.42-2.64,16.57,1.69,21.44h0c1.34,2.71,3.84,4.26,6.21,5.78C62.48,177,84.74,181.45,108.62,176.4,130.25,171.82,147.5,160.19,160.55,142.46Z"/><path class="cls-3" d="M44.91,83.06c2.05-3.7,2.87-7.82,4.57-11.65a47.13,47.13,0,0,1,56.17-25.76,53.28,53.28,0,0,1,18.07,9.78,10.68,10.68,0,0,0,6.46,2.5c0-.06-.06-.11-.08-.17a21.47,21.47,0,0,0,7.5.43,19,19,0,0,0,16.68-19.55,18.32,18.32,0,0,0-3-9.76h.07c-1.34-3.28-4.13-5.27-6.83-7.21C123,6.19,99.13.67,73.14,6.39,52.3,11,35.56,22.22,22.78,39.3A79.05,79.05,0,0,0,8.48,69.46a19.3,19.3,0,0,0,11.37,22C30,95.49,40.06,91.84,44.91,83.06Z"/>
        <animate
        id="frame1"
        attributeName="display"
        values="none;inline;none;none;none"
        keyTimes="0;0.25;0.50;0.75;1"
        dur="1.5s"
        begin="0s"
        repeatCount="indefinite" />
    </g>

    <defs><style>.g-3 .cls-1,.g-3 .cls-2,.g-3 .cls-3{}.g-3 .cls-2{opacity:0.3;}.g-3 .cls-3{opacity:0.7;}</style></defs>
    <g class="g-3">
        <path class="cls-1" d="M86.35,4.26c-.44.45-1,.18-1.49.24V4.26Z"/><path class="cls-1" d="M92.47,177a23.27,23.27,0,0,0,5.41-1,19.41,19.41,0,0,0,9-6.55,18.57,18.57,0,0,0,3.83-14.09,19.43,19.43,0,0,0-10-14.46c-7.76-4.19-15.42-.69-16.76-.11a17,17,0,0,0-5.33,3.45,19.46,19.46,0,0,0-4,20.72C77.85,172.81,86,177.31,92.47,177Z"/><path class="cls-1" d="M103.23,8.24A18.54,18.54,0,0,0,84,6.26l-.09,0a18.82,18.82,0,0,0-9.59,23.24A19,19,0,0,0,95.2,42.31a21.1,21.1,0,0,0,5.63-1.83,18.63,18.63,0,0,0,7.32-7A18.73,18.73,0,0,0,110.63,20,19,19,0,0,0,103.23,8.24Z"/><path class="cls-2" d="M16.14,132.66c-.49.23-.54-.19-.67-.46A95.85,95.85,0,0,1,8,108.53,88.87,88.87,0,0,1,6.68,94.92c-.28-.48.13-1-.17-1.51l.36-7.94c.59-1.08.41-2.32.58-3.47a87.7,87.7,0,0,1,7.18-23.25,77.82,77.82,0,0,1,4.13-8,24.15,24.15,0,0,0,.94-2.24c.48.49.27,1.07.18,1.62a15.06,15.06,0,0,0-.19,3.67c.65,7.15,4.06,12.6,10.39,16a18.7,18.7,0,0,0,12.72,2,12.55,12.55,0,0,0,6.31-3.46c.83-.81,1.43-1.24,2-.89.16.58-2,3.71-2.24,4.19a52.17,52.17,0,0,0-5.16,15.14,41.3,41.3,0,0,0-.19,11.54,61.74,61.74,0,0,0,2.87,13,1.53,1.53,0,0,1,.12,1.32c-.91.23-1.57-.41-2.27-.76A19.87,19.87,0,0,0,34,110a19.65,19.65,0,0,0-17.33,15.39c-.66,2-.37,4.14-.32,6.22C16.37,132,16.47,132.37,16.14,132.66Z"/><path class="cls-2" d="M148.9,107.58a17.86,17.86,0,0,0-11.81,3.82l-1.17.84c-.44-.6,0-1.1.19-1.6a57.92,57.92,0,0,0,4.22-12.89,47.48,47.48,0,0,0-.07-16.39c-.39-2.57-1-5.11-1.6-7.63-.11-.46-.34-.94,0-1.42,2,1.7,2.66,1.8,5.08,2.71.26.1,0,.3.79.65.69.29,1.36.63,2.07.86a19.32,19.32,0,0,0,2.92.46c9,1.15,17.22-4.86,19.78-13.52.08-.28.2-.87.36-1.41A14.74,14.74,0,0,0,170.2,58a2.22,2.22,0,0,1,0-.37,102.44,102.44,0,0,1,4.32,16.77A92,92,0,0,1,175.85,87a87.92,87.92,0,0,1-.86,15.29,121.25,121.25,0,0,1-6.58,25.22c-.41,1.11-.9,2.19-1.36,3.28-.53-.65-.28-1.43-.23-2.14a19.19,19.19,0,0,0-5.16-14.9,18.47,18.47,0,0,0-12.09-6C149.34,107.7,149.1,107.76,148.9,107.58Z"/><path class="cls-3" d="M138.14,163.38a83.81,83.81,0,0,0,25.5-26.2,19.7,19.7,0,0,0-2.53-24.29,19.9,19.9,0,0,0-24.46-3.08,21.75,21.75,0,0,0-6.9,6.9,47.1,47.1,0,0,1-69.51,10.9,50.08,50.08,0,0,1-9.82-11,15.18,15.18,0,0,0-7.61-5.91h0a19.47,19.47,0,0,0-21,2.56c-6.51,5.48-8.3,14.59-6,20.67h0c.3,3,2.1,5.33,3.78,7.6,14.53,19.58,33.78,31.63,57.91,35.3C99.43,180.2,119.68,175.39,138.14,163.38Z"/><path class="cls-3" d="M50.81,67.08c3.21-2.74,5.43-6.32,8.37-9.3a47.14,47.14,0,0,1,61.65-4.34A53.71,53.71,0,0,1,134.3,69a10.68,10.68,0,0,0,5.17,4.62l0-.19a21.25,21.25,0,0,0,6.88,3,18.74,18.74,0,0,0,13.59-1.77A19,19,0,0,0,168.81,64a18.33,18.33,0,0,0,.62-10.2l.07,0c-.1-3.54-2-6.39-3.86-9.15C150.91,22.59,130.56,9.05,104.22,5.25c-21.13-3-40.75,1.59-58.72,13.07a79.09,79.09,0,0,0-24,23.2,19.31,19.31,0,0,0,2.9,24.59C32.45,73.45,43.18,73.58,50.81,67.08Z"/>
        <animate
        id="frame1"
        attributeName="display"
        values="none;none;inline;none;none"
        keyTimes="0;0.25;0.50;0.75;1"
        dur="1.5s"
        begin="0s"
        repeatCount="indefinite" />
    </g>

    <defs><style>.g-4 .cls-1,.g-4 .cls-2,.g-4 .cls-3{}.g-4 .cls-2{opacity:0.3;}.g-4 .cls-3{opacity:0.7;}</style></defs>
    <g class="g-4">
        <path class="cls-1" d="M26.08,124.24a23.68,23.68,0,0,0,5.41-1,19.27,19.27,0,0,0,9-6.55,18.49,18.49,0,0,0,3.83-14.09,19.43,19.43,0,0,0-10-14.46c-7.76-4.18-15.42-.68-16.75-.1a16.75,16.75,0,0,0-5.33,3.44,19.44,19.44,0,0,0-4,20.73C11.46,120.09,19.58,124.6,26.08,124.24Z"/><path class="cls-1" d="M169.36,61.76a18.52,18.52,0,0,0-19.28-2l-.1,0a19.11,19.11,0,0,0,11.34,36A20.71,20.71,0,0,0,167,94a19.47,19.47,0,0,0,9.8-20.5A19,19,0,0,0,169.36,61.76Z"/><path class="cls-2" d="M8.75,67.42c-.5-.19-.25-.52-.14-.8a96,96,0,0,1,11.46-22A89.65,89.65,0,0,1,28.75,34c.14-.53.82-.64.94-1.19l5.87-5.36c1.19-.34,1.93-1.35,2.87-2A87.92,87.92,0,0,1,59.94,14.09a78.72,78.72,0,0,1,8.59-2.75c.81-.2,1.49-.66,2.26-.92,0,.68-.57.94-1,1.27A15.18,15.18,0,0,0,67,14.14c-4.6,5.53-6,11.79-4,18.65a18.71,18.71,0,0,0,7.6,10.4,12.59,12.59,0,0,0,6.91,2c1.16,0,1.88.13,2,.75-.29.52-4,1.2-4.54,1.37a52.45,52.45,0,0,0-14.36,7.06,41.23,41.23,0,0,0-8.29,8,61.91,61.91,0,0,0-7.19,11.25c-.19.4-.34.86-.85,1-.8-.48-.82-1.39-1.07-2.13a19.5,19.5,0,0,0-29-9.87c-1.91,1-3.19,2.66-4.62,4.17C9.38,67.12,9.19,67.45,8.75,67.42Z"/><path class="cls-2" d="M120.36,143.55a17.9,17.9,0,0,0-11-5.64l-1.42-.24c.11-.73.75-.8,1.27-1a57.55,57.55,0,0,0,12.09-6.14,47.26,47.26,0,0,0,11.54-11.64c1.55-2.09,2.93-4.29,4.27-6.51.24-.42.42-.92,1-1,.18,2.59.61,3.15,1.68,5.5.12.27-.25.19.1,1a22,22,0,0,0,.86,2.07,17.54,17.54,0,0,0,1.74,2.39C148,129.55,158,131.1,166,126.78c.26-.13.76-.47,1.26-.74a14.84,14.84,0,0,0,3.26-2.49l.28-.24A101.46,101.46,0,0,1,162,138.23a90.81,90.81,0,0,1-8,9.83,87.86,87.86,0,0,1-11.41,10.21,121.1,121.1,0,0,1-22.49,13.17c-1.07.5-2.18.92-3.28,1.37.09-.84.82-1.22,1.36-1.68A19.22,19.22,0,0,0,125,156.94a18.39,18.39,0,0,0-4.29-12.8C120.59,144,120.37,143.82,120.36,143.55Z"/><path class="cls-3" d="M73.29,175.4a83.73,83.73,0,0,0,36.57-.49,19.7,19.7,0,0,0,15.38-19,19.91,19.91,0,0,0-15.12-19.47,21.73,21.73,0,0,0-9.76,0c-27.43,5.88-53.75-13-56.85-41.45a50.33,50.33,0,0,1,.8-14.69,15.1,15.1,0,0,0-1.2-9.56h0a19.46,19.46,0,0,0-16.62-13C18,57,10.31,62.21,7.66,68.16h0c-1.92,2.34-2.29,5.26-2.7,8-3.58,24.12,1.52,46.25,16,65.92C34,159.93,51.75,170.84,73.29,175.4Z"/><path class="cls-3" d="M79.64,45.56c4.21.33,8.31-.63,12.5-.66a47.14,47.14,0,0,1,46.65,40.53,53.46,53.46,0,0,1-1.44,20.49,10.68,10.68,0,0,0,.39,6.92l.11-.15a21.61,21.61,0,0,0,2.72,7,18.67,18.67,0,0,0,10.87,8.36,18.92,18.92,0,0,0,13.82-1.24,18.31,18.31,0,0,0,7.64-6.77s0,0,0,.06c2.43-2.58,3.09-5.94,3.74-9.2,5.2-26,.38-50-15.56-71.3-12.78-17.09-29.93-27.69-50.76-32.28A78.94,78.94,0,0,0,77,6.76,19.29,19.29,0,0,0,61.64,26.2C62.15,37.08,69.64,44.76,79.64,45.56Z"/><path class="cls-1" d="M86.35,4.26c-.44.45-1,.18-1.49.24V4.26Z"/>
        <animate
        id="frame1"
        attributeName="display"
        values="none;none;none;inline;none"
        keyTimes="0;0.25;0.50;0.75;1"
        dur="1.5s"
        begin="0s"
        repeatCount="indefinite" />
    </g>
</svg>