<svg width="54" height="53" viewBox="0 0 54 53" fill="none" xmlns="http://www.w3.org/2000/svg">
<path d="M39.7492 0H30.7392L33.5548 2.82667L24.8761 10.6662L17.0696 5.09021L2.20752 16.5625L5.52002 19.875L17.2794 10.7767L25.2404 16.4631L36.7458 6.00667L39.7492 9.01V0Z" fill="#F4A36A"/>
<path d="M49.0692 36.1173L43.0625 35.4437V29.8125C43.0625 28.934 42.7135 28.0914 42.0923 27.4702C41.4711 26.849 40.6285 26.5 39.75 26.5C38.8715 26.5 38.0289 26.849 37.4077 27.4702C36.7865 28.0914 36.4375 28.934 36.4375 29.8125V37.5417C35.559 37.5417 34.7164 37.8907 34.0952 38.5119C33.474 39.1331 33.125 39.9756 33.125 40.8542V44.1667C33.125 45.1223 33.435 46.0522 34.0083 46.8167C36.7025 50.4163 36.4375 49.6875 36.4375 51.8958C36.4375 52.1887 36.5538 52.4695 36.7609 52.6766C36.968 52.8837 37.2488 53 37.5417 53H49.6875C49.9803 53 50.2612 52.8837 50.4683 52.6766C50.6753 52.4695 50.7917 52.1887 50.7917 51.8958C50.7917 50.7917 50.7033 50.1623 51.1671 49.4667C53.3754 46.1542 53 47.2583 53 40.5119C53.0012 39.4238 52.6006 38.3736 51.8752 37.5626C51.1499 36.7517 50.1506 36.237 49.0692 36.1173V36.1173ZM50.7917 45.3702C50.7917 47.1479 48.5833 47.954 48.5833 50.7917H38.6458C38.6458 49.836 38.3359 48.9062 37.7625 48.1417C35.6646 45.3481 35.3333 45.1162 35.3333 44.1667V40.8542C35.3333 40.5613 35.4497 40.2805 35.6567 40.0734C35.8638 39.8663 36.1447 39.75 36.4375 39.75H37.5417C37.8345 39.75 38.1154 39.6337 38.3224 39.4266C38.5295 39.2195 38.6458 38.9387 38.6458 38.6458V29.8125C38.6458 29.5197 38.7622 29.2388 38.9692 29.0317C39.1763 28.8247 39.4572 28.7083 39.75 28.7083C40.0428 28.7083 40.3237 28.8247 40.5308 29.0317C40.7378 29.2388 40.8542 29.5197 40.8542 29.8125V36.4375C40.8525 36.7105 40.952 36.9744 41.1335 37.1783C41.315 37.3822 41.5656 37.5116 41.8369 37.5417L48.8263 38.3256C49.3689 38.3857 49.87 38.6446 50.233 39.0524C50.5959 39.4602 50.795 39.988 50.7917 40.534V45.3702Z" fill="#F4A36A"/>
<path d="M29.8125 43.0623V19.8748C29.8125 19.582 29.6962 19.3011 29.4891 19.094C29.282 18.887 29.0012 18.7706 28.7083 18.7706H22.0833C21.7905 18.7706 21.5096 18.887 21.3026 19.094C21.0955 19.3011 20.9792 19.582 20.9792 19.8748V27.604H16.5625V24.2915C16.5625 23.9986 16.4462 23.7178 16.2391 23.5107C16.032 23.3036 15.7512 23.1873 15.4583 23.1873H8.83333C8.54049 23.1873 8.25964 23.3036 8.05257 23.5107C7.8455 23.7178 7.72917 23.9986 7.72917 24.2915V32.0206H2.20833C1.91549 32.0206 1.63464 32.137 1.42757 32.344C1.2205 32.5511 1.10417 32.832 1.10417 33.1248V43.0623C0.811323 43.0623 0.530474 43.1786 0.323403 43.3857C0.116332 43.5928 0 43.8736 0 44.1665C0 44.4593 0.116332 44.7402 0.323403 44.9472C0.530474 45.1543 0.811323 45.2706 1.10417 45.2706H29.8125C30.1053 45.2706 30.3862 45.1543 30.5933 44.9472C30.8003 44.7402 30.9167 44.4593 30.9167 44.1665C30.9167 43.8736 30.8003 43.5928 30.5933 43.3857C30.3862 43.1786 30.1053 43.0623 29.8125 43.0623ZM7.72917 43.0623H3.3125V34.229H7.72917V43.0623ZM14.3542 43.0623H9.9375V25.3956H14.3542V43.0623ZM20.9792 43.0623H16.5625V29.8123H20.9792V43.0623ZM27.6042 43.0623H23.1875V20.979H27.6042V43.0623Z" fill="#F4A36A"/>
</svg>
