<svg xmlns="http://www.w3.org/2000/svg" width="23" height="20" viewBox="0 0 23 20" fill="none">
  <path fill-rule="evenodd" clip-rule="evenodd" d="M4.99774 15.3087C5.1236 15.3644 5.25645 15.3923 5.3893 15.3923C5.50583 15.3923 5.62004 15.3714 5.72958 15.3296L11.9246 12.9854L9.45871 6.51035L3.26136 8.85455C3.02363 8.94516 2.83484 9.12173 2.72996 9.35406C2.62741 9.58639 2.61809 9.84428 2.70898 10.0813L4.49664 14.779C4.58753 15.0159 4.76467 15.2041 4.99774 15.3087ZM3.51174 9.50965L9.05416 7.41171L11.0213 12.5857L5.47885 14.6836C5.41359 14.7069 5.346 14.7045 5.28307 14.6767C5.22247 14.6488 5.17353 14.5977 5.15022 14.5349L3.36257 9.83724C3.33926 9.77218 3.34159 9.70481 3.36956 9.64208C3.39753 9.58167 3.44881 9.53288 3.51174 9.50965Z" fill="#011E3B"/>
  <path d="M4.99774 15.3087L4.89542 15.5368L4.89647 15.5372L4.99774 15.3087ZM5.72958 15.3296L5.6411 15.0958L5.64041 15.096L5.72958 15.3296ZM11.9246 12.9854L12.0131 13.2192L12.2474 13.1305L12.1582 12.8964L11.9246 12.9854ZM9.45871 6.51035L9.69234 6.42137L9.60357 6.18826L9.37026 6.27651L9.45871 6.51035ZM3.26136 8.85455L3.17291 8.62072L3.17232 8.62095L3.26136 8.85455ZM2.72996 9.35406L2.50209 9.2512L2.50125 9.25311L2.72996 9.35406ZM2.70898 10.0813L2.94264 9.99234L2.9424 9.99172L2.70898 10.0813ZM4.49664 14.779L4.26298 14.8679L4.26322 14.8685L4.49664 14.779ZM9.05416 7.41171L9.28784 7.32287L9.19912 7.08953L8.96565 7.1779L9.05416 7.41171ZM3.51174 9.50965L3.59833 9.74418L3.60024 9.74346L3.51174 9.50965ZM11.0213 12.5857L11.1098 12.8195L11.3439 12.7309L11.255 12.4969L11.0213 12.5857ZM5.47885 14.6836L5.56271 14.9192L5.56735 14.9174L5.47885 14.6836ZM5.28307 14.6767L5.17858 14.9038L5.18181 14.9052L5.28307 14.6767ZM5.15022 14.5349L5.38458 14.4479L5.38388 14.446L5.15022 14.5349ZM3.36257 9.83724L3.12718 9.92157L3.12892 9.92615L3.36257 9.83724ZM3.36956 9.64208L3.14268 9.53703L3.14123 9.54027L3.36956 9.64208ZM5.3893 15.1423C5.29167 15.1423 5.19329 15.1219 5.099 15.0801L4.89647 15.5372C5.05391 15.607 5.22122 15.6423 5.3893 15.6423V15.1423ZM5.64041 15.096C5.55945 15.1269 5.47548 15.1423 5.3893 15.1423V15.6423C5.53619 15.6423 5.68062 15.6159 5.81874 15.5631L5.64041 15.096ZM11.8361 12.7516L5.6411 15.0958L5.81806 15.5634L12.0131 13.2192L11.8361 12.7516ZM9.22508 6.59932L11.691 13.0744L12.1582 12.8964L9.69234 6.42137L9.22508 6.59932ZM3.34981 9.08838L9.54716 6.74418L9.37026 6.27651L3.17291 8.62072L3.34981 9.08838ZM2.95782 9.45692C3.03528 9.28534 3.17385 9.15545 3.3504 9.08816L3.17232 8.62095C2.87341 8.73487 2.63441 8.95812 2.5021 9.2512L2.95782 9.45692ZM2.9424 9.99172C2.87592 9.81839 2.88189 9.62897 2.95867 9.45502L2.50125 9.25311C2.37293 9.54382 2.36026 9.87016 2.47557 10.1708L2.9424 9.99172ZM4.73029 14.69L2.94264 9.99234L2.47533 10.1702L4.26298 14.8679L4.73029 14.69ZM5.10006 15.0806C4.92751 15.0032 4.79737 14.8649 4.73005 14.6894L4.26322 14.8685C4.37769 15.1669 4.60182 15.4051 4.89542 15.5368L5.10006 15.0806ZM8.96565 7.1779L3.42323 9.27584L3.60024 9.74346L9.14266 7.64552L8.96565 7.1779ZM11.255 12.4969L9.28784 7.32287L8.82047 7.50056L10.7876 12.6745L11.255 12.4969ZM5.56735 14.9174L11.1098 12.8195L10.9328 12.3519L5.39035 14.4498L5.56735 14.9174ZM5.18181 14.9052C5.30401 14.9594 5.43788 14.9636 5.5627 14.9192L5.39501 14.4481C5.39087 14.4496 5.38905 14.4495 5.3889 14.4495C5.38879 14.4495 5.38748 14.4495 5.38434 14.4481L5.18181 14.9052ZM4.91588 14.622C4.96326 14.7495 5.06061 14.8495 5.17859 14.9038L5.38756 14.4495C5.38657 14.4491 5.38542 14.4483 5.38457 14.4474C5.38376 14.4465 5.38405 14.4465 5.38457 14.4479L4.91588 14.622ZM3.12892 9.92615L4.91657 14.6239L5.38388 14.446L3.59623 9.74832L3.12892 9.92615ZM3.14123 9.54027C3.08672 9.66254 3.08246 9.79662 3.12722 9.92156L3.59792 9.75291C3.59718 9.75083 3.59689 9.74946 3.59678 9.74875C3.59667 9.74806 3.59668 9.74773 3.59668 9.74766C3.59668 9.74758 3.59669 9.74739 3.59679 9.74695C3.5969 9.74651 3.59717 9.7455 3.5979 9.74388L3.14123 9.54027ZM3.42515 9.27512C3.29771 9.32217 3.19734 9.41904 3.1427 9.53704L3.59643 9.74712C3.5968 9.74631 3.59753 9.74524 3.59845 9.74438C3.59933 9.74355 3.59948 9.74375 3.59832 9.74418L3.42515 9.27512Z" fill="#011E3B"/>
  <path fill-rule="evenodd" clip-rule="evenodd" d="M1.93207 14.3423C2.12085 14.8394 2.59632 15.1461 3.09975 15.1461C3.24659 15.1461 3.39575 15.1206 3.54025 15.0648L5.13213 14.4631L3.39342 9.90012L1.80621 10.4995C1.16293 10.7435 0.836635 11.4637 1.08136 12.1049L1.93207 14.3423ZM2.05006 11.1523L2.98234 10.7992L4.22228 14.0611L3.28999 14.4142C3.00565 14.5211 2.68867 14.377 2.58146 14.0959L1.73075 11.8586C1.62354 11.5751 1.76804 11.2592 2.05006 11.1523Z" fill="#011E3B"/>
  <path d="M1.93207 14.3423L2.16579 14.2535L2.16574 14.2534L1.93207 14.3423ZM3.54025 15.0648L3.45186 14.831L3.45026 14.8316L3.54025 15.0648ZM5.13213 14.4631L5.22052 14.6969L5.455 14.6083L5.36574 14.3741L5.13213 14.4631ZM3.39342 9.90012L3.62703 9.8111L3.53828 9.57818L3.3051 9.66624L3.39342 9.90012ZM1.80621 10.4995L1.71788 10.2656L1.71756 10.2658L1.80621 10.4995ZM1.08136 12.1049L1.31504 12.0161L1.31493 12.0158L1.08136 12.1049ZM2.98234 10.7992L3.21603 10.7103L3.1273 10.4769L2.89378 10.5654L2.98234 10.7992ZM2.05006 11.1523L1.9615 10.9185L1.96147 10.9185L2.05006 11.1523ZM4.22228 14.0611L4.31084 14.2949L4.5449 14.2062L4.45596 13.9722L4.22228 14.0611ZM3.28999 14.4142L3.37795 14.6482L3.37855 14.648L3.28999 14.4142ZM2.58146 14.0959L2.34778 14.1848L2.34787 14.185L2.58146 14.0959ZM1.73075 11.8586L1.49692 11.947L1.49707 11.9474L1.73075 11.8586ZM3.09975 14.8961C2.69623 14.8961 2.31634 14.65 2.16578 14.2535L1.69835 14.431C1.92537 15.0289 2.4964 15.3961 3.09975 15.3961V14.8961ZM3.45026 14.8316C3.33597 14.8757 3.21747 14.8961 3.09975 14.8961V15.3961C3.2757 15.3961 3.45553 15.3655 3.63025 15.298L3.45026 14.8316ZM5.04373 14.2292L3.45186 14.831L3.62865 15.2987L5.22052 14.6969L5.04373 14.2292ZM3.15981 9.98913L4.89851 14.5521L5.36574 14.3741L3.62703 9.8111L3.15981 9.98913ZM1.89453 10.7334L3.48174 10.134L3.3051 9.66624L1.71788 10.2656L1.89453 10.7334ZM1.31493 12.0158C1.11995 11.5049 1.37971 10.9286 1.89485 10.7333L1.71756 10.2658C0.946158 10.5583 0.55332 11.4225 0.847791 12.1941L1.31493 12.0158ZM2.16574 14.2534L1.31504 12.0161L0.847681 12.1938L1.69839 14.4311L2.16574 14.2534ZM2.89378 10.5654L1.9615 10.9185L2.13862 11.3861L3.0709 11.033L2.89378 10.5654ZM4.45596 13.9722L3.21603 10.7103L2.74866 10.888L3.98859 14.1499L4.45596 13.9722ZM3.37855 14.648L4.31084 14.2949L4.13372 13.8273L3.20144 14.1804L3.37855 14.648ZM2.34787 14.185C2.5041 14.5947 2.96477 14.8035 3.37795 14.6482L3.20204 14.1802C3.04653 14.2386 2.87324 14.1594 2.81505 14.0068L2.34787 14.185ZM1.49707 11.9474L2.34778 14.1848L2.81514 14.0071L1.96443 11.7697L1.49707 11.9474ZM1.96147 10.9185C1.55149 11.0739 1.34047 11.5334 1.49692 11.947L1.96458 11.7701C1.90661 11.6169 1.9846 11.4445 2.13865 11.3861L1.96147 10.9185Z" fill="#011E3B"/>
  <path fill-rule="evenodd" clip-rule="evenodd" d="M19.0279 14.4561C19.0605 14.4631 19.0931 14.4654 19.1258 14.4654C19.2936 14.4654 19.459 14.3911 19.5663 14.2586C19.6968 14.1007 19.7317 13.8846 19.6595 13.6918L14.779 0.869479C14.7067 0.676645 14.5343 0.539571 14.3315 0.507044C14.1264 0.474518 13.9213 0.555834 13.7931 0.716141L8.86133 6.89844L11.2223 13.0923L19.0279 14.4561ZM18.9298 13.731L11.7326 12.4741L9.65825 7.02366L14.2055 1.32229L18.9298 13.731Z" fill="#011E3B"/>
  <path d="M19.0279 14.4561L19.0801 14.2115L19.0709 14.2099L19.0279 14.4561ZM19.5663 14.2586L19.3735 14.0994L19.372 14.1013L19.5663 14.2586ZM19.6595 13.6918L19.8936 13.604L19.8931 13.6028L19.6595 13.6918ZM14.779 0.869479L14.5449 0.957196L14.5453 0.958411L14.779 0.869479ZM14.3315 0.507044L14.3711 0.2602L14.3707 0.26013L14.3315 0.507044ZM13.7931 0.716141L13.5979 0.56001L13.5977 0.560239L13.7931 0.716141ZM8.86133 6.89844L8.66589 6.74253L8.57689 6.85411L8.62772 6.98748L8.86133 6.89844ZM11.2223 13.0923L10.9887 13.1814L11.0393 13.3142L11.1793 13.3386L11.2223 13.0923ZM11.7326 12.4741L11.4989 12.563L11.5495 12.6959L11.6896 12.7204L11.7326 12.4741ZM18.9298 13.731L18.8868 13.9773L19.3199 14.0529L19.1634 13.6421L18.9298 13.731ZM9.65825 7.02366L9.4628 6.86778L9.37387 6.97928L9.4246 7.11258L9.65825 7.02366ZM14.2055 1.32229L14.4391 1.23334L14.2832 0.82387L14.01 1.16641L14.2055 1.32229ZM19.1258 14.2154C19.1047 14.2154 19.0906 14.2139 19.0801 14.2116L18.9756 14.7006C19.0304 14.7123 19.0815 14.7154 19.1258 14.7154V14.2154ZM19.372 14.1013C19.3147 14.1721 19.2222 14.2154 19.1258 14.2154V14.7154C19.365 14.7154 19.6034 14.6101 19.7606 14.416L19.372 14.1013ZM19.4254 13.7795C19.4667 13.8899 19.4461 14.0115 19.3735 14.0994L19.759 14.4179C19.9474 14.1898 19.9967 13.8793 19.8936 13.604L19.4254 13.7795ZM14.5453 0.958411L19.4258 13.7807L19.8931 13.6028L15.0126 0.780547L14.5453 0.958411ZM14.2919 0.753889C14.4088 0.772642 14.5052 0.851186 14.5449 0.957195L15.0131 0.781763C14.9083 0.502105 14.6597 0.306499 14.3711 0.2602L14.2919 0.753889ZM13.9884 0.872272C14.0611 0.781295 14.1771 0.735685 14.2923 0.753959L14.3707 0.26013C14.0757 0.213352 13.7815 0.330373 13.5979 0.56001L13.9884 0.872272ZM9.05676 7.05434L13.9885 0.872044L13.5977 0.560239L8.66589 6.74253L9.05676 7.05434ZM11.4559 13.0033L9.09493 6.80939L8.62772 6.98748L10.9887 13.1814L11.4559 13.0033ZM19.0709 14.2099L11.2654 12.8461L11.1793 13.3386L18.9848 14.7024L19.0709 14.2099ZM11.6896 12.7204L18.8868 13.9773L18.9728 13.4847L11.7756 12.2278L11.6896 12.7204ZM9.4246 7.11258L11.4989 12.563L11.9662 12.3852L9.8919 6.93474L9.4246 7.11258ZM14.01 1.16641L9.4628 6.86778L9.8537 7.17954L14.4009 1.47817L14.01 1.16641ZM19.1634 13.6421L14.4391 1.23334L13.9718 1.41124L18.6962 13.82L19.1634 13.6421Z" fill="#011E3B"/>
  <path fill-rule="evenodd" clip-rule="evenodd" d="M8.1712 19.2421C8.25277 19.4048 8.41825 19.5 8.59073 19.5C8.64666 19.5 8.70493 19.4907 8.75854 19.4721L10.6254 18.7659C10.7536 18.7171 10.8515 18.6172 10.9005 18.4917C10.9494 18.3663 10.9401 18.2245 10.8771 18.106L9.76074 15.9849L9.99847 15.6573C10.2852 15.2623 10.3527 14.7559 10.1803 14.3005L9.71413 13.0784L5.78223 14.5653L8.1712 19.2421ZM8.70124 18.7448L6.75977 14.9392L9.30956 13.9774L9.52631 14.5466C9.61721 14.7812 9.58225 15.0437 9.43309 15.2459L8.93898 15.9243L10.1393 18.2011L8.70124 18.7448Z" fill="#011E3B"/>
  <path d="M8.1712 19.2421L8.39467 19.13L8.39384 19.1284L8.1712 19.2421ZM8.75854 19.4721L8.84047 19.7084L8.847 19.706L8.75854 19.4721ZM10.6254 18.7659L10.7139 18.9997L10.7144 18.9995L10.6254 18.7659ZM10.8771 18.106L10.6559 18.2225L10.6564 18.2233L10.8771 18.106ZM9.76074 15.9849L9.55841 15.838L9.46714 15.9638L9.53951 16.1013L9.76074 15.9849ZM9.99847 15.6573L9.79615 15.5104L9.79614 15.5105L9.99847 15.6573ZM10.1803 14.3005L10.4141 14.2119L10.4139 14.2114L10.1803 14.3005ZM9.71413 13.0784L9.94771 12.9893L9.85887 12.7564L9.6257 12.8446L9.71413 13.0784ZM5.78223 14.5653L5.6938 14.3315L5.43252 14.4303L5.55959 14.6791L5.78223 14.5653ZM6.75977 14.9392L6.67153 14.7053L6.41009 14.8039L6.53707 15.0528L6.75977 14.9392ZM8.70124 18.7448L8.47855 18.8584L8.58027 19.0578L8.78965 18.9786L8.70124 18.7448ZM9.30956 13.9774L9.54319 13.8884L9.4545 13.6555L9.22132 13.7434L9.30956 13.9774ZM9.52631 14.5466L9.29268 14.6355L9.29319 14.6369L9.52631 14.5466ZM9.43309 15.2459L9.23193 15.0974L9.231 15.0987L9.43309 15.2459ZM8.93898 15.9243L8.73689 15.7771L8.64516 15.903L8.71783 16.0409L8.93898 15.9243ZM10.1393 18.2011L10.2277 18.435L10.4924 18.3349L10.3604 18.0845L10.1393 18.2011ZM8.59073 19.25C8.50895 19.25 8.43212 19.2047 8.39466 19.1301L7.94774 19.3542C8.07343 19.6048 8.32756 19.75 8.59073 19.75V19.25ZM8.67664 19.2359C8.65061 19.245 8.62013 19.25 8.59073 19.25V19.75C8.6732 19.75 8.75925 19.7365 8.84044 19.7084L8.67664 19.2359ZM10.537 18.532L8.67008 19.2383L8.847 19.706L10.7139 18.9997L10.537 18.532ZM10.6676 18.4009C10.6435 18.4625 10.5968 18.5093 10.5365 18.5322L10.7144 18.9995C10.9105 18.9249 11.0595 18.7719 11.1334 18.5826L10.6676 18.4009ZM10.6564 18.2233C10.6858 18.2787 10.6895 18.3445 10.6676 18.4009L11.1334 18.5826C11.2093 18.388 11.1944 18.1704 11.0979 17.9888L10.6564 18.2233ZM9.53951 16.1013L10.6559 18.2225L11.0984 17.9896L9.98197 15.8684L9.53951 16.1013ZM9.79614 15.5105L9.55841 15.838L9.96308 16.1317L10.2008 15.8041L9.79614 15.5105ZM9.94648 14.389C10.0891 14.7656 10.0334 15.1836 9.79615 15.5104L10.2008 15.8041C10.5369 15.3411 10.6164 14.7461 10.4141 14.2119L9.94648 14.389ZM9.48054 13.1675L9.94668 14.3896L10.4139 14.2114L9.94771 12.9893L9.48054 13.1675ZM5.87066 14.7992L9.80256 13.3123L9.6257 12.8446L5.6938 14.3315L5.87066 14.7992ZM8.39384 19.1284L6.00486 14.4516L5.55959 14.6791L7.94856 19.3559L8.39384 19.1284ZM6.53707 15.0528L8.47855 18.8584L8.92394 18.6312L6.98246 14.8256L6.53707 15.0528ZM9.22132 13.7434L6.67153 14.7053L6.848 15.1731L9.39779 14.2113L9.22132 13.7434ZM9.75995 14.4576L9.54319 13.8884L9.07592 14.0663L9.29268 14.6355L9.75995 14.4576ZM9.63424 15.3943C9.83436 15.1231 9.88116 14.7705 9.75943 14.4563L9.29319 14.6369C9.35326 14.7919 9.33014 14.9644 9.23193 15.0974L9.63424 15.3943ZM9.14106 16.0715L9.63517 15.3931L9.231 15.0987L8.73689 15.7771L9.14106 16.0715ZM10.3604 18.0845L9.16013 15.8077L8.71783 16.0409L9.91814 18.3177L10.3604 18.0845ZM8.78965 18.9786L10.2277 18.435L10.0509 17.9673L8.61284 18.5109L8.78965 18.9786Z" fill="#011E3B"/>
  <path d="M21.2521 5.38095L21.5002 6.03257L19.4323 6.81483L19.1842 6.16322L21.2521 5.38095Z" fill="#011E3B" stroke="#011E3B" stroke-width="0.5"/>
  <path d="M18.6404 1.6442L19.1451 2.12658L17.6127 3.71969L17.108 3.2373L18.6404 1.6442Z" fill="#011E3B" stroke="#011E3B" stroke-width="0.5"/>
  <path d="M19.8829 9.6839L22.0875 9.86223L22.0309 10.5569L19.8264 10.3786L19.8829 9.6839Z" fill="#011E3B" stroke="#011E3B" stroke-width="0.5"/>
  <path d="M8.28486 8.87896L8.53294 9.53058L5.10977 10.8256L4.86169 10.1739L8.28486 8.87896Z" fill="#011E3B" stroke="#011E3B" stroke-width="0.5"/>
</svg>