<svg width="24" height="24" viewBox="0 0 24 24" fill="none" xmlns="http://www.w3.org/2000/svg">
<path d="M8.6426 8.65634C8.24495 8.65634 7.9226 8.9787 7.9226 9.37634C7.9226 9.77398 8.24495 10.0963 8.6426 10.0963V8.65634ZM15.3626 10.0963C15.7602 10.0963 16.0826 9.77398 16.0826 9.37634C16.0826 8.9787 15.7602 8.65634 15.3626 8.65634V10.0963ZM9.4826 11.113C9.08495 11.113 8.7626 11.4353 8.7626 11.833C8.7626 12.2306 9.08495 12.553 9.4826 12.553V11.113ZM14.5226 12.553C14.9202 12.553 15.2426 12.2306 15.2426 11.833C15.2426 11.4353 14.9202 11.113 14.5226 11.113V12.553ZM8.79908 5.28002V4.56L8.79383 4.56004L8.79908 5.28002ZM15.2071 5.28002L15.2125 4.56002H15.2071V5.28002ZM18.7226 8.84834L18.0026 8.84305V8.84834H18.7226ZM18.7226 13.1808H18.0026V13.1861L18.7226 13.1808ZM15.2061 16.7491V17.4691H15.2114L15.2061 16.7491ZM8.79908 16.7491V16.0291C8.6758 16.0291 8.55459 16.0608 8.44705 16.1211L8.79908 16.7491ZM5.2826 18.72H4.5626C4.5626 18.9756 4.6981 19.212 4.91863 19.3412C5.13915 19.4704 5.41166 19.473 5.63462 19.348L5.2826 18.72ZM5.2826 8.84834H6.00262L6.00258 8.84305L5.2826 8.84834ZM8.6426 10.0963H15.3626V8.65634H8.6426V10.0963ZM9.4826 12.553H14.5226V11.113H9.4826V12.553ZM8.79908 6.00002H15.2071V4.56002L8.79908 4.56V6.00002ZM15.2016 6C16.7602 6.01178 18.014 7.28455 18.0026 8.84305L19.4426 8.85363C19.4599 6.49999 17.5662 4.57782 15.2125 4.56002L15.2016 6ZM18.0026 8.84834V13.1808H19.4426V8.84834H18.0026ZM18.0026 13.1861C18.0081 13.9347 17.716 14.6547 17.1905 15.1879L18.2162 16.1987C19.0097 15.3934 19.4509 14.306 19.4426 13.1755L18.0026 13.1861ZM17.1905 15.1879C16.6651 15.7211 15.9494 16.0237 15.2008 16.0291L15.2114 17.4691C16.3418 17.4609 17.4228 17.0039 18.2162 16.1987L17.1905 15.1879ZM15.2061 16.0291H8.79908V17.4691H15.2061V16.0291ZM8.44705 16.1211L4.93057 18.092L5.63462 19.348L9.1511 17.3772L8.44705 16.1211ZM6.0026 18.72L6.00262 8.84834H4.5626V18.72H6.0026ZM6.00258 8.84305C5.99708 8.0945 6.28918 7.37442 6.81461 6.84124L5.78896 5.83048C4.99544 6.63569 4.55431 7.72316 4.56262 8.85363L6.00258 8.84305ZM6.81461 6.84124C7.34005 6.30806 8.05577 6.00545 8.80433 6L8.79383 4.56004C7.66336 4.56827 6.58246 5.02527 5.78896 5.83048L6.81461 6.84124Z" fill="#220047"/>
</svg>
