<svg width="32" height="32" viewBox="0 0 32 32" fill="none" xmlns="http://www.w3.org/2000/svg">
<path d="M28.8 28.152C28.672 28.32 28.512 28.368 28.304 28.368C20.104 28.368 11.904 28.368 3.70395 28.368C3.28795 28.368 3.19995 28.272 3.19995 27.848C3.19995 27.392 3.19995 26.928 3.19995 26.472C3.19995 26.088 3.30395 25.992 3.68795 25.992C4.23195 25.992 4.76795 25.976 5.31195 25.992C5.55995 25.992 5.63995 25.944 5.63195 25.68C5.61595 24.728 5.63195 23.784 5.63195 22.832C5.63195 22.432 5.71995 22.344 6.11995 22.344C7.15195 22.344 8.18395 22.344 9.21595 22.344C9.59995 22.344 9.69595 22.448 9.69595 22.84C9.69595 23.792 9.69595 24.736 9.69595 25.688V25.984C10.16 25.984 10.608 25.984 11.056 25.984C11.096 25.984 11.152 25.912 11.168 25.864C11.192 25.808 11.168 25.736 11.168 25.664C11.168 23.776 11.168 21.88 11.168 19.992C11.168 19.536 11.248 19.456 11.704 19.456C12.72 19.456 13.736 19.456 14.752 19.456C15.12 19.456 15.232 19.568 15.232 19.928C15.232 20.736 15.232 21.544 15.232 22.352C15.232 22.544 15.176 22.704 14.976 22.76C14.728 22.832 14.536 22.656 14.536 22.368C14.536 21.736 14.536 21.104 14.536 20.472C14.536 20.384 14.536 20.288 14.536 20.176H11.888V25.976H14.536C14.536 25.296 14.536 24.632 14.536 23.968C14.536 23.888 14.536 23.8 14.536 23.72C14.552 23.512 14.696 23.368 14.888 23.368C15.08 23.368 15.232 23.512 15.232 23.72C15.24 24.192 15.232 24.672 15.232 25.144C15.232 25.416 15.232 25.688 15.232 25.976H16.728V25.68C16.728 22.656 16.728 19.632 16.728 16.608C16.728 16.16 16.816 16.072 17.272 16.072C18.272 16.072 19.272 16.072 20.272 16.072C20.704 16.072 20.792 16.168 20.792 16.6C20.792 19.616 20.792 22.632 20.792 25.648V25.968H22.288V25.672C22.288 23.424 22.288 21.176 22.288 18.92C22.288 18.848 22.288 18.768 22.288 18.696C22.312 18.496 22.432 18.368 22.632 18.368C22.832 18.368 22.952 18.488 22.984 18.688C22.992 18.76 22.984 18.84 22.984 18.912C22.984 21.16 22.984 23.408 22.984 25.664V25.976H25.632V11.424H22.984V11.712C22.984 13.552 22.984 15.392 22.984 17.24C22.984 17.32 22.992 17.408 22.976 17.488C22.936 17.672 22.816 17.776 22.616 17.768C22.432 17.768 22.328 17.656 22.288 17.48C22.272 17.408 22.288 17.328 22.288 17.256C22.288 15.248 22.288 13.24 22.288 11.232C22.288 10.808 22.384 10.712 22.824 10.712C23.8 10.712 24.776 10.712 25.752 10.712C26.296 10.712 26.36 10.776 26.36 11.312C26.36 16.088 26.36 20.864 26.36 25.632C26.36 26.032 26.32 25.984 26.728 25.992C27.256 25.992 27.776 25.992 28.304 25.992C28.512 25.992 28.68 26.04 28.8 26.208V28.16V28.152ZM3.91195 27.648H28.08V26.688C27.944 26.688 27.832 26.688 27.712 26.688C21.344 26.688 14.984 26.688 8.61595 26.688C8.53595 26.688 8.44795 26.688 8.36795 26.688C8.10395 26.68 7.94395 26.536 7.95195 26.32C7.95995 26.112 8.11195 25.992 8.36795 25.984C8.57595 25.984 8.77595 25.984 8.97595 25.984V23.056H6.34395V25.992C6.59195 25.992 6.82395 25.984 7.05595 25.992C7.23995 26 7.34395 26.12 7.35995 26.296C7.37595 26.48 7.29595 26.608 7.11995 26.656C7.03195 26.68 6.93595 26.68 6.84795 26.68C6.08795 26.68 5.32795 26.68 4.57595 26.68C4.35995 26.68 4.14395 26.68 3.91995 26.68V27.64L3.91195 27.648ZM20.096 25.976V16.776H17.464V25.976H20.096Z" fill="#220047"/>
<path d="M25.592 4.888C24.52 5.968 23.448 7.056 22.368 8.136C21.384 9.12 20.4 10.104 19.416 11.08C19.288 11.208 19.24 11.32 19.272 11.512C19.352 12.008 19.168 12.416 18.768 12.712C18.352 13.008 17.904 13.04 17.448 12.808C17 12.568 16.688 12.152 16.792 11.672C16.912 11.112 16.552 10.928 16.28 10.64C15.496 11.184 15.112 11.192 14.4 10.688C14.344 10.736 14.28 10.792 14.224 10.848C12.2 12.872 10.184 14.888 8.16003 16.904C8.03203 17.032 8.00003 17.128 8.07203 17.304C8.28803 17.856 8.07203 18.472 7.56803 18.792C7.07203 19.112 6.42403 19.048 6.00803 18.632C5.60003 18.232 5.51203 17.584 5.80803 17.088C6.10403 16.584 6.71203 16.344 7.27203 16.536C7.43203 16.592 7.52003 16.56 7.63203 16.448C9.72003 14.352 11.816 12.264 13.904 10.168C13.984 10.088 14.04 9.944 14.048 9.832C14.056 9.104 14.584 8.544 15.288 8.528C15.984 8.512 16.536 9.04 16.576 9.752C16.576 9.856 16.632 9.968 16.704 10.048C16.888 10.264 17.088 10.464 17.28 10.664C17.824 10.336 18.328 10.36 18.808 10.68C20.912 8.568 23.008 6.464 25.12 4.344C25.04 4.344 24.968 4.328 24.888 4.328C24.192 4.328 23.488 4.328 22.792 4.328C22.736 4.328 22.672 4.328 22.616 4.328C22.384 4.312 22.24 4.176 22.248 3.976C22.248 3.768 22.384 3.64 22.624 3.632C23.072 3.632 23.52 3.632 23.976 3.632C24.632 3.632 25.296 3.632 25.952 3.632C26.264 3.632 26.376 3.744 26.376 4.056C26.376 5.144 26.376 6.24 26.376 7.328C26.376 7.608 26.248 7.752 26.024 7.752C25.8 7.752 25.68 7.608 25.68 7.328C25.68 6.608 25.68 5.896 25.68 5.176C25.68 5.088 25.68 5 25.68 4.912L25.6 4.888H25.592ZM18.016 12.248C18.328 12.248 18.576 12.008 18.584 11.704C18.592 11.392 18.336 11.136 18.016 11.136C17.712 11.136 17.464 11.384 17.464 11.696C17.464 12 17.712 12.256 18.024 12.256L18.016 12.248ZM7.44803 17.736C7.44803 17.424 7.20003 17.16 6.88003 17.168C6.57603 17.168 6.33603 17.416 6.32803 17.728C6.32803 18.04 6.56003 18.288 6.86403 18.296C7.17603 18.304 7.44003 18.056 7.44003 17.736H7.44803ZM15.32 10.344C15.632 10.344 15.88 10.08 15.872 9.76C15.864 9.448 15.616 9.216 15.304 9.224C15 9.224 14.752 9.472 14.752 9.776C14.752 10.096 15.008 10.344 15.32 10.344Z" fill="#220047"/>
</svg>
