<svg width="135" height="135" viewBox="0 0 135 135" fill="none" xmlns="http://www.w3.org/2000/svg">
<g opacity="0.5">
<path d="M67.0834 134.167C53.8155 134.167 40.8457 130.232 29.8139 122.861C18.7821 115.49 10.1838 105.013 5.10645 92.755C0.0290665 80.4972 -1.29941 67.0089 1.28902 53.9961C3.87744 40.9832 10.2665 29.0301 19.6483 19.6483C29.0301 10.2665 40.9832 3.87744 53.9961 1.28902C67.0089 -1.29941 80.4972 0.0290665 92.755 5.10645C105.013 10.1838 115.49 18.7821 122.861 29.8139C130.232 40.8457 134.167 53.8155 134.167 67.0834C134.146 84.8686 127.072 101.92 114.496 114.496C101.92 127.072 84.8686 134.146 67.0834 134.167ZM67.0834 5.83336C54.9693 5.83336 43.1272 9.42561 33.0547 16.1559C22.9822 22.8861 15.1316 32.452 10.4957 43.644C5.85987 54.836 4.64692 67.1513 7.01027 79.0326C9.37361 90.914 15.2071 101.828 23.7731 110.394C32.339 118.96 43.2527 124.793 55.1341 127.156C67.0154 129.52 79.3307 128.307 90.5227 123.671C101.715 119.035 111.281 111.185 118.011 101.112C124.741 91.0395 128.333 79.1975 128.333 67.0834C128.316 50.8443 121.857 35.2754 110.374 23.7927C98.8913 12.3099 83.3224 5.85112 67.0834 5.83336Z" fill="#888888"/>
<path d="M102.083 64.1667C101.31 64.1667 100.568 64.474 100.021 65.021C99.474 65.568 99.1667 66.3099 99.1667 67.0834V90.4167C99.1611 92.2204 98.5974 93.9781 97.5529 95.4485C96.5085 96.919 95.0346 98.0301 93.3334 98.6295V90.4167C93.3229 86.764 91.939 83.2488 89.4564 80.5693C86.9739 77.8897 83.5744 76.2419 79.9331 75.953C82.2431 73.4544 83.7746 70.3366 84.3401 66.9812C84.9056 63.6257 84.4805 60.1781 83.117 57.0605C81.7535 53.9428 79.5106 51.2903 76.6629 49.4277C73.8152 47.565 70.4862 46.5729 67.0834 46.5729C63.6806 46.5729 60.3517 47.565 57.504 49.4277C54.6563 51.2903 52.4134 53.9428 51.0498 57.0605C49.6863 60.1781 49.2613 63.6257 49.8268 66.9812C50.3922 70.3366 51.9237 73.4544 54.2337 75.953C50.5924 76.2419 47.1929 77.8897 44.7104 80.5693C42.2279 83.2488 40.8439 86.764 40.8334 90.4167V98.6295C39.1323 98.0301 37.6583 96.919 36.6139 95.4485C35.5695 93.9781 35.0057 92.2204 35.0001 90.4167V43.7501C35.0027 41.4302 35.9254 39.2062 37.5658 37.5658C39.2062 35.9254 41.4302 35.0027 43.7501 35.0001H67.0834C67.857 35.0001 68.5988 34.6928 69.1458 34.1458C69.6928 33.5988 70.0001 32.857 70.0001 32.0834C70.0001 31.3099 69.6928 30.568 69.1458 30.021C68.5988 29.474 67.857 29.1667 67.0834 29.1667H43.7501C39.8834 29.1703 36.1762 30.7079 33.442 33.442C30.7079 36.1762 29.1703 39.8834 29.1667 43.7501V90.4167C29.1703 94.2834 30.7079 97.9907 33.442 100.725C36.1762 103.459 39.8834 104.997 43.7501 105H90.4167C94.2834 104.997 97.9907 103.459 100.725 100.725C103.459 97.9907 104.997 94.2834 105 90.4167V67.0834C105 66.3099 104.693 65.568 104.146 65.021C103.599 64.474 102.857 64.1667 102.083 64.1667ZM67.0834 52.5001C69.3909 52.5001 71.6465 53.1843 73.5651 54.4663C75.4836 55.7482 76.979 57.5703 77.862 59.7021C78.745 61.8339 78.9761 64.1797 78.5259 66.4428C78.0758 68.7059 76.9646 70.7847 75.333 72.4163C73.7014 74.0479 71.6226 75.1591 69.3595 75.6092C67.0964 76.0594 64.7506 75.8284 62.6188 74.9453C60.487 74.0623 58.6649 72.567 57.3829 70.6484C56.101 68.7298 55.4167 66.4742 55.4167 64.1667C55.4209 61.0738 56.6514 58.1088 58.8384 55.9218C61.0255 53.7348 63.9905 52.5042 67.0834 52.5001ZM55.4167 81.6667H78.7501C81.0699 81.6694 83.294 82.5921 84.9344 84.2325C86.5747 85.8728 87.4975 88.0969 87.5001 90.4167V99.1667H46.6667V90.4167C46.6694 88.0969 47.5921 85.8728 49.2325 84.2325C50.8728 82.5921 53.0969 81.6694 55.4167 81.6667Z" fill="#888888"/>
<path d="M91.8751 29.1667C89.2792 29.1667 86.7416 29.9365 84.5832 31.3787C82.4248 32.8209 80.7426 34.8707 79.7492 37.269C78.7557 39.6673 78.4958 42.3063 79.0023 44.8523C79.5087 47.3983 80.7587 49.737 82.5943 51.5725C84.4299 53.4081 86.7685 54.6581 89.3145 55.1646C91.8605 55.671 94.4995 55.4111 96.8978 54.4177C99.2961 53.4243 101.346 51.742 102.788 49.5836C104.23 47.4252 105 44.8876 105 42.2917C104.995 38.8123 103.611 35.4766 101.151 33.0163C98.6902 30.5559 95.3546 29.1715 91.8751 29.1667ZM91.8751 35.0001C92.779 35.011 93.6728 35.1916 94.51 35.5327L85.1183 44.9243C84.7764 44.0881 84.595 43.1951 84.5834 42.2917C84.5851 40.3584 85.3539 38.5047 86.721 37.1376C88.088 35.7706 89.9417 35.0018 91.8751 35.0001ZM91.8751 49.5834C90.9713 49.5726 90.0776 49.3918 89.2407 49.0502L98.6324 39.6586C98.9738 40.4951 99.1551 41.3883 99.1667 42.2917C99.165 44.2251 98.3963 46.0788 97.0292 47.4459C95.6621 48.8129 93.8084 49.5817 91.8751 49.5834Z" fill="#888888"/>
</g>
</svg>
