<svg width="32" height="32" viewBox="0 0 32 32" fill="none" xmlns="http://www.w3.org/2000/svg">
<path d="M23.8256 14.5993C23.7817 14.5233 23.7186 14.4602 23.6426 14.4163L17.4189 10.8231C17.6092 9.60169 17.9853 8.95844 18.3513 8.33275C18.7738 7.61081 19.1728 6.92894 19.1728 5.60481C19.1727 2.79 16.8828 0.5 14.068 0.5C11.2533 0.5 8.96328 2.79 8.96328 5.60475C8.96328 6.92894 9.36228 7.61081 9.78472 8.33269C10.1508 8.95837 10.5269 9.60162 10.7172 10.823L4.49347 14.4163C4.41747 14.4601 4.35429 14.5232 4.31047 14.5992L2.73691 17.3247C2.59885 17.5638 2.68085 17.8696 2.91997 18.0077L4.24347 18.7719V25.6164C4.24347 25.7951 4.33872 25.9601 4.49347 26.0494L13.818 31.433C13.8953 31.4777 13.9817 31.5 14.068 31.5C14.1543 31.5 14.2407 31.4777 14.318 31.433L23.6426 26.0494C23.7973 25.9601 23.8926 25.7951 23.8926 25.6164V18.7719L25.2162 18.0077C25.331 17.9414 25.4148 17.8322 25.4492 17.7042C25.4835 17.5761 25.4655 17.4397 25.3992 17.3248L23.8256 14.5993ZM14.068 19.6556L5.74341 14.8493L10.8185 11.9191V12.5273C10.8185 13.0378 11.1269 13.477 11.5668 13.6702V14.0238C11.5668 14.5417 11.884 14.9868 12.3342 15.1755V15.5204C12.3342 16.2087 12.8942 16.7687 13.5825 16.7687H14.5536C15.2419 16.7687 15.8018 16.2087 15.8018 15.5204V15.1755C16.2521 14.9868 16.5692 14.5417 16.5692 14.0238V13.6702C17.0091 13.477 17.3174 13.0377 17.3175 12.5273V11.9192L22.3927 14.8494L14.068 19.6556ZM12.7728 6.20862H12.2028C11.8885 6.20862 11.6328 5.95294 11.6328 5.63863C11.6328 5.32431 11.8885 5.06856 12.2028 5.06856C12.5172 5.06856 12.7728 5.32431 12.7728 5.63863V6.20862ZM14.3632 11.2789H13.7728V7.20862H14.3632V11.2789ZM16.3175 12.2789V12.5273C16.3175 12.6618 16.2038 12.7756 16.0693 12.7756H12.0668C11.9322 12.7756 11.8185 12.6619 11.8185 12.5273V12.2789H16.3175ZM13.3342 15.2721H14.8018V15.5204C14.8018 15.655 14.6882 15.7688 14.5535 15.7688H13.5825C13.4479 15.7688 13.3342 15.6551 13.3342 15.5204V15.2721ZM15.5692 14.0238C15.5692 14.1584 15.4556 14.2721 15.321 14.2721H12.8151C12.6805 14.2721 12.5668 14.1584 12.5668 14.0238V13.7755H15.5692V14.0238H15.5692ZM9.96328 5.60475C9.96328 3.34138 11.8047 1.5 14.068 1.5C16.3314 1.5 18.1728 3.34138 18.1728 5.60475C18.1728 6.65788 17.8707 7.17406 17.4883 7.82769C17.0587 8.56194 16.5319 9.46206 16.355 11.2789H15.3633V7.20862H15.9333C16.799 7.20862 17.5033 6.50431 17.5033 5.63863C17.5033 4.77294 16.799 4.06856 15.9333 4.06856C15.0676 4.06856 14.3633 4.77294 14.3633 5.63863V6.20862H13.7729V5.63863C13.7729 4.77288 13.0686 4.06856 12.2029 4.06856C11.3372 4.06856 10.6328 4.77294 10.6328 5.63863C10.6328 6.50431 11.3372 7.20862 12.2029 7.20862H12.7729V11.2789H11.7812C11.6043 9.46213 11.0775 8.56194 10.6478 7.82769C10.2653 7.17406 9.96328 6.65781 9.96328 5.60475ZM15.3632 6.20862V5.63863C15.3632 5.32431 15.6189 5.06856 15.9332 5.06856C16.2475 5.06856 16.5033 5.32431 16.5033 5.63863C16.5033 5.95294 16.2475 6.20862 15.9332 6.20862H15.3632ZM3.85291 17.3918L4.92647 15.5323L13.385 20.4159L12.3115 22.2754L3.85291 17.3918ZM5.24341 19.3493L12.2445 23.3913C12.3593 23.4577 12.4959 23.4756 12.6239 23.4413C12.752 23.407 12.8612 23.3232 12.9275 23.2083L13.568 22.0989V30.134L5.24341 25.3277V19.3493ZM22.8926 25.3277L14.568 30.134V22.0989L15.2086 23.2083C15.3466 23.4474 15.6523 23.5295 15.8916 23.3913L22.8927 19.3493L22.8926 25.3277ZM15.8245 22.2753L14.751 20.4159L23.2095 15.5323L24.2831 17.3918L15.8245 22.2753ZM8.4856 9.6125C8.62366 9.85163 8.54166 10.1574 8.30254 10.2956L7.36322 10.8379C7.28447 10.8833 7.19847 10.9049 7.11372 10.9049C6.94085 10.9049 6.77285 10.8152 6.68016 10.6548C6.5421 10.4157 6.6241 10.1099 6.86322 9.97175L7.80254 9.42944C8.04191 9.29144 8.34747 9.37344 8.4856 9.6125ZM21.014 5.88944H22.0987C22.3748 5.88944 22.5987 6.11331 22.5987 6.38944C22.5987 6.66556 22.3748 6.88944 22.0987 6.88944H21.014C20.7379 6.88944 20.514 6.66556 20.514 6.38944C20.514 6.11331 20.7379 5.88944 21.014 5.88944ZM19.6504 9.6125C19.7885 9.37338 20.0943 9.2915 20.3335 9.42944L21.2728 9.97175C21.5119 10.1099 21.5939 10.4157 21.4558 10.6548C21.3632 10.8152 21.1951 10.9049 21.0223 10.9049C20.9375 10.9049 20.8515 10.8833 20.7728 10.8379L19.8335 10.2956C19.5943 10.1574 19.5123 9.85163 19.6504 9.6125ZM6.68029 2.12406C6.81829 1.88488 7.12416 1.80294 7.36329 1.94106L8.3026 2.48344C8.54172 2.6215 8.62372 2.92731 8.4856 3.16644C8.39304 3.32681 8.22491 3.4165 8.0521 3.4165C7.96728 3.4165 7.88135 3.39487 7.8026 3.34944L6.86329 2.80706C6.62416 2.669 6.54222 2.36325 6.68029 2.12406ZM5.53735 6.38944C5.53735 6.11331 5.76122 5.88944 6.03735 5.88944H7.12197C7.3981 5.88944 7.62197 6.11331 7.62197 6.38944C7.62197 6.66556 7.3981 6.88944 7.12197 6.88944H6.03735C5.76122 6.88944 5.53735 6.66556 5.53735 6.38944ZM19.6504 3.16644C19.5123 2.92731 19.5943 2.6215 19.8335 2.48338L20.7728 1.94106C21.0121 1.80306 21.3177 1.88506 21.4558 2.12413C21.5939 2.36325 21.5119 2.66906 21.2728 2.80719L20.3335 3.3495C20.2547 3.39494 20.1687 3.4165 20.084 3.4165C19.9111 3.4165 19.743 3.32681 19.6504 3.16644ZM27.7907 12.8526H27.3748C26.526 12.8526 25.8355 13.5432 25.8355 14.392L25.8354 24.9528C25.8354 25.0406 25.8585 25.1268 25.9024 25.2028L27.1498 27.3633C27.2391 27.518 27.4041 27.6133 27.5828 27.6133C27.7615 27.6133 27.9265 27.518 28.0158 27.3633L29.2631 25.2028C29.307 25.1268 29.3301 25.0406 29.3301 24.9528V14.3919C29.3301 13.5431 28.6395 12.8526 27.7907 12.8526ZM27.3748 13.8526H27.7907C28.0881 13.8526 28.3301 14.0946 28.3301 14.392V15.1054H26.8355V14.392C26.8355 14.0946 27.0774 13.8526 27.3748 13.8526ZM26.8354 24.4527V16.1054H28.33V24.4527H26.8354ZM27.5828 26.1133L27.2015 25.4528H27.9641L27.5828 26.1133Z" fill="#220047"/>
</svg>
