<svg width="17" height="18" viewBox="0 0 17 18" fill="none" xmlns="http://www.w3.org/2000/svg">
<g opacity="0.8">
<path d="M3.03945 1.4342C2.60539 1.4342 2.1891 1.61048 1.88218 1.92428C1.57525 2.23807 1.40282 2.66366 1.40282 3.10743V8.60519H5.84509C6.18283 8.60519 6.51726 8.6732 6.82929 8.80534C7.14132 8.93748 7.42484 9.13115 7.66365 9.37531C7.90247 9.61947 8.09191 9.90933 8.22116 10.2283C8.35041 10.5473 8.41693 10.8893 8.41693 11.2346V15.7762H13.7944C14.2285 15.7762 14.6448 15.5999 14.9517 15.2861C15.2586 14.9723 15.431 14.5467 15.431 14.103V10.2784C15.431 10.0882 15.5049 9.90584 15.6365 9.77136C15.768 9.63687 15.9464 9.56132 16.1324 9.56132C16.3185 9.56132 16.4969 9.63687 16.6284 9.77136C16.76 9.90584 16.8339 10.0882 16.8339 10.2784V14.103C16.8339 14.9271 16.5136 15.7175 15.9436 16.3002C15.3736 16.883 14.6005 17.2104 13.7944 17.2104H3.03945C2.23334 17.2104 1.46024 16.883 0.890233 16.3002C0.320226 15.7175 0 14.9271 0 14.103V3.10743C0 2.28329 0.320226 1.4929 0.890233 0.910145C1.46024 0.327389 2.23334 0 3.03945 0H6.7803C6.96633 0 7.14474 0.0755512 7.27628 0.210033C7.40782 0.344516 7.48171 0.526913 7.48171 0.717099C7.48171 0.907286 7.40782 1.08968 7.27628 1.22416C7.14474 1.35865 6.96633 1.4342 6.7803 1.4342H3.03945ZM9.35214 0.717099C9.35214 0.526913 9.42604 0.344516 9.55758 0.210033C9.68912 0.0755512 9.86753 0 10.0536 0H16.1324C16.3185 0 16.4969 0.0755512 16.6284 0.210033C16.76 0.344516 16.8339 0.526913 16.8339 0.717099V6.93196C16.8339 7.12215 16.76 7.30454 16.6284 7.43902C16.4969 7.57351 16.3185 7.64906 16.1324 7.64906C15.9464 7.64906 15.768 7.57351 15.6365 7.43902C15.5049 7.30454 15.431 7.12215 15.431 6.93196V2.4477L10.5492 7.43871C10.4163 7.56538 10.2404 7.63434 10.0587 7.63106C9.87696 7.62778 9.70359 7.55252 9.57508 7.42114C9.44657 7.28975 9.37295 7.1125 9.36975 6.92672C9.36654 6.74094 9.43399 6.56115 9.55789 6.42521L14.4397 1.4342H10.0536C9.86753 1.4342 9.68912 1.35865 9.55758 1.22416C9.42604 1.08968 9.35214 0.907286 9.35214 0.717099Z" fill="#220047"/>
</g>
</svg>
