<svg width="32" height="32" viewBox="0 0 32 32" fill="none" xmlns="http://www.w3.org/2000/svg">
<path d="M16 20.61C13.46 20.61 11.39 18.545 11.39 16C11.39 13.46 13.455 11.39 16 11.39C18.545 11.39 20.61 13.455 20.61 16C20.61 18.54 18.54 20.61 16 20.61ZM16 12.39C14.01 12.39 12.39 14.01 12.39 16C12.39 17.99 14.01 19.61 16 19.61C17.99 19.61 19.61 17.99 19.61 16C19.61 14.01 17.99 12.39 16 12.39Z" fill="#220047"/>
<path d="M16 11.055C15.725 11.055 15.5 10.83 15.5 10.555V6.64001C15.5 6.36501 15.725 6.14001 16 6.14001C16.275 6.14001 16.5 6.36501 16.5 6.64001V10.555C16.5 10.83 16.275 11.055 16 11.055Z" fill="#220047"/>
<path d="M16 7.14C14.185 7.14 12.71 5.665 12.71 3.85C12.71 2.035 14.185 0.559998 16 0.559998C17.815 0.559998 19.29 2.035 19.29 3.85C19.29 5.665 17.815 7.14 16 7.14ZM16 1.56C14.735 1.56 13.71 2.585 13.71 3.85C13.71 5.115 14.74 6.14 16 6.14C17.26 6.14 18.29 5.11 18.29 3.85C18.29 2.59 17.265 1.56 16 1.56Z" fill="#220047"/>
<path d="M16 25.86C15.725 25.86 15.5 25.635 15.5 25.36V21.445C15.5 21.17 15.725 20.945 16 20.945C16.275 20.945 16.5 21.17 16.5 21.445V25.36C16.5 25.635 16.275 25.86 16 25.86Z" fill="#220047"/>
<path d="M16 31.44C14.185 31.44 12.71 29.965 12.71 28.15C12.71 26.335 14.185 24.86 16 24.86C17.815 24.86 19.29 26.335 19.29 28.15C19.29 29.965 17.815 31.44 16 31.44ZM16 25.86C14.735 25.86 13.71 26.885 13.71 28.15C13.71 29.415 14.74 30.44 16 30.44C17.26 30.44 18.29 29.415 18.29 28.15C18.29 26.885 17.265 25.86 16 25.86Z" fill="#220047"/>
<path d="M20.345 13.22C20.195 13.22 20.045 13.15 19.945 13.02C19.78 12.8 19.825 12.485 20.045 12.32L23.17 9.96502C23.39 9.80002 23.705 9.84002 23.87 10.065C24.035 10.285 23.99 10.6 23.77 10.765L20.645 13.12C20.555 13.19 20.45 13.22 20.345 13.22Z" fill="#220047"/>
<path d="M25.7 11.97C24.7 11.97 23.715 11.52 23.07 10.665C22.54 9.96502 22.315 9.09502 22.44 8.22502C22.56 7.35502 23.015 6.58502 23.715 6.05502C25.165 4.96002 27.23 5.25002 28.325 6.70002C28.855 7.40002 29.08 8.26502 28.955 9.14002C28.835 10.01 28.38 10.78 27.68 11.31C27.085 11.755 26.39 11.97 25.7 11.97ZM25.695 6.39502C25.215 6.39502 24.73 6.54502 24.32 6.85502C23.83 7.22502 23.515 7.76002 23.43 8.36502C23.345 8.97002 23.5 9.57502 23.87 10.06C24.63 11.07 26.07 11.27 27.08 10.51C27.57 10.14 27.885 9.60502 27.97 9.00002C28.055 8.39502 27.9 7.79002 27.53 7.30502C27.075 6.70502 26.39 6.39502 25.695 6.39502Z" fill="#220047"/>
<path d="M8.52998 22.135C8.37998 22.135 8.22998 22.065 8.12998 21.935C7.96498 21.715 8.00998 21.4 8.22998 21.235L11.355 18.88C11.575 18.715 11.89 18.755 12.055 18.98C12.22 19.2 12.175 19.515 11.955 19.68L8.82998 22.035C8.73998 22.105 8.63498 22.135 8.52998 22.135Z" fill="#220047"/>
<path d="M6.31002 26.61C6.15502 26.61 6.00002 26.6 5.84502 26.58C4.97502 26.455 4.20501 26 3.67501 25.3C2.58001 23.85 2.87002 21.785 4.32002 20.69C5.02002 20.16 5.89002 19.94 6.76002 20.06C7.63002 20.18 8.40002 20.635 8.93002 21.335C9.46002 22.035 9.68502 22.9 9.56002 23.775C9.44002 24.645 8.98502 25.415 8.28502 25.945C7.71002 26.38 7.02002 26.61 6.31002 26.61ZM4.92502 21.49C3.91502 22.25 3.71501 23.69 4.47501 24.7C4.84502 25.19 5.38002 25.505 5.98502 25.59C6.59002 25.675 7.19502 25.52 7.68002 25.15C8.16502 24.78 8.48502 24.245 8.57002 23.64C8.65502 23.035 8.50002 22.43 8.13002 21.945C7.76002 21.455 7.22502 21.14 6.62002 21.055C6.01502 20.965 5.41002 21.12 4.92502 21.49Z" fill="#220047"/>
<path d="M11.655 13.22C11.55 13.22 11.445 13.185 11.355 13.12L8.22998 10.765C8.00998 10.6 7.96498 10.285 8.12998 10.065C8.29498 9.84501 8.60998 9.80001 8.82998 9.96501L11.955 12.32C12.175 12.485 12.22 12.8 12.055 13.02C11.955 13.15 11.805 13.22 11.655 13.22Z" fill="#220047"/>
<path d="M6.29997 11.97C5.60997 11.97 4.91497 11.755 4.31997 11.305C3.61997 10.775 3.16497 10.005 3.04497 9.13502C2.92497 8.26502 3.14997 7.40001 3.67497 6.69501C4.76997 5.24501 6.83497 4.95501 8.28497 6.05001C8.98497 6.58001 9.43997 7.35002 9.55997 8.22002C9.67997 9.09002 9.45497 9.95501 8.92997 10.66C8.28497 11.52 7.29497 11.97 6.29997 11.97ZM6.30497 6.39501C5.60997 6.39501 4.92497 6.71001 4.47497 7.30501C4.10497 7.79001 3.94997 8.39501 4.03497 9.00001C4.11997 9.60501 4.43497 10.145 4.92497 10.51C5.93497 11.27 7.36997 11.07 8.13497 10.06C8.50497 9.57002 8.65997 8.97001 8.57497 8.36501C8.48997 7.76001 8.17497 7.22001 7.68497 6.85501C7.26997 6.54501 6.78497 6.39501 6.30497 6.39501Z" fill="#220047"/>
<path d="M23.47 22.135C23.365 22.135 23.26 22.1 23.17 22.035L20.045 19.68C19.825 19.515 19.78 19.2 19.945 18.98C20.11 18.76 20.425 18.715 20.645 18.88L23.77 21.235C23.99 21.4 24.035 21.715 23.87 21.935C23.77 22.07 23.62 22.135 23.47 22.135Z" fill="#220047"/>
<path d="M25.69 26.61C24.98 26.61 24.29 26.38 23.715 25.945C23.015 25.415 22.56 24.645 22.44 23.775C22.32 22.905 22.545 22.04 23.07 21.335C23.6 20.635 24.37 20.18 25.24 20.06C26.11 19.94 26.975 20.165 27.68 20.69C29.13 21.785 29.415 23.85 28.325 25.3C27.795 26 27.025 26.455 26.155 26.575C26 26.6 25.845 26.61 25.69 26.61ZM25.7 21.025C25.595 21.025 25.485 21.03 25.38 21.045C24.775 21.13 24.235 21.445 23.87 21.935C23.5 22.425 23.345 23.025 23.43 23.63C23.515 24.235 23.83 24.775 24.32 25.14C24.81 25.51 25.41 25.665 26.015 25.58C26.62 25.495 27.16 25.18 27.525 24.69C28.285 23.68 28.085 22.245 27.075 21.48C26.675 21.185 26.195 21.025 25.7 21.025Z" fill="#220047"/>
</svg>
