<svg width="15" height="15" viewBox="0 0 15 15" fill="none" xmlns="http://www.w3.org/2000/svg">
<g clip-path="url(#clip0_1834_48631)">
<path d="M12.104 1.15573H11.5445V0.589583C11.5445 0.266114 11.2823 0.00390625 10.9588 0.00390625C10.6353 0.00390625 10.3731 0.266114 10.3731 0.589583V1.15573H4.62685V0.589583C4.62685 0.266114 4.36464 0.00390625 4.04117 0.00390625C3.7177 0.00390625 3.45549 0.266114 3.45549 0.589583V1.15573H2.89602C1.29915 1.15573 0 2.45488 0 4.05172V12.1012C0 13.6981 1.29915 14.9972 2.89602 14.9972H12.104C13.7009 14.9972 15 13.6981 15 12.1012V4.05172C15 2.45488 13.7009 1.15573 12.104 1.15573ZM2.89602 2.32708H3.45549V3.46915C3.45549 3.79262 3.7177 4.05483 4.04117 4.05483C4.36464 4.05483 4.62685 3.79262 4.62685 3.46915V2.32708H10.3732V3.46915C10.3732 3.79262 10.6354 4.05483 10.9588 4.05483C11.2823 4.05483 11.5445 3.79262 11.5445 3.46915V2.32708H12.104C13.055 2.32708 13.8286 3.10076 13.8286 4.05172V4.61122H1.17135V4.05172C1.17135 3.10076 1.94503 2.32708 2.89602 2.32708ZM12.104 13.8259H2.89602C1.94503 13.8259 1.17135 13.0522 1.17135 12.1012V5.78257H13.8286V12.1012C13.8286 13.0522 13.055 13.8259 12.104 13.8259ZM5.20277 8.08624C5.20277 8.40971 4.94056 8.67192 4.61709 8.67192H3.46527C3.1418 8.67192 2.8796 8.40971 2.8796 8.08624C2.8796 7.76277 3.1418 7.50057 3.46527 7.50057H4.61709C4.94053 7.50057 5.20277 7.76277 5.20277 8.08624ZM12.1204 8.08624C12.1204 8.40971 11.8582 8.67192 11.5348 8.67192H10.3829C10.0595 8.67192 9.79726 8.40971 9.79726 8.08624C9.79726 7.76277 10.0595 7.50057 10.3829 7.50057H11.5348C11.8582 7.50057 12.1204 7.76277 12.1204 8.08624ZM8.65826 8.08624C8.65826 8.40971 8.39606 8.67192 8.07259 8.67192H6.92077C6.5973 8.67192 6.33509 8.40971 6.33509 8.08624C6.33509 7.76277 6.5973 7.50057 6.92077 7.50057H8.07259C8.39603 7.50057 8.65826 7.76277 8.65826 8.08624ZM5.20277 11.5417C5.20277 11.8652 4.94056 12.1274 4.61709 12.1274H3.46527C3.1418 12.1274 2.8796 11.8652 2.8796 11.5417C2.8796 11.2183 3.1418 10.9561 3.46527 10.9561H4.61709C4.94053 10.9561 5.20277 11.2183 5.20277 11.5417ZM12.1204 11.5417C12.1204 11.8652 11.8582 12.1274 11.5348 12.1274H10.3829C10.0595 12.1274 9.79726 11.8652 9.79726 11.5417C9.79726 11.2183 10.0595 10.9561 10.3829 10.9561H11.5348C11.8582 10.9561 12.1204 11.2183 12.1204 11.5417ZM8.65826 11.5417C8.65826 11.8652 8.39606 12.1274 8.07259 12.1274H6.92077C6.5973 12.1274 6.33509 11.8652 6.33509 11.5417C6.33509 11.2183 6.5973 10.9561 6.92077 10.9561H8.07259C8.39603 10.9561 8.65826 11.2183 8.65826 11.5417Z" fill="#220047"/>
</g>
<defs>
<clipPath id="clip0_1834_48631">
<rect width="15" height="15" fill="white"/>
</clipPath>
</defs>
</svg>
