<svg id="Layer_1" data-name="Layer 1" xmlns="http://www.w3.org/2000/svg" viewBox="0 0 34.33 46.07"><defs><style>.cls-1{fill:#fff;}</style></defs><path d="M17.24,31.38a6.45,6.45,0,1,0-4.55-1.9A6.48,6.48,0,0,0,17.24,31.38Zm-3.85-10.3a5.44,5.44,0,1,1,0,7.7A5.45,5.45,0,0,1,13.39,21.08Z"/><path d="M6.94,35.23l4.1.1,1.85,3.45a.53.53,0,0,0,.45.25h0a.53.53,0,0,0,.45-.25l2.6-4.3a5.14,5.14,0,0,0,.85.05,6.7,6.7,0,0,0,1-.05l2.6,4.35a.53.53,0,0,0,.45.25h0a.53.53,0,0,0,.45-.25l1.85-3.45,4.1-.1a.4.4,0,0,0,.4-.25.45.45,0,0,0,0-.5l-2.65-4.45a9.62,9.62,0,1,0-16.25.1l-2.6,4.34a.45.45,0,0,0,0,.5C6.59,35.13,6.79,35.23,6.94,35.23Zm19.8-.95-3.55.1a.5.5,0,0,0-.45.25l-1.55,2.95-1.9-3.25A9.72,9.72,0,0,0,24,31.73a10,10,0,0,0,.7-.8ZM11.14,18.83a8.55,8.55,0,0,1,6.1-2.5,8.76,8.76,0,0,1,6.1,2.5,8.63,8.63,0,1,1-12.2,0ZM9.79,31a8.69,8.69,0,0,0,.65.75,9.26,9.26,0,0,0,4.85,2.6l-1.9,3.2-1.6-2.95a.5.5,0,0,0-.45-.25l-3.55-.1Z"/><path d="M17.29,6.48a.47.47,0,0,0-.5.5V8.33a.5.5,0,0,0,1,0V7A.5.5,0,0,0,17.29,6.48Z"/><path d="M5.44,43.08H29.09a2.69,2.69,0,0,0,2.7-2.7V11.93a2.69,2.69,0,0,0-2.7-2.7h-2.5a3.42,3.42,0,0,0-3.4-3.1H21.94a1.17,1.17,0,0,1-1.05-.65,3.87,3.87,0,0,0-3.6-2.4,4,4,0,0,0-3.65,2.4,1.11,1.11,0,0,1-1.05.65H11.34a3.42,3.42,0,0,0-3.4,3.1H5.44a2.69,2.69,0,0,0-2.7,2.7V40.38A2.72,2.72,0,0,0,5.44,43.08ZM8.94,9.53a2.4,2.4,0,0,1,2.4-2.4h1.25a2.1,2.1,0,0,0,1.95-1.25,3,3,0,0,1,2.75-1.8A3,3,0,0,1,20,5.88,2.15,2.15,0,0,0,22,7.13h1.25a2.4,2.4,0,0,1,2.4,2.4v1.7H8.94Zm-5.2,2.4a1.69,1.69,0,0,1,1.7-1.7h2.5v1.55a.47.47,0,0,0,.5.5h17.7a.47.47,0,0,0,.5-.5V10.23h2.5a1.69,1.69,0,0,1,1.7,1.7V40.38a1.69,1.69,0,0,1-1.7,1.7H5.44a1.69,1.69,0,0,1-1.7-1.7Z"/></svg>