<svg version="1.2" xmlns="http://www.w3.org/2000/svg" viewBox="0 0 619 597" width="619" height="597">
	<title>123</title>
	<defs>
		<radialGradient id="g1" cx="-565" cy="-165" r="0" gradientUnits="userSpaceOnUse">
			<stop offset=".056" stop-color="#7f9bb0"/>
			<stop offset="1" stop-color="#ffffff"/>
		</radialGradient>
		<radialGradient id="g2" cx="-565" cy="-165" r="0" gradientUnits="userSpaceOnUse">
			<stop offset=".056" stop-color="#7f9bb0"/>
			<stop offset="1" stop-color="#ffffff"/>
		</radialGradient>
		<linearGradient id="g3" x1="356" y1="102.3" x2="353.2" y2="156" gradientUnits="userSpaceOnUse">
			<stop offset="0" stop-color="#ffffff"/>
			<stop offset="1" stop-color="#e5e9ff"/>
		</linearGradient>
		<radialGradient id="g4" cx="-565" cy="-140.1" r="0" gradientUnits="userSpaceOnUse">
			<stop offset=".056" stop-color="#7f9bb0"/>
			<stop offset="1" stop-color="#ffffff"/>
		</radialGradient>
		<radialGradient id="g5" cx="-565" cy="-113.8" r="0" gradientUnits="userSpaceOnUse">
			<stop offset=".056" stop-color="#7f9bb0"/>
			<stop offset="1" stop-color="#ffffff"/>
		</radialGradient>
		<radialGradient id="g6" cx="-565" cy="-165" r="0" gradientUnits="userSpaceOnUse">
			<stop offset=".056" stop-color="#7f9bb0"/>
			<stop offset="1" stop-color="#ffffff"/>
		</radialGradient>
	</defs>
	<style>
		.s0 { fill: #2672ab }
		.s1 { fill: #d1ebff }
		.s2 { opacity: .5;fill: #3f92d1 }
		.s3 { fill: #3f92d1 }
		.s4 { fill: #ffffff }
		.s5 { opacity: .3;fill: #ffffff }
		.s6 { fill: #a8cff0 }
		.s7 { fill: #72b5e8 }
		.s8 { fill: #03336e }
		.s9 { fill: #022652 }
		.s10 { mix-blend-mode: screen;fill: #ffffff }
		.s11 { opacity: .7;fill: #ffffff }
		.s12 { opacity: .1;fill: #f1f2f2 }
		.s13 { opacity: .1;fill: #eceff0 }
		.s14 { opacity: .2;fill: #e7ebee }
		.s15 { opacity: .2;fill: #e2e8ec }
		.s16 { opacity: .3;fill: #dee5ea }
		.s17 { opacity: .3;fill: #d9e1e8 }
		.s18 { opacity: .4;fill: #d4dee6 }
		.s19 { opacity: .4;fill: #cfdbe4 }
		.s20 { opacity: .4;fill: #cad7e2 }
		.s21 { opacity: .5;fill: #c5d4e0 }
		.s22 { opacity: .5;fill: #c0d1de }
		.s23 { opacity: .6;fill: #bccddb }
		.s24 { opacity: .6;fill: #b7cad9 }
		.s25 { opacity: .7;fill: #b2c7d7 }
		.s26 { opacity: .7;fill: #adc3d5 }
		.s27 { opacity: .7;fill: #a8c0d3 }
		.s28 { opacity: .8;fill: #a3bdd1 }
		.s29 { opacity: .8;fill: #9eb9cf }
		.s30 { opacity: .9;fill: #9ab6cd }
		.s31 { opacity: .9;fill: #95b3cb }
		.s32 { opacity: 1;fill: #90afc9 }
		.s33 { fill: #8bacc7 }
		.s34 { fill: #eb4680 }
		.s35 { fill: #ffd70f }
		.s36 { fill: #0ba19f }
		.s37 { fill: #0fbab8 }
		.s38 { fill: #3ecfcd }
		.s39 { mix-blend-mode: multiply;fill: url(#g1) }
		.s40 { mix-blend-mode: multiply;fill: url(#g2) }
		.s41 { opacity: .5;fill: #ffffff }
		.s42 { fill: #f0f8ff }
		.s43 { opacity: .1;mix-blend-mode: multiply;fill: #03336e }
		.s44 { mix-blend-mode: multiply;fill: url(#g3) }
		.s45 { mix-blend-mode: multiply;fill: #a8cff0 }
		.s46 { mix-blend-mode: multiply;fill: url(#g4) }
		.s47 { mix-blend-mode: multiply;fill: url(#g5) }
		.s48 { mix-blend-mode: multiply;fill: url(#g6) }
		.s49 { fill: #d62d69 }
		.s50 { fill: #f76195 }
		.s51 { fill: #ffde17 }
		.s52 { fill: #ffcc00 }
	</style>
	<g id="_Artboards_">
	</g>
	<g id="Layer 1">
		<g id="&lt;Group&gt;">
			<g id="&lt;Group&gt;" style="opacity: .2">
			</g>
			<g id="&lt;Group&gt;">
				<g id="&lt;Group&gt;">
				</g>
			</g>
			<g id="&lt;Group&gt;">
				<g id="&lt;Group&gt;">
				</g>
			</g>
			<g id="&lt;Group&gt;">
			</g>
			<g id="&lt;Group&gt;">
				<g id="&lt;Group&gt;">
				</g>
			</g>
			<g id="&lt;Group&gt;">
				<g id="&lt;Group&gt;">
				</g>
			</g>
			<g id="&lt;Group&gt;">
			</g>
			<g id="&lt;Group&gt;">
			</g>
			<g id="&lt;Group&gt;">
			</g>
			<g id="&lt;Group&gt;">
			</g>
			<g id="&lt;Group&gt;">
				<g id="&lt;Group&gt;">
				</g>
			</g>
		</g>
		<g id="&lt;Group&gt;">
			<g id="&lt;Group&gt;">
				<path id="&lt;Path&gt;" class="s0" d="m287.7 589l-273.9-158.1c-4.8-2.8-7.2-6.5-7.3-10.4 0-0.2 0-13.5 0-13.6 0.1-4.7 3.6 3.5 10.3-0.4l155.5-89.7c12.4-7.2 31.3-8 42.1-1.8l273.9 158.1c3.6 2.1 6.2-6.7 7.2-3.9 0.3 0.9 0.1 13.3 0.1 14.3 0.1 4.8-3.4 10-10.3 14l-155.4 89.7c-12.5 7.2-31.4 8-42.2 1.8z"/>
				<path id="&lt;Path&gt;" class="s1" d="m287.7 575.6l-273.9-158.1c-10.8-6.2-9.4-17.1 3-24.3l155.5-89.7c12.4-7.3 31.3-8 42.1-1.8l273.9 158.1c10.8 6.3 9.5 17.2-3 24.4l-155.4 89.7c-12.5 7.2-31.4 8-42.2 1.7z"/>
				<path id="&lt;Path&gt;" class="s2" d="m287.7 589c10.8 6.2 29.7 5.4 42.2-1.8v-13.3c-12.5 7.2-31.4 8-42.2 1.7z"/>
				<path id="&lt;Path&gt;" class="s3" d="m287.7 575.6l-273.9-158.1c-5.2-3-7.6-7.1-7.2-11.3q-0.1 0.3-0.1 0.7c0 0.1 0 13.4 0 13.6 0.1 3.9 2.5 7.6 7.3 10.4l273.9 158.1z"/>
				<path id="&lt;Path&gt;" class="s4" d="m485.3 481.9l-155.4 89.7c-12.5 7.2-31.4 8-42.2 1.8l-273.9-158.1c-4.5-2.6-6.8-6-7.2-9.6-0.6 4.4 1.8 8.7 7.2 11.8l273.9 158.1c10.8 6.3 29.7 5.5 42.2-1.7l155.4-89.7c7.3-4.2 10.7-9.7 10.2-14.8-0.5 4.4-4 8.9-10.2 12.5z"/>
				<path id="&lt;Path&gt;" class="s5" d="m225.3 520.4l-97.4-56.3c-2-1.1-1.7-3 0.5-4.3l36.6-21.2c2.3-1.3 5.7-1.4 7.6-0.3l97.5 56.3c1.9 1.1 1.7 3.1-0.6 4.4l-36.6 21.1c-2.2 1.3-5.6 1.4-7.6 0.3z"/>
				<path id="&lt;Path&gt;" class="s6" d="m128.4 462.1l36.6-21.2c2.3-1.3 5.7-1.4 7.6-0.3l97.5 56.3q0.6 0.3 0.9 0.8c0.7-1.1 0.4-2.3-0.9-3.1l-97.5-56.3c-1.9-1.1-5.3-1-7.6 0.3l-36.6 21.2c-1.8 1-2.3 2.4-1.4 3.6q0.4-0.7 1.4-1.3z"/>
				<path id="&lt;Compound Path&gt;" fill-rule="evenodd" class="s7" d="m196.6 317.6c2.1-1.3 5.6-1.2 7.7 0l16.8 9.7c2.1 1.2 2.1 3.2 0 4.4-2.1 1.3-5.5 1.3-7.7 0l-16.8-9.7c-2.1-1.2-2.1-3.2 0-4.4zm28.8 16.6c2.1-1.3 5.5-1.2 7.7 0l7.9 4.6c2.2 1.2 2.2 3.2 0 4.4-2.1 1.3-5.5 1.3-7.7 0l-7.9-4.6c-2.2-1.2-2.2-3.2 0-4.4zm19.9 11.5c2.1-1.3 5.5-1.2 7.7 0l7.9 4.6c2.2 1.2 2.2 3.2 0.1 4.4-2.2 1.3-5.6 1.3-7.7 0l-8-4.6c-2.1-1.2-2.2-3.2 0-4.4zm19.9 11.5c2.1-1.3 5.6-1.2 7.7 0l8 4.6c2.1 1.2 2.1 3.2 0 4.4-2.1 1.3-5.6 1.3-7.7 0l-8-4.6c-2.1-1.2-2.1-3.2 0-4.4zm19.9 11.5c2.1-1.3 5.6-1.2 7.7 0l8 4.6c2.1 1.2 2.1 3.2 0 4.4-2.1 1.3-5.6 1.3-7.7 0l-8-4.6c-2.1-1.2-2.1-3.2 0-4.4zm19.9 11.5c2.1-1.3 5.6-1.2 7.7 0l8 4.6c2.1 1.2 2.1 3.2 0 4.4-2.1 1.3-5.6 1.3-7.7 0l-8-4.6c-2.1-1.2-2.1-3.2 0-4.4zm19.9 11.5c2.2-1.3 5.6-1.2 7.8 0l7.9 4.6c2.1 1.2 2.2 3.2 0 4.4-2.1 1.3-5.5 1.3-7.7 0l-7.9-4.6c-2.2-1.2-2.2-3.2-0.1-4.4zm20 11.5c2.1-1.3 5.5-1.2 7.7 0l7.9 4.6c2.2 1.2 2.2 3.2 0.1 4.4-2.2 1.3-5.6 1.3-7.8 0l-7.9-4.6c-2.2-1.2-2.2-3.2 0-4.4zm19.9 11.5c2.1-1.3 5.6-1.2 7.7 0l7.9 4.6c2.2 1.2 2.2 3.2 0.1 4.4-2.2 1.3-5.6 1.3-7.7 0l-8-4.6c-2.1-1.2-2.1-3.2 0-4.4zm19.9 11.5c2.1-1.3 5.6-1.2 7.7 0l8 4.6c2.1 1.2 2.1 3.2 0 4.4-2.1 1.3-5.6 1.3-7.7 0l-8-4.6c-2.1-1.2-2.1-3.2 0-4.4zm19.9 11.5c2.1-1.3 5.6-1.2 7.7 0l8 4.6c2.1 1.2 2.1 3.2 0 4.4-2.1 1.3-5.6 1.3-7.7 0l-8-4.6c-2.1-1.2-2.1-3.2 0-4.4zm19.9 11.5c2.2-1.3 5.6-1.2 7.7 0l8 4.6c2.1 1.2 2.1 3.2 0 4.4-2.1 1.3-5.5 1.3-7.7 0l-7.9-4.6c-2.2-1.2-2.2-3.2-0.1-4.4zm20.4 11.7c2.1-1.2 5.5-1.2 7.7 0l7.9 4.6c2.2 1.3 2.2 3.2 0.1 4.5-2.2 1.2-5.6 1.2-7.8 0l-7.9-4.6c-2.1-1.3-2.2-3.3 0-4.5zm-266.2-133l6.8-3.9c2.4-1.4 6.4-1.4 8.8 0l6.9 4c2.4 1.4 2.4 3.6 0 5l-6.8 4c-2.4 1.4-6.4 1.4-8.8 0l-6.9-4c-2.4-1.4-2.4-3.7 0-5.1zm26.8 20.6l-6.9-4c-2.4-1.4-2.4-3.7 0-5.1l6.8-3.9c2.5-1.4 6.4-1.4 8.8 0l6.9 4c2.4 1.4 2.4 3.6 0 5l-6.8 4c-2.4 1.4-6.4 1.4-8.8 0zm13 2.4l6.9-3.9c2.4-1.4 6.3-1.4 8.7 0l6.9 4c2.5 1.4 2.5 3.6 0 5l-6.8 4c-2.4 1.4-6.3 1.4-8.8 0l-6.9-4c-2.4-1.4-2.4-3.7 0-5.1zm19.9 11.5l6.9-3.9c2.4-1.4 6.3-1.4 8.8 0l6.8 4c2.5 1.4 2.5 3.6 0.1 5l-6.9 4c-2.4 1.4-6.3 1.4-8.8 0l-6.8-4c-2.5-1.4-2.5-3.7-0.1-5.1zm42.5 16.6l-6.9 4c-2.4 1.4-6.3 1.4-8.7 0l-6.9-4c-2.5-1.4-2.5-3.7-0.1-5.1l6.9-3.9c2.4-1.4 6.3-1.4 8.8 0l6.9 4c2.4 1.4 2.4 3.6 0 5zm19.9 11.5l-6.8 4c-2.5 1.4-6.4 1.4-8.8 0l-6.9-4c-2.4-1.4-2.4-3.7 0-5.1l6.8-3.9c2.4-1.4 6.4-1.4 8.8 0l6.9 4c2.4 1.4 2.4 3.6 0 5zm19.9 11.5l-6.8 4c-2.4 1.4-6.4 1.4-8.8 0l-6.9-4c-2.4-1.4-2.4-3.7 0-5.1l6.8-3.9c2.4-1.4 6.4-1.4 8.8 0l6.9 4c2.4 1.4 2.4 3.6 0 5zm19.9 11.5l-6.8 4c-2.4 1.4-6.3 1.4-8.8 0l-6.9-4c-2.4-1.4-2.4-3.7 0-5.1l6.8-3.9c2.5-1.4 6.4-1.4 8.8 0l6.9 4c2.4 1.4 2.5 3.6 0 5zm20 11.5l-6.9 4c-2.4 1.4-6.3 1.4-8.8 0l-6.9-4c-2.4-1.4-2.4-3.7 0-5.1l6.9-3.9c2.4-1.4 6.3-1.4 8.7 0l6.9 4c2.5 1.4 2.5 3.6 0.1 5zm19.9 11.5l-6.9 4c-2.4 1.4-6.3 1.4-8.7 0l-6.9-4c-2.5-1.4-2.5-3.7-0.1-5.1l6.9-3.9c2.4-1.4 6.3-1.4 8.8 0l6.8 4c2.5 1.4 2.5 3.6 0.1 5zm-2.6 6.4l6.8-3.9c2.4-1.4 6.3-1.4 8.8 0l6.9 4c2.4 1.4 2.4 3.6 0 5l-6.9 4c-2.4 1.4-6.3 1.4-8.7 0l-6.9-4c-2.4-1.4-2.5-3.7 0-5.1zm42.4 16.6l-6.8 4c-2.4 1.4-6.4 1.4-8.8 0l-6.9-4c-2.4-1.4-2.4-3.7 0-5.1l6.8-3.9c2.4-1.4 6.4-1.4 8.8 0l6.9 4c2.4 1.4 2.4 3.6 0 5zm29.2 16.9l-6.9 3.9c-2.4 1.4-6.3 1.4-8.7 0l-15.8-9.1c-2.4-1.4-2.4-3.7 0-5l6.9-4c2.4-1.4 6.3-1.4 8.7 0l15.8 9.1c2.4 1.4 2.4 3.7 0 5.1zm-289.3-137.8l6.9-4c2.4-1.4 6.3-1.4 8.7 0l15.8 9.1c2.4 1.4 2.4 3.7 0 5.1l-6.8 3.9c-2.5 1.4-6.4 1.4-8.8 0l-15.7-9.1c-2.5-1.4-2.5-3.6-0.1-5zm28.8 16.6l6.8-4c2.4-1.4 6.4-1.4 8.8 0l6.9 4c2.4 1.4 2.4 3.7 0 5.1l-6.8 3.9c-2.4 1.4-6.4 1.4-8.8 0l-6.9-4c-2.4-1.4-2.4-3.6 0-5zm19.9 16.5c-2.4-1.4-2.4-3.6 0-5l6.9-4c2.4-1.4 6.3-1.4 8.7 0l6.9 4c2.4 1.4 2.5 3.7 0 5.1l-6.8 3.9c-2.4 1.4-6.3 1.4-8.8 0zm19.9 11.5c-2.4-1.4-2.4-3.7 0-5.1l6.9-3.9c2.4-1.4 6.3-1.4 8.7 0l6.9 4c2.5 1.4 2.5 3.7 0 5.1l-6.8 3.9c-2.4 1.4-6.3 1.4-8.8 0zm35.5 2.5l6.9 4c2.5 1.4 2.5 3.6 0.1 5l-6.9 4c-2.4 1.4-6.3 1.4-8.8 0l-6.9-4c-2.4-1.4-2.4-3.7 0-5.1l6.9-3.9c2.4-1.4 6.3-1.4 8.7 0zm19.5 11.2l7.8 4.5c2.2 1.3 2.2 3.3 0 4.6l-7.7 4.4c-2.2 1.3-5.7 1.3-7.9 0l-7.8-4.5c-2.2-1.2-2.2-3.3 0-4.5l7.7-4.5c2.2-1.2 5.7-1.2 7.9 0zm31.2 87.6l-6.7 3.8c-2.5 1.5-6.5 1.5-9 0l-126.2-72.8c-2.4-1.5-2.5-3.8 0-5.2l6.7-3.9c2.4-1.4 6.4-1.4 8.9 0l126.2 72.9c2.5 1.5 2.5 3.8 0.1 5.2zm8.7-64.6l7.7 4.5c2.2 1.3 2.2 3.3 0 4.6l-7.7 4.4c-2.1 1.3-5.7 1.3-7.9 0l-7.7-4.5c-2.2-1.2-2.2-3.3 0-4.5l7.6-4.5c2.2-1.2 5.8-1.2 8 0zm19.9 11.5l7.7 4.5c2.2 1.3 2.2 3.3 0 4.6l-7.6 4.4c-2.2 1.3-5.8 1.3-8 0l-7.7-4.5c-2.2-1.2-2.2-3.3 0-4.5l7.7-4.5c2.1-1.2 5.7-1.2 7.9 0zm19.9 11.5l7.7 4.5c2.2 1.3 2.2 3.3 0.1 4.6l-7.7 4.4c-2.2 1.3-5.8 1.3-8 0l-7.7-4.5c-2.2-1.2-2.2-3.3 0-4.5l7.7-4.5c2.2-1.2 5.7-1.2 7.9 0zm12.1 25l-7.8-4.5c-2.2-1.2-2.2-3.3 0-4.5l7.7-4.5c2.2-1.2 5.7-1.2 7.9 0l7.8 4.5c2.2 1.3 2.2 3.3 0 4.6l-7.7 4.4c-2.2 1.3-5.7 1.3-7.9 0zm19.9 11.5l-7.8-4.5c-2.1-1.2-2.2-3.3 0-4.5l7.7-4.5c2.2-1.2 5.7-1.2 7.9 0l7.8 4.5c2.2 1.3 2.2 3.3 0 4.6l-7.7 4.4c-2.2 1.3-5.7 1.3-7.9 0zm35.9 7.3l-7.7 4.5c-2.1 1.2-5.7 1.2-7.9-0.1l-7.7-4.4c-2.2-1.3-2.2-3.3 0-4.6l7.6-4.4c2.2-1.3 5.8-1.3 8 0l7.7 4.4c2.2 1.3 2.2 3.4 0 4.6zm-290.1-137.3l7.7-4.4c2.2-1.3 5.8-1.3 8 0l24.9 14.4c2.2 1.3 2.2 3.3 0.1 4.6l-7.7 4.4c-2.2 1.3-5.8 1.3-8 0l-24.9-14.4c-2.2-1.3-2.2-3.3-0.1-4.6zm37.2 21.5l7.7-4.5c2.2-1.2 5.7-1.2 7.9 0l7.7 4.5c2.2 1.3 2.3 3.3 0.1 4.6l-7.7 4.4c-2.2 1.3-5.8 1.3-7.9 0l-7.8-4.5c-2.2-1.2-2.2-3.3 0-4.5zm19.9 11.5l7.7-4.5c2.2-1.2 5.7-1.2 7.9 0l7.8 4.5c2.2 1.3 2.2 3.3 0 4.6l-7.7 4.4c-2.2 1.3-5.7 1.3-7.9 0l-7.8-4.5c-2.2-1.2-2.2-3.3 0-4.5zm19.9 11.5l7.7-4.5c2.2-1.2 5.7-1.2 7.9 0l7.8 4.5c2.2 1.3 2.2 3.3 0 4.6l-7.7 4.4c-2.2 1.3-5.7 1.3-7.9 0l-7.7-4.5c-2.2-1.2-2.3-3.3-0.1-4.5zm27.7 20.5l-7.7-4.5c-2.2-1.2-2.2-3.3-0.1-4.5l7.7-4.5c2.2-1.2 5.8-1.2 8 0l7.7 4.5c2.2 1.3 2.2 3.3 0 4.6l-7.7 4.4c-2.1 1.3-5.7 1.3-7.9 0zm19.9 11.5l-7.7-4.5c-2.2-1.2-2.2-3.3 0-4.5l7.7-4.5c2.1-1.2 5.7-1.2 7.9 0l7.7 4.5c2.2 1.3 2.2 3.3 0 4.6l-7.6 4.4c-2.2 1.3-5.8 1.3-8 0zm19.9 11.5l-7.7-4.5c-2.2-1.2-2.2-3.3 0-4.5l7.7-4.5c2.2-1.2 5.7-1.2 7.9 0l7.7 4.5c2.2 1.3 2.2 3.3 0.1 4.6l-7.7 4.4c-2.2 1.3-5.8 1.3-8 0zm20 11.5l-7.8-4.5c-2.2-1.2-2.2-3.3 0-4.5l7.7-4.5c2.2-1.2 5.7-1.2 7.9 0l7.8 4.5c2.2 1.3 2.2 3.3 0 4.6l-7.7 4.4c-2.2 1.3-5.7 1.3-7.9 0zm19.9 11.5l-7.8-4.5c-2.2-1.2-2.2-3.3 0-4.5l7.7-4.5c2.2-1.2 5.7-1.2 7.9 0l7.8 4.5c2.2 1.3 2.2 3.3 0 4.6l-7.7 4.4c-2.2 1.3-5.7 1.3-7.9 0zm19.9 11.5l-7.7-4.5c-2.2-1.2-2.2-3.3-0.1-4.5l7.7-4.5c2.2-1.2 5.8-1.2 8 0l7.7 4.5c2.2 1.3 2.2 3.3 0 4.6l-7.7 4.4c-2.2 1.3-5.7 1.3-7.9 0zm12.2 2.5l7.6-4.5c2.2-1.2 5.8-1.2 8 0l7.7 4.5c2.2 1.3 2.2 3.3 0 4.6l-7.7 4.4c-2.1 1.3-5.7 1.3-7.9 0l-7.7-4.5c-2.2-1.2-2.2-3.3 0-4.5zm55.2 23l-7.7 4.4c-2.2 1.3-5.7 1.3-7.9 0l-19.7-11.4c-2.2-1.2-2.2-3.3 0-4.5l7.7-4.5c2.1-1.2 5.7-1.2 7.9 0l19.7 11.4c2.2 1.3 2.2 3.3 0 4.6zm-290-137.4l6.6-3.8c2.5-1.4 6.5-1.4 9 0l35.4 20.5c2.5 1.4 2.5 3.7 0 5.1l-6.6 3.9c-2.5 1.4-6.5 1.4-9 0l-35.4-20.5c-2.5-1.4-2.5-3.8 0-5.2zm48.6 28.1l6.7-3.8c2.4-1.5 6.4-1.5 8.9 0l6.7 3.9c2.5 1.4 2.5 3.7 0.1 5.1l-6.7 3.9c-2.5 1.4-6.5 1.4-9 0l-6.7-3.9c-2.4-1.4-2.5-3.8 0-5.2zm19.9 11.5l6.7-3.8c2.5-1.5 6.5-1.5 8.9 0l6.8 3.9c2.4 1.4 2.4 3.7 0 5.1l-6.7 3.9c-2.4 1.4-6.5 1.4-8.9 0l-6.7-3.9c-2.5-1.4-2.5-3.8-0.1-5.2zm19.9 11.5l6.7-3.8c2.5-1.5 6.5-1.5 9 0l6.7 3.9c2.5 1.4 2.5 3.7 0 5.1l-6.7 3.9c-2.4 1.4-6.4 1.4-8.9 0l-6.7-3.9c-2.5-1.4-2.5-3.8-0.1-5.2zm20 11.5l6.6-3.8c2.5-1.5 6.5-1.5 9 0l6.7 3.9c2.5 1.4 2.5 3.7 0 5.1l-6.6 3.9c-2.5 1.4-6.5 1.4-9 0l-6.7-3.9c-2.5-1.4-2.5-3.8 0-5.2zm19.9 11.5l6.6-3.8c2.5-1.5 6.5-1.5 9 0l6.7 3.9c2.5 1.4 2.5 3.7 0 5.1l-6.6 3.9c-2.5 1.4-6.5 1.4-9 0l-6.7-3.9c-2.5-1.4-2.5-3.8 0-5.2zm19.9 11.5l6.7-3.8c2.4-1.5 6.4-1.5 8.9 0l6.7 3.9c2.5 1.4 2.5 3.7 0.1 5.1l-6.7 3.9c-2.5 1.4-6.5 1.4-9 0l-6.7-3.9c-2.5-1.4-2.5-3.8 0-5.2zm19.9 11.5l6.7-3.8c2.4-1.5 6.5-1.5 8.9 0l6.7 3.9c2.5 1.4 2.5 3.7 0.1 5.1l-6.7 3.9c-2.5 1.4-6.5 1.4-9 0l-6.7-3.9c-2.4-1.5-2.4-3.8 0-5.2zm19.9 11.5l6.7-3.8c2.5-1.5 6.5-1.5 9 0l6.7 3.9c2.4 1.4 2.5 3.7 0 5.1l-6.7 3.9c-2.4 1.4-6.5 1.4-8.9 0l-6.7-3.9c-2.5-1.5-2.5-3.8-0.1-5.2zm20 11.5l6.6-3.8c2.5-1.5 6.5-1.5 9 0l6.7 3.8c2.5 1.5 2.5 3.8 0 5.2l-6.7 3.9c-2.4 1.4-6.4 1.4-8.9 0l-6.7-3.9c-2.5-1.5-2.5-3.8 0-5.2zm19.9 11.5l6.6-3.8c2.5-1.5 6.5-1.5 9 0l6.7 3.8c2.5 1.5 2.5 3.8 0 5.2l-6.6 3.9c-2.5 1.4-6.5 1.4-9 0l-6.7-3.9c-2.5-1.5-2.5-3.8 0-5.2zm42.7 17l-6.7 3.8c-2.4 1.4-6.5 1.4-8.9 0l-6.7-3.9c-2.5-1.4-2.5-3.7-0.1-5.1l6.7-3.9c2.5-1.4 6.5-1.4 9 0l6.7 3.9c2.4 1.4 2.5 3.8 0 5.2zm-257.9-127.6l-6.7 3.8c-2.4 1.5-6.4 1.5-8.9 0l-15.6-9c-2.4-1.4-2.5-3.7 0-5.1l6.7-3.9c2.4-1.4 6.5-1.4 8.9 0l15.6 9c2.5 1.5 2.5 3.8 0 5.2zm19.9 11.5l-6.6 3.8c-2.5 1.5-6.5 1.5-9 0l-6.7-3.8c-2.5-1.5-2.5-3.8 0-5.2l6.6-3.9c2.5-1.4 6.5-1.4 9 0l6.7 3.9c2.5 1.5 2.5 3.8 0 5.2zm19.9 11.5l-6.6 3.8c-2.5 1.5-6.5 1.5-9 0l-6.7-3.8c-2.5-1.5-2.5-3.8 0-5.2l6.6-3.9c2.5-1.4 6.5-1.4 9 0l6.7 3.9c2.5 1.5 2.5 3.8 0 5.2zm128.3 4.4l7.7 4.5c2.2 1.3 2.2 3.3 0 4.6l-7.7 4.4c-2.2 1.3-5.7 1.3-7.9 0l-7.7-4.5c-2.2-1.2-2.3-3.3-0.1-4.5l7.7-4.5c2.2-1.2 5.8-1.2 8 0zm31.1 87.6l-6.7 3.8c-2.4 1.5-6.5 1.5-8.9 0l-6.7-3.9c-2.5-1.4-2.5-3.7-0.1-5.1l6.7-3.9c2.5-1.4 6.5-1.4 9 0l6.7 3.9c2.4 1.4 2.5 3.8 0 5.2zm19.9 11.5l-6.7 3.8c-2.4 1.5-6.4 1.5-8.9 0l-6.7-3.9c-2.5-1.4-2.5-3.7 0-5.1l6.6-3.9c2.5-1.4 6.5-1.4 9 0l6.7 3.9c2.5 1.4 2.5 3.8 0 5.2zm20.3 11.7l-6.6 3.9c-2.5 1.4-6.5 1.4-9 0l-6.7-3.9c-2.5-1.4-2.5-3.8 0-5.2l6.6-3.8c2.5-1.5 6.5-1.4 9 0l6.7 3.9c2.5 1.4 2.5 3.7 0 5.1z"/>
				<path id="&lt;Compound Path&gt;" fill-rule="evenodd" class="s6" d="m196.6 315.7c2.1-1.2 5.6-1.2 7.7 0l16.8 9.7c2.1 1.3 2.1 3.3 0 4.5-2.1 1.2-5.5 1.2-7.7 0l-16.8-9.7c-2.1-1.3-2.1-3.3 0-4.5zm28.8 16.6c2.1-1.2 5.5-1.2 7.7 0l7.9 4.6c2.2 1.3 2.2 3.3 0 4.5-2.1 1.2-5.5 1.2-7.7 0l-7.9-4.6c-2.2-1.3-2.2-3.3 0-4.5zm19.9 11.5c2.1-1.2 5.5-1.2 7.7 0l7.9 4.6c2.2 1.3 2.2 3.3 0.1 4.5-2.2 1.2-5.6 1.2-7.7 0l-8-4.6c-2.1-1.3-2.2-3.3 0-4.5zm19.9 11.5c2.1-1.2 5.6-1.2 7.7 0l8 4.6c2.1 1.3 2.1 3.3 0 4.5-2.1 1.2-5.6 1.2-7.7 0l-8-4.6c-2.1-1.3-2.1-3.3 0-4.5zm19.9 11.5c2.1-1.2 5.6-1.2 7.7 0l8 4.6c2.1 1.3 2.1 3.3 0 4.5-2.1 1.2-5.6 1.2-7.7 0l-8-4.6c-2.1-1.3-2.1-3.3 0-4.5zm19.9 11.5c2.1-1.2 5.6-1.2 7.7 0l8 4.6c2.1 1.3 2.1 3.3 0 4.5-2.1 1.2-5.6 1.2-7.7 0l-8-4.6c-2.1-1.3-2.1-3.3 0-4.5zm19.9 11.5c2.2-1.2 5.6-1.2 7.8 0l7.9 4.6c2.1 1.3 2.2 3.3 0 4.5-2.1 1.2-5.5 1.2-7.7 0l-7.9-4.6c-2.2-1.3-2.2-3.3-0.1-4.5zm20 11.5c2.1-1.2 5.5-1.2 7.7 0l7.9 4.6c2.2 1.3 2.2 3.3 0.1 4.5-2.2 1.2-5.6 1.2-7.8 0l-7.9-4.6c-2.2-1.3-2.2-3.3 0-4.5zm19.9 11.5c2.1-1.2 5.6-1.2 7.7 0l7.9 4.6c2.2 1.3 2.2 3.3 0.1 4.5-2.2 1.2-5.6 1.2-7.7 0l-8-4.6c-2.1-1.3-2.1-3.3 0-4.5zm19.9 11.5c2.1-1.2 5.6-1.2 7.7 0l8 4.6c2.1 1.3 2.1 3.3 0 4.5-2.1 1.2-5.6 1.2-7.7 0l-8-4.6c-2.1-1.3-2.1-3.3 0-4.5zm19.9 11.5c2.1-1.2 5.6-1.2 7.7 0l8 4.6c2.1 1.3 2.1 3.3 0 4.5-2.1 1.2-5.6 1.2-7.7 0l-8-4.6c-2.1-1.3-2.1-3.3 0-4.5zm19.9 11.5c2.2-1.2 5.6-1.2 7.7 0l8 4.6c2.1 1.3 2.1 3.3 0 4.5-2.1 1.2-5.5 1.2-7.7 0l-7.9-4.6c-2.2-1.3-2.2-3.3-0.1-4.5zm20.4 11.8c2.1-1.3 5.5-1.3 7.7 0l7.9 4.6c2.2 1.2 2.2 3.2 0.1 4.4-2.2 1.2-5.6 1.2-7.8 0l-7.9-4.6c-2.1-1.2-2.2-3.2 0-4.4zm-266.2-133l6.8-4c2.4-1.4 6.4-1.4 8.8 0l6.9 4c2.4 1.4 2.4 3.7 0 5.1l-6.8 3.9c-2.4 1.4-6.4 1.4-8.8 0l-6.9-4c-2.4-1.4-2.4-3.6 0-5zm26.8 20.5l-6.9-4c-2.4-1.4-2.4-3.6 0-5l6.8-4c2.5-1.4 6.4-1.4 8.8 0l6.9 4c2.4 1.4 2.4 3.7 0 5.1l-6.8 3.9c-2.4 1.4-6.4 1.4-8.8 0zm13 2.5l6.9-4c2.4-1.4 6.3-1.4 8.7 0l6.9 4c2.5 1.4 2.5 3.7 0 5.1l-6.8 3.9c-2.4 1.4-6.3 1.4-8.8 0l-6.9-4c-2.4-1.4-2.4-3.6 0-5zm19.9 11.5l6.9-4c2.4-1.4 6.3-1.4 8.8 0l6.8 4c2.5 1.4 2.5 3.7 0.1 5.1l-6.9 3.9c-2.4 1.4-6.3 1.4-8.8 0l-6.8-4c-2.5-1.4-2.5-3.6-0.1-5zm42.5 16.6l-6.9 3.9c-2.4 1.4-6.3 1.4-8.7 0l-6.9-4c-2.5-1.4-2.5-3.6-0.1-5l6.9-4c2.4-1.4 6.3-1.4 8.8 0l6.9 4c2.4 1.4 2.4 3.7 0 5.1zm19.9 11.5l-6.8 3.9c-2.5 1.4-6.4 1.4-8.8 0l-6.9-4c-2.4-1.4-2.4-3.6 0-5l6.8-4c2.4-1.4 6.4-1.4 8.8 0l6.9 4c2.4 1.4 2.4 3.7 0 5.1zm19.9 11.5l-6.8 3.9c-2.4 1.4-6.4 1.4-8.8 0l-6.9-4c-2.4-1.4-2.4-3.6 0-5l6.8-4c2.4-1.4 6.4-1.4 8.8 0l6.9 4c2.4 1.4 2.4 3.7 0 5.1zm19.9 11.5l-6.8 3.9c-2.4 1.4-6.3 1.4-8.8 0l-6.9-4c-2.4-1.4-2.4-3.6 0-5l6.8-4c2.5-1.4 6.4-1.4 8.8 0l6.9 4c2.4 1.4 2.5 3.7 0 5.1zm20 11.5l-6.9 3.9c-2.4 1.4-6.3 1.4-8.8 0l-6.9-4c-2.4-1.4-2.4-3.6 0-5l6.9-4c2.4-1.4 6.3-1.4 8.7 0l6.9 4c2.5 1.4 2.5 3.7 0.1 5.1zm19.9 11.5l-6.9 3.9c-2.4 1.4-6.3 1.4-8.7 0l-6.9-4c-2.5-1.4-2.5-3.6-0.1-5l6.9-4c2.4-1.4 6.3-1.4 8.8 0l6.8 4c2.5 1.4 2.5 3.7 0.1 5.1zm-2.6 6.4l6.8-4c2.4-1.4 6.3-1.4 8.8 0l6.9 4c2.4 1.4 2.4 3.7 0 5.1l-6.9 3.9c-2.4 1.4-6.3 1.4-8.7 0l-6.9-4c-2.4-1.4-2.5-3.6 0-5zm42.4 16.6l-6.8 3.9c-2.4 1.4-6.4 1.4-8.8 0l-6.9-4c-2.4-1.4-2.4-3.6 0-5l6.8-4c2.4-1.4 6.4-1.4 8.8 0l6.9 4c2.4 1.4 2.4 3.7 0 5.1zm29.2 16.8l-6.9 4c-2.4 1.4-6.3 1.3-8.7-0.1l-15.8-9c-2.4-1.4-2.4-3.7 0-5.1l6.9-4c2.4-1.3 6.3-1.3 8.7 0.1l15.8 9c2.4 1.4 2.4 3.7 0 5.1zm-289.3-137.8l6.9-3.9c2.4-1.4 6.3-1.4 8.7 0l15.8 9.1c2.4 1.4 2.4 3.6 0 5l-6.8 4c-2.5 1.4-6.4 1.4-8.8 0l-15.7-9.1c-2.5-1.4-2.5-3.7-0.1-5.1zm28.8 16.6l6.8-3.9c2.4-1.4 6.4-1.4 8.8 0l6.9 4c2.4 1.4 2.4 3.6 0 5l-6.8 4c-2.4 1.4-6.4 1.4-8.8 0l-6.9-4c-2.4-1.4-2.4-3.7 0-5.1zm19.9 16.6c-2.4-1.4-2.4-3.7 0-5.1l6.9-3.9c2.4-1.4 6.3-1.4 8.7 0l6.9 4c2.4 1.4 2.5 3.6 0 5l-6.8 4c-2.4 1.4-6.3 1.4-8.8 0zm19.9 11.5c-2.4-1.4-2.4-3.7 0-5.1l6.9-4c2.4-1.4 6.3-1.3 8.7 0.1l6.9 3.9c2.5 1.4 2.5 3.7 0 5.1l-6.8 4c-2.4 1.3-6.3 1.3-8.8-0.1zm35.5 2.5l6.9 4c2.5 1.4 2.5 3.7 0.1 5.1l-6.9 3.9c-2.4 1.4-6.3 1.4-8.8 0l-6.9-4c-2.4-1.4-2.4-3.6 0-5l6.9-4c2.4-1.4 6.3-1.4 8.7 0zm19.5 11.3l7.8 4.5c2.2 1.2 2.2 3.3 0 4.5l-7.7 4.5c-2.2 1.2-5.7 1.2-7.9 0l-7.8-4.5c-2.2-1.3-2.2-3.3 0-4.6l7.7-4.4c2.2-1.3 5.7-1.3 7.9 0zm31.2 87.5l-6.7 3.9c-2.5 1.4-6.5 1.4-9 0l-126.2-72.9c-2.4-1.4-2.5-3.8 0-5.2l6.7-3.8c2.4-1.4 6.4-1.4 8.9 0l126.2 72.9c2.5 1.4 2.5 3.7 0.1 5.1zm8.7-64.5l7.7 4.5c2.2 1.2 2.2 3.3 0 4.5l-7.7 4.5c-2.1 1.2-5.7 1.2-7.9 0l-7.7-4.5c-2.2-1.3-2.2-3.3 0-4.6l7.6-4.4c2.2-1.3 5.8-1.3 8 0zm19.9 11.5l7.7 4.5c2.2 1.2 2.2 3.3 0 4.5l-7.6 4.5c-2.2 1.2-5.8 1.2-8 0l-7.7-4.5c-2.2-1.3-2.2-3.3 0-4.6l7.7-4.4c2.1-1.3 5.7-1.3 7.9 0zm19.9 11.5l7.7 4.5c2.2 1.2 2.2 3.3 0.1 4.5l-7.7 4.5c-2.2 1.2-5.8 1.2-8 0l-7.7-4.5c-2.2-1.3-2.2-3.3 0-4.6l7.7-4.4c2.2-1.3 5.7-1.3 7.9 0zm12.1 25l-7.8-4.5c-2.2-1.3-2.2-3.3 0-4.6l7.7-4.4c2.2-1.3 5.7-1.3 7.9 0l7.8 4.5c2.2 1.2 2.2 3.3 0 4.5l-7.7 4.5c-2.2 1.2-5.7 1.2-7.9 0zm19.9 11.5l-7.8-4.5c-2.1-1.3-2.2-3.3 0-4.6l7.7-4.4c2.2-1.3 5.7-1.3 7.9 0l7.8 4.5c2.2 1.2 2.2 3.3 0 4.5l-7.7 4.5c-2.2 1.2-5.7 1.2-7.9 0zm35.9 7.3l-7.7 4.4c-2.1 1.3-5.7 1.3-7.9 0l-7.7-4.5c-2.2-1.2-2.2-3.3 0-4.6l7.6-4.4c2.2-1.3 5.8-1.2 8 0l7.7 4.5c2.2 1.3 2.2 3.3 0 4.6zm-290.1-137.3l7.7-4.5c2.2-1.2 5.8-1.2 8 0l24.9 14.5c2.2 1.2 2.2 3.3 0.1 4.5l-7.7 4.5c-2.2 1.2-5.8 1.2-8 0l-24.9-14.5c-2.2-1.2-2.2-3.3-0.1-4.5zm37.2 21.4l7.7-4.4c2.2-1.3 5.7-1.3 7.9 0l7.7 4.5c2.2 1.2 2.3 3.3 0.1 4.5l-7.7 4.5c-2.2 1.2-5.8 1.2-7.9 0l-7.8-4.5c-2.2-1.3-2.2-3.3 0-4.6zm19.9 11.5l7.7-4.4c2.2-1.3 5.7-1.3 7.9 0l7.8 4.5c2.2 1.2 2.2 3.3 0 4.5l-7.7 4.5c-2.2 1.2-5.7 1.2-7.9 0l-7.8-4.5c-2.2-1.3-2.2-3.3 0-4.6zm19.9 11.5l7.7-4.4c2.2-1.3 5.7-1.3 7.9 0l7.8 4.5c2.2 1.2 2.2 3.3 0 4.5l-7.7 4.5c-2.2 1.2-5.7 1.2-7.9 0l-7.7-4.5c-2.2-1.3-2.3-3.3-0.1-4.6zm27.7 20.6l-7.7-4.5c-2.2-1.3-2.2-3.3-0.1-4.6l7.7-4.4c2.2-1.3 5.8-1.3 8 0l7.7 4.5c2.2 1.2 2.2 3.3 0 4.5l-7.7 4.5c-2.1 1.2-5.7 1.2-7.9 0zm19.9 11.5l-7.7-4.5c-2.2-1.3-2.2-3.3 0-4.6l7.7-4.4c2.1-1.3 5.7-1.3 7.9 0l7.7 4.5c2.2 1.2 2.2 3.3 0 4.5l-7.6 4.5c-2.2 1.2-5.8 1.2-8 0zm19.9 11.5l-7.7-4.5c-2.2-1.3-2.2-3.3 0-4.6l7.7-4.4c2.2-1.3 5.7-1.3 7.9 0l7.7 4.5c2.2 1.2 2.2 3.3 0.1 4.5l-7.7 4.5c-2.2 1.2-5.8 1.2-8 0zm20 11.5l-7.8-4.5c-2.2-1.3-2.2-3.3 0-4.6l7.7-4.4c2.2-1.3 5.7-1.3 7.9 0l7.8 4.5c2.2 1.2 2.2 3.3 0 4.5l-7.7 4.5c-2.2 1.2-5.7 1.2-7.9 0zm19.9 11.5l-7.8-4.5c-2.2-1.3-2.2-3.3 0-4.6l7.7-4.4c2.2-1.3 5.7-1.3 7.9 0l7.8 4.5c2.2 1.2 2.2 3.3 0 4.5l-7.7 4.5c-2.2 1.2-5.7 1.2-7.9 0zm19.9 11.5l-7.7-4.5c-2.2-1.3-2.2-3.3-0.1-4.6l7.7-4.4c2.2-1.3 5.8-1.3 8 0l7.7 4.5c2.2 1.2 2.2 3.3 0 4.5l-7.7 4.5c-2.2 1.2-5.7 1.2-7.9 0zm12.2 2.4l7.6-4.4c2.2-1.3 5.8-1.3 8 0l7.7 4.5c2.2 1.2 2.2 3.3 0 4.5l-7.7 4.5c-2.1 1.2-5.7 1.2-7.9 0l-7.7-4.5c-2.2-1.3-2.2-3.3 0-4.6zm55.2 23l-7.7 4.5c-2.2 1.2-5.7 1.2-7.9-0.1l-19.7-11.3c-2.2-1.3-2.2-3.3 0-4.6l7.7-4.4c2.1-1.3 5.7-1.3 7.9 0l19.7 11.3c2.2 1.3 2.2 3.4 0 4.6zm-290-137.3l6.6-3.9c2.5-1.4 6.5-1.4 9 0l35.4 20.5c2.5 1.4 2.5 3.7 0 5.2l-6.6 3.8c-2.5 1.4-6.5 1.4-9 0l-35.4-20.5c-2.5-1.4-2.5-3.7 0-5.1zm48.6 28.1l6.7-3.9c2.4-1.4 6.4-1.4 8.9 0l6.7 3.9c2.5 1.4 2.5 3.7 0.1 5.2l-6.7 3.8c-2.5 1.4-6.5 1.4-9 0l-6.7-3.9c-2.4-1.4-2.5-3.7 0-5.1zm19.9 11.5l6.7-3.9c2.5-1.4 6.5-1.4 8.9 0l6.8 3.9c2.4 1.4 2.4 3.7 0 5.2l-6.7 3.8c-2.4 1.4-6.5 1.4-8.9 0l-6.7-3.9c-2.5-1.4-2.5-3.7-0.1-5.1zm19.9 11.5l6.7-3.9c2.5-1.4 6.5-1.4 9 0l6.7 3.9c2.5 1.4 2.5 3.7 0 5.2l-6.7 3.8c-2.4 1.4-6.4 1.4-8.9 0l-6.7-3.9c-2.5-1.4-2.5-3.7-0.1-5.1zm20 11.5l6.6-3.9c2.5-1.4 6.5-1.4 9 0l6.7 3.9c2.5 1.4 2.5 3.7 0 5.2l-6.6 3.8c-2.5 1.4-6.5 1.4-9 0l-6.7-3.9c-2.5-1.4-2.5-3.7 0-5.1zm19.9 11.5l6.6-3.9c2.5-1.4 6.5-1.4 9 0l6.7 3.9c2.5 1.4 2.5 3.7 0 5.2l-6.6 3.8c-2.5 1.4-6.5 1.4-9 0l-6.7-3.9c-2.5-1.4-2.5-3.7 0-5.1zm19.9 11.5l6.7-3.9c2.4-1.4 6.4-1.4 8.9 0l6.7 3.9c2.5 1.4 2.5 3.7 0.1 5.2l-6.7 3.8c-2.5 1.4-6.5 1.4-9 0l-6.7-3.9c-2.5-1.4-2.5-3.7 0-5.1zm19.9 11.5l6.7-3.9c2.4-1.4 6.5-1.4 8.9 0l6.7 3.9c2.5 1.4 2.5 3.7 0.1 5.2l-6.7 3.8c-2.5 1.4-6.5 1.4-9 0l-6.7-3.9c-2.4-1.4-2.4-3.7 0-5.1zm19.9 11.5l6.7-3.9c2.5-1.4 6.5-1.4 9 0l6.7 3.9c2.4 1.4 2.5 3.7 0 5.2l-6.7 3.8c-2.4 1.4-6.5 1.4-8.9 0l-6.7-3.9c-2.5-1.4-2.5-3.7-0.1-5.1zm20 11.5l6.6-3.9c2.5-1.4 6.5-1.4 9 0l6.7 3.9c2.5 1.4 2.5 3.7 0 5.2l-6.7 3.8c-2.4 1.4-6.4 1.4-8.9 0l-6.7-3.9c-2.5-1.4-2.5-3.7 0-5.1zm19.9 11.5l6.6-3.9c2.5-1.4 6.5-1.4 9 0l6.7 3.9c2.5 1.4 2.5 3.7 0 5.2l-6.6 3.8c-2.5 1.4-6.5 1.4-9 0l-6.7-3.9c-2.5-1.4-2.5-3.7 0-5.1zm42.7 16.9l-6.7 3.9c-2.4 1.4-6.5 1.4-8.9 0l-6.7-3.9c-2.5-1.5-2.5-3.8-0.1-5.2l6.7-3.8c2.5-1.5 6.5-1.5 9 0l6.7 3.8c2.4 1.5 2.5 3.8 0 5.2zm-257.9-127.6l-6.7 3.9c-2.4 1.4-6.4 1.4-8.9 0l-15.6-9c-2.4-1.4-2.5-3.8 0-5.2l6.7-3.8c2.4-1.4 6.5-1.4 8.9 0l15.6 9c2.5 1.4 2.5 3.7 0 5.1zm19.9 11.5l-6.6 3.9c-2.5 1.4-6.5 1.4-9 0l-6.7-3.9c-2.5-1.4-2.5-3.8 0-5.2l6.6-3.8c2.5-1.4 6.5-1.4 9 0l6.7 3.9c2.5 1.4 2.5 3.7 0 5.1zm19.9 11.5l-6.6 3.9c-2.5 1.4-6.5 1.4-9 0l-6.7-3.9c-2.5-1.4-2.5-3.8 0-5.2l6.6-3.8c2.5-1.4 6.5-1.4 9 0l6.7 3.9c2.5 1.4 2.5 3.7 0 5.1zm128.3 4.5l7.7 4.5c2.2 1.2 2.2 3.3 0 4.5l-7.7 4.5c-2.2 1.2-5.7 1.2-7.9 0l-7.7-4.5c-2.2-1.3-2.3-3.3-0.1-4.6l7.7-4.4c2.2-1.3 5.8-1.3 8 0zm31.1 87.5l-6.7 3.9c-2.4 1.4-6.5 1.4-8.9 0l-6.7-3.9c-2.5-1.4-2.5-3.8-0.1-5.2l6.7-3.8c2.5-1.4 6.5-1.4 9 0l6.7 3.9c2.4 1.4 2.5 3.7 0 5.1zm19.9 11.5l-6.7 3.9c-2.4 1.4-6.4 1.4-8.9 0l-6.7-3.9c-2.5-1.4-2.5-3.8 0-5.2l6.6-3.8c2.5-1.4 6.5-1.4 9 0l6.7 3.9c2.5 1.4 2.5 3.7 0 5.1zm20.3 11.8l-6.6 3.8c-2.5 1.4-6.5 1.4-9 0l-6.7-3.9c-2.5-1.4-2.5-3.7 0-5.1l6.6-3.9c2.5-1.4 6.5-1.4 9 0l6.7 3.9c2.5 1.4 2.5 3.7 0 5.2z"/>
				<g id="&lt;Group&gt;">
					<path id="&lt;Path&gt;" class="s6" d="m485.3 458.3l-268.3-154.9c-10.3-6-15.7-21.1-12-33.8l55.5-192.6c3.6-12.7 14.9-18.1 25.1-12.2l268.4 155c10.2 6 15.6 21.1 11.9 33.8l-55.4 192.6c-3.7 12.7-15 18.1-25.2 12.1z"/>
					<g id="&lt;Group&gt;">
						<path id="&lt;Path&gt;" class="s8" d="m490.9 448.5l-265.5-153.2c-8.1-5.3-11.2-15.2-8.4-25.2l55.8-193.6c0.6-2.3 4.3-3.7 6.4-2.4q0.4 0.3 0.6 0.4l265.7 153.4c9.9 5.7 11.3 15.2 8.4 25.2l-55.6 193.1c-0.7 2.5-4.6 4-7 2.6q-0.3-0.2-0.4-0.3z"/>
					</g>
					<g id="&lt;Group&gt;">
						<g id="&lt;Group&gt;">
							<path id="&lt;Compound Path&gt;" fill-rule="evenodd" class="s9" d="m553.9 253.1l-55.6 193.1c-0.7 2.5-4.6 4-7 2.6q-0.3-0.2-0.4-0.3l-265.5-153.2c-8.1-5.3-11.2-15.2-8.4-25.2l55.8-193.6c0.6-2.3 4.3-3.7 6.4-2.4q0.4 0.3 0.6 0.4l265.7 153.4c9.9 5.7 11.3 15.2 8.4 25.2zm-2.4-0.1c2.1-7.5 2.5-17.6-7.7-23.5l-266.3-153.7q-0.2-0.2-0.6-0.2c-0.7-0.1-1.5 0.3-1.7 1l-55.8 193.6c-2.7 9.5 0.3 18.7 7.7 23.5l265.9 153.5q0.4 0.2 0.8 0.2c0.8 0 1.8-0.5 2.1-1.3z"/>
						</g>
					</g>
					<path id="&lt;Path&gt;" class="s3" d="m560.8 217.4l-268.3-154.9c-4.1-2.4-8.3-2.9-12.2-2-0.4 0.1-7.2 2.4-7.6 2.6q-0.1 0-0.1 0c4.1-1.3 8.7-0.8 13 1.7l268.4 155c10.2 6 15.6 21.1 11.9 33.8l-55.4 192.6c-2.3 7.9-7.6 13-13.7 14.3 0.5 0 1.1-0.1 2.1-0.5 0.3-0.1 7.6-2.8 7.9-2.9 4.7-2.1 8.6-6.7 10.5-13.2l55.5-192.7c3.6-12.6-1.8-27.8-12-33.8z"/>
					<path id="&lt;Path&gt;" class="s7" d="m560.8 217.4l-268.3-154.9c-4.1-2.4-8.3-2.9-12.2-2-0.4 0.1-7.2 2.4-7.6 2.6q-0.1 0-0.1 0c4.1-1.3 8.7-0.8 13 1.7l268.4 155z"/>
					<path id="&lt;Path&gt;" class="s10" d="m555.1 219.4l-268.3-154.9c-4.2-2.5-8.6-3-12.5-1.9 3.1-0.2 6.5 0.5 9.7 2.4l268.4 154.9c10.2 6 15.6 21.1 11.9 33.8l-55.4 192.6c-2.2 7.5-7 12.5-12.7 14 6.9-0.5 12.9-5.8 15.4-14.5l55.5-192.6c3.6-12.7-1.7-27.8-12-33.8z"/>
				</g>
			</g>
		</g>
		<g id="&lt;Group&gt;">
			<g id="&lt;Group&gt;">
				<path id="&lt;Path&gt;" class="s0" d="m104.6 247.3v49.5l7.4-4.2v-49.8z"/>
				<path id="&lt;Path&gt;" class="s7" d="m104.6 247.3v49.5l-44-25.5v-49.8z"/>
				<path id="&lt;Path&gt;" class="s6" d="m60.6 221.5l44 25.8 7.4-4.5-44.1-25.7z"/>
				<path id="&lt;Path&gt;" class="s11" d="m60.6 221.5l44 25.8 7.4-4.5-7.7 2.1z"/>
			</g>
			<g id="&lt;Group&gt;">
				<path id="&lt;Path&gt;" class="s0" d="m104.6 182.2v49.5l7.4-4.1v-49.9z"/>
				<path id="&lt;Path&gt;" class="s7" d="m104.6 182.2v49.5l-44-25.5v-49.8z"/>
				<g id="&lt;Group&gt;">
					<path id="&lt;Compound Path&gt;" class="s6" d="m78.2 301.9q-0.3 0-0.5-0.1l-3.5-2.1c-0.4-0.2-0.6-0.9-0.3-1.3 0.3-0.5 0.9-0.7 1.3-0.4l3.5 2c0.5 0.3 0.6 0.9 0.3 1.4-0.1 0.3-0.5 0.5-0.8 0.5zm-8.6-5.1q-0.3 0-0.5-0.1l-3.5-2c-0.5-0.3-0.6-0.9-0.4-1.4 0.3-0.5 0.9-0.6 1.4-0.4l3.5 2.1c0.4 0.2 0.6 0.9 0.3 1.3-0.2 0.4-0.5 0.5-0.8 0.5zm-8.7-5q-0.2 0-0.5-0.2l-2.5-1.5q-0.5-0.2-1-0.5c-0.4-0.3-0.5-1-0.2-1.4 0.3-0.5 0.9-0.6 1.3-0.3q0.4 0.3 0.9 0.5l2.5 1.5c0.5 0.3 0.7 0.9 0.4 1.4-0.2 0.3-0.5 0.5-0.9 0.5zm-7.8-6.1c-0.3 0-0.6-0.1-0.8-0.4q-1.3-1.6-2.2-3.5c-0.3-0.5-0.1-1.1 0.4-1.4 0.5-0.2 1.1 0 1.4 0.5q0.8 1.7 2 3.2c0.3 0.4 0.2 1-0.2 1.4q-0.3 0.2-0.6 0.2zm-3.9-9.1c-0.5 0-0.9-0.3-1-0.8q-0.2-1.5-0.2-2.9v-1.3c0-0.5 0.4-1 1-1 0.5 0 1 0.5 1 1v1.3q0 1.3 0.2 2.6c0 0.5-0.3 1-0.9 1.1q-0.1 0-0.1 0zm-0.2-10c-0.6 0-1-0.4-1-1v-4c0-0.5 0.4-1 1-1 0.5 0 1 0.5 1 1v4c0 0.6-0.5 1-1 1zm0-10c-0.6 0-1-0.4-1-1v-4c0-0.5 0.4-1 1-1 0.5 0 1 0.5 1 1v4c0 0.6-0.5 1-1 1zm0-10c-0.6 0-1-0.4-1-1v-4c0-0.5 0.4-1 1-1 0.5 0 1 0.5 1 1v4c0 0.6-0.5 1-1 1zm0-10c-0.6 0-1-0.4-1-1v-4c0-0.5 0.4-1 1-1 0.5 0 1 0.5 1 1v4c0 0.6-0.5 1-1 1zm0-10c-0.6 0-1-0.4-1-1v-4c0-0.5 0.4-1 1-1 0.5 0 1 0.5 1 1v4c0 0.6-0.5 1-1 1zm0-10c-0.6 0-1-0.4-1-1v-4c0-0.5 0.4-1 1-1 0.5 0 1 0.5 1 1v4c0 0.6-0.5 1-1 1zm0-10c-0.6 0-1-0.4-1-1v-4c0-0.5 0.4-1 1-1 0.5 0 1 0.5 1 1v4c0 0.6-0.5 1-1 1zm0-10c-0.6 0-1-0.4-1-1v-4c0-0.5 0.4-1 1-1 0.5 0 1 0.5 1 1v4c0 0.6-0.5 1-1 1z"/>
				</g>
				<path id="&lt;Path&gt;" class="s6" d="m60.6 156.4l44 25.8 7.4-4.5-44.1-25.7z"/>
				<path id="&lt;Path&gt;" class="s11" d="m60.6 156.4l44 25.8 7.4-4.5-7.7 2.1z"/>
			</g>
			<g id="&lt;Group&gt;">
				<g id="&lt;Group&gt;">
					<path id="&lt;Compound Path&gt;" fill-rule="evenodd" class="s4" d="m74.9 188.8q0.1 0.2 0.1 0.5v1.6q0 0.2-0.1 0.3-0.1 0-0.4-0.1l-9.3-5.4q-0.2-0.1-0.3-0.3-0.2-0.3-0.2-0.5v-1.1q0-0.7 0.5-0.8l3.1-1.7q1.4-0.5 2.1-0.8 0.8-0.4 1.1-0.8 0.4-0.5 0.4-1.1 0-1.1-0.5-2-0.5-0.9-1.5-1.4-0.9-0.6-1.5-0.3-0.6 0.4-0.7 1.3-0.1 0.3-0.2 0.3-0.2 0-0.4-0.1l-1.7-1q-0.2-0.1-0.3-0.3-0.1-0.2-0.1-0.4 0-1.3 0.6-2.1 0.6-0.8 1.7-0.9 1.1 0 2.6 0.8 1.6 0.9 2.7 2.2 1 1.2 1.6 2.6 0.5 1.4 0.5 2.8 0 1.5-0.7 2.3-0.7 0.7-2.3 1.2l-2.7 1.6 5.5 3.2q0.3 0.1 0.4 0.4zm8.8 7.6l-1.8-1q-0.2-0.1-0.3-0.4-0.1-0.2-0.1-0.4v-2.9l-6.2-3.5q-0.2-0.2-0.3-0.4-0.2-0.2-0.2-0.4v-1.6q0-0.3 0.3-0.5l5.7-5.8q0.1-0.2 0.3-0.1 0.2 0 0.4 0.1l2.2 1.2q0.2 0.2 0.3 0.4 0.1 0.2 0.1 0.4v9.1l1.8 1q0.2 0.1 0.3 0.3 0.1 0.3 0.1 0.5v1.6q0 0.2-0.1 0.3-0.1 0.1-0.3 0l-1.8-1v2.8q0 0.2-0.1 0.3-0.1 0.1-0.3 0zm-2.2-13.6l-3.9 4.1 3.9 2.3zm9.9 10.5l-6.7 14.4q0 0.2-0.2 0.3-0.1 0-0.4-0.1l-1.3-0.8q-0.1-0.1-0.2-0.3-0.1-0.2-0.1-0.4 0-0.1 0-0.2l6.6-14.4q0.1-0.1 0.2-0.2 0.2-0.1 0.4 0.1l1.3 0.7q0.2 0.1 0.3 0.3 0.1 0.2 0.1 0.4 0 0.2 0 0.2zm9 10.7v1.4q0 0.5-0.2 0.9l-4.6 9.5q-0.1 0.2-0.3 0.2-0.1 0.1-0.3 0l-1.9-1.1q-0.1-0.1-0.2-0.3-0.2-0.2-0.2-0.4 0-0.1 0.1-0.2l4.6-9.6-6-3.5q-0.2-0.1-0.4-0.3-0.1-0.3-0.1-0.5v-1.6q0-0.2 0.1-0.3 0.1-0.1 0.4 0.1l8.5 4.9q0.2 0.1 0.4 0.4 0.1 0.2 0.1 0.4z"/>
				</g>
			</g>
			<g id="&lt;Group&gt;">
				<path id="&lt;Path&gt;" class="s4" d="m69.2 252.9l12.3 7v-2.5l-12.3-7z"/>
				<path id="&lt;Compound Path&gt;" fill-rule="evenodd" class="s4" d="m100 260.4v17.6c0 2-1.5 2.9-3.3 1.8l-28.4-16.4c-1.8-1-3.2-3.5-3.2-5.6v-17.5c0-2.1 1.4-3 3.2-1.9l28.4 16.4c1.8 1 3.3 3.5 3.3 5.6zm-1.8 16.6v-13.6l-31.4-18.2v13.6c0 1 0.7 2.2 1.5 2.6l28.4 16.4c0.8 0.5 1.5 0.1 1.5-0.8z"/>
			</g>
		</g>
		<g id="&lt;Group&gt;">
			<g id="&lt;Group&gt;" style="mix-blend-mode: multiply">
				<path id="&lt;Path&gt;" class="s12" d="m245.7 129l22.7 11.6c10.8 6.3 19.6 23.1 19.6 37.5v75.4c0 14.4-8.8 21.1-19.6 14.8l-53.3-32z"/>
				<path id="&lt;Path&gt;" class="s13" d="m245.3 129.6l22 11.3c10.8 6.2 19.5 22.8 19.5 37.1v74.4c0 14.3-8.7 20.9-19.5 14.7l-52-31.2z"/>
				<path id="&lt;Path&gt;" class="s14" d="m244.9 130.3l21.4 10.9c10.6 6.2 19.2 22.6 19.2 36.7v73.5c0 14.1-8.6 20.6-19.2 14.5l-50.7-30.4z"/>
				<path id="&lt;Path&gt;" class="s15" d="m244.5 130.9l20.7 10.7c10.5 6 19 22.2 19 36.2v72.6c0 14-8.5 20.4-19 14.3l-49.3-29.6z"/>
				<path id="&lt;Path&gt;" class="s16" d="m244.1 131.5l20 10.4c10.4 6 18.8 22 18.8 35.8v71.7c0 13.8-8.4 20.1-18.8 14.1l-47.9-28.8z"/>
				<path id="&lt;Path&gt;" class="s17" d="m243.7 132.2l19.4 10c10.2 5.9 18.5 21.7 18.5 35.3v70.8c0 13.7-8.3 19.9-18.5 14l-46.6-28z"/>
				<path id="&lt;Path&gt;" class="s18" d="m243.2 132.8l18.8 9.8c10.1 5.8 18.3 21.4 18.3 34.8v69.9c0 13.5-8.2 19.6-18.3 13.8l-45.2-27.2z"/>
				<path id="&lt;Path&gt;" class="s19" d="m242.8 133.4l18.1 9.5c10 5.7 18.1 21.1 18.1 34.4v69c0 13.3-8.1 19.4-18.1 13.6l-43.8-26.4z"/>
				<path id="&lt;Path&gt;" class="s20" d="m242.4 134.1l17.5 9.1c9.8 5.7 17.8 20.9 17.8 34v68.1c0 13.1-8 19.1-17.8 13.4l-42.6-25.6z"/>
				<path id="&lt;Path&gt;" class="s21" d="m242 134.7l16.8 8.8c9.7 5.6 17.6 20.6 17.6 33.6v67.2c0 12.9-7.9 18.8-17.6 13.2l-41.2-24.8z"/>
				<path id="&lt;Path&gt;" class="s22" d="m241.6 135.3l16.1 8.6c9.6 5.5 17.4 20.3 17.4 33v66.3c0 12.8-7.8 18.6-17.4 13.1l-39.8-23.9z"/>
				<path id="&lt;Path&gt;" class="s23" d="m241.2 136l15.5 8.2c9.4 5.4 17.1 20 17.1 32.6v65.4c0 12.6-7.7 18.4-17.1 12.9l-38.5-23.1z"/>
				<path id="&lt;Path&gt;" class="s24" d="m240.8 136.6l14.8 7.9c9.3 5.4 16.9 19.8 16.9 32.2v64.5c0 12.4-7.6 18.1-16.9 12.7l-37.1-22.3z"/>
				<path id="&lt;Path&gt;" class="s25" d="m240.4 137.2l14.2 7.6c9.1 5.3 16.6 19.5 16.6 31.8v63.6c0 12.2-7.5 17.8-16.6 12.5l-35.8-21.5z"/>
				<path id="&lt;Path&gt;" class="s26" d="m239.9 137.9l13.6 7.3c9 5.2 16.4 19.2 16.4 31.3v62.7c0 12-7.4 17.5-16.4 12.3l-34.4-20.7z"/>
				<path id="&lt;Path&gt;" class="s27" d="m239.5 138.5l12.9 7c8.9 5.2 16.2 19 16.2 30.8v61.8c0 11.9-7.3 17.4-16.2 12.2l-33.1-19.9z"/>
				<path id="&lt;Path&gt;" class="s28" d="m239.1 139.1l12.3 6.7c8.7 5.1 15.9 18.7 15.9 30.4v60.9c0 11.7-7.2 17.1-15.9 12l-31.8-19.1z"/>
				<path id="&lt;Path&gt;" class="s29" d="m238.7 139.8l11.6 6.4c8.6 5 15.7 18.4 15.7 29.9v60c0 11.5-7.1 16.8-15.7 11.8l-30.4-18.3z"/>
				<path id="&lt;Path&gt;" class="s30" d="m238.3 140.4l10.9 6.1c8.6 4.9 15.5 18.1 15.5 29.5v59.1c0 11.3-6.9 16.6-15.5 11.6l-29-17.5z"/>
				<path id="&lt;Path&gt;" class="s31" d="m237.9 141.1l10.3 5.7c8.4 4.9 15.2 17.9 15.2 29.1v58.1c0 11.2-6.8 16.4-15.2 11.5l-27.7-16.7z"/>
				<path id="&lt;Path&gt;" class="s32" d="m237.5 141.7l9.6 5.4c8.3 4.8 15 17.6 15 28.6v57.3c0 11-6.7 16.1-15 11.3l-26.3-15.9z"/>
				<path id="&lt;Path&gt;" class="s33" d="m237.1 142.3l8.9 5.2c8.2 4.7 14.8 17.3 14.8 28.1v56.4c0 10.8-6.6 15.8-14.8 11.1l-24.9-15.1z"/>
			</g>
			<g id="&lt;Group&gt;">
				<path id="&lt;Path&gt;" class="s0" d="m251.7 150.8v100.6l6.2-3.4v-101z"/>
				<path id="&lt;Path&gt;" class="s3" d="m251.7 150.8v100.6l-191.3-111.5v-101z"/>
				<path id="&lt;Path&gt;" class="s7" d="m60.4 38.9l191.3 111.9 6.2-3.8-191.4-111.8z"/>
			</g>
			<g id="&lt;Group&gt;">
				<path id="&lt;Path&gt;" class="s4" d="m238.7 177.3l-21.5-12.2v4.9l21.5 12.2z"/>
				<path id="&lt;Path&gt;" class="s4" d="m213.7 163.1l-45.4-25.9v4.8l45.4 26z"/>
				<path id="&lt;Path&gt;" class="s34" d="m164.8 135.1l-50-29v4.9l50 29z"/>
				<path id="&lt;Path&gt;" class="s4" d="m111.3 104.1l-39.7-23.2v4.9l39.7 23.2z"/>
				<path id="&lt;Path&gt;" class="s35" d="m180.1 123.6l-108.5-63.3v8.8l108.5 63.3z"/>
				<path id="&lt;Path&gt;" class="s35" d="m173.3 156.3l17.9 10.7v-4.9l-17.9-10.7z"/>
				<path id="&lt;Path&gt;" class="s4" d="m123.7 127.6l46.1 26.7v-4.9l-46.1-26.7z"/>
				<path id="&lt;Path&gt;" class="s4" d="m120.2 120.7l-48.6-28.4v4.9l48.6 28.3z"/>
				<path id="&lt;Path&gt;" class="s4" d="m231.7 196.8l-48.2-27.6v4.9l48.2 27.6z"/>
				<path id="&lt;Path&gt;" class="s4" d="m180 167.2l-43.6-25.3v4.9l43.6 25.3z"/>
				<path id="&lt;Path&gt;" class="s4" d="m132.9 139.9l-4.4-2.5v4.8l4.4 2.6z"/>
				<path id="&lt;Path&gt;" class="s4" d="m239 201.1l-4.3-2.6v4.9l4.3 2.5z"/>
				<path id="&lt;Path&gt;" class="s4" d="m125 135.3l-53.4-31v4.9l53.4 31z"/>
				<path id="&lt;Path&gt;" class="s4" d="m208.7 195.8l-40.4-23.3v4.9l40.4 23.3z"/>
				<path id="&lt;Path&gt;" class="s35" d="m164.8 170.5l-44.8-26v4.8l44.8 26.1z"/>
				<path id="&lt;Path&gt;" class="s4" d="m116.5 142.4l-44.9-26.2v4.9l44.9 26.2z"/>
				<path id="&lt;Path&gt;" class="s4" d="m173.3 191.7l14.6 8.4v-4.9l-14.6-8.4z"/>
				<path id="&lt;Path&gt;" class="s4" d="m123.7 162.9l46.1 26.7v-4.8l-46.1-26.8z"/>
				<path id="&lt;Path&gt;" class="s34" d="m120.2 156l-48.6-28.4v4.9l48.6 28.4z"/>
				<path id="&lt;Path&gt;" class="s4" d="m238.9 224.3l-47.5-27.1v4.9l47.5 27.1z"/>
				<path id="&lt;Path&gt;" class="s34" d="m238.9 213.1l-26.7-15.3v4.9l26.7 15.3z"/>
				<path id="&lt;Path&gt;" class="s35" d="m238.9 189.4l-44.2-25.3v4.9l44.2 25.3z"/>
			</g>
		</g>
		<g id="&lt;Group&gt;" style="opacity: .2">
			<path id="&lt;Path&gt;" class="s36" d="m396 369.6v8.4l21.7-13.1 3-9.9z"/>
			<path id="&lt;Path&gt;" class="s37" d="m396 369.6v8.4l-84.8-49v-8.3z"/>
			<path id="&lt;Path&gt;" class="s38" d="m311.2 320.7l84.8 48.9 24.7-14.6-84.9-49z"/>
		</g>
		<g id="&lt;Group&gt;">
			<path id="&lt;Path&gt;" class="s39" d="m252.4 388.1l84.8 49 55.6-33.2-84.9-49z"/>
			<path id="&lt;Path&gt;" class="s40" d="m311.8 328.8l84.8 48.9-4.2 26.6-84.8-49z"/>
			<path id="&lt;Path&gt;" class="s36" d="m343.2 401.1v8.4l52.6-31.7 3-9.9z"/>
			<path id="&lt;Path&gt;" class="s37" d="m343.3 401.1v8.4l-84.8-49.1v-8.3z"/>
			<path id="&lt;Path&gt;" class="s38" d="m258.5 352.1l84.8 49 55.5-33.2-84.8-49z"/>
			<path id="&lt;Path&gt;" class="s41" d="m258.5 352.1l84.8 49 55.5-33.2-55.3 31.8z"/>
		</g>
		<g id="&lt;Group&gt;">
			<g id="&lt;Group&gt;">
				<path id="&lt;Path&gt;" class="s1" d="m289.6 188.2c1.5 0.3 4.4 0.6 4.2 6.4-0.3 5.9-0.7 11.4 0.5 20 0.4 2.6 2.3 4.7 1.5 6.2-0.8 1.5-3 0.5-3.6-0.9-0.7-1.5-1.4-4.1-1.4-4.1 0 0 0 6.3 1 7.9 1 1.6 3 3.4 1.9 5-1.2 1.6-4.1-1.3-4.8-3.1-0.8-1.9-1.2-4.3-1.2-4.3 0 0 0.1 3.9 1.1 7.6 0.5 2.1 3.2 5 2.2 5.9-1.3 1.2-3 0.2-4.4-2.4-0.8-1.7-1-2.4-1-2.4 0 0 1 5.6 0.5 6.4-0.4 0.8-2.5 1.7-3.4-1.3-0.8-2.7-3.5-21-3.8-32.6-0.1-5.1 0.5-9 1.6-11.7 1-2.2 5.2-3.3 9.1-2.6z"/>
				<path id="&lt;Path&gt;" class="s0" d="m280.9 189.2c0.4 3.2 3.2 5.4 6.4 5 3.1-0.4 5.4-3.2 5-6.4-0.4-3.1-3.3-5.4-6.4-5-3.2 0.4-5.4 3.3-5 6.4z"/>
				<path id="&lt;Path&gt;" class="s1" d="m300.1 140.9c-0.6 6.2-3.7 19.7-5 26.4-1.2 6.7-2.6 13-2.7 17.3-0.1 3.8-2.1 6.9-7.6 5.5-5.5-1.4-4.4-6.7-4.5-11.2-0.1-10.6 0.9-43.2 4.6-52.2 2.2-5.1 16.6-1.9 15.2 14.2z"/>
				<path id="&lt;Path&gt;" class="s42" d="m290.8 144.3c-0.6 5.4-4 32.6-4.3 36.4-0.2 3.2-1 8.5-2.9 6.7-1.9-1.8-2.1-6-1.8-10 0.6-9.1 2.4-36.4 4.2-43.8 0.5-2 6.3-3 4.8 10.7z"/>
				<path id="&lt;Path&gt;" class="s0" d="m290.1 132.3c3.5 1.8 7.8 0.6 9.7-2.9 1.8-3.4 0.6-7.8-2.9-9.6-3.4-1.9-7.7-0.6-9.6 2.8-1.9 3.5-0.6 7.8 2.8 9.7z"/>
				<path id="&lt;Path&gt;" class="s0" d="m298.3 86.3c4.2 3 12.1-6.7 15.1-10.9 3-4.1 2.1-10-2.1-13-4.2-3.1-10-2.1-13 2.1-3.1 4.1-4.1 18.7 0 21.8z"/>
				<path id="&lt;Path&gt;" class="s1" d="m293.9 71.5c3.1-2.2 16.5 6.7 17.8 9.4 1.3 2.7-4 21.6-6.9 31.6-3.3 11.4-3.9 14.7-8.5 15.3-5 0.6-8.3-1.9-9-4.1-1.8-6.2 2.9-49.5 6.6-52.2z"/>
				<path id="&lt;Path&gt;" class="s42" d="m294.6 75.8c2.5-2.5 5.6-0.5 6.6 1.6 1 2-1.6 13.6-3.5 27.6-1.4 10.7-1.4 15.4-3.2 18-2.4 3.5-4.8 0.2-5.3-1.5-1.3-4.9 2.4-42.6 5.4-45.7z"/>
				<path id="&lt;Path&gt;" class="s43" d="m366.1 381.5c-28.4 11.9-42.5 2.5-63.9-9.9-21.3-12.3-23.8-24.5-7.3-32.2 31-14.5 48.6 0.2 70 12.5 21.4 12.3 17.9 22.6 1.2 29.6z"/>
				<path id="&lt;Path&gt;" class="s1" d="m329.6 331.3c3.5 1.5 6.3 3.8 7.1 8.7 0.8 4.9 0.3 11.1-7.4 11.6-7.6 0.5-12.2 1.6-16.6 5-4.4 3.3-18.3 5.4-21.7 1.5-3.3-3.8 1.5-6.3 5.5-8.8 4-2.4 10.5-6.4 14.9-11.8 4.4-5.4 7.1-5.4 8.6-6 1.6-0.6 6.9-1.4 9.6-0.2z"/>
				<path id="&lt;Path&gt;" class="s0" d="m336.7 340c-0.1-0.4-0.2-0.7-0.3-1 0.5 4.6-0.4 9.9-7.5 10.4-7.6 0.5-12.2 1.6-16.6 5-4.4 3.3-18.3 5.4-21.7 1.5q-0.4-0.4-0.6-0.9c-0.2 1 0 2 1 3.1 3.4 3.9 17.3 1.8 21.7-1.5 4.4-3.4 9-4.5 16.6-5 7.7-0.5 8.2-6.7 7.4-11.6z"/>
				<path id="&lt;Path&gt;" class="s42" d="m323.9 337.6c4.4 1.1 5.9-0.9 6.5 2.8 0.5 3.6 0.2 6.2-5.5 6.6-5.7 0.4-9.1 1.2-12.4 3.7-3.3 2.5-17.6 8.1-19.8 5-1.5-2.2 4.7-5.4 7.7-7.2 3-1.9 7.8-4.8 11.1-8.9 3.3-4 5.2-4 6.4-4.4 1.2-0.4 2.1 1.5 6 2.4z"/>
				<path id="&lt;Path&gt;" class="s0" d="m321.6 259.8c2 3.4 2.7 11.2 4.7 20.6 2 9.4 6.4 22.2 5.7 34.3-0.7 12 2 19 0.3 20.8-1.8 1.9-5.4 2.5-8.4 0.7-2.9-1.7-4.9-3-4.1-4.8 0.8-1.7 4.6-8.3 1.4-22.7-3.2-14.4-7.8-33.7-9.5-35.5-1.7-1.7-3.6-1.2-5.7-4.3-2-3 12.1-14.9 15.6-9.1z"/>
				<path id="&lt;Path&gt;" class="s1" d="m334 327.8c-2.2 2.7-11.5 0.7-13.3-1.2-1.8-2-6.2-24.3-9.8-36.9-3.3-11.3-7.3-20.6-5.6-23.2 1.6-2.6 8.9-12.2 16-8.8 7.1 3.5 8.9 21.2 10.7 33 1.9 11.8 4.3 34.3 2 37.1z"/>
				<path id="&lt;Path&gt;" class="s42" d="m326.6 325.2c-1.1 2.5-3.6 1.5-4.7-0.1-1.1-1.7-5.2-19.3-7.9-30.2-2.4-9.7-5.5-18.6-4.7-20.9 0.4-1.3 1.9-0.7 4.8-1.2 1.8-0.3 3.9 0.9 4.4 3 2.4 11.9 3.4 18 5.8 30.4 2 10.2 3.4 16.6 2.3 19z"/>
				<path id="&lt;Path&gt;" class="s1" d="m363.2 349.3c3.3 3.7 5.1 9 3.3 14-1.7 5-5.8 12.9-9.6 16.5-3.9 3.7-8.7 9.1-17 6.1-8.3-3-0.7-15.2 1.8-18.3 2.4-3.1 5.6-8.4 6.2-12.6 0.7-4.3 2.6-5.1 4.8-5.3 2.3-0.2 8.3-3 10.5-0.4z"/>
				<path id="&lt;Path&gt;" class="s0" d="m365.7 353.1c0.9 2.6 1 5.5 0.1 8.2-1.8 5-5.9 13-9.7 16.6-3.8 3.6-8.6 9.1-17 6.1-1.3-0.5-2.2-1.3-2.8-2.2 0.3 1.8 1.4 3.3 3.6 4.1 8.3 3 13.1-2.4 17-6.1 3.8-3.6 7.9-11.5 9.6-16.5 1.3-3.5 0.7-7.1-0.8-10.2z"/>
				<path id="&lt;Path&gt;" class="s42" d="m357.9 355.3c4.4-0.4 4.9 0.1 5.5 1.4 1.1 2.3-0.4 3-1.4 5.5-1.5 4-5.4 9.9-8.4 13.1-4.2 4.4-7.9 8.1-13 6.7-6.1-1.7 0.8-11.4 3-13.9 2.1-2.5 4.8-6.6 5.4-10 0.6-3.3 0.8-4.5 2.8-4.7 1.9-0.1 1.5 2.3 6.1 1.9z"/>
				<path id="&lt;Path&gt;" class="s0" d="m357.9 282.5c2 5.3 3.8 12.4 4.2 23.9 0.5 11.5-0.2 28.5-0.3 33.5-0.1 5 0.8 7.4 0.9 9.3 0.1 1.9-2.2 6.3-6.7 4.9-4.5-1.4-7.1-4.1-6.2-6.7 0.9-2.5 4-13.5 2.3-28-1.8-14.5-4.5-25.2-5.4-26.7-1-1.5-3.4-3.2-4.1-5.2-0.8-2 11.1-15.9 15.3-5z"/>
				<path id="&lt;Path&gt;" class="s1" d="m364.1 341c-0.1 2.1-1.7 3.9-3.8 4.3-3.8 0.6-8.8-0.3-10.2-2.1-2-2.4-4.8-25.1-6.5-35.4-1.6-8.9-5.6-18.3-1.6-21 4.1-2.7 9.5-10 16.2-7.3 4 1.6 6.4 21.5 6.5 41 0.1 8.3-0.3 16.4-0.6 20.5z"/>
				<path id="&lt;Path&gt;" class="s42" d="m356.7 341.3c-1.5 2.1-4.4 2-5.5 0.1-1-2-3.9-23-5.4-33.3-1-7-3.7-17-0.9-15.9 2.6 1 3.7 1.2 6.9 1.7 2.4 0.4 1.3 12.1 2.5 24.6 0.8 9.4 2.4 22.8 2.4 22.8z"/>
				<path id="&lt;Path&gt;" class="s0" d="m303.6 261.6c0 4.9 4 8.9 8.9 8.9 4.9 0 8.8-4 8.8-8.9 0-4.9-3.9-8.8-8.8-8.8-4.9 0-8.9 3.9-8.9 8.8z"/>
				<path id="&lt;Path&gt;" class="s1" d="m320.7 254.8c0 4.4-4.1 10.4-10.4 10.4-6.3 0-9.1-2.8-9.9-10.4-0.5-4.2 4.7-87.5 7.8-96.2 3.1-8.6 12-18 23.8-12.8 11.7 5.3 12 19.4 6.8 31.6-5.3 12.3-11.5 34.3-13.1 44.2-1.6 9.9-5 27.7-5 33.2z"/>
				<path id="&lt;Path&gt;" class="s0" d="m332.2 187.1c-10.7-3.6-16.7-11.9-18.2-21.2-1.2-6.7-4.2-44.4-4.2-44.4 0 0 44.1 2.1 46.7 5 2.6 2.9-1.2 18.5 4.9 34.5 5.1 13.7-17.3 30-29.2 26.1z"/>
				<path id="&lt;Path&gt;" class="s42" d="m319 181c-4.1-4-6.5-9.1-7.5-14.5-0.1-0.9-0.3-2.1-0.5-3.8-1 2.8-1.8 5.9-2.4 8.6-1.6 7.5-5.4 77.2-5.3 80.8 0.1 3.7 0.6 9.1 3.8 9.1 3.3 0 3.2-11.5 3.2-15.4 0-4.8 1.8-20.3 2.6-28.9 0.7-8 3.6-24.9 6.1-35.9z"/>
				<path id="&lt;Path&gt;" class="s1" d="m318.9 54c-4.4-0.1-14.5 0.5-17.4 7.2-2.8 6.7 2.9 17.4 2.9 17.4 0 0-4.9 11.6-3 19.8 2 8.3 2 9.4 1.8 10.2-0.1 0.8-4.3 13.7-0.7 14.5 1.6 0.4 4.7-0.1 7.5 1.2 2.8 1.3 4.2 4.9 9.1 8.1 5.6 3.8 27.2 13.5 33 13.2 13.4-0.7 17.2-17.5 20.6-27.7 2.9-8.6 5.4-20.5 5.4-20.5 0 0 8.5-1.3 8.2-7.2-0.3-5.9-7.4-10.7-14.2-16.5-6.8-5.7-13.6-11-17.7-13-15.6-7.8-27.4-6.4-35.5-6.7z"/>
				<path id="&lt;Path&gt;" class="s42" d="m320.4 55.8c-4-0.1-13.1 0.5-15.8 6.5-1.1 2.7-0.7 6.1 0.1 9.1 1.2 4.7 0.8 9.6-0.8 14.1-1 2.7-1.8 5.7-1.9 8.6-0.2 7.3 2 10.2 1.9 10.9-0.2 0.7 14.4 8.2 19.5 9.8 13.1 4.1 25-0.7 28.6-9.8 6.8-17.1 18.2-15.8 20.3-21 1.9-4.9 0.8-7.1-5.5-12.2-20.7-16.6-39.1-15.7-46.4-16z"/>
				<path id="&lt;Path&gt;" class="s0" d="m338.6 280.9c0 4.9 4 8.9 8.8 8.9 4.9 0 8.9-4 8.9-8.9 0-4.9-4-8.8-8.9-8.8-4.8 0-8.8 3.9-8.8 8.8z"/>
				<path id="&lt;Path&gt;" class="s1" d="m355.5 281.3c-3.1 2.1-10.2 2.4-16.5 0.5-3.3-1-5.6-4.5-5.1-9.2 0.1-1.4 2.5-23.6 2-44.2-0.5-20.7-4.8-37 0.1-49.4 5.1-12.9 16.4-21.6 26.8-18.5 10.4 3.1 12.9 14.6 11.8 27.3-1.2 14.9-17.3 57.8-17.6 70.6-0.2 12.8 1.7 20.7-1.5 22.9z"/>
				<path id="&lt;Path&gt;" class="s42" d="m346.5 277.5c-1.9 3.3-5 3.7-7.6 1.5-2.8-2.2-2.6-5.1-2.3-7.7 0.2-1.4 2.1-23.6 1.8-43.4-0.3-19.8-2.9-32.3 0.2-44.2 3.3-12.4 10.5-20.9 17.1-17.8 5.1 2.4-3.5 20.8-4.2 33.1-0.8 14.2-3.3 45.6-3.5 57.9-0.2 12.3 0 18-1.5 20.6z"/>
				<path id="&lt;Path&gt;" class="s0" d="m343.7 6.7c5.9 3.1 10.7 10.6 6.7 20.8-4.1 10.2-4.4 16.3-3.9 22.6 0.3 3.8 2.6 8.6 4 11.3 0.7 1.3 0.3 2.8-1 3.6-5.3 3.4-16.9 5.1-23.8 0.9-1.6-1-2.3-2.8-1.9-4.6 0.6-2.3 1.3-5.9 1.4-10.2 0.6-19.4 1.9-53.2 18.5-44.4z"/>
				<path id="&lt;Path&gt;" class="s1" d="m345.6 37.6c0 3.8-1.9 8.7-7.1 12.2-5.2 3.6-14.5 10.4-20.5 7.1-6-3.3-8-20.9-8.1-27.2-0.1-7 2-19.7 9.9-24.3 8-4.6 14.2-2.5 15.8-2 4.3 1.1 8 4.4 10.2 6.6 2.2 2.2-0.1 8.9-1.2 13.6-1 4.7 1 11.6 1 14z"/>
				<path id="&lt;Path&gt;" class="s42" d="m318.2 50.4c-3.6-2.8-5-16.2-5.1-21.1-0.1-5.5 1.4-14.9 5.9-19 5.5-5.1 9.7-4 10.7-3.6 2.7 0.9 1.6 3.9 0.9 6-0.9 2.7-2.7 9.2-3.2 13.7-0.7 6.2-2.5 29.3-9.2 24z"/>
				<path id="&lt;Path&gt;" class="s44" d="m352.1 145.6c-5.8 0.3-27.4-9.4-33-13.2-4.9-3.2-6.3-6.8-9.1-8.1-2.8-1.3-5.9-0.8-7.5-1.2-3.6-0.8 0.6-13.7 0.7-14.5q0.1-0.1 0.1-0.2v-0.1q0-0.1 0-0.3 0-0.4-0.1-1.1l3.8 2.1c0 0 10.7 6.7 23.4 9.6 10.7 2.5 18 0.6 24.5-11.7 4.6-8.8 17.2-7.7 23.1-9.2-0.4 2-2.7 12.5-5.3 20.2-3.4 10.2-7.2 27-20.6 27.7z"/>
				<path id="&lt;Path&gt;" class="s45" d="m318.1 120.5c-5.3-2.8-13.3-6.1-15.8-8.3 0.5-1.9 0.9-3.3 0.9-3.6 0.1-0.3 0.1-0.7 0-1.7l3.8 2.1c0 0 10.7 6.7 23.4 9.6 10.7 2.5 19.1 0.8 25.5-11.6 4.6-8.7 16.2-7.8 22.1-9.3-0.4 2-2.7 12.5-5.3 20.2-2.4 7.2-5 17.7-11 23.5-0.7-2.1-1.1-4.5-0.9-7.3 0.6-13.1-3.4-19.3-3.4-19.3 0 0-7.5 22.2-39.3 5.7z"/>
				<path id="&lt;Path&gt;" class="s1" d="m389.2 221.5c2.5 0.6 3.4 0.6 3.6 3.5 0.1 2.5 0.6 6.3 0 15.8-0.3 3.9-3.5 16.2-4.9 18.1-1.4 1.8-2.5 1.2-2.9 0.8-0.4-0.4-0.1-2 0-3 0.5-3 0.5-5.6 0.5-5.6 0 0-1.6 6.2-2.2 8.6-0.6 2.3-1.8 4.7-3.3 4.8-1.5 0.1-2-0.7-1.8-1.8 0.2-0.6 0.7-2.5 1-5.1 0.2-1.6 0.1-4.2 0.1-4.2 0 0-0.6 4.7-2 8.5-0.5 1.6-2.2 7.1-4.8 5.7-1.6-0.9 0.2-4.7 0.9-8 1-4.8 1.9-12.4 1.4-15.8-0.6-3.4-1.4-4.4-4.9-1.8-3.5 2.4-6.7 5-7.4 3.3-0.7-1.6 2-5.5 4.1-7.5 2.2-2.1 5.2-4.7 7.6-6.5 4.7-3.9 5.6-8.7 7.7-9.8 3.1-1.5 6.4-0.2 7.3 0z"/>
				<path id="&lt;Path&gt;" class="s42" d="m376.3 261.6l-0.1 0.4c-1.4 4.1-2.4 4.8-2.8 4.8q-0.2 0-0.4-0.1c-0.4-0.3 0.3-2.8 0.6-4.1 0.3-0.9 0.6-1.9 0.8-2.8 0.9-4.5 2-12.4 1.4-16.1-0.3-1.6-0.7-4.2-2.9-4.2-1 0-2.1 0.5-3.6 1.6l-1.1 0.8c-1.8 1.3-4.1 2.9-4.9 2.9-0.2-0.7 1.6-4 4-6.3 2.5-2.3 5.8-5 7.5-6.4 2.8-2.3 4.4-5 5.5-6.9 0.8-1.3 0.6 0.1 3.8 2.4 1 0.8 3.6 1.2 3.7 1.2 0 0-1.1 3.6-4 9.7-4.4 9.4-6.2 19.4-7.5 23.1z"/>
				<path id="&lt;Path&gt;" class="s0" d="m381.8 221.9c-0.2 3 2 5.6 5 5.9 3 0.2 5.7-2 5.9-5 0.3-3-2-5.6-5-5.9-3-0.2-5.6 2-5.9 5z"/>
				<path id="&lt;Path&gt;" class="s1" d="m393.7 148.5c0 0 3.6-0.1 5.5 6 2 6.3-2.7 54.5-3.5 59.3-0.8 4.9-1.6 10.8-7.6 10.6-5.6-0.3-7.3-3.8-7.1-7.3 0.2-4.5 0.5-27.8-0.5-41.8-1-13-1.1-17.1 0.8-21.3 1.9-4.4 7.6-7.4 12.4-5.5z"/>
				<path id="&lt;Path&gt;" class="s42" d="m388.5 160.6c3.9 0.5 4.1 0.9 4.2 5.3 0.2 10.1-1.7 40.7-2.3 44.8-0.6 4.1-0.9 10.9-4.6 10.4-2.5-0.3-2.4-5.2-2.5-8-0.1-5.9 0.2-22.2-0.3-33.9-0.4-10.9-1.2-16 0.2-18.3 0.7-1.3 2.5-0.6 5.3-0.3z"/>
				<path id="&lt;Path&gt;" class="s0" d="m384.1 94.9c0 0-4.5 2.9-9.8 3.1-3.1 0.1-7.2 1.3-7.5 4.2-0.3 2.8 4.5 4.1 5.8 17 1.4 12.9 6.4 7.4 10-1.6 3.8-9.5 3.3-20 1.5-22.7z"/>
				<path id="&lt;Path&gt;" class="s0" d="m382.7 152.7c0.8 3.8 4.6 6.2 8.5 5.3 3.8-0.8 6.2-4.7 5.3-8.5-0.9-3.8-4.7-6.2-8.5-5.3-3.8 0.8-6.2 4.7-5.3 8.5z"/>
				<path id="&lt;Path&gt;" class="s1" d="m396.7 142.7c0.1 5.5-1.2 7.9-7.6 9.4-4.5 1-7.9 0.1-9-3.7-2.3-7.2-5-18.3-7.3-24.6-2.5-7.1-6.3-11.9-3.3-15.8 3.3-4.2 13.9-11.6 18.7-9.2 4.8 2.3 8.4 39.4 8.5 43.9z"/>
				<path id="&lt;Path&gt;" class="s42" d="m389 141.5c0.5 3.6 0.9 7.5-1.5 8.2-3.3 1.1-5.2-1.5-5.6-3.3-0.8-3.3-4.6-16.6-6.5-22.1-2.1-6-4.6-11.7-3.3-14.9 1.4-3.4 5.3-6.9 8.5-5 3.2 1.9 8 34.4 8.4 37.1z"/>
				<path id="&lt;Path&gt;" class="s45" d="m334.7 42.1c1.2-9.5-3.5-26.7 3.7-31.3 2.6-1.8 4.2-1.5 7.6-0.6 1.9 2.4-0.3 8.8-1.4 13.4-1 4.7 1 11.6 1 14 0 3.8-1.9 8.7-7.1 12.2-3.8 2.6-9.7 6.8-14.9 7.8 2.6-1.4 10.1-7.5 11.1-15.5z"/>
				<path id="&lt;Path&gt;" class="s42" d="m287.9 219.8c0.3-2.1 1.5-8.6 2.5-11.1 0.5-1.4 1.9-1.8 3.2-2.2-0.2-4.4 0-8.1 0.2-11.9 0.2-5.8-1.8 0.7-6.5 0.7-5.7 0-5.4-3.2-6.1-1.6-0.7 1.6 2.1 7.7 2.5 18.9 0.1 2.5-0.1 7.1 0.5 8.5 0.7 1.3 3.3 0.7 3.7-1.3z"/>
			</g>
			<g id="&lt;Group&gt;">
				<path id="&lt;Path&gt;" class="s0" d="m338.5 34.2c0-3.5 2.4-7.8 5.5-9.6 1.5-0.9 2.8-1 3.8-0.5l3.7 2-0.4 0.7q0.2 0.8 0.2 1.8c0 3.5-2.4 7.8-5.5 9.6q-1 0.6-1.8 0.7l-0.4 0.7-3.4-1.8c-1.1-0.5-1.7-1.8-1.7-3.6z"/>
				<path id="&lt;Path&gt;" class="s7" d="m342 36.1c0 3.5 2.5 4.9 5.5 3.1 3.1-1.7 5.6-6 5.6-9.6 0-3.5-2.5-4.9-5.6-3.1-3 1.7-5.5 6-5.5 9.6z"/>
			</g>
			<g id="&lt;Group&gt;">
				<path id="&lt;Path&gt;" class="s3" d="m332.1 148.6c0-3.7-2.6-8.2-5.9-10.1-1.5-0.9-2.9-1-4-0.5l-3.8 2.1 0.4 0.7q-0.3 0.8-0.3 2c0 3.7 2.6 8.2 5.9 10.1q1 0.6 1.9 0.7l0.4 0.8 3.5-1.9c1.2-0.6 1.9-1.9 1.9-3.9z"/>
				<path id="&lt;Path&gt;" class="s4" d="m328.5 150.6c0 3.7-2.6 5.2-5.9 3.3-3.2-1.9-5.8-6.4-5.8-10.1 0-3.8 2.6-5.3 5.8-3.4 3.3 1.9 5.9 6.4 5.9 10.2z"/>
				<path id="&lt;Path&gt;" class="s7" d="m328.4 150.6c0 3.7-2.6 5.2-5.9 3.4-3.2-1.9-5.9-6.4-5.9-10.2 0-3.7 2.7-5.2 5.9-3.3 3.3 1.9 5.9 6.4 5.9 10.1z"/>
				<path id="&lt;Path&gt;" class="s38" d="m326.6 149.6c0 2.5-1.9 3.6-4.1 2.3-2.2-1.3-4-4.4-4-7 0-2.6 1.8-3.6 4-2.3 2.2 1.3 4.1 4.4 4.1 7z"/>
				<path id="&lt;Path&gt;" class="s36" d="m323.3 151.1c-2.2-1.3-4-4.4-4-7 0-0.7 0.1-1.3 0.4-1.8-0.7 0.4-1.2 1.3-1.2 2.6 0 2.6 1.8 5.7 4 7 1.6 0.9 2.9 0.6 3.6-0.5-0.7 0.4-1.7 0.3-2.8-0.3z"/>
			</g>
			<g id="&lt;Group&gt;">
				<path id="&lt;Path&gt;" class="s3" d="m328.5 161c0-1.8-1.2-3.9-2.8-4.8-0.7-0.4-1.4-0.5-1.8-0.2l-1.8 0.9 0.2 0.4q-0.2 0.4-0.2 0.9c0 1.7 1.2 3.9 2.8 4.7q0.4 0.3 0.9 0.4l0.2 0.3 1.6-0.8c0.6-0.3 0.9-0.9 0.9-1.8z"/>
				<path id="&lt;Path&gt;" class="s4" d="m326.8 161.9c0 1.7-1.2 2.4-2.7 1.5-1.6-0.9-2.8-3-2.8-4.7 0-1.8 1.2-2.5 2.8-1.6 1.5 0.9 2.7 3 2.7 4.8z"/>
				<path id="&lt;Path&gt;" class="s7" d="m326.7 161.9c0 1.7-1.2 2.4-2.7 1.6-1.5-0.9-2.8-3-2.8-4.8 0-1.7 1.3-2.4 2.8-1.6 1.5 0.9 2.7 3 2.7 4.8z"/>
			</g>
		</g>
		<g id="&lt;Group&gt;">
			<g id="&lt;Group&gt;" style="mix-blend-mode: multiply">
				<path id="&lt;Path&gt;" class="s12" d="m540.1 365.3l-35-16.4c-5.5-3.2-10-11.8-10-19.1v-38.3c0-7.4 4.5-10.8 10-7.6l50.6 26.8z"/>
				<path id="&lt;Path&gt;" class="s13" d="m540.2 364.9l-34.5-16.3c-5.5-3.1-9.9-11.6-9.9-18.8v-37.7c0-7.2 4.4-10.6 9.9-7.4l49.7 26.3z"/>
				<path id="&lt;Path&gt;" class="s14" d="m540.3 364.4l-34-16.1c-5.4-3.1-9.7-11.3-9.7-18.5v-37c0-7.1 4.3-10.4 9.7-7.3l48.8 25.9z"/>
				<path id="&lt;Path&gt;" class="s15" d="m540.4 363.9l-33.6-15.9c-5.2-3-9.5-11.1-9.5-18.1v-36.4c0-7 4.3-10.3 9.5-7.2l48 25.4z"/>
				<path id="&lt;Path&gt;" class="s16" d="m540.5 363.4l-33.1-15.7c-5.2-2.9-9.3-10.9-9.3-17.8v-35.8c0-6.9 4.1-10 9.3-7l47.1 24.9z"/>
				<path id="&lt;Path&gt;" class="s17" d="m540.6 363l-32.6-15.6c-5.1-2.9-9.2-10.7-9.2-17.5v-35.1c0-6.8 4.1-9.9 9.2-6.9l46.2 24.5z"/>
				<path id="&lt;Path&gt;" class="s18" d="m540.7 362.5l-32.2-15.4c-4.9-2.8-9-10.5-9-17.2v-34.4c0-6.7 4.1-9.7 9-6.8l45.4 24z"/>
				<path id="&lt;Path&gt;" class="s19" d="m540.8 362l-31.7-15.1c-4.9-2.9-8.8-10.4-8.8-16.9v-33.9c0-6.5 3.9-9.5 8.8-6.7l44.5 23.6z"/>
				<path id="&lt;Path&gt;" class="s20" d="m540.9 361.6l-31.2-15c-4.8-2.8-8.7-10.2-8.7-16.6v-33.2c0-6.4 3.9-9.3 8.7-6.6l43.6 23.2z"/>
				<path id="&lt;Path&gt;" class="s21" d="m541 361.1l-30.7-14.8c-4.7-2.7-8.6-10-8.6-16.3v-32.5c0-6.3 3.9-9.2 8.6-6.5l42.7 22.7z"/>
				<path id="&lt;Path&gt;" class="s22" d="m541.2 360.6l-30.4-14.6c-4.6-2.7-8.3-9.8-8.3-15.9v-32c0-6.1 3.7-8.9 8.3-6.3l41.9 22.2z"/>
				<path id="&lt;Path&gt;" class="s23" d="m541.3 360.2l-29.9-14.5c-4.5-2.6-8.2-9.6-8.2-15.6v-31.3c0-6 3.7-8.8 8.2-6.2l41 21.7z"/>
				<path id="&lt;Path&gt;" class="s24" d="m541.4 359.7l-29.4-14.3c-4.5-2.6-8-9.4-8-15.3v-30.6c0-5.9 3.5-8.6 8-6.1l40.1 21.3z"/>
				<path id="&lt;Path&gt;" class="s25" d="m541.5 359.2l-29-14.1c-4.3-2.5-7.8-9.2-7.8-15v-30c0-5.7 3.5-8.4 7.8-5.9l39.3 20.8z"/>
				<path id="&lt;Path&gt;" class="s26" d="m541.6 358.7l-28.5-13.9c-4.2-2.4-7.7-9-7.7-14.6v-29.4c0-5.6 3.5-8.2 7.7-5.8l38.4 20.3z"/>
				<path id="&lt;Path&gt;" class="s27" d="m541.7 358.3l-28-13.8c-4.2-2.4-7.5-8.8-7.5-14.3v-28.7c0-5.6 3.3-8.1 7.5-5.7l37.5 19.9z"/>
				<path id="&lt;Path&gt;" class="s28" d="m541.8 357.8l-27.6-13.6c-4-2.3-7.3-8.6-7.3-14v-28.1c0-5.4 3.3-7.8 7.3-5.5l36.7 19.4z"/>
				<path id="&lt;Path&gt;" class="s29" d="m541.9 357.3l-27.1-13.4c-3.9-2.3-7.1-8.4-7.1-13.7v-27.4c0-5.3 3.2-7.7 7.1-5.4l35.8 18.9z"/>
				<path id="&lt;Path&gt;" class="s30" d="m542 356.9l-26.6-13.3c-3.9-2.2-7-8.2-7-13.3v-26.8c0-5.2 3.1-7.5 7-5.3l34.9 18.5z"/>
				<path id="&lt;Path&gt;" class="s31" d="m542.1 356.4l-26.1-13c-3.8-2.2-6.9-8.1-6.9-13.1v-26.2c0-5 3.1-7.3 6.9-5.1l34 18z"/>
				<path id="&lt;Path&gt;" class="s32" d="m542.3 355.9l-25.8-12.8c-3.6-2.2-6.6-7.9-6.6-12.8v-25.5c0-4.9 3-7.2 6.6-5l33.2 17.5z"/>
				<path id="&lt;Path&gt;" class="s33" d="m542.4 355.5l-25.3-12.7c-3.6-2.1-6.5-7.7-6.5-12.4v-24.9c0-4.8 2.9-7 6.5-4.9l32.3 17.1z"/>
			</g>
			<g id="&lt;Group&gt;" style="mix-blend-mode: multiply">
				<path id="&lt;Path&gt;" class="s12" d="m521.4 415.3l-77.7-39.5c-6.4-3.7-11.6-13.6-11.6-22.2v-44.5c0-8.6 10.9-12.8 17.3-9.1l90.7 54.7z"/>
				<path id="&lt;Path&gt;" class="s13" d="m521.4 414.9l-77.1-39.3c-6.3-3.6-11.5-13.4-11.5-21.9v-44c0-8.5 10.6-12.6 16.9-9l89.9 54.1z"/>
				<path id="&lt;Path&gt;" class="s14" d="m521.4 414.6l-76.5-39.2c-6.2-3.6-11.3-13.3-11.3-21.6v-43.5c0-8.3 10.2-12.5 16.5-8.9l89.1 53.5z"/>
				<path id="&lt;Path&gt;" class="s15" d="m521.4 414.2l-75.8-39c-6.2-3.5-11.2-13.1-11.2-21.4v-42.9c0-8.2 9.9-12.3 16.1-8.7l88.2 52.8z"/>
				<path id="&lt;Path&gt;" class="s16" d="m521.4 413.8l-75.2-38.7c-6.1-3.6-11.1-13-11.1-21.2v-42.4c0-8.1 9.6-12.1 15.7-8.6l87.5 52.2z"/>
				<path id="&lt;Path&gt;" class="s17" d="m521.4 413.4l-74.6-38.5c-6-3.5-10.9-12.9-10.9-20.9v-41.9c0-8 9.2-12 15.3-8.5l86.6 51.6z"/>
				<path id="&lt;Path&gt;" class="s18" d="m521.4 413.1l-73.9-38.4c-6-3.5-10.8-12.7-10.8-20.6v-41.4c0-7.9 8.9-11.8 14.8-8.4l85.9 51z"/>
				<path id="&lt;Path&gt;" class="s19" d="m521.4 412.7l-73.3-38.2c-5.9-3.4-10.7-12.5-10.7-20.4v-40.8c0-7.8 8.6-11.6 14.5-8.2l85.1 50.3z"/>
				<path id="&lt;Path&gt;" class="s20" d="m521.4 412.3l-72.7-38c-5.8-3.4-10.5-12.4-10.5-20.1v-40.3c0-7.7 8.2-11.5 14-8.1l84.3 49.7z"/>
				<path id="&lt;Path&gt;" class="s21" d="m521.4 411.9l-72.1-37.8c-5.7-3.3-10.3-12.2-10.3-19.8v-39.8c0-7.6 7.9-11.3 13.6-8l83.5 49.1z"/>
				<path id="&lt;Path&gt;" class="s22" d="m521.4 411.6l-71.4-37.7c-5.7-3.3-10.3-12-10.3-19.6v-39.2c0-7.5 7.6-11.1 13.3-7.9l82.6 48.5z"/>
				<path id="&lt;Path&gt;" class="s23" d="m521.3 411.2l-70.7-37.5c-5.6-3.2-10.1-11.9-10.1-19.3v-38.7c0-7.4 7.2-11 12.8-7.7l81.9 47.8z"/>
				<path id="&lt;Path&gt;" class="s24" d="m521.3 410.8l-70.1-37.3c-5.5-3.2-9.9-11.7-9.9-19v-38.2c0-7.3 6.9-10.8 12.4-7.6l81.1 47.2z"/>
				<path id="&lt;Path&gt;" class="s25" d="m521.3 410.4l-69.4-37.1c-5.5-3.1-9.9-11.5-9.9-18.7v-37.6c0-7.3 6.6-10.7 12-7.6l80.3 46.6z"/>
				<path id="&lt;Path&gt;" class="s26" d="m521.3 410.1l-68.8-37c-5.4-3.1-9.7-11.4-9.7-18.5v-37c0-7.2 6.2-10.6 11.6-7.5l79.5 46z"/>
				<path id="&lt;Path&gt;" class="s27" d="m521.3 409.7l-68.2-36.8c-5.3-3-9.5-11.2-9.5-18.2v-36.5c0-7.1 5.9-10.4 11.1-7.3l78.7 45.3z"/>
				<path id="&lt;Path&gt;" class="s28" d="m521.3 409.3l-67.6-36.6c-5.1-3-9.4-11-9.4-17.9v-36c0-7 5.6-10.2 10.8-7.2l77.9 44.7z"/>
				<path id="&lt;Path&gt;" class="s29" d="m521.3 408.9l-66.9-36.4c-5.1-2.9-9.3-10.8-9.3-17.7v-35.4c0-6.8 5.2-10 10.4-7.1l77 44.1z"/>
				<path id="&lt;Path&gt;" class="s30" d="m521.3 408.6l-66.3-36.3c-5-2.9-9.1-10.7-9.1-17.4v-34.9c0-6.7 4.9-9.9 9.9-7l76.3 43.5z"/>
				<path id="&lt;Path&gt;" class="s31" d="m521.3 408.2l-65.7-36.1c-4.9-2.8-9-10.5-9-17.1v-34.4c0-6.6 4.6-9.7 9.6-6.8l75.5 42.8z"/>
				<path id="&lt;Path&gt;" class="s32" d="m521.3 407.8l-65-35.9c-4.9-2.8-8.9-10.3-8.9-16.8v-33.9c0-6.5 4.2-9.5 9.1-6.7l74.7 42.2z"/>
				<path id="&lt;Path&gt;" class="s33" d="m521.3 407.4l-64.4-35.6c-4.8-2.8-8.7-10.3-8.7-16.7v-33.3c0-6.4 3.9-9.4 8.7-6.6l73.9 41.6z"/>
			</g>
			<g id="&lt;Group&gt;">
				<g id="&lt;Group&gt;">
					<path id="&lt;Path&gt;" class="s0" d="m537.3 367.4v56.3l6.9-3.9v-56.6z"/>
					<path id="&lt;Path&gt;" class="s3" d="m537.4 367.4v56.3l-95.5-55.9v-56.7z"/>
					<path id="&lt;Path&gt;" class="s7" d="m441.9 311.1l95.5 56.3 6.8-4.2-95.5-56.1z"/>
					<path id="&lt;Path&gt;" class="s41" d="m441.9 311.1l95.5 56.3 6.8-4.2-7.2 1.9z"/>
				</g>
				<g id="&lt;Group&gt;">
					<path id="&lt;Path&gt;" class="s36" d="m609.7 358.3v68.6l6.9-4v-69.2z"/>
					<path id="&lt;Path&gt;" class="s38" d="m507.2 298.2l102.5 60.1 6.9-4.6-102.6-59.9z"/>
					<path id="&lt;Path&gt;" class="s11" d="m507.2 298.2l102.5 60.1 6.9-4.6-6.6 3z"/>
				</g>
				<path id="&lt;Path&gt;" class="s37" d="m507.2 298.2v45.9l35 20.5v23l67.5 39.3v-68.6z"/>
			</g>
			<path id="&lt;Path&gt;" class="s4" d="m550.9 356.4v4.4l50.5 28.9v-4.4z"/>
			<path id="&lt;Path&gt;" class="s4" d="m580 391.1l-29.1-16.5v4.4l29.1 16.5z"/>
			<path id="&lt;Path&gt;" class="s4" d="m550.9 369.9l50.5 28.8v-4.3l-50.5-28.9z"/>
			<path id="&lt;Path&gt;" class="s4" d="m485.4 348.5v4.4l44 25.4v-4.4z"/>
			<path id="&lt;Path&gt;" class="s4" d="m485.4 362l44 25.4v-4.4l-44-25.4z"/>
			<path id="&lt;Path&gt;" class="s4" d="m508 388.8l-22.6-13.1v4.3l22.6 13.2z"/>
			<path id="&lt;Path&gt;" class="s4" d="m485.4 371l44 25.4v-4.4l-44-25.4z"/>
			<path id="&lt;Path&gt;" class="s4" d="m550.9 338.5v4.3l50.5 28.9v-4.4z"/>
			<path id="&lt;Path&gt;" class="s4" d="m550.9 351.9l50.5 28.9v-4.4l-50.5-28.9z"/>
			<path id="&lt;Path&gt;" class="s4" d="m539 345.7c-1.8-1.6-3.4-3.5-4.7-5.7-0.8-1.3-0.8-2.7 0-3.1 1-0.6 1.8-1.5 2.4-2.7 0.8 0.2 1.8-0.1 1.8-1.2 0-1.2-0.5-2.4-1.1-3.1-0.2-4.9-1.9-10-7.6-13.3-5.7-3.3-7.4-0.1-7.6 4.6-0.7-0.2-1.2 0.5-1.2 1.7 0 1.1 1 2.6 1.9 3.3 0.5 1.9 1.4 3.8 2.4 5.5 0.7 1.3 0.7 2.7 0 3.1-1.3 0.7-2.9 0.8-4.7 0.2-2.4-0.7-4.2 0.7-4.2 3.7v2.8c0 1 0.7 2.2 1.6 2.7l23.6 13.6c0.9 0.5 1.6 0.1 1.6-0.9v-2.8c0-2.9-1.8-6.4-4.2-8.4z"/>
			<path id="&lt;Compound Path&gt;" fill-rule="evenodd" class="s4" d="m477.7 365.8c0 8.7-6.1 5.8-13.7 1.4-7.5-4.3-13.6-8.5-13.6-17.2 0-7.1 4.1-10.7 9.8-9.3 0.3-1.2 1.7-1.5 3.3-0.8v-4.2c-1.1-0.9-1.9-2.4-1.9-3.8 0-1.5 1.1-2.1 2.4-1.3 1.4 0.7 2.5 2.6 2.5 4.1 0 1.4-0.8 2-1.9 1.7v4.2c1.6 1.1 3 2.9 3.3 4.5 5.7 5.2 9.8 13.6 9.8 20.7zm-4.6-4.2c0-1.8-1.3-4-2.9-4.9l-12.3-7.1c-1.6-0.9-2.9-0.2-2.9 1.6 0 1.8 1.3 4 2.9 4.9l12.3 7.1c1.6 1 2.9 0.2 2.9-1.6zm-12.9-7.3c0 0.9-0.6 1.3-1.4 0.9-0.8-0.5-1.5-1.6-1.5-2.5 0-1 0.7-1.3 1.5-0.9 0.8 0.5 1.4 1.6 1.4 2.5zm10.6 6.1c0 0.9-0.7 1.3-1.5 0.8-0.8-0.4-1.4-1.5-1.4-2.5 0-0.9 0.6-1.2 1.4-0.8 0.8 0.5 1.5 1.6 1.5 2.5z"/>
		</g>
		<g id="&lt;Group&gt;">
			<path id="&lt;Path&gt;" class="s46" d="m451.4 157c-0.9 2.7-1.3 5.8-1.3 9.3 0 19.3 13.6 42.7 30.3 52.4 16.8 9.7 30.4 1.9 30.4-17.3 0-3.8-0.6-7.8-1.6-11.8z"/>
			<path id="&lt;Path&gt;" class="s47" d="m453.4 231c0 19.2 13.6 42.7 30.4 52.4 16.7 9.6 30.3 1.9 30.3-17.3 0-19.3-13.6-42.7-30.3-52.4-16.8-9.7-30.4-1.9-30.4 17.3z"/>
			<g id="&lt;Group&gt;">
				<path id="&lt;Path&gt;" class="s0" d="m496.1 198.4c0-15.2-10.7-33.8-24-41.5-6.4-3.7-12.3-4.2-16.6-2l-6 3.3 1.7 3c-0.8 2.3-1.3 5-1.3 8.1 0 15.2 10.8 33.8 24.1 41.5 2.7 1.5 5.4 2.5 7.8 3l1.8 3 4.8-2.6c4.7-2.3 7.7-7.8 7.7-15.8z"/>
				<path id="&lt;Path&gt;" class="s4" d="m491 201.2c0 15.2-10.8 21.4-24.1 13.7-13.3-7.7-24-26.2-24-41.5 0-15.2 10.7-21.4 24-13.7 13.3 7.7 24.1 26.2 24.1 41.5z"/>
				<g id="&lt;Group&gt;">
					<path id="&lt;Compound Path&gt;" class="s6" d="m439.2 202.1c-0.3 0-0.7-0.2-0.9-0.5q-0.9-1.8-1.8-3.6c-0.2-0.5 0-1.1 0.5-1.4 0.5-0.2 1.1 0 1.3 0.5q0.9 1.8 1.8 3.5c0.3 0.5 0.1 1.1-0.4 1.4q-0.2 0.1-0.5 0.1zm-4.1-9.1c-0.4 0-0.8-0.2-1-0.6q-0.7-2-1.2-3.9c-0.2-0.5 0.1-1.1 0.6-1.2 0.6-0.2 1.1 0.1 1.3 0.6q0.5 1.9 1.2 3.8c0.2 0.5-0.1 1.1-0.6 1.3q-0.1 0-0.3 0zm-2.7-9.6c-0.5 0-0.9-0.3-1-0.8q-0.4-2.1-0.6-4.1c0-0.5 0.4-1 0.9-1.1 0.5 0 1 0.4 1.1 0.9q0.2 1.9 0.6 3.9c0.1 0.6-0.3 1.1-0.8 1.2q-0.1 0-0.2 0z"/>
				</g>
				<path id="&lt;Path&gt;" class="s7" d="m490.5 201.5c0 15.2-10.8 21.4-24.1 13.7-13.3-7.7-24.1-26.3-24.1-41.5 0-15.3 10.8-21.4 24.1-13.7 13.3 7.6 24.1 26.2 24.1 41.5z"/>
			</g>
			<g id="&lt;Group&gt;">
				<path id="&lt;Path&gt;" class="s0" d="m496.1 130.5c0-15.3-10.7-33.9-24-41.5-6.4-3.7-12.3-4.2-16.6-2l-6 3.3 1.7 2.9c-0.8 2.3-1.3 5-1.3 8.1 0 15.3 10.8 33.8 24.1 41.5 2.7 1.6 5.4 2.6 7.8 3l1.8 3.1 4.8-2.6c4.7-2.3 7.7-7.8 7.7-15.8z"/>
				<path id="&lt;Path&gt;" class="s4" d="m491 133.2c0 15.3-10.8 21.4-24.1 13.8-13.3-7.7-24-26.3-24-41.5 0-15.3 10.7-21.4 24-13.8 13.3 7.7 24.1 26.3 24.1 41.5z"/>
				<g id="&lt;Group&gt;">
					<path id="&lt;Compound Path&gt;" class="s6" d="m441.4 137.8c-0.4 0-0.7-0.2-0.9-0.5q-1.1-1.7-2-3.4c-0.3-0.5-0.1-1.1 0.3-1.4 0.5-0.3 1.1-0.1 1.4 0.4q1 1.7 2 3.4c0.3 0.5 0.2 1.1-0.3 1.4q-0.3 0.1-0.5 0.1zm-4.7-8.8c-0.4 0-0.8-0.2-0.9-0.6q-0.9-1.9-1.6-3.8c-0.2-0.5 0.1-1.1 0.6-1.3 0.5-0.1 1.1 0.1 1.3 0.6q0.7 1.9 1.5 3.7c0.2 0.5 0 1.1-0.5 1.3q-0.2 0.1-0.4 0.1zm-3.4-9.4c-0.4 0-0.8-0.3-0.9-0.8q-0.6-2-0.9-3.9c-0.1-0.6 0.2-1.1 0.8-1.2 0.5-0.1 1 0.2 1.1 0.8q0.4 1.9 0.9 3.8c0.1 0.6-0.2 1.1-0.7 1.2q-0.1 0.1-0.3 0.1zm-1.6-9.9c-0.6 0-1-0.4-1-0.9q-0.1-1.5-0.1-3 0-0.6 0-1.1c0-0.5 0.5-1 1-1 0.6 0 1 0.5 1 1.1q0 0.5 0 1 0 1.4 0.1 2.9c0 0.5-0.4 1-1 1q0 0 0 0zm0.5-9.9q-0.1 0-0.2 0c-0.5-0.1-0.9-0.7-0.8-1.2q0.4-2.1 1-4c0.2-0.5 0.8-0.8 1.3-0.6 0.5 0.1 0.8 0.7 0.6 1.2q-0.5 1.8-0.9 3.8c-0.1 0.4-0.5 0.8-1 0.8zm3.4-9.4q-0.2 0-0.5-0.1c-0.5-0.3-0.6-0.9-0.3-1.4q1-1.8 2.3-3.4c0.4-0.4 1-0.5 1.4-0.1 0.5 0.3 0.5 1 0.2 1.4q-1.2 1.4-2.2 3.1c-0.2 0.4-0.5 0.5-0.9 0.5zm6.7-7.3c-0.3 0-0.7-0.2-0.8-0.5-0.4-0.4-0.3-1 0.2-1.3q1.7-1.3 3.6-2.1c0.5-0.3 1.1-0.1 1.3 0.4 0.3 0.5 0 1.1-0.5 1.4q-1.7 0.8-3.3 1.9-0.2 0.2-0.5 0.2zm9.1-3.8c-0.4 0-0.9-0.3-1-0.8 0-0.6 0.3-1.1 0.9-1.2q2-0.3 4.1-0.3 0 0 0 0c0.6 0 1 0.4 1 0.9 0 0.6-0.4 1.1-1 1.1q-1.9 0-3.8 0.3-0.1 0-0.2 0z"/>
				</g>
				<path id="&lt;Path&gt;" class="s7" d="m490.5 133.5c0 15.3-10.8 21.4-24.1 13.8-13.3-7.7-24.1-26.3-24.1-41.5 0-15.3 10.8-21.4 24.1-13.8 13.3 7.7 24.1 26.3 24.1 41.5z"/>
			</g>
			<g id="&lt;Group&gt;">
				<path id="&lt;Path&gt;" class="s0" d="m496.1 266.3c0-15.2-10.7-33.8-24-41.5-6.4-3.7-12.3-4.2-16.6-2l-6 3.3 1.7 3c-0.8 2.3-1.3 5-1.3 8.1 0 15.2 10.8 33.8 24.1 41.5 2.7 1.6 5.4 2.5 7.8 3l1.8 3 4.8-2.5c4.7-2.3 7.7-7.8 7.7-15.9z"/>
				<path id="&lt;Path&gt;" class="s4" d="m491 269.1c0 15.3-10.8 21.4-24.1 13.7-13.3-7.6-24-26.2-24-41.5 0-15.2 10.7-21.4 24-13.7 13.3 7.7 24.1 26.3 24.1 41.5z"/>
				<g id="&lt;Group&gt;">
					<path id="&lt;Compound Path&gt;" class="s6" d="m477.2 298.2q-2.1 0-4.1-0.3c-0.6-0.1-1-0.6-0.9-1.2 0.1-0.5 0.6-0.9 1.2-0.8q1.9 0.3 3.8 0.3c0.5 0 1 0.4 1 1 0 0.5-0.5 1-1 1zm-9.8-1.8q-0.2 0-0.3 0-1.9-0.7-3.8-1.6c-0.5-0.3-0.7-0.9-0.5-1.4 0.3-0.5 0.9-0.7 1.3-0.4q1.9 0.9 3.6 1.5c0.6 0.2 0.8 0.7 0.6 1.3-0.1 0.4-0.5 0.6-0.9 0.6zm-8.9-4.5q-0.3 0-0.5-0.2-1.7-1.1-3.3-2.4c-0.5-0.3-0.5-1-0.2-1.4 0.4-0.4 1-0.5 1.4-0.1q1.6 1.2 3.2 2.3c0.4 0.3 0.6 0.9 0.2 1.4-0.1 0.2-0.5 0.4-0.8 0.4zm-7.7-6.4q-0.4 0-0.7-0.2-1.4-1.5-2.8-3c-0.4-0.4-0.3-1 0.1-1.4 0.4-0.4 1-0.3 1.4 0.1q1.3 1.5 2.7 2.8c0.4 0.4 0.4 1.1 0 1.5q-0.3 0.2-0.7 0.2zm-6.5-7.5c-0.3 0-0.6-0.2-0.8-0.4q-1.2-1.7-2.3-3.4c-0.3-0.4-0.2-1 0.3-1.3 0.4-0.3 1-0.2 1.3 0.2q1.1 1.7 2.3 3.3c0.3 0.4 0.2 1.1-0.2 1.4q-0.3 0.2-0.6 0.2zm-5.3-8.5c-0.4 0-0.8-0.2-0.9-0.5q-1-1.8-1.8-3.6c-0.3-0.5-0.1-1.1 0.4-1.4 0.5-0.2 1.1 0 1.4 0.5q0.8 1.8 1.7 3.6c0.3 0.4 0.1 1-0.4 1.3q-0.2 0.1-0.4 0.1zm-4.1-9.1c-0.4 0-0.8-0.3-1-0.7q-0.6-1.9-1.2-3.8c-0.2-0.6 0.1-1.1 0.7-1.3 0.5-0.1 1.1 0.2 1.2 0.7q0.6 1.9 1.2 3.8c0.2 0.5-0.1 1.1-0.6 1.2q-0.1 0.1-0.3 0.1zm-2.6-9.7c-0.5 0-0.9-0.3-1-0.8q-0.4-2-0.5-4c-0.1-0.6 0.3-1.1 0.9-1.1 0.5-0.1 1 0.3 1 0.9q0.2 1.9 0.6 3.9c0.1 0.5-0.3 1-0.8 1.1q-0.1 0.1-0.2 0z"/>
				</g>
				<path id="&lt;Path&gt;" class="s7" d="m490.5 269.4c0 15.3-10.8 21.4-24.1 13.7-13.3-7.7-24.1-26.2-24.1-41.5 0-15.2 10.8-21.4 24.1-13.7 13.3 7.7 24.1 26.2 24.1 41.5z"/>
			</g>
			<path id="&lt;Compound Path&gt;" fill-rule="evenodd" class="s4" d="m481.3 118.7v18.4c0 1.9-1.2 2.8-2.6 2l-23.4-13.6c-1.5-0.8-2.6-3-2.6-4.9v-18.5c0-1.9 1.1-2.8 2.6-1.9l23.4 13.5c1.4 0.8 2.6 3 2.6 5zm-9.6 3.4l8.6-6.1c0 0-13.3 6.6-13.3 6.6l-13.3-22c0 0 4.7 8.8 8.5 16-0.7 0.6-8.3 6.6-8.3 6.6l9.2-4.9c2.2 4 3.9 7.1 3.9 7.1l3.8-2.7 9.2 15.6c0.1 0-7.4-14.6-8.3-16.2z"/>
			<path id="&lt;Path&gt;" class="s4" d="m473.9 184.8c1.9 6.1-0.8 9.6-2.5 10.5-1.7 1-6.1 1.6-10.4-3.1l-6.6 3.7c5 7.8 12.9 8.4 19.9 4.4 7-4 10.4-11.1 6.2-19.2z"/>
			<path id="&lt;Path&gt;" class="s4" d="m452.7 189.1l3.3-1.9c0.9-0.5 2.4 0.4 3.3 2l1.3 2.2-6.6 3.8-1.3-2.2c-0.9-1.6-0.9-3.3 0-3.9z"/>
			<path id="&lt;Path&gt;" class="s4" d="m472.1 178.1l3.3-1.9c0.9-0.5 2.4 0.3 3.4 1.9l1.2 2.2-6.6 3.8-1.3-2.2c-0.9-1.6-0.9-3.3 0-3.8z"/>
			<path id="&lt;Compound Path&gt;" fill-rule="evenodd" class="s4" d="m480 261c0 6.4-3.5 9.9-8.4 9.2l-5.7 5.1v-7.4c-6.8-4.5-12.2-14.1-12.2-22.1 0-8.3 5.9-11.7 13.2-7.5 7.3 4.2 13.1 14.4 13.1 22.7zm-18.3-12.3c-0.8-1.4-2.1-2.2-2.9-1.7-0.8 0.4-0.8 1.9 0 3.3 0.8 1.4 2.1 2.1 2.9 1.7 0.8-0.5 0.8-2 0-3.3zm6.6 3.8c-0.8-1.4-2.1-2.1-2.9-1.7-0.7 0.5-0.7 2 0 3.3 0.8 1.4 2.1 2.2 2.9 1.7 0.8-0.4 0.8-1.9 0-3.3zm6.7 3.8c-0.8-1.4-2.1-2.1-2.9-1.6-0.8 0.4-0.8 1.9 0 3.3 0.8 1.4 2.1 2.1 2.9 1.6 0.8-0.4 0.8-1.9 0-3.3z"/>
		</g>
		<g id="&lt;Group&gt;">
			<path id="&lt;Path&gt;" class="s48" d="m177.7 107.5l36.5 79.6 64.5-67.6-29.8-27.2-34.7 58.4-16.3-39.2z"/>
			<g id="&lt;Group&gt;">
				<path id="&lt;Path&gt;" class="s36" d="m180.5 91.8l33.5 72.9 59-62-27.3-24.9-31.7 53.5-15-35.9z"/>
			</g>
			<g id="&lt;Group&gt;">
				<path id="&lt;Path&gt;" class="s37" d="m175.5 95.4l33.5 73 59-62-27.3-24.9-31.7 53.5-15-36z"/>
			</g>
			<g id="&lt;Group&gt;">
				<path id="&lt;Path&gt;" class="s36" d="m273 102.7l-5 3.7-59 62 5-3.7z"/>
			</g>
			<g id="&lt;Group&gt;">
				<path id="&lt;Path&gt;" class="s38" d="m180.5 91.8l-5 3.6 18.5 3.6 5-3.6z"/>
			</g>
			<g id="&lt;Group&gt;">
				<path id="&lt;Path&gt;" class="s38" d="m268 106.4l-27.3-24.9 5-3.7 27.3 24.9z"/>
			</g>
			<g id="&lt;Group&gt;">
				<path id="&lt;Path&gt;" class="s4" d="m194 98.2l-18.5-2.8 18.5 3.6 5-3.6z"/>
			</g>
			<g id="&lt;Group&gt;">
				<path id="&lt;Path&gt;" class="s4" d="m268 106.4l-27.3-24.9 27.4 23.9 4.9-2.7z"/>
			</g>
		</g>
		<g id="&lt;Group&gt;">
			<path id="&lt;Path&gt;" class="s49" d="m567.7 427.8c3.3 1.9 6.2 5.6 7.8 9.5 0.1 0 1.9-0.6 2.6-0.9 1.6-0.7 3.7-0.4 6 0.9 5.1 3 9.3 10.1 9.3 16 0 10.7-18.4 14.4-18.4 14.4 0 0-17.4-23.3-17.4-34 0-3-1.3-3.9 0.4-4.8 0.1-0.1 3.5-1.9 3.6-1.9 1.6-0.7 3.8-0.5 6.1 0.8z"/>
			<g id="&lt;Group&gt;">
				<path id="&lt;Compound Path&gt;" class="s6" d="m575.3 483.6c-0.4 0-0.9-0.3-0.9-0.8-0.1-0.5 0.2-1.1 0.8-1.2q1.6-0.3 3.3-0.7c0.6-0.1 1.1 0.2 1.3 0.7 0.1 0.5-0.2 1.1-0.8 1.2q-1.7 0.5-3.5 0.8-0.1 0-0.2 0zm9.2-2.6c-0.4 0-0.8-0.3-0.9-0.6-0.3-0.6 0-1.1 0.5-1.3q1.8-0.8 3.6-1.7c0.5-0.2 1.1 0 1.3 0.5 0.3 0.5 0.1 1.1-0.4 1.3q-1.8 0.9-3.7 1.7-0.2 0.1-0.4 0.1zm8.7-4.8c-0.3 0-0.6-0.2-0.8-0.4-0.3-0.5-0.2-1.1 0.2-1.4q1.6-1.2 3-2.5c0.4-0.4 1.1-0.4 1.4 0 0.4 0.5 0.4 1.1 0 1.5q-1.5 1.3-3.2 2.6-0.3 0.2-0.6 0.2zm7-7.1q-0.3 0-0.6-0.2c-0.4-0.3-0.5-0.9-0.2-1.4q1.1-1.6 1.9-3.3c0.2-0.5 0.8-0.7 1.3-0.5 0.5 0.3 0.7 0.9 0.5 1.4q-0.9 1.8-2.1 3.6c-0.2 0.2-0.5 0.4-0.8 0.4zm3.8-9.2q-0.1 0-0.2 0c-0.6-0.1-0.9-0.6-0.8-1.1q0.3-1.9 0.3-3.9c0-0.5 0.4-1 1-1 0.5 0 1 0.5 1 1q0 2.2-0.4 4.2c0 0.5-0.5 0.8-0.9 0.8z"/>
			</g>
			<path id="&lt;Path&gt;" class="s50" d="m564.6 429.5c3.6 2.1 6.7 6.2 8.2 10.4 1.6-2.4 4.7-3 8.2-0.9 5.2 2.9 9.3 10.1 9.3 15.9 0 10.8-17.5 13.9-17.5 13.9 0 0-17.4-23.3-17.4-34 0-5.9 4.1-8.2 9.2-5.3z"/>
			<g id="&lt;Group&gt;" style="mix-blend-mode: color-dodge">
				<path id="&lt;Path&gt;" class="s41" d="m564.1 429.7c3.6 2.1 7.1 6.2 8.6 10.5 0.4-0.5-0.1-0.3 0.4-0.7-1.6-4.1-4.6-7.9-8-9.8-2.8-1.7-4.9-2-6.6-1 1.6-0.5 3.5-0.2 5.6 1z"/>
				<path id="&lt;Path&gt;" class="s41" d="m581.3 438.9c-2.8-1.6-5-1.6-6.4-0.7 1.6-0.5 3.5-0.2 5.6 1 5.1 2.9 9.3 10.1 9.3 16 0 4.9-3.8 8.3-7.8 10.5 4.5-2.2 8.5-5.3 8.5-10.8 0-5.9-4.1-13-9.2-16z"/>
			</g>
		</g>
		<g id="&lt;Group&gt;">
			<g id="&lt;Group&gt;">
				<path id="&lt;Path&gt;" class="s51" d="m265.6 300l-9.3 2 3.3-10.5-9.1-13.1 11.4 6.3 3.7-10.1 3.7 14.4 11.3 6.8-9 2.6 3.3 14.4z"/>
				<g id="&lt;Group&gt;">
					<path id="&lt;Path&gt;" class="s52" d="m271.6 298.4l3.3 14.4 2.1-1.4-3.2-13.6z"/>
					<path id="&lt;Path&gt;" class="s52" d="m261.9 284.7l0.7-2.1-10-5.5-1.8 1.4 2.7 1.6z"/>
					<path id="&lt;Path&gt;" class="s52" d="m271.4 287.6l-3.7-14.4-2.1 1.4 3.7 14.4 11.3 6.8 2.1-1.4z"/>
				</g>
				<g id="&lt;Group&gt;">
					<path id="&lt;Path&gt;" class="s4" d="m271.6 298.4l3.3 14.4-2.6-14.6z"/>
					<path id="&lt;Path&gt;" class="s4" d="m261.9 284.7l0.2-0.7-11.3-5.5 2.7 1.6z"/>
					<path id="&lt;Path&gt;" class="s4" d="m269.9 288.6l-4.3-14 3.7 14.4 11.3 6.8z"/>
				</g>
			</g>
			<g id="&lt;Group&gt;">
				<path id="&lt;Path&gt;" class="s51" d="m232.8 281.2l-9.3 2.1 3.3-10.6-9-13 11.3 6.3 3.7-10.2 3.7 14.4 11.4 6.9-9.1 2.6 3.3 14.3z"/>
				<g id="&lt;Group&gt;">
					<path id="&lt;Path&gt;" class="s52" d="m238.8 279.7l3.3 14.3 2.1-1.3-3.1-13.7z"/>
					<path id="&lt;Path&gt;" class="s52" d="m229.1 266l0.8-2.1-10-5.6-1.8 1.5 2.7 1.5z"/>
					<path id="&lt;Path&gt;" class="s52" d="m238.6 268.9l-3.7-14.4-2.1 1.3 3.7 14.4 11.4 6.8v0.1l2.1-1.4z"/>
				</g>
				<g id="&lt;Group&gt;">
					<path id="&lt;Path&gt;" class="s4" d="m238.8 279.7l3.3 14.3-2.6-14.5z"/>
					<path id="&lt;Path&gt;" class="s4" d="m229.1 266l0.2-0.7-11.2-5.5 2.7 1.5z"/>
					<path id="&lt;Path&gt;" class="s4" d="m237.2 269.9l-4.4-14.1 3.7 14.4 11.4 6.8v0.1z"/>
				</g>
			</g>
			<g id="&lt;Group&gt;">
				<path id="&lt;Path&gt;" class="s51" d="m200.1 262.5l-9.3 2.1 3.3-10.6-9.1-13 11.4 6.2 3.7-10.1 3.7 14.4 11.3 6.8-9 2.7 3.3 14.3z"/>
				<g id="&lt;Group&gt;">
					<path id="&lt;Path&gt;" class="s52" d="m206.1 261l3.3 14.3 2.1-1.4-3.2-13.6z"/>
					<path id="&lt;Path&gt;" class="s52" d="m196.4 247.2l0.7-2.1-10-5.5-1.8 1.4 2.7 1.6z"/>
					<path id="&lt;Path&gt;" class="s52" d="m205.9 250.2l-3.7-14.5-2.1 1.4 3.7 14.4 11.3 6.8 2.1-1.3z"/>
				</g>
				<g id="&lt;Group&gt;">
					<path id="&lt;Path&gt;" class="s4" d="m206.1 261l3.3 14.3-2.6-14.5z"/>
					<path id="&lt;Path&gt;" class="s4" d="m196.4 247.2l0.2-0.6-11.3-5.6 2.7 1.6z"/>
					<path id="&lt;Path&gt;" class="s4" d="m204.4 251.2l-4.3-14.1 3.7 14.4 11.3 6.8z"/>
				</g>
			</g>
			<g id="&lt;Group&gt;">
				<path id="&lt;Path&gt;" class="s51" d="m167.3 243.8l-9.3 2 3.3-10.5-9-13.1 11.3 6.3 3.7-10.1 3.7 14.4 11.4 6.8-9.1 2.6 3.3 14.4z"/>
				<g id="&lt;Group&gt;">
					<path id="&lt;Path&gt;" class="s52" d="m173.3 242.2l3.3 14.4 2.1-1.4-3.1-13.6z"/>
					<path id="&lt;Path&gt;" class="s52" d="m163.6 228.5l0.8-2.1-10-5.5-1.8 1.4 2.7 1.6z"/>
					<path id="&lt;Path&gt;" class="s52" d="m173.1 231.4l-3.7-14.4-2.1 1.4 3.7 14.4 11.4 6.8 2-1.4z"/>
				</g>
				<g id="&lt;Group&gt;">
					<path id="&lt;Path&gt;" class="s4" d="m173.3 242.2l3.3 14.4-2.6-14.6z"/>
					<path id="&lt;Path&gt;" class="s4" d="m163.6 228.5l0.2-0.6-11.2-5.6 2.7 1.6z"/>
					<path id="&lt;Path&gt;" class="s4" d="m171.7 232.5l-4.4-14.1 3.7 14.4 11.4 6.8z"/>
				</g>
			</g>
			<g id="&lt;Group&gt;">
				<path id="&lt;Path&gt;" class="s51" d="m134.6 225l-9.3 2.1 3.3-10.5-9.1-13.1 11.4 6.3 3.7-10.2 3.7 14.5 11.3 6.8-9 2.6 3.3 14.3z"/>
				<g id="&lt;Group&gt;">
					<path id="&lt;Path&gt;" class="s52" d="m140.6 223.5l3.3 14.3 2-1.3-3.1-13.7z"/>
					<path id="&lt;Path&gt;" class="s52" d="m130.9 209.8l0.7-2.1-10-5.6-1.8 1.5 2.7 1.6z"/>
					<path id="&lt;Path&gt;" class="s52" d="m140.4 212.7l-3.7-14.4-2.1 1.3 3.7 14.5 11.3 6.8 2.1-1.4z"/>
				</g>
				<g id="&lt;Group&gt;">
					<path id="&lt;Path&gt;" class="s4" d="m140.6 223.5l3.3 14.3-2.6-14.5z"/>
					<path id="&lt;Path&gt;" class="s4" d="m130.9 209.8l0.2-0.7-11.3-5.5 2.7 1.6z"/>
					<path id="&lt;Path&gt;" class="s4" d="m138.9 213.7l-4.3-14.1 3.7 14.5 11.3 6.8z"/>
				</g>
			</g>
		</g>
	</g>
	<g id="Folder 1">
	</g>
</svg>