<?xml version="1.0" encoding="UTF-8"?>
<svg width="24px" height="22px" viewBox="0 0 24 22" version="1.1" xmlns="http://www.w3.org/2000/svg" xmlns:xlink="http://www.w3.org/1999/xlink">
    <!-- Generator: Sketch 63.1 (92452) - https://sketch.com -->
    <title>Shape</title>
    <desc>Created with Sketch.</desc>
    <g id="hierarchy" stroke="none" stroke-width="1" fill="none" fill-rule="evenodd">
        <g id="1" transform="translate(-274.000000, -619.000000)" fill="#6df0c2" fill-rule="nonzero">
            <path d="M274.843592,619.000474 C273.841952,618.969963 273.673997,620.421106 274.656103,620.620304 L276.465473,621.016608 C277.422583,625.595209 278.465887,630.155153 279.477587,634.722271 C279.560771,635.096753 279.89296,635.363186 280.276545,635.363186 L294.644443,635.363186 C295.751408,635.379455 295.751408,633.710447 294.644443,633.726703 L280.933285,633.726703 L280.57109,632.090865 L295.36936,632.090865 C295.752954,632.090968 296.085123,631.824542 296.168317,631.45006 L297.980356,623.269254 C298.093309,622.758626 297.70486,622.274541 297.181924,622.274232 C290.921946,622.274376 284.662009,622.274098 278.402195,622.271139 L277.957444,620.16104 C277.891165,619.846116 277.646437,619.599327 277.332132,619.530357 L275.005569,619.021121 C274.95238,619.008854 274.898182,619.001742 274.843643,619.000402 L274.843592,619.000474 Z M283.68218,635.909122 C282.48696,635.909122 281.500493,636.895691 281.500493,638.090974 C281.500493,639.286276 282.48696,640.272815 283.68218,640.272815 C284.8774,640.272815 285.863857,639.286276 285.863857,638.090974 C285.863857,636.895691 284.8774,635.909122 283.68218,635.909122 Z M291.318064,635.909122 C290.122854,635.909122 289.136388,636.895691 289.136388,638.090974 C289.136388,639.286276 290.122854,640.272815 291.318064,640.272815 C292.513295,640.272815 293.499751,639.286276 293.499751,638.090974 C293.499751,636.895691 292.513295,635.909122 291.318064,635.909122 Z" id="Shape"></path>
        </g>
    </g>
</svg>