<?xml version="1.0"?>
<svg xmlns="http://www.w3.org/2000/svg" xmlns:xlink="http://www.w3.org/1999/xlink" version="1.1" viewBox="0 0 512 512" style="enable-background:new 0 0 512 512" xml:space="preserve" class=""><g><g xmlns="http://www.w3.org/2000/svg" id="Outline"><path d="M488,16H184a8,8,0,0,0-8,8V56.405c-2.659-.165-5.3-.405-8-.405a127.95,127.95,0,0,0-48,246.576v18.533l-1.2.186c-.01,0-.019,0-.029,0l-55.265,8.562A55.687,55.687,0,0,0,16,385.2V488a8,8,0,0,0,8,8H312a8,8,0,0,0,8-8V464H304v16H256V456h32V440H256V408H240v72H96V408H80v32H32V385.2a39.783,39.783,0,0,1,33.945-39.531l46.834-7.226C117.19,364.272,138.5,384,167.5,384s51.326-19.733,55.723-45.573l15.558,2.385L241.219,325,216,321.109V302.576A127.579,127.579,0,0,0,229.83,296H256V280h-3.62a125.9,125.9,0,0,0,42.509-112H432V152H291.788a127.244,127.244,0,0,0-6.155-18.382,7.945,7.945,0,0,0,1.023-1.18L312,94.422l25.344,38.016a7.987,7.987,0,0,0,5.867,3.523,7.878,7.878,0,0,0,6.445-2.305L376,107.312l26.344,26.344,11.312-11.312-32-32a8,8,0,0,0-11.312,0l-25.1,25.1L318.656,75.562c-2.968-4.453-10.344-4.453-13.312,0l-28.078,42.113A128.479,128.479,0,0,0,212.117,64H224V48H208V62.49a126.818,126.818,0,0,0-16-4.155V32H392V80a8,8,0,0,0,8,8h48V272h16V83.3a16,16,0,0,0-4.689-11.316l-40-39.98H480V360h16V24A8,8,0,0,0,488,16ZM80,456v24H32V456ZM207.314,335.987C204.084,354.144,187.25,368,166.8,368c-18.047,0-34.88-13.857-38.11-32.013l.5-.077A8,8,0,0,0,136,328V307.788a123.663,123.663,0,0,0,64,0V328C200,335.75,207.314,335.987,207.314,335.987ZM280,184A112,112,0,1,1,168,72,112.126,112.126,0,0,1,280,184ZM408,72V43.312L436.688,72Z" data-original="#000000" style=""/><rect x="240" y="48" width="16" height="16" data-original="#000000" style=""/><rect x="272" y="48" width="16" height="16" data-original="#000000" style=""/><path d="M342.43,231.844l31.367,6.273.1.015a8.324,8.324,0,0,0,9.313-6.269h0a.122.122,0,0,1,0-.028A39.994,39.994,0,1,0,309.359,244L323.2,236A24.038,24.038,0,0,1,336,201.359V224A8,8,0,0,0,342.43,231.844Zm25.32-11.254L352,217.441V201.359a24.047,24.047,0,0,1,15.75,19.231Z" data-original="#000000" style=""/><rect x="400" y="184" width="32" height="16" data-original="#000000" style=""/><rect x="400" y="216" width="32" height="16" data-original="#000000" style=""/><path d="M445.873,410.564a103.416,103.416,0,0,0,18.053-62.517c-2.028-54.28-46.148-98.2-100.436-99.99A104.11,104.11,0,0,0,256.043,355.015c1.536,54.016,44.832,98.216,98.805,100.859a103.352,103.352,0,0,0,53.729-11.984l44.359,44.361a24.97,24.97,0,0,0,35.315,0h0a24.97,24.97,0,0,0,0-35.313ZM272,352a88,88,0,1,1,88,88A88.1,88.1,0,0,1,272,352ZM464.541,477.537l-42.19-42.5a104.76,104.76,0,0,0,13.384-11.988l41.515,41.824a8.971,8.971,0,0,1-.013,12.675h0A8.97,8.97,0,0,1,464.541,477.537Z" data-original="#000000" style=""/><path d="M360,280a72,72,0,1,0,72,72A72.081,72.081,0,0,0,360,280Zm0,128a56,56,0,1,1,56-56A56.065,56.065,0,0,1,360,408Z" data-original="#000000" style=""/><path d="M320,352h16a24.027,24.027,0,0,1,24-24V312A40.047,40.047,0,0,0,320,352Z" data-original="#000000" style=""/><path d="M72,184a96,96,0,1,0,96-96A96.107,96.107,0,0,0,72,184Zm176,0a80,80,0,1,1-80-80A80.092,80.092,0,0,1,248,184Z" data-original="#000000" style=""/><path d="M104,184a64,64,0,1,0,64-64A64.073,64.073,0,0,0,104,184Zm112,0a48,48,0,1,1-48-48A48.052,48.052,0,0,1,216,184Z" data-original="#000000" style=""/><path d="M136,184a32,32,0,1,0,32-32A32.034,32.034,0,0,0,136,184Zm48,0a16,16,0,1,1-16-16A16.019,16.019,0,0,1,184,184Z" data-original="#000000" style=""/></g><script/></g></svg>
