<?xml version="1.0"?>
<svg xmlns="http://www.w3.org/2000/svg" xmlns:xlink="http://www.w3.org/1999/xlink" version="1.1" viewBox="0 0 64 64" style="enable-background:new 0 0 512 512" xml:space="preserve" class=""><g><path xmlns="http://www.w3.org/2000/svg" d="m45 47h-2v-5c0-.552-.447-1-1-1h-6c-.553 0-1 .448-1 1v5h-2c-.553 0-1 .448-1 1v5h-4c-.553 0-1 .448-1 1v4c0 .552.447 1 1 1h1.184c-.112.314-.184.648-.184 1 0 1.654 1.346 3 3 3s3-1.346 3-3c0-.352-.072-.686-.184-1h5.369c-.113.314-.185.648-.185 1 0 1.654 1.346 3 3 3s3-1.346 3-3c0-.352-.072-.686-.184-1h1.184c.459 0 .858-.312.97-.757l2.811-11.243h2.219v-2h-3c-.459 0-.858.312-.97.757l-1.811 7.243h-1.219v-5c0-.552-.447-1-1-1zm-1 2v4h-4v-4zm-7-6h4v4h-4zm-3 6h4v4h-4zm-2 12c-.552 0-1-.449-1-1s.448-1 1-1 1 .449 1 1-.448 1-1 1zm11 0c-.552 0-1-.449-1-1s.448-1 1-1 1 .449 1 1-.448 1-1 1zm3.719-6-.5 2h-17.219v-2z" data-original="#000000" style=""/><path xmlns="http://www.w3.org/2000/svg" d="m58.727 28.148c1.393-1.28 2.273-3.111 2.273-5.148 0-3.86-3.141-7-7-7s-7 3.14-7 7c0 2.004.851 3.808 2.205 5.085-1.015.169-1.979.615-2.729 1.359-.952.944-1.476 2.202-1.476 3.543v12.013h2v-12.013c0-.803.313-1.557.884-2.123.562-.558 1.306-.864 2.097-.864h.025l1.874.015-.875 7.874c-.018.164.005.329.065.482l2 5c.154.38.521.629.93.629s.776-.249.929-.628l2-5c.061-.153.083-.318.065-.482l-.871-7.839 1.849.015c1.729.014 2.975 1.498 3.028 3.582v15.352h-8v2h9c.553 0 1-.448 1-1v-16.378c-.075-2.908-1.833-5.083-4.273-5.474zm-4.727-10.148c2.404 0 4.415 1.707 4.891 3.971-.143.013-.285.029-.431.029-1.396 0-2.752-.61-3.721-1.673-.379-.416-1.1-.416-1.479 0-.968 1.063-2.323 1.673-3.72 1.673-.146 0-.288-.016-.431-.029.476-2.264 2.487-3.971 4.891-3.971zm0 22.308-.979-2.446.87-7.829.217.002.87 7.828zm0-12.308c-2.425 0-4.449-1.736-4.902-4.03.148.01.293.03.442.03 1.622 0 3.2-.582 4.46-1.622 1.26 1.04 2.838 1.622 4.46 1.622.149 0 .294-.02.442-.03-.453 2.294-2.477 4.03-4.902 4.03z" data-original="#000000" style=""/><path xmlns="http://www.w3.org/2000/svg" d="m2 51h14.992c.553 0 1-.448 1-1v-12.556l3.86.546c.084.011.17.012.257.003l6.008-.708c.227-.027.422-.136.575-.286h2.835c.626 0 1.225-.299 1.6-.8l1.471-1.96c.463-.617.532-1.426.181-2.112s-1.053-1.078-1.815-1.088l-4.979.076h-5.959c-1.089 0-2.169-.377-3.043-1.061-1.244-.974-2.706-1.623-4.237-1.9 1.398-1.281 2.281-3.114 2.281-5.155 0-3.86-3.141-7-7-7s-7 3.14-7 7c0 2.096.931 3.974 2.395 5.258-2.556.648-4.337 2.79-4.422 5.579v16.164c0 .552.447 1 1 1zm27-17.899 3.998-.062-1.471 1.961h-2.527zm-18.974-15.101c2.404 0 4.415 1.707 4.891 3.971-.142.013-.284.029-.431.029-1.396 0-2.753-.61-3.721-1.673-.189-.208-.457-.327-.739-.327s-.55.119-.739.327c-.969 1.063-2.324 1.673-3.721 1.673-.146 0-.288-.016-.431-.029.476-2.264 2.487-3.971 4.891-3.971zm-4.902 5.97c1.723.101 3.529-.458 4.902-1.592 1.259 1.04 2.838 1.622 4.46 1.622.149 0 .294-.02.442-.03-.453 2.294-2.477 4.03-4.902 4.03-2.424 0-4.448-1.736-4.902-4.03zm5.855 13.891-.979 2.447-.979-2.446.871-7.834.215-.002zm-7.979-3.994c.067-2.23 1.727-3.799 4.035-3.815l.842-.007-.871 7.845c-.018.164.005.329.065.482l2 5c.153.379.52.628.929.628s.776-.249.929-.628l2-5c.061-.153.083-.318.065-.482l-.876-7.882.914-.008c1.692-.001 3.364.569 4.717 1.629 1.225.958 2.743 1.486 4.276 1.486h4.975v2.288l-4.996.588-4.872-.689c-.278-.04-.576.045-.795.235s-.345.465-.345.755v12.708h-12.992z" data-original="#000000" style=""/><path xmlns="http://www.w3.org/2000/svg" d="m31 22c-.552 0-1-.449-1-1h-2c0 1.302.839 2.402 2 2.816v1.184h2v-1.184c1.161-.414 2-1.514 2-2.816 0-1.654-1.346-3-3-3-.552 0-1-.449-1-1s.448-1 1-1 1 .449 1 1h2c0-1.302-.839-2.402-2-2.816v-1.184h-2v1.184c-1.161.414-2 1.514-2 2.816 0 1.654 1.346 3 3 3 .552 0 1 .449 1 1s-.448 1-1 1z" data-original="#000000" style=""/><path xmlns="http://www.w3.org/2000/svg" d="m31 29c5.514 0 10-4.486 10-10s-4.486-10-10-10-10 4.486-10 10 4.486 10 10 10zm0-18c4.411 0 8 3.589 8 8s-3.589 8-8 8-8-3.589-8-8 3.589-8 8-8z" data-original="#000000" style=""/><path xmlns="http://www.w3.org/2000/svg" d="m5 59h15l-1.6 1.2 1.199 1.6 4-3c.252-.188.4-.485.4-.8s-.148-.611-.4-.8l-4-3-1.199 1.6 1.6 1.2h-15z" data-original="#000000" style=""/><path xmlns="http://www.w3.org/2000/svg" d="m1 57h2v2h-2z" data-original="#000000" style=""/><path xmlns="http://www.w3.org/2000/svg" d="m44.4 8.8 1.2-1.6-1.6-1.2h15v-2h-15l1.6-1.2-1.2-1.6-4 3c-.252.189-.4.485-.4.8s.148.611.4.8z" data-original="#000000" style=""/><path xmlns="http://www.w3.org/2000/svg" d="m61 4h2v2h-2z" data-original="#000000" style=""/><script/></g></svg>
