<svg width="32" height="32" viewBox="0 0 32 32" fill="none" xmlns="http://www.w3.org/2000/svg">
<g clip-path="url(#clip0_74_1125)">
<path d="M3.42114 10.2761C3.67847 10.3047 3.90991 10.1184 3.93799 9.86084L4.20532 7.40942C4.25561 6.94873 4.64306 6.60156 5.10644 6.60156H8.36328V8.17285C8.36328 8.43164 8.573 8.6416 8.83203 8.6416C9.09082 8.6416 9.30078 8.43164 9.30078 8.17285V6.60156H17.3603V8.17285C17.3603 8.43164 17.5703 8.6416 17.8293 8.6416C18.0881 8.6416 18.2981 8.43164 18.2981 8.17285V6.60156H21.5547C22.0181 6.60156 22.4055 6.94897 22.4558 7.40967L23.0986 13.3015C23.1248 13.5417 23.3279 13.7195 23.564 13.7195C23.5808 13.7195 23.5981 13.7185 23.6152 13.7168C23.8728 13.6887 24.0586 13.4573 24.0305 13.2L23.3877 7.30786C23.2854 6.37061 22.4973 5.66382 21.5547 5.66382H18.2978V4.96729C18.2981 2.22827 16.0696 0 13.3306 0C10.5916 0 8.36328 2.22827 8.36328 4.96729V5.66382H5.10644C4.16382 5.66382 3.37573 6.37061 3.27344 7.30786L3.0061 9.75928C2.97803 10.0166 3.16382 10.248 3.42114 10.2761ZM9.30078 4.96729C9.30078 2.74536 11.1086 0.9375 13.3306 0.9375C15.5527 0.9375 17.3603 2.74536 17.3603 4.96729V5.66382H9.30078V4.96729Z" fill="#220047"/>
<path d="M25.9109 17.2715C25.3369 17.8455 25.3369 18.7795 25.9109 19.3535C26.1978 19.6406 26.5747 19.7842 26.9519 19.7842C27.3289 19.7842 27.7058 19.6406 27.9929 19.3535C28.5669 18.7795 28.5669 17.8455 27.9929 17.2715C27.4189 16.6975 26.4849 16.6975 25.9109 17.2715ZM27.3301 18.6907C27.1216 18.8992 26.7822 18.8992 26.5737 18.6907C26.3652 18.4822 26.3652 18.1428 26.5737 17.9346C26.7822 17.7261 27.1216 17.7261 27.3301 17.9346C27.5386 18.1431 27.5386 18.4822 27.3301 18.6907Z" fill="#220047"/>
<path d="M30.614 22.1101L30.3957 16.7229C30.3552 15.7236 29.5408 14.9094 28.5417 14.8689L23.1543 14.6504C22.6162 14.6284 22.0893 14.8345 21.7085 15.2153L13.8682 23.0557C13.4751 23.4487 13.2742 23.9622 13.2649 24.4783H2.34325L3.7351 11.7175C3.76318 11.46 3.57739 11.2288 3.32006 11.2007C3.06225 11.1724 2.83129 11.3584 2.80322 11.6157L1.39745 24.5024C1.27978 25.5832 1.62841 26.6672 2.35449 27.4768C3.08032 28.2861 4.12035 28.7502 5.20727 28.7502H16.6433L19.2893 31.3962C19.6919 31.7988 20.2205 32 20.749 32C21.2776 32 21.8064 31.7988 22.2087 31.3962L30.0491 23.5559C30.4299 23.175 30.636 22.6482 30.614 22.1101ZM5.20727 27.8127C4.38622 27.8127 3.60082 27.4622 3.05248 26.8508C2.68725 26.4438 2.44848 25.9448 2.35595 25.4158H13.4702C13.5679 25.6182 13.7007 25.8076 13.8682 25.9751L15.7058 27.8127H5.20727ZM29.3862 22.8931L21.5459 30.7334C21.1064 31.1726 20.3916 31.1728 19.9521 30.7334L14.531 25.3123C14.0918 24.8728 14.0918 24.158 14.531 23.7185L22.3716 15.8782C22.5583 15.6914 22.8132 15.5864 23.0764 15.5864C23.0896 15.5864 23.103 15.5867 23.1164 15.5872L28.5037 15.8057C29.0185 15.8264 29.438 16.2461 29.459 16.7607L29.6772 22.1479C29.6885 22.4253 29.5825 22.6968 29.3862 22.8931Z" fill="#220047"/>
<path d="M20.4854 22.6733C21.3833 22.6733 22.114 21.9426 22.114 21.0449C22.114 20.147 21.3833 19.4163 20.4854 19.4163C19.5874 19.4163 18.8569 20.147 18.8569 21.0449C18.8569 21.9426 19.5874 22.6733 20.4854 22.6733ZM20.4854 20.354C20.8665 20.354 21.1765 20.6638 21.1765 21.0449C21.1765 21.4258 20.8665 21.7358 20.4854 21.7358C20.1045 21.7358 19.7944 21.4258 19.7944 21.0449C19.7944 20.6638 20.1045 20.354 20.4854 20.354Z" fill="#220047"/>
<path d="M23.3938 23.9766C22.4958 23.9766 21.7654 24.707 21.7654 25.605C21.7654 26.5029 22.4958 27.2336 23.3938 27.2336C24.2917 27.2336 25.0222 26.5029 25.0222 25.605C25.0222 24.707 24.2917 23.9766 23.3938 23.9766ZM23.3938 26.2959C23.0127 26.2959 22.7029 25.9861 22.7029 25.605C22.7029 25.2241 23.0127 24.9141 23.3938 24.9141C23.7749 24.9141 24.0847 25.2241 24.0847 25.605C24.0847 25.9861 23.7747 26.2959 23.3938 26.2959Z" fill="#220047"/>
<path d="M24.6614 20.6033C24.4783 20.4202 24.1814 20.4202 23.9985 20.6033L19.218 25.3838C19.0349 25.5669 19.0349 25.8638 19.218 26.0466C19.3093 26.1382 19.4294 26.1841 19.5493 26.1841C19.6692 26.1841 19.7893 26.1382 19.8809 26.0466L24.6614 21.2661C24.8445 21.083 24.8445 20.7861 24.6614 20.6033Z" fill="#220047"/>
</g>
<defs>
<clipPath id="clip0_74_1125">
<rect width="32" height="32" fill="white"/>
</clipPath>
</defs>
</svg>
