<svg width="16" height="16" viewBox="0 0 16 16" fill="none" xmlns="http://www.w3.org/2000/svg">
<path d="M10.1032 4.86133H4.45873C4.26471 4.86133 4.10742 5.01862 4.10742 5.21263C4.10742 5.40665 4.26471 5.56394 4.45873 5.56394H10.1032C10.2972 5.56394 10.4545 5.40665 10.4545 5.21263C10.4545 5.01864 10.2972 4.86133 10.1032 4.86133Z" fill="#220047"/>
<path d="M9.4015 6.96973H4.4597C4.26569 6.96973 4.1084 7.12702 4.1084 7.32103C4.1084 7.51505 4.26569 7.67234 4.4597 7.67234H9.4015C9.59552 7.67234 9.75281 7.51505 9.75281 7.32103C9.75281 7.12704 9.59552 6.96973 9.4015 6.96973Z" fill="#220047"/>
<path d="M7.29363 9.07812H4.4597C4.26569 9.07812 4.1084 9.23541 4.1084 9.42943C4.1084 9.62345 4.26569 9.78073 4.4597 9.78073H7.29363C7.48764 9.78073 7.64493 9.62345 7.64493 9.42943C7.64495 9.23544 7.48766 9.07812 7.29363 9.07812Z" fill="#220047"/>
<path d="M13.691 5.8194C13.3802 5.50857 12.922 5.43308 12.5394 5.59245V2.35716C12.5394 2.16315 12.3821 2.00586 12.1881 2.00586H10.8062C10.6122 2.00586 10.4549 2.16315 10.4549 2.35716C10.4549 2.55088 10.2973 2.70847 10.1036 2.70847C9.90992 2.70847 9.75233 2.55088 9.75233 2.35716C9.75233 2.16315 9.59504 2.00586 9.40103 2.00586H7.99578C7.80177 2.00586 7.64448 2.16315 7.64448 2.35716C7.64448 2.55088 7.48688 2.70847 7.29317 2.70847C7.09946 2.70847 6.94187 2.55088 6.94187 2.35716C6.94187 2.16315 6.78458 2.00586 6.59056 2.00586H5.16188C4.96787 2.00586 4.81058 2.16315 4.81058 2.35716C4.81058 2.55088 4.65299 2.70847 4.45927 2.70847C4.26556 2.70847 4.10797 2.55088 4.10797 2.35716C4.10797 2.16315 3.95068 2.00586 3.75666 2.00586H2.3513C2.15729 2.00586 2 2.16315 2 2.35716V13.646C2 13.84 2.15729 13.9973 2.3513 13.9973H12.1881C12.3821 13.9973 12.5394 13.84 12.5394 13.646V8.46596C13.3809 7.61877 13.0381 7.96288 13.691 7.30991C14.103 6.89804 14.103 6.23136 13.691 5.8194ZM11.8368 13.2947H2.70263V2.70849H3.46545C3.61046 3.11745 4.00119 3.41113 4.4592 3.41113C4.91722 3.41113 5.30795 3.11745 5.45295 2.70849H6.2994C6.44441 3.11745 6.83513 3.41113 7.29315 3.41113C7.75117 3.41113 8.14189 3.11745 8.2869 2.70849H9.10993C9.25492 3.11745 9.64564 3.41113 10.1037 3.41113C10.5617 3.41113 10.9524 3.11745 11.0974 2.70849H11.8368V6.18324C11.6332 6.38687 12.2839 5.73224 8.21839 9.82508C8.17937 9.86436 8.15019 9.91229 8.13324 9.965L7.73982 11.1869H4.45918C4.26516 11.1869 4.10788 11.3442 4.10788 11.5382C4.10788 11.7322 4.26516 11.8872 4.45918 11.8872H7.99555C7.99562 11.8872 7.99571 11.8872 7.99578 11.8872C8.03167 11.8872 8.07118 11.8828 8.10275 11.8728C8.10296 11.8727 8.1032 11.8727 8.10341 11.8726L9.56895 11.4007C9.62239 11.3835 9.67093 11.3537 9.71052 11.3139C9.76686 11.2572 11.7819 9.22855 11.8368 9.17335V13.2947ZM8.90354 10.1323L9.40037 10.6291L9.27226 10.7581L8.5401 10.9938L8.77621 10.2605L8.90354 10.1323ZM9.89551 10.1306L9.39868 9.63378L11.953 7.06234L12.4498 7.55917C12.3568 7.65277 10.0069 10.0185 9.89551 10.1306ZM13.1942 6.81308L12.9458 7.06149L12.449 6.56466L12.6974 6.31625C12.8343 6.17928 13.0572 6.17924 13.1942 6.31625C13.3312 6.45324 13.3312 6.67611 13.1942 6.81308Z" fill="#220047"/>
</svg>
