<svg width="32" height="32" viewBox="0 0 32 32" fill="none" xmlns="http://www.w3.org/2000/svg">
<g clip-path="url(#clip0_74_1454)">
<path d="M25.0581 22.0416C26.7032 19.7915 27.632 17.0978 27.7233 14.3119C27.8146 11.5261 27.0642 8.77737 25.57 6.42434C24.0759 4.07131 21.9072 2.22319 19.347 1.12105C16.7868 0.018914 13.9539 -0.286083 11.2178 0.245845C8.48166 0.777772 5.96935 2.12193 4.00856 4.10299C2.04776 6.08406 0.729504 8.61006 0.225738 11.3515C-0.278029 14.093 0.0560814 16.9226 1.18449 19.4713C2.31289 22.0201 4.18321 24.1696 6.55148 25.6395C6.00531 26.088 5.56508 26.6518 5.26228 27.2904C4.95949 27.9289 4.80163 28.6266 4.80001 29.3333V30.4C4.80001 30.8243 4.96858 31.2313 5.26864 31.5314C5.5687 31.8314 5.97567 32 6.40001 32H21.3333C21.7577 32 22.1647 31.8314 22.4647 31.5314C22.7648 31.2313 22.9333 30.8243 22.9333 30.4V29.3333C22.9317 28.6266 22.7739 27.9289 22.4711 27.2904C22.1683 26.6518 21.728 26.088 21.1819 25.6395C21.4763 25.456 21.763 25.262 22.0421 25.0576L28.3568 31.3712C28.5522 31.5799 28.7875 31.7471 29.0488 31.863C29.3101 31.979 29.592 32.0412 29.8779 32.046C30.1637 32.0509 30.4475 31.9982 30.7126 31.8912C30.9777 31.7842 31.2185 31.625 31.4209 31.4231C31.6232 31.2212 31.7829 30.9807 31.8905 30.7158C31.9981 30.451 32.0513 30.1672 32.0471 29.8814C32.0428 29.5956 31.9812 29.3135 31.8658 29.052C31.7505 28.7904 31.5837 28.5548 31.3755 28.3589L25.0581 22.0416ZM1.06668 13.8667C1.06668 11.3351 1.81739 8.86031 3.22387 6.75537C4.63035 4.65042 6.62944 3.00981 8.96833 2.04101C11.3072 1.0722 13.8809 0.818722 16.3638 1.31261C18.8468 1.8065 21.1275 3.02558 22.9176 4.8157C24.7078 6.60581 25.9268 8.88655 26.4207 11.3695C26.9146 13.8525 26.6611 16.4261 25.6923 18.765C24.7235 21.1039 23.0829 23.103 20.978 24.5095C18.873 25.916 16.3983 26.6667 13.8667 26.6667C10.4731 26.6627 7.21969 25.3129 4.82008 22.9133C2.42047 20.5137 1.07063 17.2602 1.06668 13.8667ZM21.8667 29.3333V30.4C21.8667 30.5414 21.8105 30.6771 21.7105 30.7771C21.6105 30.8771 21.4748 30.9333 21.3333 30.9333H6.40001C6.25856 30.9333 6.12291 30.8771 6.02289 30.7771C5.92287 30.6771 5.86668 30.5414 5.86668 30.4V29.3333C5.86805 28.7129 6.02422 28.1027 6.32102 27.5579C6.61782 27.013 7.04589 26.5509 7.56641 26.2133C9.51629 27.2123 11.6758 27.7333 13.8667 27.7333C16.0576 27.7333 18.2171 27.2123 20.1669 26.2133C20.6875 26.5509 21.1155 27.013 21.4123 27.5579C21.7091 28.1027 21.8653 28.7129 21.8667 29.3333ZM24.3899 22.88L25.4437 23.9339L23.9365 25.4411L22.88 24.3893C23.4211 23.9255 23.9258 23.4209 24.3899 22.88ZM30.6181 30.6235C30.4155 30.817 30.1458 30.9248 29.8655 30.9242C29.5852 30.9236 29.316 30.8147 29.1141 30.6203L24.6933 26.1973L26.2005 24.6901L30.624 29.1131C30.7231 29.2124 30.8017 29.3302 30.8552 29.4599C30.9087 29.5896 30.9361 29.7286 30.9358 29.8689C30.9355 30.0092 30.9075 30.1481 30.8535 30.2776C30.7994 30.4071 30.7204 30.5246 30.6208 30.6235H30.6181Z" fill="#220047"/>
<path d="M25.6 13.8667C25.6061 11.2388 24.7275 8.6853 23.1057 6.61751C21.4839 4.54973 19.2134 3.08799 16.6597 2.46773C16.5915 2.45079 16.5207 2.44748 16.4513 2.45799C16.3818 2.46849 16.3151 2.49261 16.2551 2.52896C16.195 2.56531 16.1426 2.61317 16.1011 2.66979C16.0595 2.72641 16.0296 2.79068 16.0129 2.85892C15.9963 2.92715 15.9933 2.998 16.0041 3.06739C16.0149 3.13679 16.0393 3.20337 16.0759 3.2633C16.1125 3.32324 16.1606 3.37536 16.2174 3.41666C16.2742 3.45797 16.3386 3.48765 16.4069 3.504C18.7141 4.06877 20.7666 5.3879 22.2388 7.25206C23.7109 9.11622 24.5182 11.4186 24.5328 13.7939C24.5473 16.1692 23.7681 18.4813 22.3189 20.3633C20.8697 22.2453 18.8334 23.5895 16.5333 24.1824V22.7381C17.2757 22.3098 17.9055 21.7109 18.3706 20.991C18.8357 20.271 19.1227 19.4507 19.208 18.5979C19.5142 18.5185 19.7988 18.3719 20.041 18.1686C20.2833 17.9652 20.4771 17.7104 20.6084 17.4226C20.7396 17.1348 20.805 16.8214 20.7996 16.5052C20.7943 16.1889 20.7184 15.8779 20.5776 15.5947C20.9726 14.0764 20.8388 12.4688 20.1982 11.0367C19.5576 9.60459 18.4484 8.43332 17.0533 7.71573C17.0602 7.63253 17.0666 7.54986 17.0666 7.46666C17.0666 6.61797 16.7295 5.80404 16.1294 5.20392C15.5293 4.60381 14.7153 4.26666 13.8666 4.26666C13.0179 4.26666 12.204 4.60381 11.6039 5.20392C11.0038 5.80404 10.6666 6.61797 10.6666 7.46666C10.6666 7.54986 10.673 7.63253 10.68 7.71573C9.28486 8.43332 8.17569 9.60459 7.53511 11.0367C6.89452 12.4688 6.76071 14.0764 7.15571 15.5947C7.01088 15.8865 6.9348 16.2076 6.93331 16.5333C6.93183 17.0077 7.09109 17.4687 7.38513 17.841C7.67918 18.2133 8.09066 18.475 8.55251 18.5835C8.62814 19.4374 8.90819 20.2605 9.36899 20.9834C9.82979 21.7062 10.4578 22.3075 11.2 22.7365V24.1824C8.68642 23.5348 6.4955 21.9924 5.03823 19.8445C3.58095 17.6965 2.95745 15.0907 3.2847 12.5158C3.61195 9.94087 4.86745 7.57383 6.81569 5.8587C8.76392 4.14358 11.271 3.19823 13.8666 3.2C14.0081 3.2 14.1437 3.14381 14.2438 3.04379C14.3438 2.94377 14.4 2.80811 14.4 2.66666C14.4 2.52522 14.3438 2.38956 14.2438 2.28954C14.1437 2.18952 14.0081 2.13333 13.8666 2.13333C11.546 2.13333 9.27749 2.82148 7.34795 4.11075C5.41841 5.40003 3.91452 7.23253 3.02645 9.37651C2.13838 11.5205 1.90603 13.8797 2.35876 16.1557C2.81149 18.4318 3.92898 20.5224 5.56992 22.1634C7.21086 23.8043 9.30154 24.9218 11.5776 25.3745C13.8536 25.8273 16.2128 25.5949 18.3568 24.7069C20.5008 23.8188 22.3333 22.3149 23.6226 20.3854C24.9118 18.4558 25.6 16.1873 25.6 13.8667ZM13.8666 5.33333C14.396 5.33491 14.9058 5.53368 15.2965 5.89086C15.6872 6.24803 15.9308 6.73797 15.9797 7.26506C14.6057 6.82277 13.1276 6.82277 11.7536 7.26506C11.8025 6.73797 12.0461 6.24803 12.4368 5.89086C12.8275 5.53368 13.3373 5.33491 13.8666 5.33333ZM13.8666 8C15.422 8.00183 16.9132 8.62052 18.013 9.72033C19.1128 10.8201 19.7315 12.3113 19.7333 13.8667C19.7331 14.1312 19.7153 14.3954 19.68 14.6576C19.5144 14.5645 19.3377 14.4928 19.1541 14.4443C18.873 13.0997 17.4933 12.7909 16.385 12.5461C15.2768 12.3013 14.5898 12.1067 14.4368 11.52C14.377 11.2709 14.2311 11.0509 14.0249 10.8989C13.8187 10.7469 13.5655 10.6726 13.3098 10.6891C10.7034 10.8789 8.79464 12.4021 8.53704 14.4683C8.36965 14.5132 8.20844 14.5786 8.05704 14.6629C7.94048 13.8328 8.00371 12.9872 8.24246 12.1836C8.48121 11.38 8.8899 10.6371 9.44084 10.0053C9.99178 9.3734 10.6721 8.86734 11.4357 8.52137C12.1993 8.17539 13.0283 7.99759 13.8666 8ZM9.61491 18.4944C9.59291 18.2732 9.50192 18.0645 9.35482 17.8979C9.20771 17.7313 9.01193 17.6151 8.79517 17.5659C8.56612 17.5063 8.36336 17.3723 8.21882 17.1849C8.07428 16.9975 7.99617 16.7674 7.99678 16.5307C7.99739 16.2941 8.07669 16.0643 8.22219 15.8777C8.3677 15.691 8.57114 15.5581 8.80051 15.4997C9.01276 15.4508 9.20493 15.338 9.35119 15.1766C9.49744 15.0152 9.59078 14.8128 9.61864 14.5968C9.79784 13.0219 11.2773 11.9045 13.384 11.7493C13.3945 11.7592 13.4017 11.772 13.4048 11.7861C13.7322 13.0496 15.017 13.3328 16.1504 13.5872C17.2837 13.8416 17.9765 14.0357 18.1077 14.6619C18.1492 14.8641 18.2479 15.0503 18.3919 15.1982C18.536 15.3461 18.7194 15.4497 18.9205 15.4965C19.1517 15.5523 19.3576 15.6837 19.5055 15.8699C19.6535 16.056 19.735 16.2863 19.7371 16.5241C19.7391 16.7619 19.6617 16.9936 19.517 17.1823C19.3724 17.3711 19.1688 17.5061 18.9386 17.5659C18.7217 17.615 18.5258 17.7312 18.3785 17.898C18.2313 18.0647 18.1403 18.2736 18.1184 18.4949C18.0289 19.561 17.5423 20.5546 16.7548 21.2788C15.9673 22.003 14.9365 22.4049 13.8666 22.4049C12.7968 22.4049 11.766 22.003 10.9785 21.2788C10.191 20.5546 9.70434 19.561 9.61491 18.4949V18.4944ZM12.2666 23.2133C13.3066 23.5511 14.4267 23.5511 15.4666 23.2133V24.4C14.9374 24.4847 14.4026 24.5293 13.8666 24.5333C13.3307 24.5293 12.7958 24.4847 12.2666 24.4V23.2133Z" fill="#220047"/>
</g>
<defs>
<clipPath id="clip0_74_1454">
<rect width="32" height="32" fill="white"/>
</clipPath>
</defs>
</svg>
