<svg width="41" height="42" viewBox="0 0 41 42" fill="none" xmlns="http://www.w3.org/2000/svg">
<path d="M20.4163 2.91663H8.74967C7.97613 2.91663 7.23426 3.22392 6.68728 3.7709C6.1403 4.31788 5.83301 5.05974 5.83301 5.83329V29.1666C5.83301 29.9402 6.1403 30.682 6.68728 31.229C7.23426 31.776 7.97613 32.0833 8.74967 32.0833H26.2497C27.0232 32.0833 27.7651 31.776 28.3121 31.229C28.8591 30.682 29.1663 29.9402 29.1663 29.1666V11.6666L20.4163 2.91663Z" stroke="#220047" stroke-width="2" stroke-linecap="round" stroke-linejoin="round"/>
<path d="M20.417 2.91663V11.6666H29.167" stroke="#220047" stroke-width="2" stroke-linecap="round" stroke-linejoin="round"/>
<path d="M23.3337 18.9584H11.667" stroke="#220047" stroke-width="2" stroke-linecap="round" stroke-linejoin="round"/>
<path d="M23.3337 24.7916H11.667" stroke="#220047" stroke-width="2" stroke-linecap="round" stroke-linejoin="round"/>
<path d="M14.5837 13.125H13.1253H11.667" stroke="#220047" stroke-width="2" stroke-linecap="round" stroke-linejoin="round"/>
<path d="M22.333 24.1111L30.4997 22.9445L38.6663 24.1111L38.2775 38.5L30.4997 40.4445L22.333 38.8889V24.1111Z"/>
<path d="M30.5 28C34.8492 28 38.375 26.8247 38.375 25.375C38.375 23.9253 34.8492 22.75 30.5 22.75C26.1508 22.75 22.625 23.9253 22.625 25.375C22.625 26.8247 26.1508 28 30.5 28Z" stroke="#220047" stroke-width="2" stroke-linecap="round" stroke-linejoin="round"/>
<path d="M38.375 31.5C38.375 32.9525 34.875 34.125 30.5 34.125C26.125 34.125 22.625 32.9525 22.625 31.5" stroke="#220047" stroke-width="2" stroke-linecap="round" stroke-linejoin="round"/>
<path d="M22.625 25.375V37.625C22.625 39.0775 26.125 40.25 30.5 40.25C34.875 40.25 38.375 39.0775 38.375 37.625V25.375" stroke="#220047" stroke-width="2" stroke-linecap="round" stroke-linejoin="round"/>
</svg>
