<svg width="24" height="24" viewBox="0 0 24 24" fill="none" xmlns="http://www.w3.org/2000/svg">
<g clip-path="url(#clip0_168_78)">
<path d="M4.94905 0H19.051C20.2882 0 21.3005 1.0123 21.3005 2.26362V21.7364C21.3005 22.9736 20.2882 24 19.051 24H4.94905C3.71179 24 2.68542 22.9736 2.68542 21.7364V2.26362C2.68542 1.0123 3.71179 0 4.94905 0ZM15.4798 14.0879H17.5747C17.884 14.0879 18.1371 14.3409 18.1371 14.6503V21.5677C18.1371 21.877 17.884 22.1301 17.5747 22.1301H15.4798C15.1705 22.1301 14.9174 21.877 14.9174 21.5677V14.6503C14.9174 14.3409 15.1705 14.0879 15.4798 14.0879ZM17.0123 15.2127H16.0422V21.0053H17.0123V15.2127ZM6.42532 18.1933H8.50616C8.81548 18.1933 9.06855 18.4464 9.06855 18.7557V21.5677C9.06855 21.877 8.81548 22.1301 8.50616 22.1301H6.42532C6.116 22.1301 5.86293 21.877 5.86293 21.5677V18.7557C5.86293 18.4464 6.116 18.1933 6.42532 18.1933ZM7.94377 19.3181H6.98771V21.0053H7.94377V19.3181ZM10.9526 16.6046H13.0475C13.3568 16.6046 13.6099 16.8576 13.6099 17.167V21.5677C13.6099 21.877 13.3568 22.1301 13.0475 22.1301H10.9526C10.6432 22.1301 10.3902 21.877 10.3902 21.5677V17.167C10.3902 16.8576 10.6432 16.6046 10.9526 16.6046ZM12.4851 17.7293H11.515V21.0053H12.4851V17.7293ZM6.28472 11.4306C5.97541 11.4306 5.72233 11.6837 5.72233 11.993C5.72233 12.3023 5.97541 12.5554 6.28472 12.5554H17.7012C18.0106 12.5554 18.2636 12.3023 18.2636 11.993C18.2636 11.6837 18.0106 11.4306 17.7012 11.4306H6.28472ZM6.28472 8.19684C5.97541 8.19684 5.72233 8.44991 5.72233 8.75923C5.72233 9.06854 5.97541 9.32162 6.28472 9.32162H17.7012C18.0106 9.32162 18.2636 9.06854 18.2636 8.75923C18.2636 8.44991 18.0106 8.19684 17.7012 8.19684H6.28472ZM6.28472 4.96309C5.97541 4.96309 5.72233 5.21617 5.72233 5.52548C5.72233 5.8348 5.97541 6.08787 6.28472 6.08787H17.7012C18.0106 6.08787 18.2636 5.8348 18.2636 5.52548C18.2636 5.21617 18.0106 4.96309 17.7012 4.96309H6.28472ZM19.051 1.12478H4.94905C4.33042 1.12478 3.81021 1.63093 3.81021 2.26362V21.7364C3.81021 22.355 4.33042 22.8752 4.94905 22.8752H19.051C19.6696 22.8752 20.1758 22.355 20.1758 21.7364V2.26362C20.1758 1.63093 19.6696 1.12478 19.051 1.12478Z" fill="#FFA497"/>
</g>
<defs>
<clipPath id="clip0_168_78">
<rect width="24" height="24" fill="white"/>
</clipPath>
</defs>
</svg>
