<svg width="19" height="19" viewBox="0 0 19 19" fill="none" xmlns="http://www.w3.org/2000/svg">
<g id="fluent:expand-up-right-32-filled">
<path id="Vector" d="M4.45312 2.96875C4.05944 2.96875 3.68189 3.12514 3.40351 3.40351C3.12514 3.68189 2.96875 4.05944 2.96875 4.45312V9.5H7.26156C7.85523 9.5 8.42459 9.73584 8.84438 10.1556C9.26417 10.5754 9.5 11.1448 9.5 11.7384V16.0312H14.5469C14.9406 16.0312 15.3181 15.8749 15.5965 15.5965C15.8749 15.3181 16.0312 14.9406 16.0312 14.5469V11.2812C16.0312 11.1238 16.0938 10.9728 16.2052 10.8614C16.3165 10.7501 16.4675 10.6875 16.625 10.6875C16.7825 10.6875 16.9335 10.7501 17.0448 10.8614C17.1562 10.9728 17.2188 11.1238 17.2188 11.2812V14.5469C17.2188 15.2555 16.9372 15.9351 16.4362 16.4362C15.9351 16.9372 15.2555 17.2188 14.5469 17.2188H4.45312C3.7445 17.2188 3.0649 16.9372 2.56382 16.4362C2.06275 15.9351 1.78125 15.2555 1.78125 14.5469V4.45312C1.78125 3.7445 2.06275 3.0649 2.56382 2.56382C3.0649 2.06275 3.7445 1.78125 4.45312 1.78125H7.71875C7.87622 1.78125 8.02725 1.84381 8.13859 1.95516C8.24994 2.06651 8.3125 2.21753 8.3125 2.375C8.3125 2.53247 8.24994 2.68349 8.13859 2.79484C8.02725 2.90619 7.87622 2.96875 7.71875 2.96875H4.45312ZM10.6875 2.375C10.6875 2.21753 10.7501 2.06651 10.8614 1.95516C10.9728 1.84381 11.1238 1.78125 11.2812 1.78125H16.625C16.7825 1.78125 16.9335 1.84381 17.0448 1.95516C17.1562 2.06651 17.2188 2.21753 17.2188 2.375V7.71875C17.2188 7.87622 17.1562 8.02725 17.0448 8.13859C16.9335 8.24994 16.7825 8.3125 16.625 8.3125C16.4675 8.3125 16.3165 8.24994 16.2052 8.13859C16.0938 8.02725 16.0312 7.87622 16.0312 7.71875V3.80831L11.701 8.13853C11.589 8.24669 11.4391 8.30653 11.2834 8.30518C11.1277 8.30383 10.9788 8.24138 10.8687 8.1313C10.7586 8.02121 10.6962 7.87229 10.6948 7.71661C10.6935 7.56093 10.7533 7.41095 10.8615 7.29897L15.1917 2.96875H11.2812C11.1238 2.96875 10.9728 2.90619 10.8614 2.79484C10.7501 2.68349 10.6875 2.53247 10.6875 2.375Z"/>
</g>
</svg>
