<?xml version="1.0" encoding="UTF-8"?><svg id="Layer_1" xmlns="http://www.w3.org/2000/svg" viewBox="0 0 373.59 348.51"><defs><style></style></defs><path class="cls-1" d="m348.36,273.43h-9.77c8.69-6.84,13.77-17.27,13.81-28.32V83.28c-.02-20.1-16.31-36.39-36.41-36.41H89.44c-2.23,0-4.05,1.81-4.05,4.05s1.81,4.05,4.05,4.05h226.56c15.63.02,28.3,12.69,28.32,28.32v161.83c-.02,15.63-12.69,28.3-28.32,28.32H57.07c-15.63-.02-28.3-12.69-28.32-28.32V83.28c.02-15.63,12.69-28.3,28.32-28.32h16.18c2.23,0,4.05-1.81,4.05-4.05s-1.81-4.05-4.05-4.05h-16.18c-20.1.02-36.39,16.31-36.41,36.41v161.83c.04,11.05,5.13,21.48,13.81,28.32h-9.77c-11.17,0-20.23,9.06-20.23,20.23s9.06,20.23,20.23,20.23h80.91c2.23,0,4.05-1.81,4.05-4.05s-1.81-4.05-4.05-4.05H24.71c-6.7,0-12.14-5.43-12.14-12.14s5.43-12.14,12.14-12.14h126.24c1.8,9.32,9.91,16.09,19.41,16.18h32.37c9.5-.09,17.62-6.86,19.42-16.18h126.23c6.7,0,12.14,5.43,12.14,12.14s-5.43,12.14-12.14,12.14H121.8c-2.23,0-4.05,1.81-4.05,4.05s1.81,4.05,4.05,4.05h226.56c11.17,0,20.23-9.06,20.23-20.23s-9.06-20.23-20.23-20.23Zm-145.65,16.18h-32.37c-5.1-.03-9.64-3.27-11.32-8.09h55c-1.68,4.82-6.21,8.06-11.32,8.09Z"/><path class="cls-1" d="m121.8,152.06h161.83c2.23,0,4.05-1.81,4.05-4.05s-1.81-4.05-4.05-4.05h-12.14v-12.14c0-2.23-1.81-4.05-4.05-4.05s-4.05,1.81-4.05,4.05v12.14h-24.27v-52.59c0-2.23,1.81-4.05,4.05-4.05h16.18c2.23,0,4.05,1.81,4.05,4.05v24.27c0,2.23,1.81,4.05,4.05,4.05s4.05-1.81,4.05-4.05v-24.27c0-6.7-5.44-12.13-12.14-12.14h-16.18c-6.7,0-12.13,5.44-12.14,12.14v52.59h-8.09v-20.23c0-6.7-5.44-12.13-12.14-12.14h-16.18c-6.7,0-12.13,5.44-12.14,12.14v20.23h-8.09v-52.59c0-6.7-5.44-12.13-12.14-12.14h-16.18c-6.7,0-12.13,5.44-12.14,12.14v52.59h-12.14c-2.23,0-4.05,1.81-4.05,4.05s1.81,4.05,4.05,4.05Zm68.78-28.32c0-2.23,1.81-4.05,4.05-4.05h16.18c2.23,0,4.05,1.81,4.05,4.05v20.23h-24.27v-20.23Zm-48.55-32.37c0-2.23,1.81-4.05,4.05-4.05h16.18c2.23,0,4.05,1.81,4.05,4.05v52.59h-24.27v-52.59Z"/><path class="cls-1" d="m118.94,231.79c1.58,1.58,4.14,1.58,5.72,0h0s21.41-21.42,21.41-21.42l11.93,11.93c6.84,6.81,16.09,10.64,25.74,10.67h21.75c9.65-.03,18.9-3.86,25.74-10.67l13.4-13.4c5.32-5.29,12.52-8.27,20.02-8.3h5.56c7.61-.05,15.01-2.48,21.18-6.93,6.67,6.23,15.46,9.7,24.59,9.71,2.23,0,4.05-1.81,4.05-4.05s-1.81-4.05-4.05-4.05c-6.78-.02-13.32-2.49-18.41-6.96l21.27-21.27c1.58-1.58,1.58-4.14,0-5.72s-4.14-1.58-5.72,0l-21.41,21.41-11.93-11.94c-6.82-6.84-16.1-10.68-25.76-10.66h-21.73c-9.65.03-18.9,3.86-25.74,10.67l-13.4,13.39c-5.3,5.33-12.52,8.32-20.04,8.31h-5.55c-7.61.05-15.01,2.48-21.18,6.94-6.67-6.23-15.46-9.7-24.59-9.71-2.23,0-4.05,1.81-4.05,4.05s1.81,4.05,4.05,4.05c6.77.02,13.31,2.49,18.41,6.96l-21.27,21.27c-1.58,1.58-1.58,4.14,0,5.72,0,0,0,0,0,0Zm54.18-31.18c9.67.02,18.94-3.82,25.76-10.67l13.4-13.4c5.32-5.29,12.52-8.27,20.02-8.3h21.73c7.52-.02,14.73,2.97,20.04,8.3l11.43,11.44c-4.56,2.94-9.85,4.51-15.27,4.54h-5.56c-9.65.03-18.9,3.86-25.74,10.67l-13.4,13.4c-5.32,5.29-12.52,8.27-20.02,8.3h-21.75c-7.51-.02-14.7-3-20.02-8.3l-11.43-11.44c4.56-2.94,9.85-4.51,15.27-4.54h5.55Z"/><path class="cls-1" d="m105.62,232.97c2.23,0,4.05-1.81,4.05-4.05V83.28c0-2.23-1.81-4.05-4.05-4.05s-4.05,1.81-4.05,4.05v145.65c0,2.23,1.81,4.05,4.05,4.05Z"/><path class="cls-1" d="m53.03,115.65c0,2.23,1.81,4.05,4.05,4.05h32.37c2.23,0,4.05-1.81,4.05-4.05s-1.81-4.05-4.05-4.05h-32.37c-2.23,0-4.05,1.81-4.05,4.05Z"/><path class="cls-1" d="m89.44,143.97h-32.37c-2.23,0-4.05,1.81-4.05,4.05s1.81,4.05,4.05,4.05h32.37c2.23,0,4.05-1.81,4.05-4.05s-1.81-4.05-4.05-4.05Z"/><path class="cls-1" d="m89.44,176.33h-32.37c-2.23,0-4.05,1.81-4.05,4.05s1.81,4.05,4.05,4.05h32.37c2.23,0,4.05-1.81,4.05-4.05s-1.81-4.05-4.05-4.05Z"/><path class="cls-1" d="m36.84,83.28v145.65c-.03,11.12,8.95,20.17,20.07,20.23h259.25c11.12-.06,20.1-9.11,20.07-20.23V83.28c.03-11.12-8.95-20.17-20.07-20.23H56.91c-11.12.06-20.1,9.11-20.07,20.23Zm291.29,0v145.65c.04,6.66-5.32,12.08-11.98,12.14H56.91c-6.66-.05-12.01-5.48-11.98-12.14V83.28c-.04-6.66,5.32-12.08,11.98-12.14h259.25c6.66.05,12.01,5.48,11.98,12.14Z"/></svg>