<svg width="44" height="44" viewBox="0 0 44 44" fill="none" xmlns="http://www.w3.org/2000/svg">
    <path
        d="M37.125 7.21875H6.875C6.23682 7.21875 5.62478 7.47227 5.17352 7.92352C4.72227 8.37478 4.46875 8.98682 4.46875 9.625V34.375C4.46875 35.0132 4.72227 35.6252 5.17352 36.0765C5.62478 36.5277 6.23682 36.7812 6.875 36.7812H37.125C37.7632 36.7812 38.3752 36.5277 38.8265 36.0765C39.2777 35.6252 39.5312 35.0132 39.5312 34.375V9.625C39.5312 8.98682 39.2777 8.37478 38.8265 7.92352C38.3752 7.47227 37.7632 7.21875 37.125 7.21875ZM6.875 9.28125H37.125C37.2162 9.28125 37.3036 9.31747 37.3681 9.38193C37.4325 9.4464 37.4688 9.53383 37.4688 9.625V29.1328L31.9516 23.6156C31.4981 23.1685 30.8868 22.9178 30.25 22.9178C29.6132 22.9178 29.0019 23.1685 28.5484 23.6156L24.9906 27.1734C24.96 27.2068 24.9228 27.2334 24.8814 27.2516C24.84 27.2698 24.7952 27.2792 24.75 27.2792C24.7048 27.2792 24.66 27.2698 24.6186 27.2516C24.5772 27.2334 24.54 27.2068 24.5094 27.1734L16.8266 19.4906C16.3731 19.0435 15.7618 18.7928 15.125 18.7928C14.4882 18.7928 13.8769 19.0435 13.4234 19.4906L6.53125 26.3828V9.625C6.53125 9.53383 6.56747 9.4464 6.63193 9.38193C6.6964 9.31747 6.78383 9.28125 6.875 9.28125ZM37.125 34.7188H6.875C6.78383 34.7188 6.6964 34.6825 6.63193 34.6181C6.56747 34.5536 6.53125 34.4662 6.53125 34.375V29.3047L14.8844 20.9516C14.915 20.9182 14.9522 20.8916 14.9936 20.8734C15.035 20.8552 15.0798 20.8458 15.125 20.8458C15.1702 20.8458 15.215 20.8552 15.2564 20.8734C15.2978 20.8916 15.335 20.9182 15.3656 20.9516L23.0484 28.6344C23.5019 29.0815 24.1132 29.3322 24.75 29.3322C25.3868 29.3322 25.9981 29.0815 26.4516 28.6344L30.0094 25.0766C30.04 25.0432 30.0772 25.0166 30.1186 24.9984C30.16 24.9802 30.2048 24.9708 30.25 24.9708C30.2952 24.9708 30.34 24.9802 30.3814 24.9984C30.4228 25.0166 30.46 25.0432 30.4906 25.0766L37.4688 32.0547V34.375C37.4688 34.4662 37.4325 34.5536 37.3681 34.6181C37.3036 34.6825 37.2162 34.7188 37.125 34.7188ZM25.5922 18.4078C25.4321 18.2478 25.3056 18.0574 25.22 17.8479C25.1344 17.6383 25.0915 17.4138 25.0938 17.1875C25.0938 16.7317 25.2748 16.2945 25.5972 15.9722C25.9195 15.6498 26.3567 15.4688 26.8125 15.4688C27.2683 15.4688 27.7055 15.6498 28.0278 15.9722C28.3502 16.2945 28.5312 16.7317 28.5312 17.1875C28.5312 17.6433 28.3502 18.0805 28.0278 18.4028C27.7055 18.7252 27.2683 18.9062 26.8125 18.9062C26.5862 18.9085 26.3617 18.8656 26.1521 18.78C25.9426 18.6944 25.7522 18.5679 25.5922 18.4078Z"
        fill="#979696" />
</svg>