<svg width="14" height="14" viewBox="0 0 14 14" fill="none" xmlns="http://www.w3.org/2000/svg">
<g clip-path="url(#clip0_3665_5245)">
<path d="M6.99957 6.61095C7.53797 6.61095 8.06428 6.45129 8.51195 6.15217C8.95962 5.85305 9.30853 5.4279 9.51457 4.93048C9.72061 4.43306 9.77452 3.88571 9.66948 3.35765C9.56444 2.82959 9.30518 2.34454 8.92447 1.96383C8.54376 1.58312 8.0587 1.32385 7.53065 1.21881C7.00259 1.11377 6.45524 1.16768 5.95782 1.37372C5.4604 1.57976 5.03524 1.92867 4.73612 2.37634C4.437 2.82401 4.27734 3.35032 4.27734 3.88873C4.27734 4.61071 4.56415 5.30311 5.07466 5.81363C5.58518 6.32414 6.27759 6.61095 6.99957 6.61095ZM6.99957 1.94428C7.38414 1.94428 7.76008 2.05832 8.07984 2.27198C8.3996 2.48564 8.64883 2.78932 8.796 3.14462C8.94317 3.49992 8.98168 3.89088 8.90665 4.26807C8.83162 4.64525 8.64643 4.99172 8.3745 5.26366C8.10256 5.53559 7.75609 5.72078 7.37891 5.79581C7.00172 5.87084 6.61076 5.83233 6.25546 5.68516C5.90016 5.53799 5.59648 5.28876 5.38282 4.969C5.16916 4.64924 5.05512 4.2733 5.05512 3.88873C5.05512 3.37303 5.25998 2.87845 5.62464 2.5138C5.98929 2.14914 6.48387 1.94428 6.99957 1.94428Z" />
<path d="M11.8493 9.47706C11.2257 8.8179 10.4741 8.29286 9.64066 7.93403C8.80718 7.57521 7.90927 7.39014 7.00184 7.39014C6.0944 7.39014 5.19649 7.57521 4.36302 7.93403C3.52954 8.29286 2.778 8.8179 2.15434 9.47706C2.01913 9.62149 1.94403 9.812 1.94434 10.0098V12.0554C1.94434 12.2617 2.02628 12.4595 2.17214 12.6054C2.318 12.7512 2.51584 12.8332 2.72211 12.8332H11.2777C11.4839 12.8332 11.6818 12.7512 11.8276 12.6054C11.9735 12.4595 12.0554 12.2617 12.0554 12.0554V10.0098C12.0568 9.81253 11.9831 9.62208 11.8493 9.47706ZM11.2777 12.0554H2.72211V10.006C3.27326 9.42561 3.93673 8.96347 4.67214 8.64768C5.40756 8.33188 6.19954 8.16903 6.99989 8.16903C7.80024 8.16903 8.59223 8.33188 9.32764 8.64768C10.0631 8.96347 10.7265 9.42561 11.2777 10.006V12.0554Z" />
</g>
<defs>
<clipPath id="clip0_3665_5245">
<rect width="14" height="14" fill="none"/>
</clipPath>
</defs>
</svg>
