<svg width="16" height="18" viewBox="0 0 16 18" fill="none" xmlns="http://www.w3.org/2000/svg">
<path d="M13.3896 3.16333C13.3896 3.56851 13.3896 3.97369 13.3896 4.37887C13.3896 5.34255 13.3896 6.30622 13.3896 7.26989C13.3896 8.42885 13.3896 9.58599 13.3896 10.7449C13.3896 11.7342 13.3896 12.7252 13.3896 13.7144C13.3896 14.1726 13.3914 14.6307 13.3896 15.0888C13.3896 15.1673 13.3841 15.2457 13.375 15.3242C13.3823 15.2749 13.3878 15.2275 13.3951 15.1782C13.375 15.3242 13.3367 15.4666 13.2801 15.6035C13.2983 15.5597 13.3166 15.5159 13.3348 15.472C13.2947 15.5688 13.2454 15.66 13.1888 15.7476C13.1834 15.7568 13.1432 15.8261 13.1341 15.8261C13.145 15.8261 13.2345 15.702 13.1615 15.7896C13.1286 15.8298 13.0939 15.8681 13.0574 15.9046C13.0209 15.9411 12.9826 15.9758 12.9424 16.0086C12.9078 16.0378 12.8384 16.0725 12.9789 15.9813C12.9552 15.9959 12.9333 16.0141 12.9114 16.0287C12.822 16.0889 12.7252 16.14 12.6267 16.182C12.6705 16.1638 12.7143 16.1455 12.7581 16.1273C12.6212 16.1839 12.4789 16.2222 12.3328 16.2423C12.3821 16.235 12.4296 16.2295 12.4789 16.2222C12.1467 16.2642 11.7999 16.2368 11.4659 16.2368C10.7815 16.2368 10.097 16.2368 9.41262 16.2368C8.57489 16.2368 7.73897 16.2368 6.90124 16.2368C6.18031 16.2368 5.4612 16.2368 4.74028 16.2368C4.41358 16.2368 4.08688 16.2386 3.76018 16.2368C3.68352 16.2368 3.60687 16.2313 3.53021 16.2222C3.57949 16.2295 3.62694 16.235 3.67622 16.2423C3.53021 16.2222 3.38785 16.1839 3.25096 16.1273C3.29477 16.1455 3.33857 16.1638 3.38237 16.182C3.28564 16.1419 3.19439 16.0926 3.10678 16.036C3.09765 16.0305 3.0283 15.9904 3.0283 15.9813C3.0283 15.9922 3.15241 16.0816 3.0648 16.0086C3.02465 15.9758 2.98632 15.9411 2.94982 15.9046C2.91331 15.8681 2.87864 15.8298 2.84578 15.7896C2.81658 15.7549 2.7819 15.6856 2.87316 15.8261C2.85856 15.8024 2.84031 15.7805 2.82571 15.7586C2.76548 15.6692 2.71437 15.5724 2.6724 15.4739C2.69065 15.5177 2.7089 15.5615 2.72715 15.6053C2.67057 15.4684 2.63224 15.326 2.61217 15.18C2.61947 15.2293 2.62494 15.2768 2.63224 15.326C2.61217 15.1618 2.61764 14.9939 2.61764 14.8278C2.61764 14.5467 2.61764 14.2656 2.61764 13.9864C2.61764 13.041 2.61764 12.0955 2.61764 11.1501C2.61764 9.99299 2.61764 8.83586 2.61764 7.67872C2.61764 6.67307 2.61764 5.66742 2.61764 4.66177C2.61764 4.17081 2.62494 3.67985 2.61764 3.18889C2.61764 3.18158 2.61764 3.17428 2.61764 3.16698C2.61764 2.88044 2.36577 2.60667 2.0701 2.61944C1.7726 2.63222 1.52256 2.86036 1.52256 3.16698C1.52256 3.38965 1.52256 3.61232 1.52256 3.83498C1.52256 4.41173 1.52256 4.98847 1.52256 5.56521C1.52256 6.35002 1.52256 7.133 1.52256 7.91781C1.52256 8.77015 1.52256 9.62066 1.52256 10.473C1.52256 11.2505 1.52256 12.028 1.52256 12.8055C1.52256 13.3677 1.52256 13.9298 1.52256 14.4938C1.52256 14.7529 1.50431 15.0194 1.53169 15.2786C1.57001 15.6418 1.6704 15.9959 1.87481 16.3043C2.0701 16.6018 2.32927 16.8573 2.63772 17.0362C2.99727 17.2443 3.40245 17.3373 3.81493 17.3373C4.23654 17.3373 4.65814 17.3373 5.07975 17.3373C5.84813 17.3373 6.61834 17.3373 7.38672 17.3373C8.22263 17.3373 9.06037 17.3373 9.89628 17.3373C10.5205 17.3373 11.1447 17.3373 11.7689 17.3373C11.9149 17.3373 12.0591 17.3373 12.2051 17.3373C12.6285 17.3373 13.0519 17.2351 13.4133 17.0106C14.0485 16.6182 14.439 15.9429 14.4847 15.2019C14.4901 15.1161 14.4883 15.0304 14.4883 14.9446C14.4883 14.5376 14.4883 14.1306 14.4883 13.7236C14.4883 13.0337 14.4883 12.3419 14.4883 11.652C14.4883 10.818 14.4883 9.98569 14.4883 9.1516C14.4883 8.31752 14.4883 7.48343 14.4883 6.64752C14.4883 5.95214 14.4883 5.25676 14.4883 4.55956C14.4883 4.14891 14.4883 3.74008 14.4883 3.32942C14.4883 3.27467 14.4883 3.21991 14.4883 3.16516C14.4883 2.87861 14.2365 2.60484 13.9408 2.61762C13.6396 2.62857 13.3896 2.85489 13.3896 3.16333Z" fill="white" fill-opacity="0.8"/>
<path d="M15.452 2.52425C15.3188 2.52425 15.1874 2.52425 15.0542 2.52425C14.6928 2.52425 14.3332 2.52425 13.9718 2.52425C13.4353 2.52425 12.8987 2.52425 12.3621 2.52425C11.7105 2.52425 11.0589 2.52425 10.4074 2.52425C9.69373 2.52425 8.9801 2.52425 8.26647 2.52425C7.54554 2.52425 6.82461 2.52425 6.10551 2.52425C5.43386 2.52425 4.76221 2.52425 4.08873 2.52425C3.52112 2.52425 2.9535 2.52425 2.38406 2.52425C1.97523 2.52425 1.5664 2.52425 1.15757 2.52425C0.964102 2.52425 0.768812 2.52242 0.573523 2.52425C0.564397 2.52425 0.557097 2.52425 0.547971 2.52425C0.261425 2.52425 -0.0123456 2.77612 0.000430304 3.07179C0.0132063 3.36929 0.241348 3.61933 0.547971 3.61933C0.681206 3.61933 0.812616 3.61933 0.945851 3.61933C1.30723 3.61933 1.66678 3.61933 2.02816 3.61933C2.56475 3.61933 3.10134 3.61933 3.63793 3.61933C4.2895 3.61933 4.94107 3.61933 5.59265 3.61933C6.30627 3.61933 7.0199 3.61933 7.73353 3.61933C8.45446 3.61933 9.17539 3.61933 9.89449 3.61933C10.5661 3.61933 11.2378 3.61933 11.9113 3.61933C12.4789 3.61933 13.0465 3.61933 13.6159 3.61933C14.0248 3.61933 14.4336 3.61933 14.8424 3.61933C15.0359 3.61933 15.2312 3.62116 15.4265 3.61933C15.4356 3.61933 15.4429 3.61933 15.452 3.61933C15.7386 3.61933 16.0123 3.36746 15.9996 3.07179C15.985 2.77429 15.7587 2.52425 15.452 2.52425Z" fill="white" fill-opacity="0.8"/>
<path d="M12.4932 3.07199C12.4932 2.69237 12.4932 2.31274 12.4932 1.93311C12.4932 1.72322 12.4932 1.52428 12.4549 1.31439C12.3746 0.876357 12.0807 0.489428 11.7102 0.25216C11.3726 0.0349692 10.9929 0.00029159 10.606 0.00029159C10.2775 0.00029159 9.94895 0.00029159 9.62042 0.00029159C8.64945 0.00029159 7.68031 0.00029159 6.70933 0.00029159C6.32788 0.00029159 5.94825 0.00029159 5.5668 0.00029159C5.32588 0.00029159 5.09409 -0.00518382 4.855 0.0313189C4.40601 0.102499 4.01908 0.390871 3.76904 0.761373C3.58105 1.03879 3.50439 1.37644 3.50439 1.70862C3.50439 2.12475 3.50439 2.54088 3.50439 2.95701C3.50439 2.99534 3.50439 3.03367 3.50439 3.07199C3.50439 3.35854 3.75626 3.63231 4.05194 3.61954C4.34943 3.60676 4.59948 3.37862 4.59948 3.07199C4.59948 2.8183 4.59948 2.56461 4.59948 2.31091C4.59948 2.04627 4.57757 1.77067 4.61043 1.50785C4.60313 1.55713 4.59765 1.60459 4.59035 1.65386C4.60495 1.55713 4.6305 1.46223 4.66701 1.37097C4.64875 1.41477 4.6305 1.45857 4.61225 1.50238C4.63963 1.44032 4.67066 1.38009 4.70898 1.32351C4.71811 1.31074 4.72724 1.29796 4.73636 1.28519C4.76739 1.23591 4.65423 1.38192 4.69438 1.33994C4.71993 1.31439 4.74001 1.28701 4.76556 1.26146C4.78746 1.23956 4.81302 1.21948 4.83492 1.19758C4.88967 1.14648 4.78016 1.24138 4.78016 1.23956C4.78016 1.23591 4.81484 1.21401 4.81849 1.21218C4.87872 1.17203 4.94078 1.13918 5.00831 1.10997C4.9645 1.12823 4.9207 1.14648 4.8769 1.16473C4.96815 1.12823 5.06124 1.10267 5.15979 1.08807C5.11051 1.09537 5.06306 1.10085 5.01378 1.10815C5.23645 1.08077 5.47007 1.0972 5.69456 1.0972C6.15084 1.0972 6.60895 1.0972 7.06523 1.0972C8.10191 1.0972 9.13859 1.0972 10.1734 1.0972C10.4399 1.0972 10.7192 1.0753 10.9838 1.10815C10.9345 1.10085 10.8871 1.09537 10.8378 1.08807C10.9345 1.10267 11.0294 1.12823 11.1207 1.16473C11.0769 1.14648 11.0331 1.12823 10.9893 1.10997C11.0513 1.13735 11.1116 1.16838 11.1681 1.20671C11.1809 1.21583 11.1937 1.22496 11.2065 1.23408C11.2557 1.26511 11.1097 1.15195 11.1517 1.19211C11.1773 1.21766 11.2046 1.23773 11.2302 1.26329C11.2521 1.28519 11.2722 1.31074 11.2941 1.33264C11.3452 1.38739 11.2503 1.27789 11.2521 1.27789C11.2557 1.27789 11.2776 1.31256 11.2795 1.31621C11.3196 1.37644 11.3525 1.4385 11.3817 1.50603C11.3634 1.46223 11.3452 1.41842 11.3269 1.37462C11.3634 1.46588 11.389 1.55896 11.4036 1.65751C11.3963 1.60824 11.3908 1.56078 11.3835 1.5115C11.4164 1.77432 11.3945 2.04992 11.3945 2.31456C11.3945 2.56826 11.3945 2.82195 11.3945 3.07565C11.3945 3.36219 11.6463 3.63596 11.942 3.62319C12.2431 3.60676 12.4932 3.37862 12.4932 3.07199Z" fill="white" fill-opacity="0.8"/>
<path d="M4.18 5.46301C4.18 5.76233 4.18 6.06165 4.18 6.3628C4.18 7.08191 4.18 7.80101 4.18 8.52194C4.18 9.38888 4.18 10.2558 4.18 11.1228C4.18 11.8729 4.18 12.623 4.18 13.3731C4.18 13.74 4.1727 14.1069 4.18 14.4719C4.18 14.4774 4.18 14.4828 4.18 14.4883C4.18 14.7749 4.43187 15.0486 4.72754 15.0358C5.02504 15.0231 5.27508 14.7949 5.27508 14.4883C5.27508 14.189 5.27508 13.8897 5.27508 13.5885C5.27508 12.8694 5.27508 12.1503 5.27508 11.4294C5.27508 10.5624 5.27508 9.6955 5.27508 8.82856C5.27508 8.07843 5.27508 7.3283 5.27508 6.57817C5.27508 6.21132 5.28238 5.84446 5.27508 5.47944C5.27508 5.47396 5.27508 5.46849 5.27508 5.46301C5.27508 5.17646 5.02322 4.90269 4.72754 4.91547C4.43005 4.92825 4.18 5.15456 4.18 5.46301Z" fill="white" fill-opacity="0.8"/>
<path d="M8.54754 14.4844C8.54754 14.1851 8.54754 13.8858 8.54754 13.5846C8.54754 12.8655 8.54754 12.1464 8.54754 11.4255C8.54754 10.5585 8.54754 9.69159 8.54754 8.82465C8.54754 8.07452 8.54754 7.32439 8.54754 6.57426C8.54754 6.20741 8.55485 5.84056 8.54754 5.47553C8.54754 5.47005 8.54754 5.46458 8.54754 5.4591C8.54754 5.17256 8.29568 4.89879 8 4.91156C7.70251 4.92434 7.45246 5.15248 7.45246 5.4591C7.45246 5.75843 7.45246 6.05775 7.45246 6.3589C7.45246 7.078 7.45246 7.7971 7.45246 8.51803C7.45246 9.38497 7.45246 10.2519 7.45246 11.1188C7.45246 11.869 7.45246 12.6191 7.45246 13.3692C7.45246 13.7361 7.44516 14.1029 7.45246 14.468C7.45246 14.4734 7.45246 14.4789 7.45246 14.4844C7.45246 14.7709 7.70433 15.0447 8 15.0319C8.2975 15.0192 8.54754 14.791 8.54754 14.4844Z" fill="white" fill-opacity="0.8"/>
<path d="M11.82 14.4844C11.82 14.1851 11.82 13.8858 11.82 13.5846C11.82 12.8655 11.82 12.1464 11.82 11.4255C11.82 10.5585 11.82 9.69159 11.82 8.82465C11.82 8.07452 11.82 7.32439 11.82 6.57426C11.82 6.20741 11.8273 5.84056 11.82 5.47553C11.82 5.47005 11.82 5.46458 11.82 5.4591C11.82 5.17256 11.5681 4.89879 11.2725 4.91156C10.975 4.92434 10.7249 5.15248 10.7249 5.4591C10.7249 5.75843 10.7249 6.05775 10.7249 6.3589C10.7249 7.078 10.7249 7.7971 10.7249 8.51803C10.7249 9.38497 10.7249 10.2519 10.7249 11.1188C10.7249 11.869 10.7249 12.6191 10.7249 13.3692C10.7249 13.7361 10.7176 14.1029 10.7249 14.468C10.7249 14.4734 10.7249 14.4789 10.7249 14.4844C10.7249 14.7709 10.9768 15.0447 11.2725 15.0319C11.57 15.0192 11.82 14.791 11.82 14.4844Z" fill="white" fill-opacity="0.8"/>
</svg>
