<svg width="32" height="32" viewBox="0 0 32 32" fill="none" xmlns="http://www.w3.org/2000/svg">
<path d="M22.7121 26.24H25.2721C25.2721 26.184 25.2881 26.104 25.2881 26.032C25.2881 23.928 25.2961 21.816 25.2881 19.712C25.2721 16.504 23.2401 13.528 20.2641 12.32C20.1921 12.288 20.1121 12.264 20.0081 12.232C19.8081 12.76 19.5121 13.216 19.0881 13.576C18.6641 13.928 18.1761 14.144 17.6001 14.248V14.56C17.6001 16.232 17.6001 17.904 17.6001 19.576C17.6001 20.624 17.1361 21.096 16.0961 21.104C16.0401 21.104 15.9921 21.104 15.8881 21.104C15.8881 21.464 15.8881 21.816 15.8881 22.168C15.8881 22.696 15.7761 22.816 15.2481 22.816C14.4961 22.816 13.7361 22.816 12.9841 22.816C12.6881 22.816 12.4961 22.648 12.4881 22.408C12.4881 22.152 12.6801 21.984 12.9921 21.976C13.0481 21.976 13.0961 21.976 13.1521 21.976C13.6881 21.976 14.2161 21.976 14.7521 21.976H15.0321V21.112C14.8641 21.112 14.6961 21.112 14.5281 21.112C13.7441 21.112 12.9601 21.112 12.1841 21.112C11.3041 21.112 10.7841 20.584 10.7841 19.696C10.7841 15.528 10.7841 11.352 10.7841 7.184C10.7841 6.272 11.2961 5.76 12.2001 5.76C12.2881 5.76 12.3761 5.76 12.4881 5.76C12.4881 5.112 12.4881 4.496 12.4881 3.88C12.4881 3.304 12.5921 3.2 13.1681 3.2C13.8961 3.2 14.6241 3.2 15.3521 3.2C15.7361 3.2 15.8801 3.352 15.8801 3.736C15.8801 4.4 15.8801 5.064 15.8801 5.76C16.0481 5.76 16.1841 5.76 16.3201 5.76C17.0241 5.784 17.5601 6.312 17.5841 7.024C17.5921 7.456 17.5841 7.896 17.5841 8.32C17.8721 8.416 18.1521 8.48 18.4001 8.6C19.4641 9.112 20.0481 9.976 20.1361 11.152C20.1521 11.344 20.2161 11.416 20.3841 11.488C23.6321 12.856 25.5281 15.28 26.0561 18.776C26.1121 19.168 26.1201 19.576 26.1201 19.976C26.1201 22.12 26.1201 24.264 26.1201 26.408C26.1201 26.592 26.1681 26.72 26.3041 26.848C26.6961 27.2 26.9041 27.656 26.9681 28.176C27.0241 28.616 26.8561 28.808 26.4081 28.808C21.0881 28.808 15.7761 28.808 10.4561 28.808C9.04806 28.808 7.64806 28.808 6.24006 28.808C5.76806 28.808 5.60006 28.616 5.66406 28.144C5.83206 27.008 6.70406 26.264 7.88006 26.264C12.4161 26.264 16.9521 26.264 21.4801 26.264H21.8561C21.8561 26.144 21.8561 26.04 21.8561 25.936C21.8561 23.952 21.8561 21.968 21.8561 19.984C21.8561 18.576 21.3681 17.384 20.3521 16.408C20.1841 16.248 20.0801 16.072 20.2001 15.84C20.3041 15.648 20.4721 15.584 20.6721 15.64C20.7681 15.664 20.8561 15.736 20.9361 15.808C22.0961 16.912 22.6801 18.272 22.6881 19.872C22.7041 21.88 22.6881 23.888 22.6881 25.904C22.6881 26.008 22.6881 26.112 22.6881 26.264L22.7121 26.24ZM16.7521 8.328C16.7521 7.912 16.7521 7.512 16.7521 7.112C16.7521 6.736 16.6001 6.584 16.2161 6.584C14.8641 6.584 13.5121 6.584 12.1601 6.584C11.7681 6.584 11.6161 6.736 11.6161 7.136C11.6161 11.328 11.6161 15.512 11.6161 19.704C11.6161 20.12 11.7601 20.256 12.1841 20.256C13.5201 20.256 14.8481 20.256 16.1841 20.256C16.6161 20.256 16.7521 20.112 16.7521 19.672C16.7521 17.944 16.7521 16.224 16.7521 14.496V14.24C15.0481 13.912 14.1921 12.56 14.1921 11.264C14.1921 9.808 15.1761 8.672 16.7521 8.32V8.328ZM26.0401 27.936C25.8481 27.384 25.3921 27.08 24.7681 27.08C19.1361 27.08 13.4961 27.08 7.86406 27.08C7.80006 27.08 7.73606 27.08 7.68006 27.08C7.17606 27.12 6.68806 27.504 6.61606 27.936H26.0481H26.0401ZM17.1601 13.432C18.3361 13.432 19.3041 12.48 19.3121 11.312C19.3121 10.128 18.3681 9.16 17.2001 9.152C16.0081 9.144 15.0401 10.096 15.0321 11.288C15.0321 12.464 15.9841 13.432 17.1601 13.432ZM15.0241 5.736V4.048H13.3441V5.736H15.0241Z" fill="#220047"/>
<path d="M15.888 23.672C17.384 23.672 18.872 23.672 20.368 23.672C20.456 23.672 20.544 23.664 20.632 23.68C20.848 23.72 20.976 23.856 21 24.08C21.016 24.288 20.856 24.472 20.64 24.504C20.552 24.52 20.464 24.504 20.376 24.504C17.392 24.504 14.4 24.504 11.416 24.504C10.984 24.504 10.776 24.36 10.784 24.072C10.792 23.792 10.992 23.664 11.416 23.664C12.912 23.664 14.4 23.664 15.896 23.664L15.888 23.672Z" fill="#220047"/>
</svg>
