<svg width="50" height="59" viewBox="0 0 50 59" fill="none" xmlns="http://www.w3.org/2000/svg">
<path d="M25.0008 38.0948V42.4585H27.1826V39.0173" stroke="#018786" stroke-width="1.5" stroke-miterlimit="10" stroke-linecap="round" stroke-linejoin="round"/>
<path d="M40.2729 53.3696V38.0968C40.2729 34.7564 38.8548 31.595 36.7995 29.1971" stroke="#018786" stroke-width="1.5" stroke-miterlimit="10" stroke-linecap="round" stroke-linejoin="round"/>
<path d="M34.1402 19.4012C41.5061 21.858 46.8188 28.8093 46.8188 36.9999V53.3636" stroke="#018786" stroke-width="1.5" stroke-miterlimit="10" stroke-linecap="round" stroke-linejoin="round"/>
<path d="M29.3643 17.3628V7.54456H22.8188V38.0902H29.3643V26.0901" stroke="#018786" stroke-width="1.5" stroke-miterlimit="10" stroke-linecap="round" stroke-linejoin="round"/>
<path d="M49.0005 57.7268C49.0005 55.3181 47.0456 53.3632 44.6368 53.3632H18.4549C16.0461 53.3632 14.0912 55.3181 14.0912 57.7268H49.0005Z" stroke="#018786" stroke-width="1.5" stroke-miterlimit="10" stroke-linecap="round" stroke-linejoin="round"/>
<path d="M30.4547 17.3613C32.8547 17.3613 34.8184 19.325 34.8184 21.725C34.8184 24.125 32.8547 26.0886 30.4547 26.0886C28.0547 26.0886 26.091 24.125 26.091 21.725C26.091 19.325 28.0547 17.3613 30.4547 17.3613Z" stroke="#018786" stroke-width="1.5" stroke-miterlimit="10" stroke-linecap="round" stroke-linejoin="round"/>
<path d="M18.455 46.8186H35.9097" stroke="#018786" stroke-width="1.5" stroke-miterlimit="10" stroke-linecap="round" stroke-linejoin="round"/>
<path d="M25.0006 1H29.3643V7.54549H25.0006V1Z" stroke="#018786" stroke-width="1.5" stroke-miterlimit="10" stroke-linecap="round" stroke-linejoin="round"/>
<path d="M1.00005 57.7285H17.3638" stroke="#018786" stroke-width="1.5" stroke-miterlimit="10" stroke-linecap="round" stroke-linejoin="round"/>
</svg>
