<svg width="32" height="32" viewBox="0 0 32 32" fill="none" xmlns="http://www.w3.org/2000/svg">
<g clip-path="url(#clip0_111_128)">
<path d="M8.65695 10.6406L15.8633 8.24219C15.9492 8.21354 16.0404 8.21615 16.1185 8.24219L23.4186 10.7422C23.5983 10.8021 23.7077 10.9766 23.6894 11.1589C23.692 11.1667 23.692 11.1771 23.692 11.1875V19.6771H23.6894C23.6894 19.8229 23.6087 19.9661 23.4681 20.0365L16.2201 23.7188C16.1602 23.7552 16.0872 23.776 16.0117 23.776C15.931 23.776 15.8555 23.7526 15.7929 23.7109L8.52674 19.9219C8.3887 19.849 8.31057 19.7109 8.31057 19.5651V11.0417C8.30797 10.8359 8.45902 10.6693 8.65695 10.6406ZM6.32343 5.64062L8.52674 7.84375C8.71946 8.03646 8.71946 8.34635 8.52674 8.53906C8.33662 8.72917 8.02409 8.72917 7.83397 8.53906L5.64629 6.35156L5.70619 7.79948C5.70619 7.8125 5.70619 7.82812 5.70098 7.84115C5.66713 7.95052 5.59681 8.04427 5.50826 8.10938C5.41971 8.17448 5.31293 8.21354 5.19573 8.21354C5.04989 8.21615 4.91446 8.15625 4.8181 8.0599C4.71913 7.96354 4.65923 7.83073 4.65663 7.68229C4.61496 6.84896 4.52901 5.91667 4.52901 5.09635C4.52901 4.92969 4.58631 4.78906 4.68788 4.6901C4.78685 4.59375 4.92228 4.53646 5.08375 4.53385C5.78172 4.50781 6.9615 4.60156 7.68812 4.65365C7.83397 4.65625 7.96679 4.71354 8.06055 4.8099C8.15431 4.90365 8.21421 5.03385 8.21942 5.17708V5.1901C8.21942 5.33594 8.15952 5.47135 8.06315 5.56771C7.9694 5.66146 7.83918 5.72135 7.69594 5.72396H7.68552C7.24278 5.72396 6.9016 5.69271 6.56303 5.66146L6.32343 5.64062ZM1.83348 15.5156H4.94832C5.21917 15.5156 5.43794 15.7344 5.43794 16.0052C5.43794 16.276 5.21917 16.4948 4.94832 16.4948H1.85432L2.92211 17.4766C2.93253 17.487 2.94034 17.4974 2.94816 17.5104C3.00024 17.612 3.01847 17.7266 3.00024 17.8359C2.98462 17.9427 2.93513 18.0469 2.85179 18.1302C2.75022 18.2344 2.61219 18.2891 2.47676 18.2891C2.33873 18.2891 2.2007 18.2396 2.09652 18.1354C1.47929 17.5755 0.757874 16.9766 0.177098 16.3958C0.0572963 16.2812 0 16.1432 0 16.0026C0 15.8646 0.0572963 15.7292 0.169285 15.6146C0.643281 15.1016 1.547 14.3359 2.09652 13.8594C2.2007 13.7578 2.33613 13.7057 2.47155 13.7057C2.60438 13.7057 2.7372 13.7552 2.84138 13.8516L2.85179 13.862C2.95597 13.9661 3.00806 14.1042 3.00806 14.2396C3.00806 14.3724 2.95857 14.5052 2.85961 14.6094L2.8544 14.6172C2.54187 14.9323 2.27883 15.1484 2.01579 15.3646L1.83348 15.5156ZM5.64108 25.6771L7.84439 23.474C8.03451 23.2839 8.34703 23.2839 8.53715 23.474C8.72988 23.6667 8.72988 23.9766 8.53715 24.1693L6.34947 26.3568L7.79751 26.2969C7.81053 26.2969 7.82616 26.2995 7.83918 26.3021C7.94856 26.3385 8.04232 26.4062 8.10743 26.4948C8.17254 26.5833 8.21161 26.6901 8.21161 26.8073C8.21161 26.9531 8.15431 27.0885 8.05795 27.1849C7.96158 27.2839 7.82876 27.3438 7.68031 27.3464C6.84691 27.388 5.91454 27.474 5.09156 27.474C4.92488 27.474 4.78424 27.4167 4.68528 27.3177C4.58891 27.2188 4.53162 27.0833 4.52901 26.9219C4.50037 26.224 4.59673 25.0443 4.64882 24.3177C4.65142 24.1719 4.70872 24.0391 4.80508 23.9453C4.89884 23.8516 5.02905 23.7917 5.16969 23.7865H5.18271C5.32856 23.7865 5.46399 23.8464 5.56035 23.9427C5.65411 24.0365 5.71401 24.1667 5.71921 24.3099V24.3177C5.72182 24.763 5.68796 25.1016 5.65671 25.4401L5.64108 25.6771ZM15.5169 30.1641V27.0495C15.5169 26.7786 15.7357 26.5599 16.0065 26.5599C16.2774 26.5599 16.4961 26.7786 16.4961 27.0495V30.1432L17.478 29.0755C17.4884 29.0651 17.4988 29.0573 17.5118 29.0495C17.6134 28.9974 17.728 28.9792 17.8374 28.9974C17.9442 29.013 18.0483 29.0625 18.1317 29.1458C18.2359 29.2474 18.2905 29.3854 18.2905 29.5234C18.2905 29.6615 18.2411 29.7995 18.1369 29.9036C17.5769 30.5208 16.9779 31.2422 16.3972 31.8229C16.2774 31.9401 16.1393 32 15.9987 32C15.8607 32 15.7252 31.9427 15.6106 31.8307C15.0976 31.3568 14.3319 30.4557 13.8553 29.9036C13.7537 29.7995 13.7016 29.6641 13.7016 29.5286C13.7016 29.3958 13.7511 29.2604 13.8475 29.1589L13.8579 29.1484C13.9621 29.0443 14.1001 28.9922 14.2355 28.9922C14.3684 28.9922 14.5012 29.0417 14.6054 29.1406L14.6106 29.1458C14.9257 29.4583 15.1419 29.7214 15.358 29.9844L15.5169 30.1641ZM25.6792 26.3594L23.4759 24.1562C23.2831 23.9635 23.2831 23.6536 23.4759 23.4609C23.666 23.2708 23.9785 23.2708 24.1686 23.4609L26.3563 25.6484L26.2964 24.2005C26.2964 24.1875 26.2964 24.1719 26.3016 24.1589C26.3355 24.0495 26.4058 23.9557 26.4943 23.8906C26.5829 23.8255 26.6897 23.7865 26.8069 23.7865C26.9527 23.7839 27.0881 23.8438 27.1845 23.9401C27.2835 24.0365 27.3434 24.1693 27.346 24.3177C27.3876 25.151 27.4736 26.0833 27.4736 26.9062C27.4736 27.0729 27.4163 27.2135 27.3147 27.3125C27.2158 27.4089 27.0803 27.4661 26.9189 27.4688C26.2209 27.4948 25.0411 27.401 24.3145 27.349C24.1686 27.3464 24.0358 27.2891 23.942 27.1927C23.8483 27.099 23.7884 26.9688 23.7832 26.8255V26.8125C23.7832 26.6667 23.8431 26.5312 23.9394 26.4349C24.0332 26.3411 24.1634 26.2812 24.3067 26.276H24.3171C24.7624 26.2734 25.101 26.3073 25.437 26.3385L25.6792 26.3594ZM30.1691 16.4818H27.0543C26.7834 16.4818 26.5621 16.263 26.5621 15.9922C26.5621 15.7214 26.7834 15.5026 27.0543 15.5026H30.1483L29.0805 14.5208C29.0701 14.5104 29.0623 14.5 29.0544 14.487C29.0024 14.3854 28.9841 14.2708 29.0024 14.1615C29.018 14.0547 29.0675 13.9505 29.1508 13.8672C29.255 13.763 29.3904 13.7083 29.5284 13.7083C29.6665 13.7083 29.8045 13.7578 29.9087 13.862C30.5259 14.4219 31.2473 15.0208 31.8281 15.6016C31.9453 15.7214 32.0052 15.8594 32.0026 16C32.0026 16.138 31.9453 16.2734 31.8333 16.388C31.3593 16.901 30.4556 17.6667 29.9061 18.1432C29.8019 18.2448 29.6665 18.2969 29.531 18.2969C29.3982 18.2969 29.2628 18.2474 29.1612 18.151L29.1508 18.1406C29.0466 18.0365 28.9945 17.8984 28.9945 17.763C28.9945 17.6302 29.044 17.4948 29.143 17.3932L29.1482 17.3854C29.4607 17.0703 29.7238 16.8542 29.9868 16.638L30.1691 16.4818ZM26.3589 6.32292L24.1556 8.52604C23.9655 8.71615 23.653 8.71615 23.4628 8.52604C23.2701 8.33333 23.2701 8.02344 23.4628 7.83333L25.6505 5.64583L24.2025 5.70573C24.1895 5.70573 24.1738 5.70312 24.1608 5.70052C24.0514 5.66406 23.9577 5.59635 23.8926 5.50781C23.8275 5.41927 23.7884 5.3125 23.7884 5.19531C23.7884 5.04948 23.8457 4.91406 23.942 4.81771C24.0384 4.71875 24.1712 4.65885 24.3197 4.65625C25.1531 4.61458 26.0855 4.52865 26.9084 4.52865C27.0751 4.52865 27.2158 4.58594 27.3147 4.6849C27.4111 4.78385 27.4684 4.91927 27.471 5.08073C27.4996 5.77865 27.4033 6.95833 27.3512 7.6849C27.3486 7.83073 27.2913 7.96354 27.1949 8.0599C27.1012 8.15365 26.9709 8.21354 26.8277 8.21875H26.8147C26.6688 8.21875 26.5334 8.15885 26.437 8.0625C26.3433 7.96875 26.2834 7.83854 26.2782 7.69531V7.6875C26.2782 7.24219 26.3094 6.90365 26.3407 6.5651L26.3589 6.32292ZM16.4831 1.83333V4.94792C16.4831 5.21875 16.2643 5.4375 15.9935 5.4375C15.7226 5.4375 15.5013 5.21875 15.5013 4.94792V1.85677L14.522 2.92188C14.5116 2.93229 14.5012 2.9401 14.4882 2.94792C14.3866 3 14.272 3.01823 14.1626 3C14.0558 2.98438 13.9517 2.9349 13.8683 2.85156C13.7641 2.75 13.7094 2.61198 13.7094 2.47656C13.7094 2.33854 13.7589 2.20052 13.8631 2.09635C14.423 1.47917 15.0221 0.757812 15.6028 0.177083C15.7174 0.0572917 15.8581 0 15.9987 0C16.1367 0 16.2722 0.0572917 16.3867 0.169271C16.8998 0.643229 17.6655 1.54427 18.1421 2.09635C18.2437 2.20052 18.2958 2.33594 18.2958 2.47135C18.2958 2.60417 18.2463 2.73698 18.1499 2.84115L18.1395 2.85156C18.0353 2.95573 17.8973 3.00781 17.7619 3.00781C17.629 3.00781 17.4962 2.95833 17.392 2.85938L17.3842 2.85417C17.0691 2.54167 16.8529 2.27865 16.6368 2.01562L16.4831 1.83333ZM10.2508 16.862C10.2508 16.7083 10.3758 16.5807 10.5321 16.5807C10.6858 16.5807 10.8134 16.7057 10.8134 16.862V18.0052C10.8134 18.013 10.8134 18.0234 10.8108 18.0339C10.8108 18.0729 10.816 18.1042 10.8238 18.1302C10.829 18.138 10.8316 18.1458 10.8394 18.151L11.54 18.4766C11.6806 18.5417 11.7405 18.7083 11.678 18.849C11.6129 18.9896 11.4488 19.0495 11.3082 18.987L10.592 18.6536C10.579 18.6484 10.566 18.6432 10.5555 18.6328C10.441 18.5599 10.3602 18.4635 10.3107 18.3438C10.2717 18.2474 10.2534 18.1406 10.256 18.026V18.0078L10.2508 16.862ZM15.608 22.7109V14.5885L9.11532 11.6458V19.3229L15.608 22.7109ZM22.8821 11.7422L16.4154 14.5938V22.7188L22.8821 19.4323V11.7422ZM15.9857 9.04688L9.84715 11.0911L16.0143 13.888L22.1815 11.1719L15.9857 9.04688Z" fill="#220047"/>
</g>
<defs>
<clipPath id="clip0_111_128">
<rect width="32" height="32" fill="white"/>
</clipPath>
</defs>
</svg>
