<svg width="54" height="54" viewBox="0 0 54 54" fill="none" xmlns="http://www.w3.org/2000/svg">
<g clip-path="url(#clip0_951_326)">
<mask id="path-1-inside-1_951_326" fill="white">
<path d="M14.6086 17.9561L26.7693 13.9087C26.9143 13.8604 27.0681 13.8647 27.2 13.9087L39.5188 18.1274C39.8221 18.2285 40.0067 18.5229 39.9759 18.8306C39.9803 18.8438 39.9803 18.8613 39.9803 18.8789V33.2051H39.9759C39.9759 33.4512 39.8397 33.6929 39.6023 33.8115L27.3714 40.0254C27.2703 40.0869 27.1472 40.1221 27.0198 40.1221C26.8835 40.1221 26.7561 40.0825 26.6506 40.0122L14.3889 33.6182C14.1559 33.4951 14.0241 33.2622 14.0241 33.0161V18.6328C14.0197 18.2856 14.2746 18.0044 14.6086 17.9561ZM10.6708 9.51856L14.3889 13.2363C14.7141 13.5615 14.7141 14.0845 14.3889 14.4097C14.068 14.7305 13.5407 14.7305 13.2198 14.4097L9.52812 10.7183L9.6292 13.1616C9.6292 13.1836 9.6292 13.21 9.62041 13.2319C9.56328 13.4165 9.44462 13.5747 9.29519 13.6846C9.14576 13.7944 8.96557 13.8604 8.7678 13.8604C8.52169 13.8647 8.29315 13.7637 8.13054 13.6011C7.96354 13.4385 7.86246 13.2144 7.85806 12.9639C7.78774 11.5576 7.64271 9.98438 7.64271 8.6001C7.64271 8.31885 7.7394 8.08154 7.9108 7.91455C8.07781 7.75195 8.30634 7.65527 8.57882 7.65088C9.75665 7.60693 11.7475 7.76514 12.9737 7.85303C13.2198 7.85742 13.444 7.9541 13.6022 8.1167C13.7604 8.2749 13.8615 8.49463 13.8703 8.73633V8.7583C13.8703 9.00439 13.7692 9.23291 13.6066 9.39551C13.4484 9.55371 13.2286 9.65479 12.9869 9.65918H12.9693C12.2222 9.65918 11.6465 9.60645 11.0751 9.55371L10.6708 9.51856ZM3.094 26.1826H8.35029C8.80736 26.1826 9.17653 26.5518 9.17653 27.0088C9.17653 27.4658 8.80736 27.835 8.35029 27.835H3.12916L4.93107 29.4917C4.94864 29.5093 4.96183 29.5269 4.97501 29.5488C5.06291 29.7202 5.09368 29.9136 5.06291 30.0981C5.03654 30.2783 4.95304 30.4541 4.8124 30.5947C4.641 30.7705 4.40807 30.8628 4.17954 30.8628C3.94661 30.8628 3.71368 30.7793 3.53789 30.6035C2.4963 29.6587 1.27891 28.648 0.298852 27.668C0.0966875 27.4746 0 27.2417 0 27.0044C0 26.7715 0.0966875 26.543 0.285668 26.3496C1.08554 25.4839 2.61056 24.1919 3.53789 23.3877C3.71368 23.2163 3.94222 23.1284 4.17075 23.1284C4.39489 23.1284 4.61903 23.2119 4.79482 23.3745L4.8124 23.3921C4.9882 23.5679 5.0761 23.8008 5.0761 24.0293C5.0761 24.2534 4.99259 24.4775 4.82559 24.6533L4.8168 24.6665C4.28941 25.1982 3.84553 25.563 3.40164 25.9277L3.094 26.1826ZM9.51933 43.3301L13.2374 39.6123C13.5582 39.2915 14.0856 39.2915 14.4064 39.6123C14.7317 39.9375 14.7317 40.4605 14.4064 40.7856L10.7147 44.4771L13.1583 44.376C13.1803 44.376 13.2066 44.3804 13.2286 44.3848C13.4132 44.4463 13.5714 44.5605 13.6813 44.71C13.7912 44.8594 13.8571 45.0396 13.8571 45.2373C13.8571 45.4834 13.7604 45.7119 13.5978 45.8745C13.4352 46.0415 13.211 46.1426 12.9605 46.147C11.5542 46.2173 9.98079 46.3623 8.59201 46.3623C8.31073 46.3623 8.07341 46.2656 7.9064 46.0986C7.74379 45.9316 7.64711 45.7031 7.64271 45.4307C7.59437 44.2529 7.75698 42.2622 7.84488 41.0361C7.84927 40.79 7.94596 40.5659 8.10857 40.4077C8.26679 40.2495 8.48653 40.1484 8.72385 40.1397H8.74583C8.99194 40.1397 9.22048 40.2407 9.38309 40.4033C9.5413 40.5615 9.64239 40.7813 9.65117 41.023V41.0361C9.65557 41.7876 9.59844 42.3589 9.5457 42.9302L9.51933 43.3301ZM26.1847 50.9019V45.646C26.1847 45.189 26.5539 44.8198 27.011 44.8198C27.4681 44.8198 27.8372 45.189 27.8372 45.646V50.8667L29.4941 49.0649C29.5117 49.0474 29.5293 49.0342 29.5512 49.021C29.7226 48.9331 29.916 48.9023 30.1006 48.9331C30.2808 48.9595 30.4566 49.043 30.5972 49.1836C30.773 49.355 30.8653 49.5879 30.8653 49.8208C30.8653 50.0537 30.7818 50.2866 30.606 50.4624C29.6611 51.5039 28.6503 52.7212 27.6702 53.7012C27.4681 53.8989 27.2351 54 26.9978 54C26.7649 54 26.5363 53.9033 26.343 53.7144C25.4772 52.9146 24.1851 51.394 23.3808 50.4624C23.2094 50.2866 23.1215 50.0581 23.1215 49.8296C23.1215 49.6055 23.205 49.377 23.3676 49.2056L23.3852 49.188C23.561 49.0122 23.7939 48.9243 24.0225 48.9243C24.2466 48.9243 24.4707 49.0078 24.6465 49.1748L24.6553 49.1836C25.1871 49.7109 25.5519 50.1548 25.9167 50.5986L26.1847 50.9019ZM43.3336 44.4814L39.6155 40.7637C39.2903 40.4385 39.2903 39.9155 39.6155 39.5903C39.9364 39.2695 40.4637 39.2695 40.7846 39.5903L44.4763 43.2817L44.3752 40.8384C44.3752 40.8164 44.3752 40.79 44.384 40.7681C44.4411 40.5835 44.5598 40.4253 44.7092 40.3154C44.8586 40.2056 45.0388 40.1397 45.2366 40.1397C45.4827 40.1353 45.7112 40.2363 45.8738 40.3989C46.0409 40.5615 46.1419 40.7856 46.1463 41.0361C46.2167 42.4424 46.3617 44.0156 46.3617 45.4043C46.3617 45.6855 46.265 45.9229 46.0936 46.0898C45.9266 46.2524 45.698 46.3491 45.4256 46.3535C44.2477 46.3975 42.2569 46.2393 41.0307 46.1514C40.7846 46.147 40.5604 46.0503 40.4022 45.8877C40.244 45.7295 40.1429 45.5098 40.1341 45.2681V45.2461C40.1341 45 40.2352 44.7715 40.3978 44.6089C40.556 44.4507 40.7758 44.3496 41.0175 44.3408H41.0351C41.7866 44.3364 42.3579 44.3936 42.9249 44.4463L43.3336 44.4814ZM50.9104 27.813H45.6541C45.197 27.813 44.8235 27.4438 44.8235 26.9868C44.8235 26.5298 45.197 26.1606 45.6541 26.1606H50.8752L49.0733 24.5039C49.0557 24.4863 49.0426 24.4688 49.0294 24.4468C48.9415 24.2754 48.9107 24.082 48.9415 23.8975C48.9678 23.7173 49.0514 23.5415 49.192 23.4009C49.3678 23.2251 49.5963 23.1328 49.8292 23.1328C50.0622 23.1328 50.2951 23.2163 50.4709 23.3921C51.5125 24.3369 52.7299 25.3477 53.7099 26.3276C53.9077 26.5298 54.0088 26.7627 54.0044 27C54.0044 27.2329 53.9077 27.4614 53.7187 27.6548C52.9189 28.5205 51.3938 29.8125 50.4665 30.6167C50.2907 30.7881 50.0622 30.876 49.8336 30.876C49.6095 30.876 49.381 30.7925 49.2096 30.6299L49.192 30.6123C49.0162 30.4365 48.9283 30.2036 48.9283 29.9751C48.9283 29.751 49.0118 29.5225 49.1788 29.3511L49.1876 29.3379C49.715 28.8062 50.1589 28.4414 50.6027 28.0767L50.9104 27.813ZM44.4807 10.6699L40.7626 14.3877C40.4418 14.7085 39.9144 14.7085 39.5935 14.3877C39.2683 14.0625 39.2683 13.5396 39.5935 13.2188L43.2853 9.52734L40.8417 9.62842C40.8197 9.62842 40.7934 9.62402 40.7714 9.61963C40.5868 9.55811 40.4286 9.44385 40.3187 9.29443C40.2088 9.14502 40.1429 8.96484 40.1429 8.76709C40.1429 8.521 40.2396 8.29248 40.4022 8.12988C40.5648 7.96289 40.789 7.86182 41.0395 7.85742C42.4458 7.78711 44.0192 7.64209 45.408 7.64209C45.6893 7.64209 45.9266 7.73877 46.0936 7.90576C46.2562 8.07275 46.3529 8.30127 46.3573 8.57373C46.4056 9.75147 46.243 11.7422 46.1551 12.9683C46.1507 13.2144 46.054 13.4385 45.8914 13.6011C45.7332 13.7593 45.5135 13.8604 45.2717 13.8691H45.2498C45.0037 13.8691 44.7751 13.7681 44.6125 13.6055C44.4543 13.4473 44.3532 13.2275 44.3444 12.9858V12.9727C44.3444 12.2212 44.3972 11.6499 44.4499 11.0786L44.4807 10.6699ZM27.8153 3.09375V8.34961C27.8153 8.80664 27.4461 9.17578 26.989 9.17578C26.5319 9.17578 26.1584 8.80664 26.1584 8.34961V3.1333L24.5059 4.93066C24.4883 4.94824 24.4707 4.96143 24.4488 4.97461C24.2774 5.0625 24.084 5.09326 23.8994 5.0625C23.7192 5.03613 23.5434 4.95264 23.4028 4.81201C23.227 4.64063 23.1347 4.40772 23.1347 4.1792C23.1347 3.94629 23.2182 3.71338 23.394 3.5376C24.3389 2.49609 25.3497 1.27881 26.3298 0.298828C26.5232 0.0966797 26.7605 0 26.9978 0C27.2307 0 27.4593 0.0966797 27.6526 0.285645C28.5184 1.08545 29.8105 2.60596 30.6148 3.5376C30.7862 3.71338 30.8741 3.94189 30.8741 4.17041C30.8741 4.39453 30.7906 4.61865 30.628 4.79443L30.6104 4.81201C30.4346 4.98779 30.2017 5.07568 29.9731 5.07568C29.749 5.07568 29.5249 4.99219 29.3491 4.8252L29.3359 4.81641C28.8041 4.28906 28.4393 3.84521 28.0745 3.40137L27.8153 3.09375ZM17.2983 28.4546C17.2983 28.1953 17.5092 27.98 17.7729 27.98C18.0322 27.98 18.2476 28.1909 18.2476 28.4546V30.3838C18.2476 30.397 18.2476 30.4146 18.2432 30.4321C18.2432 30.498 18.252 30.5508 18.2652 30.5947C18.2739 30.6079 18.2783 30.6211 18.2915 30.6299L19.4738 31.1792C19.7111 31.2891 19.8122 31.5703 19.7067 31.8076C19.5968 32.0449 19.3199 32.146 19.0826 32.0405L17.874 31.478C17.852 31.4692 17.8301 31.4605 17.8125 31.4429C17.6191 31.3198 17.4829 31.1572 17.3994 30.9551C17.3334 30.7925 17.3027 30.6123 17.3071 30.4189V30.3882L17.2983 28.4546ZM26.3386 38.3247V24.6182L15.3821 19.6523V32.6074L26.3386 38.3247ZM38.6135 19.8149L27.701 24.627V38.3379L38.6135 32.792V19.8149ZM26.9758 15.2666L16.6171 18.7163L27.0242 23.436L37.4313 18.8525L26.9758 15.2666Z"/>
</mask>
<path d="M14.6086 17.9561L26.7693 13.9087C26.9143 13.8604 27.0681 13.8647 27.2 13.9087L39.5188 18.1274C39.8221 18.2285 40.0067 18.5229 39.9759 18.8306C39.9803 18.8438 39.9803 18.8613 39.9803 18.8789V33.2051H39.9759C39.9759 33.4512 39.8397 33.6929 39.6023 33.8115L27.3714 40.0254C27.2703 40.0869 27.1472 40.1221 27.0198 40.1221C26.8835 40.1221 26.7561 40.0825 26.6506 40.0122L14.3889 33.6182C14.1559 33.4951 14.0241 33.2622 14.0241 33.0161V18.6328C14.0197 18.2856 14.2746 18.0044 14.6086 17.9561ZM10.6708 9.51856L14.3889 13.2363C14.7141 13.5615 14.7141 14.0845 14.3889 14.4097C14.068 14.7305 13.5407 14.7305 13.2198 14.4097L9.52812 10.7183L9.6292 13.1616C9.6292 13.1836 9.6292 13.21 9.62041 13.2319C9.56328 13.4165 9.44462 13.5747 9.29519 13.6846C9.14576 13.7944 8.96557 13.8604 8.7678 13.8604C8.52169 13.8647 8.29315 13.7637 8.13054 13.6011C7.96354 13.4385 7.86246 13.2144 7.85806 12.9639C7.78774 11.5576 7.64271 9.98438 7.64271 8.6001C7.64271 8.31885 7.7394 8.08154 7.9108 7.91455C8.07781 7.75195 8.30634 7.65527 8.57882 7.65088C9.75665 7.60693 11.7475 7.76514 12.9737 7.85303C13.2198 7.85742 13.444 7.9541 13.6022 8.1167C13.7604 8.2749 13.8615 8.49463 13.8703 8.73633V8.7583C13.8703 9.00439 13.7692 9.23291 13.6066 9.39551C13.4484 9.55371 13.2286 9.65479 12.9869 9.65918H12.9693C12.2222 9.65918 11.6465 9.60645 11.0751 9.55371L10.6708 9.51856ZM3.094 26.1826H8.35029C8.80736 26.1826 9.17653 26.5518 9.17653 27.0088C9.17653 27.4658 8.80736 27.835 8.35029 27.835H3.12916L4.93107 29.4917C4.94864 29.5093 4.96183 29.5269 4.97501 29.5488C5.06291 29.7202 5.09368 29.9136 5.06291 30.0981C5.03654 30.2783 4.95304 30.4541 4.8124 30.5947C4.641 30.7705 4.40807 30.8628 4.17954 30.8628C3.94661 30.8628 3.71368 30.7793 3.53789 30.6035C2.4963 29.6587 1.27891 28.648 0.298852 27.668C0.0966875 27.4746 0 27.2417 0 27.0044C0 26.7715 0.0966875 26.543 0.285668 26.3496C1.08554 25.4839 2.61056 24.1919 3.53789 23.3877C3.71368 23.2163 3.94222 23.1284 4.17075 23.1284C4.39489 23.1284 4.61903 23.2119 4.79482 23.3745L4.8124 23.3921C4.9882 23.5679 5.0761 23.8008 5.0761 24.0293C5.0761 24.2534 4.99259 24.4775 4.82559 24.6533L4.8168 24.6665C4.28941 25.1982 3.84553 25.563 3.40164 25.9277L3.094 26.1826ZM9.51933 43.3301L13.2374 39.6123C13.5582 39.2915 14.0856 39.2915 14.4064 39.6123C14.7317 39.9375 14.7317 40.4605 14.4064 40.7856L10.7147 44.4771L13.1583 44.376C13.1803 44.376 13.2066 44.3804 13.2286 44.3848C13.4132 44.4463 13.5714 44.5605 13.6813 44.71C13.7912 44.8594 13.8571 45.0396 13.8571 45.2373C13.8571 45.4834 13.7604 45.7119 13.5978 45.8745C13.4352 46.0415 13.211 46.1426 12.9605 46.147C11.5542 46.2173 9.98079 46.3623 8.59201 46.3623C8.31073 46.3623 8.07341 46.2656 7.9064 46.0986C7.74379 45.9316 7.64711 45.7031 7.64271 45.4307C7.59437 44.2529 7.75698 42.2622 7.84488 41.0361C7.84927 40.79 7.94596 40.5659 8.10857 40.4077C8.26679 40.2495 8.48653 40.1484 8.72385 40.1397H8.74583C8.99194 40.1397 9.22048 40.2407 9.38309 40.4033C9.5413 40.5615 9.64239 40.7813 9.65117 41.023V41.0361C9.65557 41.7876 9.59844 42.3589 9.5457 42.9302L9.51933 43.3301ZM26.1847 50.9019V45.646C26.1847 45.189 26.5539 44.8198 27.011 44.8198C27.4681 44.8198 27.8372 45.189 27.8372 45.646V50.8667L29.4941 49.0649C29.5117 49.0474 29.5293 49.0342 29.5512 49.021C29.7226 48.9331 29.916 48.9023 30.1006 48.9331C30.2808 48.9595 30.4566 49.043 30.5972 49.1836C30.773 49.355 30.8653 49.5879 30.8653 49.8208C30.8653 50.0537 30.7818 50.2866 30.606 50.4624C29.6611 51.5039 28.6503 52.7212 27.6702 53.7012C27.4681 53.8989 27.2351 54 26.9978 54C26.7649 54 26.5363 53.9033 26.343 53.7144C25.4772 52.9146 24.1851 51.394 23.3808 50.4624C23.2094 50.2866 23.1215 50.0581 23.1215 49.8296C23.1215 49.6055 23.205 49.377 23.3676 49.2056L23.3852 49.188C23.561 49.0122 23.7939 48.9243 24.0225 48.9243C24.2466 48.9243 24.4707 49.0078 24.6465 49.1748L24.6553 49.1836C25.1871 49.7109 25.5519 50.1548 25.9167 50.5986L26.1847 50.9019ZM43.3336 44.4814L39.6155 40.7637C39.2903 40.4385 39.2903 39.9155 39.6155 39.5903C39.9364 39.2695 40.4637 39.2695 40.7846 39.5903L44.4763 43.2817L44.3752 40.8384C44.3752 40.8164 44.3752 40.79 44.384 40.7681C44.4411 40.5835 44.5598 40.4253 44.7092 40.3154C44.8586 40.2056 45.0388 40.1397 45.2366 40.1397C45.4827 40.1353 45.7112 40.2363 45.8738 40.3989C46.0409 40.5615 46.1419 40.7856 46.1463 41.0361C46.2167 42.4424 46.3617 44.0156 46.3617 45.4043C46.3617 45.6855 46.265 45.9229 46.0936 46.0898C45.9266 46.2524 45.698 46.3491 45.4256 46.3535C44.2477 46.3975 42.2569 46.2393 41.0307 46.1514C40.7846 46.147 40.5604 46.0503 40.4022 45.8877C40.244 45.7295 40.1429 45.5098 40.1341 45.2681V45.2461C40.1341 45 40.2352 44.7715 40.3978 44.6089C40.556 44.4507 40.7758 44.3496 41.0175 44.3408H41.0351C41.7866 44.3364 42.3579 44.3936 42.9249 44.4463L43.3336 44.4814ZM50.9104 27.813H45.6541C45.197 27.813 44.8235 27.4438 44.8235 26.9868C44.8235 26.5298 45.197 26.1606 45.6541 26.1606H50.8752L49.0733 24.5039C49.0557 24.4863 49.0426 24.4688 49.0294 24.4468C48.9415 24.2754 48.9107 24.082 48.9415 23.8975C48.9678 23.7173 49.0514 23.5415 49.192 23.4009C49.3678 23.2251 49.5963 23.1328 49.8292 23.1328C50.0622 23.1328 50.2951 23.2163 50.4709 23.3921C51.5125 24.3369 52.7299 25.3477 53.7099 26.3276C53.9077 26.5298 54.0088 26.7627 54.0044 27C54.0044 27.2329 53.9077 27.4614 53.7187 27.6548C52.9189 28.5205 51.3938 29.8125 50.4665 30.6167C50.2907 30.7881 50.0622 30.876 49.8336 30.876C49.6095 30.876 49.381 30.7925 49.2096 30.6299L49.192 30.6123C49.0162 30.4365 48.9283 30.2036 48.9283 29.9751C48.9283 29.751 49.0118 29.5225 49.1788 29.3511L49.1876 29.3379C49.715 28.8062 50.1589 28.4414 50.6027 28.0767L50.9104 27.813ZM44.4807 10.6699L40.7626 14.3877C40.4418 14.7085 39.9144 14.7085 39.5935 14.3877C39.2683 14.0625 39.2683 13.5396 39.5935 13.2188L43.2853 9.52734L40.8417 9.62842C40.8197 9.62842 40.7934 9.62402 40.7714 9.61963C40.5868 9.55811 40.4286 9.44385 40.3187 9.29443C40.2088 9.14502 40.1429 8.96484 40.1429 8.76709C40.1429 8.521 40.2396 8.29248 40.4022 8.12988C40.5648 7.96289 40.789 7.86182 41.0395 7.85742C42.4458 7.78711 44.0192 7.64209 45.408 7.64209C45.6893 7.64209 45.9266 7.73877 46.0936 7.90576C46.2562 8.07275 46.3529 8.30127 46.3573 8.57373C46.4056 9.75147 46.243 11.7422 46.1551 12.9683C46.1507 13.2144 46.054 13.4385 45.8914 13.6011C45.7332 13.7593 45.5135 13.8604 45.2717 13.8691H45.2498C45.0037 13.8691 44.7751 13.7681 44.6125 13.6055C44.4543 13.4473 44.3532 13.2275 44.3444 12.9858V12.9727C44.3444 12.2212 44.3972 11.6499 44.4499 11.0786L44.4807 10.6699ZM27.8153 3.09375V8.34961C27.8153 8.80664 27.4461 9.17578 26.989 9.17578C26.5319 9.17578 26.1584 8.80664 26.1584 8.34961V3.1333L24.5059 4.93066C24.4883 4.94824 24.4707 4.96143 24.4488 4.97461C24.2774 5.0625 24.084 5.09326 23.8994 5.0625C23.7192 5.03613 23.5434 4.95264 23.4028 4.81201C23.227 4.64063 23.1347 4.40772 23.1347 4.1792C23.1347 3.94629 23.2182 3.71338 23.394 3.5376C24.3389 2.49609 25.3497 1.27881 26.3298 0.298828C26.5232 0.0966797 26.7605 0 26.9978 0C27.2307 0 27.4593 0.0966797 27.6526 0.285645C28.5184 1.08545 29.8105 2.60596 30.6148 3.5376C30.7862 3.71338 30.8741 3.94189 30.8741 4.17041C30.8741 4.39453 30.7906 4.61865 30.628 4.79443L30.6104 4.81201C30.4346 4.98779 30.2017 5.07568 29.9731 5.07568C29.749 5.07568 29.5249 4.99219 29.3491 4.8252L29.3359 4.81641C28.8041 4.28906 28.4393 3.84521 28.0745 3.40137L27.8153 3.09375ZM17.2983 28.4546C17.2983 28.1953 17.5092 27.98 17.7729 27.98C18.0322 27.98 18.2476 28.1909 18.2476 28.4546V30.3838C18.2476 30.397 18.2476 30.4146 18.2432 30.4321C18.2432 30.498 18.252 30.5508 18.2652 30.5947C18.2739 30.6079 18.2783 30.6211 18.2915 30.6299L19.4738 31.1792C19.7111 31.2891 19.8122 31.5703 19.7067 31.8076C19.5968 32.0449 19.3199 32.146 19.0826 32.0405L17.874 31.478C17.852 31.4692 17.8301 31.4605 17.8125 31.4429C17.6191 31.3198 17.4829 31.1572 17.3994 30.9551C17.3334 30.7925 17.3027 30.6123 17.3071 30.4189V30.3882L17.2983 28.4546ZM26.3386 38.3247V24.6182L15.3821 19.6523V32.6074L26.3386 38.3247ZM38.6135 19.8149L27.701 24.627V38.3379L38.6135 32.792V19.8149ZM26.9758 15.2666L16.6171 18.7163L27.0242 23.436L37.4313 18.8525L26.9758 15.2666Z" fill="#AA7EF0" stroke="#AA7EF0" stroke-width="4" mask="url(#path-1-inside-1_951_326)"/>
</g>
<defs>
<clipPath id="clip0_951_326">
<rect width="54" height="54" fill="white"/>
</clipPath>
</defs>
</svg>
