<svg width="16" height="16" viewBox="0 0 16 16" fill="none" xmlns="http://www.w3.org/2000/svg">
<path fill-rule="evenodd" clip-rule="evenodd" d="M7.99182 0C7.68035 0.00499953 7.42938 0.258476 7.42938 0.570946C7.42938 0.573946 7.42938 0.576446 7.42938 0.579446V0.578946V10.618L3.83671 7.02534C3.73322 6.92185 3.59074 6.85836 3.43325 6.85836C3.11778 6.85836 2.8623 7.11433 2.8623 7.4293C2.8623 7.58729 2.9263 7.72978 3.02979 7.83327L7.59686 12.4003C7.59836 12.4018 7.60086 12.4038 7.60336 12.4058L7.60436 12.4068C7.60986 12.4123 7.61586 12.4178 7.62186 12.4233L7.62236 12.4238C7.62986 12.4308 7.63786 12.4373 7.64586 12.4443L7.64686 12.4453C7.65086 12.4483 7.65635 12.4523 7.66185 12.4563L7.66335 12.4573C7.67085 12.4628 7.68035 12.4698 7.69035 12.4763L7.69285 12.4778C7.69785 12.4813 7.70535 12.4858 7.71335 12.4903L7.71585 12.4918C7.72185 12.4953 7.73035 12.5003 7.73935 12.5048L7.74235 12.5063C7.74685 12.5088 7.75485 12.5128 7.76285 12.5158L7.76635 12.5173C7.77134 12.5198 7.78034 12.5238 7.78934 12.5278L7.79284 12.5293C7.79834 12.5318 7.80834 12.5348 7.81834 12.5383L7.82234 12.5393C7.82634 12.5408 7.83434 12.5438 7.84234 12.5463L7.84634 12.5473C7.85184 12.5488 7.86184 12.5518 7.87184 12.5538L7.87533 12.5543C7.88033 12.5558 7.88983 12.5578 7.89883 12.5593L7.90233 12.5598C7.90783 12.5608 7.91733 12.5623 7.92683 12.5633L7.92983 12.5638C7.93683 12.5648 7.94683 12.5658 7.95683 12.5663H7.95833C7.96733 12.5668 7.97733 12.5673 7.98782 12.5673H7.98832C7.99232 12.5673 7.99732 12.5678 8.00182 12.5678C8.00632 12.5678 8.01132 12.5678 8.01632 12.5673H8.01582C8.03332 12.5668 8.05032 12.5658 8.06682 12.5638L8.06432 12.5643C8.06882 12.5638 8.06982 12.5633 8.07132 12.5633L8.06782 12.5638C8.08282 12.5618 8.09481 12.5598 8.10681 12.5573L8.10331 12.5578C8.11631 12.5553 8.12531 12.5533 8.13431 12.5513L8.13031 12.5523C8.14131 12.5498 8.14881 12.5478 8.15581 12.5458L8.15181 12.5468C8.16731 12.5423 8.17881 12.5388 8.18981 12.5353L8.18581 12.5363C8.19681 12.5328 8.2033 12.5298 8.2103 12.5273L8.2068 12.5288C8.2208 12.5233 8.2308 12.5193 8.2403 12.5143L8.2368 12.5158C8.2553 12.5073 8.2693 12.5003 8.2833 12.4928L8.2803 12.4943C8.2828 12.4928 8.2833 12.4923 8.2838 12.4918L8.2818 12.4933C8.2953 12.4858 8.30579 12.4788 8.31629 12.4718L8.31429 12.4733C8.32379 12.4668 8.33129 12.4623 8.33829 12.4568L8.33679 12.4578C8.35079 12.4473 8.36279 12.4378 8.37429 12.4278L8.37379 12.4283C8.37479 12.4273 8.37629 12.4258 8.37729 12.4248C8.38679 12.4168 8.39579 12.4093 8.40379 12.4013L12.9704 7.83477C13.0773 7.73078 13.1433 7.58579 13.1433 7.4253C13.1433 7.10983 12.8879 6.85436 12.5724 6.85436C12.5664 6.85436 12.5609 6.85436 12.5549 6.85486H12.5559C12.4019 6.85936 12.2634 6.92435 12.1634 7.02684L8.57127 10.6195V0.580446C8.57127 0.577946 8.57127 0.575446 8.57127 0.572946C8.57127 0.257476 8.31579 0.00199981 8.00032 0.00199981C7.99732 0.00199981 7.99432 0.00199981 7.99132 0.00199981H7.99182V0ZM0.578946 14.8501C0.576446 14.8501 0.573946 14.8501 0.570946 14.8501C0.255476 14.8501 0 15.1056 0 15.421C0 15.7365 0.255976 15.992 0.570946 15.992C0.573946 15.992 0.576446 15.992 0.579446 15.992H15.4211C15.4236 15.992 15.4261 15.992 15.4291 15.992C15.7445 15.992 16 15.7365 16 15.421C16 15.1056 15.7445 14.8501 15.4291 14.8501C15.4261 14.8501 15.4236 14.8501 15.4206 14.8501H0.578946Z" fill="white" fill-opacity="0.8"/>
</svg>
