<svg width="20" height="20" viewBox="0 0 20 20" fill="none" xmlns="http://www.w3.org/2000/svg">
<path d="M10.8337 1.6665H9.16699V11.6665H10.8337V1.6665Z" fill="inherit"/>
<path d="M15.8337 18.3333H4.16699C2.75033 18.3333 1.66699 17.25 1.66699 15.8333V15H3.33366V15.8333C3.33366 16.3333 3.66699 16.6667 4.16699 16.6667H15.8337C16.3337 16.6667 16.667 16.3333 16.667 15.8333V15H18.3337V15.8333C18.3337 17.25 17.2503 18.3333 15.8337 18.3333Z" fill="inherit"/>
<path d="M10.0001 15.0001C9.3584 15.0001 8.71673 14.7585 8.2334 14.2668L4.1084 10.1418L5.2834 8.9668L9.4084 13.0918C9.7334 13.4168 10.2584 13.4168 10.5834 13.0918L14.7084 8.9668L15.8834 10.1418L11.7584 14.2668C11.2834 14.7501 10.6417 15.0001 10.0001 15.0001Z" fill="inherit"/>
</svg>
