<svg width="128" height="112" viewBox="0 0 128 112" fill="none" xmlns="http://www.w3.org/2000/svg">
<path d="M93.6562 85.0446L23.2007 104.687L0 19.6429L70.4556 0L93.6562 85.0446Z" fill="white"/>
<path d="M93.6562 85.0446L23.2007 104.687L0 19.6429L70.4556 0L93.6562 85.0446ZM24.1008 103.084L92.0705 84.1346L69.5554 1.60305L1.58574 20.5529L24.1008 103.084Z" fill="#F1F1F1"/>
<path d="M55.1224 38.099L37.4614 43.0229C37.2123 43.0921 36.9462 43.0585 36.7215 42.9295C36.4968 42.8006 36.3319 42.5868 36.2629 42.3351L31.3922 24.4812C31.3238 24.2293 31.357 23.9603 31.4846 23.7332C31.6121 23.5061 31.8236 23.3393 32.0726 23.2696L49.7336 18.3457C49.9827 18.2766 50.2488 18.3102 50.4735 18.4391C50.6982 18.568 50.8631 18.7818 50.9321 19.0335L55.8027 36.8875C55.8712 37.1393 55.8379 37.4083 55.7104 37.6355C55.5828 37.8626 55.3714 38.0293 55.1224 38.099ZM32.1762 23.6495C32.0268 23.6913 31.8999 23.7914 31.8234 23.9276C31.7469 24.0639 31.7269 24.2253 31.768 24.3764L36.6387 42.2304C36.68 42.3814 36.779 42.5097 36.9138 42.587C37.0486 42.6644 37.2083 42.6845 37.3577 42.6431L55.0188 37.7192C55.1681 37.6774 55.295 37.5773 55.3716 37.441C55.4481 37.3048 55.468 37.1433 55.427 36.9922L50.5563 19.1383C50.5149 18.9873 50.416 18.859 50.2812 18.7816C50.1463 18.7043 49.9867 18.6841 49.8372 18.7256L32.1762 23.6495Z" fill="#E5E5E5"/>
<path d="M50.6456 41.6966L32.9846 46.6205C32.7603 46.6827 32.5209 46.6525 32.3186 46.5365C32.1164 46.4204 31.968 46.228 31.9059 46.0015L27.0352 28.1475C26.9737 27.9209 27.0036 27.6788 27.1184 27.4743C27.2331 27.2699 27.4235 27.1199 27.6476 27.0571L45.3086 22.1332C45.5328 22.071 45.7723 22.1012 45.9745 22.2173C46.1767 22.3333 46.3251 22.5257 46.3872 22.7522L51.2579 40.6062C51.3194 40.8329 51.2895 41.075 51.1748 41.2794C51.06 41.4838 50.8697 41.6339 50.6456 41.6966Z" fill="#8490B3"/>
<path d="M71.1053 44.1344L21.8203 57.875L22.3456 59.8003L71.6306 46.0598L71.1053 44.1344Z" fill="#F1F1F1"/>
<path d="M72.4744 49.1539L23.1895 62.8945L23.7147 64.8199L72.9997 51.0793L72.4744 49.1539Z" fill="#F1F1F1"/>
<path d="M73.8436 54.1754L24.5586 67.916L25.0838 69.8414L74.3688 56.1008L73.8436 54.1754Z" fill="#F1F1F1"/>
<path d="M76.2537 63.0094L26.9688 76.75L27.494 78.6754L76.779 64.9348L76.2537 63.0094Z" fill="#F1F1F1"/>
<path d="M77.6248 68.0289L28.3398 81.7695L28.8651 83.6949L78.1501 69.9543L77.6248 68.0289Z" fill="#F1F1F1"/>
<path d="M78.994 73.0504L29.709 86.791L30.2342 88.7164L79.5192 74.9758L78.994 73.0504Z" fill="#F1F1F1"/>
<path d="M116.209 104.403H43.123V16.1836H116.209V104.403Z" fill="white"/>
<path d="M116.209 104.403H43.123V16.1836H116.209V104.403ZM44.4124 103.1H114.92V17.487H44.4124V103.1Z" fill="#E5E5E5"/>
<path d="M102.903 54.1074H61.1172V56.1047H102.903V54.1074Z" fill="#8490B3"/>
<path d="M102.903 59.3008H61.1172V61.298H102.903V59.3008Z" fill="#8490B3"/>
<path d="M102.903 64.4941H61.1172V66.4914H102.903V64.4941Z" fill="#8490B3"/>
<path d="M57.719 56.7026C58.4311 56.7026 59.0084 56.119 59.0084 55.3991C59.0084 54.6793 58.4311 54.0957 57.719 54.0957C57.0069 54.0957 56.4297 54.6793 56.4297 55.3991C56.4297 56.119 57.0069 56.7026 57.719 56.7026Z" fill="#8490B3"/>
<path d="M102.903 31.7324H61.1172V33.7297H102.903V31.7324Z" fill="#E5E5E5"/>
<path d="M102.903 36.9258H61.1172V38.923H102.903V36.9258Z" fill="#E5E5E5"/>
<path d="M102.903 42.1191H61.1172V44.1164H102.903V42.1191Z" fill="#E5E5E5"/>
<path d="M57.719 34.1108C58.4311 34.1108 59.0084 33.5272 59.0084 32.8073C59.0084 32.0875 58.4311 31.5039 57.719 31.5039C57.0069 31.5039 56.4297 32.0875 56.4297 32.8073C56.4297 33.5272 57.0069 34.1108 57.719 34.1108Z" fill="#E5E5E5"/>
<path d="M102.903 76.7012H61.1172V78.6984H102.903V76.7012Z" fill="#E5E5E5"/>
<path d="M102.903 81.8945H61.1172V83.8918H102.903V81.8945Z" fill="#E5E5E5"/>
<path d="M102.903 87.0859H61.1172V89.0832H102.903V87.0859Z" fill="#E5E5E5"/>
<path d="M57.719 79.0795C58.4311 79.0795 59.0084 78.496 59.0084 77.7761C59.0084 77.0562 58.4311 76.4727 57.719 76.4727C57.0069 76.4727 56.4297 77.0562 56.4297 77.7761C56.4297 78.496 57.0069 79.0795 57.719 79.0795Z" fill="#E5E5E5"/>
<path d="M112.798 112C121.048 112 127.736 105.239 127.736 96.8983C127.736 88.558 121.048 81.7969 112.798 81.7969C104.547 81.7969 97.8594 88.558 97.8594 96.8983C97.8594 105.239 104.547 112 112.798 112Z" fill="#3A54C1"/>
<path d="M116.936 95.9359V93.0464C116.937 92.4967 116.83 91.9523 116.622 91.4443C116.414 90.9364 116.109 90.4747 115.725 90.0859C115.341 89.6971 114.884 89.3886 114.382 89.1781C113.88 88.9677 113.341 88.8594 112.797 88.8594C112.254 88.8594 111.715 88.9677 111.213 89.1781C110.711 89.3886 110.254 89.6971 109.87 90.0859C109.485 90.4747 109.181 90.9364 108.973 91.4443C108.765 91.9523 108.658 92.4967 108.659 93.0464V95.9359C108.105 95.9611 107.583 96.2009 107.2 96.6055C106.818 97.0101 106.604 97.5482 106.604 98.1081V104.936H118.991V98.1081C118.991 97.5482 118.777 97.0101 118.395 96.6055C118.012 96.2009 117.489 95.9611 116.936 95.9359ZM112.797 90.3355C113.508 90.3364 114.19 90.6223 114.693 91.1305C115.195 91.6387 115.478 92.3277 115.479 93.0464V95.9309H110.116V93.0464C110.117 92.3277 110.4 91.6387 110.902 91.1305C111.405 90.6223 112.087 90.3364 112.797 90.3355Z" fill="white"/>
<path d="M113.911 99.3077C113.911 99.1136 113.861 98.9228 113.767 98.7538C113.672 98.5848 113.536 98.4433 113.372 98.3432C113.207 98.243 113.02 98.1875 112.828 98.1821C112.636 98.1767 112.446 98.2215 112.276 98.3122C112.107 98.403 111.963 98.5366 111.86 98.7C111.756 98.8634 111.696 99.0511 111.685 99.2449C111.675 99.4387 111.714 99.632 111.799 99.806C111.884 99.98 112.012 100.129 112.171 100.238V102.685H113.423V100.238C113.573 100.135 113.696 99.9962 113.781 99.834C113.866 99.6719 113.911 99.4912 113.911 99.3077Z" fill="#8490B3"/>
</svg>
