<svg width="40" height="40" viewBox="0 0 40 40"  xmlns="http://www.w3.org/2000/svg">
<!-- <circle cx="20" cy="20" r="20" fill-opacity="0.1"/> -->
<path d="M26.8 31H20.2C19 31 18.3 31 17.6 30.7C17 30.4 16.6 30 16.3 29.4C16 28.7 16 28 16 26.8V20.2C16 19 16 18.3 16.3 17.6C16.6 17 17 16.6 17.6 16.3C18.3 16 19 16 20.2 16H26.8C28 16 28.7 16 29.4 16.3C30 16.6 30.4 17 30.7 17.6C31 18.3 31 19 31 20.2V26.8C31 28 31 28.7 30.7 29.4C30.4 30 30 30.4 29.4 30.7C28.7 31 28 31 26.8 31ZM20.2 18C19.3 18 18.8 18 18.5 18.1C18.3 18.2 18.2 18.4 18.1 18.5C18 18.8 18 19.3 18 20.2V26.8C18 27.7 18 28.2 18.1 28.5C18.2 28.7 18.3 28.8 18.5 28.9C18.7 29 19.3 29 20.2 29H26.8C27.7 29 28.2 29 28.5 28.9C28.7 28.8 28.8 28.7 28.9 28.5C29 28.3 29 27.7 29 26.8V20.2C29 19.3 29 18.8 28.9 18.5C28.8 18.3 28.7 18.2 28.5 18.1C28.2 18 27.7 18 26.8 18H20.2ZM13 24C12 24 11.4 24 10.9 23.8C10.2 23.5 9.6 22.9 9.3 22.2C9 21.6 9 21 9 20V13.2C9 12 9 11.3 9.3 10.6C9.6 10 10 9.6 10.6 9.3C11.3 9 12 9 13.2 9H20C21 9 21.6 9 22.1 9.2C22.8 9.5 23.4 10.1 23.7 10.8C24 11.4 24 12 24 13C24 13.6 23.6 14 23 14C22.4 14 22 13.6 22 13C22 12.3 22 11.8 21.9 11.6C21.8 11.4 21.6 11.2 21.4 11.1C21.2 11 20.7 11 20 11H13.2C12.3 11 11.8 11 11.5 11.1C11.4 11.2 11.2 11.4 11.1 11.5C11 11.8 11 12.3 11 13.2V20C11 20.7 11 21.2 11.1 21.4C11.2 21.6 11.4 21.8 11.6 21.9C11.8 22 12.3 22 13 22C13.6 22 14 22.4 14 23C14 23.6 13.6 24 13 24Z"/>
</svg>
