<svg width="32" height="32" viewBox="0 0 32 32" fill="none" xmlns="http://www.w3.org/2000/svg">
<path d="M9.11115 7.66666H28.4897C29.2917 7.66666 29.9122 8.36956 29.8127 9.16536L28.8127 17.1653C28.7293 17.8327 28.1621 18.3333 27.4897 18.3333H24.0741H14.5926H12.6667" stroke="#220047" stroke-linejoin="round"/>
<path d="M4.66669 5H7.64485C8.24773 5 8.77561 5.40455 8.93234 5.98671L13.0677 21.3467C13.2244 21.9288 13.7523 22.3333 14.3552 22.3333H27.3333" stroke="#220047" stroke-linecap="round" stroke-linejoin="round"/>
<path d="M15.3333 27.6667C16.0697 27.6667 16.6667 27.0697 16.6667 26.3333C16.6667 25.597 16.0697 25 15.3333 25C14.597 25 14 25.597 14 26.3333C14 27.0697 14.597 27.6667 15.3333 27.6667Z" stroke="#220047" stroke-linejoin="round"/>
<path d="M25.3333 27.6667C26.0697 27.6667 26.6667 27.0697 26.6667 26.3333C26.6667 25.597 26.0697 25 25.3333 25C24.597 25 24 25.597 24 26.3333C24 27.0697 24.597 27.6667 25.3333 27.6667Z" stroke="#220047" stroke-linejoin="round"/>
<path d="M5.13333 15.4C5.13333 15.6944 5.37171 15.9334 5.66665 15.9334H7.53335C7.82828 15.9334 8.06666 15.6944 8.06666 15.4C8.06666 15.1057 7.82828 14.8667 7.53335 14.8667H5.66671C5.37177 14.8667 5.13333 15.1057 5.13333 15.4Z" fill="#220047"/>
<path d="M7.26665 12.2C7.26665 11.9056 7.02827 11.6667 6.73333 11.6667H3.53332C3.23838 11.6667 3 11.9056 3 12.2C3 12.4943 3.23838 12.7333 3.53332 12.7333H6.73333C7.02821 12.7333 7.26665 12.4944 7.26665 12.2Z" fill="#220047"/>
<path d="M8.33333 18.0667H4.6C4.30506 18.0667 4.06668 18.3056 4.06668 18.6C4.06668 18.8944 4.30506 19.1333 4.6 19.1333H8.33333C8.62827 19.1333 8.86665 18.8944 8.86665 18.6C8.86665 18.3056 8.62827 18.0667 8.33333 18.0667Z" fill="#220047"/>
</svg>
