<svg width="32" height="32" viewBox="0 0 32 32" fill="none" xmlns="http://www.w3.org/2000/svg">
<path d="M18.248 21.672C18.424 21.752 18.592 21.832 18.784 21.928C19.144 20.368 20.056 19.288 21.512 18.664C20.056 17.12 20.44 15.104 21.64 14.048C22.88 12.96 24.76 12.992 25.968 14.152C27.112 15.248 27.376 17.208 25.984 18.664C26.064 18.704 26.136 18.736 26.208 18.768C27.848 19.576 28.72 20.888 28.776 22.72C28.8 23.424 28.776 24.128 28.776 24.824C28.776 25.216 28.656 25.336 28.272 25.336C25.96 25.336 23.64 25.336 21.328 25.336H21.024C21.024 26.136 21.024 26.912 21.024 27.688C21.024 27.792 21.024 27.888 21.024 27.992C21 28.216 20.872 28.336 20.648 28.352C20.592 28.352 20.528 28.352 20.472 28.352C17.488 28.352 14.504 28.352 11.52 28.352C11.056 28.352 10.96 28.256 10.96 27.8C10.96 26.992 10.96 26.184 10.96 25.344C10.856 25.344 10.76 25.344 10.656 25.344C8.35198 25.344 6.03998 25.344 3.73598 25.344C3.31198 25.344 3.19998 25.232 3.19998 24.816C3.20798 23.944 3.15198 23.072 3.24798 22.208C3.43198 20.584 4.33598 19.448 5.81598 18.752C5.87198 18.728 5.93598 18.696 5.99198 18.664C4.52798 17.12 4.92798 15.08 6.14398 14.032C7.38398 12.96 9.25598 13 10.456 14.144C11.6 15.24 11.872 17.184 10.472 18.656C11.928 19.28 12.84 20.352 13.208 21.92C13.392 21.84 13.568 21.76 13.744 21.672C12.168 19.96 12.848 17.904 13.912 17.016C15.16 15.976 16.952 16.008 18.168 17.112C19.28 18.12 19.68 20.128 18.232 21.664L18.248 21.672ZM20.28 27.584C20.28 26.896 20.296 26.232 20.28 25.568C20.224 24.016 19.152 22.68 17.648 22.288C17.528 22.256 17.384 22.272 17.272 22.312C16.424 22.648 15.584 22.648 14.736 22.312C14.64 22.272 14.504 22.256 14.408 22.288C13.168 22.632 12.328 23.416 11.912 24.632C11.808 24.936 11.76 25.264 11.744 25.592C11.72 26.256 11.744 26.92 11.744 27.6H20.288L20.28 27.584ZM28.04 24.576C28.04 23.872 28.064 23.184 28.04 22.504C27.976 20.976 26.832 19.616 25.352 19.264C25.256 19.24 25.136 19.248 25.048 19.288C24.192 19.64 23.344 19.64 22.488 19.288C22.392 19.248 22.256 19.24 22.16 19.264C20.8 19.656 19.952 20.552 19.576 21.904C19.488 22.224 19.52 22.464 19.8 22.712C20.352 23.208 20.68 23.856 20.896 24.568H28.048L28.04 24.576ZM11.128 24.576C11.36 23.8 11.752 23.128 12.344 22.584C12.488 22.456 12.52 22.328 12.496 22.152C12.296 20.8 11.2 19.592 9.86398 19.264C9.75998 19.24 9.63198 19.248 9.53598 19.288C8.67998 19.64 7.83198 19.64 6.97598 19.288C6.88798 19.256 6.78398 19.24 6.69598 19.256C5.31998 19.568 4.17598 20.792 4.03198 22.184C3.95998 22.92 3.99198 23.672 3.97598 24.408C3.97598 24.464 3.99198 24.52 3.99998 24.576H11.136H11.128ZM5.82398 16.408C5.82398 17.72 6.92798 18.8 8.25598 18.8C9.58398 18.8 10.68 17.712 10.68 16.4C10.68 15.08 9.56798 13.992 8.23198 14C6.89598 14.008 5.81598 15.088 5.82398 16.408ZM26.192 16.4C26.192 15.08 25.104 14.008 23.768 14C22.432 14 21.32 15.088 21.328 16.408C21.328 17.72 22.432 18.8 23.76 18.8C25.096 18.8 26.184 17.72 26.184 16.4H26.192ZM18.432 19.4C18.432 18.08 17.336 17.008 16.008 17.008C14.664 17.008 13.568 18.096 13.584 19.424C13.6 20.744 14.696 21.816 16.024 21.808C17.36 21.8 18.44 20.72 18.44 19.4H18.432Z" fill="#220047"/>
<path d="M13.16 5.312C13.184 5.08 13.184 4.88 13.232 4.688C13.384 4.08 13.904 3.672 14.528 3.664C15.504 3.664 16.48 3.664 17.464 3.664C18.224 3.664 18.8 4.248 18.816 5.016C18.816 5.104 18.816 5.192 18.816 5.312C19.44 5.312 20.024 5.312 20.616 5.312C21.032 5.312 21.376 5.48 21.584 5.832C21.704 6.04 21.784 6.304 21.784 6.536C21.8 8.472 21.8 10.416 21.784 12.352C21.784 13.096 21.296 13.576 20.552 13.576C17.512 13.576 14.464 13.576 11.424 13.576C10.696 13.576 10.208 13.096 10.2 12.368C10.192 10.424 10.192 8.472 10.2 6.528C10.2 5.784 10.688 5.32 11.432 5.312C12 5.312 12.568 5.312 13.152 5.312H13.16ZM10.976 8.408C10.976 8.528 10.96 8.592 10.96 8.656C10.96 9.856 10.96 11.064 10.96 12.264C10.96 12.696 11.096 12.832 11.536 12.832C14.512 12.832 17.488 12.832 20.464 12.832C20.912 12.832 21.048 12.704 21.048 12.248C21.048 11.064 21.048 9.872 21.048 8.688C21.048 8.608 21.04 8.528 21.032 8.416C20.928 8.48 20.848 8.52 20.776 8.568C20.144 8.976 19.52 9.4 18.888 9.8C18.752 9.88 18.584 9.928 18.424 9.936C18.128 9.96 17.832 9.936 17.536 9.936C17.392 10.472 17.24 10.584 16.712 10.584C16.264 10.584 15.808 10.584 15.36 10.584C14.768 10.584 14.664 10.512 14.48 9.952C14.464 9.952 14.448 9.944 14.432 9.936C14.352 9.936 14.264 9.92 14.184 9.936C13.592 10.016 13.104 9.832 12.632 9.48C12.12 9.096 11.568 8.768 10.992 8.392L10.976 8.408ZM17.528 9.2C17.704 9.2 17.872 9.184 18.04 9.2C18.328 9.232 18.568 9.136 18.808 8.976C19.304 8.632 19.816 8.312 20.312 7.984C20.552 7.824 20.888 7.704 21.008 7.472C21.128 7.232 21.048 6.888 21.048 6.584C21.048 6.56 21.048 6.536 21.048 6.512C21.024 6.216 20.888 6.072 20.584 6.072C17.536 6.072 14.48 6.072 11.432 6.072C11.128 6.072 10.984 6.216 10.968 6.512C10.96 6.768 10.968 7.032 10.968 7.288C10.968 7.44 11.008 7.528 11.144 7.616C11.824 8.056 12.528 8.472 13.168 8.952C13.6 9.272 14.04 9.168 14.488 9.192C14.616 8.68 14.776 8.56 15.272 8.56C15.768 8.56 16.256 8.56 16.752 8.56C17.248 8.56 17.4 8.68 17.536 9.2H17.528ZM13.96 5.304H18.04C18.12 4.696 17.888 4.424 17.296 4.424C16.432 4.424 15.576 4.424 14.712 4.424C14.112 4.424 13.896 4.664 13.952 5.304H13.96ZM16.728 9.84V9.344H15.272V9.84H16.728Z" fill="#220047"/>
<path d="M4.824 25.328C5.03166 25.328 5.2 25.1597 5.2 24.952C5.2 24.7443 5.03166 24.576 4.824 24.576C4.61634 24.576 4.448 24.7443 4.448 24.952C4.448 25.1597 4.61634 25.328 4.824 25.328Z" fill="#220047"/>
<path d="M6.31203 25.328C6.51969 25.328 6.68803 25.1597 6.68803 24.952C6.68803 24.7443 6.51969 24.576 6.31203 24.576C6.10438 24.576 5.93604 24.7443 5.93604 24.952C5.93604 25.1597 6.10438 25.328 6.31203 25.328Z" fill="#220047"/>
<path d="M12.632 28.336C12.8396 28.336 13.008 28.1676 13.008 27.96C13.008 27.7523 12.8396 27.584 12.632 27.584C12.4243 27.584 12.256 27.7523 12.256 27.96C12.256 28.1676 12.4243 28.336 12.632 28.336Z" fill="#220047"/>
<path d="M14.128 28.336C14.3356 28.336 14.504 28.1676 14.504 27.96C14.504 27.7523 14.3356 27.584 14.128 27.584C13.9203 27.584 13.752 27.7523 13.752 27.96C13.752 28.1676 13.9203 28.336 14.128 28.336Z" fill="#220047"/>
<path d="M25.44 25.328C25.6476 25.328 25.816 25.1597 25.816 24.952C25.816 24.7443 25.6476 24.576 25.44 24.576C25.2323 24.576 25.064 24.7443 25.064 24.952C25.064 25.1597 25.2323 25.328 25.44 25.328Z" fill="#220047"/>
<path d="M26.928 25.328C27.1357 25.328 27.304 25.1597 27.304 24.952C27.304 24.7443 27.1357 24.576 26.928 24.576C26.7203 24.576 26.552 24.7443 26.552 24.952C26.552 25.1597 26.7203 25.328 26.928 25.328Z" fill="#220047"/>
<path d="M15.2479 13.576C15.4556 13.576 15.6239 13.4077 15.6239 13.2C15.6239 12.9923 15.4556 12.824 15.2479 12.824C15.0403 12.824 14.8719 12.9923 14.8719 13.2C14.8719 13.4077 15.0403 13.576 15.2479 13.576Z" fill="#220047"/>
<path d="M16.7439 13.576C16.9516 13.576 17.1199 13.4077 17.1199 13.2C17.1199 12.9923 16.9516 12.824 16.7439 12.824C16.5363 12.824 16.3679 12.9923 16.3679 13.2C16.3679 13.4077 16.5363 13.576 16.7439 13.576Z" fill="#220047"/>
</svg>
