<svg width="87" height="87" viewBox="0 0 87 87" fill="none" xmlns="http://www.w3.org/2000/svg">
<path d="M86.9344 29.5968C86.9144 29.4915 86.897 29.3861 86.8688 29.2828C86.8512 29.2206 86.8301 29.1621 86.8104 29.101C86.7818 29.0091 86.7497 28.9185 86.7142 28.8291C86.6884 28.7673 86.6591 28.7074 86.6309 28.6476C86.5918 28.5632 86.5492 28.4804 86.5031 28.3995C86.4705 28.3397 86.4328 28.2833 86.3968 28.2262C86.3098 28.0908 86.2142 27.9612 86.1106 27.8381C86.0515 27.7684 85.9898 27.7008 85.9258 27.6356C85.8765 27.5863 85.8272 27.537 85.7755 27.4891C85.7075 27.4271 85.6368 27.3681 85.5635 27.3124C85.5074 27.2689 85.4523 27.224 85.3936 27.1843C85.3728 27.1693 85.3538 27.1516 85.3317 27.1374L45.5727 0.629547C44.9589 0.219864 44.2375 0.0012207 43.4995 0.0012207C42.7615 0.0012207 42.0401 0.219864 41.4263 0.629547L1.66455 27.1367C1.64246 27.1506 1.62513 27.1683 1.6027 27.1836C1.54425 27.2244 1.4892 27.2679 1.43278 27.3114C1.36058 27.3681 1.28987 27.4267 1.22072 27.4871C1.16938 27.534 1.11973 27.5827 1.07187 27.6332C1.00628 27.6991 0.945445 27.7657 0.885633 27.8361C0.841453 27.8888 0.798973 27.9414 0.757852 28.0002C0.701777 28.074 0.650121 28.1491 0.599824 28.2276C0.563461 28.285 0.527098 28.3411 0.493113 28.4009C0.447511 28.4811 0.405332 28.5632 0.366691 28.6469C0.338484 28.7068 0.308238 28.7676 0.28343 28.8284C0.247066 28.9175 0.215461 29.0089 0.186234 29.1003C0.166523 29.1615 0.145453 29.2209 0.128801 29.276C0.101613 29.379 0.0819023 29.4833 0.0632109 29.59C0.0530156 29.644 0.0397617 29.6967 0.032625 29.7518C0.0115547 29.9132 0 30.075 0 30.2401V56.7534C0 56.9172 0.0115547 57.0813 0.0350039 57.2417C0.0435 57.3005 0.058793 57.3471 0.0703477 57.4035C0.0890391 57.5089 0.105352 57.6142 0.140695 57.7199C0.157008 57.7783 0.175699 57.8371 0.199148 57.9014C0.228375 57.9952 0.257602 58.089 0.292945 58.1746C0.317414 58.2331 0.351398 58.2915 0.374848 58.3503C0.41359 58.4322 0.45709 58.5141 0.503988 58.5998C0.536613 58.6582 0.573996 58.717 0.60934 58.7707C0.659637 58.8529 0.714691 58.9233 0.773145 58.9933C0.814266 59.0521 0.855387 59.0986 0.902285 59.1551C0.961758 59.2254 1.01919 59.2957 1.08954 59.3579C1.13746 59.4045 1.18334 59.4633 1.24179 59.4983C1.30976 59.5571 1.38248 59.6155 1.45249 59.6764C1.50891 59.7233 1.57008 59.7586 1.61664 59.8042C1.63907 59.8157 1.65198 59.8392 1.67543 59.8497L41.4263 86.3711C42.0386 86.7844 42.7612 87.0036 43.5 87.0002C44.238 86.9987 44.9592 86.78 45.5737 86.3714L85.3354 59.8636C85.3575 59.85 85.3762 59.8334 85.3973 59.8181C85.4557 59.7773 85.5108 59.7338 85.5672 59.6907C85.6399 59.6329 85.7113 59.5734 85.7793 59.5126C85.8306 59.4667 85.8799 59.4164 85.9292 59.3671C86.0419 59.2533 86.1464 59.1315 86.2418 59.0028C86.2982 58.9291 86.3499 58.8529 86.4002 58.7754C86.4365 58.7194 86.4729 58.6619 86.5069 58.6045C86.5538 58.5223 86.5946 58.4393 86.6343 58.3551C86.6625 58.2952 86.6921 58.2354 86.7176 58.1746C86.754 58.0842 86.7845 57.9928 86.8138 57.9014C86.8335 57.8405 86.8545 57.7807 86.8722 57.7199C86.8994 57.6169 86.9181 57.5112 86.9378 57.4059C86.9473 57.3518 86.9616 57.2992 86.967 57.2441C86.9884 57.0827 87 56.9209 87 56.7558V30.2469C87 30.0818 86.9871 29.92 86.967 29.7582C86.9579 29.7008 86.9402 29.6542 86.9286 29.5968H86.9344ZM43.499 52.3442L30.2774 43.5012L43.499 34.6567L56.7213 43.5012L43.499 52.3442ZM39.7614 28.1627L23.5536 39.0037L10.4706 30.2513L39.7617 10.7246V28.1627H39.7614ZM16.8297 43.4998L7.47826 49.755V37.245L16.8297 43.4998ZM23.5536 48.001L39.7617 58.8407V76.2788L10.4706 56.7496L23.5539 47.9987V48.001H23.5536ZM47.2373 58.8387L63.4451 47.999L76.5294 56.7496L47.2373 76.2764V58.8383V58.8387ZM70.1689 43.5022L79.5217 37.246V49.7574L70.1692 43.4998V43.5022H70.1689ZM63.4451 39.0033L47.2373 28.1637V10.7246L76.5294 30.2517L63.4454 39.0033H63.4451Z" fill="#224973"/>
</svg>
