<svg width="100" height="100" viewBox="0 0 100 100" fill="none" xmlns="http://www.w3.org/2000/svg">
<path d="M43.2616 82.4022H27.6561C26.035 82.4022 24.7264 83.7108 24.7264 85.3319V89.0624C24.7264 90.6835 26.035 91.9921 27.6561 91.9921H43.2616C44.8827 91.9921 46.1913 90.6835 46.1913 89.0624V85.3319C46.1913 83.7108 44.8827 82.4022 43.2616 82.4022ZM42.9882 88.7889H27.9491V85.6054H42.9882V88.7889ZM46.1327 25.6249H67.0702C69.1796 25.6639 69.1796 28.7889 67.0702 28.828H46.1327C44.0233 28.7889 44.0233 25.6444 46.1327 25.6249ZM34.3944 34.5507H67.0702C69.1796 34.5897 69.16 37.7147 67.0702 37.7538H34.3944C32.2655 37.7147 32.285 34.5897 34.3944 34.5507ZM34.3944 43.4764H67.0702C69.1796 43.5155 69.16 46.6405 67.0702 46.6796H34.3944C32.2655 46.6405 32.285 43.5155 34.3944 43.4764ZM88.203 11.3085L44.1991 0.29285C42.6952 -0.117307 41.0155 0.898318 40.6639 2.42176L39.8436 5.72254L11.328 14.6093C10.703 14.8046 10.1757 15.2538 9.8827 15.8397C9.5702 16.4257 9.5116 17.1093 9.72645 17.7343L20.1171 51.0936C18.3788 51.5429 17.0897 53.1249 17.0897 54.9999V95.7421C17.0897 97.9882 18.9061 99.8046 21.1522 99.8046H78.8866C81.1327 99.8046 82.9491 97.9882 82.9491 95.7421V60.996C82.9491 59.0429 81.5819 57.4218 79.746 57.0311L90.3124 14.8436C90.703 13.3007 89.7655 11.6991 88.203 11.3085ZM12.9882 17.4608L38.9257 9.37488L36.9921 17.0897H28.0077C26.6405 17.0897 25.5077 18.203 25.5077 19.5897V50.9569H23.4179L12.9882 17.4608ZM72.7343 20.2733V56.953H43.496C43.2421 56.953 43.0077 56.8358 42.8514 56.66L39.0819 52.3046C38.3202 51.4061 37.1874 50.8983 35.996 50.8983L28.7304 50.9179V20.2733H72.7343ZM79.746 95.7421C79.746 96.2108 79.3554 96.6014 78.8866 96.6014H21.1522C20.6835 96.6014 20.2929 96.2108 20.2929 95.7421V54.9999C20.3319 53.9257 21.5038 54.16 22.2264 54.1405C25.2343 54.1405 32.8905 54.1014 35.996 54.0819C36.2499 54.0819 36.4843 54.1796 36.66 54.3749L40.4296 58.7304C41.2108 59.6288 42.3241 60.1366 43.496 60.1366H78.8866C79.3749 60.1366 79.746 60.5077 79.746 60.996V95.7421ZM76.4647 56.953H75.9374V19.5702C75.9374 18.203 74.8241 17.0702 73.4374 17.0702H40.2929C40.9764 14.3358 43.0468 6.0741 43.7108 3.47644L87.1483 14.3554L76.4647 56.953Z" fill="#220047"/>
</svg>
