<svg width="18" height="16" viewBox="0 0 18 16" fill="none" xmlns="http://www.w3.org/2000/svg">
<path fill-rule="evenodd" clip-rule="evenodd" d="M15.6665 0.5H2.33317C1.4165 0.5 0.666504 1.25 0.666504 2.16667V13.8333C0.666504 14.75 1.4165 15.5 2.33317 15.5H15.6665C16.5832 15.5 17.3332 14.75 17.3332 13.8333V2.16667C17.3332 1.25 16.5832 0.5 15.6665 0.5ZM15.6665 13.8333H2.33317V2.16667H15.6665V13.8333Z" fill="#220047"/>
<path fill-rule="evenodd" clip-rule="evenodd" d="M15.1748 6.68333L13.9915 5.5L11.3498 8.14167L10.1748 6.95833L8.99984 8.13333L11.3498 10.5L15.1748 6.68333Z" fill="#220047"/>
<path d="M7.33317 3.83333H3.1665V5.5H7.33317V3.83333Z" fill="#220047"/>
<path d="M7.33317 7.16667H3.1665V8.83333H7.33317V7.16667Z" fill="#220047"/>
<path d="M7.33317 10.5H3.1665V12.1667H7.33317V10.5Z" fill="#220047"/>
</svg>
