<svg width="32" height="32" viewBox="0 0 32 32" fill="none" xmlns="http://www.w3.org/2000/svg">
<g clip-path="url(#clip0_74_1226)">
<path d="M5.37774 23.8836C5.37774 24.1425 5.58762 24.3524 5.84649 24.3524C6.10537 24.3524 6.31524 24.1425 6.31524 23.8836V11.4826C6.31524 11.2237 6.10537 11.0138 5.84649 11.0138C5.58762 11.0138 5.37774 11.2237 5.37774 11.4826V15.3831L1.75318 14.1676C1.15937 13.9685 0.827869 13.3405 0.998369 12.7379L3.36156 4.38644C3.64456 3.38631 4.40812 2.61175 5.40412 2.31444L9.73968 1.02044C9.86174 0.983998 9.98587 0.959748 10.1107 0.94756C13.3284 6.46481 18.6707 6.46619 21.8891 0.94756C22.014 0.959748 22.1381 0.983998 22.2602 1.02044L26.5958 2.3145C27.5918 2.61181 28.3554 3.38637 28.6384 4.3865L28.7589 4.81244C28.8295 5.0615 29.0884 5.20625 29.3376 5.13581C29.5867 5.06531 29.7314 4.80625 29.661 4.55712L29.5404 4.13119C29.1696 2.82069 28.1691 1.80569 26.8639 1.41619L22.5283 0.122123C21.4692 -0.194065 20.6879 0.200123 20.5319 0.229935C17.567 1.1715 14.4329 1.1715 11.468 0.229935C11.3092 0.199623 10.5284 -0.193252 9.47156 0.122123L5.13606 1.41619C3.83093 1.80575 2.83037 2.82069 2.45949 4.13125L0.0963063 12.4826C-0.210631 13.5674 0.386181 14.6979 1.45506 15.0564L5.37774 16.3719V23.8836ZM20.6256 1.18244C20.3512 1.57437 19.9905 2.03319 19.5522 2.47006C17.3006 4.7145 14.7027 4.71787 12.4478 2.47006C12.0095 2.03312 11.6488 1.57431 11.3744 1.18237C14.4051 2.10419 17.5949 2.10419 20.6256 1.18244Z" fill="#220047"/>
<path d="M31.9037 12.4826L30.2576 6.6655C30.1872 6.41637 29.9282 6.27169 29.679 6.34206C29.4299 6.41256 29.2851 6.67162 29.3556 6.92069L31.0016 12.7378C31.1721 13.3404 30.8406 13.9684 30.2468 14.1676L26.6222 15.3831V11.4826C26.6222 11.2237 26.4123 11.0138 26.1534 11.0138C25.8946 11.0138 25.6847 11.2237 25.6847 11.4826V29.7764C25.6847 30.4856 25.1077 31.0626 24.3985 31.0626H7.60143C6.89218 31.0626 6.31525 30.4856 6.31525 29.7764V26.0748C6.31525 25.8159 6.10537 25.606 5.8465 25.606C5.58762 25.606 5.37775 25.8159 5.37775 26.0748V29.7764C5.37775 31.0025 6.37525 32 7.60143 32H24.3986C25.6247 32 26.6222 31.0025 26.6222 29.7764V16.3719L30.5449 15.0564C31.6137 14.6979 32.2106 13.5674 31.9037 12.4826Z" fill="#220047"/>
</g>
<defs>
<clipPath id="clip0_74_1226">
<rect width="32" height="32" fill="white"/>
</clipPath>
</defs>
</svg>
