<svg xmlns="http://www.w3.org/2000/svg" width="33" height="22" viewBox="0 0 33 22" fill="none">
  <g opacity="0.8">
    <path fill-rule="evenodd" clip-rule="evenodd" d="M12.0282 1.59654C12.0282 1.25117 12.3355 1 12.6769 1C13.0525 1 13.3256 1.25117 13.3256 1.59654V2.63263H14.7937C15.1692 2.63263 15.4424 2.9152 15.4424 3.22917C15.4424 3.57454 15.1351 3.82571 14.7937 3.82571H11.8575C11.2089 3.82571 10.6626 4.32806 10.6626 4.9246C10.6626 5.52114 11.2089 6.02349 11.8575 6.02349H13.5305C14.8961 6.02349 15.9886 7.02818 15.9886 8.28405C15.9886 9.53993 14.8961 10.5446 13.5305 10.5446H13.3256V11.5807C13.3256 11.9261 13.0525 12.1773 12.6769 12.1773C12.3014 12.1773 12.0282 11.8947 12.0282 11.5807V10.5446H10.4919C10.1163 10.5446 9.84321 10.2621 9.84321 9.94808C9.84321 9.60272 10.1505 9.35154 10.4919 9.35154H13.4963C14.145 9.35154 14.6912 8.8492 14.6912 8.25266C14.6912 7.65612 14.145 7.15377 13.4963 7.15377H11.8234C10.4578 7.15377 9.36523 6.14907 9.36523 4.8932C9.36523 3.63733 10.4578 2.63263 11.8234 2.63263H12.0282V1.59654ZM11.6178 14.5323C11.5836 14.5009 6.36002 12.9311 4.44812 12.4287C2.46793 11.895 1.40956 13.1195 1.03401 13.9358C0.931583 14.2183 1.06815 14.5323 1.34128 14.6579L12.5054 20.2465C13.5638 20.7489 14.827 20.8745 15.9878 20.5605L24.011 18.3313L28.4835 20.9059C28.5859 20.9687 28.7225 21 28.8249 21C28.9614 21 29.1321 20.9373 29.2346 20.8431C29.2387 20.8393 29.247 20.8321 29.2592 20.8216C29.5479 20.5721 32 18.4531 32 15.38C32 15.1602 31.8634 14.9405 31.6244 14.8463L23.6013 11.6438H23.5671C23.5658 11.6434 23.564 11.6428 23.5618 11.6421C23.3883 11.5885 20.4636 10.6835 18.1046 11.6752L13.1882 13.7474C12.9493 13.8416 12.8127 14.0614 12.8127 14.3125C12.8468 15.0347 13.3589 16.3847 15.1343 16.4161C16.8072 16.4475 19.3678 16.008 19.4702 15.9766C19.8116 15.9138 20.0506 15.5998 19.9823 15.2858C19.914 14.9719 19.5726 14.7521 19.2312 14.8149C19.227 14.8149 19.1856 14.8215 19.1132 14.8332C18.5979 14.916 16.5156 15.2506 15.1684 15.223C14.5539 15.1916 14.2808 14.8777 14.1783 14.5951L18.6508 12.7113C20.4146 11.9604 22.7095 12.5888 23.1143 12.6996C23.1326 12.7046 23.1471 12.7086 23.1574 12.7113L30.7709 15.7254C30.6344 17.6092 29.4053 19.0221 28.7907 19.6186L24.489 17.1382C24.3524 17.0441 24.1475 17.0127 23.9768 17.0755L15.6464 19.3674C14.827 19.5872 13.9052 19.493 13.1541 19.1162L2.6045 13.8416C2.87763 13.5904 3.32146 13.402 4.07257 13.5904C5.95033 14.0928 11.1398 15.6312 11.2081 15.6626C11.5495 15.7568 11.925 15.5998 12.0274 15.2858C12.1299 14.9719 11.9592 14.6265 11.6178 14.5323Z" fill="#011E3B"/>
    <path d="M13.3256 2.63263H13.0756V2.88263H13.3256V2.63263ZM13.3256 10.5446V10.2946H13.0756V10.5446H13.3256ZM12.0282 10.5446H12.2782V10.2946H12.0282V10.5446ZM12.0282 2.63263V2.88263H12.2782V2.63263H12.0282ZM4.44812 12.4287L4.38305 12.6701L4.38459 12.6705L4.44812 12.4287ZM11.6178 14.5323L11.4485 14.7163L11.493 14.7572L11.5513 14.7733L11.6178 14.5323ZM1.03401 13.9358L0.806889 13.8313L0.802526 13.8408L0.79897 13.8506L1.03401 13.9358ZM1.34128 14.6579L1.45325 14.4342L1.44572 14.4308L1.34128 14.6579ZM12.5054 20.2465L12.3935 20.4701L12.3982 20.4724L12.5054 20.2465ZM15.9878 20.5605L16.0531 20.8018L16.0547 20.8014L15.9878 20.5605ZM24.011 18.3313L24.1357 18.1147L24.0449 18.0624L23.9441 18.0904L24.011 18.3313ZM28.4835 20.9059L28.6142 20.6926L28.6082 20.6892L28.4835 20.9059ZM29.2346 20.8431L29.4038 21.0271L29.4038 21.0271L29.2346 20.8431ZM29.2592 20.8216L29.4226 21.0107V21.0107L29.2592 20.8216ZM31.6244 14.8463L31.5318 15.0785L31.5328 15.0789L31.6244 14.8463ZM23.6013 11.6438L23.694 11.4116L23.6493 11.3938H23.6013V11.6438ZM23.5671 11.6438L23.4939 11.8828L23.5297 11.8938H23.5671V11.6438ZM23.5618 11.6421L23.6357 11.4033L23.6357 11.4033L23.5618 11.6421ZM18.1046 11.6752L18.0077 11.4447L18.0075 11.4448L18.1046 11.6752ZM13.1882 13.7474L13.2799 13.98L13.2853 13.9778L13.1882 13.7474ZM12.8127 14.3125H12.5624L12.563 14.3243L12.8127 14.3125ZM15.1343 16.4161L15.139 16.1662L15.1387 16.1662L15.1343 16.4161ZM19.4702 15.9766L19.425 15.7307L19.4108 15.7333L19.3969 15.7375L19.4702 15.9766ZM19.9823 15.2858L20.2266 15.2327V15.2327L19.9823 15.2858ZM19.2312 14.8149V15.0649H19.254L19.2764 15.0608L19.2312 14.8149ZM19.1132 14.8332L19.1529 15.08L19.1132 14.8332ZM15.1684 15.223L15.1557 15.4728L15.1633 15.473L15.1684 15.223ZM14.1783 14.5951L14.0813 14.3647L13.8623 14.4569L13.9433 14.6803L14.1783 14.5951ZM18.6508 12.7113L18.7479 12.9417L18.7488 12.9413L18.6508 12.7113ZM23.1143 12.6996L23.0483 12.9407L23.0483 12.9407L23.1143 12.6996ZM23.1574 12.7113L23.2495 12.4789L23.2355 12.4733L23.221 12.4695L23.1574 12.7113ZM30.7709 15.7254L31.0203 15.7435L31.0335 15.5605L30.8629 15.4929L30.7709 15.7254ZM28.7907 19.6186L28.6659 19.8352L28.8294 19.9295L28.9649 19.798L28.7907 19.6186ZM24.489 17.1382L24.347 17.344L24.3553 17.3498L24.3641 17.3548L24.489 17.1382ZM23.9768 17.0755L24.0432 17.3165L24.0533 17.3137L24.0631 17.3101L23.9768 17.0755ZM15.6464 19.3674L15.7112 19.6089L15.7127 19.6085L15.6464 19.3674ZM13.1541 19.1162L13.2662 18.8928L13.2659 18.8926L13.1541 19.1162ZM2.6045 13.8416L2.43527 13.6576L2.16836 13.903L2.4927 14.0652L2.6045 13.8416ZM4.07257 13.5904L4.13718 13.3489L4.13338 13.3479L4.07257 13.5904ZM11.2081 15.6626L11.1036 15.8897L11.122 15.8982L11.1416 15.9036L11.2081 15.6626ZM12.0274 15.2858L12.2651 15.3634V15.3634L12.0274 15.2858ZM12.6769 0.75C12.2265 0.75 11.7782 1.08571 11.7782 1.59654H12.2782C12.2782 1.41664 12.4445 1.25 12.6769 1.25V0.75ZM13.5756 1.59654C13.5756 1.09379 13.1704 0.75 12.6769 0.75V1.25C12.9345 1.25 13.0756 1.40855 13.0756 1.59654H13.5756ZM13.5756 2.63263V1.59654H13.0756V2.63263H13.5756ZM14.7937 2.38263H13.3256V2.88263H14.7937V2.38263ZM15.6924 3.22917C15.6924 2.76609 15.296 2.38263 14.7937 2.38263V2.88263C15.0425 2.88263 15.1924 3.06432 15.1924 3.22917H15.6924ZM14.7937 4.07571C15.2441 4.07571 15.6924 3.74 15.6924 3.22917H15.1924C15.1924 3.40907 15.0261 3.57571 14.7937 3.57571V4.07571ZM11.8575 4.07571H14.7937V3.57571H11.8575V4.07571ZM10.9126 4.9246C10.9126 4.48544 11.3268 4.07571 11.8575 4.07571V3.57571C11.0909 3.57571 10.4126 4.17068 10.4126 4.9246H10.9126ZM11.8575 5.77349C11.3268 5.77349 10.9126 5.36376 10.9126 4.9246H10.4126C10.4126 5.67852 11.0909 6.27349 11.8575 6.27349V5.77349ZM13.5305 5.77349H11.8575V6.27349H13.5305V5.77349ZM16.2386 8.28405C16.2386 6.8708 15.014 5.77349 13.5305 5.77349V6.27349C14.7782 6.27349 15.7386 7.18556 15.7386 8.28405H16.2386ZM13.5305 10.7946C15.014 10.7946 16.2386 9.69731 16.2386 8.28405H15.7386C15.7386 9.38255 14.7782 10.2946 13.5305 10.2946V10.7946ZM13.3256 10.7946H13.5305V10.2946H13.3256V10.7946ZM13.5756 11.5807V10.5446H13.0756V11.5807H13.5756ZM12.6769 12.4273C13.1704 12.4273 13.5756 12.0835 13.5756 11.5807H13.0756C13.0756 11.7687 12.9345 11.9273 12.6769 11.9273V12.4273ZM11.7782 11.5807C11.7782 12.0438 12.1746 12.4273 12.6769 12.4273V11.9273C12.4281 11.9273 12.2782 11.7456 12.2782 11.5807H11.7782ZM11.7782 10.5446V11.5807H12.2782V10.5446H11.7782ZM10.4919 10.7946H12.0282V10.2946H10.4919V10.7946ZM9.59321 9.94808C9.59321 10.4112 9.98957 10.7946 10.4919 10.7946V10.2946C10.2431 10.2946 10.0932 10.1129 10.0932 9.94808H9.59321ZM10.4919 9.10154C10.0415 9.10154 9.59321 9.43726 9.59321 9.94808H10.0932C10.0932 9.76818 10.2595 9.60154 10.4919 9.60154V9.10154ZM13.4963 9.10154H10.4919V9.60154H13.4963V9.10154ZM14.4412 8.25266C14.4412 8.69182 14.0271 9.10154 13.4963 9.10154V9.60154C14.2629 9.60154 14.9412 9.00658 14.9412 8.25266H14.4412ZM13.4963 7.40377C14.0271 7.40377 14.4412 7.8135 14.4412 8.25266H14.9412C14.9412 7.49874 14.2629 6.90377 13.4963 6.90377V7.40377ZM11.8234 7.40377H13.4963V6.90377H11.8234V7.40377ZM9.11523 4.8932C9.11523 6.30645 10.3398 7.40377 11.8234 7.40377V6.90377C10.5757 6.90377 9.61523 5.99169 9.61523 4.8932H9.11523ZM11.8234 2.38263C10.3398 2.38263 9.11523 3.47995 9.11523 4.8932H9.61523C9.61523 3.79471 10.5757 2.88263 11.8234 2.88263V2.38263ZM12.0282 2.38263H11.8234V2.88263H12.0282V2.38263ZM11.7782 1.59654V2.63263H12.2782V1.59654H11.7782ZM4.38459 12.6705C5.33619 12.9206 7.11643 13.4375 8.66605 13.8968C9.44019 14.1263 10.1555 14.341 10.6792 14.5002C10.9412 14.5799 11.1547 14.6455 11.3036 14.6921C11.3782 14.7154 11.4357 14.7337 11.4745 14.7465C11.4943 14.753 11.5076 14.7576 11.5156 14.7604C11.5199 14.7619 11.5202 14.7621 11.5184 14.7614C11.5177 14.7611 11.5134 14.7594 11.5075 14.7565C11.5046 14.7551 11.4987 14.7522 11.4914 14.748C11.487 14.7454 11.4686 14.7348 11.4485 14.7163L11.787 14.3483C11.7667 14.3296 11.7478 14.3187 11.7428 14.3158C11.735 14.3112 11.7283 14.3079 11.7245 14.3061C11.7168 14.3024 11.7101 14.2996 11.7064 14.2981C11.6985 14.2949 11.6903 14.2919 11.6837 14.2895C11.6697 14.2845 11.6516 14.2784 11.6307 14.2715C11.5884 14.2576 11.5282 14.2385 11.453 14.2149C11.3022 14.1677 11.0871 14.1016 10.8247 14.0218C10.2996 13.8622 9.58316 13.6472 8.80814 13.4174C7.25946 12.9584 5.47195 12.4392 4.51165 12.1869L4.38459 12.6705ZM1.26112 14.0403C1.43368 13.6652 1.76297 13.1988 2.26963 12.8893C2.76818 12.5849 3.45688 12.4205 4.38305 12.6701L4.51318 12.1873C3.45917 11.9032 2.6286 12.0842 2.00902 12.4626C1.39756 12.8361 1.00988 13.39 0.806889 13.8313L1.26112 14.0403ZM1.44572 14.4308C1.28712 14.3578 1.21226 14.1776 1.26904 14.021L0.79897 13.8506C0.650907 14.2591 0.849174 14.7068 1.23684 14.885L1.44572 14.4308ZM12.6173 20.023L1.45318 14.4343L1.22937 14.8815L12.3935 20.4701L12.6173 20.023ZM15.9225 20.3192C14.8202 20.6173 13.6181 20.4979 12.6126 20.0207L12.3982 20.4724C13.5095 20.9998 14.8338 21.1316 16.0531 20.8018L15.9225 20.3192ZM23.9441 18.0904L15.9209 20.3196L16.0547 20.8014L24.0779 18.5722L23.9441 18.0904ZM28.6082 20.6892L24.1357 18.1147L23.8863 18.548L28.3587 21.1225L28.6082 20.6892ZM28.8249 20.75C28.7621 20.75 28.6721 20.7282 28.6141 20.6927L28.3528 21.119C28.4997 21.2091 28.6828 21.25 28.8249 21.25V20.75ZM29.0653 20.659C29.0116 20.7085 28.9023 20.75 28.8249 20.75V21.25C29.0206 21.25 29.2527 21.166 29.4038 21.0271L29.0653 20.659ZM29.0957 20.6324C29.0856 20.6412 29.0731 20.6519 29.0653 20.6591L29.4038 21.0271C29.4032 21.0276 29.4032 21.0277 29.4041 21.0268C29.405 21.026 29.4063 21.0249 29.4081 21.0233C29.4117 21.0201 29.4164 21.0161 29.4226 21.0107L29.0957 20.6324ZM31.75 15.38C31.75 16.8491 31.1636 18.0982 30.5318 19.0181C29.9005 19.9372 29.234 20.5129 29.0957 20.6324L29.4226 21.0107C29.5731 20.8807 30.2769 20.2722 30.9439 19.3012C31.6103 18.3309 32.25 16.984 32.25 15.38H31.75ZM31.5328 15.0789C31.6759 15.1353 31.75 15.2626 31.75 15.38H32.25C32.25 15.0579 32.0509 14.7456 31.7161 14.6137L31.5328 15.0789ZM23.5086 11.876L31.5318 15.0785L31.7171 14.6141L23.694 11.4116L23.5086 11.876ZM23.5671 11.8938H23.6013V11.3938H23.5671V11.8938ZM23.4878 11.881C23.49 11.8816 23.4922 11.8823 23.4939 11.8828L23.6404 11.4048C23.6395 11.4045 23.6381 11.4041 23.6357 11.4033L23.4878 11.881ZM18.2015 11.9057C19.3257 11.433 20.5984 11.4083 21.6269 11.5153C22.6514 11.6219 23.4084 11.8564 23.4879 11.881L23.6357 11.4033C23.5417 11.3742 22.7495 11.1294 21.6786 11.018C20.6116 10.907 19.2425 10.9256 18.0077 11.4447L18.2015 11.9057ZM13.2853 13.9778L18.2017 11.9056L18.0075 11.4448L13.0911 13.517L13.2853 13.9778ZM13.0627 14.3125C13.0627 14.156 13.1437 14.0337 13.2799 13.98L13.0966 13.5148C12.7548 13.6495 12.5627 13.9667 12.5627 14.3125H13.0627ZM15.1387 16.1662C14.3223 16.1517 13.8202 15.8382 13.5138 15.4648C13.1998 15.082 13.0774 14.6185 13.0624 14.3007L12.563 14.3243C12.5821 14.7287 12.7329 15.3013 13.1273 15.7819C13.5293 16.2719 14.1709 16.6491 15.1299 16.6661L15.1387 16.1662ZM19.3969 15.7375C19.4023 15.7359 19.3703 15.7432 19.2788 15.7597C19.1976 15.7743 19.0842 15.7937 18.9451 15.8161C18.6669 15.8608 18.2876 15.9173 17.8596 15.9719C17.0003 16.0814 15.9566 16.1815 15.139 16.1662L15.1296 16.6661C15.9849 16.6821 17.058 16.5781 17.9228 16.4679C18.3568 16.4126 18.7415 16.3553 19.0245 16.3097C19.1659 16.287 19.2825 16.2671 19.3674 16.2518C19.4421 16.2384 19.5126 16.2251 19.5435 16.2156L19.3969 15.7375ZM19.738 15.339C19.7709 15.4901 19.6539 15.6886 19.425 15.7307L19.5154 16.2224C19.9694 16.139 20.3303 15.7095 20.2266 15.2327L19.738 15.339ZM19.2764 15.0608C19.496 15.0204 19.7007 15.1674 19.738 15.339L20.2266 15.2327C20.1274 14.7763 19.6492 14.4838 19.186 14.569L19.2764 15.0608ZM19.1529 15.08C19.1893 15.0742 19.2171 15.0697 19.2364 15.0667C19.2462 15.0651 19.2527 15.0641 19.2568 15.0636C19.2589 15.0633 19.2591 15.0632 19.2582 15.0633C19.2578 15.0634 19.256 15.0636 19.2533 15.0639C19.2527 15.0639 19.2433 15.0649 19.2312 15.0649V14.5649C19.2186 14.5649 19.2084 14.5659 19.2067 14.566C19.2029 14.5664 19.1997 14.5668 19.1976 14.567C19.1933 14.5676 19.1891 14.5681 19.1856 14.5686C19.1784 14.5697 19.1693 14.5711 19.1591 14.5727C19.1385 14.5759 19.1095 14.5806 19.0735 14.5863L19.1529 15.08ZM15.1633 15.473C16.5376 15.5011 18.6439 15.1618 19.1529 15.08L19.0735 14.5863C18.5518 14.6702 16.4936 15.0001 15.1735 14.9731L15.1633 15.473ZM13.9433 14.6803C14.0087 14.8608 14.1294 15.0527 14.3319 15.2037C14.5352 15.3552 14.8065 15.4549 15.1557 15.4727L15.1812 14.9734C14.9158 14.9598 14.7433 14.8868 14.6308 14.8028C14.5175 14.7184 14.4504 14.612 14.4134 14.5099L13.9433 14.6803ZM18.5538 12.4809L14.0813 14.3647L14.2754 14.8255L18.7479 12.9417L18.5538 12.4809ZM23.1803 12.4585C22.974 12.402 22.2821 12.2125 21.4149 12.1333C20.552 12.0546 19.4896 12.0825 18.5529 12.4813L18.7488 12.9413C19.5758 12.5892 20.5427 12.5558 21.3695 12.6313C22.1919 12.7063 22.8499 12.8864 23.0483 12.9407L23.1803 12.4585ZM23.221 12.4695C23.2122 12.4672 23.1992 12.4637 23.1803 12.4585L23.0483 12.9407C23.066 12.9456 23.082 12.95 23.0939 12.9531L23.221 12.4695ZM30.8629 15.4929L23.2495 12.4789L23.0654 12.9437L30.6789 15.9578L30.8629 15.4929ZM28.9649 19.798C29.592 19.1892 30.8769 17.7213 31.0203 15.7435L30.5216 15.7073C30.3918 17.4971 29.2185 18.8549 28.6166 19.4392L28.9649 19.798ZM24.3641 17.3548L28.6659 19.8352L28.9156 19.402L24.6138 16.9217L24.3641 17.3548ZM24.0631 17.3101C24.1559 17.276 24.2758 17.2949 24.347 17.344L24.6309 16.9324C24.429 16.7932 24.1392 16.7493 23.8905 16.8408L24.0631 17.3101ZM15.7127 19.6085L24.0432 17.3165L23.9105 16.8344L15.5801 19.1264L15.7127 19.6085ZM13.042 19.3397C13.8481 19.744 14.8328 19.8445 15.7112 19.6089L15.5816 19.126C14.8212 19.3299 13.9623 19.242 13.2662 18.8928L13.042 19.3397ZM2.4927 14.0652L13.0423 19.3398L13.2659 18.8926L2.7163 13.618L2.4927 14.0652ZM4.13338 13.3479C3.30924 13.1412 2.77661 13.3437 2.43527 13.6576L2.77372 14.0256C2.97865 13.8371 3.33368 13.6628 4.01175 13.8329L4.13338 13.3479ZM11.3125 15.4355C11.2934 15.4267 11.2678 15.4187 11.2639 15.4175C11.2506 15.4132 11.2329 15.4076 11.2115 15.4009C11.1684 15.3875 11.1076 15.369 11.0313 15.3459C10.8787 15.2997 10.6626 15.2349 10.3998 15.1566C9.8739 15 9.15978 14.7889 8.38915 14.5632C6.84899 14.112 5.07937 13.601 4.13717 13.3489L4.00796 13.8319C4.94352 14.0822 6.70751 14.5916 8.24858 15.043C9.01857 15.2686 9.73198 15.4794 10.257 15.6358C10.5196 15.714 10.7348 15.7785 10.8864 15.8244C10.9623 15.8474 11.0218 15.8656 11.0631 15.8784C11.0839 15.8849 11.0994 15.8898 11.1099 15.8932C11.1298 15.8996 11.1185 15.8966 11.1036 15.8897L11.3125 15.4355ZM11.7898 15.2083C11.7388 15.3645 11.5209 15.4896 11.2745 15.4216L11.1416 15.9036C11.5781 16.024 12.1112 15.8351 12.2651 15.3634L11.7898 15.2083ZM11.5513 14.7733C11.7519 14.8287 11.8491 15.0266 11.7898 15.2083L12.2651 15.3634C12.4107 14.9172 12.1665 14.4243 11.6842 14.2913L11.5513 14.7733Z" fill="black"/>
  </g>
</svg>