<svg id="Layer_1" data-name="Layer 1" xmlns="http://www.w3.org/2000/svg" viewBox="0 0 54.55 46.07"><defs><style>.cls-1{fill:#fff;}</style></defs><g id="Layer_1-2" data-name="Layer 1"><path d="M7.32,22.34c3.17.91,11.82,3.73,11.87,3.79a1.07,1.07,0,1,1-.68,2c-.11-.05-8.7-2.82-11.81-3.73a2.31,2.31,0,0,0-2.43.46l17.47,9.49a5.48,5.48,0,0,0,4.12.45l13.79-4.12a.89.89,0,0,1,.85.11l7.12,4.47a11.78,11.78,0,0,0,3.28-7L38.29,22.85c-.39-.11-4.4-1.41-7.46,0l-7.4,3.39a1.66,1.66,0,0,0,1.64,1.13,43.31,43.31,0,0,0,6.73-.73,1.06,1.06,0,0,1,.39,2.09,40.1,40.1,0,0,1-7.18.79,3.83,3.83,0,0,1-3.84-3.79,1.07,1.07,0,0,1,.62-1L29.93,21c4-1.81,8.87-.12,9-.06H39l13.28,5.76a1,1,0,0,1,.62,1c0,5.76-4.41,9.66-4.58,9.83a1,1,0,0,1-.67.28,1,1,0,0,1-.57-.17L39.71,33,26.43,37a7.85,7.85,0,0,1-5.77-.56L2.18,26.36a1.09,1.09,0,0,1-.51-1.3A4.48,4.48,0,0,1,7.32,22.34ZM20.94,1.77a1.07,1.07,0,0,0-1.07,1.08V4.71h-.34a4.07,4.07,0,0,0,0,8.14H22.3a2,2,0,1,1,0,4h-5a1.08,1.08,0,1,0,0,2.15h2.54v1.87a1.07,1.07,0,0,0,1.07,1.07A1,1,0,0,0,22,20.82V19h.34a4.07,4.07,0,1,0,0-8.14H19.59a2,2,0,1,1,0-3.95h4.86a1.08,1.08,0,0,0,0-2.15H22V2.85A1,1,0,0,0,20.94,1.77Z"/></g></svg>