<svg width="24" height="24" viewBox="0 0 24 24" fill="none" xmlns="http://www.w3.org/2000/svg">
<g clip-path="url(#clip0_2168_2574)">
<path d="M4.27576 3.86268H11.0344V1.93164H4.27576C3.21369 1.93164 2.34473 2.80061 2.34473 3.86268V10.6213H4.27576V3.86268ZM10.0689 12.5523L6.2068 17.3799H17.793L14.8965 13.5178L12.9365 16.1344L10.0689 12.5523ZM16.8275 8.2075C16.8275 7.40612 16.1806 6.75923 15.3792 6.75923C14.5778 6.75923 13.9309 7.40612 13.9309 8.2075C13.9309 9.00888 14.5778 9.65578 15.3792 9.65578C16.1806 9.65578 16.8275 9.00888 16.8275 8.2075ZM19.724 1.93164H12.9654V3.86268H19.724V10.6213H21.6551V3.86268C21.6551 2.80061 20.7861 1.93164 19.724 1.93164ZM19.724 19.311H12.9654V21.242H19.724C20.7861 21.242 21.6551 20.373 21.6551 19.311V12.5523H19.724V19.311ZM4.27576 12.5523H2.34473V19.311C2.34473 20.373 3.21369 21.242 4.27576 21.242H11.0344V19.311H4.27576V12.5523Z" />
</g>
<defs>
<clipPath id="clip0_2168_2574">
<rect width="23.1724" height="23.1724" fill="white" transform="translate(0.414062)"/>
</clipPath>
</defs>
</svg>
