<svg xmlns="http://www.w3.org/2000/svg" viewBox="0 0 162.29 162.25"><g id="Layer_2" data-name="Layer 2"><g id="Layer_1-2" data-name="Layer 1"><path d="M162.29,81.21v59.07a21.83,21.83,0,0,1-19.63,21.91,17.38,17.38,0,0,1-2,.06H21.77A21.74,21.74,0,0,1,.2,142.81,35.62,35.62,0,0,1,0,139.23Q0,80.88,0,22.54c0-10,5.84-18.43,15-21.37A22,22,0,0,1,21.56.06Q81.17,0,140.77,0a21.82,21.82,0,0,1,21.4,19.14,22.91,22.91,0,0,1,.12,2.75Zm-12,0V22.21A9.9,9.9,0,0,0,140.08,12Q81.19,12,22.31,12a11.08,11.08,0,0,0-4.61,1C13.61,15,12,18.5,12,22.9Q12,68.43,12,114c0,8.54,0,17.09,0,25.64,0,6.52,4.22,10.67,10.73,10.67H140.18a9.86,9.86,0,0,0,10.09-10.05Z"/><path d="M75.85,72.36q-15.21,0-30.42,0a6,6,0,0,1-1.57-11.78,8.91,8.91,0,0,1,2.25-.23q29.7,0,59.4,0c3.2,0,5.39,1.38,6.33,3.94a6,6,0,0,1-5.7,8.08Q91,72.38,75.85,72.36Z"/><path d="M89.48,123.25q-13.59,0-27.18,0c-3.19,0-5.49-1.63-6.24-4.37a6,6,0,0,1,5.9-7.65q19.75,0,39.51,0c5.27,0,10.54,0,15.81,0a6,6,0,0,1,1.4,11.83,9.46,9.46,0,0,1-2.26.19Q103,123.27,89.48,123.25Z"/><path d="M106.51,85.81q12,0,24.08,0a6,6,0,1,1-.08,12h-48a6,6,0,1,1,0-12Q94.47,85.79,106.51,85.81Z"/><path d="M44,47c-5.27,0-10.54,0-15.81,0A6,6,0,0,1,23,37.5a5.44,5.44,0,0,1,4.62-2.56c10.94,0,21.87,0,32.81,0A5.82,5.82,0,0,1,66.1,41,6,6,0,0,1,60,46.94c-5.1.05-10.21,0-15.32,0Z"/></g></g></svg>