<?xml version="1.0" encoding="UTF-8"?><svg id="Layer_1" xmlns="http://www.w3.org/2000/svg" width="50" height="42.86" xmlns:xlink="http://www.w3.org/1999/xlink" viewBox="0 0 50 42.86"><defs><style>.cls-1,.cls-2{fill:none;}.cls-3{clip-path:url(#clippath);}.cls-4{fill:#00ffc3;}.cls-5{fill:#173556;}.cls-2{clip-rule:evenodd;}.cls-6{clip-path:url(#clippath-1);}.cls-7{clip-path:url(#clippath-2);}</style><clipPath id="clippath"><circle class="cls-1" cx="40.18" cy="9.82" r="2.68"/></clipPath><clipPath id="clippath-1"><path class="cls-2" d="m21.43,28.57h4.62l11.02-11.02.92.17c.43.08.86.13,1.3.13,1.49.02,2.96-.43,4.19-1.27,1.23-.85,2.17-2.05,2.69-3.45.52-1.4.59-2.93.2-4.37-.39-1.44-1.21-2.73-2.36-3.69-1.15-.96-2.56-1.53-4.05-1.65s-2.98.22-4.26.98c-1.29.76-2.3,1.9-2.92,3.26-.61,1.36-.79,2.88-.5,4.35l.17.92-11.02,11.02v4.62Zm6.1,3.57h-9.67v-9.67l10.77-10.77c-.04-.33-.05-.66-.05-.99,0-2.12.63-4.19,1.81-5.95,1.18-1.76,2.85-3.14,4.81-3.95C37.14,0,39.3-.21,41.38.21c2.08.41,3.99,1.43,5.49,2.93,1.5,1.5,2.52,3.41,2.93,5.49.41,2.08.2,4.23-.61,6.19-.81,1.96-2.18,3.63-3.95,4.81-1.76,1.18-3.83,1.81-5.95,1.81-.33,0-.66-.02-.99-.05l-10.77,10.77Z"/></clipPath><clipPath id="clippath-2"><path class="cls-2" d="m3.57,3.57h7.14v35.71H3.57V3.57Zm42.86,21.43v14.29H14.29V3.57h7.14V0H3.57c-.95,0-1.85.38-2.52,1.05C.38,1.72,0,2.62,0,3.57v35.71c0,.95.38,1.85,1.05,2.52.67.67,1.58,1.05,2.52,1.05h42.86c.95,0,1.85-.38,2.52-1.05.67-.67,1.05-1.58,1.05-2.52v-14.29h-3.57Z"/></clipPath></defs><circle class="cls-4" cx="40.18" cy="9.82" r="2.68"/><g class="cls-3"><path class="cls-5" d="m40.18,7.44c1.31,0,2.38,1.06,2.38,2.38h.6c0-1.65-1.33-2.98-2.98-2.98v.6Zm-2.38,2.38c0-1.31,1.06-2.38,2.38-2.38v-.6c-1.65,0-2.98,1.33-2.98,2.98h.6Zm2.38,2.38c-1.31,0-2.38-1.06-2.38-2.38h-.6c0,1.65,1.33,2.98,2.98,2.98v-.6Zm2.38-2.38c0,1.31-1.06,2.38-2.38,2.38v.6c1.65,0,2.98-1.33,2.98-2.98h-.6Z"/></g><path class="cls-4" d="m21.43,28.57h4.62l11.02-11.02.92.17c.43.08.86.13,1.3.13,1.49.02,2.96-.43,4.19-1.27,1.23-.85,2.17-2.05,2.69-3.45.52-1.4.59-2.93.2-4.37-.39-1.44-1.21-2.73-2.36-3.69-1.15-.96-2.56-1.53-4.05-1.65-1.49-.12-2.98.22-4.26.98-1.29.76-2.3,1.9-2.92,3.26-.61,1.36-.79,2.88-.5,4.35l.17.92-11.02,11.02v4.62Zm6.1,3.57h-9.67v-9.67l10.77-10.77c-.04-.33-.05-.66-.05-.99,0-2.12.63-4.19,1.81-5.95,1.18-1.76,2.85-3.14,4.81-3.95C37.14,0,39.3-.21,41.38.21c2.08.41,3.99,1.43,5.49,2.93,1.5,1.5,2.52,3.41,2.93,5.49.41,2.08.2,4.23-.61,6.19-.81,1.96-2.18,3.63-3.95,4.81-1.76,1.18-3.83,1.81-5.95,1.81-.33,0-.66-.02-.99-.05l-10.77,10.77Z"/><g class="cls-6"><path class="cls-5" d="m21.13,23.95v4.62h.6v-4.62h-.6Zm11.11-11.23l-11.02,11.02.42.42,11.02-11.02-.42-.42Zm-.25-.66l.17.92.59-.11-.17-.92-.59.11Zm.52-4.52c-.64,1.42-.82,3-.52,4.53l.59-.12c-.27-1.41-.11-2.86.48-4.17l-.55-.25Zm3.04-3.4c-1.34.79-2.4,1.98-3.04,3.4l.55.25c.59-1.31,1.56-2.4,2.79-3.13l-.31-.52Zm4.44-1.03c-1.55-.12-3.1.23-4.44,1.03l.31.52c1.23-.73,2.66-1.06,4.09-.94l.05-.6Zm4.22,1.72c-1.19-1-2.67-1.6-4.22-1.72l-.05.6c1.43.11,2.78.67,3.88,1.59l.38-.46Zm2.45,3.84c-.4-1.5-1.26-2.84-2.45-3.84l-.38.46c1.1.92,1.89,2.15,2.26,3.53l.58-.15Zm-.21,4.55c.54-1.46.61-3.05.21-4.55l-.58.15c.37,1.38.3,2.85-.19,4.19l.56.21Zm-2.8,3.6c1.28-.88,2.26-2.14,2.8-3.6l-.56-.21c-.5,1.34-1.4,2.5-2.58,3.31l.34.49Zm-4.36,1.33c1.56.02,3.08-.44,4.36-1.33l-.34-.49c-1.18.81-2.58,1.24-4.01,1.22v.6Zm-1.35-.14c.45.09.9.14,1.35.14v-.6c-.41,0-.83-.05-1.24-.13l-.12.59Zm-.92-.17l.93.17.11-.59-.92-.17-.11.59Zm-10.75,10.93l11.02-11.02-.42-.42-11.02,11.02.42.42Zm-4.83.09h4.62v-.6h-4.62v.6Zm16.65-7.71l-10.77,10.77.42.42,10.77-10.77-.42-.42Zm1.21-.03c-.32,0-.64-.02-.96-.05l-.06.6c.34.04.68.05,1.02.06v-.6Zm5.79-1.76c-1.71,1.14-3.73,1.76-5.79,1.76v.6c2.18,0,4.31-.65,6.12-1.86l-.33-.5Zm3.84-4.67c-.79,1.9-2.12,3.53-3.84,4.67l.33.5c1.81-1.21,3.22-2.93,4.06-4.94l-.55-.23Zm.59-6.02c.4,2.02.2,4.11-.59,6.02l.55.23c.83-2.01,1.05-4.23.63-6.36l-.59.12Zm-2.85-5.33c1.46,1.46,2.45,3.31,2.85,5.33l.59-.12c-.42-2.14-1.47-4.1-3.01-5.64l-.42.42Zm-5.33-2.85c2.02.4,3.88,1.39,5.33,2.85l.42-.42c-1.54-1.54-3.5-2.59-5.64-3.01l-.12.59Zm-6.02.59c1.9-.79,4-.99,6.02-.59l.12-.59c-2.14-.42-4.35-.21-6.36.63l.23.55Zm-4.67,3.84c1.14-1.71,2.77-3.05,4.67-3.84l-.23-.55c-2.01.83-3.73,2.25-4.94,4.06l.5.33Zm-1.76,5.79c0-2.06.61-4.07,1.76-5.79l-.5-.33c-1.21,1.81-1.86,3.94-1.86,6.12h.6Zm.05.96c-.03-.32-.05-.64-.05-.96h-.6c0,.34.02.68.06,1.03l.6-.06Zm-10.85,11.01l10.77-10.77-.42-.42-10.77,10.77.42.42Zm.09,9.46v-9.67h-.6v9.67h.6Zm9.37-.3h-9.67v.6h9.67v-.6Zm-6.1-7.89l-.21-.21-.09.09v.12h.3Zm11.02-11.02l.21.21.11-.11-.03-.15-.3.05Zm-.17-.92l.3-.05h0s-.29.05-.29.05Zm7.01,5.84v-.3s0,0,0,0v.3Zm-1.3-.13l.06-.29h0s-.05.29-.05.29Zm-.92-.17l.05-.3-.15-.03-.11.11.21.21Zm-11.02,11.02v.3h.12l.09-.09-.21-.21Zm-4.62,0h-.3v.3h.3v-.3Zm16.86-7.2l.03-.3-.14-.02-.1.1.21.21Zm.99.05v.3s0,0,0,0v-.3Zm9.9-6.61l-.28-.11.28.11Zm.61-6.19l.29-.06-.29.06Zm-21.22,2.09h-.3s.3,0,.3,0Zm.05.99l.21.21.1-.1-.02-.14-.3.03Zm-10.77,10.77l-.21-.21-.09.09v.12h.3Zm0,9.67h-.3v.3h.3v-.3Zm9.67,0v.3h.12l.09-.09-.21-.21Z"/></g><path class="cls-4" d="m3.57,3.57h7.14v35.71H3.57V3.57Zm42.86,21.43v14.29H14.29V3.57h7.14V0H3.57c-.95,0-1.85.38-2.52,1.05C.38,1.72,0,2.62,0,3.57v35.71c0,.95.38,1.85,1.05,2.52.67.67,1.58,1.05,2.52,1.05h42.86c.95,0,1.85-.38,2.52-1.05.67-.67,1.05-1.58,1.05-2.52v-14.29h-3.57Z"/><g class="cls-7"><path class="cls-5" d="m3.87,39.29V3.57h-.6v35.71h.6Zm6.84-.3H3.57v.6h7.14v-.6Zm-.3-35.41v35.71h.6V3.57h-.6Zm-6.84.3h7.14v-.6H3.57v.6Zm46.43,20.83h-3.57v.6h3.57v-.6Zm.3,14.59v-14.29h-.6v14.29h.6Zm-1.13,2.74c.73-.73,1.13-1.71,1.13-2.74h-.6c0,.87-.35,1.7-.96,2.31l.42.42Zm-2.74,1.13c1.03,0,2.01-.41,2.74-1.13l-.42-.42c-.61.61-1.45.96-2.31.96v.6Zm-42.86,0h42.86v-.6H3.57v.6Zm-2.74-1.13c.73.73,1.71,1.13,2.74,1.13v-.6c-.87,0-1.7-.35-2.31-.96l-.42.42Zm-1.13-2.74c0,1.03.41,2.01,1.13,2.74l.42-.42c-.61-.61-.96-1.45-.96-2.31H-.3ZM-.3,3.57v35.71H.3V3.57H-.3ZM.83.83C.11,1.56-.3,2.54-.3,3.57H.3c0-.87.35-1.7.96-2.31l-.42-.42ZM3.57-.3c-1.03,0-2.01.41-2.74,1.13l.42.42c.61-.61,1.45-.96,2.31-.96V-.3ZM21.43-.3H3.57V.3h17.86V-.3Zm.3,3.87V0h-.6v3.57h.6Zm-7.44.3h7.14v-.6h-7.14v.6Zm.3,35.41V3.57h-.6v35.71h.6Zm31.84-.3H14.29v.6h32.14v-.6Zm-.3-13.99v14.29h.6v-14.29h-.6ZM3.57,39.29h-.3v.3h.3v-.3Zm7.14,0v.3h.3v-.3h-.3Zm0-35.71h.3v-.3h-.3v.3Zm-7.14,0v-.3h-.3v.3h.3Zm46.43,21.43h.3v-.3h-.3v.3Zm0,14.29h.3s0,0,0,0h-.3Zm-3.57,3.57v.3h0v-.3Zm-42.86,0v.3s0,0,0,0v-.3Zm-3.57-3.57h-.3s.3,0,.3,0ZM0,3.57h-.3s0,0,0,0h.3ZM3.57,0v-.3h0v.3Zm17.86,0h.3v-.3h-.3v.3Zm0,3.57v.3h.3v-.3h-.3Zm-7.14,0v-.3h-.3v.3h.3Zm0,35.71h-.3v.3h.3v-.3Zm32.14,0v.3h.3v-.3h-.3Zm0-14.29v-.3h-.3v.3h.3Z"/></g></svg>