<?xml version="1.0" encoding="utf-8"?>
<!-- Generator: Adobe Illustrator 28.1.0, SVG Export Plug-In . SVG Version: 6.00 Build 0)  -->
<svg version="1.1" id="Layer_1" xmlns="http://www.w3.org/2000/svg" xmlns:xlink="http://www.w3.org/1999/xlink" x="0px" y="0px"
	 viewBox="0 0 40 40" style="enable-background:new 0 0 40 40;" xml:space="preserve">
<g>
	<path d="M26.34,5.36c0.58,0.19,1.03,0.52,1.19,1.14c0.05,0.2,0.06,0.4,0.09,0.64c0.55-0.2,1.08-0.17,1.56,0.18
		c0.48,0.36,0.64,0.87,0.63,1.42c0.29-0.02,0.57-0.08,0.84-0.05c0.75,0.09,1.32,0.68,1.34,1.44c0.03,1.18,0.01,2.37,0.01,3.55
		c0,0.28-0.18,0.46-0.42,0.47c-0.26,0.01-0.45-0.19-0.45-0.51c-0.01-1.05,0-2.09,0-3.14c0-0.12,0-0.24-0.01-0.35
		c-0.04-0.36-0.34-0.62-0.68-0.61c-0.35,0.02-0.62,0.29-0.63,0.65c-0.01,0.67,0,1.33,0,2c0,0.25-0.09,0.45-0.35,0.51
		c-0.3,0.07-0.53-0.14-0.53-0.49c0-1.15,0-2.29,0-3.44c0-0.09,0-0.18,0-0.26c-0.04-0.35-0.3-0.6-0.64-0.62
		c-0.33-0.02-0.62,0.23-0.68,0.57c-0.02,0.11-0.02,0.21-0.02,0.32c0,1.1,0,2.19,0,3.29c0,0.1,0,0.2-0.01,0.29
		c-0.04,0.21-0.17,0.33-0.38,0.34c-0.21,0.02-0.37-0.07-0.44-0.27c-0.04-0.12-0.04-0.25-0.05-0.37c0-1.63,0-3.27,0-4.9
		c0-0.11,0-0.22-0.01-0.32c-0.03-0.34-0.3-0.6-0.64-0.6c-0.32,0-0.61,0.24-0.65,0.56c-0.02,0.12-0.01,0.23-0.01,0.35
		c0,1.63,0,3.27,0,4.9c0,0.11,0.01,0.22-0.02,0.32c-0.06,0.22-0.21,0.35-0.45,0.33c-0.24-0.02-0.37-0.15-0.4-0.39
		c-0.01-0.09-0.01-0.18-0.01-0.26c0-1.11,0-2.21,0-3.32c0-0.12,0-0.24-0.03-0.35c-0.07-0.29-0.33-0.49-0.62-0.5
		c-0.28-0.01-0.55,0.18-0.63,0.47c-0.04,0.14-0.05,0.29-0.05,0.43c0,2.4,0,4.8,0,7.2c0,0.63-0.22,0.78-0.83,0.56
		c-0.81-0.31-1.63-0.61-2.44-0.91c-0.39-0.14-0.77-0.01-0.94,0.32c-0.07,0.13-0.09,0.25,0.07,0.35c1.43,0.88,2.86,1.77,4.29,2.65
		c0.7-0.44,1.12-0.45,1.66-0.03c0.53,0.41,0.75,1.11,0.53,1.76c-0.21,0.62-0.45,1.23-0.68,1.84c-0.04,0.1-0.07,0.2-0.11,0.32
		c1.57,0,3.11,0,4.68,0c0-0.5,0-0.98,0-1.47c0-0.47,0.01-0.94,0-1.41c-0.01-0.27,0.09-0.47,0.32-0.62c0.32-0.21,0.62-0.44,0.94-0.65
		c0.32-0.21,0.47-0.51,0.47-0.89c-0.01-0.66,0-1.31,0-1.97c0-0.1,0-0.2,0.02-0.29c0.05-0.23,0.21-0.36,0.44-0.35
		c0.23,0.01,0.39,0.14,0.41,0.38c0.02,0.33,0.01,0.67,0.01,1c0,0.47,0.01,0.94-0.01,1.41c-0.02,0.55-0.27,1-0.7,1.33
		c-0.26,0.2-0.52,0.38-0.79,0.56c-0.16,0.1-0.22,0.21-0.22,0.4c0.01,0.85,0,1.7,0,2.59c0.5,0,0.96-0.01,1.43,0
		c0.98,0.03,1.66,0.79,1.56,1.74c-0.02,0.15-0.06,0.3-0.1,0.45c1.16,0.12,1.77,0.66,1.76,1.56c0,0.91-0.61,1.45-1.77,1.55
		c0.18,0.55,0.17,1.09-0.2,1.57c-0.36,0.48-0.87,0.64-1.44,0.63c0.03,0.23,0.09,0.44,0.09,0.65c0.01,0.79-0.61,1.51-1.4,1.53
		c-1.48,0.03-2.96,0.02-4.43,0.01c-0.26,0-0.43-0.18-0.44-0.42c-0.01-0.23,0.16-0.41,0.41-0.45c0.1-0.01,0.2-0.01,0.29-0.01
		c1.25,0,2.51,0,3.76,0c0.1,0,0.2,0,0.29-0.01c0.38-0.03,0.65-0.31,0.64-0.67c-0.01-0.36-0.28-0.63-0.67-0.64
		c-0.61-0.01-1.21,0-1.82,0c-0.08,0-0.16,0-0.23,0c-0.27-0.02-0.45-0.21-0.45-0.45c0-0.24,0.19-0.42,0.46-0.43
		c0.42-0.01,0.84,0,1.26,0c0.76,0,1.53,0,2.29,0c0.5,0,0.8-0.24,0.8-0.65c0.01-0.43-0.29-0.68-0.81-0.68c-1.12,0-2.23,0-3.35,0
		c-0.1,0-0.2,0-0.29-0.01c-0.22-0.04-0.38-0.19-0.35-0.4c0.02-0.15,0.15-0.32,0.28-0.43c0.08-0.07,0.24-0.05,0.37-0.05
		c1.64,0,3.27,0,4.91,0c0.1,0,0.2,0,0.29-0.01c0.35-0.03,0.6-0.28,0.61-0.63c0.01-0.35-0.24-0.64-0.6-0.67
		c-0.16-0.01-0.31-0.01-0.47-0.01c-1.57,0-3.13,0-4.7,0c-0.09,0-0.18,0-0.26,0c-0.27-0.03-0.45-0.21-0.44-0.46
		c0.01-0.24,0.19-0.41,0.47-0.42c0.11,0,0.22,0,0.32,0c1.06,0,2.11,0,3.17,0c0.13,0,0.26-0.01,0.38-0.04
		c0.29-0.07,0.47-0.3,0.48-0.6c0.01-0.3-0.16-0.56-0.45-0.65c-0.14-0.04-0.29-0.05-0.43-0.05c-2.41,0-4.82,0-7.23,0
		c-0.62,0-0.77-0.22-0.55-0.81c0.3-0.81,0.61-1.63,0.91-2.45c0.15-0.41,0.03-0.76-0.3-0.94c-0.16-0.09-0.28-0.08-0.39,0.1
		c-0.84,1.38-1.7,2.75-2.54,4.12c0.51,0.68,0.54,1.11,0.13,1.67c-0.42,0.57-1.14,0.8-1.83,0.56c-0.62-0.22-1.23-0.45-1.84-0.68
		c-0.09-0.03-0.18-0.06-0.29-0.1c0,1.59,0,3.16,0,4.77c0.41,0,0.81,0,1.2,0c0.49,0,0.98,0.02,1.47-0.01
		c0.33-0.01,0.55,0.11,0.73,0.39c0.18,0.3,0.4,0.58,0.6,0.87c0.22,0.32,0.5,0.48,0.89,0.47c0.42-0.01,0.84-0.01,1.26,0
		c0.36,0,0.54,0.16,0.54,0.44c0,0.28-0.18,0.44-0.53,0.44c-0.45,0-0.9,0-1.35,0c-0.62,0-1.11-0.27-1.48-0.77
		c-0.19-0.26-0.37-0.53-0.56-0.79c-0.05-0.07-0.15-0.15-0.22-0.15c-0.84-0.01-1.68-0.01-2.57-0.01c0,0.39,0.01,0.76,0,1.12
		c-0.01,0.23-0.02,0.47-0.08,0.7c-0.23,0.78-1.02,1.23-1.82,1.05c-0.09-0.02-0.19-0.04-0.29-0.07c-0.02,0.19-0.02,0.37-0.06,0.54
		c-0.15,0.66-0.6,1.02-1.21,1.23c-0.2,0-0.39,0-0.59,0c-0.03-0.02-0.07-0.04-0.1-0.05c-0.72-0.23-1.11-0.73-1.15-1.49
		c0-0.07-0.02-0.14-0.03-0.24c-0.58,0.22-1.1,0.16-1.58-0.2c-0.48-0.36-0.61-0.87-0.62-1.45c-1.31,0.45-2.23-0.53-2.2-1.7
		c0.05-2.42,0.02-4.84,0.01-7.25c0-0.72,0.26-1.29,0.86-1.7c0.29-0.2,0.67-0.36,0.82-0.64c0.14-0.28,0.04-0.69,0.04-1.04
		c0-0.57,0-1.15,0-1.76c-0.49,0-0.95,0.01-1.4,0c-1-0.02-1.68-0.79-1.58-1.75c0.02-0.15,0.06-0.3,0.1-0.45
		c-1.11-0.1-1.71-0.6-1.76-1.45c-0.02-0.39,0.08-0.74,0.31-1.04c0.36-0.47,0.87-0.62,1.45-0.61c-0.38-1.19,0.32-2.24,1.66-2.23
		c-0.02-0.06-0.03-0.11-0.05-0.17c-0.29-1.04,0.41-1.99,1.49-2c2.56-0.01,5.11-0.01,7.67,0c0.62,0,1.11,0.27,1.48,0.77
		c0.18,0.24,0.36,0.49,0.52,0.75c0.09,0.15,0.2,0.21,0.38,0.2c0.52-0.01,1.04,0,1.56,0c0.29,0,0.58,0,0.89,0c0-0.47-0.01-0.9,0-1.33
		c0.02-0.83,0.58-1.48,1.38-1.57c0.26-0.03,0.54,0.04,0.82,0.06c0.02-0.16,0.01-0.33,0.05-0.5c0.15-0.66,0.6-1.02,1.21-1.23
		C25.95,5.36,26.14,5.36,26.34,5.36z M19.21,17.45c-0.75,1.22-1.49,2.41-2.24,3.62c0.33,0.2,0.63,0.39,0.93,0.57
		c0.49,0.3,0.6,0.51,0.44,0.78c-0.17,0.28-0.41,0.27-0.89-0.02c-0.31-0.19-0.63-0.39-0.93-0.58c-0.6,0.49-1.18,0.47-1.73-0.03
		c-0.49-0.44-0.65-1.12-0.41-1.78c0.25-0.69,0.51-1.37,0.78-2.08c-1.58,0-3.12,0-4.69,0c0,0.12,0,0.23,0,0.33c0,0.86,0,1.72,0,2.58
		c0,0.25-0.08,0.43-0.29,0.57C9.89,21.6,9.63,21.82,9.33,22c-0.43,0.26-0.59,0.62-0.59,1.13c0.02,2.4,0.01,4.8,0.01,7.19
		c0,0.13,0,0.26,0.02,0.38c0.07,0.37,0.43,0.6,0.79,0.52c0.31-0.08,0.5-0.32,0.51-0.67c0.01-0.67,0-1.33,0-2
		c0-0.3,0.18-0.48,0.44-0.48c0.26,0,0.43,0.18,0.44,0.48c0,0.08,0,0.16,0,0.23c0,1.12,0,2.23,0,3.35c0,0.31,0.1,0.56,0.39,0.7
		c0.46,0.22,0.93-0.12,0.94-0.69c0.01-1,0-2,0-2.99c0-0.22,0-0.43,0-0.65c0.01-0.25,0.14-0.4,0.4-0.43
		c0.24-0.02,0.43,0.13,0.47,0.38c0.02,0.1,0.01,0.2,0.01,0.29c0,1.67,0,3.35,0,5.02c0,0.47,0.26,0.77,0.65,0.77
		c0.39,0,0.65-0.3,0.66-0.77c0-0.1,0-0.2,0-0.29c0-1.61,0-3.23,0-4.84c0-0.37,0.16-0.57,0.45-0.57c0.29,0,0.43,0.19,0.43,0.57
		c0,0.67,0,1.33,0,2c0,0.52-0.01,1.04,0,1.56c0.01,0.4,0.29,0.69,0.65,0.7c0.35,0.01,0.64-0.28,0.68-0.67c0.01-0.1,0-0.2,0-0.29
		c0-2.39,0-4.78,0-7.16c0-0.6,0.23-0.75,0.8-0.54c0.81,0.31,1.63,0.62,2.44,0.92c0.38,0.14,0.71,0.05,0.92-0.23
		c0.14-0.19,0.15-0.34-0.09-0.47c-0.44-0.25-0.87-0.53-1.3-0.8c-0.29-0.19-0.37-0.43-0.23-0.66c0.14-0.23,0.4-0.26,0.69-0.08
		c0.24,0.14,0.48,0.29,0.73,0.45c0.75-1.22,1.49-2.41,2.24-3.62C21.66,18.96,20.45,18.21,19.21,17.45z M22.27,15.58
		c0-1.61,0-3.18,0-4.77c-0.13,0-0.23,0-0.34,0c-0.8,0-1.61-0.01-2.41,0c-0.26,0-0.45-0.08-0.59-0.3c-0.19-0.3-0.41-0.57-0.6-0.87
		c-0.25-0.39-0.59-0.55-1.06-0.55C14.86,9.1,12.44,9.1,10.03,9.1c-0.11,0-0.22,0-0.32,0.01C9.36,9.15,9.12,9.44,9.12,9.77
		c0.01,0.34,0.27,0.61,0.61,0.63c0.1,0.01,0.2,0,0.29,0c0.6,0,1.19-0.01,1.79,0c0.29,0,0.48,0.2,0.47,0.45
		c-0.01,0.24-0.19,0.41-0.47,0.43c-0.08,0-0.16,0-0.23,0c-1.13,0-2.25,0-3.38,0c-0.51,0-0.82,0.35-0.73,0.8
		c0.06,0.33,0.34,0.53,0.77,0.53c1.13,0,2.25,0,3.38,0c0.1,0,0.2,0,0.29,0.01c0.22,0.04,0.38,0.19,0.35,0.4
		c-0.02,0.15-0.15,0.32-0.28,0.43c-0.08,0.07-0.24,0.05-0.37,0.05c-1.62,0-3.25,0-4.87,0c-0.11,0-0.22,0-0.32,0.01
		c-0.35,0.03-0.6,0.28-0.61,0.63c-0.01,0.35,0.24,0.64,0.6,0.67c0.11,0.01,0.22,0.01,0.32,0.01c1.66,0,3.33,0,4.99,0
		c0.36,0,0.57,0.18,0.56,0.46c-0.01,0.27-0.21,0.42-0.56,0.42c-1.13,0-2.25,0-3.38,0c-0.1,0-0.2,0-0.29,0.01
		C7.72,15.76,7.49,16,7.47,16.33c-0.02,0.33,0.19,0.6,0.53,0.67c0.13,0.03,0.27,0.03,0.41,0.03c2.41,0,4.82,0,7.22,0
		c0.54,0,0.71,0.24,0.52,0.75c-0.31,0.83-0.63,1.66-0.93,2.5c-0.14,0.38-0.06,0.69,0.21,0.9c0.23,0.17,0.34,0.16,0.49-0.09
		c0.61-0.99,1.22-1.98,1.84-2.97c0.23-0.37,0.46-0.75,0.69-1.11c-0.55-0.63-0.56-1.21-0.03-1.78c0.48-0.51,1.07-0.66,1.74-0.43
		C20.86,15.04,21.55,15.31,22.27,15.58z"/>
</g>
</svg>
