<svg width="52" height="52" viewBox="0 0 52 52" fill="none" xmlns="http://www.w3.org/2000/svg">
<g clip-path="url(#clip0_951_322)">
<path d="M51.9441 38.8682L50.9776 33.9674C50.5892 31.998 49.6327 30.208 48.2113 28.7905L46.5145 27.0984V21.3316C47.5749 20.9123 48.3275 19.878 48.3275 18.67C48.3275 18.3438 48.272 18.0308 48.1712 17.7384C49.3725 17.3992 50.256 16.2939 50.256 14.9851C50.256 14.6396 50.1945 14.3079 50.0814 14.0009C51.197 13.6101 51.9992 12.5476 51.9992 11.3003C51.9992 10.0534 51.197 8.99097 50.0814 8.5998C50.1945 8.29273 50.256 7.96146 50.256 7.61591C50.256 6.03812 48.9726 4.75471 47.3948 4.75471H41.6605C42.1869 4.11875 42.4401 3.26539 42.2873 2.39893C42.1508 1.62452 41.7184 0.953653 41.0698 0.50892C40.4215 0.0645846 39.6392 -0.0964872 38.8683 0.0558565L33.9675 1.02229C31.9978 1.41068 30.2077 2.3672 28.7906 3.78867L27.0986 5.48548H21.3313C20.9124 4.42503 19.8777 3.67203 18.6701 3.67203C18.344 3.67203 18.0309 3.72797 17.7386 3.82874C17.3994 2.62705 16.2941 1.74354 14.9853 1.74354C14.6397 1.74354 14.308 1.80543 14.0014 1.9181C13.6102 0.802896 12.5478 0.000711266 11.3008 0.000711266C10.0535 0.000711266 8.99109 0.802896 8.59992 1.9181C8.29325 1.80543 7.96158 1.74354 7.61603 1.74354C6.03824 1.74354 4.75483 3.02735 4.75483 4.60514V10.3391C4.11887 9.81299 3.26591 9.55988 2.39906 9.71262C1.62464 9.84909 0.953775 10.2815 0.509042 10.9302C0.0647067 11.5784 -0.0963651 12.3604 0.0559785 13.1316L1.02241 18.0324C1.41081 20.0018 2.36732 21.7918 3.7888 23.2093L5.4856 24.9014V30.6682C4.42475 31.0872 3.67216 32.1222 3.67216 33.3299C3.67216 33.656 3.7277 33.969 3.82886 34.2614C2.62717 34.6006 1.74366 35.7059 1.74366 37.0147C1.74366 37.3602 1.80515 37.6919 1.91822 37.999C0.803018 38.3897 0.000436608 39.4522 0.000436608 40.6995C0.000436608 41.9464 0.803018 43.0088 1.91822 43.4C1.80515 43.7067 1.74366 44.0383 1.74366 44.3839C1.74366 45.9617 3.02747 47.2451 4.60487 47.2451H10.3392C9.81272 47.8811 9.5596 48.734 9.71274 49.6009C9.84922 50.3753 10.2813 51.0462 10.9299 51.4905C11.4191 51.8261 11.984 51.9999 12.5632 51.9999C12.7517 51.9999 12.9421 51.9812 13.1317 51.944L18.0325 50.9775C20.0015 50.5895 21.7919 49.6326 23.2094 48.2111L24.9015 46.5143H30.6683C31.0873 47.5752 32.1219 48.3278 33.33 48.3278C33.6557 48.3278 33.9691 48.2722 34.2611 48.1711C34.6007 49.3728 35.706 50.2563 37.0144 50.2563C37.3603 50.2563 37.6916 50.1944 37.9987 50.0817C38.3895 51.1969 39.4523 51.9991 40.6992 51.9991C41.9461 51.9991 43.009 51.1969 43.3997 50.0817C43.7068 50.1944 44.0385 50.2563 44.384 50.2563C45.9618 50.2563 47.2452 48.9725 47.2452 47.3951V41.6608C47.8812 42.1868 48.7338 42.4403 49.601 42.2872C50.375 42.1507 51.0463 41.7183 51.4906 41.07C51.935 40.4214 52.096 39.6394 51.9441 38.8682ZM27.5199 7.51673C27.7901 7.51673 28.0487 7.40922 28.2392 7.21799L30.2288 5.22285C31.3602 4.0886 32.7888 3.3249 34.3603 3.01505L39.2611 2.04862C39.4928 2.0034 39.7272 2.0514 39.9216 2.1847C40.1164 2.318 40.2461 2.51954 40.287 2.75163C40.3664 3.20191 40.0807 3.6399 39.6372 3.7486L37.6004 4.24809C36.9581 4.40559 36.549 4.99631 36.6284 5.6529C36.7077 6.30949 37.2453 6.78596 37.907 6.78596H47.3952C47.8526 6.78596 48.2251 7.15848 48.2251 7.61591C48.2251 8.04001 47.9054 8.39032 47.4944 8.43952L41.8731 8.44587C41.3122 8.44587 40.8575 8.90091 40.8575 9.46149C40.8575 10.0225 41.3122 10.4771 41.8731 10.4771L49.138 10.4708C49.5958 10.4708 49.9684 10.8433 49.9684 11.3007C49.9684 11.7585 49.5958 12.1307 49.138 12.1307H41.8731C41.3122 12.1307 40.8575 12.5853 40.8575 13.1463C40.8575 13.7073 41.3122 14.1619 41.8731 14.1619H47.4948C47.9054 14.2115 48.2251 14.5614 48.2251 14.9855C48.2251 15.443 47.8526 15.8155 47.3952 15.8155H41.8731C41.3122 15.8155 40.8575 16.2701 40.8575 16.8311C40.8575 17.3921 41.3122 17.8467 41.8731 17.8467H45.5659C45.9765 17.8959 46.2966 18.2462 46.2966 18.6704C46.2966 19.1278 45.9241 19.5003 45.4667 19.5003H35.2101C33.0614 19.5003 31.0424 18.6624 29.5254 17.141L28.2396 15.8512C28.0487 15.66 27.7901 15.5529 27.5203 15.5529H21.5313V7.51673H27.5199ZM30.4997 34.4161H24.9015L23.9132 33.4251C22.2002 31.7072 19.9765 30.6853 17.5838 30.4996V24.9014L18.5749 23.9131C20.2657 22.227 21.3075 19.9554 21.4987 17.5837H27.0986L28.0868 18.5747C29.7999 20.293 32.0236 21.3149 34.4162 21.5002V27.0988L33.4252 28.0871C31.707 29.7998 30.685 32.0234 30.4997 34.4161ZM5.22297 21.7712C4.08833 20.6397 3.32502 19.2111 3.01518 17.6397L2.04874 12.7389C2.00312 12.5076 2.05113 12.2727 2.18482 12.0783C2.31812 11.8835 2.51926 11.7538 2.75175 11.7129C3.20243 11.634 3.63963 11.9192 3.74833 12.3632L4.24781 14.3996C4.40491 15.0419 4.99644 15.4501 5.65263 15.3716C6.30921 15.2922 6.78568 14.7546 6.78568 14.0933V4.60514C6.78568 4.14732 7.15821 3.77479 7.61603 3.77479C8.03974 3.77479 8.39005 4.09455 8.43924 4.50556L8.44599 10.1268C8.44599 10.6878 8.90064 11.1424 9.46122 11.1424C10.0222 11.1424 10.4768 10.6878 10.4768 10.1268V4.60514C10.4768 4.54325 10.4745 4.48215 10.4705 4.42106V2.86192C10.4705 2.40409 10.8426 2.03196 11.3004 2.03196C11.7583 2.03196 12.1304 2.40409 12.1304 2.86192V4.42106C12.1268 4.48215 12.1241 4.54325 12.1241 4.60514L12.1304 10.1272C12.1304 10.6878 12.5855 11.1428 13.146 11.1428C13.707 11.1428 14.1617 10.6878 14.1617 10.1272V4.50556C14.2112 4.09455 14.5612 3.77479 14.9853 3.77479C15.4431 3.77479 15.8152 4.14732 15.8152 4.60514C15.8152 4.60514 15.8113 9.5456 15.8152 9.58289V10.1268C15.8152 10.6878 16.2703 11.1424 16.8308 11.1424C17.3918 11.1424 17.8465 10.6878 17.8465 10.1268V6.43406C17.8957 6.02305 18.246 5.70328 18.6701 5.70328C19.1275 5.70328 19.5 6.07581 19.5 6.53364V16.7899C19.5 18.9076 18.6399 20.9797 17.1407 22.475L15.8509 23.7608C15.6601 23.9512 15.5526 24.2099 15.5526 24.48V30.4687H13.5213V27.7721C13.5213 27.2111 13.0667 26.7565 12.5057 26.7565C11.9451 26.7565 11.4901 27.2111 11.4901 27.7721V30.4687H7.51645V24.48C7.51645 24.2099 7.40894 23.9512 7.21811 23.7608L5.22297 21.7712ZM24.4798 44.4831C24.21 44.4831 23.9513 44.5906 23.7605 44.7818L21.7709 46.777C20.6398 47.9116 19.2112 48.6749 17.6394 48.9848L12.7386 49.9512C12.5069 49.9968 12.2724 49.9484 12.078 49.8151C11.8832 49.6814 11.7535 49.4803 11.7126 49.2482C11.6333 48.7979 11.9189 48.3603 12.3629 48.2512L14.3997 47.7521C15.042 47.5946 15.4506 47.0035 15.3713 46.3469C15.2919 45.6903 14.7544 45.2139 14.093 45.2139H4.60487C4.14704 45.2139 3.77491 44.8417 3.77491 44.3839C3.77491 43.9598 4.09507 43.6095 4.50608 43.5603L10.1269 43.5539C10.6879 43.5539 11.1426 43.0993 11.1426 42.5383C11.1426 41.9777 10.6879 41.5227 10.1269 41.5227L2.86204 41.529C2.40421 41.529 2.03169 41.1569 2.03169 40.6991C2.03169 40.2417 2.40421 39.8691 2.86204 39.8691H10.1269C10.6879 39.8691 11.1426 39.4145 11.1426 38.8535C11.1426 38.2929 10.6879 37.8379 10.1269 37.8379H4.50608C4.09507 37.7891 3.77491 37.4388 3.77491 37.0147C3.77491 36.5568 4.14704 36.1847 4.60487 36.1847H10.1269C10.6879 36.1847 11.1426 35.7297 11.1426 35.1691C11.1426 34.6081 10.6879 34.1535 10.1269 34.1535H6.43458C6.02357 34.1043 5.70341 33.754 5.70341 33.3299C5.70341 32.872 6.07593 32.4999 6.53336 32.4999H16.79C18.9387 32.4999 20.9576 33.3378 22.4747 34.8592L23.7609 36.1486C23.9513 36.3398 24.21 36.4473 24.4798 36.4473H30.4688V44.4831H24.4798ZM49.8152 39.9219C49.6819 40.1163 49.4804 40.246 49.2479 40.2869C48.7972 40.367 48.36 40.081 48.2513 39.637L47.7519 37.6002C47.5943 36.9575 47.0028 36.5497 46.347 36.6287C45.6904 36.708 45.214 37.2456 45.214 37.9069V47.3951C45.214 47.8529 44.8418 48.225 44.384 48.225C43.9599 48.225 43.6096 47.9049 43.5604 47.4939L43.5541 41.873C43.5541 41.312 43.0994 40.8574 42.5384 40.8574C41.9779 40.8574 41.5228 41.312 41.5228 41.873L41.5292 49.1383C41.5292 49.5957 41.157 49.9682 40.6992 49.9682C40.2418 49.9682 39.8693 49.5957 39.8693 49.1383V41.873C39.8693 41.312 39.4146 40.8574 38.8536 40.8574C38.2931 40.8574 37.838 41.312 37.838 41.873V47.4939C37.7892 47.9049 37.4389 48.225 37.0144 48.225C36.557 48.225 36.1844 47.8529 36.1844 47.3951V41.873C36.1844 41.312 35.7298 40.8574 35.1688 40.8574C34.6082 40.8574 34.1532 41.312 34.1532 41.873V45.5662C34.104 45.9768 33.7537 46.2965 33.33 46.2965C32.8722 46.2965 32.4996 45.9244 32.4996 45.4666V35.21C32.4996 33.0613 33.3379 31.0427 34.8594 29.5252L36.1487 28.2394C36.34 28.0486 36.4475 27.7899 36.4475 27.5202V21.5316H40.3648V24.6122C40.3648 25.1731 40.8194 25.6278 41.38 25.6278C41.941 25.6278 42.3956 25.1731 42.3956 24.6122V21.5316H44.4832V27.5202C44.4832 27.7899 44.5907 28.0486 44.7815 28.2394L46.7771 30.229C47.9113 31.3601 48.675 32.7887 48.9845 34.3606L49.9513 39.2613C49.9969 39.4926 49.9485 39.7271 49.8152 39.9219Z" fill="#AA7EF0"/>
</g>
<defs>
<clipPath id="clip0_951_322">
<rect width="52" height="52" fill="white"/>
</clipPath>
</defs>
</svg>
