<svg width="17" height="17" viewBox="0 0 21 21" fill="none" xmlns="http://www.w3.org/2000/svg">
<g id="Group">
<path id="Vector" d="M12.3988 4.375L16.625 8.60125V16.625H4.375V4.375H12.3988ZM12.3988 2.625H4.375C3.4125 2.625 2.625 3.4125 2.625 4.375V16.625C2.625 17.5875 3.4125 18.375 4.375 18.375H16.625C17.5875 18.375 18.375 17.5875 18.375 16.625V8.60125C18.375 8.1375 18.1912 7.69125 17.8587 7.3675L13.6325 3.14125C13.3088 2.80875 12.8625 2.625 12.3988 2.625ZM6.125 13.125H14.875V14.875H6.125V13.125ZM6.125 9.625H14.875V11.375H6.125V9.625ZM6.125 6.125H12.25V7.875H6.125V6.125Z" fill-opacity="0.8"/>
</g>
</svg>
