<?xml version="1.0" encoding="utf-8"?>
<!-- Generator: Adobe Illustrator 28.1.0, SVG Export Plug-In . SVG Version: 6.00 Build 0)  -->
<svg version="1.1" id="Layer_1" xmlns="http://www.w3.org/2000/svg" xmlns:xlink="http://www.w3.org/1999/xlink" x="0px" y="0px"
	 viewBox="0 0 32 32" style="enable-background:new 0 0 32 32;" xml:space="preserve">
<style type="text/css">
	.st0{fill:#220047;}
	.st1{fill:none;stroke:#220047;stroke-width:0.4;}
</style>
<path class="st0" d="M9.23,8.7C8.61,8.99,7.9,9.29,7.12,9.55C6.3,9.82,5.4,10.03,4.44,10.12c-0.04,0-0.08,0.02-0.11,0.05
	c-0.02,0.03-0.04,0.06-0.04,0.09l0.01,0.27c0.05,1.79,0.1,3.96,0.43,4.93l0,0v0.02c0.31,0.97,0.9,1.85,1.67,2.56
	c0.79,0.73,1.76,1.29,2.82,1.6h0.01c0.02,0,0.03,0.01,0.05,0.01s0.03,0,0.05-0.01c1.05-0.32,1.99-0.87,2.75-1.59s1.34-1.6,1.67-2.59
	c0.39-1.15,0.41-2.92,0.43-4.6c0-0.21,0.01-0.41,0.01-0.61c0-0.03-0.01-0.07-0.04-0.09c-0.03-0.03-0.07-0.05-0.11-0.05
	c-0.96-0.09-1.86-0.3-2.69-0.57C10.57,9.29,9.85,8.99,9.23,8.7L9.23,8.7z M22.32,25.5c-0.12,0-0.22-0.1-0.22-0.22
	c0-0.12,0.1-0.22,0.22-0.22h3.57c0.12,0,0.22,0.1,0.22,0.22c0,0.12-0.1,0.22-0.22,0.22H22.32z M13.64,23.12
	c-0.12,0-0.22-0.1-0.22-0.22c0-0.12,0.1-0.22,0.22-0.22h12.25c0.12,0,0.22,0.1,0.22,0.22c0,0.12-0.1,0.22-0.22,0.22H13.64z
	 M16.49,20.86c-0.12,0-0.22-0.1-0.22-0.22c0-0.12,0.1-0.22,0.22-0.22h9.39c0.12,0,0.22,0.1,0.22,0.22c0,0.12-0.1,0.22-0.22,0.22
	H16.49z M5.97,14.55c-0.18,0-0.33-0.14-0.33-0.32c0-0.18,0.15-0.32,0.33-0.32h2.95v-2.92c0-0.18,0.15-0.32,0.33-0.32
	s0.33,0.14,0.33,0.32v2.92h2.95c0.18,0,0.33,0.14,0.33,0.32c0,0.18-0.15,0.32-0.33,0.32H9.57v2.92c0,0.18-0.15,0.32-0.33,0.32
	s-0.33-0.14-0.33-0.32v-2.92C8.91,14.55,5.97,14.55,5.97,14.55z M23.77,13.59c0.14,0,0.27,0.06,0.36,0.15
	c0.09,0.09,0.15,0.22,0.15,0.36c0,0.14-0.06,0.27-0.15,0.36c-0.09,0.09-0.22,0.15-0.36,0.15c-0.14,0-0.27-0.06-0.36-0.15
	c-0.04-0.04-0.07-0.09-0.1-0.14l-0.68,0.01l-0.62,0.84c-0.02,0.03-0.05,0.05-0.08,0.07c-0.11,0.05-0.24,0-0.29-0.1l-0.77-1.61
	l-0.6,0.71c-0.04,0.05-0.1,0.08-0.17,0.08l-0.67,0.01c0.37,0.55,0.91,1.05,1.38,1.49c0.13,0.12,0.25,0.23,0.33,0.31l1.23,1.12
	c0.03,0.02,0.06,0.04,0.09,0.04s0.07-0.01,0.09-0.04l1.23-1.12c0.12-0.11,0.24-0.23,0.37-0.35c0.81-0.76,1.8-1.68,1.8-2.72
	c0-0.41-0.13-0.79-0.34-1.1c-0.22-0.31-0.53-0.55-0.89-0.67c-0.41-0.14-0.77-0.09-1.08,0.07c-0.39,0.2-0.71,0.58-0.96,1.02
	c-0.02,0.04-0.05,0.07-0.09,0.09c-0.01,0.01-0.02,0.01-0.03,0.01c-0.03,0.01-0.06,0.02-0.1,0.02s-0.09-0.01-0.13-0.03
	c-0.04-0.02-0.07-0.05-0.09-0.09l-0.01-0.01c-0.24-0.42-0.55-0.8-0.93-1c-0.3-0.16-0.65-0.22-1.05-0.1h-0.01
	c-0.37,0.11-0.69,0.35-0.92,0.66c-0.23,0.31-0.36,0.7-0.36,1.12c0,0.29,0.08,0.57,0.21,0.85L20,13.89l0.75-0.9
	c0.08-0.09,0.21-0.1,0.3-0.03c0.03,0.02,0.04,0.05,0.06,0.07l0.76,1.59l0.47-0.64c0.05-0.06,0.12-0.09,0.19-0.09l0.77-0.01
	c0.03-0.05,0.06-0.1,0.1-0.15C23.5,13.65,23.63,13.59,23.77,13.59z M23.82,14.04c-0.01-0.01-0.03-0.02-0.05-0.02
	c-0.02,0-0.04,0.01-0.05,0.02c-0.01,0.01-0.02,0.04-0.02,0.06s0.01,0.04,0.02,0.06c0.01,0.01,0.03,0.02,0.05,0.02
	c0.02,0,0.04-0.01,0.05-0.02c0.01-0.01,0.02-0.04,0.02-0.06S23.83,14.06,23.82,14.04z M9.23,6.88C9.19,6.9,9.14,6.92,9.1,6.94
	c-0.01,0-0.02,0.01-0.03,0.01C8.28,7.32,7.38,7.7,6.41,8.02C5.3,8.38,4.1,8.67,2.82,8.78c-0.05,0-0.1,0.03-0.13,0.06
	C2.66,8.87,2.65,8.9,2.65,8.94l0.01,0.37c0.06,2.4,0.14,5.29,0.58,6.59l0,0c0,0.01,0.01,0.02,0.01,0.03
	c0.42,1.29,1.2,2.46,2.23,3.41c1.05,0.98,2.35,1.72,3.76,2.14c0.02,0.01,0.04,0.01,0.06,0.01s0.04,0,0.06-0.01
	c1.4-0.43,2.66-1.16,3.67-2.12s1.78-2.13,2.22-3.45c0.51-1.54,0.54-3.9,0.57-6.14c0-0.28,0.01-0.55,0.01-0.82
	c0-0.04-0.01-0.07-0.04-0.1c-0.03-0.03-0.07-0.05-0.12-0.06c-1.29-0.11-2.5-0.4-3.61-0.77C11.02,7.68,10.06,7.27,9.23,6.88
	L9.23,6.88z M6.2,7.4c0.88-0.29,1.7-0.63,2.43-0.96c0-0.17,0-0.47,0-0.81c0-0.69,0.01-1.52,0.02-1.86c0.02-0.5,0.21-0.91,0.52-1.2
	C9.5,2.25,9.95,2.06,10.44,2c0.01,0,0.02,0,0.04,0h12.77c0.1,0,0.19,0.04,0.25,0.11l6.15,6.07c0.07,0.07,0.1,0.15,0.1,0.24L30,28.04
	c0,0.57-0.15,1.01-0.46,1.33c-0.31,0.31-0.75,0.48-1.34,0.51c-0.03,0-0.83,0-1.74,0c-1.2,0-2.59,0-2.68,0L10.76,30
	c-0.66,0.01-1.17-0.13-1.52-0.44c-0.36-0.32-0.54-0.78-0.53-1.4l0.01-6.17c-1.38-0.46-2.65-1.21-3.69-2.18
	c-1.1-1.02-1.95-2.29-2.4-3.68l-0.01-0.02l0,0c-0.47-1.38-0.55-4.33-0.61-6.78L2,8.96C1.99,8.74,2.08,8.55,2.22,8.4
	c0.14-0.14,0.33-0.24,0.54-0.26C3.98,8.03,5.14,7.75,6.2,7.4z M9.28,6.21c0.03,0,0.07,0.01,0.1,0.03c0.84,0.39,1.81,0.82,2.89,1.17
	c1.07,0.35,2.23,0.63,3.46,0.74c0.22,0.02,0.4,0.11,0.54,0.26c0.14,0.15,0.22,0.34,0.22,0.55c0,0.27-0.01,0.54-0.01,0.82
	c-0.03,2.29-0.06,4.71-0.61,6.34c-0.47,1.42-1.3,2.68-2.39,3.71s-2.43,1.81-3.93,2.27l0,0c-0.06,0.02-0.12,0.03-0.18,0.03
	l-0.01,6.04c0,0.42,0.1,0.72,0.32,0.91c0.22,0.2,0.58,0.29,1.08,0.28c4.34,0,8.69-0.1,13.04-0.12c0.05,0,1.46,0,2.67,0
	c0.89,0,1.68,0,1.71,0c0.41-0.02,0.71-0.12,0.9-0.32c0.19-0.19,0.28-0.48,0.27-0.87L29.1,8.74l-4,0.06c-0.65,0-1.16-0.15-1.53-0.44
	c-0.34-0.27-0.55-0.64-0.63-1.13c-0.02-0.04-0.03-0.09-0.03-0.13V7.01c0-0.01,0-0.02,0-0.03l0.01-4.33H10.49
	c-0.34,0.04-0.65,0.17-0.87,0.38C9.43,3.22,9.31,3.47,9.3,3.79C9.29,4.13,9.28,4.96,9.28,5.64C9.28,5.85,9.28,6.04,9.28,6.21
	L9.28,6.21z M28.64,8.1l-5.06-5l-0.01,3.88c0.04,0.4,0.18,0.69,0.42,0.88c0.25,0.2,0.62,0.3,1.12,0.3L28.64,8.1z M22.08,17.56
	l-1.23-1.13c-0.13-0.12-0.22-0.21-0.32-0.31c-0.87-0.81-1.98-1.86-1.98-3.07c0-0.51,0.16-0.99,0.44-1.37
	c0.28-0.39,0.68-0.68,1.15-0.82h0.01c0.52-0.15,0.98-0.08,1.38,0.13c0.38,0.2,0.69,0.54,0.95,0.92c0.26-0.4,0.59-0.74,0.98-0.94
	c0.41-0.21,0.88-0.27,1.42-0.09c0.45,0.15,0.84,0.45,1.11,0.84c0.26,0.38,0.42,0.84,0.42,1.34c0,1.23-1.06,2.22-1.93,3.04
	c-0.13,0.12-0.25,0.23-0.36,0.34l-0.01,0.01l-1.23,1.12c-0.11,0.1-0.25,0.15-0.39,0.15S22.18,17.66,22.08,17.56z M6.98,9.14
	c0.79-0.26,1.51-0.57,2.14-0.86c0.03-0.02,0.07-0.03,0.11-0.03h0.02c0.03,0,0.06,0.01,0.09,0.02c0.63,0.29,1.35,0.61,2.16,0.87
	c0.8,0.26,1.67,0.47,2.59,0.55c0.15,0.01,0.29,0.08,0.39,0.18s0.16,0.24,0.16,0.4c0,0.21-0.01,0.41-0.01,0.61
	c-0.02,1.71-0.05,3.51-0.45,4.72c-0.35,1.05-0.97,2-1.78,2.76c-0.81,0.76-1.81,1.35-2.92,1.69l0,0c-0.06,0.02-0.12,0.03-0.18,0.03
	s-0.11-0.01-0.17-0.02H9.12c-1.12-0.33-2.16-0.92-2.99-1.7c-0.82-0.76-1.45-1.7-1.79-2.74L4.32,15.6c-0.35-1.03-0.4-3.23-0.45-5.05
	l-0.01-0.27c0-0.15,0.05-0.29,0.15-0.4c0.1-0.1,0.23-0.17,0.39-0.19C5.31,9.61,6.18,9.4,6.98,9.14z"/>
<path class="st1" d="M9.23,8.7C8.61,8.99,7.9,9.29,7.12,9.55C6.3,9.82,5.4,10.03,4.44,10.12c-0.04,0-0.08,0.02-0.11,0.05
	c-0.02,0.03-0.04,0.06-0.04,0.09l0.01,0.27c0.05,1.79,0.1,3.96,0.43,4.93l0,0v0.02c0.31,0.97,0.9,1.85,1.67,2.56
	c0.79,0.73,1.76,1.29,2.82,1.6h0.01c0.02,0,0.03,0.01,0.05,0.01s0.03,0,0.05-0.01c1.05-0.32,1.99-0.87,2.75-1.59s1.34-1.6,1.67-2.59
	c0.39-1.15,0.41-2.92,0.43-4.6c0-0.21,0.01-0.41,0.01-0.61c0-0.03-0.01-0.07-0.04-0.09c-0.03-0.03-0.07-0.05-0.11-0.05
	c-0.96-0.09-1.86-0.3-2.69-0.57C10.57,9.29,9.85,8.99,9.23,8.7L9.23,8.7z M22.32,25.5c-0.12,0-0.22-0.1-0.22-0.22
	c0-0.12,0.1-0.22,0.22-0.22h3.57c0.12,0,0.22,0.1,0.22,0.22c0,0.12-0.1,0.22-0.22,0.22H22.32z M13.64,23.12
	c-0.12,0-0.22-0.1-0.22-0.22c0-0.12,0.1-0.22,0.22-0.22h12.25c0.12,0,0.22,0.1,0.22,0.22c0,0.12-0.1,0.22-0.22,0.22H13.64z
	 M16.49,20.86c-0.12,0-0.22-0.1-0.22-0.22c0-0.12,0.1-0.22,0.22-0.22h9.39c0.12,0,0.22,0.1,0.22,0.22c0,0.12-0.1,0.22-0.22,0.22
	H16.49z M5.97,14.55c-0.18,0-0.33-0.14-0.33-0.32c0-0.18,0.15-0.32,0.33-0.32h2.95v-2.92c0-0.18,0.15-0.32,0.33-0.32
	s0.33,0.14,0.33,0.32v2.92h2.95c0.18,0,0.33,0.14,0.33,0.32c0,0.18-0.15,0.32-0.33,0.32H9.57v2.92c0,0.18-0.15,0.32-0.33,0.32
	s-0.33-0.14-0.33-0.32v-2.92C8.91,14.55,5.97,14.55,5.97,14.55z M23.77,13.59c0.14,0,0.27,0.06,0.36,0.15
	c0.09,0.09,0.15,0.22,0.15,0.36c0,0.14-0.06,0.27-0.15,0.36c-0.09,0.09-0.22,0.15-0.36,0.15c-0.14,0-0.27-0.06-0.36-0.15
	c-0.04-0.04-0.07-0.09-0.1-0.14l-0.68,0.01l-0.62,0.84c-0.02,0.03-0.05,0.05-0.08,0.07c-0.11,0.05-0.24,0-0.29-0.1l-0.77-1.61
	l-0.6,0.71c-0.04,0.05-0.1,0.08-0.17,0.08l-0.67,0.01c0.37,0.55,0.91,1.05,1.38,1.49c0.13,0.12,0.25,0.23,0.33,0.31l1.23,1.12
	c0.03,0.02,0.06,0.04,0.09,0.04s0.07-0.01,0.09-0.04l1.23-1.12c0.12-0.11,0.24-0.23,0.37-0.35c0.81-0.76,1.8-1.68,1.8-2.72
	c0-0.41-0.13-0.79-0.34-1.1c-0.22-0.31-0.53-0.55-0.89-0.67c-0.41-0.14-0.77-0.09-1.08,0.07c-0.39,0.2-0.71,0.58-0.96,1.02
	c-0.02,0.04-0.05,0.07-0.09,0.09c-0.01,0.01-0.02,0.01-0.03,0.01c-0.03,0.01-0.06,0.02-0.1,0.02s-0.09-0.01-0.13-0.03
	c-0.04-0.02-0.07-0.05-0.09-0.09l-0.01-0.01c-0.24-0.42-0.55-0.8-0.93-1c-0.3-0.16-0.65-0.22-1.05-0.1h-0.01
	c-0.37,0.11-0.69,0.35-0.92,0.66c-0.23,0.31-0.36,0.7-0.36,1.12c0,0.29,0.08,0.57,0.21,0.85L20,13.89l0.75-0.9
	c0.08-0.09,0.21-0.1,0.3-0.03c0.03,0.02,0.04,0.05,0.06,0.07l0.76,1.59l0.47-0.64c0.05-0.06,0.12-0.09,0.19-0.09l0.77-0.01
	c0.03-0.05,0.06-0.1,0.1-0.15C23.5,13.65,23.63,13.59,23.77,13.59z M23.82,14.04c-0.01-0.01-0.03-0.02-0.05-0.02
	c-0.02,0-0.04,0.01-0.05,0.02c-0.01,0.01-0.02,0.04-0.02,0.06s0.01,0.04,0.02,0.06c0.01,0.01,0.03,0.02,0.05,0.02
	c0.02,0,0.04-0.01,0.05-0.02c0.01-0.01,0.02-0.04,0.02-0.06S23.83,14.06,23.82,14.04z M9.23,6.88C9.19,6.9,9.14,6.92,9.1,6.94
	c-0.01,0-0.02,0.01-0.03,0.01C8.28,7.32,7.38,7.7,6.41,8.02C5.3,8.38,4.1,8.67,2.82,8.78c-0.05,0-0.1,0.03-0.13,0.06
	C2.66,8.87,2.65,8.9,2.65,8.94l0.01,0.37c0.06,2.4,0.14,5.29,0.58,6.59l0,0c0,0.01,0.01,0.02,0.01,0.03
	c0.42,1.29,1.2,2.46,2.23,3.41c1.05,0.98,2.35,1.72,3.76,2.14c0.02,0.01,0.04,0.01,0.06,0.01s0.04,0,0.06-0.01
	c1.4-0.43,2.66-1.16,3.67-2.12s1.78-2.13,2.22-3.45c0.51-1.54,0.54-3.9,0.57-6.14c0-0.28,0.01-0.55,0.01-0.82
	c0-0.04-0.01-0.07-0.04-0.1c-0.03-0.03-0.07-0.05-0.12-0.06c-1.29-0.11-2.5-0.4-3.61-0.77C11.02,7.68,10.06,7.27,9.23,6.88
	L9.23,6.88z M6.2,7.4c0.88-0.29,1.7-0.63,2.43-0.96c0-0.17,0-0.47,0-0.81c0-0.69,0.01-1.52,0.02-1.86c0.02-0.5,0.21-0.91,0.52-1.2
	C9.5,2.25,9.95,2.06,10.44,2c0.01,0,0.02,0,0.04,0h12.77c0.1,0,0.19,0.04,0.25,0.11l6.15,6.07c0.07,0.07,0.1,0.15,0.1,0.24L30,28.04
	c0,0.57-0.15,1.01-0.46,1.33c-0.31,0.31-0.75,0.48-1.34,0.51c-0.03,0-0.83,0-1.74,0c-1.2,0-2.59,0-2.68,0L10.76,30
	c-0.66,0.01-1.17-0.13-1.52-0.44c-0.36-0.32-0.54-0.78-0.53-1.4l0.01-6.17c-1.38-0.46-2.65-1.21-3.69-2.18
	c-1.1-1.02-1.95-2.29-2.4-3.68l-0.01-0.02l0,0c-0.47-1.38-0.55-4.33-0.61-6.78L2,8.96C1.99,8.74,2.08,8.55,2.22,8.4
	c0.14-0.14,0.33-0.24,0.54-0.26C3.98,8.03,5.14,7.75,6.2,7.4z M9.28,6.21c0.03,0,0.07,0.01,0.1,0.03c0.84,0.39,1.81,0.82,2.89,1.17
	c1.07,0.35,2.23,0.63,3.46,0.74c0.22,0.02,0.4,0.11,0.54,0.26c0.14,0.15,0.22,0.34,0.22,0.55c0,0.27-0.01,0.54-0.01,0.82
	c-0.03,2.29-0.06,4.71-0.61,6.34c-0.47,1.42-1.3,2.68-2.39,3.71s-2.43,1.81-3.93,2.27l0,0c-0.06,0.02-0.12,0.03-0.18,0.03
	l-0.01,6.04c0,0.42,0.1,0.72,0.32,0.91c0.22,0.2,0.58,0.29,1.08,0.28c4.34,0,8.69-0.1,13.04-0.12c0.05,0,1.46,0,2.67,0
	c0.89,0,1.68,0,1.71,0c0.41-0.02,0.71-0.12,0.9-0.32c0.19-0.19,0.28-0.48,0.27-0.87L29.1,8.74l-4,0.06c-0.65,0-1.16-0.15-1.53-0.44
	c-0.34-0.27-0.55-0.64-0.63-1.13c-0.02-0.04-0.03-0.09-0.03-0.13V7.01c0-0.01,0-0.02,0-0.03l0.01-4.33H10.49
	c-0.34,0.04-0.65,0.17-0.87,0.38C9.43,3.22,9.31,3.47,9.3,3.79C9.29,4.13,9.28,4.96,9.28,5.64C9.28,5.85,9.28,6.04,9.28,6.21
	L9.28,6.21z M28.64,8.1l-5.06-5l-0.01,3.88c0.04,0.4,0.18,0.69,0.42,0.88c0.25,0.2,0.62,0.3,1.12,0.3L28.64,8.1z M22.08,17.56
	l-1.23-1.13c-0.13-0.12-0.22-0.21-0.32-0.31c-0.87-0.81-1.98-1.86-1.98-3.07c0-0.51,0.16-0.99,0.44-1.37
	c0.28-0.39,0.68-0.68,1.15-0.82h0.01c0.52-0.15,0.98-0.08,1.38,0.13c0.38,0.2,0.69,0.54,0.95,0.92c0.26-0.4,0.59-0.74,0.98-0.94
	c0.41-0.21,0.88-0.27,1.42-0.09c0.45,0.15,0.84,0.45,1.11,0.84c0.26,0.38,0.42,0.84,0.42,1.34c0,1.23-1.06,2.22-1.93,3.04
	c-0.13,0.12-0.25,0.23-0.36,0.34l-0.01,0.01l-1.23,1.12c-0.11,0.1-0.25,0.15-0.39,0.15S22.18,17.66,22.08,17.56z M6.98,9.14
	c0.79-0.26,1.51-0.57,2.14-0.86c0.03-0.02,0.07-0.03,0.11-0.03h0.02c0.03,0,0.06,0.01,0.09,0.02c0.63,0.29,1.35,0.61,2.16,0.87
	c0.8,0.26,1.67,0.47,2.59,0.55c0.15,0.01,0.29,0.08,0.39,0.18s0.16,0.24,0.16,0.4c0,0.21-0.01,0.41-0.01,0.61
	c-0.02,1.71-0.05,3.51-0.45,4.72c-0.35,1.05-0.97,2-1.78,2.76c-0.81,0.76-1.81,1.35-2.92,1.69l0,0c-0.06,0.02-0.12,0.03-0.18,0.03
	s-0.11-0.01-0.17-0.02H9.12c-1.12-0.33-2.16-0.92-2.99-1.7c-0.82-0.76-1.45-1.7-1.79-2.74L4.32,15.6c-0.35-1.03-0.4-3.23-0.45-5.05
	l-0.01-0.27c0-0.15,0.05-0.29,0.15-0.4c0.1-0.1,0.23-0.17,0.39-0.19C5.31,9.61,6.18,9.4,6.98,9.14z"/>
</svg>
