<svg width="32" height="32" viewBox="0 0 32 32" fill="none" xmlns="http://www.w3.org/2000/svg">
<path d="M16 17V21" stroke="#220047" stroke-miterlimit="10" stroke-linecap="round" stroke-linejoin="round"/>
<path d="M14 19H18" stroke="#220047" stroke-miterlimit="10" stroke-linecap="round" stroke-linejoin="round"/>
<path d="M25 29H7C4.8 29 3 27.2 3 25V13C3 10.8 4.8 9 7 9H25C27.2 9 29 10.8 29 13V25C29 27.2 27.2 29 25 29Z" stroke="#220047" stroke-miterlimit="10" stroke-linecap="round" stroke-linejoin="round"/>
<path d="M16 25C19.3137 25 22 22.3137 22 19C22 15.6863 19.3137 13 16 13C12.6863 13 10 15.6863 10 19C10 22.3137 12.6863 25 16 25Z" stroke="#220047" stroke-miterlimit="10" stroke-linecap="round" stroke-linejoin="round"/>
<path d="M21 9H11V7C11 4.8 12.8 3 15 3H17C19.2 3 21 4.8 21 7V9Z" stroke="#220047" stroke-miterlimit="10" stroke-linecap="round" stroke-linejoin="round"/>
</svg>
