<svg width="32" height="32" viewBox="0 0 32 32" fill="none" xmlns="http://www.w3.org/2000/svg">
<path d="M12.6075 0.640015C11.3062 0.640015 10.24 1.70618 10.24 3.00751V9.85626C10.24 11.1576 11.3062 12.2238 12.6075 12.2238H19.4563C20.7576 12.2238 21.8238 11.1576 21.8238 9.85626V3.00751C21.8238 2.99334 21.8234 2.97916 21.8225 2.96501C21.7375 1.68855 20.6939 0.640015 19.3925 0.640015H12.6075ZM12.6075 1.92001H19.3925C20.0102 1.92001 20.4995 2.40549 20.5438 3.04751V9.85626C20.5438 10.4749 20.075 10.9438 19.4563 10.9438H12.6075C11.9889 10.9438 11.52 10.4749 11.52 9.85626V3.00751C11.52 2.38885 11.9889 1.92001 12.6075 1.92001ZM15.36 3.84001V5.76001H13.44V7.04001H15.36V8.96001H16.64V7.04001H18.56V5.76001H16.64V3.84001H15.36ZM4.28754 5.76001C2.98621 5.76001 1.92004 6.82618 1.92004 8.12751V29.44H30.72V8.12751C30.72 6.82618 29.6539 5.76001 28.3525 5.76001H23.04V7.04001H28.3525C28.9712 7.04001 29.44 7.50885 29.44 8.12751V28.16H19.2V21.12H18.56H16.2563H12.8V28.16H3.20004V8.12751C3.20004 7.50885 3.66888 7.04001 4.28754 7.04001H8.96004V5.76001H4.28754ZM4.45379 14.0538V19.2263H10.2663V14.0538H9.60004H6.97629H4.45379ZM12.7738 14.0538V19.2263H19.2263V14.0538H18.56H15.9363H12.7738ZM21.7338 14.0538V19.2263H27.5463V14.0538H26.88H24.8963H21.7338ZM5.78629 15.3863H6.97629H8.93379V17.8938H5.78629V15.3863ZM14.1063 15.3863H15.9363H17.8938V17.8938H14.1063V15.3863ZM23.0663 15.3863H24.8963H26.2138V17.8938H23.0663V15.3863ZM4.45379 21.0938V26.2663H10.2663V21.0938H9.60004H6.97629H4.45379ZM21.7338 21.0938V26.2663H27.5463V21.0938H26.88H24.8963H21.7338ZM14.08 22.4H16.2563H17.92V28.16H14.08V22.4ZM5.78629 22.4263H6.97629H8.93379V24.9338H5.78629V22.4263ZM23.0663 22.4263H24.8963H26.2138V24.9338H23.0663V22.4263Z" fill="#220047"/>
</svg>
