<svg width="32" height="32" viewBox="0 0 32 32" fill="none" xmlns="http://www.w3.org/2000/svg">
<g clip-path="url(#clip0_74_1243)">
<path d="M31.6743 28.6362C31.5073 27.9673 30.9087 27.5 30.2192 27.5H25V26.5H30C30.2763 26.5 30.5 26.2761 30.5 26V25.5C30.5 24.5698 29.8618 23.7859 29 23.5632V23.5C29 20.3604 26.5749 17.7808 23.5 17.5254V16.5H24C24.2763 16.5 24.5 16.2761 24.5 16C24.5 15.7239 24.2763 15.5 24 15.5H22C21.7236 15.5 21.5 15.7239 21.5 16C21.5 16.2761 21.7236 16.5 22 16.5H22.5V17.5254C19.425 17.7809 17 20.3605 17 23.5V23.5632C16.1384 23.7859 15.5 24.5699 15.5 25.5V26C15.5 26.2761 15.7239 26.5 16 26.5H21V27.5H15.7807C15.091 27.5 14.4926 27.9673 14.3254 28.6362L14.0149 29.8787C13.9775 30.0281 14.0112 30.1863 14.1059 30.3076C14.2006 30.429 14.3459 30.5 14.5 30.5H31.5C31.6538 30.5 31.7993 30.429 31.8941 30.3076C31.9888 30.1863 32.0225 30.0281 31.9849 29.8787L31.6743 28.6362ZM17.5 24.5C17.7764 24.5 18 24.2761 18 24V23.5C18 20.7429 20.2432 18.5 23 18.5C25.7569 18.5 28 20.7429 28 23.5V24C28 24.2761 28.2237 24.5 28.5 24.5C29.0513 24.5 29.5 24.9485 29.5 25.5H16.5C16.5 24.9485 16.9488 24.5 17.5 24.5ZM22 26.5H24V27.5H22V26.5ZM15.1404 29.5L15.2957 28.8789C15.3513 28.6558 15.5508 28.5 15.7808 28.5H30.2193C30.4493 28.5 30.6485 28.6558 30.7046 28.8789L30.8599 29.5H15.1404Z" fill="#220047"/>
<path d="M18.771 12.2661C18.8496 12.1864 18.9133 12.0969 18.9799 12.0093L25.0088 13.52C25.2886 13.5901 25.5723 13.624 25.8535 13.624C26.9043 13.624 27.9224 13.1499 28.5952 12.3078L28.7092 12.1657L29.3867 12.374C30.7647 12.7854 32 11.7485 32 10.4399C32 9.67795 31.5611 8.9682 30.8839 8.63275L20.7803 3.5835C20.022 3.20165 19.1713 3 18.3198 3H5.929C5.70535 2.13985 4.92915 1.5 4 1.5H0.5C0.2239 1.5 0 1.7239 0 2V15C0 15.2761 0.2239 15.5 0.5 15.5H4C4.92915 15.5 5.70535 14.8601 5.929 14H9.0371C9.7402 14 10.4275 13.8677 11.0798 13.6067L12.3279 13.1074C12.5061 13.0361 12.6935 13 12.8852 13H17C17.6616 13 18.289 12.7412 18.771 12.2661ZM25.2514 12.5498L19.4217 11.0889C19.4683 10.8972 19.5 10.7014 19.5 10.5C19.5 10.0349 19.3726 9.59905 19.1504 9.2258L27.665 11.8445C27.0481 12.49 26.1246 12.768 25.2514 12.5498ZM4 14.5H1V2.5H4C4.5515 2.5 5 2.9485 5 3.5V11.5H4C3.7239 11.5 3.5 11.7239 3.5 12C3.5 12.2761 3.7239 12.5 4 12.5H5V13.5C5 14.0515 4.5515 14.5 4 14.5ZM11.9565 12.1787L10.7083 12.6782C10.1746 12.8916 9.6123 13 9.0371 13H6V4H18.3198C19.0156 4 19.7109 4.1648 20.3315 4.4773L30.4384 9.5281C30.7792 9.6973 31 10.0549 31 10.4399C31 11.0051 30.5424 11.4651 29.9799 11.4651C29.8842 11.4651 29.7837 11.449 29.6768 11.417L19.0805 8.1582C18.7485 8.0532 18.4014 8 18.0498 8H12.5C12.2239 8 12 8.2239 12 8.5C12 8.7761 12.2239 9 12.5 9H17C17.8271 9 18.5 9.67285 18.5 10.5C18.5 10.8977 18.3432 11.2757 18.0639 11.5589C17.7754 11.8433 17.3975 12 17 12H12.8853C12.5659 12 12.2534 12.0601 11.9565 12.1787Z" fill="#220047"/>
<path d="M14.584 17.7227C14.4309 17.9524 14.4929 18.263 14.7226 18.416L16.2226 19.416C16.3078 19.4729 16.4043 19.5 16.4995 19.5C16.6611 19.5 16.8198 19.4219 16.916 19.2774C17.0693 19.0476 17.0073 18.7371 16.7773 18.584L15.2773 17.584C15.0469 17.4305 14.737 17.4927 14.584 17.7227Z" fill="#220047"/>
<path d="M18 18C18.128 18 18.2559 17.9511 18.3535 17.8535C18.5488 17.6582 18.5488 17.3418 18.3535 17.1464L17.3535 16.1464C17.1582 15.9511 16.8418 15.9511 16.6465 16.1464C16.4511 16.3417 16.4512 16.6581 16.6465 16.8535L17.6465 17.8535C17.7441 17.9511 17.8721 18 18 18Z" fill="#220047"/>
<path d="M29.5005 19.5C29.5957 19.5 29.6919 19.4729 29.7774 19.416L31.2774 18.416C31.5074 18.2629 31.5694 17.9524 31.416 17.7227C31.2632 17.4927 30.9531 17.4304 30.7227 17.584L29.2227 18.584C28.9927 18.7371 28.9307 19.0476 29.084 19.2774C29.1802 19.4219 29.3389 19.5 29.5005 19.5Z" fill="#220047"/>
<path d="M29.3535 16.1465C29.1582 15.9512 28.8418 15.9512 28.6464 16.1465L27.6464 17.1465C27.4511 17.3418 27.4511 17.6582 27.6464 17.8536C27.7441 17.9512 27.872 18.0001 27.9999 18.0001C28.1278 18.0001 28.2558 17.9512 28.3534 17.8536L29.3534 16.8536C29.5487 16.6583 29.5488 16.3419 29.3535 16.1465Z" fill="#220047"/>
</g>
<defs>
<clipPath id="clip0_74_1243">
<rect width="32" height="32" fill="white"/>
</clipPath>
</defs>
</svg>
