<svg width="28" height="28" viewBox="0 0 28 28" fill="none" xmlns="http://www.w3.org/2000/svg">
<path d="M20.8586 16.9181L21.2 17.2595V16.7767V16.3333C21.2 16.077 21.3018 15.8311 21.4831 15.6498C21.6644 15.4685 21.9103 15.3667 22.1666 15.3667C22.423 15.3667 22.6689 15.4685 22.8502 15.6498C23.0315 15.8311 23.1333 16.077 23.1333 16.3333V22.1667C23.1333 23.0419 22.7856 23.8812 22.1668 24.5001C21.5479 25.119 20.7085 25.4667 19.8333 25.4667H5.83331C4.9581 25.4667 4.11873 25.119 3.49986 24.5001L3.35844 24.6415L3.49986 24.5001C2.88099 23.8812 2.53331 23.0419 2.53331 22.1667V8.16667C2.53331 7.29145 2.88099 6.45209 3.49986 5.83321C4.11873 5.21434 4.9581 4.86667 5.83331 4.86667H14C14.2564 4.86667 14.5022 4.96851 14.6835 5.1498C14.8648 5.33108 14.9666 5.57696 14.9666 5.83333C14.9666 6.08971 14.8648 6.33558 14.6835 6.51687C14.5022 6.69815 14.2564 6.8 14 6.8H5.83331C5.47085 6.8 5.12323 6.94399 4.86693 7.20029C4.61063 7.45659 4.46665 7.8042 4.46665 8.16667V14.7V15.1828L4.80807 14.8414L6.53296 13.1165C7.11377 12.5645 7.88446 12.2567 8.68581 12.2567C9.48716 12.2567 10.2579 12.5645 10.8387 13.1165L13.7302 16.0081L13.8716 16.1495L14.0131 16.0081L14.8292 15.192C14.8293 15.1919 14.8293 15.1918 14.8294 15.1917C15.4016 14.6242 16.1749 14.3057 16.9808 14.3057C17.7866 14.3057 18.5598 14.6241 19.132 15.1915C19.1321 15.1917 19.1323 15.1918 19.1325 15.192L20.8586 16.9181ZM4.52522 17.8602L4.46665 17.9188V18.0017V22.1667C4.46665 22.5291 4.61063 22.8767 4.86693 23.133C5.12323 23.3893 5.47085 23.5333 5.83331 23.5333H18.0366H18.5195L18.1781 23.1919L13.1614 18.1752L9.46307 14.4769L9.46311 14.4769L9.45962 14.4735C9.25103 14.2748 8.97395 14.1639 8.68581 14.1639C8.39768 14.1639 8.12059 14.2748 7.912 14.4735L7.91196 14.4735L7.90856 14.4769L4.52522 17.8602ZM21.2 22.1682V22.1667V20.0783V19.9959L21.1419 19.9374L17.7712 16.5434C17.771 16.5432 17.7709 16.5431 17.7707 16.5429C17.6686 16.4387 17.5466 16.356 17.4121 16.2995C17.2774 16.2429 17.1328 16.2137 16.9866 16.2137C16.8405 16.2137 16.6959 16.2429 16.5612 16.2995C16.4268 16.3559 16.305 16.4386 16.2028 16.5426C16.2026 16.5429 16.2024 16.5431 16.2021 16.5434L15.3869 17.3586L15.2458 17.4997L15.3866 17.6411L20.6482 22.9261L20.8107 23.0893L20.9495 22.9056C21.1101 22.6931 21.198 22.4345 21.2 22.1682ZM26.3536 5.14642L26.3541 5.147C26.4447 5.23687 26.5167 5.34378 26.5657 5.46157C26.6148 5.57937 26.6401 5.70572 26.6401 5.83333C26.6401 5.96095 26.6148 6.08729 26.5657 6.20509C26.5167 6.32289 26.4447 6.4298 26.3541 6.51966L26.353 6.52083C26.2631 6.61143 26.1562 6.68334 26.0384 6.73242C25.9206 6.7815 25.7943 6.80677 25.6666 6.80677C25.539 6.80677 25.4127 6.7815 25.2949 6.73242C25.1771 6.68334 25.0702 6.61143 24.9803 6.52083L24.9803 6.52079L23.4753 5.00413L23.1333 4.65951V5.145V11.6667C23.1333 11.923 23.0315 12.1689 22.8502 12.3502C22.6689 12.5315 22.423 12.6333 22.1666 12.6333C21.9103 12.6333 21.6644 12.5315 21.4831 12.3502C21.3018 12.1689 21.2 11.923 21.2 11.6667V5.145V4.65951L20.858 5.00413L19.3536 6.52025C19.3535 6.5203 19.3534 6.52036 19.3534 6.52042C19.1712 6.70249 18.9242 6.80477 18.6666 6.80477C18.409 6.80477 18.1619 6.70243 17.9797 6.52025C17.7976 6.33807 17.6952 6.09098 17.6952 5.83333C17.6952 5.70576 17.7203 5.57944 17.7692 5.46158C17.818 5.34372 17.8895 5.23663 17.9797 5.14642L21.4781 1.64803C21.5697 1.56071 21.6776 1.49223 21.7956 1.44647L21.7956 1.44651L21.7993 1.445C22.0347 1.34831 22.2986 1.34831 22.534 1.445L22.534 1.44504L22.5377 1.44647C22.6557 1.49223 22.7635 1.56071 22.8552 1.64803L26.3536 5.14642Z"  stroke-width="0.4"/>
</svg>
