<svg width="32" height="32" viewBox="0 0 32 32" fill="none" xmlns="http://www.w3.org/2000/svg">
<g clip-path="url(#clip0_74_1435)">
<path d="M31.8586 18.1404C31.4578 21.1326 30.217 23.9436 28.2705 26.2694C25.5275 29.547 21.6723 31.5602 17.415 31.9382C16.9325 31.981 16.4509 32.0023 15.9723 32.0023C12.4537 32.0024 9.07052 30.8545 6.26383 28.698L6.42745 30.541C6.45795 30.8848 6.20402 31.1883 5.86014 31.2188C5.84139 31.2205 5.82264 31.2213 5.80414 31.2213C5.48395 31.2213 5.2112 30.9766 5.18233 30.6516L4.87852 27.229C4.84802 26.8852 5.10195 26.5817 5.44577 26.5512L8.86795 26.2474C9.21245 26.2173 9.51527 26.4708 9.54583 26.8147C9.57633 27.1585 9.32239 27.462 8.97858 27.4925L6.97845 27.6701C9.57483 29.681 12.7116 30.7522 15.9745 30.7523C16.4159 30.7523 16.8594 30.7327 17.3045 30.6931C21.2291 30.3447 24.7831 28.4888 27.3119 25.4673C30.9283 21.1462 31.7724 15.2518 29.5149 10.0842C29.3767 9.76788 29.5211 9.39944 29.8375 9.26125C30.1535 9.12306 30.5222 9.26744 30.6604 9.58375C31.8342 12.2706 32.2486 15.2295 31.8586 18.1404ZM24.9564 4.28056L23.0643 4.44857C22.7205 4.47907 22.4666 4.78256 22.4971 5.12638C22.526 5.45144 22.7987 5.69619 23.1189 5.69613C23.1374 5.69613 23.1561 5.69531 23.1749 5.69363L26.5975 5.38975C26.9413 5.35925 27.1952 5.05575 27.1647 4.71194L26.8609 1.28975C26.8303 0.94594 26.5268 0.692315 26.183 0.72244C25.8392 0.75294 25.5853 1.05644 25.6158 1.40025L25.7883 3.34356C22.5905 0.865814 18.6367 -0.29756 14.585 0.0620022C10.3278 0.440002 6.47258 2.45319 3.72952 5.73075C1.78295 8.05657 0.542329 10.8675 0.141516 13.8598C-0.248296 16.7706 0.166016 19.7295 1.33964 22.4166C1.44227 22.6514 1.67177 22.7916 1.9127 22.7916C1.9962 22.7916 2.08114 22.7747 2.16258 22.7392C2.47889 22.6011 2.62333 22.2326 2.48514 21.9163C0.227891 16.7483 1.07195 10.8538 4.68814 6.533C9.7677 0.463502 18.7303 -0.48256 24.9564 4.28056ZM20.7066 15.9806C20.7066 18.5629 18.6058 20.6637 16.0236 20.6637C13.4413 20.6637 11.3405 18.5629 11.3405 15.9806C11.3405 13.3983 13.4413 11.2974 16.0236 11.2974C18.6058 11.2974 20.7066 13.3983 20.7066 15.9806ZM19.4566 15.9806C19.4566 14.0876 17.9166 12.5474 16.0236 12.5474C14.1306 12.5474 12.5905 14.0876 12.5905 15.9806C12.5905 17.8736 14.1306 19.4137 16.0236 19.4137C17.9166 19.4137 19.4566 17.8736 19.4566 15.9806ZM23.673 19.1489C23.485 19.6026 23.4725 20.2756 24.0006 20.8038C24.4925 21.2956 24.4925 22.0958 24.0006 22.5876L22.6306 23.9576C22.1387 24.4494 21.3384 24.4494 20.8467 23.9576C20.3186 23.4294 19.6455 23.4419 19.192 23.6299C18.7383 23.8178 18.2536 24.2847 18.2536 25.0317C18.2536 25.7272 17.6877 26.293 16.9922 26.293H15.0548C14.3593 26.293 13.7934 25.7272 13.7934 25.0317C13.7934 24.2834 13.309 23.8161 12.8557 23.6284C12.4023 23.4406 11.7294 23.4284 11.2003 23.9576C10.9621 24.1958 10.6453 24.3271 10.3083 24.3271C9.97133 24.3271 9.65458 24.1959 9.41639 23.9576L8.04639 22.5876C7.55458 22.0958 7.55458 21.2956 8.04639 20.8037C8.57458 20.2755 8.56202 19.6026 8.37408 19.1489C8.1862 18.6953 7.71927 18.2106 6.97233 18.2106C6.27683 18.2106 5.71095 17.6448 5.71095 16.9492V15.0118C5.71095 14.3163 6.27683 13.7504 6.97233 13.7504C7.71927 13.7504 8.1862 13.2658 8.37408 12.8121C8.56202 12.3584 8.57458 11.6855 8.04639 11.1573C7.55464 10.6654 7.55464 9.86519 8.04639 9.37344L9.41639 8.00344C9.65464 7.76519 9.97139 7.634 10.3083 7.634C10.6453 7.634 10.9621 7.76525 11.2003 8.0035C11.7284 8.53169 12.4014 8.51913 12.8551 8.33119C13.3087 8.14331 13.7934 7.67638 13.7934 6.92938C13.7934 6.23388 14.3593 5.668 15.0548 5.668H16.9922C17.6877 5.668 18.2536 6.23381 18.2536 6.92938C18.2536 7.67638 18.7383 8.14331 19.192 8.33119C19.6456 8.519 20.3185 8.53163 20.8467 8.00344C21.3385 7.51169 22.1388 7.51156 22.6306 8.00338L24.0006 9.37344C24.4924 9.86519 24.4924 10.6654 24.0006 11.1573C23.4725 11.6855 23.485 12.3584 23.6729 12.8121C23.8608 13.2657 24.3278 13.7504 25.0748 13.7504C25.7703 13.7504 26.3361 14.3163 26.3361 15.0118V16.9492C26.3361 17.6447 25.7703 18.2106 25.0748 18.2106C24.3277 18.2106 23.8608 18.6954 23.673 19.1489ZM25.0747 16.9606C25.081 16.9606 25.0861 16.9555 25.0861 16.9493V15.0119C25.0861 15.0056 25.081 15.0005 25.0747 15.0005C23.9346 15.0005 22.9549 14.3453 22.518 13.2905C22.0811 12.2358 22.3106 11.0797 23.1167 10.2735C23.1211 10.2691 23.1211 10.2618 23.1167 10.2574L21.7467 8.88738C21.7423 8.883 21.735 8.88294 21.7306 8.88738C20.9245 9.6935 19.7685 9.923 18.7136 9.48606C17.6588 9.04919 17.0036 8.0695 17.0036 6.92938C17.0036 6.92313 16.9986 6.918 16.9923 6.918H15.0548C15.0485 6.918 15.0435 6.92313 15.0435 6.92938C15.0435 8.0695 14.3883 9.04913 13.3335 9.48606C12.2788 9.92281 11.1226 9.69356 10.3165 8.88738C10.3126 8.8835 10.3042 8.88363 10.3004 8.88738L8.93039 10.2574C8.92595 10.2618 8.92595 10.2691 8.93039 10.2735C9.73652 11.0796 9.96595 12.2357 9.52908 13.2904C9.09214 14.3452 8.11252 15.0004 6.97245 15.0004C6.96614 15.0004 6.96108 15.0056 6.96108 15.0118V16.9492C6.96108 16.9554 6.96614 16.9606 6.97245 16.9606C8.11252 16.9606 9.09214 17.6158 9.52902 18.6706C9.96595 19.7254 9.73652 20.8814 8.93039 21.6876C8.92595 21.6921 8.92595 21.6993 8.93039 21.7037L10.3004 23.0738C10.3042 23.0776 10.3127 23.0776 10.3164 23.0738C10.853 22.5372 11.5441 22.2557 12.2569 22.2557C12.6161 22.2557 12.9808 22.3272 13.3341 22.4735C14.3885 22.9103 15.0435 23.8904 15.0435 25.0317C15.0435 25.0379 15.0486 25.043 15.0549 25.043H16.9923C16.9986 25.043 17.0037 25.0379 17.0037 25.0317C17.0037 23.8916 17.6589 22.9119 18.7137 22.475C19.7683 22.0382 20.9243 22.2674 21.7306 23.0738C21.735 23.0781 21.7423 23.0781 21.7468 23.0737L23.1168 21.7038C23.1212 21.6993 23.1212 21.6921 23.1168 21.6877C22.3106 20.8815 22.0812 19.7254 22.5181 18.6706C22.955 17.6159 23.9346 16.9606 25.0747 16.9606Z" fill="#220047"/>
</g>
<defs>
<clipPath id="clip0_74_1435">
<rect width="32" height="32" fill="white"/>
</clipPath>
</defs>
</svg>
