<svg width="14" height="14" viewBox="0 0 16 16" fill="none" xmlns="http://www.w3.org/2000/svg">
<g id="info_outline">
<path id="Vector" d="M7.33398 11.334H8.66732V7.33398H7.33398V11.334ZM8.00065 1.33398C4.32065 1.33398 1.33398 4.32065 1.33398 8.00065C1.33398 11.6807 4.32065 14.6673 8.00065 14.6673C11.6807 14.6673 14.6673 11.6807 14.6673 8.00065C14.6673 4.32065 11.6807 1.33398 8.00065 1.33398ZM8.00065 13.334C5.06065 13.334 2.66732 10.9407 2.66732 8.00065C2.66732 5.06065 5.06065 2.66732 8.00065 2.66732C10.9407 2.66732 13.334 5.06065 13.334 8.00065C13.334 10.9407 10.9407 13.334 8.00065 13.334ZM7.33398 6.00065H8.66732V4.66732H7.33398V6.00065Z" fill-opacity="0.9"/>
<path id="Vector_2" d="M7.33398 4.66602H8.66732V5.99935H7.33398V4.66602ZM7.33398 7.33268H8.66732V11.3327H7.33398V7.33268Z" fill-opacity="0.9"/>
<path id="Vector_3" d="M8.00065 1.33398C4.32065 1.33398 1.33398 4.32065 1.33398 8.00065C1.33398 11.6807 4.32065 14.6673 8.00065 14.6673C11.6807 14.6673 14.6673 11.6807 14.6673 8.00065C14.6673 4.32065 11.6807 1.33398 8.00065 1.33398ZM8.00065 13.334C5.06065 13.334 2.66732 10.9407 2.66732 8.00065C2.66732 5.06065 5.06065 2.66732 8.00065 2.66732C10.9407 2.66732 13.334 5.06065 13.334 8.00065C13.334 10.9407 10.9407 13.334 8.00065 13.334Z"  fill-opacity="0.9"/>
</g>
</svg>
