<svg width="20" height="20" viewBox="0 0 20 20" fill="none" xmlns="http://www.w3.org/2000/svg">
<path d="M9.99999 5.83325C7.69881 5.83325 5.83333 7.69874 5.83333 9.99992C5.83333 11.1343 6.28668 12.1628 7.02209 12.9143C7.30854 13.2069 7.544 13.5552 7.62435 13.9568L8.06527 16.1603C8.22114 16.9393 8.90516 17.4999 9.69958 17.4999H10.3004C11.0948 17.4999 11.7788 16.9393 11.9347 16.1603L12.3757 13.9568C12.456 13.5552 12.6914 13.2069 12.9779 12.9143C13.7133 12.1628 14.1667 11.1343 14.1667 9.99992C14.1667 7.69874 12.3012 5.83325 9.99999 5.83325Z" />
<path d="M10 3.33333V2.5"  stroke-linecap="round" stroke-linejoin="round"/>
<path d="M15 5.00008L15.8333 4.16675"  stroke-linecap="round" stroke-linejoin="round"/>
<path d="M16.6667 10H17.5"  stroke-linecap="round" stroke-linejoin="round"/>
<path d="M3.33333 10H2.5" stroke-linecap="round" stroke-linejoin="round"/>
<path d="M4.16667 4.16675L5 5.00008"  stroke-linecap="round" stroke-linejoin="round"/>
<path d="M8.33333 14.1667H11.6667"  stroke-linecap="round" stroke-linejoin="round"/>
</svg>
