<svg id="svg8" viewBox="0 0 16.933333 16.933333" xmlns="http://www.w3.org/2000/svg"><g id="layer2"><path id="path820" d="m11.640641.52937703c-.351996-.00001-.3545.51802997.002.52966997 2.056044 0 3.810955 1.47516 4.167984 3.5000299.35703 2.02488-.787526 4.0110901-2.719577 4.71432-1.895622.6899701-4.0084879-.0562-5.0583199-1.76625l.4650731.1245301c.3448187.0979.4845418-.4241102.1369348-.5115801l-1.0841217-.29093c-.1687182-.0386-.291084.0672-.3239921.1875801l-.290922 1.0836298c-.09789.3448301.4241101.4845701.5115671.1369301l.125567-.4697201c1.174878 1.9360401 3.5609547 2.7792302 5.6980337 2.0013702 2.170057-.78985 3.461635-3.02652 3.060628-5.3008301-.408706-2.3600417-2.495251-3.95800184-4.690855-3.93874987zm.0543 2.05416997c-1.607288 0-2.9102508 1.3030001-2.9102518 2.9103401.000001 1.6073299 1.3029638 2.9103298 2.9102518 2.9103298 1.60729 0 2.910246-1.3029999 2.910246-2.9103298 0-1.60734-1.302956-2.9103401-2.910246-2.9103401zm.265586.9378999v.22943c.446143.1046501.740437.4467601.871219.8603901.105464.33718-.400427.4953-.505892.1581301-.105844-.3347702-.324281-.5081-.640743-.5203701-.360499.003-.638684.2760901-.638684.6201 0 .1347398.0324.2006399.137963.2521799.105554.0515.309781.0801.537918.1038601.228148.023799.482144.0431.71878.15865.236667.1155599.431476.3467801.431476.72758-.00001.5478899-.394728 1.01248-.912039 1.1254899v.2227101c.008.3606599-.53713.3606599-.52913 0v-.2278801c-.516662-.13043-.745309-.49985-.869152-.8510899-.127213-.34617.407756-.5162701.503812-.1601901.102923.3172301.317671.4975801.638683.5100301.359459-.003.640754-.27711.640754-.6170001 0-.1410999-.0355-.2016699-.141072-.25321-.105555-.0515-.308743-.0811-.53688-.1048999-.228147-.023799-.478743-.0416-.715679-.15657-.238127-.11557-.434576-.34489-.434576-.72966 0-.5486.394748-1.00897.914108-1.1249599v-.2227202c.0108-.17596.136672-.2640599.263017-.2640599s.253198.0881.266117.2640599zm-5.6294109 6.5331901c-.4103949 0-1.1410687.27671-1.7212449.55448-.1135219.0543-.1801339.0914-.27852.14055.1026961.1881.166389.40043.166389.62889v3.566609c.3369331-.0587.67872-.1126 1.059307-.12712.3270681 0 .9384281.46352 1.335759.74412.5662012.39968 1.1760872.84179 1.837509.84179.1990989 0 .3990879-.0655.6624531-.16381 1.4474067-.54112 4.5004137-2.26834 6.2788527-3.30876.450014-.24889.597856-.825169.343631-1.265519-.243927-.4225-.739088-.52539-1.220532-.36121l-3.322092 1.11748c.0238.216139-.0149.440219-.131253.641799-.290853.50379-.941536.71072-1.4453062.41986l-1.6054985-.926009c-.331891-.16943-.0458-.66145.2656049-.45681l1.6034278.925499c.257835.14887.574057.0646.722909-.19327.148862-.257829.0641-.573549-.193769-.722409-1.1806722-.68169-3.2766947-2.05616-4.3576269-2.05616zm-5.0066928.52916c-.44536697 0-.79525597.36013-.79525597.79528v3.702519c0 .4334.350127.79476.79008797.79476h1.8566761c.4830947 0 .7926718-.41046.7926718-.79528v-3.702519c0-.44462-.3596479-.79476-.7921559-.79476zm.52862 3.704589c.146117 0 .264568.11845.264568.26457 0 .14613-.118451.26457-.264568.26457-.146116 0-.264569-.11844-.264569-.26457 0-.14612.118453-.26457.264569-.26457z"/></g></svg>