<svg width="32" height="32" viewBox="0 0 32 32" fill="none" xmlns="http://www.w3.org/2000/svg">
<path d="M19.5968 3.50024H25.982C26.4531 3.50024 26.83 3.88437 26.83 4.34822V29.4614C26.83 29.9325 26.4459 30.3094 25.982 30.3094H5.84798C5.37688 30.3094 5 29.9253 5 29.4614V4.34822C5 3.87712 5.38413 3.50024 5.84798 3.50024H11.6679" stroke="#220047" stroke-miterlimit="10" stroke-linecap="round" stroke-linejoin="round"/>
<path d="M24.7934 15.2777V15.6111V16.5461V28.2728H7.03662V5.5441H24.7137" stroke="#220047" stroke-miterlimit="10" stroke-linecap="round" stroke-linejoin="round"/>
<path d="M21.6552 5.5441H24.7934V16.0532" stroke="#220047" stroke-miterlimit="10" stroke-linecap="round" stroke-linejoin="round"/>
<path d="M19.4736 3.20311H17.6834C17.4008 2.50009 16.7195 2 15.915 2C15.1105 2 14.4292 2.50009 14.1466 3.20311H12.3564C11.9215 3.20311 11.5664 3.55825 11.5664 3.99311V6.16741H20.2491V3.98586C20.2564 3.551 19.9085 3.20311 19.4736 3.20311ZM15.915 5.29769C15.183 5.29769 14.5887 4.70338 14.5887 3.97137C14.5887 3.23935 15.183 2.64504 15.915 2.64504C16.647 2.64504 17.2413 3.23935 17.2413 3.97137C17.2413 4.70338 16.647 5.29769 15.915 5.29769Z" stroke="#220047" stroke-miterlimit="10" stroke-linecap="round" stroke-linejoin="round"/>
<path d="M10.0155 25.3592V19.8437" stroke="#220047" stroke-miterlimit="10" stroke-linecap="round" stroke-linejoin="round"/>
<path d="M12.371 25.3592V22.0471" stroke="#220047" stroke-miterlimit="10" stroke-linecap="round" stroke-linejoin="round"/>
<path d="M14.7338 25.3592V22.9965" stroke="#220047" stroke-miterlimit="10" stroke-linecap="round" stroke-linejoin="round"/>
<path d="M17.0963 25.3592V16.6983" stroke="#220047" stroke-miterlimit="10" stroke-linecap="round" stroke-linejoin="round"/>
<path d="M19.4592 25.3593V17.9594" stroke="#220047" stroke-miterlimit="10" stroke-linecap="round" stroke-linejoin="round"/>
<path d="M21.8148 25.3592V20.9454" stroke="#220047" stroke-miterlimit="10" stroke-linecap="round" stroke-linejoin="round"/>
<path d="M11.8201 13.2629C13.2611 13.2629 14.4293 12.0947 14.4293 10.6537C14.4293 9.21272 13.2611 8.04456 11.8201 8.04456C10.3791 8.04456 9.21094 9.21272 9.21094 10.6537C9.21094 12.0947 10.3791 13.2629 11.8201 13.2629Z" stroke="white" stroke-miterlimit="10" stroke-linecap="round" stroke-linejoin="round"/>
<path d="M11.9869 12.0887H11.755C11.5448 12.0887 11.3708 11.9148 11.3708 11.7046V9.71149C11.3708 9.50131 11.5448 9.32736 11.755 9.32736H11.9869C12.1971 9.32736 12.371 9.50131 12.371 9.71149V11.7046C12.371 11.9148 12.1971 12.0887 11.9869 12.0887Z" fill="#220047"/>
<path d="M10.4866 10.8204V10.5884C10.4866 10.3783 10.6605 10.2043 10.8707 10.2043H12.8638C13.074 10.2043 13.2479 10.3783 13.2479 10.5884V10.8204C13.2479 11.0306 13.074 11.2045 12.8638 11.2045H10.8707C10.6605 11.2045 10.4866 11.0306 10.4866 10.8204Z" fill="#220047"/>
<path d="M16.4659 8.8418H22.1771" stroke="#220047" stroke-miterlimit="10" stroke-linecap="round" stroke-linejoin="round"/>
<path d="M16.4659 10.574H22.1771" stroke="#220047" stroke-miterlimit="10" stroke-linecap="round" stroke-linejoin="round"/>
<path d="M16.4659 12.3062H20.2855" stroke="#220047" stroke-miterlimit="10" stroke-linecap="round" stroke-linejoin="round"/>
</svg>
