<svg width="67" height="85" viewBox="0 0 67 85" fill="none" xmlns="http://www.w3.org/2000/svg">
<path d="M43.7962 5.39856H62.5169C63.8981 5.39856 65.0031 6.52477 65.0031 7.88473V81.5138C65.0031 82.895 63.8769 83.9999 62.5169 83.9999H3.48618C2.10497 83.9999 1 82.8737 1 81.5138V7.88473C1 6.50353 2.12622 5.39856 3.48618 5.39856H20.5494" stroke="#FF953C" stroke-width="2" stroke-miterlimit="10" stroke-linecap="round" stroke-linejoin="round"/>
<path d="M59.0321 39.9289V40.9064V43.6475V78.029H6.97119V11.391H58.7984" stroke="#FF953C" stroke-width="2" stroke-miterlimit="10" stroke-linecap="round" stroke-linejoin="round"/>
<path d="M49.8311 11.391H59.032V42.2026" stroke="#FF953C" stroke-width="2" stroke-miterlimit="10" stroke-linecap="round" stroke-linejoin="round"/>
<path d="M43.1831 4.52739H37.9345C37.1057 2.46621 35.1083 1 32.7496 1C30.3909 1 28.3935 2.46621 27.5648 4.52739H22.3162C21.0412 4.52739 20 5.56861 20 6.84357V13.2184H45.4567V6.82232C45.478 5.54736 44.458 4.52739 43.1831 4.52739ZM32.7496 10.6685C30.6034 10.6685 28.861 8.92601 28.861 6.77983C28.861 4.63364 30.6034 2.89119 32.7496 2.89119C34.8958 2.89119 36.6383 4.63364 36.6383 6.77983C36.6383 8.92601 34.8958 10.6685 32.7496 10.6685Z" fill="#FF953C" stroke="#5D2F09" stroke-width="2" stroke-miterlimit="10" stroke-linecap="round" stroke-linejoin="round"/>
<path d="M15.7041 69.4866V53.3158" stroke="#FF953C" stroke-width="2" stroke-miterlimit="10" stroke-linecap="round" stroke-linejoin="round"/>
<path d="M22.6104 69.4866V59.7756" stroke="#FF953C" stroke-width="2" stroke-miterlimit="10" stroke-linecap="round" stroke-linejoin="round"/>
<path d="M29.5376 69.4866V62.5593" stroke="#FF953C" stroke-width="2" stroke-miterlimit="10" stroke-linecap="round" stroke-linejoin="round"/>
<path d="M36.4648 69.4866V44.0936" stroke="#FF953C" stroke-width="2" stroke-miterlimit="10" stroke-linecap="round" stroke-linejoin="round"/>
<path d="M43.3926 69.4866V47.791" stroke="#FF953C" stroke-width="2" stroke-miterlimit="10" stroke-linecap="round" stroke-linejoin="round"/>
<path d="M50.2979 69.4866V56.5458" stroke="#FF953C" stroke-width="2" stroke-miterlimit="10" stroke-linecap="round" stroke-linejoin="round"/>
<path d="M20.996 34.0215C25.2208 34.0215 28.6457 30.5965 28.6457 26.3717C28.6457 22.1468 25.2208 18.7219 20.996 18.7219C16.7711 18.7219 13.3462 22.1468 13.3462 26.3717C13.3462 30.5965 16.7711 34.0215 20.996 34.0215Z" stroke="#FF953C" stroke-width="2" stroke-miterlimit="10" stroke-linecap="round" stroke-linejoin="round"/>
<path d="M21.4849 30.5788H20.8049C20.1887 30.5788 19.6787 30.0688 19.6787 29.4526V23.609C19.6787 22.9928 20.1887 22.4828 20.8049 22.4828H21.4849C22.1011 22.4828 22.6111 22.9928 22.6111 23.609V29.4526C22.6111 30.0688 22.1011 30.5788 21.4849 30.5788Z" fill="#EA4656"/>
<path d="M17.0864 26.8602V26.1802C17.0864 25.5639 17.5964 25.054 18.2126 25.054H24.0562C24.6724 25.054 25.1824 25.5639 25.1824 26.1802V26.8602C25.1824 27.4764 24.6724 27.9864 24.0562 27.9864H18.2126C17.5964 27.9864 17.0864 27.4764 17.0864 26.8602Z" fill="#EA4656"/>
<path d="M34.6167 21.0594H51.3612" stroke="#FF953C" stroke-width="2" stroke-miterlimit="10" stroke-linecap="round" stroke-linejoin="round"/>
<path d="M34.6167 26.1379H51.3612" stroke="#FF953C" stroke-width="2" stroke-miterlimit="10" stroke-linecap="round" stroke-linejoin="round"/>
<path d="M34.6167 31.2166H45.8151" stroke="#FF953C" stroke-width="2" stroke-miterlimit="10" stroke-linecap="round" stroke-linejoin="round"/>
</svg>
