<?xml version="1.0"?>
<svg xmlns="http://www.w3.org/2000/svg" xmlns:xlink="http://www.w3.org/1999/xlink" version="1.1" viewBox="0 0 480 480" style="enable-background:new 0 0 512 512" xml:space="preserve" class=""><g><path xmlns="http://www.w3.org/2000/svg" d="m272 368c0-17.671875-14.328125-32-32-32s-32 14.328125-32 32 14.328125 32 32 32 32-14.328125 32-32zm-32 16c-8.835938 0-16-7.164062-16-16s7.164062-16 16-16 16 7.164062 16 16-7.164062 16-16 16zm0 0" data-original="#000000" style="" class=""/><path xmlns="http://www.w3.org/2000/svg" d="m200 440v40h80v-40c0-22.089844-17.910156-40-40-40s-40 17.910156-40 40zm16 0c0-13.253906 10.746094-24 24-24s24 10.746094 24 24v24h-48zm0 0" data-original="#000000" style="" class=""/><path xmlns="http://www.w3.org/2000/svg" d="m376 336c0-17.671875-14.328125-32-32-32s-32 14.328125-32 32 14.328125 32 32 32 32-14.328125 32-32zm-32 16c-8.835938 0-16-7.164062-16-16s7.164062-16 16-16 16 7.164062 16 16-7.164062 16-16 16zm0 0" data-original="#000000" style="" class=""/><path xmlns="http://www.w3.org/2000/svg" d="m344 368c-22.082031.027344-39.972656 17.917969-40 40v40h80v-40c-.027344-22.082031-17.917969-39.972656-40-40zm24 64h-48v-24c0-13.253906 10.746094-24 24-24s24 10.746094 24 24zm0 0" data-original="#000000" style="" class=""/><path xmlns="http://www.w3.org/2000/svg" d="m472 296c0-17.671875-14.328125-32-32-32s-32 14.328125-32 32 14.328125 32 32 32 32-14.328125 32-32zm-32 16c-8.835938 0-16-7.164062-16-16s7.164062-16 16-16 16 7.164062 16 16-7.164062 16-16 16zm0 0" data-original="#000000" style="" class=""/><path xmlns="http://www.w3.org/2000/svg" d="m440 328c-22.082031.027344-39.972656 17.917969-40 40v40h80v-40c-.027344-22.082031-17.917969-39.972656-40-40zm24 64h-48v-24c0-13.253906 10.746094-24 24-24s24 10.746094 24 24zm0 0" data-original="#000000" style="" class=""/><path xmlns="http://www.w3.org/2000/svg" d="m168 336c0-17.671875-14.328125-32-32-32s-32 14.328125-32 32 14.328125 32 32 32 32-14.328125 32-32zm-32 16c-8.835938 0-16-7.164062-16-16s7.164062-16 16-16 16 7.164062 16 16-7.164062 16-16 16zm0 0" data-original="#000000" style="" class=""/><path xmlns="http://www.w3.org/2000/svg" d="m176 408c0-22.089844-17.910156-40-40-40s-40 17.910156-40 40v40h80zm-16 24h-48v-24c0-13.253906 10.746094-24 24-24s24 10.746094 24 24zm0 0" data-original="#000000" style="" class=""/><path xmlns="http://www.w3.org/2000/svg" d="m72 296c0-17.671875-14.328125-32-32-32s-32 14.328125-32 32 14.328125 32 32 32 32-14.328125 32-32zm-32 16c-8.835938 0-16-7.164062-16-16s7.164062-16 16-16 16 7.164062 16 16-7.164062 16-16 16zm0 0" data-original="#000000" style="" class=""/><path xmlns="http://www.w3.org/2000/svg" d="m80 368c0-22.089844-17.910156-40-40-40s-40 17.910156-40 40v40h80zm-16 24h-48v-24c0-13.253906 10.746094-24 24-24s24 10.746094 24 24zm0 0" data-original="#000000" style="" class=""/><path xmlns="http://www.w3.org/2000/svg" d="m312 0h-144v128h144zm-80 48v-32h16v52.6875l-8 8-8-8zm-48-32h32v16h-32zm112 96h-112v-64h32v24c0 2.121094.84375 4.15625 2.34375 5.65625l16 16c3.125 3.121094 8.1875 3.121094 11.3125 0l16-16c1.5-1.5 2.34375-3.535156 2.34375-5.65625v-24h32zm0-80h-32v-16h32zm0 0" data-original="#000000" style="" class=""/><path xmlns="http://www.w3.org/2000/svg" d="m32 192v33.046875l-11.558594-7.703125-8.882812 13.3125 24 16c2.691406 1.792969 6.191406 1.792969 8.882812 0l24-16-8.882812-13.3125-11.558594 7.703125v-25.046875h184v24h-96c-4.417969 0-8 3.582031-8 8v33.046875l-11.558594-7.703125-8.882812 13.3125 24 16c2.691406 1.792969 6.191406 1.792969 8.882812 0l24-16-8.882812-13.3125-11.558594 7.703125v-25.046875h88v57.046875l-11.558594-7.703125-8.882812 13.3125 24 16c2.691406 1.792969 6.191406 1.792969 8.882812 0l24-16-8.882812-13.3125-11.558594 7.703125v-57.046875h88v25.046875l-11.558594-7.703125-8.882812 13.3125 24 16c2.691406 1.792969 6.191406 1.792969 8.882812 0l24-16-8.882812-13.3125-11.558594 7.703125v-33.046875c0-4.417969-3.582031-8-8-8h-96v-24h184v25.046875l-11.558594-7.703125-8.882812 13.3125 24 16c2.691406 1.792969 6.191406 1.792969 8.882812 0l24-16-8.882812-13.3125-11.558594 7.703125v-33.046875c0-4.417969-3.582031-8-8-8h-192v-40h-16v40h-192c-4.417969 0-8 3.582031-8 8zm0 0" data-original="#000000" style="" class=""/><path xmlns="http://www.w3.org/2000/svg" d="m144 24-5.65625-5.65625c-18.558594 18.550781-42.449219 64.863281 0 107.3125l11.3125-11.3125c-41.648438-41.648438-1.703125-82.960938 0-84.703125zm0 0" data-original="#000000" style="" class=""/><path xmlns="http://www.w3.org/2000/svg" d="m106.34375 141.65625 11.3125-11.3125c-57.464844-57.464844-2.398438-114.304688 0-116.695312l-11.3125-11.304688c-.695312.695312-68.855469 70.457031 0 139.3125zm0 0" data-original="#000000" style="" class=""/><path xmlns="http://www.w3.org/2000/svg" d="m336 120 5.65625 5.65625c18.558594-18.550781 42.449219-64.863281 0-107.3125l-11.3125 11.3125c41.648438 41.648438 1.703125 82.960938 0 84.703125zm0 0" data-original="#000000" style="" class=""/><path xmlns="http://www.w3.org/2000/svg" d="m362.335938 130.351562 11.320312 11.304688c.695312-.695312 68.855469-70.457031 0-139.3125l-11.3125 11.3125c57.464844 57.464844 2.359375 114.34375-.007812 116.695312zm0 0" data-original="#000000" style="" class=""/><path xmlns="http://www.w3.org/2000/svg" d="m152 144h16v16h-16zm0 0" data-original="#000000" style="" class=""/><path xmlns="http://www.w3.org/2000/svg" d="m328 152h16v16h-16zm0 0" data-original="#000000" style="" class=""/><script/></g></svg>
