<svg width="32" height="32" viewBox="0 0 32 32" fill="none" xmlns="http://www.w3.org/2000/svg">
<g clip-path="url(#clip0_74_1117)">
<path d="M22.082 13.0139C22.082 12.6685 21.802 12.3885 21.4563 12.3885H15.9534C15.6079 12.3885 15.3279 12.6685 15.3279 13.0139C15.3279 13.3594 15.6079 13.6394 15.9534 13.6394H21.4563C21.8018 13.6394 22.082 13.3594 22.082 13.0139Z" fill="#220047"/>
<path d="M10.1665 6.13281H9.00706C8.29245 6.13281 7.7114 6.71314 7.7114 7.42627V8.02832H7.10837C6.39377 8.02832 5.81247 8.60962 5.81247 9.32374V10.4841C5.81247 11.1983 6.39377 11.7793 7.10837 11.7793H7.7114V12.3814C7.7114 13.0957 8.29245 13.6768 9.00706 13.6768H10.1665C10.8811 13.6768 11.4624 13.0957 11.4624 12.3814V11.7793H12.0654C12.7798 11.7793 13.3611 11.1983 13.3611 10.4841V9.32374C13.3611 8.60962 12.7798 8.02832 12.0654 8.02832H11.4624V7.42627C11.4624 6.71314 10.8811 6.13281 10.1665 6.13281ZM12.0652 9.27955C12.0886 9.27955 12.1098 9.30054 12.1098 9.32374V10.4841C12.1098 10.5071 12.0886 10.5281 12.0652 10.5281H10.8366C10.4912 10.5281 10.2112 10.8084 10.2112 11.1538V12.3814C10.2112 12.4046 10.1899 12.4255 10.1665 12.4255H9.00706C8.98386 12.4255 8.96262 12.4046 8.96262 12.3814V11.1538C8.96262 10.8084 8.68235 10.5281 8.33689 10.5281H7.10837C7.08493 10.5281 7.06369 10.5071 7.06369 10.4841V9.32374C7.06369 9.30054 7.08493 9.27955 7.10837 9.27955H8.33689C8.68235 9.27955 8.96262 8.99952 8.96262 8.65406V7.42627C8.96262 7.40454 8.98411 7.38404 9.00706 7.38404H10.1665C10.1894 7.38404 10.2112 7.40454 10.2112 7.42627V8.65406C10.2112 8.99952 10.4912 9.27955 10.8366 9.27955H12.0652Z" fill="#220047"/>
<path d="M22.355 9.28104C22.355 8.93558 22.075 8.65555 21.7295 8.65555H15.9534C15.6079 8.65555 15.3279 8.93558 15.3279 9.28104C15.3279 9.62674 15.6079 9.90677 15.9534 9.90677H21.7295C22.075 9.90677 22.355 9.62674 22.355 9.28104Z" fill="#220047"/>
<path d="M6.85837 17.3706H21.1816C21.5271 17.3706 21.8071 17.0904 21.8071 16.7449C21.8071 16.3994 21.5271 16.1194 21.1816 16.1194H6.85837C6.51291 16.1194 6.23264 16.3994 6.23264 16.7449C6.23264 17.0904 6.51291 17.3706 6.85837 17.3706Z" fill="#220047"/>
<path d="M29.6563 19.7017C28.1807 19.4764 26.981 19.1739 26.0657 18.7969V13.3577C26.0657 13.012 25.7857 12.732 25.44 12.732C25.0945 12.732 24.8145 13.012 24.8145 13.3577V18.1077C24.6748 18.001 24.5505 17.8909 24.4424 17.7764C24.3242 17.6516 24.1599 17.5808 23.988 17.5808C23.8162 17.5808 23.6516 17.6516 23.5337 17.7764C22.7048 18.6526 20.95 19.3003 18.3181 19.7017C18.196 19.7203 18.0872 19.7737 18 19.8504H6.85838C6.51292 19.8504 6.23264 20.1304 6.23264 20.4759C6.23264 20.8213 6.51292 21.1014 6.85838 21.1014H17.7866V23.5813H6.43821C6.09275 23.5813 5.81248 23.8614 5.81248 24.2068C5.81248 24.5523 6.09275 24.8323 6.43821 24.8323H17.8367C18.043 26.3995 18.7717 27.8602 20.011 29.192H4.90989C3.92624 29.192 3.12619 28.3934 3.12619 27.4117V4.35084C3.12619 3.36915 3.92624 2.57056 4.90989 2.57056H7.89573V2.8025C7.89573 3.43555 8.41185 3.95069 9.04613 3.95069H18.8945C19.5288 3.95069 20.0449 3.43555 20.0449 2.8025V2.57056H23.0308C24.0144 2.57056 24.8147 3.36915 24.8147 4.35084V8.36696C24.8147 8.71242 25.0947 8.99269 25.4402 8.99269C25.7857 8.99269 26.0657 8.71242 26.0657 8.36696V4.35084C26.0657 2.6792 24.7044 1.31934 23.0308 1.31934H20.0449V1.0857C20.0449 0.452638 19.5288 -0.0625 18.8945 -0.0625H9.04613C8.41185 -0.0625 7.89573 0.452638 7.89573 1.0857V1.31934H4.90989C3.23654 1.31934 1.87497 2.6792 1.87497 4.35084V27.4117C1.87497 29.0833 3.2363 30.4432 4.90989 30.4432H21.3552C22.4815 31.4095 23.1768 31.9366 23.9839 31.9376H23.9863C24.8943 31.9376 25.659 31.2759 27.0462 30.0762C29.0064 28.3792 30.063 26.4441 30.1865 24.3248C30.1873 24.3128 30.1878 24.3006 30.1878 24.2884V20.3201C30.1875 20.011 29.9619 19.7483 29.6563 19.7017ZM9.14696 1.18872H18.7937V2.69947H9.14696V1.18872ZM28.9365 24.2696C28.8281 26.0323 27.9165 27.6675 26.2273 29.1299C25.1441 30.0672 24.4282 30.6863 23.9861 30.6863C23.9861 30.6863 23.9859 30.6863 23.9856 30.6863C23.5466 30.6859 22.8699 30.1002 21.7488 29.1302C20.0596 27.6678 19.1477 26.0328 19.0378 24.2696V20.8523C21.3254 20.4583 22.9561 19.8653 23.988 19.0501C24.3098 19.304 24.6897 19.5367 25.1297 19.7483C25.158 19.7647 25.1878 19.7784 25.2185 19.7901C26.177 20.2373 27.4102 20.5892 28.9365 20.8523V24.2696Z" fill="#220047"/>
<path d="M23.2578 25.3799L22.1575 24.3477C21.9055 24.1114 21.5095 24.1238 21.2732 24.376C21.0366 24.628 21.0493 25.0237 21.3013 25.2603L22.865 26.7271C22.9812 26.8362 23.1343 26.8965 23.293 26.8965C23.3013 26.8965 23.3096 26.8963 23.3179 26.896C23.4851 26.8894 23.6431 26.816 23.7559 26.6919L26.9275 23.2054C27.1602 22.9497 27.1414 22.554 26.8858 22.3216C26.6302 22.0889 26.2344 22.1077 26.002 22.3633L23.2578 25.3799Z" fill="#220047"/>
<path d="M25.44 10.2251C25.0945 10.2251 24.8145 10.5054 24.8145 10.8509V10.8614C24.8145 11.2068 25.0945 11.4868 25.44 11.4868C25.7857 11.4868 26.0657 11.2068 26.0657 10.8614V10.8509C26.0657 10.5054 25.7857 10.2251 25.44 10.2251Z" fill="#220047"/>
</g>
<defs>
<clipPath id="clip0_74_1117">
<rect width="32" height="32" fill="white"/>
</clipPath>
</defs>
</svg>
