<svg id="Capa_1" viewBox="0 0 512 512" xmlns="http://www.w3.org/2000/svg"><g><g><path d="m357.029 2.591h-347.024c-5.522 0-10 4.478-10 10v458.614c0 .064-.005.128-.005.192v28.012c0 5.522 4.478 10 10 10h191.402c5.522 0 10-4.478 10-10v-21.402h145.627c5.522 0 10-4.478 10-10v-455.416c0-5.523-4.477-10-10-10zm-165.627 486.818h-171.402v-17.91c.048-6.488 5.126-10.977 11.33-11.368h148.807c6.11 0 11.266 5.139 11.266 11.267v18.011zm155.627-31.402h-138.639c-5.1-10.78-16.339-17.878-28.257-17.878h-39.096v-18.001c0-9.141 2.865-17.874 8.067-24.593 7.326-9.462 11.198-20.801 11.198-32.791 0-14.71-5.839-28.429-16.441-38.629-10.598-10.197-24.536-15.505-39.273-14.93-.001 0-.001 0-.001 0-27.483 1.063-50.068 23.406-51.419 50.869-.626 12.756 3.303 25.324 11.063 35.391 5.245 6.804 8.134 15.643 8.134 24.888v17.796h-41.095c-3.814 0-7.701.71-11.265 2.064v-419.602h327.024zm-266.958-72.773c-4.86-6.305-7.32-14.188-6.927-22.198.845-17.203 14.996-31.2 32.215-31.866 9.251-.342 17.992 2.967 24.636 9.357 6.646 6.396 10.308 14.996 10.308 24.217 0 7.517-2.425 14.622-7.013 20.547-7.901 10.205-12.253 23.287-12.253 36.837v17.998h-28.672v-17.793c0-13.64-4.366-26.814-12.294-37.099z"/><path d="m270.374 248.026c-26.476 0-48.016 21.54-48.016 48.016 0 .077.005.154.006.231v105.79c0 8.036 9.495 12.838 15.967 8.024l32.047-23.828 32.047 23.828c6.475 4.814 15.967.015 15.967-8.024v-106.026c0-.028-.004-.055-.004-.083-.048-26.435-21.568-47.928-48.014-47.928zm0 20c15.448 0 28.016 12.567 28.016 28.016 0 3.379-.601 6.62-1.702 9.622-3.934 10.719-14.243 18.388-26.309 18.388-15.447 0-28.014-12.567-28.014-28.015 0-.026-.004-.05-.004-.076.043-15.411 12.592-27.935 28.013-27.935zm28.018 114.14-22.047-16.393c-3.502-2.604-8.431-2.604-11.934 0l-22.047 16.393v-47.154c12.457 8.977 29.013 11.368 43.541 6.454 4.455-1.507 8.671-3.707 12.486-6.454v47.154z"/><path d="m502 168.417h-33.859v-5.321c0-19.786-16.097-35.883-35.882-35.883h-2.35c-19.786 0-35.883 16.097-35.883 35.883v15.321 143.581c0 47.374 9.114 93.583 27.058 137.391v8.623c0 5.522 4.478 10 10 10s10-4.478 10-10v-8.623c17.942-43.809 27.057-90.017 27.057-137.391v-133.581h23.859v94.804c0 5.522 4.478 10 10 10s10-4.478 10-10v-104.804c0-5.522-4.478-10-10-10zm-87.974-5.321c0-8.758 7.125-15.883 15.883-15.883h2.35c8.757 0 15.882 7.125 15.882 15.883v5.321h-34.114v-5.321zm34.115 158.902c0 36.543-5.729 72.357-17.057 106.8-11.329-34.442-17.058-70.256-17.058-106.8v-133.581h34.114v133.581z"/><path d="m58.996 100.658h97.696c5.522 0 10-4.478 10-10s-4.478-10-10-10h-97.696c-5.522 0-10 4.478-10 10s4.478 10 10 10z"/><path d="m207.788 100.658h97.696c5.522 0 10-4.478 10-10s-4.478-10-10-10h-97.696c-5.522 0-10 4.478-10 10s4.478 10 10 10z"/><path d="m58.996 160.232h243.57c5.522 0 10-4.478 10-10s-4.478-10-10-10h-243.57c-5.522 0-10 4.478-10 10s4.478 10 10 10z"/><path d="m58.996 213.888h198.001c5.522 0 10-4.478 10-10s-4.478-10-10-10h-198.001c-5.522 0-10 4.478-10 10s4.478 10 10 10z"/><path d="m58.996 271.755h75.629c5.522 0 10-4.478 10-10s-4.478-10-10-10h-75.629c-5.522 0-10 4.478-10 10s4.478 10 10 10z"/><path d="m307.439 213.76c4.08-.827 7.28-4.165 7.919-8.277.688-4.421-1.748-8.836-5.826-10.654-8.171-3.642-16.761 4.975-13.193 13.154 1.854 4.248 6.559 6.685 11.1 5.777z"/></g></g></svg>