<svg viewBox="0 0 64 64" xmlns="http://www.w3.org/2000/svg"><g id="market"><path d="m19 9a2.979 2.979 0 0 0 -2.86 2.15l-8.18 1.64a.985.985 0 0 0 -.96-.79h-2a3.009 3.009 0 0 0 -3 3v4a3.01 3.01 0 0 0 2 2.82v4.18a1 1 0 0 0 1 1h2a3.009 3.009 0 0 0 3-3v-2.38l6.14 1.23a2.979 2.979 0 0 0 2.86 2.15 3.009 3.009 0 0 0 3-3v-10a3.009 3.009 0 0 0 -3-3zm-15 10v-4a1 1 0 0 1 1-1h1v6h-1a1 1 0 0 1 -1-1zm4 5a1 1 0 0 1 -1 1h-1v-3h1a.985.985 0 0 0 .96-.79l.04.01zm8-3.22-8-1.6v-4.36l8-1.6zm4 1.22a1 1 0 0 1 -2 0v-10a1 1 0 0 1 2 0z"/><path d="m24 16h6v2h-6z"/><path d="m23.394 11h7.211v2h-7.211z" transform="matrix(.832 -.555 .555 .832 -2.122 16.992)"/><path d="m26 18.394h2v7.211h-2z" transform="matrix(.555 -.832 .832 .555 -6.282 32.262)"/><path d="m61 38h-28a1 1 0 0 0 -1 1v22a1 1 0 0 0 1 1h28a1 1 0 0 0 1-1v-22a1 1 0 0 0 -1-1zm-1 22h-26v-20h26z"/><path d="m56 46h2v12h-2z"/><path d="m51 48h2v10h-2z"/><path d="m46 50h2v8h-2z"/><path d="m41 52h2v6h-2z"/><path d="m40.414 50h2.586a1 1 0 0 0 .832-.445l1.703-2.555h6.465a1 1 0 0 0 .707-.293l2.707-2.707h2.586v-2h-3a1 1 0 0 0 -.707.293l-2.707 2.707h-6.586a1 1 0 0 0 -.832.445l-1.703 2.555h-2.465a1 1 0 0 0 -.707.293l-3 3 1.414 1.414z"/><path d="m36 54h2v4h-2z"/><path d="m17 39h2v2h-2z"/><path d="m13 39h2v2h-2z"/><path d="m29.41 54.09-2.41-1.07v-16.02a9.014 9.014 0 0 0 -9-9h-4a9.006 9.006 0 0 0 -9 9v16.02l-2.41 1.07a.987.987 0 0 0 -.59.91v6a1 1 0 0 0 1 1h26a1 1 0 0 0 1-1v-6a.987.987 0 0 0 -.59-.91zm-22.41-17.09a6.828 6.828 0 0 1 .74-3.12 6.959 6.959 0 0 1 6.26-3.88h4a7.008 7.008 0 0 1 7 7v15.13l-4.59-2.04a.949.949 0 0 0 -.72-.03l-.32-1.93a7 7 0 0 0 3.63-6.13v-6a1 1 0 0 0 -.45-.83l-3-2a.991.991 0 0 0 -.77-.15l-9 2a1.015 1.015 0 0 0 -.78.98v6a7 7 0 0 0 3.63 6.13l-.32 1.93a.949.949 0 0 0 -.72.03l-4.59 2.04zm9 10a5 5 0 0 1 -5-5v-5.2l7.8-1.73 2.2 1.47v5.46a5 5 0 0 1 -5 5zm1.93 4.66-1.93 1.93-1.93-1.93.47-2.82a6.741 6.741 0 0 0 2.92 0zm10.07 8.34h-24v-4.35l7.78-3.46 3.51 3.52a1.008 1.008 0 0 0 1.42 0l3.51-3.52 7.78 3.46z"/><path d="m47 2a15 15 0 1 0 15 15 15.018 15.018 0 0 0 -15-15zm12.95 14h-2a11.089 11.089 0 0 0 -.97-3.6l1.73-1.01a13.022 13.022 0 0 1 1.24 4.61zm-5.61-9.72a13.244 13.244 0 0 1 3.38 3.38l-1.74 1a11.406 11.406 0 0 0 -2.64-2.64zm-6.34-2.23a13.022 13.022 0 0 1 4.61 1.24l-1.01 1.73a11.089 11.089 0 0 0 -3.6-.97zm-2 0v2a11.089 11.089 0 0 0 -3.6.97l-1.01-1.73a13.022 13.022 0 0 1 4.61-1.24zm-6.34 2.23 1 1.74a11.406 11.406 0 0 0 -2.64 2.64l-1.74-1a13.244 13.244 0 0 1 3.38-3.38zm-4.37 5.11 1.73 1.01a11.089 11.089 0 0 0 -.97 3.6h-2a13.022 13.022 0 0 1 1.24-4.61zm-1.24 6.61h2a11.089 11.089 0 0 0 .97 3.6l-1.73 1.01a13.022 13.022 0 0 1 -1.24-4.61zm5.61 9.72a13.244 13.244 0 0 1 -3.38-3.38l1.74-1a11.406 11.406 0 0 0 2.64 2.64zm6.34 2.23a13.022 13.022 0 0 1 -4.61-1.24l1.01-1.73a11.089 11.089 0 0 0 3.6.97zm-8-12.95a9 9 0 1 1 9 9 9.014 9.014 0 0 1 -9-9zm10 12.95v-2a11.089 11.089 0 0 0 3.6-.97l1.01 1.73a13.022 13.022 0 0 1 -4.61 1.24zm6.34-2.23-1-1.74a11.406 11.406 0 0 0 2.64-2.64l1.74 1a13.244 13.244 0 0 1 -3.38 3.38zm4.37-5.11-1.73-1.01a11.089 11.089 0 0 0 .97-3.6h2a13.022 13.022 0 0 1 -1.24 4.61z"/><path d="m48 10h-2v2a2 2 0 0 0 -2 2v2a2 2 0 0 0 2 2h2v2h-4v2h2v2h2v-2a2 2 0 0 0 2-2v-2a2 2 0 0 0 -2-2h-2v-2h4v-2h-2z"/></g></svg>