<svg width="32" height="32" viewBox="0 0 32 32" fill="none" xmlns="http://www.w3.org/2000/svg">
<path d="M16.664 1.38401C16.816 1.42401 16.968 1.45601 17.12 1.50401C18.016 1.78401 18.664 2.34401 19.048 3.20801C19.192 3.52801 19.128 3.76801 18.88 3.88001C18.632 3.98401 18.432 3.88001 18.28 3.54401C17.824 2.56001 16.816 2.04801 15.776 2.28001C14.784 2.50401 14.08 3.41601 14.096 4.47201C14.112 5.45601 14.816 6.31201 15.792 6.53601C16.776 6.76001 17.776 6.28801 18.232 5.39201C18.264 5.32801 18.296 5.25601 18.328 5.19201C18.448 4.95201 18.656 4.85601 18.872 4.94401C19.096 5.04001 19.192 5.26401 19.088 5.52801C18.72 6.43201 18.064 7.02401 17.144 7.31201C16.704 7.45601 16.704 7.44801 16.704 7.92001C16.704 8.62401 16.704 9.32801 16.704 10.072C16.84 10.072 16.952 10.072 17.056 10.072C18.472 10.072 19.888 10.072 21.304 10.072C21.784 10.072 21.912 10.2 21.912 10.688C21.912 11.08 21.912 11.472 21.912 11.864C21.912 11.88 21.928 11.896 21.952 11.944C22.352 11.712 22.76 11.488 23.144 11.24C23.192 11.208 23.184 11.04 23.152 10.952C22.696 9.40001 23.504 7.76801 25 7.23201C26.608 6.64801 28.44 7.56001 28.92 9.16801C29.416 10.832 28.416 12.608 26.752 12.984C25.64 13.232 24.672 12.936 23.856 12.144C23.792 12.08 23.736 12.008 23.664 11.92C23.096 12.248 22.544 12.56 22.008 12.88C21.944 12.92 21.912 13.048 21.912 13.136C21.904 13.656 21.912 14.176 21.912 14.704C21.912 15.008 21.768 15.176 21.528 15.2C21.256 15.224 21.08 15.04 21.08 14.72C21.08 13.688 21.08 12.648 21.08 11.616C21.08 11.392 21.08 11.168 21.08 10.928H18.024C18.024 11.024 18.008 11.12 18.008 11.216C18.008 12.064 18.024 12.912 18 13.76C18 13.952 17.904 14.192 17.768 14.312C17.592 14.464 17.368 14.328 17.184 14.2C16.968 14.048 16.736 13.928 16.536 13.76C16.344 13.608 16.2 13.632 16.024 13.768C15.784 13.944 15.544 14.12 15.28 14.256C15.136 14.328 14.92 14.368 14.792 14.304C14.672 14.24 14.568 14.024 14.568 13.872C14.544 13 14.56 12.12 14.56 11.248C14.56 11.144 14.56 11.048 14.56 10.928H11.512V20.496C11.848 20.496 12.192 20.496 12.528 20.496C12.664 20.496 12.808 20.496 12.944 20.496C13.224 20.512 13.376 20.656 13.384 20.896C13.384 21.144 13.224 21.32 12.944 21.328C12.64 21.336 12.328 21.328 12.024 21.328C11.752 21.328 11.48 21.328 11.216 21.328C10.792 21.328 10.656 21.184 10.648 20.752C10.648 20.336 10.648 19.912 10.648 19.432C10.2 19.688 9.79196 19.92 9.39996 20.168C9.35996 20.192 9.37596 20.352 9.39996 20.432C9.71996 21.648 9.44796 22.704 8.53596 23.568C7.63196 24.424 6.23196 24.568 5.07996 23.96C3.99196 23.384 3.34396 22.16 3.51196 20.992C3.70396 19.648 4.63196 18.616 5.87996 18.376C6.98396 18.16 7.94396 18.464 8.72796 19.28C8.86396 19.424 8.94396 19.456 9.11996 19.344C9.55196 19.072 9.99996 18.824 10.448 18.576C10.592 18.496 10.656 18.408 10.656 18.232C10.656 16.536 10.656 14.84 10.656 13.144C10.656 12.968 10.6 12.88 10.456 12.792C9.93596 12.504 9.42396 12.2 8.90396 11.904C8.35196 12.552 7.67196 12.92 6.84796 13.016C4.90396 13.256 3.39196 11.672 3.51996 9.82401C3.62396 8.22401 4.85596 7.08001 6.46396 7.02401C7.96796 6.96801 9.27196 8.05601 9.48796 9.60001C9.55196 10.04 9.44796 10.504 9.38396 10.952C9.35996 11.112 9.35196 11.2 9.50396 11.288C9.87196 11.488 10.232 11.704 10.648 11.944C10.648 11.576 10.648 11.264 10.648 10.944C10.648 10.072 10.672 10.048 11.536 10.048C12.848 10.048 14.16 10.048 15.48 10.048H15.84C15.84 9.94401 15.856 9.85601 15.856 9.76801C15.856 9.07201 15.856 8.36801 15.856 7.67201C15.856 7.48001 15.824 7.38401 15.6 7.33601C14.176 7.01601 13.216 5.75201 13.256 4.27201C13.296 2.87201 14.336 1.68001 15.76 1.41601C15.8 1.40801 15.84 1.38401 15.888 1.36801C16.152 1.36801 16.408 1.36801 16.672 1.36801L16.664 1.38401ZM8.67996 10.04C8.67996 8.84001 7.71196 7.87201 6.51996 7.86401C5.30396 7.86401 4.31996 8.84001 4.31996 10.04C4.31996 11.256 5.29596 12.232 6.50396 12.232C7.71996 12.232 8.68796 11.256 8.67996 10.04ZM8.67996 21.336C8.67996 20.144 7.69596 19.16 6.48796 19.16C5.29596 19.16 4.31996 20.144 4.31996 21.36C4.31996 22.544 5.30396 23.52 6.49596 23.52C7.70396 23.52 8.67196 22.552 8.67996 21.336ZM23.872 10.048C23.872 11.24 24.872 12.224 26.096 12.224C27.264 12.224 28.216 11.248 28.232 10.056C28.24 8.85601 27.264 7.88001 26.048 7.87201C24.84 7.87201 23.872 8.84001 23.872 10.056V10.048ZM15.416 10.912V13.152C15.616 13.016 15.792 12.912 15.96 12.792C16.176 12.632 16.384 12.632 16.6 12.792C16.768 12.912 16.952 13.024 17.144 13.144V10.896C16.64 10.896 16.16 10.896 15.672 10.896C15.592 10.896 15.504 10.904 15.416 10.912Z" fill="#220047"/>
<path d="M21.064 20.488C21.064 20.192 21.064 19.928 21.064 19.672C21.064 18.672 21.064 17.68 21.064 16.68C21.064 16.352 21.256 16.152 21.536 16.2C21.808 16.24 21.904 16.432 21.904 16.68C21.904 17.2 21.904 17.72 21.904 18.248C21.904 18.408 21.952 18.496 22.096 18.576C22.536 18.816 22.976 19.064 23.4 19.328C23.592 19.448 23.696 19.448 23.864 19.272C24.72 18.352 26.04 18.072 27.192 18.544C28.344 19.016 29.088 20.136 29.072 21.392C29.056 23.032 27.704 24.328 26.008 24.344C24.4 24.352 23.048 23.032 23.04 21.408C23.04 21.072 23.136 20.728 23.176 20.392C23.184 20.312 23.176 20.176 23.112 20.144C22.736 19.912 22.344 19.696 21.904 19.44C21.904 19.88 21.904 20.272 21.904 20.664C21.904 21.224 21.792 21.328 21.232 21.328C19.848 21.328 18.456 21.328 17.072 21.328C16.96 21.328 16.848 21.328 16.728 21.328C16.72 21.416 16.704 21.488 16.704 21.56C16.704 22.288 16.704 23.016 16.704 23.736C16.704 23.912 16.744 23.992 16.936 24.032C18.456 24.368 19.496 25.832 19.288 27.328C19.064 28.96 17.696 30.096 16.072 30C14.616 29.912 13.384 28.704 13.264 27.248C13.144 25.736 14.128 24.368 15.592 24.04C15.8 23.992 15.864 23.92 15.856 23.712C15.848 22.928 15.856 22.152 15.856 21.328C15.56 21.328 15.288 21.328 15.008 21.328C14.896 21.328 14.784 21.328 14.68 21.296C14.472 21.24 14.368 21.08 14.392 20.872C14.408 20.672 14.528 20.528 14.744 20.496C14.848 20.48 14.952 20.488 15.048 20.488C16.928 20.488 18.808 20.488 20.688 20.488H21.064ZM16.272 24.8C15.064 24.8 14.088 25.768 14.088 26.976C14.088 28.184 15.064 29.168 16.264 29.168C17.464 29.168 18.448 28.192 18.448 26.992C18.448 25.784 17.48 24.808 16.272 24.808V24.8ZM26.032 23.52C27.24 23.52 28.224 22.536 28.216 21.344C28.216 20.128 27.24 19.16 26.032 19.16C24.824 19.16 23.872 20.112 23.872 21.32C23.872 22.544 24.824 23.52 26.032 23.52Z" fill="#220047"/>
<path d="M17.5599 4.40802C17.5599 5.12002 16.9759 5.69602 16.2639 5.68802C15.5599 5.68802 14.9919 5.11202 14.9919 4.40802C14.9919 3.69602 15.5759 3.11202 16.2879 3.12002C16.9919 3.12002 17.5599 3.70402 17.5599 4.40802ZM16.2719 4.84802C16.5199 4.84802 16.7119 4.65602 16.7199 4.40802C16.7199 4.16802 16.5279 3.96002 16.2879 3.95202C16.0399 3.94402 15.8239 4.15202 15.8239 4.40802C15.8239 4.64802 16.0239 4.84802 16.2719 4.84802Z" fill="#220047"/>
<path d="M13.864 16.984C13.528 16.984 13.192 16.984 12.856 16.984C12.568 16.984 12.392 16.824 12.384 16.576C12.376 16.328 12.56 16.144 12.864 16.144C13.552 16.144 14.24 16.144 14.928 16.144C15.208 16.144 15.384 16.32 15.384 16.56C15.384 16.808 15.208 16.968 14.928 16.976C14.576 16.976 14.224 16.976 13.864 16.976V16.984Z" fill="#220047"/>
<path d="M13.896 18.72C13.552 18.72 13.208 18.72 12.864 18.72C12.568 18.72 12.376 18.544 12.384 18.296C12.384 18.056 12.576 17.888 12.856 17.888C13.544 17.888 14.232 17.888 14.92 17.888C15.208 17.888 15.384 18.056 15.384 18.304C15.384 18.56 15.208 18.72 14.904 18.728C14.568 18.728 14.232 18.728 13.896 18.728V18.72Z" fill="#220047"/>
<path d="M7.77596 10.072C7.77596 10.776 7.19196 11.336 6.47996 11.336C5.80796 11.336 5.19996 10.728 5.20796 10.08C5.21596 9.37599 5.79996 8.76799 6.46396 8.77599C7.21596 8.77599 7.78396 9.34399 7.77596 10.08V10.072ZM6.04796 10.024C6.03196 10.256 6.22396 10.472 6.46396 10.488C6.70396 10.504 6.91996 10.32 6.93596 10.08C6.95196 9.82399 6.75996 9.60799 6.51196 9.59999C6.27196 9.59199 6.06396 9.78399 6.04796 10.024Z" fill="#220047"/>
<path d="M6.51194 20.048C7.24794 20.048 7.77594 20.608 7.75994 21.368C7.74394 22.08 7.19994 22.624 6.49594 22.624C5.77594 22.624 5.22394 22.056 5.21594 21.312C5.21594 20.624 5.80794 20.04 6.50394 20.048H6.51194ZM6.48794 21.784C6.73594 21.784 6.92794 21.592 6.93594 21.352C6.93594 21.096 6.74394 20.888 6.48794 20.896C6.24794 20.896 6.04794 21.104 6.04794 21.336C6.04794 21.568 6.26394 21.784 6.48794 21.784Z" fill="#220047"/>
<path d="M24.7679 10.056C24.7679 9.34399 25.3199 8.776 26.0319 8.768C26.7519 8.76 27.3439 9.344 27.3439 10.08C27.3439 10.752 26.7199 11.368 26.0239 11.368C25.3519 11.368 24.7759 10.768 24.7679 10.056ZM26.0639 9.6C25.8239 9.6 25.6159 9.784 25.6079 10.032C25.5999 10.272 25.7839 10.488 26.0239 10.496C26.2799 10.504 26.4959 10.304 26.4959 10.056C26.4959 9.82399 26.2879 9.608 26.0559 9.6H26.0639Z" fill="#220047"/>
<path d="M17.56 26.992C17.56 27.696 16.976 28.264 16.28 28.264C15.568 28.264 14.984 27.68 14.992 26.96C14.992 26.248 15.584 25.68 16.304 25.688C17.008 25.696 17.568 26.28 17.56 26.984V26.992ZM16.72 26.992C16.72 26.752 16.536 26.544 16.296 26.536C16.048 26.528 15.848 26.712 15.832 26.952C15.816 27.2 16.024 27.424 16.272 27.424C16.512 27.424 16.72 27.232 16.72 26.992Z" fill="#220047"/>
<path d="M24.76 21.336C24.76 20.656 25.352 20.056 26.016 20.064C26.72 20.064 27.328 20.648 27.328 21.312C27.328 22.056 26.752 22.632 26.024 22.624C25.32 22.624 24.76 22.04 24.76 21.336ZM26.488 21.344C26.488 21.104 26.288 20.904 26.048 20.896C25.8 20.896 25.6 21.08 25.592 21.328C25.592 21.584 25.784 21.792 26.04 21.792C26.272 21.792 26.48 21.584 26.48 21.344H26.488Z" fill="#220047"/>
</svg>
