<svg width="32" height="32" viewBox="0 0 32 32" fill="none" xmlns="http://www.w3.org/2000/svg">
<path d="M11.3745 8.67234C11.1624 8.5239 10.87 8.57565 10.7217 8.7879L9.23211 10.9185L8.26655 10.0603C8.07305 9.88821 7.77673 9.90571 7.6048 10.0992C7.4328 10.2927 7.45023 10.589 7.64373 10.761L8.6713 11.6743C9.05911 12.0191 9.65817 11.9452 9.95286 11.5238L11.4901 9.32515C11.6384 9.11296 11.5867 8.82065 11.3745 8.67234Z" fill="#220047"/>
<path d="M11.3745 15.5197C11.1624 15.3713 10.87 15.423 10.7217 15.6353L9.23211 17.7659L8.26661 16.9077C8.07311 16.7355 7.7768 16.7531 7.60486 16.9466C7.43286 17.1401 7.4503 17.4363 7.6438 17.6083L8.67142 18.5218C9.05942 18.8666 9.6583 18.7924 9.95286 18.3712L11.4901 16.1725C11.6384 15.9603 11.5867 15.668 11.3745 15.5197Z" fill="#220047"/>
<path d="M11.3745 22.2753C11.1624 22.127 10.87 22.1787 10.7217 22.3909L9.23211 24.5215L8.26655 23.6633C8.07305 23.4912 7.77673 23.5087 7.6048 23.7022C7.4328 23.8957 7.45023 24.192 7.64373 24.364L8.6713 25.2773C9.05911 25.6221 9.65817 25.5482 9.95286 25.1268L11.4901 22.9282C11.6384 22.716 11.5867 22.4237 11.3745 22.2753Z" fill="#220047"/>
<path d="M20.449 8.83398H13.8245C13.5656 8.83398 13.3557 9.0438 13.3557 9.30273C13.3557 9.56167 13.5656 9.77148 13.8245 9.77148H20.4489C20.7078 9.77148 20.9177 9.56167 20.9177 9.30273C20.9177 9.0438 20.7078 8.83398 20.449 8.83398Z" fill="#220047"/>
<path d="M20.449 10.9172H13.8245C13.5656 10.9172 13.3557 11.127 13.3557 11.3859C13.3557 11.6449 13.5656 11.8547 13.8245 11.8547H20.4489C20.7078 11.8547 20.9177 11.6449 20.9177 11.3859C20.9177 11.127 20.7078 10.9172 20.449 10.9172Z" fill="#220047"/>
<path d="M20.9177 16C20.9177 15.7411 20.7079 15.5312 20.449 15.5312H13.8245C13.5656 15.5312 13.3557 15.7411 13.3557 16C13.3557 16.2589 13.5656 16.4688 13.8245 16.4688H20.4489C20.7078 16.4688 20.9177 16.2589 20.9177 16Z" fill="#220047"/>
<path d="M13.8245 17.6144C13.5656 17.6144 13.3557 17.8243 13.3557 18.0832C13.3557 18.3421 13.5656 18.5519 13.8245 18.5519H17.1367C17.3956 18.5519 17.6054 18.3421 17.6054 18.0832C17.6054 17.8243 17.3956 17.6144 17.1367 17.6144H13.8245Z" fill="#220047"/>
<path d="M29.0029 9.62325C28.1779 8.96213 26.9755 9.09481 26.3146 9.9195C25.8411 10.5102 14.8269 24.2526 13.9652 25.3276C13.9058 25.4017 13.9959 25.2504 12.3559 28.5353H5.66187C5.54537 28.5353 5.45062 28.4406 5.45062 28.3241V4.65994H8.54518V4.97606C8.54518 5.62556 9.07362 6.15394 9.72306 6.15394H18.6809C19.3305 6.15394 19.8589 5.62556 19.8589 4.97606V4.65994H22.9534V11.8223C22.9534 12.0813 23.1632 12.2911 23.4222 12.2911C23.6811 12.2911 23.8909 12.0813 23.8909 11.8223V4.65994H24.6229C24.9328 4.65994 25.185 4.91213 25.185 5.22206V9.03125C25.185 9.29019 25.3948 9.5 25.6537 9.5C25.9127 9.5 26.1225 9.29019 26.1225 9.03125V5.22206C26.1225 4.39519 25.4497 3.72244 24.6229 3.72244H19.8019C19.5911 2.86581 18.8168 2.22844 17.8961 2.22844H16.9941C16.839 2.22844 16.7128 2.10225 16.7128 1.94719C16.7128 0.8735 15.8394 0 14.7657 0H13.6384C12.5647 0 11.6912 0.8735 11.6912 1.94713C11.6912 2.10219 11.5651 2.22838 11.41 2.22838H10.5079C9.58718 2.22838 8.81293 2.86575 8.60218 3.72238H3.78112C2.95424 3.72238 2.28149 4.39513 2.28149 5.222V30.5003C2.28149 31.3272 2.95424 31.9999 3.78112 31.9999H24.6228C25.4497 31.9999 26.1224 31.3272 26.1224 30.5003V18.5573C26.1224 18.2984 25.9126 18.0886 25.6537 18.0886C25.3947 18.0886 25.1849 18.2984 25.1849 18.5573V30.5004C25.1849 30.8103 24.9327 31.0625 24.6228 31.0625H3.78112C3.47118 31.0625 3.21899 30.8103 3.21899 30.5004V5.22206C3.21899 4.91213 3.47118 4.65994 3.78112 4.65994H4.51312V28.3242C4.51312 28.9576 5.02843 29.4729 5.66187 29.4729H12.1177C12.1588 29.7459 12.2982 30.0031 12.5239 30.1839C12.9329 30.5117 13.5259 30.5109 13.9342 30.1798L14.8055 29.4729H22.7422C23.3756 29.4729 23.8909 28.9576 23.8909 28.3242V21.3359C23.8909 21.077 23.6811 20.8672 23.4222 20.8672C23.1632 20.8672 22.9534 21.077 22.9534 21.3359V28.3242C22.9534 28.4406 22.8586 28.5354 22.7422 28.5354H15.9616C16.9292 27.7455 16.8943 27.7888 16.9497 27.7197C17.8117 26.6442 28.8261 12.9017 29.2991 12.3115C29.9586 11.4886 29.8257 10.2826 29.0029 9.62325ZM9.48268 4.19119C9.48268 3.62587 9.94262 3.16594 10.5079 3.16594H11.41C12.082 3.16594 12.6287 2.61919 12.6287 1.94719C12.6287 1.3905 13.0817 0.937563 13.6384 0.937563H14.7657C15.3224 0.937563 15.7753 1.3905 15.7753 1.94719C15.7753 2.61919 16.3221 3.16594 16.9941 3.16594H17.8961C18.4614 3.16594 18.9214 3.62587 18.9214 4.19119V4.97606C18.9214 5.10856 18.8135 5.21644 18.6809 5.21644H9.72306C9.59049 5.21644 9.48268 5.10856 9.48268 4.97606V4.19119ZM13.3436 29.4517C13.2761 29.5064 13.178 29.5066 13.1102 29.4524C13.0425 29.3981 13.0214 29.3022 13.0601 29.2245L14.5021 26.3288L15.8557 27.4137L13.3436 29.4517ZM16.526 26.7493L15.0046 25.5299L25.0384 13.0109L26.5597 14.2303L16.526 26.7493ZM28.5676 11.7252L27.1461 13.4988L25.6247 12.2793L27.0461 10.5058C27.3836 10.0848 27.9969 10.0185 28.4166 10.3548C28.836 10.6909 28.9037 11.3057 28.5676 11.7252Z" fill="#220047"/>
</svg>
