<?xml version="1.0" encoding="UTF-8"?>
<svg width="100px" height="100px" viewBox="0 0 100 100" version="1.1" xmlns="http://www.w3.org/2000/svg" xmlns:xlink="http://www.w3.org/1999/xlink">
    <title>Artboard</title>
    <g id="Artboard" stroke="none" stroke-width="1" fill="none" fill-rule="evenodd">
        <g id="noun_insight_3156037" transform="translate(19.000000, 19.000000)" fill="#3277B3" fill-rule="nonzero">
            <g id="Group">
                <path d="M31,16 C26.589,16 23,19.589 23,24 C23,28.411 26.589,32 31,32 C35.411,32 39,28.411 39,24 C39,19.589 35.411,16 31,16 Z M31,30 C27.691,30 25,27.309 25,24 C25,20.691 27.691,18 31,18 C34.309,18 37,20.691 37,24 C37,27.309 34.309,30 31,30 Z" id="Shape"></path>
                <path d="M31,20 C28.794,20 27,21.794 27,24 C27,26.206 28.794,28 31,28 C33.206,28 35,26.206 35,24 C35,21.794 33.206,20 31,20 Z M31,26 C29.897,26 29,25.103 29,24 C29,22.897 29.897,22 31,22 C32.103,22 33,22.897 33,24 C33,25.103 32.103,26 31,26 Z" id="Shape"></path>
                <path d="M57,19 C54.586,19 52.566,20.721 52.101,23 L49.953,23 C49.72,18.531 47.954,14.438 45.123,11.29 L46.98,9.433 C47.576,9.785 48.26,10 49,10 C51.206,10 53,8.206 53,6 C53,3.794 51.206,2 49,2 C46.794,2 45,3.794 45,6 C45,6.74 45.215,7.424 45.567,8.019 L43.704,9.882 C41.231,7.653 38.166,6.06 34.74,5.378 C34.9,4.947 35,4.486 35,4 C35,1.794 33.206,0 31,0 C28.794,0 27,1.794 27,4 C27,4.486 27.1,4.947 27.26,5.378 C23.835,6.06 20.77,7.653 18.297,9.882 L16.434,8.019 C16.785,7.424 17,6.74 17,6 C17,3.794 15.206,2 13,2 C10.794,2 9,3.794 9,6 C9,8.206 10.794,10 13,10 C13.74,10 14.424,9.785 15.019,9.433 L16.876,11.29 C14.045,14.438 12.279,18.531 12.046,22.999 L9.898,22.999 C9.434,20.721 7.414,19 5,19 C2.243,19 0,21.243 0,24 C0,26.757 2.243,29 5,29 C7.414,29 9.434,27.279 9.899,25 L12.047,25 C12.275,29.34 13.961,33.457 16.883,36.704 L15.02,38.567 C14.424,38.215 13.74,38 13,38 C10.794,38 9,39.794 9,42 C9,44.206 10.794,46 13,46 C15.206,46 17,44.206 17,42 C17,41.26 16.785,40.576 16.433,39.981 L18.229,38.185 L20.56,40.727 C21.908,42.197 22.732,44.044 22.942,46.006 C21.315,46.038 20,47.366 20,49 C20,49.771 20.301,50.468 20.78,51 C20.3,51.532 20,52.229 20,53 C20,54.654 21.346,56 23,56 L23.08,56 C23.568,59.387 26.481,62 30,62 L32,62 C35.519,62 38.432,59.387 38.92,56 L39,56 C40.654,56 42,54.654 42,53 C42,52.229 41.699,51.532 41.22,51 C41.7,50.468 42,49.771 42,49 C42,47.366 40.685,46.038 39.058,46.006 C39.268,44.044 40.092,42.198 41.44,40.727 L43.771,38.185 L45.567,39.981 C45.215,40.576 45,41.26 45,42 C45,44.206 46.794,46 49,46 C51.206,46 53,44.206 53,42 C53,39.794 51.206,38 49,38 C48.26,38 47.576,38.215 46.981,38.567 L45.118,36.704 C48.039,33.457 49.726,29.34 49.954,25 L52.102,25 C52.567,27.279 54.586,29 57.001,29 C59.758,29 62.001,26.757 62.001,24 C62.001,21.243 59.757,19 57,19 Z M5,27 C3.346,27 2,25.654 2,24 C2,22.346 3.346,21 5,21 C6.654,21 8,22.346 8,24 C8,25.654 6.654,27 5,27 Z M47.953,23 L44,23 L44,20.292 L42.174,19.647 C42.112,19.49 42.047,19.333 41.978,19.176 L42.814,17.428 L40.9,15.513 L43.711,12.702 C46.18,15.485 47.725,19.079 47.953,23 Z M40.451,27.242 C40.321,27.622 40.161,28.007 39.974,28.388 L39.76,28.823 L40.399,30.157 L37.157,33.399 L35.822,32.761 L35.386,32.975 C35.011,33.16 34.625,33.32 34.24,33.452 L33.782,33.609 L33.292,35 L28.708,35 L28.217,33.608 L27.759,33.451 C27.374,33.319 26.988,33.159 26.613,32.974 L26.177,32.76 L24.842,33.398 L21.6,30.156 L22.239,28.822 L22.025,28.387 C21.838,28.006 21.678,27.621 21.548,27.241 L21.392,26.783 L20,26.292 L20,21.707 L21.393,21.216 L21.549,20.758 C21.679,20.378 21.839,19.993 22.026,19.612 L22.24,19.177 L21.601,17.843 L24.843,14.601 L26.178,15.239 L26.614,15.025 C26.989,14.84 27.375,14.68 27.76,14.548 L28.218,14.391 L28.708,13 L33.292,13 L33.783,14.392 L34.241,14.549 C34.626,14.681 35.012,14.841 35.387,15.026 L35.823,15.24 L37.158,14.602 L40.4,17.844 L39.761,19.178 L39.975,19.613 C40.162,19.994 40.322,20.379 40.452,20.759 L40.608,21.217 L42,21.708 L42,26.293 L40.607,26.784 L40.451,27.242 Z M31,50 C29.897,50 29,49.103 29,48 C29,46.897 29.897,46 31,46 C32.103,46 33,46.897 33,48 C33,49.103 32.103,50 31,50 Z M49,4 C50.103,4 51,4.897 51,6 C51,7.103 50.103,8 49,8 C47.897,8 47,7.103 47,6 C47,4.897 47.897,4 49,4 Z M39.485,14.101 L37.571,12.186 L35.822,13.022 C35.667,12.953 35.509,12.888 35.351,12.826 L34.708,11 L32,11 L32,7.858 C32.514,7.724 32.985,7.493 33.398,7.182 C36.807,7.663 39.861,9.139 42.287,11.299 L39.485,14.101 Z M31,2 C32.103,2 33,2.897 33,4 C33,5.103 32.103,6 31,6 C29.897,6 29,5.103 29,4 C29,2.897 29.897,2 31,2 Z M28.602,7.182 C29.015,7.493 29.486,7.724 30,7.858 L30,11 L27.292,11 L26.648,12.826 C26.49,12.888 26.333,12.953 26.177,13.022 L24.428,12.186 L22.514,14.101 L19.712,11.299 C22.139,9.139 25.193,7.663 28.602,7.182 Z M13,8 C11.897,8 11,7.103 11,6 C11,4.897 11.897,4 13,4 C14.103,4 15,4.897 15,6 C15,7.103 14.103,8 13,8 Z M18.29,12.704 L21.101,15.515 L19.187,17.43 L20.023,19.178 C19.954,19.335 19.888,19.492 19.827,19.649 L18,20.292 L18,23 L14.047,23 C14.275,19.079 15.82,15.485 18.29,12.704 Z M14.047,25 L18,25 L18,27.708 L19.826,28.353 C19.888,28.51 19.953,28.667 20.022,28.824 L19.186,30.572 L21.1,32.487 L18.3,35.287 C15.754,32.419 14.27,28.81 14.047,25 Z M13,44 C11.897,44 11,43.103 11,42 C11,40.897 11.897,40 13,40 C14.103,40 15,40.897 15,42 C15,43.103 14.103,44 13,44 Z M19.645,36.769 L22.515,33.899 L24.429,35.814 L26.178,34.978 C26.333,35.047 26.491,35.112 26.649,35.174 L27.292,37 L30,37 L30,44.142 C28.957,44.413 28.087,45.091 27.556,46 L24.953,46 C24.735,43.537 23.719,41.215 22.034,39.375 L19.645,36.769 Z M23,48 L27,48 C27,48.732 27.212,49.409 27.556,50 L23,50 C22.448,50 22,49.551 22,49 C22,48.449 22.448,48 23,48 Z M32,60 L30,60 C27.586,60 25.566,58.279 25.101,56 L36.899,56 C36.434,58.279 34.414,60 32,60 Z M39,54 L23,54 C22.448,54 22,53.551 22,53 C22,52.449 22.448,52 23,52 L39,52 C39.552,52 40,52.449 40,53 C40,53.551 39.552,54 39,54 Z M40,49 C40,49.551 39.552,50 39,50 L34.444,50 C34.788,49.409 35,48.732 35,48 L39,48 C39.552,48 40,48.449 40,49 Z M39.966,39.375 C38.281,41.215 37.264,43.537 37.047,46 L34.444,46 C33.914,45.091 33.043,44.413 32,44.142 L32,37 L34.708,37 L35.352,35.174 C35.51,35.112 35.667,35.047 35.823,34.978 L37.572,35.814 L39.486,33.899 L42.356,36.769 L39.966,39.375 Z M49,40 C50.103,40 51,40.897 51,42 C51,43.103 50.103,44 49,44 C47.897,44 47,43.103 47,42 C47,40.897 47.897,40 49,40 Z M43.699,35.285 L40.899,32.485 L42.813,30.57 L41.977,28.822 C42.046,28.665 42.112,28.508 42.173,28.351 L44,27.708 L44,25 L47.953,25 C47.73,28.81 46.246,32.419 43.699,35.285 Z M57,27 C55.346,27 54,25.654 54,24 C54,22.346 55.346,21 57,21 C58.654,21 60,22.346 60,24 C60,25.654 58.654,27 57,27 Z" id="Shape"></path>
            </g>
        </g>
    </g>
</svg>