<svg width="24" height="24" viewBox="0 0 24 24" fill="none" xmlns="http://www.w3.org/2000/svg">
<path fill-rule="evenodd" clip-rule="evenodd" d="M15.0519 16.9558C15.4691 18.2075 14.5375 19.5 13.2182 19.5C12.5939 19.5 12.0081 19.1985 11.6453 18.6906L8.4734 14.25H5.85937L5.10938 13.5V6L5.85937 5.25H16.8229L19.1265 9.85722C19.8106 11.2253 19.5425 12.8776 18.4609 13.9592C17.7945 14.6256 16.8906 15 15.9481 15H14.4L15.0519 16.9558ZM9.60937 13.2596L12.8659 17.8187C12.9471 17.9325 13.0783 18 13.2182 18C13.5137 18 13.7223 17.7105 13.6289 17.4302L12.3188 13.5H15.9481C16.4928 13.5 17.0151 13.2836 17.4002 12.8985C18.0253 12.2735 18.1802 11.3186 17.7849 10.528L15.8959 6.75H9.60937V13.2596ZM8.10937 6.75H6.60937V12.75H8.10937V6.75Z" fill="rgba(0, 165, 130, 1)"/>
</svg>
