<svg width="20" height="20" viewBox="0 0 20 20" fill="none" xmlns="http://www.w3.org/2000/svg">
<g clip-path="url(#clip0_1834_47559)">
<path d="M4.66699 20H18.0003C18.7367 20 19.3337 19.403 19.3337 18.6667V3.61C19.3333 3.47222 19.3044 3.33601 19.2487 3.21C19.2455 3.20284 19.2418 3.19593 19.2377 3.18933C19.1893 3.08277 19.1225 2.98561 19.0403 2.90233L16.4317 0.293333C16.3484 0.211139 16.2512 0.144331 16.1447 0.096C16.1381 0.0918109 16.1312 0.0881335 16.124 0.085C15.9979 0.0292232 15.8616 0.000277247 15.7237 0H4.66699C3.93061 0 3.33366 0.596954 3.33366 1.33333V10.6667H1.33366C0.965469 10.6667 0.666992 10.9651 0.666992 11.3333V17.3333C0.666992 17.7015 0.965469 18 1.33366 18H3.33366V18.6667C3.33366 19.403 3.93061 20 4.66699 20ZM18.1957 3H17.2937C16.7637 2.99945 16.3342 2.56996 16.3337 2.04V1.138L18.1957 3ZM4.00033 1.33333C4.00033 0.965144 4.2988 0.666667 4.66699 0.666667H15.667V2.04C15.6679 2.938 16.3957 3.66575 17.2937 3.66667H18.667V18.6667C18.667 19.0349 18.3685 19.3333 18.0003 19.3333H4.66699C4.2988 19.3333 4.00033 19.0349 4.00033 18.6667V18H12.0003C12.3685 18 12.667 17.7015 12.667 17.3333V11.3333C12.667 10.9651 12.3685 10.6667 12.0003 10.6667H4.00033V1.33333ZM1.33366 11.3333H12.0003V17.3333H1.33366V11.3333Z" fill="black"/>
<path d="M5.66732 3.00065H13.6673C13.8514 3.00065 14.0007 2.85141 14.0007 2.66732C14.0007 2.48322 13.8514 2.33398 13.6673 2.33398H5.66732C5.48322 2.33398 5.33398 2.48322 5.33398 2.66732C5.33398 2.85141 5.48322 3.00065 5.66732 3.00065Z" fill="black"/>
<path d="M5.66732 6.33268H17.0007C17.1847 6.33268 17.334 6.18344 17.334 5.99935C17.334 5.81525 17.1847 5.66602 17.0007 5.66602H5.66732C5.48322 5.66602 5.33398 5.81525 5.33398 5.99935C5.33398 6.18344 5.48322 6.33268 5.66732 6.33268Z" fill="black"/>
<path d="M17.334 9.33333C17.334 9.14924 17.1847 9 17.0007 9H5.66732C5.48322 9 5.33398 9.14924 5.33398 9.33333C5.33398 9.51743 5.48322 9.66667 5.66732 9.66667H17.0007C17.1847 9.66667 17.334 9.51743 17.334 9.33333Z" fill="black"/>
<path d="M17.0003 10.666H14.0003C13.8162 10.666 13.667 10.8153 13.667 10.9993C13.667 11.1834 13.8162 11.3327 14.0003 11.3327H17.0003C17.1844 11.3327 17.3337 11.1834 17.3337 10.9993C17.3337 10.8153 17.1844 10.666 17.0003 10.666Z" fill="black"/>
<path d="M17.0003 14H14.0003C13.8162 14 13.667 14.1492 13.667 14.3333C13.667 14.5174 13.8162 14.6667 14.0003 14.6667H17.0003C17.1844 14.6667 17.3337 14.5174 17.3337 14.3333C17.3337 14.1492 17.1844 14 17.0003 14Z" fill="black"/>
<path d="M17.0003 17.334H14.0003C13.8162 17.334 13.667 17.4832 13.667 17.6673C13.667 17.8514 13.8162 18.0007 14.0003 18.0007H17.0003C17.1844 18.0007 17.3337 17.8514 17.3337 17.6673C17.3337 17.4832 17.1844 17.334 17.0003 17.334Z" fill="black"/>
</g>
<defs>
<clipPath id="clip0_1834_47559">
<rect width="20" height="20" fill="white"/>
</clipPath>
</defs>
</svg>
