<svg width="32" height="32" viewBox="0 0 32 32" fill="none" xmlns="http://www.w3.org/2000/svg">
<path d="M28.8 22.056C28.76 22.272 28.744 22.504 28.68 22.712C28.36 23.848 27.624 24.576 26.48 24.88C26.416 24.896 26.352 24.912 26.288 24.928C26.288 24.928 26.28 24.936 26.24 24.968C26.24 25.032 26.24 25.12 26.24 25.208C26.24 26.08 26.24 26.96 26.24 27.832C26.24 28.464 25.896 28.8 25.264 28.8C19.08 28.8 12.904 28.8 6.72001 28.8C6.07201 28.8 5.73601 28.464 5.73601 27.816C5.73601 26.952 5.73601 26.08 5.73601 25.216C5.73601 25.128 5.73601 25.032 5.73601 24.928C5.21601 24.824 4.75201 24.632 4.34401 24.312C3.36801 23.544 2.96001 22.24 3.33601 21.056C3.72001 19.856 4.81601 19.008 6.06401 18.984C7.26401 18.96 8.46401 18.984 9.66401 18.976C9.76001 18.976 9.86401 18.976 10.008 18.976C10.008 18.856 10.008 18.752 10.008 18.648C10.032 18.008 9.97601 17.352 10.088 16.728C10.264 15.704 10.92 15.016 11.896 14.68C12.592 14.44 13.296 14.256 13.992 14.032C14.096 14 14.224 13.928 14.264 13.84C14.336 13.672 14.184 13.6 14.064 13.52C13.88 13.392 13.688 13.264 13.512 13.128C12.984 12.712 12.664 12.176 12.616 11.488C12.6 11.312 12.552 11.2 12.368 11.112C11.864 10.856 11.616 10.28 11.744 9.712C11.76 9.656 11.768 9.6 11.776 9.576C11.56 9.416 11.344 9.304 11.184 9.136C10.752 8.664 10.784 8.088 10.936 7.528C11.032 7.184 11.344 7.04 11.688 7C11.712 6.68 11.712 6.36 11.768 6.048C11.984 4.848 12.888 3.92 14.08 3.664C14.264 3.624 14.416 3.576 14.544 3.416C14.64 3.304 14.8 3.248 14.936 3.16C15.64 3.16 16.336 3.16 17.04 3.16C17.176 3.248 17.344 3.312 17.448 3.432C17.56 3.56 17.68 3.624 17.84 3.656C19.04 3.888 19.976 4.824 20.192 6.024C20.248 6.344 20.248 6.664 20.272 7C20.608 7.04 20.872 7.184 21.024 7.504C21.248 7.968 21.104 8.84 20.728 9.192C20.576 9.336 20.376 9.44 20.184 9.568C20.192 9.6 20.208 9.656 20.216 9.712C20.344 10.288 20.096 10.856 19.568 11.12C19.408 11.2 19.36 11.304 19.352 11.464C19.296 12.184 18.96 12.744 18.392 13.168C18.216 13.304 18.016 13.416 17.848 13.56C17.776 13.624 17.712 13.744 17.712 13.84C17.712 13.896 17.832 13.976 17.904 14C18.624 14.224 19.36 14.424 20.08 14.664C21.064 15 21.712 15.688 21.888 16.712C22 17.336 21.944 17.992 21.968 18.632C21.968 18.736 21.968 18.84 21.968 18.96C22.112 18.96 22.216 18.96 22.312 18.96C23.512 18.96 24.712 18.944 25.912 18.968C27.232 18.992 28.392 19.952 28.688 21.232C28.744 21.472 28.76 21.72 28.8 21.968V22.016V22.056ZM16.016 19.848C12.744 19.848 9.48001 19.848 6.20801 19.848C4.71201 19.848 3.68801 21.224 4.12801 22.624C4.41601 23.536 5.23201 24.112 6.26401 24.112C12.096 24.112 17.92 24.112 23.752 24.112C24.464 24.112 25.168 24.12 25.88 24.112C26.992 24.088 27.904 23.176 27.944 22.064C27.992 20.824 27.032 19.856 25.744 19.848C22.504 19.848 19.256 19.848 16.016 19.848ZM25.376 24.976H6.60001V27.944H25.368V24.976H25.376ZM16.008 9.592C15.032 9.592 14.056 9.592 13.08 9.592C12.784 9.592 12.608 9.736 12.584 9.976C12.56 10.24 12.704 10.4 13.016 10.448C13.28 10.488 13.408 10.624 13.432 10.896C13.448 11.08 13.464 11.264 13.472 11.448C13.496 11.824 13.64 12.16 13.936 12.384C14.376 12.712 14.84 13.016 15.312 13.28C15.76 13.528 16.256 13.52 16.704 13.264C17.152 13.008 17.592 12.728 18 12.424C18.184 12.288 18.336 12.064 18.408 11.848C18.504 11.576 18.512 11.28 18.536 10.992C18.568 10.64 18.664 10.52 19.008 10.464C19.32 10.408 19.488 10.12 19.352 9.856C19.256 9.672 19.096 9.616 18.896 9.616C17.928 9.616 16.96 9.616 16 9.616L16.008 9.592ZM12.6 7.016H19.384C19.536 5.784 18.728 4.592 17.696 4.544C17.696 4.928 17.696 5.312 17.696 5.688C17.696 5.976 17.52 6.176 17.272 6.176C17.024 6.176 16.856 5.976 16.848 5.688C16.848 5.384 16.848 5.088 16.848 4.784C16.848 4.536 16.848 4.288 16.848 4.048H15.144C15.144 4.592 15.144 5.128 15.144 5.656C15.144 5.968 14.976 6.168 14.72 6.168C14.464 6.168 14.296 5.968 14.296 5.656C14.296 5.28 14.296 4.912 14.296 4.536C13.272 4.584 12.456 5.776 12.608 7.008L12.6 7.016ZM19.4 18.976C19.4 17.8 19.4 16.648 19.4 15.496C19.4 15.44 19.336 15.368 19.288 15.344C19.144 15.288 18.992 15.248 18.824 15.2C18.768 15.656 18.712 16.08 18.656 16.512C18.568 17.24 18.064 17.696 17.328 17.696C16.448 17.696 15.56 17.696 14.68 17.696C13.936 17.696 13.44 17.248 13.344 16.512C13.288 16.08 13.232 15.648 13.176 15.2C13.064 15.232 12.992 15.272 12.904 15.28C12.648 15.304 12.576 15.432 12.584 15.688C12.6 16.68 12.584 17.672 12.584 18.664V18.976H19.408H19.4ZM20.256 7.904H11.736C11.736 7.976 11.728 8.024 11.728 8.072C11.728 8.624 11.832 8.736 12.376 8.736C13.032 8.736 13.696 8.736 14.352 8.736C16.144 8.736 17.936 8.736 19.728 8.736C20.112 8.736 20.256 8.592 20.264 8.216C20.264 8.12 20.264 8.016 20.264 7.904H20.256ZM13.992 14.952C14.056 15.472 14.12 15.968 14.184 16.464C14.216 16.704 14.36 16.848 14.6 16.848C15.528 16.848 16.448 16.848 17.376 16.848C17.584 16.848 17.744 16.728 17.776 16.536C17.864 16.016 17.92 15.488 17.984 14.952C17.84 14.912 17.728 14.872 17.608 14.84C17.296 15.568 16.768 15.992 15.984 15.992C15.192 15.992 14.664 15.56 14.36 14.84C14.232 14.88 14.128 14.912 13.992 14.952ZM10.888 18.976H11.712V15.744C11.232 16.08 10.944 16.512 10.904 17.056C10.856 17.688 10.896 18.32 10.896 18.984L10.888 18.976ZM20.272 18.976H21.104C21.104 18.376 21.12 17.792 21.104 17.216C21.088 16.664 20.832 16.216 20.416 15.856C20.376 15.824 20.328 15.808 20.272 15.776V18.976ZM16.832 14.128C16.272 14.344 15.712 14.328 15.152 14.128C15.112 14.52 15.24 14.816 15.544 15.008C15.848 15.2 16.168 15.192 16.464 14.992C16.76 14.792 16.88 14.504 16.832 14.128Z" fill="#220047"/>
<path d="M16 23.256C15.288 23.256 14.704 22.68 14.712 21.976C14.712 21.272 15.28 20.712 15.984 20.704C16.688 20.704 17.264 21.256 17.272 21.96C17.28 22.672 16.712 23.256 16 23.264V23.256ZM15.984 21.552C15.744 21.552 15.56 21.752 15.568 21.984C15.568 22.208 15.76 22.392 15.984 22.4C16.216 22.4 16.416 22.216 16.416 21.976C16.416 21.736 16.224 21.544 15.992 21.552H15.984Z" fill="#220047"/>
<path d="M12.992 21.992C12.984 22.704 12.408 23.264 11.688 23.256C10.992 23.24 10.424 22.656 10.44 21.96C10.448 21.248 11.032 20.696 11.752 20.704C12.448 20.712 13.008 21.288 13 22L12.992 21.992ZM11.712 21.552C11.48 21.552 11.288 21.76 11.296 21.992C11.304 22.216 11.496 22.4 11.72 22.408C11.952 22.408 12.144 22.216 12.144 21.984C12.144 21.744 11.952 21.56 11.712 21.56V21.552Z" fill="#220047"/>
<path d="M25.808 21.992C25.8 22.704 25.224 23.264 24.504 23.256C23.808 23.24 23.24 22.656 23.256 21.96C23.264 21.248 23.848 20.696 24.568 20.704C25.264 20.712 25.824 21.288 25.816 22L25.808 21.992ZM24.568 21.552C24.336 21.536 24.128 21.712 24.104 21.944C24.088 22.168 24.28 22.384 24.504 22.4C24.728 22.416 24.928 22.24 24.944 22.016C24.968 21.776 24.792 21.568 24.56 21.552H24.568Z" fill="#220047"/>
<path d="M6.17603 21.992C6.17603 21.272 6.73603 20.704 7.44803 20.704C8.14403 20.704 8.72803 21.272 8.72803 21.968C8.72803 22.68 8.15203 23.256 7.44803 23.264C6.74403 23.264 6.17603 22.704 6.17603 22V21.992ZM7.45603 22.408C7.68803 22.408 7.88003 22.2 7.87203 21.968C7.87203 21.736 7.65603 21.544 7.42403 21.56C7.20003 21.568 7.02403 21.752 7.02403 21.984C7.02403 22.224 7.21603 22.416 7.45603 22.408Z" fill="#220047"/>
<path d="M20.264 20.704C20.96 20.704 21.536 21.28 21.544 21.968C21.544 22.68 20.968 23.256 20.256 23.256C19.552 23.256 18.984 22.688 18.984 21.984C18.984 21.264 19.544 20.696 20.264 20.696V20.704ZM20.264 21.56C20.024 21.56 19.832 21.744 19.832 21.984C19.832 22.216 20.008 22.4 20.232 22.416C20.464 22.424 20.672 22.24 20.68 22.008C20.688 21.776 20.496 21.576 20.264 21.568V21.56Z" fill="#220047"/>
<path d="M23.12 27.896H21.464V28.84H23.12V27.896Z" fill="white"/>
<path d="M21.44 28.808C21.6786 28.808 21.872 28.6146 21.872 28.376C21.872 28.1374 21.6786 27.944 21.44 27.944C21.2014 27.944 21.008 28.1374 21.008 28.376C21.008 28.6146 21.2014 28.808 21.44 28.808Z" fill="#220047"/>
<path d="M23.144 28.808C23.3826 28.808 23.576 28.6146 23.576 28.376C23.576 28.1374 23.3826 27.944 23.144 27.944C22.9054 27.944 22.712 28.1374 22.712 28.376C22.712 28.6146 22.9054 28.808 23.144 28.808Z" fill="#220047"/>
<path d="M11.68 24.056H10.024V25H11.68V24.056Z" fill="white"/>
<path d="M9.992 24.976C10.2306 24.976 10.424 24.7826 10.424 24.544C10.424 24.3054 10.2306 24.112 9.992 24.112C9.75341 24.112 9.56 24.3054 9.56 24.544C9.56 24.7826 9.75341 24.976 9.992 24.976Z" fill="#220047"/>
<path d="M11.696 24.976C11.9346 24.976 12.128 24.7826 12.128 24.544C12.128 24.3054 11.9346 24.112 11.696 24.112C11.4574 24.112 11.264 24.3054 11.264 24.544C11.264 24.7826 11.4574 24.976 11.696 24.976Z" fill="#220047"/>
</svg>
