<svg width="32" height="32" viewBox="0 0 32 32" fill="none" xmlns="http://www.w3.org/2000/svg">
<path fill-rule="evenodd" clip-rule="evenodd" d="M29.153 13.661L28.2189 9.16114C28.1733 8.94114 27.9689 8.79145 27.745 8.81495L23.9842 9.20895C23.9574 9.1792 23.9298 9.14989 23.9011 9.12126C23.472 8.69214 22.9015 8.45582 22.2946 8.45582C22.2526 8.45582 22.211 8.4572 22.1694 8.45945L18.0079 3.41795C17.9198 2.70014 17.5982 2.03601 17.0787 1.51651C15.808 0.245636 13.74 0.245636 12.4692 1.51651C11.8535 2.13214 11.5145 2.95064 11.5145 3.82126C11.5145 3.95101 11.5229 4.07939 11.5378 4.20626L6.31345 8.5187C5.43726 8.55889 4.57289 8.91264 3.90533 9.5802C3.21701 10.2684 2.83801 11.1834 2.83801 12.1568C2.83801 13.1301 3.21701 14.0451 3.90533 14.7334C4.4237 15.2518 5.07089 15.5946 5.7747 15.7323L9.3317 23.5236C9.27483 23.5614 9.2212 23.605 9.17182 23.6544L7.89264 24.9336C7.49039 25.3359 7.49039 25.9904 7.89264 26.3926C8.4367 26.9367 8.42376 27.6297 8.23026 28.0969C8.03676 28.564 7.55589 29.0631 6.78645 29.0631C6.21758 29.0631 5.75476 29.5259 5.75476 30.0948V30.9993C5.75476 31.2409 5.95064 31.4368 6.19226 31.4368H10.8915C11.1331 31.4368 11.329 31.2409 11.329 30.9993C11.329 28.8441 13.0824 27.0908 15.2375 27.0908C17.3926 27.0908 19.146 28.8441 19.146 30.9993C19.146 31.2409 19.3418 31.4368 19.5835 31.4368H24.2827C24.5243 31.4368 24.7202 31.2409 24.7202 30.9993V30.0948C24.7202 29.5259 24.2574 29.0631 23.6885 29.0631C22.9191 29.0631 22.4383 28.564 22.2447 28.0969C22.0512 27.6297 22.0383 26.9367 22.5824 26.3926C22.9845 25.9903 22.9845 25.3359 22.5823 24.9336L21.3031 23.6544C21.1083 23.4596 20.8493 23.3523 20.5736 23.3523C20.2981 23.3523 20.039 23.4596 19.844 23.6544C19.3 24.1986 18.607 24.1856 18.1398 23.9921C17.6726 23.7986 17.1735 23.3177 17.1735 22.5483C17.1735 21.9794 16.7108 21.5166 16.1419 21.5166H15.4254L9.81126 13.635C10.0298 13.1412 10.1333 12.6087 10.1219 12.0779L14.2794 7.04126C14.4433 7.0662 14.6086 7.0792 14.7739 7.0792C15.0592 7.0792 15.3443 7.04114 15.6217 6.96689L20.0262 10.6026C20.024 10.6441 20.0226 10.6858 20.0226 10.7278C20.0226 11.3346 20.2589 11.9051 20.688 12.3343C20.7166 12.3629 20.7459 12.3904 20.7757 12.4173L20.3817 16.1781C20.3583 16.4015 20.508 16.6064 20.7279 16.652L25.2278 17.5861C25.2573 17.5923 25.2871 17.5953 25.3167 17.5953C25.4315 17.5953 25.5431 17.55 25.626 17.4671L26.1368 16.9564C26.2374 16.8558 26.2828 16.7126 26.2585 16.5723C26.2342 16.4321 26.1433 16.3125 26.0147 16.2516L23.0763 14.8598L23.578 12.6025C23.6924 12.5238 23.8007 12.4345 23.901 12.3342C24.0019 12.2333 24.0906 12.1249 24.1685 12.0113L26.4266 11.5096L27.8184 14.4479C27.8793 14.5764 27.999 14.6674 28.1391 14.6916C28.164 14.6959 28.189 14.6981 28.2138 14.6981C28.3288 14.6981 28.4404 14.6526 28.5231 14.5699L29.0338 14.0593C29.1382 13.9551 29.183 13.8053 29.153 13.661ZM3.71289 12.1568C3.71289 11.4172 4.00089 10.7219 4.52389 10.1989C5.06376 9.65901 5.77264 9.3892 6.48176 9.3892C7.1907 9.3892 7.89989 9.65914 8.43964 10.1989C9.51914 11.2784 9.51914 13.0351 8.43964 14.1146C7.36007 15.1942 5.60345 15.1942 4.52389 14.1146C4.00095 13.5916 3.71289 12.8963 3.71289 12.1568ZM16.2986 22.5482C16.2986 23.5525 16.8758 24.4155 17.8051 24.8004C18.7341 25.1853 19.7526 24.9833 20.4628 24.2731C20.5027 24.2331 20.5494 24.2272 20.5736 24.2272C20.5979 24.2272 20.6445 24.2331 20.6844 24.273L21.9635 25.5521C22.0247 25.6133 22.0247 25.7128 21.9636 25.7738C21.2535 26.4839 21.0513 27.5024 21.4363 28.4316C21.8211 29.3608 22.6841 29.9381 23.6884 29.9381C23.7748 29.9381 23.8451 30.0084 23.8451 30.0947V30.5617H20.001C19.7794 28.1283 17.7275 26.2157 15.2374 26.2157C12.7472 26.2157 10.6953 28.1283 10.4737 30.5617H6.62964V30.0947C6.62964 30.0083 6.69995 29.9381 6.78633 29.9381C7.79058 29.9381 8.65364 29.3609 9.03851 28.4316C9.42339 27.5024 9.22139 26.4839 8.5112 25.7738C8.45007 25.7127 8.45007 25.6133 8.5112 25.5522L9.79039 24.273C9.83026 24.2331 9.87689 24.2272 9.90114 24.2272C9.92539 24.2272 9.97208 24.2331 10.0119 24.273C10.722 24.9831 11.7403 25.1852 12.6696 24.8003C13.5989 24.4154 14.1761 23.5524 14.1761 22.5481C14.1761 22.4618 14.2464 22.3915 14.3328 22.3915H16.1418C16.2283 22.3916 16.2986 22.4618 16.2986 22.5482ZM14.3512 21.5166H14.3329C13.7641 21.5166 13.3013 21.9794 13.3013 22.5482C13.3013 23.3176 12.8022 23.7985 12.335 23.992C11.8678 24.1856 11.1748 24.1984 10.6308 23.6544C10.5194 23.5429 10.3865 23.4613 10.242 23.4108L6.76233 15.7889C7.62983 15.7232 8.4367 15.3549 9.05832 14.7333C9.15014 14.6415 9.2357 14.5459 9.31564 14.4471L14.3512 21.5166ZM9.91926 10.949C9.74439 10.4488 9.45745 9.97932 9.05832 9.5802C8.6127 9.13457 8.07932 8.82882 7.51332 8.66276L11.7893 5.1332C11.9501 5.4987 12.1784 5.8352 12.4692 6.12601C12.7396 6.39645 13.0464 6.60876 13.3736 6.76414L9.91926 10.949ZM13.0878 5.50726C12.6375 5.05689 12.3895 4.45807 12.3895 3.8212C12.3895 3.18426 12.6375 2.58551 13.0878 2.13514C13.5527 1.67026 14.1633 1.43782 14.7739 1.43782C15.3846 1.43782 15.9952 1.67026 16.4601 2.13514C16.9104 2.58551 17.1585 3.18426 17.1585 3.8212C17.1585 4.45807 16.9104 5.05689 16.4601 5.50726C15.5303 6.43695 14.0176 6.43695 13.0878 5.50726ZM16.5195 6.5732C16.7178 6.44739 16.9058 6.29882 17.0787 6.12595C17.4855 5.7192 17.7706 5.22364 17.9178 4.68326L21.2438 8.71257C21.0415 8.81839 20.8541 8.95514 20.6881 9.1212C20.522 9.28726 20.3853 9.47464 20.2795 9.67689L16.5195 6.5732ZM22.3864 15.5011L24.647 16.5719L21.2933 15.8757L21.6058 12.8933C21.8257 12.963 22.0573 12.9996 22.2946 12.9996C22.397 12.9996 22.4982 12.9923 22.5981 12.9791L22.1466 15.0108C22.1023 15.2102 22.2018 15.4137 22.3864 15.5011ZM23.2825 11.7155C23.0185 11.9794 22.6678 12.1247 22.2946 12.1247C21.9215 12.1247 21.5706 11.9794 21.3068 11.7155C21.0429 11.4516 20.8976 11.1009 20.8976 10.7277C20.8976 10.3545 21.0429 10.0038 21.3068 9.73989H21.3068C21.5706 9.47601 21.9215 9.3307 22.2946 9.3307C22.6678 9.3307 23.0185 9.47601 23.2824 9.73989C23.827 10.2846 23.827 11.1708 23.2825 11.7155ZM27.068 10.8195C26.9806 10.6349 26.7775 10.5354 26.5777 10.5798L24.5448 11.0315C24.5891 10.6998 24.5603 10.3604 24.4586 10.039L27.4426 9.72639L28.1388 13.08L27.068 10.8195ZM15.2374 28.1994C13.6937 28.1994 12.4377 29.4554 12.4377 30.9993C12.4377 31.2409 12.6336 31.4368 12.8752 31.4368H17.5998C17.8414 31.4368 18.0373 31.2409 18.0373 30.9993C18.0373 29.4554 16.7813 28.1994 15.2374 28.1994ZM13.3629 30.5618C13.5614 29.7104 14.3266 29.0744 15.2374 29.0744C16.1484 29.0744 16.9135 29.7104 17.1121 30.5618H13.3629ZM16.0125 2.58257C15.6816 2.25176 15.2418 2.06957 14.7739 2.06957C14.3061 2.06957 13.8662 2.25176 13.5354 2.58257C13.2045 2.91345 13.0223 3.35332 13.0223 3.8212C13.0223 4.28907 13.2045 4.72895 13.5353 5.05982C13.8662 5.39064 14.3061 5.57282 14.7739 5.57282C15.2418 5.57282 15.6816 5.39064 16.0125 5.05982C16.3434 4.72901 16.5256 4.28907 16.5256 3.8212C16.5256 3.35332 16.3434 2.91345 16.0125 2.58257ZM15.3939 4.44114C15.2283 4.6067 15.0081 4.69789 14.7739 4.69789C14.5398 4.69789 14.3196 4.6067 14.154 4.44114C13.9885 4.27557 13.8973 4.05539 13.8973 3.82126C13.8973 3.58714 13.9885 3.36689 14.154 3.20132C14.3195 3.03576 14.5398 2.94457 14.7739 2.94457C15.0081 2.94457 15.2283 3.03576 15.3939 3.20132C15.5595 3.36689 15.6506 3.58707 15.6506 3.82126C15.6506 4.05545 15.5595 4.27551 15.3939 4.44114ZM7.84695 13.522C8.59976 12.7693 8.59976 11.5444 7.84695 10.7916C7.09426 10.0388 5.86926 10.0388 5.11658 10.7916C4.36376 11.5443 4.36376 12.7692 5.11658 13.522C5.49289 13.8984 5.98739 14.0866 6.48176 14.0866C6.97614 14.0866 7.47058 13.8984 7.84695 13.522ZM5.42601 12.1568C5.42601 11.8748 5.53589 11.6097 5.7352 11.4103C5.93458 11.2109 6.19976 11.1011 6.4817 11.1011C6.76364 11.1011 7.02882 11.2109 7.2282 11.4103C7.42751 11.6096 7.53739 11.8748 7.53739 12.1568C7.53739 12.4388 7.42751 12.7038 7.2282 12.9033C7.02882 13.1026 6.76364 13.2124 6.4817 13.2124C6.19976 13.2124 5.93458 13.1026 5.7352 12.9033C5.53589 12.7039 5.42601 12.4388 5.42601 12.1568ZM22.604 10.4183C22.7748 10.5891 22.7748 10.8662 22.604 11.037C22.4331 11.2078 22.1561 11.2078 21.9852 11.037C21.8144 10.8661 21.8144 10.5891 21.9852 10.4183C22.1561 10.2475 22.4331 10.2475 22.604 10.4183Z" fill="#220047"/>
</svg>
