<?xml version="1.0"?>
<svg xmlns="http://www.w3.org/2000/svg" xmlns:xlink="http://www.w3.org/1999/xlink" version="1.1" viewBox="0 0 512 512" style="enable-background:new 0 0 512 512" xml:space="preserve" class=""><g><g xmlns="http://www.w3.org/2000/svg"><path d="m361 60v-30h-30c-16.538 0-30-13.462-30-30h-30c0 33.091 26.909 60 60 60z" fill="#6df0c2" data-original="#000000" style="" class=""/><path d="m241 0h-30c0 66.167 53.833 120 120 120v-30c-49.629 0-90-40.371-90-90z" fill="#6df0c2" data-original="#000000" style="" class=""/><path d="m387.497 150h98.006l-3.503-45.529v-14.471c0-33.091-26.909-60-60-60h-31v30h31c16.538 0 30 13.462 30 30h-59.887z" fill="#6df0c2" data-original="#000000" style="" class=""/><path d="m385.188 180-25.389 332h152.201l-24.188-332z" fill="#6df0c2" data-original="#000000" style="" class=""/><path d="m271 135-120 91.005v-91.005l-141.001 106h261.001z" fill="#6df0c2" data-original="#000000" style="" class=""/><path d="m241 361h30v30h-30z" fill="#6df0c2" data-original="#000000" style="" class=""/><path d="m91 361h60v151h-60z" fill="#6df0c2" data-original="#000000" style="" class=""/><path d="m61 331h120v181h148.705l18.472-241h-348.177v241h61zm150 0h90v90h-90z" fill="#6df0c2" data-original="#000000" style="" class=""/></g></g></svg>
