<?xml version="1.0"?>
<svg xmlns="http://www.w3.org/2000/svg" xmlns:xlink="http://www.w3.org/1999/xlink" version="1.1" viewBox="0 0 64 64" style="enable-background:new 0 0 512 512" xml:space="preserve" class=""><g><g xmlns="http://www.w3.org/2000/svg" id="Outline"><path d="M55,48H51V41a1,1,0,0,0-1-1H42a1,1,0,0,0-1,1v7H37V41a1,1,0,0,0-1-1H28a1,1,0,0,0-1,1v7H22V41a1,1,0,0,0-1-1H13a1,1,0,0,0-1,1v7H9A7,7,0,0,0,9,62H55a7,7,0,0,0,0-14ZM43,42h2v2h2V42h2v6H43ZM29,42h2v2h2V42h2v6H29ZM14,42h2v2h2V42h2v6H14ZM55,60H9A5,5,0,0,1,9,50H55a5,5,0,0,1,0,10Z" data-original="#000000" style="" class=""/><path d="M12,52a3,3,0,1,0,3,3A3,3,0,0,0,12,52Zm0,4a1,1,0,1,1,1-1A1,1,0,0,1,12,56Z" data-original="#000000" style="" class=""/><path d="M22,52a3,3,0,1,0,3,3A3,3,0,0,0,22,52Zm0,4a1,1,0,1,1,1-1A1,1,0,0,1,22,56Z" data-original="#000000" style="" class=""/><path d="M32,52a3,3,0,1,0,3,3A3,3,0,0,0,32,52Zm0,4a1,1,0,1,1,1-1A1,1,0,0,1,32,56Z" data-original="#000000" style="" class=""/><path d="M42,52a3,3,0,1,0,3,3A3,3,0,0,0,42,52Zm0,4a1,1,0,1,1,1-1A1,1,0,0,1,42,56Z" data-original="#000000" style="" class=""/><path d="M52,52a3,3,0,1,0,3,3A3,3,0,0,0,52,52Zm0,4a1,1,0,1,1,1-1A1,1,0,0,1,52,56Z" data-original="#000000" style="" class=""/><path d="M42,14V10a1,1,0,0,0-.757-.97L39.95,8.707l.686-1.143a1,1,0,0,0-.151-1.221L37.657,3.515a1,1,0,0,0-1.222-.151l-1.142.686L34.97,2.758A1,1,0,0,0,34,2H30a1,1,0,0,0-.97.758L28.707,4.05l-1.142-.686a1,1,0,0,0-1.222.151L23.515,6.343a1,1,0,0,0-.151,1.221l.686,1.143-1.293.323A1,1,0,0,0,22,10v4a1,1,0,0,0,.757.97l1.292.323-.685,1.142a1,1,0,0,0,.151,1.221l2.828,2.829a1,1,0,0,0,1.222.151l1.142-.686.323,1.292A1,1,0,0,0,30,22h1v2.184A3,3,0,0,0,29,27v1.7l-1.832,2.748a1,1,0,0,0-.063,1l2,4a1,1,0,0,0,1.79-.894l-1.741-3.481L30.535,30h2.93l1.381,2.072L33.1,35.553a1,1,0,0,0,1.79.894l2-4a1,1,0,0,0-.063-1L35,28.7V27a3,3,0,0,0-2-2.816V22h1a1,1,0,0,0,.97-.758l.323-1.292,1.142.686a1,1,0,0,0,1.222-.151l2.828-2.829a1,1,0,0,0,.151-1.221l-.685-1.142,1.292-.323A1,1,0,0,0,42,14ZM33,28H31V27a1,1,0,0,1,2,0Zm7-14.781-1.844.462a1,1,0,0,0-.615,1.484l.978,1.629L36.8,18.519l-1.63-.978a1,1,0,0,0-1.485.615L33.219,20H30.781l-.461-1.844a1,1,0,0,0-1.485-.615l-1.63.978-1.724-1.725.978-1.629a1,1,0,0,0-.615-1.484L24,13.219V10.781l1.844-.462a1,1,0,0,0,.615-1.484l-.978-1.63L27.205,5.48l1.63.979a1,1,0,0,0,1.485-.615L30.781,4h2.438l.461,1.844a1,1,0,0,0,1.485.615L36.8,5.48l1.724,1.725-.978,1.63a1,1,0,0,0,.615,1.484L40,10.781Z" data-original="#000000" style="" class=""/><path d="M32,8a4,4,0,1,0,4,4A4,4,0,0,0,32,8Zm0,6a2,2,0,1,1,2-2A2,2,0,0,1,32,14Z" data-original="#000000" style="" class=""/><path d="M5,15h5v6.184A3,3,0,0,0,8,24v1.7L6.168,28.445a1,1,0,0,0-.063,1l2,4a1,1,0,0,0,1.79-.894L8.154,29.072,9.535,27h2.93l1.381,2.072-1.741,3.481a1,1,0,0,0,1.79.894l2-4a1,1,0,0,0-.063-1L14,25.7V24a3,3,0,0,0-2-2.816V15h7.871V13H5a1,1,0,0,1,0-2H19.968V9H5a3,3,0,0,0,0,6Zm7,10H10V24a1,1,0,0,1,2,0Z" data-original="#000000" style="" class=""/><path d="M59,9H43.968v2H59a1,1,0,0,1,0,2H44v2h8v6.184A3,3,0,0,0,50,24v1.7l-1.832,2.748a1,1,0,0,0-.063,1l2,4a1,1,0,0,0,1.79-.894l-1.741-3.481L51.535,27h2.93l1.381,2.072-1.741,3.481a1,1,0,0,0,1.79.894l2-4a1,1,0,0,0-.063-1L56,25.7V24a3,3,0,0,0-2-2.816V15h5a3,3,0,0,0,0-6ZM54,25H52V24a1,1,0,0,1,2,0Z" data-original="#000000" style="" class=""/></g></g></svg>
