<svg id="Layer_1" data-name="Layer 1" xmlns="http://www.w3.org/2000/svg" viewBox="0 0 54.55 46.07"><defs><style>.cls-1{fill:#fff;}</style></defs><path d="M15,33.82a1.8,1.8,0,0,1-.78-.17,1.89,1.89,0,0,1-1-1.06L9.66,23.2a1.94,1.94,0,0,1,0-1.46,1.91,1.91,0,0,1,1.06-1l12.35-4.69L28,29,15.68,33.7A2,2,0,0,1,15,33.82Zm7.31-16-11,4.2a.48.48,0,0,0-.28.26.53.53,0,0,0,0,.39l3.57,9.4a.51.51,0,0,0,.26.28.48.48,0,0,0,.39,0l11.05-4.19Z"/><path d="M10.44,33.33a2.5,2.5,0,0,1-2.33-1.61L6.42,27.25A2.48,2.48,0,0,1,7.86,24L11,22.84,14.49,32l-3.17,1.21A2.48,2.48,0,0,1,10.44,33.33Zm-.23-8.7-1.86.71a1.1,1.1,0,0,0-.64,1.41l1.7,4.48a1.1,1.1,0,0,0,1.41.64l1.86-.71Z"/><path d="M42.38,32l-.19,0h0L26.63,29.22,21.92,16.83,31.75,4.47a1.14,1.14,0,0,1,2,.31l9.73,25.64a1.15,1.15,0,0,1-.19,1.13A1.11,1.11,0,0,1,42.38,32ZM27.65,28,42,30.5,32.58,5.68l-9.07,11.4Z"/><path d="M21.39,42a.93.93,0,0,1-.84-.52l-4.76-9.35,7.84-3,.93,2.45a2.89,2.89,0,0,1-.37,2.71l-.47.66,2.22,4.24A.91.91,0,0,1,26,40a1,1,0,0,1-.55.55L21.72,42A1,1,0,0,1,21.39,42Zm-3.66-9.12,3.87,7.61,2.87-1.09-2.39-4.55,1-1.36a1.47,1.47,0,0,0,.19-1.4L22.82,31Z"/><rect x="42.61" y="14.53" width="4.41" height="1.39" transform="matrix(0.93, -0.35, 0.35, 0.93, -2.49, 16.89)"/><rect x="38.19" y="7.7" width="4.41" height="1.39" transform="translate(6.38 31.75) rotate(-46.2)"/><rect x="45.35" y="21.07" width="1.39" height="4.41" transform="translate(19.12 67.29) rotate(-85.36)"/><rect x="13.96" y="22.04" width="7.3" height="1.39" transform="translate(-6.92 7.73) rotate(-20.78)"/></svg>