<svg width="32" height="32" viewBox="0 0 32 32" fill="none" xmlns="http://www.w3.org/2000/svg">
<g clip-path="url(#clip0_74_1381)">
<path d="M22.4134 4.27551H20.81C20.0553 4.27551 19.4235 4.81083 19.2738 5.52164C18.0429 6.13745 12.0023 8.99764 4.04794 10.0446C3.60125 10.1034 3.21769 10.3461 2.96969 10.6888H1.56994C0.70425 10.6889 0 11.3931 0 12.2588V15.4655C0 16.3312 0.70425 17.0354 1.56994 17.0354H2.96981C3.21775 17.3781 3.60138 17.6209 4.048 17.6797C4.12794 17.6903 4.20731 17.7013 4.28694 17.7123L6.74869 26.5746C6.93675 27.2516 7.55875 27.7244 8.26138 27.7244H11.1882L11.1898 27.7245L11.1918 27.7244H11.5709V27.225C11.5709 26.6917 11.5709 26.7223 11.5709 26.7223L9.33525 18.6743C14.592 19.9552 18.3343 21.7326 19.2739 22.2027C19.4235 22.9135 20.0554 23.4488 20.8101 23.4488H22.4134C23.2791 23.4488 23.9833 22.7446 23.9833 21.8789V5.84545C23.9833 4.97976 23.2791 4.27551 22.4134 4.27551ZM2.67225 16.0333H1.56994C1.25681 16.0333 1.00206 15.7786 1.00206 15.4654V12.2588C1.00206 11.9456 1.25681 11.6909 1.56994 11.6909H2.67225V16.0333ZM10.5308 26.7223H8.26138C8.00725 26.7223 7.78231 26.5513 7.71431 26.3064L5.37156 17.8732C6.35806 18.0312 7.31063 18.2151 8.2235 18.4163L10.5308 26.7223ZM22.9812 21.8789C22.9812 22.192 22.7264 22.4468 22.4133 22.4468H20.81C20.4969 22.4468 20.2421 22.192 20.2421 21.8789V21.8748V10.1213C20.2421 9.84458 20.0178 9.6202 19.7411 9.6202C19.4643 9.6202 19.24 9.84451 19.24 10.1213V21.0723C17.2673 20.1355 11.5164 17.652 4.17869 16.6862C3.89106 16.6484 3.67425 16.4061 3.67425 16.1226V11.6017C3.67425 11.3183 3.89113 11.076 4.17869 11.0381C11.5164 10.0724 17.2673 7.58883 19.24 6.65214V7.98345C19.24 8.26014 19.4643 8.48451 19.7411 8.48451C20.0178 8.48451 20.2421 8.2602 20.2421 7.98345V5.84895V5.84708V5.84545C20.2421 5.53233 20.4969 5.27758 20.81 5.27758H22.4133C22.7264 5.27758 22.9812 5.53233 22.9812 5.84545V21.8789Z" fill="#220047"/>
<path d="M31.4989 13.3611H26.1544C25.8778 13.3611 25.6534 13.5855 25.6534 13.8622C25.6534 14.1389 25.8777 14.3633 26.1544 14.3633H31.4989C31.7756 14.3633 32 14.139 32 13.8622C32 13.5855 31.7757 13.3611 31.4989 13.3611Z" fill="#220047"/>
<path d="M30.3562 8.32031C30.2472 8.06594 29.9526 7.94819 29.6983 8.05719L29.1638 8.28625C28.9095 8.39525 28.7916 8.68981 28.9007 8.94413C28.9821 9.13413 29.1671 9.24788 29.3614 9.24788C29.4273 9.24788 29.4942 9.23481 29.5585 9.20725L30.093 8.97819C30.3473 8.86919 30.4652 8.57469 30.3562 8.32031Z" fill="#220047"/>
<path d="M28.2183 9.2365C28.1093 8.98219 27.8147 8.86438 27.5604 8.97338L25.9571 9.66057C25.7028 9.76957 25.5849 10.0641 25.694 10.3184C25.7754 10.5084 25.9604 10.6222 26.1547 10.6222C26.2206 10.6222 26.2875 10.6091 26.3519 10.5816L27.9552 9.89438C28.2095 9.78538 28.3274 9.49082 28.2183 9.2365Z" fill="#220047"/>
<path d="M30.0929 18.7461L29.5569 18.5164C29.3026 18.4073 29.008 18.5252 28.899 18.7795C28.79 19.0338 28.9078 19.3284 29.1622 19.4374L29.6982 19.6671C29.7625 19.6946 29.8294 19.7077 29.8953 19.7077C30.0897 19.7077 30.2746 19.5939 30.356 19.4039C30.4651 19.1496 30.3473 18.8551 30.0929 18.7461Z" fill="#220047"/>
<path d="M27.9545 17.8295L26.3519 17.1427C26.0976 17.0338 25.803 17.1515 25.694 17.4058C25.585 17.6602 25.7028 17.9547 25.9571 18.0637L27.5597 18.7505C27.624 18.7781 27.691 18.7912 27.7568 18.7912C27.9513 18.7912 28.1361 18.6774 28.2176 18.4874C28.3266 18.2331 28.2088 17.9385 27.9545 17.8295Z" fill="#220047"/>
</g>
<defs>
<clipPath id="clip0_74_1381">
<rect width="32" height="32" fill="white"/>
</clipPath>
</defs>
</svg>
