<svg width="32" height="32" viewBox="0 0 32 32" fill="none" xmlns="http://www.w3.org/2000/svg">
<path d="M10.0008 25.3106C11.4853 25.3106 12.9141 24.9511 14.1911 24.2772L16.4935 28.232C17.7022 30.453 20.9902 30.8697 22.7293 29.0391C24.5647 27.3017 24.1399 24.0155 21.9221 22.8033C21.9222 22.8033 17.9574 20.4951 17.9574 20.4951C19.0889 18.3296 19.3247 15.744 18.5101 13.377C18.3709 12.8203 17.5215 12.925 17.5257 13.5057C19.3828 18.6955 15.5718 24.3498 10.0007 24.3106C5.70232 24.3992 1.91161 20.6096 2.00088 16.3106C1.91839 10.8471 7.62584 6.87115 12.7304 8.79071C13.3486 9.00836 13.6864 8.08273 13.0711 7.85067C7.33018 5.69131 0.90687 10.1645 1.00087 16.3107C0.90101 21.1465 5.16444 25.4109 10.0008 25.3106ZM16.3643 22.6739C16.7713 22.2669 17.1296 21.8228 17.4454 21.3541L21.4188 23.6676C23.078 24.5741 23.3953 27.0325 22.0222 28.3321C20.7221 29.7009 18.2607 29.3891 17.3577 27.729C17.3577 27.7291 15.0476 23.7609 15.0476 23.7609C15.5144 23.4432 15.9563 23.082 16.3643 22.6739Z" fill="#220047"/>
<path d="M12.3934 11.3558C12.9879 11.6328 13.4161 10.7505 12.8284 10.4554C10.3441 9.25497 7.35997 9.75985 5.40172 11.7125C1.31984 15.7877 4.28462 22.8494 10.0007 22.8067C15.1884 22.8637 18.383 16.8151 15.3084 12.5562C14.9263 12.025 14.1177 12.5994 14.4931 13.1349C16.046 15.3241 15.7933 18.2965 13.8929 20.2017C11.7464 22.3429 8.25474 22.3424 6.10972 20.2027C1.82161 15.7491 6.78724 8.76614 12.3934 11.3558Z" fill="#220047"/>
<path d="M9.6778 16.6925C9.88767 16.8701 10.2037 16.8452 10.3826 16.6334L14.6359 11.6058C15.3011 11.9574 16.2113 11.8341 16.7647 11.3477L19.5693 13.3867C19.261 14.3206 20.0204 15.3272 21.0008 15.3106C22.0975 15.3392 22.8642 14.0748 22.326 13.1228L27.5008 7.57934V9.31064C27.5111 9.96625 28.4899 9.96905 28.5008 9.31061V6.31064C28.4899 6.03537 28.2726 5.82239 28.0008 5.81064H25.0008C24.345 5.82144 24.3424 6.79938 25.0008 6.81064C25.0008 6.81064 26.8497 6.81064 26.8497 6.81064L21.5982 12.4363C21.1471 12.2269 20.5492 12.2886 20.153 12.5751L17.3576 10.5428C17.8948 9.27588 16.8809 7.78158 15.5008 7.81064C13.9187 7.76196 12.9233 9.71396 13.8706 10.9617L9.61897 15.9879C9.44074 16.1983 9.46711 16.5142 9.6778 16.6925ZM21.0008 13.3106C21.6579 13.3223 21.6578 14.299 21.0008 14.3106C20.3437 14.2989 20.3438 13.3222 21.0008 13.3106ZM15.5008 8.81063C16.2956 8.78591 16.7927 9.77077 16.3104 10.393C15.774 11.1741 14.4833 10.7665 14.5008 9.8106C14.5008 9.25911 14.9493 8.81063 15.5008 8.81063Z" fill="#220047"/>
<path d="M28.0009 1.81064H9.50085C7.84656 1.81064 6.50085 3.15634 6.50085 4.81064V6.78061C6.51007 7.43854 7.49454 7.43265 7.50085 6.78058V4.81064C7.50085 3.70785 8.39807 2.81064 9.50085 2.81064H28.0009C29.1039 2.81064 30.0009 3.70785 30.0009 4.81064V19.8106C30.0009 20.9137 29.1039 21.8106 28.0009 21.8106H22.9711C22.6947 21.8106 22.4711 22.0343 22.4711 22.3106C22.4711 22.587 22.6947 22.8106 22.9711 22.8106H28.0009C29.6551 22.8106 31.0009 21.4649 31.0009 19.8106V4.81064C31.0009 3.15634 29.6551 1.81064 28.0009 1.81064Z" fill="#220047"/>
<path d="M23.0008 19.3106C22.3452 19.321 22.3422 20.2997 23.0008 20.3106H28.5008C29.1564 20.3003 29.1594 19.3216 28.5008 19.3106H23.0008Z" fill="#220047"/>
<path d="M28.5008 17.3106H25.5008C24.8444 17.3212 24.8429 18.2997 25.5008 18.3106H28.5008C29.1572 18.3 29.1587 17.3215 28.5008 17.3106Z" fill="#220047"/>
<path d="M13.0008 5.31064C13.6569 5.29983 13.659 4.32184 13.0008 4.31064H9.00085C8.34484 4.32144 8.34274 5.29941 9.00088 5.31064H13.0008Z" fill="#220047"/>
</svg>
