<svg width="56" height="57" viewBox="0 0 56 57" fill="none" xmlns="http://www.w3.org/2000/svg">
<g filter="url(#filter0_b_7891_20005)">
<rect width="56" height="56" rx="8" fill="#25486D" fill-opacity="0.7"/>
<g filter="url(#filter1_d_7891_20005)">
<circle cx="26.8423" cy="27.8423" r="19.8423" fill="#132742"/>
</g>
<mask id="path-4-inside-1_7891_20005" fill="white">
<path d="M32.9937 20H21.0232C19.9104 20 19 20.9104 19 22.0232V33.9768C19 35.0896 19.9104 36 21.0232 36H32.9768C34.0896 36 35 35.0896 35 33.9768V22.0232C35.0169 20.9104 34.1064 20 32.9937 20ZM33.7018 33.9937C33.7018 34.3815 33.3815 34.7187 32.9768 34.7187H21.0232C20.6354 34.7187 20.2982 34.3983 20.2982 33.9937V22.0232C20.2982 21.6354 20.6185 21.2982 21.0232 21.2982H32.9768C33.3646 21.2982 33.7018 21.6185 33.7018 22.0232V33.9937Z"/>
</mask>
<path d="M32.9937 20H21.0232C19.9104 20 19 20.9104 19 22.0232V33.9768C19 35.0896 19.9104 36 21.0232 36H32.9768C34.0896 36 35 35.0896 35 33.9768V22.0232C35.0169 20.9104 34.1064 20 32.9937 20ZM33.7018 33.9937C33.7018 34.3815 33.3815 34.7187 32.9768 34.7187H21.0232C20.6354 34.7187 20.2982 34.3983 20.2982 33.9937V22.0232C20.2982 21.6354 20.6185 21.2982 21.0232 21.2982H32.9768C33.3646 21.2982 33.7018 21.6185 33.7018 22.0232V33.9937Z" fill="url(#paint0_linear_7891_20005)"/>
<path d="M35 22.0232L33.0002 21.9929L33 22.008V22.0232H35ZM32.9937 18H21.0232V22H32.9937V18ZM21.0232 18C18.8059 18 17 19.8059 17 22.0232H21C21 22.0219 21.0001 22.0211 21.0001 22.0208C21.0001 22.0206 21.0001 22.0205 21.0001 22.0204C21.0001 22.0204 21.0002 22.0204 21.0002 22.0203C21.0002 22.0203 21.0002 22.0203 21.0002 22.0203C21.0002 22.0203 21.0002 22.0203 21.0002 22.0203C21.0002 22.0203 21.0002 22.0203 21.0002 22.0203C21.0002 22.0202 21.0003 22.02 21.0004 22.0196C21.0011 22.0179 21.0035 22.0135 21.0085 22.0085C21.0135 22.0035 21.0179 22.0011 21.0196 22.0004C21.02 22.0003 21.0202 22.0002 21.0203 22.0002C21.0203 22.0002 21.0203 22.0002 21.0203 22.0002C21.0203 22.0002 21.0203 22.0002 21.0203 22.0002C21.0203 22.0002 21.0203 22.0002 21.0203 22.0002C21.0204 22.0002 21.0204 22.0001 21.0204 22.0001C21.0205 22.0001 21.0206 22.0001 21.0208 22.0001C21.0211 22.0001 21.0219 22 21.0232 22V18ZM17 22.0232V33.9768H21V22.0232H17ZM17 33.9768C17 36.1941 18.8059 38 21.0232 38V34C21.0219 34 21.0211 33.9999 21.0208 33.9999C21.0206 33.9999 21.0205 33.9999 21.0204 33.9999C21.0204 33.9999 21.0204 33.9998 21.0203 33.9998C21.0203 33.9998 21.0203 33.9998 21.0203 33.9998C21.0203 33.9998 21.0203 33.9998 21.0203 33.9998C21.0203 33.9998 21.0203 33.9998 21.0203 33.9998C21.0202 33.9998 21.02 33.9997 21.0196 33.9996C21.0179 33.9989 21.0135 33.9965 21.0085 33.9915C21.0035 33.9865 21.0011 33.9821 21.0004 33.9804C21.0003 33.98 21.0002 33.9798 21.0002 33.9797C21.0002 33.9797 21.0002 33.9797 21.0002 33.9797C21.0002 33.9797 21.0002 33.9797 21.0002 33.9797C21.0002 33.9797 21.0002 33.9797 21.0002 33.9797C21.0002 33.9796 21.0001 33.9796 21.0001 33.9796C21.0001 33.9795 21.0001 33.9794 21.0001 33.9792C21.0001 33.9789 21 33.9781 21 33.9768H17ZM21.0232 38H32.9768V34H21.0232V38ZM32.9768 38C35.1941 38 37 36.1941 37 33.9768H33C33 33.9781 32.9999 33.9789 32.9999 33.9792C32.9999 33.9794 32.9999 33.9795 32.9999 33.9796C32.9999 33.9796 32.9999 33.9796 32.9998 33.9797C32.9998 33.9797 32.9998 33.9797 32.9998 33.9797C32.9998 33.9797 32.9998 33.9797 32.9998 33.9797C32.9998 33.9797 32.9998 33.9797 32.9998 33.9797C32.9998 33.9798 32.9997 33.98 32.9996 33.9804C32.9989 33.9821 32.9965 33.9865 32.9915 33.9915C32.9865 33.9965 32.9821 33.9989 32.9804 33.9996C32.98 33.9997 32.9798 33.9998 32.9797 33.9998C32.9797 33.9998 32.9797 33.9998 32.9797 33.9998C32.9797 33.9998 32.9797 33.9998 32.9797 33.9998C32.9797 33.9998 32.9797 33.9998 32.9797 33.9998C32.9796 33.9998 32.9796 33.9999 32.9796 33.9999C32.9795 33.9999 32.9794 33.9999 32.9792 33.9999C32.9789 33.9999 32.9781 34 32.9768 34V38ZM37 33.9768V22.0232H33V33.9768H37ZM36.9998 22.0535C37.0338 19.8066 35.205 18 32.9937 18V22C32.9961 22 32.9968 22.0002 32.9964 22.0001C32.9962 22.0001 32.996 22 32.9962 22.0001C32.9971 22.0005 32.9995 22.0018 33.0022 22.0044C33.0047 22.007 33.0043 22.0077 33.0029 22.0043C33.0021 22.0024 33.0013 22 33.0008 21.9972C33.0002 21.9942 33.0002 21.9926 33.0002 21.9929L36.9998 22.0535ZM31.7018 33.9937C31.7018 33.3072 32.2468 32.7187 32.9768 32.7187V36.7187C34.5161 36.7187 35.7018 35.4557 35.7018 33.9937H31.7018ZM32.9768 32.7187H21.0232V36.7187H32.9768V32.7187ZM21.0232 32.7187C21.7097 32.7187 22.2982 33.2637 22.2982 33.9937H18.2982C18.2982 35.5329 19.5611 36.7187 21.0232 36.7187V32.7187ZM22.2982 33.9937V22.0232H18.2982V33.9937H22.2982ZM22.2982 22.0232C22.2982 22.7097 21.7532 23.2982 21.0232 23.2982V19.2982C19.4839 19.2982 18.2982 20.5611 18.2982 22.0232H22.2982ZM21.0232 23.2982H32.9768V19.2982H21.0232V23.2982ZM32.9768 23.2982C32.2903 23.2982 31.7018 22.7532 31.7018 22.0232H35.7018C35.7018 20.4839 34.4389 19.2982 32.9768 19.2982V23.2982ZM31.7018 22.0232V33.9937H35.7018V22.0232H31.7018Z" fill="url(#paint1_linear_7891_20005)" mask="url(#path-4-inside-1_7891_20005)"/>
<path d="M27.4023 26.1398L30.2055 28.0124L27.4023 29.8773V26.1398Z" fill="url(#paint2_linear_7891_20005)" stroke="url(#paint3_linear_7891_20005)" stroke-width="2"/>
<mask id="path-7-inside-2_7891_20005" fill="white">
<path d="M25.2046 24.7207H24.0412C23.8895 24.7207 23.7715 24.8387 23.7715 24.9905V31.0094C23.7715 31.1612 23.8895 31.2792 24.0412 31.2792H25.2046C25.3563 31.2792 25.4743 31.1612 25.4743 31.0094V24.9905C25.4743 24.8556 25.3563 24.7207 25.2046 24.7207Z"/>
</mask>
<path d="M25.2046 24.7207H24.0412C23.8895 24.7207 23.7715 24.8387 23.7715 24.9905V31.0094C23.7715 31.1612 23.8895 31.2792 24.0412 31.2792H25.2046C25.3563 31.2792 25.4743 31.1612 25.4743 31.0094V24.9905C25.4743 24.8556 25.3563 24.7207 25.2046 24.7207Z" fill="url(#paint4_linear_7891_20005)"/>
<path d="M25.2046 22.7207H24.0412V26.7207H25.2046V22.7207ZM24.0412 22.7207C22.7849 22.7207 21.7715 23.7341 21.7715 24.9905H25.7715C25.7715 25.9433 24.9941 26.7207 24.0412 26.7207V22.7207ZM21.7715 24.9905V31.0094H25.7715V24.9905H21.7715ZM21.7715 31.0094C21.7715 32.2657 22.7849 33.2792 24.0412 33.2792V29.2792C24.9941 29.2792 25.7715 30.0566 25.7715 31.0094H21.7715ZM24.0412 33.2792H25.2046V29.2792H24.0412V33.2792ZM25.2046 33.2792C26.4609 33.2792 27.4743 32.2657 27.4743 31.0094H23.4743C23.4743 30.0566 24.2517 29.2792 25.2046 29.2792V33.2792ZM27.4743 31.0094V24.9905H23.4743V31.0094H27.4743ZM27.4743 24.9905C27.4743 23.8321 26.5402 22.7207 25.2046 22.7207V26.7207C24.6679 26.7207 24.2318 26.4804 23.9524 26.1888C23.6844 25.9092 23.4743 25.4942 23.4743 24.9905H27.4743Z" fill="url(#paint5_linear_7891_20005)" mask="url(#path-7-inside-2_7891_20005)"/>
<rect x="0.25" y="0.25" width="55.5" height="55.5" rx="7.75" stroke="url(#paint6_linear_7891_20005)" stroke-width="0.5"/>
</g>
<defs>
<filter id="filter0_b_7891_20005" x="-24" y="-24" width="104" height="104" filterUnits="userSpaceOnUse" color-interpolation-filters="sRGB">
<feFlood flood-opacity="0" result="BackgroundImageFix"/>
<feGaussianBlur in="BackgroundImageFix" stdDeviation="12"/>
<feComposite in2="SourceAlpha" operator="in" result="effect1_backgroundBlur_7891_20005"/>
<feBlend mode="normal" in="SourceGraphic" in2="effect1_backgroundBlur_7891_20005" result="shape"/>
</filter>
<filter id="filter1_d_7891_20005" x="6" y="7" width="49.6836" height="49.6836" filterUnits="userSpaceOnUse" color-interpolation-filters="sRGB">
<feFlood flood-opacity="0" result="BackgroundImageFix"/>
<feColorMatrix in="SourceAlpha" type="matrix" values="0 0 0 0 0 0 0 0 0 0 0 0 0 0 0 0 0 0 127 0" result="hardAlpha"/>
<feMorphology radius="1" operator="dilate" in="SourceAlpha" result="effect1_dropShadow_7891_20005"/>
<feOffset dx="4" dy="4"/>
<feGaussianBlur stdDeviation="2"/>
<feComposite in2="hardAlpha" operator="out"/>
<feColorMatrix type="matrix" values="0 0 0 0 0 0 0 0 0 0 0 0 0 0 0 0 0 0 0.2 0"/>
<feBlend mode="normal" in2="BackgroundImageFix" result="effect1_dropShadow_7891_20005"/>
<feBlend mode="normal" in="SourceGraphic" in2="effect1_dropShadow_7891_20005" result="shape"/>
</filter>
<linearGradient id="paint0_linear_7891_20005" x1="19" y1="20" x2="37.0826" y2="34.1998" gradientUnits="userSpaceOnUse">
<stop stop-color="#6DF0C2" stop-opacity="0.8"/>
<stop offset="1" stop-color="#6DF0C2" stop-opacity="0.3"/>
</linearGradient>
<linearGradient id="paint1_linear_7891_20005" x1="19" y1="23.7522" x2="36.2486" y2="25.8798" gradientUnits="userSpaceOnUse">
<stop stop-color="#6DF0C2" stop-opacity="0.4"/>
<stop offset="0.51532" stop-color="#6DF0C2"/>
<stop offset="1" stop-color="#6DF0C2" stop-opacity="0.4"/>
</linearGradient>
<linearGradient id="paint2_linear_7891_20005" x1="26.4023" y1="24.7305" x2="33.2362" y2="28.9736" gradientUnits="userSpaceOnUse">
<stop stop-color="#6DF0C2" stop-opacity="0.8"/>
<stop offset="1" stop-color="#6DF0C2" stop-opacity="0.3"/>
</linearGradient>
<linearGradient id="paint3_linear_7891_20005" x1="26.4023" y1="26.2675" x2="32.0206" y2="26.8155" gradientUnits="userSpaceOnUse">
<stop stop-color="#6DF0C2" stop-opacity="0.4"/>
<stop offset="0.51532" stop-color="#6DF0C2"/>
<stop offset="1" stop-color="#6DF0C2" stop-opacity="0.4"/>
</linearGradient>
<linearGradient id="paint4_linear_7891_20005" x1="23.7715" y1="24.7207" x2="26.7585" y2="25.3297" gradientUnits="userSpaceOnUse">
<stop stop-color="#6DF0C2" stop-opacity="0.8"/>
<stop offset="1" stop-color="#6DF0C2" stop-opacity="0.3"/>
</linearGradient>
<linearGradient id="paint5_linear_7891_20005" x1="23.7715" y1="26.2588" x2="25.6332" y2="26.3184" gradientUnits="userSpaceOnUse">
<stop stop-color="#6DF0C2" stop-opacity="0.4"/>
<stop offset="0.51532" stop-color="#6DF0C2"/>
<stop offset="1" stop-color="#6DF0C2" stop-opacity="0.4"/>
</linearGradient>
<linearGradient id="paint6_linear_7891_20005" x1="-2.07636e-07" y1="13.1327" x2="60.3691" y2="20.5793" gradientUnits="userSpaceOnUse">
<stop stop-color="#6DF0C2" stop-opacity="0.4"/>
<stop offset="0.51532" stop-color="#6DF0C2"/>
<stop offset="1" stop-color="#6DF0C2" stop-opacity="0.4"/>
</linearGradient>
</defs>
</svg>
