<svg width="32" height="32" viewBox="0 0 32 32" fill="none" xmlns="http://www.w3.org/2000/svg">
<path d="M28.976 19.5465H27.062C26.4973 19.5465 26.0379 19.9772 26.0379 20.5065V20.814C24.1305 20.2967 22.0689 20.4561 20.2847 21.2787L15.7748 23.3473L8.08079 19.4344C6.07932 18.3597 3.78002 20.8851 6.01361 22.6329C6.31264 22.8899 13.84 29.3576 13.8829 29.3877C14.7623 30.0165 15.9677 30.1746 17.0292 29.7986L23.35 27.5615C24.2308 27.2848 25.1739 27.3096 26.0377 27.6255V27.8897C26.0377 28.419 26.4972 28.8497 27.0618 28.8497H28.9758C29.5405 28.8497 29.9999 28.419 29.9999 27.8897V20.5064C30.0001 19.9772 29.5406 19.5465 28.976 19.5465ZM26.0379 26.6713C24.9774 26.3662 23.832 26.4277 23.0189 26.7157L16.6895 28.9557C15.9442 29.2198 15.1022 29.1158 14.4812 28.6822C14.1022 28.3581 6.72906 22.0253 6.65445 21.9613C5.2734 20.7692 6.67776 19.7198 7.61271 20.2212L14.7205 23.8362C12.6121 24.9462 14.2984 27.9987 16.4922 26.9618L22.4164 24.2453C22.9865 23.9838 22.5657 23.1744 21.994 23.4358L16.0647 26.1548C14.9712 26.672 14.1344 25.1176 15.2235 24.6031L20.7078 22.0877C22.3616 21.3252 24.2861 21.2092 26.0377 21.7559V26.6713H26.0379ZM29.0389 27.8898C29.0389 27.9223 29.0107 27.9488 28.976 27.9488H27.062C27.0272 27.9488 26.999 27.9223 26.999 27.8898V20.5065C26.999 20.474 27.0272 20.4475 27.062 20.4475H28.976C29.0107 20.4475 29.0389 20.474 29.0389 20.5065V27.8898Z" fill="#220047"/>
<path d="M5.9622 11.4934V11.1873C7.89374 11.711 9.95035 11.5349 11.7154 10.7213L16.2253 8.6527L23.9193 12.5656C25.9265 13.6433 28.2128 11.1093 25.9865 9.36708C25.6874 9.11007 18.1601 2.64235 18.1172 2.61228C17.2371 1.98305 16.0313 1.8256 14.9709 2.20143L8.64992 4.43839C7.76927 4.71499 6.82603 4.69033 5.9622 4.37441V4.1102C5.9622 3.58086 5.50277 3.15018 4.9381 3.15018H3.0241C2.45943 3.15018 2 3.58086 2 4.1102V11.4934C2 12.0228 2.45943 12.4535 3.0241 12.4535H4.9381C5.50277 12.4535 5.9622 12.0228 5.9622 11.4934ZM5.9622 5.32869C6.94077 5.61025 7.98409 5.59989 8.96506 5.28972C8.97731 5.28578 15.2984 3.04848 15.3105 3.0442C16.0558 2.77998 16.8977 2.88393 17.5189 3.31765C17.8978 3.64179 25.271 9.97458 25.3456 10.0386C26.7267 11.2306 25.3224 12.28 24.3873 11.7787L17.2796 8.16369C19.4177 7.038 17.6602 4.02066 15.5078 5.03811L9.58367 7.75463C9.01323 8.01626 9.43494 8.8257 10.0061 8.56407L15.9354 5.84507C17.0496 5.3181 17.8421 6.89339 16.7765 7.39682L11.2921 9.9123C9.63834 10.6747 7.71389 10.7907 5.9622 10.2441V5.32869V5.32869ZM5.00105 11.4934C5.00105 11.526 4.97282 11.5525 4.9381 11.5525H3.0241C2.98938 11.5525 2.96114 11.526 2.96114 11.4934V4.1102C2.96114 4.07765 2.98938 4.05118 3.0241 4.05118H4.9381C4.97282 4.05118 5.00105 4.07765 5.00105 4.1102V11.4934Z" fill="#220047"/>
<path d="M15.927 12.5937C13.9987 10.763 11.7555 11.0889 10.4401 12.3321C9.00631 13.6888 9.00619 15.8975 10.4403 17.2558L15.1224 21.6894C15.5703 22.116 16.2936 22.1072 16.7314 21.6902C21.5371 17.1382 20.8093 17.8271 21.4148 17.2553C22.8469 15.8974 22.8468 13.6888 21.4146 12.3322C20.1216 11.1075 17.8752 10.7485 15.927 12.5937ZM20.7314 12.9662C21.795 13.9735 21.795 15.6134 20.7319 16.6213L16.0472 21.0574C15.9809 21.1205 15.8747 21.1216 15.8064 21.0566C11.1246 16.6219 11.9313 17.3856 11.1231 16.6219C10.0585 15.6134 10.0584 13.9736 11.1228 12.9665C12.2 11.9486 13.9152 11.9683 14.9682 12.9658C15.6069 13.5722 15.667 13.6851 15.9264 13.6852C15.9266 13.6852 15.9266 13.6852 15.9267 13.6852C16.1862 13.6852 16.2467 13.572 16.8861 12.9663C17.9266 11.9809 19.6523 11.9438 20.7314 12.9662Z" fill="#220047"/>
<path d="M16.4075 15.0824C16.4075 14.4871 15.4464 14.4864 15.4464 15.0824V16.311H14.1357C13.5008 16.311 13.4999 17.212 14.1357 17.212H15.4464V18.4407C15.4464 19.036 16.4075 19.0367 16.4075 18.4407V17.212H17.7183C18.3532 17.212 18.3541 16.311 17.7183 16.311H16.4075V15.0824Z" fill="#220047"/>
</svg>
