<svg width="59" height="48" viewBox="0 0 59 48" fill="none" xmlns="http://www.w3.org/2000/svg">
<path d="M57.1213 0H1.00213C0.736347 0 0.481452 0.105581 0.293516 0.293517C0.105581 0.481452 0 0.736347 0 1.00213V41.0872C0 41.353 0.105581 41.6079 0.293516 41.7958C0.481452 41.9838 0.736347 42.0894 1.00213 42.0894H4.00851V46.0979C4.00851 46.3637 4.11409 46.6185 4.30203 46.8065C4.48996 46.9944 4.74486 47.1 5.01064 47.1H13.0277C13.2934 47.1 13.5483 46.9944 13.7363 46.8065C13.9242 46.6185 14.0298 46.3637 14.0298 46.0979V42.0894H44.0936V46.0979C44.0936 46.3637 44.1992 46.6185 44.3872 46.8065C44.5751 46.9944 44.83 47.1 45.0958 47.1H53.1128C53.3786 47.1 53.6335 46.9944 53.8214 46.8065C54.0093 46.6185 54.1149 46.3637 54.1149 46.0979V42.0894H57.1213C57.3871 42.0894 57.642 41.9838 57.8299 41.7958C58.0179 41.6079 58.1234 41.353 58.1234 41.0872V1.00213C58.1234 0.736347 58.0179 0.481452 57.8299 0.293517C57.642 0.105581 57.3871 0 57.1213 0ZM12.0255 45.0957H6.01277V42.0894H12.0255V45.0957ZM52.1107 45.0957H46.0979V42.0894H52.1107V45.0957ZM56.1192 40.0851H2.00426V2.00426H56.1192V40.0851Z" fill="#4CA5F5"/>
<path d="M18.0378 36.0765H52.1101C52.3759 36.0765 52.6308 35.971 52.8187 35.783C53.0067 35.5951 53.1123 35.3402 53.1123 35.0744V7.01482C53.1123 6.74904 53.0067 6.49415 52.8187 6.30621C52.6308 6.11828 52.3759 6.0127 52.1101 6.0127H18.0378C17.772 6.0127 17.5171 6.11828 17.3292 6.30621C17.1412 6.49415 17.0356 6.74904 17.0356 7.01482V35.0744C17.0356 35.3402 17.1412 35.5951 17.3292 35.783C17.5171 35.971 17.772 36.0765 18.0378 36.0765ZM19.0399 34.0723V22.0467H21.2245L22.0656 26.252C22.1095 26.4712 22.2254 26.6695 22.3949 26.8152C22.5645 26.961 22.7779 27.0459 23.0012 27.0564C23.2255 27.0716 23.4482 27.0089 23.6317 26.8789C23.8152 26.7489 23.9482 26.5596 24.0083 26.343L26.0548 19.5214L28.1011 26.343C28.1609 26.5421 28.2812 26.7178 28.4452 26.8456C28.6092 26.9734 28.8089 27.0471 29.0167 27.0564C29.225 27.069 29.432 27.0147 29.6074 26.9016C29.7828 26.7884 29.9175 26.6222 29.9919 26.4271L31.7441 22.0467H36.0761C36.3041 22.0467 36.5253 21.9689 36.7031 21.8262C36.881 21.6835 37.0048 21.4845 37.0543 21.2619L37.7758 18.015L39.0886 29.1793C39.116 29.4121 39.2242 29.6279 39.3944 29.7892C39.5645 29.9505 39.7858 30.047 40.0197 30.062C40.0413 30.063 40.0628 30.064 40.0844 30.064C40.3079 30.0639 40.525 29.9891 40.7011 29.8515C40.8772 29.7139 41.0023 29.5214 41.0565 29.3046L42.8713 22.0467H44.0931C44.2934 22.0467 44.489 21.9866 44.6549 21.8744C44.8207 21.7622 44.9492 21.6029 45.0238 21.417L46.0974 18.7321L47.1709 21.417C47.2455 21.6029 47.374 21.7622 47.5398 21.8744C47.7057 21.9866 47.9013 22.0467 48.1016 22.0467H51.108V34.0723H19.0399ZM51.108 8.01695V20.0425H48.7803L47.028 15.6616C46.9537 15.4755 46.8253 15.3159 46.6594 15.2035C46.4935 15.0912 46.2977 15.0311 46.0974 15.0311C45.897 15.0311 45.7012 15.0912 45.5353 15.2035C45.3694 15.3159 45.241 15.4755 45.1667 15.6616L43.4145 20.0425H42.0888C41.8654 20.0425 41.6484 20.1172 41.4723 20.2547C41.2961 20.3922 41.171 20.5846 41.1168 20.8014L40.4403 23.5078L39.0756 11.9085C39.048 11.6734 38.9379 11.4557 38.7651 11.2939C38.5922 11.1322 38.3677 11.0369 38.1312 11.0248C37.8953 11.0151 37.6634 11.0881 37.4755 11.2311C37.2877 11.3741 37.1556 11.5782 37.1022 11.8082L35.2722 20.0425H31.0654C30.8652 20.0426 30.6695 20.1026 30.5037 20.2148C30.3378 20.3271 30.2093 20.4864 30.1348 20.6722L29.1963 23.0188L27.0148 15.7463C26.953 15.5397 26.8262 15.3586 26.6532 15.2298C26.4803 15.1011 26.2704 15.0315 26.0548 15.0315C25.8392 15.0315 25.6293 15.1011 25.4564 15.2298C25.2834 15.3586 25.1566 15.5397 25.0948 15.7463L23.2431 21.9194L23.0289 20.8482C22.9835 20.621 22.8607 20.4166 22.6816 20.2697C22.5025 20.1228 22.278 20.0425 22.0463 20.0425H19.0399V8.01695H51.108Z" fill="#4CA5F5"/>
<path d="M6.01238 15.032H13.0273C13.2931 15.032 13.548 14.9265 13.7359 14.7385C13.9238 14.5506 14.0294 14.2957 14.0294 14.0299V8.01714C14.0294 7.75136 13.9238 7.49647 13.7359 7.30853C13.548 7.12059 13.2931 7.01501 13.0273 7.01501H6.01238C5.7466 7.01501 5.49171 7.12059 5.30377 7.30853C5.11584 7.49647 5.01025 7.75136 5.01025 8.01714V14.0299C5.01025 14.2957 5.11584 14.5506 5.30377 14.7385C5.49171 14.9265 5.7466 15.032 6.01238 15.032ZM7.01451 9.01927H12.0251V13.0278H7.01451V9.01927Z" fill="#4CA5F5"/>
<path d="M9.51983 35.0743C10.4117 35.0743 11.2836 34.8098 12.0252 34.3143C12.7668 33.8188 13.3448 33.1145 13.6861 32.2905C14.0275 31.4665 14.1168 30.5598 13.9428 29.685C13.7688 28.8102 13.3393 28.0067 12.7086 27.376C12.0779 26.7453 11.2744 26.3158 10.3996 26.1418C9.52483 25.9678 8.61811 26.0571 7.79409 26.3984C6.97007 26.7398 6.26577 27.3178 5.77025 28.0594C5.27474 28.801 5.01025 29.6728 5.01025 30.5648C5.01158 31.7604 5.48712 32.9066 6.33254 33.752C7.17797 34.5975 8.32422 35.073 9.51983 35.0743V35.0743ZM9.51983 28.0594C10.0153 28.0594 10.4997 28.2064 10.9117 28.4817C11.3237 28.7569 11.6448 29.1482 11.8344 29.606C12.0241 30.0638 12.0737 30.5675 11.977 31.0535C11.8803 31.5395 11.6417 31.9859 11.2914 32.3363C10.941 32.6867 10.4946 32.9253 10.0086 33.0219C9.52261 33.1186 9.01887 33.069 8.56109 32.8794C8.1033 32.6897 7.71202 32.3686 7.43673 31.9566C7.16144 31.5446 7.01451 31.0603 7.01451 30.5648C7.0152 29.9005 7.27937 29.2637 7.74906 28.794C8.21875 28.3243 8.85559 28.0601 9.51983 28.0594V28.0594Z" fill="#4CA5F5"/>
</svg>
