<svg width="49" height="52" viewBox="0 0 49 52" fill="none" xmlns="http://www.w3.org/2000/svg">
<path d="M46.9623 32.5863H43.6302C42.6471 32.5863 41.8473 33.3861 41.8473 34.3692V34.9402C38.5266 33.9795 34.9376 34.2755 31.8314 35.8032L23.9799 39.6448L10.5852 32.3779C7.10073 30.3821 3.0978 35.0722 6.98632 38.3181C7.50692 38.7954 20.6115 50.807 20.6862 50.8628C22.2173 52.0306 24.3158 52.3242 26.1637 51.6258L37.1679 47.4713C38.7013 46.9573 40.3432 47.0034 41.8471 47.5901V48.0808C41.8471 49.0638 42.6469 49.8636 43.63 49.8636H46.9621C47.9452 49.8636 48.745 49.0638 48.745 48.0808V34.3689C48.7452 33.3861 47.9454 32.5863 46.9623 32.5863ZM41.8473 45.818C40.001 45.2514 38.0071 45.3656 36.5915 45.9004L25.5724 50.0605C24.2748 50.5509 22.809 50.3579 21.7278 49.5526C21.0681 48.9507 8.23188 37.1897 8.10199 37.0709C5.69768 34.8569 8.14257 32.908 9.77026 33.8391L22.1445 40.5528C18.4739 42.6143 21.4097 48.2832 25.229 46.3575L35.5425 41.3125C36.535 40.827 35.8025 39.3238 34.8071 39.8092L24.4846 44.8588C22.581 45.8193 21.1242 42.9327 23.0202 41.977L32.568 37.3056C35.4472 35.8896 38.7975 35.6741 41.8471 36.6894V45.818H41.8473ZM47.0719 48.081C47.0719 48.1414 47.0228 48.1906 46.9623 48.1906H43.6302C43.5697 48.1906 43.5206 48.1414 43.5206 48.081V34.3692C43.5206 34.3087 43.5697 34.2596 43.6302 34.2596H46.9623C47.0228 34.2596 47.0719 34.3087 47.0719 34.3692V48.081Z" fill="#F4A36A"/>
<path d="M6.89794 17.6308V17.0623C10.2606 18.0349 13.8411 17.7077 16.9139 16.1967L24.7654 12.3551L38.1601 19.622C41.6545 21.6234 45.6349 16.9173 41.7589 13.6818C41.2383 13.2045 28.1337 1.19295 28.059 1.1371C26.5269 -0.0314859 24.4276 -0.323894 22.5815 0.374079L11.5771 4.52845C10.0439 5.04215 8.40181 4.99634 6.89794 4.40964V3.91895C6.89794 2.93589 6.09811 2.13606 5.11505 2.13606H1.78289C0.799834 2.13606 0 2.93589 0 3.91895V17.6308C0 18.6138 0.799834 19.4136 1.78289 19.4136H5.11505C6.09811 19.4136 6.89794 18.6138 6.89794 17.6308ZM6.89794 6.18187C8.60156 6.70478 10.4179 6.68553 12.1257 6.1095C12.1471 6.10218 23.1517 1.94718 23.1728 1.93924C24.4702 1.44854 25.936 1.6416 27.0174 2.44708C27.6771 3.04905 40.5134 14.81 40.6432 14.9288C43.0476 17.1426 40.6029 19.0915 38.975 18.1606L26.6008 11.4469C30.3232 9.35632 27.2634 3.75267 23.5163 5.64223L13.2027 10.6872C12.2096 11.1731 12.9438 12.6763 13.9381 12.1905L24.2607 7.14088C26.2004 6.16221 27.5801 9.08775 25.725 10.0227L16.177 14.6943C13.2979 16.1101 9.94752 16.3256 6.89794 15.3105V6.18187V6.18187ZM5.22465 17.6308C5.22465 17.6912 5.1755 17.7404 5.11505 17.7404H1.78289C1.72245 17.7404 1.67329 17.6912 1.67329 17.6308V3.91895C1.67329 3.8585 1.72245 3.80935 1.78289 3.80935H5.11505C5.1755 3.80935 5.22465 3.8585 5.22465 3.91895V17.6308Z" fill="#F4A36A"/>
<path d="M24.2458 19.6742C20.8888 16.2743 16.9835 16.8796 14.6934 19.1883C12.1973 21.7079 12.1971 25.8098 14.6938 28.3324L22.8451 36.5663C23.6248 37.3584 24.884 37.3421 25.6462 36.5678C34.0126 28.1139 32.7455 29.3933 33.7997 28.3314C36.2929 25.8095 36.2927 21.7079 33.7993 19.1885C31.5483 16.9141 27.6374 16.2473 24.2458 19.6742ZM32.61 20.3659C34.4615 22.2366 34.4615 25.2822 32.6108 27.154L24.455 35.3925C24.3395 35.5096 24.1546 35.5117 24.0358 35.391C15.885 27.1551 17.2895 28.5734 15.8825 27.1551C14.0291 25.2822 14.0289 22.2369 15.8819 20.3665C17.7572 18.4761 20.7434 18.5127 22.5765 20.3653C23.6884 21.4914 23.7932 21.701 24.2448 21.7012C24.245 21.7012 24.245 21.7012 24.2452 21.7012C24.697 21.7012 24.8024 21.491 25.9156 20.3661C27.7269 18.5362 30.7313 18.4671 32.61 20.3659Z" fill="#F4A36A"/>
<path d="M25.0815 24.296C25.0815 23.1906 23.4082 23.1892 23.4082 24.296V26.5778H21.1265C20.0211 26.5778 20.0196 28.2511 21.1265 28.2511H23.4082V30.533C23.4082 31.6385 25.0815 31.6399 25.0815 30.533V28.2511H27.3635C28.4689 28.2511 28.4704 26.5778 27.3635 26.5778H25.0815V24.296Z" fill="#F4A36A"/>
</svg>
