<svg width="50" height="45" viewBox="0 0 50 45" fill="none" xmlns="http://www.w3.org/2000/svg">
<path d="M44.5618 35.5801L47.3326 32.2551C48.6413 30.6824 49.5079 28.7897 49.8434 26.7714C50.179 24.7532 49.9714 22.6819 49.242 20.7704L42.1517 2.22381C41.8989 1.57124 41.4553 1.01 40.8788 0.613306C40.3022 0.216613 39.6195 0.00288399 38.9197 9.69246e-09C38.3869 -3.98741e-05 37.8612 0.12301 37.3837 0.359553C36.9062 0.596097 36.4898 0.939739 36.167 1.36368C35.8442 1.78763 35.6237 2.28041 35.5226 2.80361C35.4216 3.3268 35.4427 3.86627 35.5845 4.37993L39.9419 20.1756C39.5827 20.0554 39.2065 19.9943 38.8277 19.9946C38.3693 19.9934 37.9152 20.0832 37.4917 20.2587C37.0683 20.4342 36.6838 20.692 36.3606 21.017L30.9837 26.3944C30.1817 27.1918 29.5458 28.1403 29.113 29.1852C28.6801 30.23 28.4589 31.3503 28.4621 32.4812V38.4651H26.9231C26.7191 38.4651 26.5234 38.5461 26.3791 38.6904C26.2349 38.8347 26.1538 39.0303 26.1538 39.2344V43.8502C26.1538 44.0542 26.2349 44.2499 26.3791 44.3941C26.5234 44.5384 26.7191 44.6195 26.9231 44.6195H45.3863C45.5903 44.6195 45.786 44.5384 45.9303 44.3941C46.0746 44.2499 46.1556 44.0542 46.1556 43.8502V39.2344C46.1556 39.0303 46.0746 38.8347 45.9303 38.6904C45.786 38.5461 45.5903 38.4651 45.3863 38.4651H43.8489V37.5496C43.8492 36.83 44.1014 36.1332 44.5618 35.5801V35.5801ZM44.617 43.0808H27.6924V40.0036H44.617V43.0808ZM30.0003 38.465L30.0007 32.4811C29.9981 31.5524 30.1798 30.6323 30.5353 29.7742C30.8907 28.9161 31.4129 28.1371 32.0716 27.4822L37.4484 22.1048C37.8201 21.7504 38.3141 21.5527 38.8277 21.5527C39.3414 21.5527 39.8353 21.7504 40.2071 22.1048C40.5724 22.4709 40.7775 22.967 40.7775 23.4842C40.7775 24.0014 40.5724 24.4974 40.2071 24.8635L34.8422 30.2291C34.7016 30.3741 34.6236 30.5686 34.6251 30.7706C34.6267 30.9726 34.7076 31.1659 34.8505 31.3087C34.9933 31.4515 35.1866 31.5325 35.3886 31.534C35.5906 31.5355 35.7851 31.4575 35.9301 31.3169L41.2949 25.9513C41.6543 25.592 41.9307 25.1585 42.1048 24.681C42.2789 24.2035 42.3464 23.6938 42.3026 23.1875C42.3177 23.083 42.3108 22.9765 42.2823 22.8749L37.0675 3.97128C36.9888 3.686 36.9771 3.3864 37.0332 3.09584C37.0893 2.80528 37.2118 2.53161 37.3911 2.29616C37.5703 2.06071 37.8016 1.86984 38.0667 1.73844C38.3319 1.60703 38.6238 1.53864 38.9197 1.5386C39.3084 1.54018 39.6876 1.65892 40.0078 1.87931C40.328 2.0997 40.5742 2.41151 40.7145 2.77402L47.8047 21.3203C48.4366 22.9762 48.6164 24.7705 48.3257 26.5189C48.0351 28.2673 47.2844 29.9069 46.1507 31.2693L43.38 34.5953C42.6893 35.4248 42.3108 36.47 42.3102 37.5494V38.4648L30.0003 38.465Z" fill="#F4A36A"/>
<path d="M23.0763 38.4648H21.5377V32.481C21.5409 31.3501 21.3197 30.2297 20.8868 29.1849C20.454 28.1401 19.8181 27.1916 19.0161 26.3942L13.6393 21.0168C13.316 20.6917 12.9316 20.434 12.5081 20.2585C12.0846 20.083 11.6305 19.9932 11.1721 19.9943C10.7934 19.994 10.4171 20.0552 10.0579 20.1753L14.4153 4.37993C14.5571 3.86627 14.5783 3.3268 14.4772 2.80361C14.3762 2.28041 14.1556 1.78763 13.8328 1.36368C13.51 0.939739 13.0936 0.596096 12.6161 0.359553C12.1386 0.12301 11.613 -3.98741e-05 11.0801 9.69246e-09C10.3803 0.00288399 9.69758 0.216613 9.12104 0.613306C8.54451 1.01 8.10091 1.57124 7.84812 2.22382L0.757642 20.7702C0.0281897 22.6818 -0.179437 24.753 0.156075 26.7713C0.491588 28.7895 1.35815 30.6822 2.66681 32.2549L5.43752 35.5793C5.89762 36.1325 6.14981 36.8291 6.15043 37.5487V38.4641H4.61314C4.40911 38.4641 4.21344 38.5452 4.06916 38.6895C3.92489 38.8337 3.84384 39.0294 3.84384 39.2334V43.8492C3.84384 44.0533 3.92489 44.2489 4.06916 44.3932C4.21344 44.5375 4.40911 44.6185 4.61314 44.6185H23.0763C23.2804 44.6185 23.476 44.5375 23.6203 44.3932C23.7646 44.2489 23.8456 44.0533 23.8456 43.8492V39.2334C23.8455 39.0295 23.7643 38.834 23.6201 38.6899C23.4758 38.5458 23.2802 38.4648 23.0763 38.4648ZM6.6194 34.5943L3.84869 31.2692C2.715 29.9068 1.96429 28.2672 1.67362 26.5188C1.38295 24.7704 1.5628 22.9761 2.19469 21.3201L9.28494 2.77386C9.42525 2.41141 9.67156 2.09967 9.99173 1.87934C10.3119 1.65901 10.6911 1.54031 11.0797 1.53875C11.3757 1.5388 11.6676 1.60719 11.9327 1.73859C12.1979 1.87 12.4291 2.06086 12.6084 2.29631C12.7877 2.53176 12.9101 2.80544 12.9663 3.096C13.0224 3.38656 13.0106 3.68615 12.932 3.97143L7.71704 22.8745C7.68858 22.9762 7.68166 23.0826 7.69673 23.1871C7.65285 23.6934 7.72033 24.2032 7.89443 24.6807C8.06853 25.1581 8.34503 25.5917 8.70451 25.9509L14.0693 31.3165C14.1403 31.3897 14.2252 31.4481 14.319 31.4882C14.4128 31.5283 14.5136 31.5494 14.6156 31.5502C14.7176 31.5509 14.8188 31.5314 14.9132 31.4927C15.0076 31.4541 15.0933 31.397 15.1655 31.3249C15.2376 31.2527 15.2947 31.167 15.3333 31.0726C15.372 30.9782 15.3916 30.8771 15.3908 30.7751C15.39 30.673 15.369 30.5722 15.3289 30.4784C15.2887 30.3846 15.2304 30.2997 15.1572 30.2287L9.7923 24.8632C9.427 24.497 9.22185 24.001 9.22185 23.4838C9.22185 22.9666 9.427 22.4706 9.7923 22.1044C10.1641 21.75 10.658 21.5523 11.1717 21.5523C11.6853 21.5523 12.1792 21.75 12.551 22.1044L17.9278 27.4818C18.5866 28.1367 19.1088 28.9157 19.4644 29.7739C19.8199 30.632 20.0017 31.5521 19.9991 32.481V38.4648H7.68919V37.5494C7.68844 36.4697 7.30998 35.4243 6.6194 34.5943V34.5943ZM22.307 43.0806H5.38244V40.0034H22.307V43.0806Z" fill="#F4A36A"/>
<path d="M24.8838 23.164C18.7328 23.164 13.729 18.1602 13.729 12.0092C13.729 5.85817 18.7328 0.85437 24.8838 0.85437C31.0349 0.85437 36.0387 5.85817 36.0387 12.0092C36.0387 18.1602 31.0349 23.164 24.8838 23.164ZM24.8838 2.5705C19.6793 2.5705 15.4451 6.8047 15.4451 12.0092C15.4451 17.2137 19.6793 21.4479 24.8838 21.4479C30.0883 21.4479 34.3225 17.2137 34.3225 12.0092C34.3225 6.8047 30.0883 2.5705 24.8838 2.5705Z" fill="#F4A36A"/>
<path d="M25.742 6.00284C25.742 5.52902 25.3578 5.14478 24.8839 5.14478C24.4101 5.14478 24.0259 5.52902 24.0259 6.00284V6.8609H25.742V6.00284Z" fill="#F4A36A"/>
<path d="M24.0259 18.0157C24.0259 18.4895 24.4101 18.8737 24.8839 18.8737C25.3578 18.8737 25.742 18.4895 25.742 18.0157V17.1576H24.0259V18.0157Z" fill="#F4A36A"/>
<path d="M24.8839 12.8673C22.9914 12.8673 21.4517 11.3276 21.4517 9.43506C21.4517 7.54252 22.9914 6.00281 24.8839 6.00281C26.7765 6.00281 28.3162 7.54252 28.3162 9.43506C28.3162 9.90888 27.9319 10.2931 27.4581 10.2931C26.9843 10.2931 26.6 9.90888 26.6 9.43506C26.6 8.48862 25.8304 7.71893 24.8839 7.71893C23.9375 7.71893 23.1678 8.48862 23.1678 9.43506C23.1678 10.3815 23.9375 11.1512 24.8839 11.1512C25.3577 11.1512 25.742 11.5354 25.742 12.0093C25.742 12.4831 25.3577 12.8673 24.8839 12.8673Z" fill="#F4A36A"/>
<path d="M24.8839 18.0156C22.9914 18.0156 21.4517 16.4759 21.4517 14.5834C21.4517 14.1096 21.8359 13.7253 22.3097 13.7253C22.7835 13.7253 23.1678 14.1096 23.1678 14.5834C23.1678 15.5298 23.9375 16.2995 24.8839 16.2995C25.8304 16.2995 26.6 15.5298 26.6 14.5834C26.6 13.6369 25.8304 12.8672 24.8839 12.8672C24.4101 12.8672 24.0259 12.483 24.0259 12.0092C24.0259 11.5354 24.4101 11.1511 24.8839 11.1511C26.7765 11.1511 28.3162 12.6908 28.3162 14.5834C28.3162 16.4759 26.7765 18.0156 24.8839 18.0156Z" fill="#F4A36A"/>
</svg>
