<svg width="32" height="32" viewBox="0 0 32 32" fill="none" xmlns="http://www.w3.org/2000/svg">
<path d="M8.13445 27.3608H7.75147C6.24642 27.3608 5.01685 26.1379 5.01685 24.6261C5.01685 24.0281 5.50061 23.5377 6.10532 23.5377H9.7806C10.3786 23.5377 10.8691 24.0214 10.8691 24.6261C10.8691 26.1379 9.64622 27.3608 8.13445 27.3608ZM6.11204 24.5522C6.07172 24.5522 6.03141 24.5858 6.03141 24.6328C6.03141 25.5802 6.80409 26.3596 7.75818 26.3596H8.14117C9.08854 26.3596 9.86794 25.5869 9.86794 24.6328C9.86794 24.5925 9.83435 24.5522 9.78731 24.5522H6.11204Z" fill="#220047"/>
<path d="M24.9319 27.3608H24.549C23.0439 27.3608 21.8143 26.1379 21.8143 24.6261C21.8143 24.0281 22.2981 23.5377 22.9028 23.5377H26.5781C27.1761 23.5377 27.6666 24.0214 27.6666 24.6261C27.6666 26.1379 26.4437 27.3608 24.9319 27.3608ZM22.9095 24.5522C22.8692 24.5522 22.8289 24.5858 22.8289 24.6328C22.8289 25.5802 23.6016 26.3596 24.5557 26.3596H24.9387C25.886 26.3596 26.6654 25.5869 26.6654 24.6328C26.6654 24.5925 26.6318 24.5522 26.5848 24.5522H22.9095Z" fill="#220047"/>
<path d="M27.4582 24.5522H5.23182C3.4513 24.5522 2 23.1009 2 21.3204V8.23182C2 6.4513 3.4513 5 5.23182 5H27.4582C29.2387 5 30.69 6.4513 30.69 8.23182V21.3204C30.69 23.1009 29.2387 24.5522 27.4582 24.5522ZM5.23182 6.00785C4.00225 6.00785 3.00785 7.00897 3.00785 8.23182V21.3204C3.00785 22.5499 4.00897 23.5444 5.23182 23.5444H27.4582C28.6877 23.5444 29.6822 22.5432 29.6822 21.3204V8.23182C29.6822 7.00225 28.681 6.00785 27.4582 6.00785H5.23182Z" fill="#220047"/>
<path d="M8.6181 21.7974H7.75807C5.97754 21.7974 4.52625 20.3461 4.52625 18.5656V10.9866C4.52625 9.20606 5.97754 7.75476 7.75807 7.75476H16.2979C16.5734 7.75476 16.8018 7.98321 16.8018 8.25868C16.8018 8.53416 16.5734 8.76261 16.2979 8.76261H7.75807C6.5285 8.76261 5.53409 9.76373 5.53409 10.9866V18.5656C5.53409 19.7952 6.53522 20.7896 7.75807 20.7896H8.6181C8.89358 20.7896 9.12202 21.018 9.12202 21.2935C9.12202 21.569 8.89358 21.7974 8.6181 21.7974Z" fill="#220047"/>
<path d="M19.6776 21.7974H10.9026C10.6271 21.7974 10.3987 21.569 10.3987 21.2935C10.3987 21.018 10.6271 20.7896 10.9026 20.7896H19.6776C20.9072 20.7896 21.9016 19.7884 21.9016 18.5656V10.9866C21.9016 9.75701 20.9004 8.76261 19.6776 8.76261H18.6966C18.4211 8.76261 18.1927 8.53416 18.1927 8.25868C18.1927 7.98321 18.4211 7.75476 18.6966 7.75476H19.6776C21.4581 7.75476 22.9094 9.20606 22.9094 10.9866V18.5656C22.9094 20.3461 21.4581 21.7974 19.6776 21.7974Z" fill="#220047"/>
<path d="M27.7002 11.7526H24.8782C24.6027 11.7526 24.3743 11.5242 24.3743 11.2487C24.3743 10.9732 24.6027 10.7448 24.8782 10.7448H27.7002C27.9756 10.7448 28.2041 10.9732 28.2041 11.2487C28.2041 11.5242 27.9756 11.7526 27.7002 11.7526Z" fill="#220047"/>
<path d="M27.7002 14.1042H24.8782C24.6027 14.1042 24.3743 13.8758 24.3743 13.6003C24.3743 13.3248 24.6027 13.0964 24.8782 13.0964H27.7002C27.9756 13.0964 28.2041 13.3248 28.2041 13.6003C28.2041 13.8758 27.9756 14.1042 27.7002 14.1042Z" fill="#220047"/>
<path d="M27.7002 16.4558H24.8782C24.6027 16.4558 24.3743 16.2274 24.3743 15.9519C24.3743 15.6764 24.6027 15.448 24.8782 15.448H27.7002C27.9756 15.448 28.2041 15.6764 28.2041 15.9519C28.2041 16.2274 27.9756 16.4558 27.7002 16.4558Z" fill="#220047"/>
<path d="M27.7002 18.8075H24.8782C24.6027 18.8075 24.3743 18.579 24.3743 18.3035C24.3743 18.0281 24.6027 17.7996 24.8782 17.7996H27.7002C27.9756 17.7996 28.2041 18.0281 28.2041 18.3035C28.2041 18.579 27.9756 18.8075 27.7002 18.8075Z" fill="#220047"/>
<path d="M15.2699 18.8075H15.2632C15.0616 18.8008 14.8802 18.6798 14.8063 18.485L12.4345 12.4177L10.8085 15.28C10.7211 15.4346 10.5532 15.5354 10.3717 15.5354H5.03017C4.75469 15.5354 4.52625 15.3069 4.52625 15.0314C4.52625 14.7559 4.75469 14.5275 5.03017 14.5275H10.0694L12.0716 11C12.1657 10.8321 12.3538 10.7313 12.5487 10.7447C12.7435 10.7582 12.9115 10.8858 12.9787 11.0672L15.29 16.9799L16.4188 14.3864C16.4994 14.205 16.6809 14.0841 16.8824 14.0841H22.3248C22.6003 14.0841 22.8287 14.3125 22.8287 14.588C22.8287 14.8635 22.6003 15.0919 22.3248 15.0919H17.2117L15.7335 18.5051C15.6529 18.6865 15.4714 18.8075 15.2699 18.8075Z" fill="#220047"/>
</svg>
