<svg width="32" height="32" viewBox="0 0 32 32" fill="none" xmlns="http://www.w3.org/2000/svg">
<path d="M26.9546 24.3275L28.5063 22.241C29.2391 21.2541 29.7244 20.0664 29.9123 18.7998C30.1002 17.5333 29.984 16.2336 29.5755 15.034L25.6049 3.39551C25.4634 2.986 25.215 2.6338 24.8921 2.38487C24.5692 2.13593 24.1869 2.00181 23.795 2C23.4966 1.99997 23.2023 2.07719 22.9349 2.22563C22.6675 2.37407 22.4343 2.58971 22.2535 2.85575C22.0727 3.12179 21.9492 3.43102 21.8926 3.75934C21.8361 4.08766 21.8479 4.42619 21.9273 4.74853L24.3674 14.6608C24.1663 14.5853 23.9556 14.547 23.7435 14.5472C23.4868 14.5464 23.2325 14.6028 22.9954 14.7129C22.7582 14.8231 22.5429 14.9848 22.3619 15.1888L19.3509 18.5633C18.9017 19.0636 18.5457 19.6589 18.3033 20.3145C18.0609 20.9702 17.937 21.6732 17.9388 22.3829V26.1379H17.0769C16.9627 26.1379 16.8531 26.1888 16.7723 26.2793C16.6915 26.3699 16.6461 26.4927 16.6461 26.6207V29.5172C16.6461 29.6453 16.6915 29.7681 16.7723 29.8586C16.8531 29.9491 16.9627 30 17.0769 30H27.4163C27.5306 30 27.6401 29.9491 27.7209 29.8586C27.8017 29.7681 27.8471 29.6453 27.8471 29.5172V26.6207C27.8471 26.4927 27.8017 26.3699 27.7209 26.2793C27.6401 26.1888 27.5306 26.1379 27.4163 26.1379H26.5553V25.5635C26.5555 25.1119 26.6968 24.6746 26.9546 24.3275V24.3275ZM26.9855 29.0344H17.5077V27.1034H26.9855V29.0344ZM18.8002 26.1379L18.8004 22.3829C18.7989 21.8 18.9007 21.2226 19.0997 20.6842C19.2988 20.1457 19.5912 19.6568 19.9601 19.2459L22.9711 15.8714C23.1793 15.649 23.4559 15.5249 23.7435 15.5249C24.0311 15.5249 24.3078 15.649 24.5159 15.8714C24.7205 16.1012 24.8354 16.4125 24.8354 16.737C24.8354 17.0615 24.7205 17.3728 24.5159 17.6026L21.5116 20.9696C21.4329 21.0606 21.3892 21.1827 21.3901 21.3094C21.3909 21.4362 21.4362 21.5575 21.5162 21.6471C21.5962 21.7368 21.7045 21.7875 21.8176 21.7885C21.9307 21.7895 22.0396 21.7405 22.1208 21.6522L25.1251 18.2852C25.3264 18.0597 25.4812 17.7877 25.5787 17.488C25.6762 17.1884 25.714 16.8685 25.6895 16.5508C25.6979 16.4852 25.694 16.4184 25.6781 16.3547L22.7578 4.49209C22.7137 4.31307 22.7071 4.12507 22.7386 3.94273C22.77 3.7604 22.8386 3.58866 22.939 3.44091C23.0394 3.29315 23.1689 3.17338 23.3173 3.09092C23.4658 3.00846 23.6293 2.96554 23.795 2.96552C24.0127 2.96651 24.225 3.04102 24.4043 3.17932C24.5836 3.31762 24.7216 3.51329 24.8001 3.74078L28.7706 15.3791C29.1245 16.4183 29.2252 17.5442 29.0624 18.6414C28.8996 19.7386 28.4792 20.7675 27.8444 21.6224L26.2928 23.7095C25.906 24.2301 25.6941 24.8859 25.6937 25.5633V26.1378L18.8002 26.1379Z" fill="#220047"/>
<path d="M14.9227 26.1378H14.0611V22.3828C14.0629 21.6731 13.939 20.97 13.6966 20.3144C13.4542 19.6587 13.0982 19.0635 12.649 18.5631L9.63798 15.1887C9.45698 14.9847 9.24168 14.8229 9.00453 14.7128C8.76738 14.6026 8.51309 14.5463 8.25638 14.547C8.04429 14.5468 7.83358 14.5852 7.63244 14.6606L10.0726 4.74853C10.152 4.42619 10.1638 4.08766 10.1072 3.75934C10.0507 3.43102 9.92716 3.12179 9.74638 2.85575C9.5656 2.58971 9.33242 2.37407 9.06503 2.22563C8.79764 2.07719 8.50326 1.99997 8.20486 2C7.81296 2.00181 7.43064 2.13593 7.10778 2.38487C6.78493 2.6338 6.53651 2.986 6.39495 3.39551L2.42428 15.0339C2.01579 16.2335 1.89952 17.5332 2.0874 18.7997C2.27529 20.0663 2.76057 21.254 3.49342 22.2409L5.04501 24.327C5.30267 24.6742 5.44389 25.1113 5.44424 25.5629V26.1374H4.58336C4.4691 26.1374 4.35952 26.1882 4.27873 26.2788C4.19794 26.3693 4.15255 26.4921 4.15255 26.6201V29.5167C4.15255 29.6447 4.19794 29.7675 4.27873 29.858C4.35952 29.9486 4.4691 29.9994 4.58336 29.9994H14.9227C15.037 29.9994 15.1466 29.9486 15.2274 29.858C15.3082 29.7675 15.3536 29.6447 15.3536 29.5167V26.6201C15.3535 26.4922 15.308 26.3695 15.2272 26.279C15.1465 26.1886 15.0369 26.1378 14.9227 26.1378ZM5.70686 23.7089L4.15527 21.6223C3.5204 20.7674 3.1 19.7385 2.93723 18.6413C2.77445 17.5441 2.87517 16.4182 3.22903 15.379L7.19957 3.74068C7.27814 3.51323 7.41607 3.3176 7.59537 3.17934C7.77467 3.04107 7.987 2.96659 8.20464 2.96561C8.37036 2.96564 8.53384 3.00856 8.68233 3.09102C8.83082 3.17348 8.96031 3.29325 9.0607 3.441C9.16109 3.58875 9.22968 3.76049 9.26111 3.94283C9.29254 4.12516 9.28596 4.31317 9.2419 4.49219L6.32154 16.3544C6.30561 16.4182 6.30173 16.485 6.31017 16.5506C6.2856 16.8683 6.32339 17.1882 6.42088 17.4878C6.51838 17.7874 6.67321 18.0595 6.87452 18.285L9.87881 21.652C9.91858 21.698 9.96611 21.7346 10.0186 21.7598C10.0712 21.7849 10.1276 21.7981 10.1847 21.7986C10.2419 21.7991 10.2985 21.7869 10.3514 21.7626C10.4042 21.7383 10.4523 21.7025 10.4927 21.6573C10.5331 21.612 10.565 21.5582 10.5867 21.4989C10.6083 21.4397 10.6193 21.3762 10.6188 21.3122C10.6184 21.2482 10.6066 21.1849 10.5842 21.1261C10.5617 21.0672 10.529 21.014 10.488 20.9694L7.48369 17.6023C7.27912 17.3726 7.16423 17.0613 7.16423 16.7368C7.16423 16.4122 7.27912 16.1009 7.48369 15.8712C7.69187 15.6488 7.96848 15.5247 8.25612 15.5247C8.54377 15.5247 8.82037 15.6488 9.02856 15.8712L12.0396 19.2457C12.4085 19.6566 12.7009 20.1455 12.9001 20.684C13.0992 21.2225 13.2009 21.7999 13.1995 22.3828V26.1378H6.30594V25.5633C6.30553 24.8858 6.09359 24.2298 5.70686 23.7089V23.7089ZM14.4919 29.0343H5.01417V27.1033H14.4919V29.0343Z" fill="#220047"/>
<path d="M15.9349 16.5361C12.4904 16.5361 9.68823 13.3961 9.68823 9.53617C9.68823 5.67622 12.4904 2.53619 15.9349 2.53619C19.3795 2.53619 22.1816 5.67622 22.1816 9.53617C22.1816 13.3961 19.3795 16.5361 15.9349 16.5361ZM15.9349 3.61311C13.0204 3.61311 10.6493 6.27019 10.6493 9.53617C10.6493 12.8021 13.0204 15.4592 15.9349 15.4592C18.8495 15.4592 21.2206 12.8021 21.2206 9.53617C21.2206 6.27019 18.8495 3.61311 15.9349 3.61311Z" fill="#220047"/>
<path d="M16.4154 5.76698C16.4154 5.46964 16.2002 5.22852 15.9349 5.22852C15.6695 5.22852 15.4543 5.46964 15.4543 5.76698V6.30543H16.4154V5.76698Z" fill="#220047"/>
<path d="M15.4543 13.3054C15.4543 13.6027 15.6695 13.8438 15.9349 13.8438C16.2002 13.8438 16.4154 13.6027 16.4154 13.3054V12.7669H15.4543V13.3054Z" fill="#220047"/>
<path d="M15.935 10.0746C14.8752 10.0746 14.0129 9.10837 14.0129 7.92074C14.0129 6.73312 14.8752 5.76691 15.935 5.76691C16.9948 5.76691 17.8571 6.73312 17.8571 7.92074C17.8571 8.21808 17.6419 8.4592 17.3765 8.4592C17.1112 8.4592 16.896 8.21808 16.896 7.92074C16.896 7.32682 16.465 6.84383 15.935 6.84383C15.405 6.84383 14.974 7.32682 14.974 7.92074C14.974 8.51467 15.405 8.99766 15.935 8.99766C16.2003 8.99766 16.4155 9.23879 16.4155 9.53612C16.4155 9.83346 16.2003 10.0746 15.935 10.0746Z" fill="#220047"/>
<path d="M15.935 13.3054C14.8752 13.3054 14.0129 12.3391 14.0129 11.1515C14.0129 10.8542 14.2281 10.6131 14.4935 10.6131C14.7588 10.6131 14.974 10.8542 14.974 11.1515C14.974 11.7454 15.405 12.2284 15.935 12.2284C16.465 12.2284 16.896 11.7454 16.896 11.1515C16.896 10.5576 16.465 10.0746 15.935 10.0746C15.6697 10.0746 15.4545 9.83348 15.4545 9.53614C15.4545 9.2388 15.6697 8.99768 15.935 8.99768C16.9948 8.99768 17.8571 9.96389 17.8571 11.1515C17.8571 12.3391 16.9948 13.3054 15.935 13.3054Z" fill="#220047"/>
</svg>
