<svg xmlns="http://www.w3.org/2000/svg" width="20" height="20" viewBox="0 0 20 20" fill="inherit">
<path d="M4.99984 11.6667H11.6665V9.99999H4.99984V11.6667ZM4.99984 9.16666H14.9998V7.49999H4.99984V9.16666ZM4.99984 6.66666H14.9998V4.99999H4.99984V6.66666ZM1.6665 18.3333V3.33332C1.6665 2.87499 1.82984 2.48249 2.1565 2.15582C2.48262 1.82971 2.87484 1.66666 3.33317 1.66666H16.6665C17.1248 1.66666 17.5173 1.82971 17.844 2.15582C18.1701 2.48249 18.3332 2.87499 18.3332 3.33332V13.3333C18.3332 13.7917 18.1701 14.1842 17.844 14.5108C17.5173 14.8369 17.1248 15 16.6665 15H4.99984L1.6665 18.3333ZM3.33317 14.3125L4.31234 13.3333H16.6665V3.33332H3.33317V14.3125Z" fill="#323232"/>
</svg>