<svg xmlns="http://www.w3.org/2000/svg" width="24" height="24" viewBox="0 0 24 24" fill="none">
  <path d="M4 13.0001C3.85505 12.9984 3.71147 13.0283 3.57922 13.0877C3.44696 13.147 3.3292 13.2344 3.23407 13.3438C3.13895 13.4532 3.06875 13.582 3.02833 13.7212C2.98792 13.8604 2.97825 14.0067 3 14.1501C3.04703 14.3926 3.1781 14.6109 3.37016 14.7663C3.56221 14.9218 3.80295 15.0046 4.05 15.0001H7.6L2.35 20.2501C2.15284 20.4235 2.03184 20.6676 2.01313 20.9296C1.99441 21.1915 2.0795 21.4503 2.25 21.6501C2.33789 21.7642 2.45188 21.8555 2.58239 21.9164C2.71289 21.9773 2.85611 22.006 3 22.0001C3.26377 21.9963 3.51537 21.8885 3.7 21.7001L9 16.4001V19.9501C8.99549 20.1971 9.07825 20.4379 9.23372 20.6299C9.38919 20.822 9.60742 20.953 9.85 21.0001C9.99333 21.0218 10.1397 21.0122 10.2789 20.9717C10.4181 20.9313 10.5469 20.8611 10.6562 20.766C10.7656 20.6709 10.853 20.5531 10.9124 20.4208C10.9718 20.2886 11.0016 20.145 11 20.0001V14.0001C11 13.7348 10.8946 13.4805 10.7071 13.293C10.5196 13.1054 10.2652 13.0001 10 13.0001H4Z" />
  <path d="M21.85 2.39984C21.7639 2.27847 21.6517 2.17784 21.5218 2.10531C21.3918 2.03278 21.2473 1.99017 21.0988 1.98059C20.9503 1.97101 20.8015 1.9947 20.6633 2.04993C20.5251 2.10516 20.401 2.19054 20.3 2.29984L15 7.59984V4.04984C15.0045 3.80279 14.9217 3.56205 14.7663 3.36999C14.6108 3.17794 14.3926 3.04687 14.15 2.99984C14.0067 2.97809 13.8603 2.98776 13.7211 3.02817C13.5819 3.06859 13.4531 3.13879 13.3437 3.23391C13.2344 3.32904 13.1469 3.4468 13.0876 3.57906C13.0282 3.71131 12.9983 3.85489 13 3.99984V9.99984C13 10.2651 13.1053 10.5194 13.2929 10.7069C13.4804 10.8945 13.7348 10.9998 14 10.9998H19.95C20.197 11.0044 20.4378 10.9216 20.6298 10.7661C20.8219 10.6107 20.953 10.3924 21 10.1498C21.0217 10.0065 21.0121 9.86018 20.9717 9.72097C20.9312 9.58175 20.861 9.45299 20.7659 9.3436C20.6708 9.23421 20.553 9.14681 20.4208 9.08745C20.2885 9.02809 20.1449 8.9982 20 8.99984H16.4L21.7 3.74984C21.8651 3.5699 21.9686 3.34207 21.9956 3.09935C22.0226 2.85664 21.9716 2.61164 21.85 2.39984Z" />
</svg>