<svg width="39" height="40" viewBox="0 0 39 40" fill="none" xmlns="http://www.w3.org/2000/svg">
<path fill-rule="evenodd" clip-rule="evenodd" d="M9.32481 7.3633C8.95423 7.36212 8.58503 7.40915 8.22656 7.50321V7.55216H8.27973C8.53646 7.93974 8.82272 8.30689 9.13595 8.65043C9.3514 9.07854 9.53888 9.50524 9.75292 9.93335C9.77951 9.90678 9.80608 9.8788 9.80608 9.8788C10.0048 9.72103 10.1604 9.5155 10.2583 9.28139C10.3561 9.04727 10.3931 8.79217 10.3657 8.5399C10.2485 8.35923 10.1411 8.17243 10.0439 7.98027C9.88304 7.71307 9.53467 7.57876 9.32062 7.36469" fill="#5D87A1"/>
<path fill-rule="evenodd" clip-rule="evenodd" d="M35.8954 30.7108C34.1306 30.5868 32.3598 30.8426 30.7022 31.4607C30.3006 31.6216 29.6599 31.6216 29.604 32.1296C29.8193 32.3436 29.8446 32.6892 30.0335 32.9871C30.4 33.6074 30.8709 34.1599 31.4254 34.6199C31.985 35.0479 32.5447 35.4745 33.1394 35.8495C34.1817 36.4946 35.3611 36.868 36.3767 37.5102C36.9672 37.8852 37.5548 38.3664 38.1451 38.7694C38.439 38.9834 38.6251 39.329 39 39.4689V39.3878C38.8899 39.0903 38.7535 38.8034 38.5928 38.5301C38.3255 38.2643 38.0569 38.0224 37.7883 37.7551C37.0037 36.7173 36.0647 35.8058 35.0043 35.0521C34.1467 34.4616 32.272 33.6531 31.9264 32.6737L31.8718 32.6191C32.4994 32.5302 33.1177 32.3861 33.7199 32.1882C34.6294 31.9476 35.4589 32.0022 36.3949 31.7685C36.8244 31.6608 37.6009 31.3935 37.6009 31.3935V30.9738C37.1224 30.4981 36.7796 29.8615 36.276 29.4125C34.9058 28.2165 33.4454 27.1274 31.9083 26.1555C31.087 25.6252 30.0279 25.2838 29.1533 24.8321C28.8373 24.6725 28.3139 24.5941 28.1223 24.3284C27.6874 23.6902 27.3234 23.0068 27.0366 22.2898C26.27 20.8348 25.527 19.2218 24.8666 17.6828C24.4758 16.6515 24.025 15.6438 23.5166 14.6651C21.0632 10.4938 17.5217 7.06796 13.2714 4.75419C12.1989 4.23509 11.0587 3.86961 9.88428 3.66853C9.22113 3.64055 8.56078 3.58879 7.89902 3.56361C7.47182 3.28373 7.06552 2.97327 6.68325 2.63464C5.16947 1.67627 1.2801 -0.383134 0.166457 2.34363C-0.54706 4.06586 1.22694 5.75871 1.83552 6.63313C2.34869 7.24966 2.80082 7.91453 3.18562 8.61838C3.37168 9.06887 3.42484 9.54596 3.60533 10.0174C3.99369 11.2278 4.45481 12.4135 4.98619 13.5682C5.27038 14.1389 5.59778 14.6871 5.96552 15.2079C6.17959 15.5003 6.54894 15.6276 6.62867 16.1103C6.33528 16.7409 6.13003 17.409 6.01869 18.0956C5.55622 19.556 5.38602 21.0934 5.5178 22.6196C5.64961 24.1458 6.08081 25.6312 6.78678 26.9907C7.2065 27.6526 8.21661 29.1089 9.56669 28.552C10.7573 28.0763 10.4929 26.5669 10.837 25.2446C10.9154 24.9243 10.8636 24.7146 11.0217 24.5033V24.7607C11.0217 24.7607 11.6975 26.245 12.0332 26.9992C12.9464 28.3828 14.0807 29.607 15.3909 30.6226C15.9091 31.0752 16.3268 31.6315 16.6165 32.2554V32.7353H17.2139C17.2014 32.5188 17.1414 32.308 17.0382 32.1175C16.935 31.9267 16.7911 31.7613 16.6165 31.6328C16.1267 31.1285 15.6779 30.5859 15.2747 30.0099C14.1797 28.4502 13.214 26.8037 12.3872 25.0866C11.9675 24.2472 11.6135 23.3267 11.2777 22.4886C11.1238 22.1654 11.1238 21.6772 10.865 21.5093C10.3871 22.0747 9.97237 22.6908 9.62825 23.3462C9.21048 24.6711 8.96733 26.0449 8.90495 27.4328C8.8028 27.4607 8.85317 27.4328 8.8028 27.486C7.97877 27.2691 7.69475 26.378 7.38416 25.6225C6.58182 23.2925 6.50088 20.7746 7.15192 18.3978C7.331 17.8312 8.10749 16.046 7.7969 15.5045C7.64159 14.9883 7.12535 14.6931 6.84274 14.286C6.48194 13.7382 6.17149 13.159 5.91516 12.5553C5.30098 11.0499 4.9904 9.37107 4.32165 7.85449C3.95145 7.12511 3.5204 6.42824 3.03311 5.77131C2.49408 5.11506 2.0186 4.40911 1.61308 3.66293C1.48437 3.36494 1.30388 2.87807 1.50955 2.55349C1.52343 2.46333 1.56629 2.38014 1.63168 2.31653C1.69707 2.25291 1.78139 2.21232 1.87189 2.20093C2.20487 1.90433 3.16043 2.28207 3.4948 2.44437C4.39348 2.79816 5.2495 3.25197 6.04667 3.79724C6.40762 4.06866 7.25825 4.7556 7.25825 4.7556H7.51008C8.3663 4.94167 9.32885 4.80736 10.1347 5.0494C11.4915 5.50169 12.7864 6.12211 13.9891 6.89615C17.5338 9.15584 20.4156 12.3156 22.3401 16.053C22.6617 16.6672 22.7976 17.2309 23.0913 17.8717C23.6509 19.1869 24.3505 20.5299 24.9101 21.8086C25.4039 23.0738 26.0423 24.2776 26.8128 25.3957C27.213 25.9554 28.8205 26.252 29.5437 26.5459C30.1719 26.7632 30.7883 27.013 31.3905 27.2944C32.3013 27.854 33.2093 28.499 34.0668 29.1132C34.4937 29.4349 35.8325 30.1037 35.9136 30.6394" fill="#00758F"/>
</svg>
