<svg xmlns="http://www.w3.org/2000/svg" height="22" width="22" viewBox="0 0 22 22"><defs><style>.cls-1{fill:none;stroke-width:1.5px;}</style></defs><g id="Layer_2" data-name="Layer 2"><g id="Layer_1-2" data-name="Layer 1"><g id="Layer_2-2" data-name="Layer 2"><g id="Layer_1-2-2" data-name="Layer 1-2"><path class="cls-1" d="M20.92,10.84A10.09,10.09,0,1,1,10.84.75,10.08,10.08,0,0,1,20.92,10.84Z"/><path class="cls-1" d="M11.92,17.05a1.51,1.51,0,0,1-1.56-1c-.38-1.08-.75-2.15-1.12-3.23-.06-.17-.12-.35-.19-.53s0-.08-.09-.1l-1.85-.79-1.84-.78a1.51,1.51,0,0,1,.24-2.84L11.88,6l2.52-.67a1.5,1.5,0,0,1,1.83,1.08.64.64,0,0,1,0,.07,1.6,1.6,0,0,1-.07.84l-1,3c-.62,1.85-1.26,3.69-1.93,5.54a2.47,2.47,0,0,1-.17.42A1.41,1.41,0,0,1,11.92,17.05Z"/></g></g></g></g></svg>