<svg width="32" height="32" viewBox="0 0 32 32" fill="none" xmlns="http://www.w3.org/2000/svg">
<g clip-path="url(#clip0_74_1346)">
<path d="M22 29.253C20.545 29.253 19.34 28.16 19.162 26.753H12.837C12.659 28.16 11.455 29.253 10 29.253C8.42301 29.253 7.14001 27.97 7.14001 26.393C7.14001 25.465 7.58402 24.64 8.27002 24.117L5.10601 18.638C4.76601 18.78 4.39201 18.86 4.00001 18.86C2.42301 18.86 1.14001 17.577 1.14001 16C1.14001 14.423 2.42301 13.14 4.00001 13.14C4.39201 13.14 4.76601 13.219 5.10601 13.363L8.27002 7.88399C7.58302 7.36099 7.14001 6.53499 7.14001 5.60799C7.14001 4.03099 8.42301 2.74799 10 2.74799C11.455 2.74799 12.66 3.83999 12.837 5.24799H19.163C19.341 3.83999 20.545 2.74799 22 2.74799C23.577 2.74799 24.86 4.03099 24.86 5.60799C24.86 6.53499 24.416 7.36099 23.73 7.88399L26.892 13.363C27.233 13.219 27.607 13.14 27.999 13.14C29.576 13.14 30.859 14.423 30.859 16C30.859 17.577 29.576 18.86 27.999 18.86C27.606 18.86 27.232 18.78 26.892 18.636L23.729 24.115C24.416 24.638 24.86 25.464 24.86 26.391C24.86 27.97 23.577 29.253 22 29.253ZM22 24.253C20.82 24.253 19.86 25.213 19.86 26.393C19.86 27.573 20.82 28.533 22 28.533C23.18 28.533 24.14 27.573 24.14 26.393C24.14 25.213 23.18 24.253 22 24.253ZM10 24.253C8.82001 24.253 7.86001 25.213 7.86001 26.393C7.86001 27.573 8.82001 28.533 10 28.533C11.18 28.533 12.14 27.573 12.14 26.393C12.14 25.213 11.18 24.253 10 24.253ZM12.837 26.032H19.162C19.261 25.253 19.674 24.57 20.27 24.116L17.791 19.824H14.207L11.729 24.116C12.326 24.57 12.739 25.253 12.837 26.032ZM5.72901 18.276L8.89301 23.755C9.57401 23.468 10.425 23.468 11.107 23.755L13.585 19.463L11.793 16.359H6.83701C6.73901 17.14 6.32601 17.822 5.72901 18.276ZM22 23.532C22.393 23.532 22.767 23.612 23.107 23.756L26.27 18.277C25.673 17.823 25.26 17.14 25.162 16.36H20.208L18.416 19.464L20.894 23.756C21.233 23.612 21.607 23.532 22 23.532ZM14.208 19.104H17.792L19.584 16L17.792 12.896H14.208L12.416 16L14.208 19.104ZM28 13.86C26.82 13.86 25.86 14.82 25.86 16C25.86 17.18 26.82 18.14 28 18.14C29.18 18.14 30.14 17.18 30.14 16C30.14 14.82 29.18 13.86 28 13.86ZM4.00001 13.86C2.82001 13.86 1.86001 14.82 1.86001 16C1.86001 17.18 2.82001 18.14 4.00001 18.14C5.18001 18.14 6.14001 17.18 6.14001 16C6.14001 14.82 5.18001 13.86 4.00001 13.86ZM20.208 15.64H25.162C25.261 14.861 25.674 14.178 26.27 13.724L23.107 8.24499C22.425 8.53199 21.573 8.53199 20.893 8.24499L18.415 12.536L20.208 15.64ZM6.83701 15.64H11.792L13.584 12.536L11.106 8.24499C10.424 8.53199 9.57301 8.53199 8.89201 8.24499L5.72901 13.724C6.32601 14.178 6.73901 14.861 6.83701 15.64ZM14.208 12.176H17.792L20.271 7.88399C19.674 7.42899 19.261 6.74699 19.163 5.96699H12.838C12.74 6.74699 12.327 7.42899 11.731 7.88399L14.208 12.176ZM22 3.46799C20.82 3.46799 19.86 4.42799 19.86 5.60799C19.86 6.78799 20.82 7.74799 22 7.74799C23.18 7.74799 24.14 6.78799 24.14 5.60799C24.14 4.42799 23.18 3.46799 22 3.46799ZM10 3.46799C8.82001 3.46799 7.86001 4.42799 7.86001 5.60799C7.86001 6.78799 8.82001 7.74799 10 7.74799C11.18 7.74799 12.14 6.78799 12.14 5.60799C12.14 4.42799 11.18 3.46799 10 3.46799Z" fill="#220047"/>
</g>
<defs>
<clipPath id="clip0_74_1346">
<rect width="32" height="32" fill="white"/>
</clipPath>
</defs>
</svg>
