<svg width="42" height="42" viewBox="0 0 42 42" fill="none" xmlns="http://www.w3.org/2000/svg">
<path d="M1 1H41V12H1V1Z" fill="#FFD087"/>
<path d="M41.8008 12.6998H0.300781V0.299805H41.8008V12.6998ZM1.80078 11.1998H40.3008V1.6998H1.80078V11.1998Z" fill="#47769D"/>
<path d="M1 12H41V41H1V12Z" fill="#F5FDFF"/>
<path d="M41.8008 41.8002H0.300781V11.2002H41.8008V41.8002ZM1.80078 40.3002H40.3008V12.7002H1.80078V40.3002Z" fill="#47769D"/>
<path d="M6 6.09961H8.8V7.59961H6V6.09961Z" fill="#47769D"/>
<path d="M12.1016 6.09961H14.9016V7.59961H12.1016V6.09961Z" fill="#47769D"/>
<path d="M18.2012 6.09961H36.0012V7.59961H18.2012V6.09961Z" fill="#47769D"/>
<path d="M7.09961 17.6992H17.6996V24.0992H7.09961V17.6992Z" fill="#CCCBDD"/>
<path d="M18.5004 24.7994H6.40039V16.8994H18.5004V24.7994ZM7.90039 23.2994H17.0004V18.3994H7.90039V23.2994Z" fill="#47769D"/>
<path d="M24.3008 17.6992H34.9008V24.0992H24.3008V17.6992Z" fill="#B4DBFD"/>
<path d="M35.6 24.7994H23.5V16.8994H35.6V24.7994ZM25 23.2994H34.1V18.3994H25V23.2994Z" fill="#47769D"/>
<path d="M6.40039 29.0996H18.5004V30.5996H6.40039V29.0996Z" fill="#47769D"/>
<path d="M23.5 29.0996H35.6V30.5996H23.5V29.0996Z" fill="#47769D"/>
<path d="M6.40039 34.5H18.5004V36H6.40039V34.5Z" fill="#47769D"/>
<path d="M23.5 34.5H35.6V36H23.5V34.5Z" fill="#47769D"/>
</svg>
