<svg width="149" height="137" viewBox="0 0 149 137" fill="none" xmlns="http://www.w3.org/2000/svg">
<path d="M98.7755 0.698679C98.4668 0.615179 98.1572 0.553329 97.8493 0.512729C96.1323 0.283429 94.4433 0.69013 92.9533 1.48903C91.2056 2.44638 89.7342 3.94943 89.0549 5.97248C88.3598 8.08353 87.6647 10.1955 86.9691 12.3065C86.9447 12.3819 86.9199 12.4568 86.8951 12.5322C86.8883 12.5539 86.8811 12.5756 86.8739 12.5968C86.8698 12.6085 86.8662 12.6202 86.8621 12.632C86.7741 12.8992 86.6865 13.1659 86.5985 13.4332C86.5566 13.56 86.515 13.6864 86.473 13.8132C86.0835 14.9967 85.694 16.1802 85.304 17.3641C84.83 18.8288 84.9018 20.2813 85.3961 21.6318C85.5856 22.1514 85.8384 22.656 86.1462 23.1403C86.4292 23.5799 86.7583 24.0024 87.1311 24.3991C88.2266 25.5641 89.6985 26.5061 91.4783 26.9931C92.5133 27.2752 93.5428 27.3691 94.5273 27.3064C95.8096 27.2242 97.0148 26.8771 98.0543 26.3359C99.8977 25.3677 101.225 23.7934 101.685 21.7306C102.01 20.2456 102.336 18.7723 102.666 17.3027C102.685 17.216 102.705 17.1298 102.725 17.0431C102.777 16.808 102.83 16.5737 102.883 16.3394C102.888 16.3169 102.893 16.2943 102.898 16.2717V16.2713C102.901 16.2613 102.902 16.2519 102.905 16.2419C102.906 16.2383 102.906 16.2342 102.907 16.2306C102.915 16.1995 102.921 16.1679 102.929 16.1367C103.376 14.1575 103.83 12.1809 104.296 10.1895C105.167 6.12863 102.762 1.85553 98.7755 0.698679ZM101.079 8.25163C101.08 8.31988 101.079 8.38813 101.077 8.45698C101.075 8.53153 101.07 8.60673 101.063 8.68193C101.061 8.71098 101.058 8.74008 101.055 8.76848C101.044 8.87213 101.029 8.97703 101.01 9.08063C101.004 9.11538 100.997 9.15078 100.989 9.18553C100.975 9.25443 100.959 9.32393 100.941 9.39278C100.923 9.46103 100.904 9.52803 100.883 9.59438C100.873 9.62533 100.862 9.65633 100.852 9.68728C100.826 9.76503 100.797 9.84208 100.766 9.91793C100.758 9.93813 100.749 9.95898 100.739 9.97923C100.664 10.1555 100.577 10.3236 100.479 10.4841C100.468 10.5025 100.457 10.5214 100.445 10.5404C100.419 10.5815 100.393 10.6213 100.366 10.6611C100.357 10.675 100.347 10.6882 100.338 10.7009C100.308 10.7451 100.276 10.7887 100.244 10.8311C100.232 10.8456 100.221 10.8614 100.209 10.8759C100.189 10.9006 100.17 10.9258 100.15 10.9505C100.123 10.9827 100.097 11.0149 100.069 11.0459C99.9929 11.1331 99.9133 11.2171 99.8305 11.2967C99.8141 11.3132 99.7977 11.3289 99.7806 11.3448C99.7641 11.3606 99.7477 11.3764 99.73 11.3909C99.6959 11.4225 99.6611 11.4528 99.6258 11.4826C99.6087 11.4977 99.591 11.5123 99.5727 11.5268C99.5373 11.5559 99.5019 11.5843 99.4653 11.6121C99.4476 11.6267 99.4286 11.6399 99.4103 11.6532C99.3376 11.7082 99.2624 11.7593 99.1859 11.8086C99.1847 11.8093 99.1834 11.8093 99.1828 11.8105C98.8276 12.0393 98.4365 12.2156 98.0226 12.3319C97.9638 12.3483 97.9044 12.3635 97.845 12.3774C97.5904 12.438 97.3281 12.4759 97.0615 12.4905C96.5882 12.5158 96.101 12.4658 95.615 12.3325C93.2668 11.6917 91.8513 9.33468 92.5129 7.06103C92.947 5.57858 94.1287 4.49733 95.5347 4.10428C96.1249 3.93933 96.7543 3.89513 97.385 3.99308C97.5493 4.01898 97.713 4.05373 97.8766 4.09923C97.9373 4.11628 97.998 4.13463 98.0574 4.15423H98.058L98.0586 4.15488C98.0927 4.16498 98.1263 4.17638 98.1597 4.18898C98.1755 4.19468 98.192 4.20038 98.2077 4.20603C98.2254 4.21233 98.2425 4.21868 98.2596 4.22563C98.2931 4.23763 98.3266 4.25093 98.3588 4.26483C98.4245 4.29138 98.4883 4.31918 98.5515 4.34888C98.5521 4.34888 98.5521 4.34888 98.5528 4.34953C98.6166 4.37858 98.6785 4.40958 98.7398 4.44243C98.7708 4.45823 98.8011 4.47468 98.8315 4.49233C98.8618 4.50873 98.8921 4.52583 98.9218 4.54413C99.0406 4.61363 99.1556 4.68948 99.2668 4.77098C99.2946 4.79058 99.3218 4.81078 99.349 4.83228C99.3768 4.85248 99.4039 4.87333 99.4305 4.89548C99.457 4.91633 99.4836 4.93783 99.5088 4.95993C99.5354 4.98203 99.5613 5.00418 99.5865 5.02693C99.6143 5.05158 99.6415 5.07623 99.6693 5.10088C99.6921 5.12238 99.7142 5.14383 99.7363 5.16533C99.7629 5.19123 99.7888 5.21713 99.8147 5.24368C99.8368 5.26518 99.8583 5.28728 99.8791 5.31003C99.9031 5.33468 99.9259 5.35933 99.9486 5.38523C99.9707 5.40988 99.9929 5.43578 100.016 5.46168C100.28 5.76943 100.5 6.11253 100.67 6.47843C100.685 6.50938 100.699 6.53973 100.712 6.57068C100.726 6.60163 100.739 6.63263 100.751 6.66358C100.764 6.69328 100.776 6.72233 100.787 6.75203C100.787 6.75458 100.788 6.75708 100.79 6.76088C100.802 6.79123 100.813 6.82218 100.824 6.85313C100.835 6.88408 100.847 6.91633 100.857 6.94793C100.867 6.97828 100.877 7.00798 100.886 7.03828C100.897 7.07558 100.908 7.11348 100.919 7.15138C100.927 7.18043 100.936 7.21013 100.943 7.23983C100.951 7.27268 100.96 7.30553 100.967 7.33903C100.975 7.37188 100.982 7.40473 100.989 7.43823C100.99 7.44328 100.991 7.44773 100.992 7.45278C100.998 7.48058 101.003 7.50968 101.008 7.53808C101.015 7.56903 101.02 7.60063 101.024 7.63223C101.025 7.63603 101.025 7.63983 101.027 7.64488C101.032 7.67648 101.037 7.70743 101.041 7.73903C101.045 7.77313 101.049 7.80663 101.053 7.84078C101.057 7.87428 101.06 7.90838 101.063 7.94253C101.066 7.97663 101.069 8.01013 101.071 8.04428C101.075 8.11253 101.078 8.18078 101.079 8.24963C101.079 8.25038 101.079 8.25098 101.079 8.25163Z" fill="#220047"/>
<path d="M105.082 4.36288C104.051 2.65488 102.506 1.26873 100.476 0.712233C99.5949 0.471633 98.7097 0.416582 97.849 0.512282C96.7296 0.636882 95.6508 1.01603 94.675 1.57298C92.953 2.57143 91.5506 4.12683 90.9137 6.13948C90.2629 8.24148 89.6093 10.3191 88.9467 12.3973C88.9241 12.4677 88.9015 12.5386 88.879 12.609C88.8695 12.6392 88.86 12.6699 88.8496 12.7006C88.8465 12.7105 88.8433 12.7205 88.8401 12.7309C88.7832 12.9083 88.7264 13.0861 88.6695 13.2635C88.6397 13.3574 88.6095 13.4508 88.5793 13.5447C88.1667 14.8315 87.7501 16.1202 87.3281 17.4161C86.0417 21.3619 88.7129 25.7136 93.4518 27.079C93.4522 27.079 93.4522 27.079 93.4522 27.079C93.8124 27.1765 94.1708 27.2518 94.5269 27.306C96.5184 27.6093 98.4209 27.2577 99.9772 26.4769C101.812 25.543 103.166 24.0133 103.626 21.9307C103.871 20.7977 104.116 19.6648 104.361 18.5314C104.386 18.4136 104.412 18.2954 104.438 18.1767C104.48 17.9808 104.522 17.7849 104.565 17.589C104.597 17.4414 104.629 17.2942 104.661 17.1466V17.1462C104.663 17.1358 104.665 17.1254 104.667 17.115C104.667 17.1141 104.668 17.1132 104.668 17.1123C104.673 17.0871 104.679 17.0618 104.685 17.0365C105.176 14.7602 105.668 12.484 106.16 10.2082C106.597 8.12008 106.096 6.08078 105.082 4.36288ZM102.679 9.41738C102.095 11.7188 99.6814 13.0414 97.3363 12.4076C97.2744 12.3906 97.2125 12.3729 97.1518 12.3533C97.1164 12.3425 97.0823 12.3318 97.0482 12.3192C97.0141 12.3084 96.9799 12.2964 96.9458 12.2832C96.9117 12.2712 96.8788 12.2585 96.8453 12.2453C96.8118 12.2326 96.779 12.2187 96.7461 12.2048C96.6798 12.1776 96.6147 12.1486 96.5515 12.1176C96.5199 12.1025 96.4883 12.0873 96.458 12.0715C96.4561 12.0702 96.4548 12.0696 96.4529 12.0689C96.4289 12.0569 96.4055 12.0449 96.3821 12.0323C96.3676 12.0241 96.3531 12.0171 96.3392 12.0089C96.3171 11.9975 96.2949 11.9855 96.2735 11.9722C96.2722 11.9716 96.2703 11.971 96.2697 11.9703C96.2412 11.9545 96.2128 11.9387 96.1856 11.9217C96.1831 11.9198 96.1799 11.9179 96.1774 11.916C96.1186 11.8818 96.0611 11.8458 96.0055 11.8079C95.9764 11.789 95.948 11.77 95.9202 11.7498C95.8633 11.7106 95.8077 11.6701 95.754 11.6278C95.7249 11.6051 95.6959 11.5823 95.6668 11.5596C95.6163 11.5185 95.5663 11.4762 95.5183 11.4326C95.4172 11.3435 95.3218 11.2506 95.2308 11.1533C95.2295 11.1514 95.2282 11.1501 95.2276 11.1495C95.1354 11.0509 95.0482 10.9485 94.966 10.8424C94.9439 10.8139 94.9224 10.7849 94.9009 10.7564C94.863 10.7046 94.8264 10.6522 94.791 10.5984C94.772 10.5713 94.7537 10.5434 94.736 10.5144C94.7183 10.4866 94.7006 10.4588 94.6842 10.4297C94.6665 10.4013 94.6494 10.3722 94.6336 10.3431C94.6166 10.3153 94.6014 10.2875 94.5862 10.2591C94.5856 10.2578 94.585 10.2565 94.5843 10.2559C94.5685 10.2269 94.5527 10.1972 94.5388 10.1681C94.523 10.1377 94.5085 10.1074 94.4933 10.0777C94.4813 10.0518 94.4693 10.0265 94.4579 10.0006C94.3998 9.87423 94.3486 9.74468 94.3043 9.61328C94.2955 9.58863 94.2873 9.56398 94.2797 9.53933C94.2671 9.50203 94.2563 9.46478 94.2462 9.42748C94.238 9.40218 94.2304 9.37628 94.2248 9.35038C94.2127 9.30803 94.202 9.26633 94.1932 9.22463C94.1862 9.19683 94.1799 9.17028 94.1749 9.14313C94.1736 9.13868 94.1723 9.13363 94.1717 9.12923C94.166 9.10458 94.161 9.07993 94.1566 9.05528C94.149 9.01673 94.142 8.97818 94.1364 8.93963C94.1313 8.90803 94.1263 8.87643 94.1225 8.84483C94.1124 8.77088 94.1041 8.69568 94.0978 8.61988C94.0959 8.59713 94.0947 8.57503 94.0928 8.55228C94.0909 8.52448 94.089 8.49603 94.089 8.46823C94.0877 8.44548 94.0864 8.42148 94.0864 8.39873C94.0852 8.37723 94.0852 8.35638 94.0852 8.33553C94.0839 8.30458 94.0845 8.27298 94.0845 8.24203C94.0871 7.99813 94.1117 7.75103 94.1604 7.50393C94.1667 7.47233 94.173 7.44073 94.1799 7.40978C94.1976 7.32888 94.2172 7.24863 94.24 7.16773C94.2488 7.13678 94.2583 7.10518 94.2678 7.07423C94.2873 7.00913 94.3095 6.94403 94.3322 6.88088C94.3398 6.85938 94.348 6.83728 94.3562 6.81578C94.3695 6.78168 94.3821 6.74688 94.3967 6.71278C94.4049 6.69258 94.4131 6.67233 94.4219 6.65213C94.4308 6.63128 94.4403 6.61043 94.4485 6.59018C94.4554 6.57503 94.4618 6.56048 94.4687 6.54593C94.4794 6.52383 94.4895 6.50168 94.4996 6.47958C94.5104 6.45748 94.5205 6.43533 94.5319 6.41448C94.5534 6.37088 94.5761 6.32853 94.5982 6.28618C94.6096 6.26468 94.621 6.24383 94.6336 6.22298C94.6368 6.21668 94.6406 6.21033 94.6444 6.20403C94.652 6.18948 94.6608 6.17498 94.6696 6.16043C94.7543 6.01508 94.8472 5.87673 94.9471 5.74398C94.9597 5.72693 94.9723 5.70988 94.9856 5.69343C94.9888 5.69028 94.9919 5.68583 94.9951 5.68208C95.0078 5.66503 95.021 5.64798 95.0343 5.63153C95.0494 5.61383 95.0646 5.59488 95.0791 5.57718C95.1088 5.54053 95.1398 5.50513 95.172 5.46978C95.2504 5.38133 95.3319 5.29663 95.4179 5.21573C95.4855 5.15063 95.555 5.08743 95.6277 5.02743C95.7705 4.90608 95.9221 4.79488 96.0801 4.69378C96.2773 4.56613 96.4846 4.45493 96.6994 4.36138C96.8283 4.30323 96.9604 4.25268 97.0944 4.20973C97.1835 4.17938 97.2732 4.15283 97.3642 4.13008H97.3648C98.065 3.94748 98.8176 3.93733 99.562 4.13513C100.28 4.32658 100.911 4.69123 101.42 5.17273C102.539 6.22683 103.075 7.84013 102.679 9.41738Z" fill="#CFB3CD"/>
<path d="M96.4223 0.864453C96.114 1.0107 95.8086 1.14935 95.5233 1.32565C95.3773 1.4057 95.2377 1.49695 95.0982 1.5856C95.0275 1.62815 94.9615 1.67915 94.8937 1.72605C94.8267 1.7745 94.7583 1.8198 94.6932 1.87035C94.1702 2.27005 93.6848 2.7066 93.272 3.20415C93.2212 3.26695 93.1695 3.32865 93.1175 3.38985C93.0644 3.4499 93.018 3.51625 92.9684 3.5792C92.92 3.64335 92.8694 3.7053 92.8231 3.7708L92.6855 3.9678C92.6628 4.00075 92.6391 4.03285 92.6173 4.0663L92.5526 4.16735L92.4224 4.36795L92.301 4.574C92.2607 4.6426 92.2192 4.7109 92.1847 4.7798L92.0761 4.98515C92.0672 5.0022 92.0574 5.0193 92.0494 5.0362L92.0275 5.0866L91.9824 5.1864C91.9218 5.3279 91.8627 5.47125 91.8102 5.61896C91.7023 5.91255 91.6141 6.21945 91.5245 6.53425C91.436 6.8489 91.3533 7.17535 91.264 7.50885C91.242 7.5916 91.2182 7.67775 91.1949 7.759C91.1736 7.83665 91.1488 7.9105 91.1307 7.99165L91.0119 8.4746C90.8485 9.13935 90.6666 9.7984 90.4834 10.4563C90.3929 10.7856 90.2956 11.1126 90.1987 11.4396L89.905 12.4188C89.7043 13.0697 89.4961 13.7173 89.29 14.3646L89.13 14.8492C89.0742 15.013 89.0193 15.1803 88.9627 15.3412L88.6282 16.3009C88.5709 16.4591 88.5193 16.6134 88.4645 16.7699C88.413 16.9249 88.361 17.0798 88.3126 17.2339C88.2671 17.3873 88.2158 17.5418 88.1766 17.694L88.1134 17.9231L88.0567 18.1505C88.0158 18.3025 87.989 18.4528 87.9572 18.6039C87.9397 18.6796 87.9315 18.7543 87.919 18.8294C87.9079 18.9044 87.8945 18.9798 87.8849 19.0547L87.8627 19.2787L87.8512 19.3909C87.8482 19.4281 87.8474 19.4651 87.8453 19.5022L87.8338 19.7252C87.8296 19.7997 87.835 19.8729 87.8348 19.947L87.8362 20.0579C87.8367 20.0949 87.836 20.1322 87.8405 20.1686L87.8593 20.3888L87.8683 20.4992L87.8858 20.607C87.8972 20.679 87.9089 20.751 87.9188 20.8236C87.9419 20.9671 87.9787 21.1182 88.0162 21.2662C88.0544 21.4142 88.0986 21.5602 88.1474 21.7053C88.2466 21.9947 88.3609 22.2821 88.4973 22.5664C88.5302 22.6369 88.5674 22.7102 88.6012 22.7776C88.6186 22.811 88.6348 22.8448 88.6531 22.8782L88.7117 22.9774C88.7508 23.0437 88.79 23.1101 88.8282 23.1774C88.8665 23.2446 88.9125 23.3098 88.9543 23.3763C89.2977 23.9052 89.7006 24.4032 90.1647 24.8507C90.6224 25.3059 91.1397 25.7106 91.6955 26.0713C91.8354 26.1598 91.974 26.253 92.1194 26.3343L92.3361 26.4606L92.5577 26.5791C92.7038 26.6633 92.8556 26.7358 93.0065 26.8128C93.0817 26.8524 93.1592 26.8857 93.236 26.9218L93.4667 27.032L93.4381 27.1278C92.7847 26.935 92.1463 26.6878 91.5365 26.3808C91.4592 26.3446 91.3853 26.3017 91.31 26.2615L91.0851 26.1389L90.8654 26.0071C90.792 25.9634 90.7186 25.9198 90.6481 25.8714L90.4344 25.7299C90.3622 25.6841 90.2954 25.6305 90.2256 25.5811C90.1569 25.5302 90.0865 25.4816 90.0192 25.4288L89.8192 25.2682C89.2882 24.8364 88.8138 24.3355 88.4032 23.7878C87.9876 23.2414 87.6554 22.6355 87.4013 21.9985C87.2753 21.679 87.1702 21.3522 87.0922 21.017L87.0412 20.7637L87.0157 20.637L86.9993 20.509L86.9669 20.2529C86.9603 20.2103 86.959 20.1673 86.9564 20.1244L86.9492 19.9956C86.9456 19.9097 86.9367 19.8238 86.9376 19.7379L86.9399 19.48C86.9406 19.4371 86.9401 19.394 86.9418 19.3511L86.9507 19.2226L86.9686 18.9656C86.977 18.8802 86.9892 18.7953 86.9993 18.7102C87.0108 18.6252 87.0183 18.5395 87.0348 18.4555C87.0648 18.2869 87.0906 18.1172 87.13 17.9508C87.2733 17.2813 87.4773 16.629 87.6946 15.9853L88.0223 15.0216C88.131 14.701 88.2348 14.379 88.3392 14.0558C88.761 12.7662 89.1796 11.4758 89.5789 10.1798C89.7784 9.53171 89.9733 8.8823 90.1615 8.231L90.3018 7.7405C90.3235 7.65825 90.3535 7.5779 90.3793 7.49665L90.4569 7.2549C90.5593 6.93215 90.6579 6.60715 90.7656 6.28385C90.8729 5.96055 90.9889 5.6388 91.1254 5.32455C91.1924 5.16695 91.2671 5.01245 91.3443 4.85925L91.4052 4.74495L91.4357 4.68785C91.4463 4.66915 91.4581 4.6513 91.4693 4.63295L91.6053 4.41445C91.6494 4.3407 91.6986 4.2708 91.7469 4.2002L91.8922 3.9887L92.0463 3.78355L92.1234 3.681C92.1496 3.64715 92.1775 3.6147 92.2044 3.5815L92.3675 3.3834C92.4223 3.3177 92.4813 3.2557 92.5381 3.1917C92.6504 3.06255 92.7721 2.9422 92.8927 2.82095C92.9518 2.759 93.0169 2.7033 93.0793 2.6449C93.1428 2.58755 93.2044 2.52815 93.2694 2.47255L93.4662 2.30805C93.4992 2.28085 93.5314 2.2527 93.5651 2.22635L93.6673 2.1488L93.8716 1.9938L94.083 1.84855L94.1888 1.77605C94.2241 1.752 94.2612 1.7307 94.2974 1.7079L94.5156 1.57325C95.1048 1.2264 95.7386 0.956705 96.395 0.768555L96.4223 0.864453Z" fill="#220047"/>
<path d="M103.587 7.37485L103.557 7.23685L103.526 7.1086L103.506 7.028L103.495 6.98645L103.486 6.9553C103.475 6.91685 103.46 6.87165 103.446 6.8283C103.417 6.7416 103.39 6.65425 103.358 6.56815C103.342 6.5254 103.322 6.4778 103.304 6.4332L103.291 6.40085L103.279 6.3764L103.268 6.352L103.262 6.3398C103.259 6.33125 103.256 6.3227 103.251 6.31355L103.208 6.22195L103.169 6.1456L103.129 6.06805L103.078 5.97155L103.034 5.8952L103.012 5.85735L102.986 5.8146L102.961 5.77245L102.942 5.74375L102.893 5.6668C102.827 5.56545 102.756 5.46465 102.682 5.37185L102.622 5.29675L102.606 5.2772L102.594 5.26255L102.568 5.23325L102.507 5.1624L102.468 5.1178L102.449 5.0952L102.439 5.0842C102.44 5.0854 102.441 5.08665 102.442 5.0885C102.445 5.09215 102.448 5.09585 102.451 5.0995C102.371 5.0128 102.303 4.9432 102.221 4.8638C102.181 4.82535 102.136 4.7832 102.095 4.74595C102.054 4.70995 102.011 4.6745 101.969 4.6391C101.928 4.60305 101.885 4.5713 101.842 4.53835L101.715 4.4443C101.626 4.3802 101.536 4.31975 101.444 4.26235C101.489 4.29715 101.533 4.33625 101.57 4.37835L101.439 4.2599C101.367 4.21835 101.295 4.17745 101.222 4.1384C101.191 4.1213 101.16 4.1042 101.129 4.0877C101.028 4.0315 100.911 3.98025 100.804 3.93135C100.706 3.89105 100.588 3.8471 100.479 3.80615C100.37 3.7689 100.252 3.73715 100.137 3.7048L100.167 3.717C100.135 3.70355 100.102 3.69255 100.069 3.6834L100.152 3.7121L100.018 3.67545L100.029 3.68035L99.9641 3.66445L99.9287 3.6559L99.9085 3.65285C99.9012 3.6516 99.8969 3.651 99.8866 3.64855L99.8518 3.6412L99.7822 3.62655L99.7938 3.63085L99.8579 3.65285L99.853 3.65225L99.7937 3.6309C99.7461 3.62235 99.6972 3.6126 99.6514 3.60645L99.5165 3.58815C99.4273 3.57595 99.3363 3.5674 99.2459 3.56065C99.1555 3.55395 99.0701 3.5515 98.9656 3.54785C98.8801 3.54785 98.7983 3.54845 98.7104 3.5515C98.3537 3.5637 98.0038 3.6144 97.6661 3.7005C97.3284 3.7866 97.0048 3.9081 96.6989 4.0559C96.6683 4.07115 96.6378 4.08705 96.6079 4.1029C96.3374 4.24455 96.0815 4.4064 95.8464 4.5902C95.7151 4.6928 95.5911 4.8021 95.4702 4.91325C95.4116 4.97065 95.3536 5.02865 95.2968 5.0879C95.2424 5.1496 95.1857 5.2076 95.1343 5.2717C94.9297 5.5123 94.7478 5.77 94.6 6.0454C94.5957 6.05335 94.5908 6.0619 94.5866 6.07045C94.4302 6.35075 94.3093 6.64935 94.2232 6.9559C94.1304 7.2606 94.0742 7.5751 94.0547 7.89205C94.0168 8.37815 94.0651 8.8685 94.1769 9.346C94.2074 9.46445 94.2404 9.58295 94.2807 9.69895C94.2996 9.75755 94.3198 9.8162 94.3411 9.8736L94.3723 9.96095L94.4077 10.0471C94.4535 10.1619 94.5066 10.2736 94.5628 10.3848C94.6196 10.4953 94.6812 10.6034 94.7435 10.7127C94.8712 10.9282 95.0202 11.1316 95.1826 11.327C95.3438 11.5236 95.5233 11.7074 95.7181 11.8778C95.8958 12.0378 96.09 12.1831 96.2952 12.3144C96.3123 12.3248 96.3288 12.3357 96.3459 12.3461C96.5688 12.4872 96.8057 12.6124 97.0548 12.7162C97.304 12.8212 97.5647 12.9018 97.8334 12.9617C98.1027 13.0234 98.3787 13.0594 98.659 13.0716C98.9399 13.085 99.2239 13.071 99.5078 13.0343C99.7906 12.9958 100.075 12.9287 100.347 12.8395C100.481 12.7986 100.623 12.7363 100.755 12.6838C100.766 12.6795 100.785 12.671 100.802 12.6637L100.853 12.6405L100.954 12.5922C101.021 12.5586 101.088 12.5238 101.154 12.4878L101.243 12.439L101.339 12.3828C101.403 12.345 101.464 12.3034 101.525 12.2619C101.647 12.1795 101.769 12.0885 101.881 11.9969C101.993 11.9065 102.109 11.8064 102.215 11.7008C102.267 11.6489 102.323 11.5902 102.369 11.5396L102.516 11.3704L102.59 11.2843C102.613 11.2556 102.635 11.2257 102.657 11.1958L102.791 11.0162C102.813 10.9857 102.836 10.9576 102.857 10.9246L102.921 10.8233L102.972 10.7408L102.987 10.7164L102.994 10.7036C102.99 10.7103 102.986 10.7164 102.982 10.7225L103.002 10.6877L102.994 10.7036C103.002 10.6895 103.011 10.6755 103.019 10.6603L103.007 10.6804L103.027 10.645L103.032 10.6359L103.033 10.634C103.033 10.6346 103.032 10.6359 103.032 10.6371L103.101 10.5101L103.164 10.3867C103.206 10.3043 103.245 10.2194 103.282 10.1333L103.333 10.0118C103.351 9.9654 103.37 9.91835 103.385 9.87135L103.407 9.80785L103.426 9.74925L103.445 9.6882L103.47 9.60395L103.487 9.54655L103.508 9.4702L103.526 9.3963L103.541 9.3328C103.552 9.287 103.56 9.24485 103.569 9.2015C103.578 9.1612 103.588 9.10685 103.596 9.06045C103.611 8.96885 103.627 8.8742 103.638 8.78445C103.644 8.7405 103.647 8.6947 103.65 8.6452L103.658 8.50045C103.678 8.13265 103.658 7.74305 103.587 7.37485ZM102.415 8.43005C102.398 8.714 102.353 8.9992 102.277 9.2746C102.202 9.5494 102.097 9.82055 101.967 10.0703L101.925 10.1485C101.91 10.1753 101.896 10.2022 101.881 10.226C101.852 10.2761 101.823 10.3262 101.789 10.3744L101.693 10.5204L101.644 10.593L101.59 10.662C101.452 10.8507 101.295 11.0235 101.124 11.1835C100.953 11.3447 100.771 11.4889 100.575 11.6189C100.478 11.6843 100.379 11.7447 100.276 11.8003L100.119 11.8803C100.067 11.9065 100.015 11.9334 99.961 11.956C99.5336 12.1472 99.0737 12.2638 98.606 12.2974C98.3727 12.3145 98.137 12.3126 97.9044 12.2876C97.6747 12.2644 97.4464 12.2241 97.2241 12.1612C97.2205 12.16 97.2174 12.1594 97.2137 12.1582C96.7618 12.0306 96.3307 11.8284 95.9466 11.5567C95.5625 11.2849 95.2236 10.9497 94.9482 10.5674C94.6746 10.1833 94.4652 9.754 94.3326 9.3015C94.2013 8.8484 94.1519 8.3721 94.18 7.90065C94.2221 7.3535 94.3803 6.81615 94.6422 6.33495C94.6734 6.27695 94.7063 6.22015 94.7405 6.16395C95.0629 5.64185 95.5051 5.19425 96.0241 4.86875C96.283 4.7051 96.5597 4.56955 96.8479 4.4651C97.0293 4.4004 97.2149 4.34845 97.403 4.30875C97.5147 4.28555 97.6265 4.2666 97.7394 4.25255C98.344 4.1744 98.9681 4.22815 99.55 4.404C99.5512 4.4046 99.5519 4.4046 99.5531 4.40525L99.5604 4.4077L99.6501 4.4364L99.7393 4.46695L99.7246 4.46025L99.7289 4.4615L99.746 4.46945L99.8284 4.5L99.8327 4.5012L99.8333 4.5018H99.8345L99.837 4.50305L99.8406 4.5049C99.9292 4.54155 100.018 4.57635 100.105 4.61725C100.191 4.66 100.276 4.7009 100.361 4.74795C100.444 4.7968 100.528 4.842 100.605 4.89815L100.841 5.05935C100.843 5.06055 100.845 5.0624 100.847 5.06365C100.916 5.11555 100.983 5.1693 101.048 5.2255C101.088 5.2597 101.127 5.2951 101.166 5.33175C101.191 5.35435 101.215 5.37815 101.239 5.40135C101.3 5.463 101.361 5.5235 101.418 5.5876C101.474 5.6493 101.528 5.7152 101.582 5.77995C101.577 5.77385 101.573 5.7665 101.57 5.7598L101.585 5.7836L101.585 5.7848L101.588 5.7891L101.59 5.79095L101.593 5.7946L101.597 5.8013L101.608 5.81475L101.628 5.841L101.669 5.8972C101.699 5.93565 101.724 5.97355 101.751 6.0114C101.803 6.08895 101.853 6.16775 101.9 6.24895C101.947 6.32955 101.991 6.4126 102.032 6.49685C102.071 6.57625 102.112 6.66785 102.145 6.7509L102.149 6.75945L102.165 6.80095L102.184 6.85165C102.196 6.88525 102.209 6.9182 102.22 6.9524C102.243 7.0202 102.262 7.0892 102.282 7.1582C102.303 7.2266 102.32 7.29805 102.334 7.3652C102.35 7.43545 102.363 7.50625 102.375 7.5765C102.42 7.8585 102.435 8.14425 102.415 8.43005ZM100.149 3.73535L100.145 3.73415L100.106 3.71585L100.149 3.73535ZM102.452 5.10075C102.468 5.1203 102.483 5.14105 102.497 5.1624C102.532 5.2137 102.562 5.26925 102.585 5.32485L102.452 5.10075ZM103.251 6.31355C103.241 6.2867 103.228 6.25795 103.215 6.2323L103.251 6.31355ZM101.358 4.20555L101.294 4.1695L101.439 4.25985L101.441 4.26045C101.414 4.24035 101.386 4.22205 101.358 4.20555Z" fill="#220047"/>
<path d="M105.291 80.3648C104.741 82.3867 103.889 84.3335 102.755 86.1107C101.486 88.0989 99.5979 89.6346 98.2044 91.5245C96.8917 93.3048 96.8597 95.7613 96.6969 97.9365C96.3101 103.104 96.8653 108.366 98.352 113.418C98.7069 114.624 99.1178 115.881 98.8485 117.086C98.4123 119.038 96.472 119.173 94.7086 119.304C92.0532 119.501 89.3176 119.597 86.6449 119.525C75.6102 119.229 64.1329 115.954 54.0534 111.512C48.4477 109.041 43.1093 105.966 38.2936 102.263C34.196 99.1124 29.0758 95.1216 28.5567 89.8193C28.166 85.8295 34.3811 85.8682 37.2031 85.1875C41.4576 84.1613 41.863 81.008 44.1583 78.1052C46.6066 75.0088 46.1281 69.9964 49.3992 67.5647C51.4684 66.0265 53.5167 65.5078 55.9211 64.703C58.5828 63.8122 60.8148 62.0514 62.8187 60.2488C67.3575 56.166 71.6599 52.7097 78.1908 51.8727C94.8994 49.7314 109.447 65.079 105.291 80.3648Z" fill="white"/>
<path d="M53.6216 67.0447C53.5719 66.8862 53.4807 66.7391 53.3336 66.61C53.3178 66.5951 53.3006 66.582 53.2839 66.5694C52.94 66.3207 52.3672 66.4723 52.0038 66.745C51.566 67.0966 51.1525 67.4617 50.7156 67.7741C50.7152 67.7741 50.7147 67.7745 50.7143 67.775C50.4439 67.9677 50.165 68.1401 49.8657 68.2769C49.8657 68.2769 49.8653 68.2774 49.8648 68.2774C49.5182 68.4358 49.1449 68.5464 48.7265 68.5848C49.1806 68.0345 49.7845 67.631 50.327 67.176C50.0481 67.3624 49.7357 67.4825 49.4071 67.5601H49.4067C48.8023 67.7028 48.1424 67.7014 47.5371 67.7041C46.9666 67.6928 46.3861 67.6662 45.8589 67.6689C45.3322 67.6716 44.8578 67.7037 44.5003 67.8079C43.3543 68.1428 42.4249 68.8411 41.5294 69.5705C41.2789 69.7741 41.0316 69.9804 40.7829 70.1817C40.7824 70.1821 40.782 70.1826 40.7815 70.183C40.7797 70.1844 40.7779 70.1857 40.7761 70.1875C40.7757 70.1875 40.7757 70.1875 40.7752 70.188C40.7743 70.1889 40.773 70.1898 40.7721 70.1902C40.6024 70.3274 40.4317 70.4628 40.2593 70.5933C39.1309 71.4473 37.9709 72.2412 36.8876 73.1381C36.5265 73.4373 36.1745 73.7474 35.8346 74.0751C35.0081 75.0519 34.039 75.9284 33.0785 76.8118C32.7585 77.1065 32.4389 77.4022 32.127 77.705C30.3762 79.4126 28.9683 81.5123 28.5436 83.9145C28.308 85.2817 28.5274 86.6521 28.9539 87.9917C29.3606 89.2682 29.9542 90.5167 30.5206 91.7069C30.4665 91.5733 30.5021 91.4135 30.6041 91.2375C31.1701 90.2558 33.7854 88.7654 34.3297 88.5302C36.0386 87.7918 37.9384 87.5756 39.8265 87.8374C43.6189 88.3628 45.0411 87.2637 46.4887 84.0477C48.3285 79.9587 50.1849 75.8779 52.0328 71.793C52.2784 71.25 52.5239 70.707 52.7695 70.1636C52.9225 69.8282 53.0945 69.4278 53.2493 69.0076V69.0072C53.2497 69.0058 53.2502 69.0054 53.2506 69.004C53.2777 68.9305 53.3043 68.8564 53.3301 68.7824C53.3599 68.6849 53.3937 68.5829 53.4285 68.4782C53.4343 68.462 53.4398 68.4448 53.4456 68.4281C53.5981 67.9704 53.7552 67.4672 53.6216 67.0447ZM33.7271 85.9214C33.723 85.9114 33.719 85.902 33.7153 85.892C33.7311 85.9295 33.7474 85.9674 33.7636 86.0049C33.7514 85.9769 33.7393 85.9494 33.7271 85.9214Z" fill="white"/>
<path d="M36.7725 73.6634C36.7777 73.6592 36.783 73.6551 36.7882 73.651C36.7964 73.6443 36.8046 73.6376 36.8128 73.6309C36.7993 73.6417 36.786 73.6526 36.7725 73.6634Z" fill="#130E28"/>
<path d="M36.8164 73.636L36.8175 73.635L36.8254 73.6279L36.8164 73.636Z" fill="#130E28"/>
<path d="M36.8168 73.6284C36.8157 73.6293 36.8146 73.6302 36.8135 73.6311C36.8156 73.6294 36.8177 73.6277 36.8198 73.626C36.8188 73.6267 36.8178 73.6276 36.8168 73.6284Z" fill="#130E28"/>
<path d="M118.241 93.5187C116.785 91.2664 114.63 89.1508 112.706 86.9369C112.706 86.9364 112.705 86.9355 112.705 86.9351C112.29 86.4584 111.886 85.9768 111.502 85.488C110.636 84.3849 109.872 83.2461 109.317 82.0459L109.317 82.0454C109.044 81.4523 108.822 80.8443 108.663 80.2183C108.397 79.1666 108.699 78.6579 108.982 77.8982V77.8978C109.056 77.6978 109.129 77.4803 109.19 77.2306C109.204 77.1738 109.216 77.1178 109.225 77.0627C109.464 75.7343 108.592 74.8321 108.301 73.5565C108.115 72.7418 108.236 71.7465 108.404 70.7923C108.514 70.1694 108.645 69.565 108.722 69.0383C108.984 67.2576 109.33 65.4932 109.724 63.7397C109.804 63.3813 109.887 63.0234 109.971 62.6659C110.221 61.5997 110.486 60.5368 110.759 59.4765C110.886 58.9805 111.015 58.4849 111.144 57.9893C111.688 55.9062 112.242 53.8263 112.744 51.7324C111.872 55.1732 108.298 56.9755 104.816 57.876C104.129 58.0543 103.446 58.1969 102.788 58.3098C102.539 58.3527 102.291 58.3919 102.041 58.4276C101.746 58.4705 101.451 58.5084 101.155 58.5422C101.025 58.5567 100.894 58.5711 100.763 58.5837C100.714 58.5887 100.666 58.5937 100.617 58.5982C100.495 58.6108 100.372 58.6216 100.249 58.632C100.075 58.6469 99.5377 58.5968 99.4366 58.697C99.3391 58.7932 99.2845 59.027 99.2448 59.2536V59.254C99.2132 59.4305 99.1915 59.6029 99.1653 59.7009C98.8661 60.813 98.5664 61.9252 98.2716 63.0383C98.1547 63.4797 98.0396 63.9212 97.9263 64.3621C97.4334 66.284 96.9789 68.2073 96.588 70.1487C96.5027 70.5712 96.4206 70.9941 96.342 71.4184V71.4188C96.2134 72.1121 96.0933 72.8081 95.9836 73.5073C95.9006 74.035 95.8117 74.5658 95.7196 75.0984V75.0989C95.6126 75.7177 95.502 76.3388 95.3919 76.9626C95.3756 77.0569 95.3585 77.1517 95.3422 77.2465C95.1824 78.1542 95.0263 79.0659 94.8877 79.9791C94.5754 82.0332 94.3533 84.0911 94.3876 86.1186C94.3885 86.179 94.3894 86.2395 94.3899 86.2996C94.3917 86.3957 94.3921 86.4919 94.3926 86.5876C94.3953 87.2791 94.3781 87.9701 94.3411 88.6594C94.2829 89.7548 94.1741 90.8467 94.0161 91.9304C93.9868 92.1322 93.9552 92.3339 93.9222 92.5352C93.8319 93.09 93.7281 93.6424 93.6117 94.1917C93.1991 96.1371 92.333 98.0099 92.0012 99.9638C91.9078 100.511 91.8568 101.065 91.869 101.628C91.9033 103.184 91.971 104.801 92.7839 106.228C92.9888 106.588 93.1942 106.95 93.3969 107.316C95.1202 110.418 96.6779 113.746 96.2852 117.251C96.2265 117.774 96.0739 118.152 96.0374 118.459C96.0062 118.717 96.0568 118.927 96.3136 119.133C96.4111 119.212 96.5389 119.29 96.7032 119.371C97.6578 119.838 99.2114 119.794 100.242 119.787C102.633 119.769 104.965 119.228 107.237 118.637C107.779 118.491 108.319 118.357 108.854 118.252C109.424 118.112 109.987 117.952 110.54 117.769C115.245 116.21 119.521 113.104 121.182 108.549C121.226 108.427 121.269 108.305 121.309 108.183C122.929 103.247 121.076 97.9047 118.241 93.5187Z" fill="#220047"/>
<path d="M126.217 106.938C126.188 107.196 126.156 107.45 126.121 107.67C126.162 107.427 126.194 107.183 126.217 106.938Z" fill="#694066"/>
<path d="M83.3519 55.9883L89.5014 86.6831L89.7452 87.9007C89.1089 88.2204 88.0098 88.996 88.2275 90.2195C88.2296 90.2333 88.2322 90.2469 88.2349 90.2604C88.2325 90.2473 88.2294 90.234 88.2268 90.2205C88.0883 89.5283 87.8967 88.5714 87.6669 87.4199C86.1529 79.8501 82.9583 63.8676 82.0616 59.3856C81.9982 59.068 81.9156 58.744 81.8688 58.4241C81.6774 57.1103 82.621 56.36 83.3519 55.9883Z" fill="#220047"/>
<path d="M84.5496 55.6025L90.7253 86.3905L90.9304 87.4125L90.9507 87.5152C90.8451 87.5322 90.7403 87.553 90.6357 87.5778C90.3298 87.6502 90.0309 87.7571 89.7449 87.9004L89.5011 86.6828L83.3516 55.988C83.7318 55.7942 84.1359 55.6686 84.5496 55.6025Z" fill="#220047"/>
<path d="M86.0036 55.6419L92.1461 86.2226L92.2783 86.8782L92.4128 87.5494C91.921 87.4395 91.4273 87.4392 90.9509 87.5153L90.9306 87.4126L90.7256 86.3906L84.5498 55.6026C85.0233 55.5268 85.5146 55.5294 86.0036 55.6419Z" fill="#FFE980"/>
<path d="M87.385 56.4232L93.3764 86.2141L93.4624 86.6439L93.799 88.3164C93.4066 87.8607 92.8841 87.6539 92.4132 87.5491L92.2786 86.8779L92.1464 86.2223L86.0039 55.6416C86.4744 55.7502 86.9949 55.9627 87.385 56.4232Z" fill="#FFF3CD"/>
<path d="M100.995 103.939C96.7296 108.259 89.7716 108.27 85.357 105.079C83.5618 103.781 82.1873 101.954 81.5847 99.6714C81.8282 100.769 81.7458 100.681 81.4639 99.5375C80.442 94.9285 83.2137 89.699 87.6674 87.4202C88.1035 87.1967 88.5557 87.002 89.0224 86.8388C89.1812 86.7833 89.3412 86.7314 89.502 86.6834C89.9045 86.5628 90.3134 86.4658 90.7263 86.3911C91.1958 86.306 91.6704 86.2504 92.1468 86.223C92.5561 86.1994 92.967 86.197 93.3767 86.2148C96.7791 86.3613 100.098 87.9076 102.068 90.4754C102.149 90.581 102.228 90.6888 102.304 90.798C105.04 94.7044 104.47 100.419 100.995 103.939Z" fill="#220047"/>
<path d="M103.069 95.5663C102.623 98.329 100.505 100.479 97.5386 100.946C94.5669 101.414 91.5297 100.228 89.657 98.1176C87.5535 95.7478 86.8139 92.2132 88.6823 89.4241C90.552 86.6331 94.2949 85.9976 97.3586 87.0992C100.889 88.3686 103.665 91.8825 103.069 95.5663Z" fill="#220047"/>
<path opacity="0.4" d="M100.166 91.2586C101.253 94.2023 98.4088 95.859 95.6703 94.2636C92.3909 92.3531 92.8219 87.9962 96.105 88.1836C97.68 88.2734 99.5703 89.6462 100.166 91.2586Z" fill="#CFB3CD"/>
<path d="M98.4569 91.1134C99.4431 93.1585 96.6047 92.4644 95.8457 90.6828C95.472 89.8059 95.5655 89.4166 96.3055 89.4102C96.9418 89.4047 98.0652 90.3011 98.4569 91.1134Z" fill="#FFF3CD"/>
<g opacity="0.9">
<path d="M85.2953 105.162C83.6435 103.968 82.4194 102.374 81.7512 100.549C81.7469 100.55 81.7228 100.55 81.7224 100.55C81.6328 100.55 81.6058 100.55 81.3623 99.5619C80.8655 97.3217 81.241 94.8344 82.4193 92.5571C83.572 90.3292 85.3928 88.4862 87.5494 87.3636C86.8484 83.8586 85.7952 78.5908 84.7761 73.4933C83.5853 67.5368 82.441 61.8129 81.9594 59.4059C81.9382 59.3001 81.915 59.1937 81.8917 59.0869C81.8449 58.8728 81.7972 58.6544 81.7657 58.439C81.5579 57.0126 82.6406 56.2334 83.3044 55.8959C83.6819 55.7034 84.0953 55.5704 84.533 55.5004C84.7532 55.4651 84.9737 55.4473 85.1886 55.4473C85.474 55.4473 85.7559 55.4788 86.0263 55.541C86.6504 55.6851 87.1204 55.9519 87.4632 56.3567L87.4805 56.377L93.4612 86.1147C95.1388 86.198 96.8123 86.6225 98.3034 87.3435C99.8544 88.0935 101.184 89.1545 102.149 90.4121L102.21 90.4924L102.131 90.5558C102.092 90.5875 102.05 90.6147 102.006 90.6366C101.968 90.6553 101.93 90.67 101.894 90.6802C101.879 90.6852 101.858 90.6907 101.832 90.6961C101.789 90.7049 101.743 90.7094 101.697 90.7094C101.678 90.7094 101.66 90.7087 101.642 90.7073C101.366 90.6856 101.067 90.6787 100.778 90.672L100.684 90.6699C100.568 90.6671 100.459 90.6645 100.355 90.6603C100.23 90.6559 100.093 90.6493 99.9518 90.6425L99.7959 90.6345C99.5443 90.6224 99.2781 90.6113 99.0361 90.6113C99.0101 90.6113 98.9843 90.6114 98.9589 90.6117C98.8455 90.6135 98.7308 90.6219 98.6182 90.6366C98.4685 90.6561 98.3131 90.679 98.1434 90.7065C97.9717 90.7348 97.8017 90.7656 97.6382 90.798C97.1207 90.9017 96.6034 91.0355 96.101 91.1957C95.4018 91.4188 94.7152 91.6976 94.0603 92.0242C93.9574 92.0756 93.8539 92.129 93.7525 92.1831C91.7841 93.2245 90.0185 94.7603 88.6466 96.6244C87.4347 98.2704 86.5385 100.131 85.9828 102.156C85.8216 102.741 85.7089 103.373 85.6478 104.033L85.6378 104.137C85.6175 104.352 85.5976 104.568 85.5781 104.785C85.566 104.916 85.5173 105.04 85.4374 105.142L85.3759 105.221L85.2953 105.162Z" fill="#220047"/>
</g>
<path d="M104.829 82.0457C100.531 79.47 95.931 77.2032 91.0937 75.7442C89.665 75.3134 88.2438 74.9215 86.8195 74.4668C83.5574 73.4252 80.2491 72.5234 76.9103 71.7625C70.4275 70.285 63.8114 69.3291 57.1879 69.0726C50.985 68.8324 44.6815 69.1693 38.7199 70.6498C32.7681 72.1279 26.0499 75.0807 23.9668 80.9578C25.0535 78.2425 26.572 75.7934 28.6667 73.6736C30.7184 71.5972 33.0701 69.842 35.6157 68.3233C38.3285 66.7049 41.2879 65.3589 44.3357 64.3588C49.8164 62.5605 55.8098 62.1094 61.6481 62.2563C74.1128 62.5698 86.8204 65.6659 98.1724 70.8551C103.663 73.365 108.98 76.4499 113.488 80.3841C116.24 82.7861 118.572 85.5744 120.582 88.5443C123.9 93.445 126.533 99.3122 126.344 105.123C126.316 105.979 126.255 106.823 126.12 107.668C126.842 103.375 124.786 99.0908 122.088 95.6214C119.29 92.0239 115.693 88.9941 111.892 86.3644C109.627 84.7974 107.26 83.3649 104.829 82.0457Z" fill="#220047"/>
<path d="M119.488 92.6621C115.493 86.4871 109.662 81.5609 102.935 78.1411C97.4755 75.366 91.5204 73.5425 85.4836 72.4869C82.3025 71.9307 79.1568 71.7184 75.9542 71.5145C75.5065 71.486 75.0668 71.3568 74.6253 71.2653C73.3566 71.0022 72.0837 70.7601 70.8074 70.5396C68.3421 70.1138 65.8637 69.7688 63.3781 69.5138C58.5719 69.0206 53.7289 68.8546 48.9319 69.1535C44.4308 69.434 39.9202 70.1125 35.6957 71.5246C31.677 72.8678 27.6558 74.9697 25.2898 78.3901C24.7381 79.1876 24.2886 80.0499 23.9668 80.9578C25.0535 78.2425 26.572 75.7934 28.6667 73.6736C30.7184 71.5972 33.0701 69.842 35.6157 68.3233C38.3285 66.7049 41.2879 65.3589 44.3357 64.3588C49.8164 62.5605 55.8098 62.1094 61.6481 62.2563C74.1128 62.5698 86.8204 65.6659 98.1724 70.8551C103.663 73.365 108.98 76.4499 113.488 80.3841C116.24 82.7861 118.572 85.5744 120.582 88.5443C123.9 93.445 126.533 99.3122 126.344 105.123C126.316 105.979 126.255 106.823 126.12 107.668C127.06 102.081 123.425 96.6786 119.488 92.6621Z" fill="#220047"/>
<path d="M92.8766 66.5058C92.13 66.8 91.3322 66.9559 90.5664 66.8306C88.8302 66.54 87.1081 66.2528 85.3913 65.9804C85.3768 65.9781 85.3627 65.976 85.3486 65.9738C85.0207 65.9215 84.6925 65.87 84.3651 65.8191C84.1958 65.793 84.027 65.7666 83.858 65.7409C83.6392 65.7071 83.4207 65.6738 83.2022 65.6409C82.8598 65.5893 82.5173 65.5384 82.1749 65.4884C81.645 65.4107 81.1155 65.335 80.5857 65.2618C80.5715 65.26 80.5574 65.2579 80.5428 65.256C77.9983 64.9047 75.4473 64.6064 72.8619 64.3957C72.2116 64.3423 71.5722 64.2982 70.9325 64.2647C69.0211 64.1655 67.1078 64.1599 65.1796 64.3009C64.585 64.358 63.9919 64.4346 63.3988 64.5335C62.8063 64.6321 62.2138 64.7536 61.6224 64.9006C61.1779 64.986 60.7347 65.0764 60.2927 65.1725C58.0832 65.653 55.9084 66.2727 53.818 67.0723C53.7526 67.0972 53.6866 67.1223 53.621 67.148C52.5583 67.5571 51.4579 68.0057 50.4764 68.5902C50.44 68.6114 50.4039 68.633 50.3681 68.6552C50.0853 68.8277 49.8133 69.0122 49.5555 69.2106C49.5504 69.2146 49.5454 69.2182 49.5403 69.2222C49.4961 69.2247 49.4519 69.2271 49.4077 69.2296C49.3698 69.2317 49.3319 69.2339 49.2944 69.2361C49.1738 69.2431 49.0533 69.2501 48.9325 69.2579C48.8073 69.2657 48.6821 69.2735 48.5567 69.282C48.453 69.289 48.3496 69.2966 48.2459 69.304C48.1857 69.3079 48.1253 69.3126 48.0655 69.3171C48.0024 69.3219 47.9398 69.3264 47.8772 69.3313C47.8581 69.3328 47.8391 69.3342 47.82 69.3357C47.6687 69.3474 47.5175 69.3602 47.3662 69.3729C45.4732 69.5339 43.5907 69.7732 41.7307 70.1107C41.4137 70.1683 41.0937 70.2291 40.7713 70.2935C40.6186 70.3241 40.4657 70.3554 40.3116 70.3877C40.2899 70.3921 40.2677 70.3969 40.2456 70.4016C40.2051 70.4101 40.1645 70.4185 40.1239 70.4274C39.8141 70.4931 39.5024 70.5625 39.1896 70.6357C39.1659 70.6413 39.1418 70.6467 39.1179 70.6527C33.7991 71.9019 28.1816 74.1876 25.263 78.5157C25.2459 78.5409 25.2288 78.5661 25.2122 78.5913C24.9788 78.943 24.7631 79.3081 24.5667 79.6872C24.5309 79.757 24.4953 79.8273 24.461 79.8979C24.4339 79.9519 24.4076 80.006 24.3821 80.0608C24.3576 80.1118 24.3339 80.1629 24.3105 80.2145C24.308 80.2205 24.3051 80.2263 24.3025 80.2326C24.2973 80.2436 24.2919 80.255 24.2871 80.2662C24.2926 80.2527 24.298 80.2393 24.3038 80.226C24.4664 79.829 24.6451 79.4397 24.8388 79.0574C25.0686 78.6012 25.3193 78.1548 25.5863 77.7154C28.0814 73.6065 31.9969 70.4413 36.316 68.0197C36.327 68.0136 36.3379 68.0079 36.3485 68.0016C37.5617 67.3231 38.8061 66.7028 40.0598 66.1369C41.3846 65.5384 42.8248 65.1002 44.1681 64.5188C44.5991 64.3327 45.0194 64.1317 45.4234 63.906C46.9402 63.0586 48.0277 61.7916 48.9418 60.4005C49.5817 59.4261 50.136 58.3908 50.6935 57.3961C51.6568 55.6769 52.4979 53.8989 53.2275 52.0769C53.6585 50.9997 54.0506 49.9074 54.4055 48.803C55.2186 46.274 55.8184 43.6847 56.4168 41.0974C56.5365 40.5799 56.6561 40.0625 56.7774 39.5457C57.9026 32.9847 59.7142 26.3212 64.5416 21.4416C64.9446 20.9854 65.3644 20.5415 65.801 20.1121C67.5474 18.3946 69.5801 16.9164 71.7906 15.8023C76.5865 13.3857 82.1082 12.2289 87.634 12.4283C88.2897 12.452 88.9454 12.4948 89.6001 12.5568C90.1135 12.6053 90.6258 12.6658 91.1372 12.7382C95.4613 13.3499 99.6658 14.5991 103.531 16.5363C104.122 16.8326 104.706 17.1454 105.281 17.4745C106.377 18.1014 107.441 18.788 108.468 19.5349C107.385 18.7843 106.316 18.1225 105.266 17.5409C104.675 17.2122 104.088 16.9096 103.509 16.6303C101.735 15.7734 100.025 15.1388 98.4069 14.676C94.8216 13.6516 91.6822 13.4729 89.2649 13.6033C88.4938 13.6447 87.7963 13.7177 87.181 13.8052C85.5746 14.0325 84.5291 14.3556 84.2047 14.465C83.497 14.703 82.8035 14.9772 82.1331 15.2921C79.7098 16.43 77.6891 18.1255 76.2039 20.2491C74.6389 22.4865 73.6551 25.0527 72.8429 27.6232C71.7395 31.1162 70.9137 34.6934 70.0212 38.2442C69.442 40.5478 68.8724 42.8541 68.3036 45.1602C68.1614 45.7372 68.0322 46.3122 67.9753 46.8846C67.9422 47.9005 67.9674 48.9128 68.0561 49.9216C68.0699 50.0786 68.0854 50.2357 68.1028 50.3925C68.1403 50.7399 68.1864 51.0867 68.2418 51.434C68.3309 51.9562 68.4752 52.447 68.6664 52.9107C68.8589 53.3748 69.0983 53.8115 69.3787 54.225C69.5293 54.4573 69.6929 54.6762 69.8675 54.8823C70.731 55.9033 71.8699 56.6243 73.1019 57.2385C73.1994 57.2869 73.2979 57.3348 73.3965 57.3824C73.6725 57.5146 73.9532 57.6427 74.2371 57.7687C75.2198 58.2256 76.2228 58.6226 77.2468 58.9424C78.7634 59.4115 80.3408 59.7914 81.9216 60.1831C81.9353 60.1864 81.949 60.1902 81.9632 60.1936C82.4778 60.3211 82.9924 60.4502 83.5057 60.584C83.8381 60.6706 84.1699 60.7592 84.5004 60.8511C84.8765 60.9554 85.2506 61.0634 85.6223 61.1769C85.9383 61.2731 86.2528 61.3735 86.5647 61.4782C86.5785 61.4828 86.592 61.4873 86.6053 61.4922C89.1319 62.3444 91.5104 63.5042 93.4809 65.4273C93.904 65.8324 93.3224 66.3371 92.8766 66.5058Z" fill="#220047"/>
<path d="M126.336 105.103C126.29 103.878 126.054 102.655 125.67 101.483C125.423 100.729 125.119 99.9942 124.771 99.2813C123.189 96.0355 120.817 93.1603 118.06 90.611C116.029 88.7319 113.789 87.0307 111.502 85.4879C110.515 84.8217 109.519 84.1853 108.528 83.5768C107.353 82.856 106.159 82.164 104.947 81.501C101.86 79.8097 98.6623 78.3031 95.3921 76.9625C94.0037 76.3928 92.6018 75.8535 91.1899 75.3425C90.7498 75.1832 90.3084 75.0266 89.8665 74.8731C89.3488 74.6925 88.8297 74.516 88.3092 74.3436C87.8533 74.192 87.397 74.0435 86.9398 73.8977C86.2393 73.6742 85.5369 73.4576 84.8332 73.2472C84.8206 73.2436 84.8079 73.2396 84.7953 73.2359C84.3652 73.1073 83.9341 72.9814 83.5026 72.8572C83.4886 72.8536 83.4751 72.8496 83.4611 72.8459C83.1438 72.7548 82.8256 72.6649 82.5073 72.5765C82.1313 72.4718 81.7548 72.3688 81.3776 72.2686C81.0449 72.1793 80.7123 72.0917 80.3787 72.0055C80.0474 71.9197 79.7156 71.8357 79.3839 71.7532C79.3834 71.7532 79.3829 71.7527 79.3825 71.7527C79.1988 71.7067 79.0151 71.6615 78.8309 71.6164C78.8169 71.6128 78.803 71.6097 78.789 71.606C73.5048 70.3164 68.1272 69.3875 62.7239 68.8924C62.3537 68.8585 61.9827 68.8265 61.6103 68.7967C60.6453 68.7191 59.6794 68.6554 58.7134 68.6057C56.9662 68.5168 55.1991 68.469 53.4275 68.4775C52.4083 68.4825 51.3877 68.506 50.3681 68.5511C49.6662 68.5822 48.9653 68.6237 48.2652 68.6761C45.9943 68.8458 43.7384 69.1333 41.5285 69.5698C39.2418 70.0207 37.0054 70.6314 34.8519 71.4367C31.4161 72.7222 28.0763 74.5976 25.857 77.4191C25.6146 77.7274 25.3907 78.0443 25.1844 78.3688C25.063 78.5611 24.9475 78.7561 24.8387 78.9533C24.5227 79.5243 24.2614 80.1165 24.0533 80.724C24.0519 80.7281 24.0506 80.7317 24.0492 80.7358C24.0483 80.7376 24.0479 80.7389 24.0475 80.7407C24.047 80.7425 24.0465 80.7443 24.0456 80.7457C24.0339 80.7813 24.0217 80.8161 24.01 80.8522C24.0095 80.8535 24.0091 80.8553 24.0086 80.8567C23.328 82.9303 23.2679 85.1799 23.8312 87.397C24.7245 90.9123 26.901 94.0854 29.4039 96.8216C32.0579 99.723 35.1773 102.238 38.4687 104.471C45.5606 109.282 53.5462 112.877 61.7254 115.582C70.1683 118.375 78.9628 120.263 87.8091 121.015C96.0795 121.716 104.719 121.537 112.587 119.191C114.481 118.626 116.332 117.899 118.079 116.973C119.797 116.064 121.428 114.955 122.809 113.58C124.122 112.272 125.195 110.712 125.795 108.95C126.221 107.701 126.385 106.4 126.336 105.103ZM120.398 105.28C120.335 106.072 120.172 106.854 119.915 107.605C117.814 113.728 110.371 116.385 104.211 117.548C102.221 117.924 100.202 118.181 98.1685 118.335C97.4599 118.388 96.7494 118.429 96.0376 118.459C91.4833 118.648 86.8757 118.358 82.3585 117.777C74.5868 116.778 66.8909 114.852 59.5467 112.107C52.6525 109.529 45.9294 106.197 40.11 101.773C36.495 99.025 32.5996 95.4168 30.6032 91.2371C30.0232 90.0233 29.6034 88.7618 29.3967 87.4591V87.4587C29.3177 86.9604 29.2703 86.4566 29.2563 85.947C29.2365 85.2122 29.296 84.4787 29.4396 83.7615C29.4838 83.5394 29.5353 83.3214 29.5931 83.1079C31.2861 76.8799 38.7071 73.9966 44.8222 72.7472C45.3851 72.6321 45.9497 72.5274 46.5171 72.4317H46.5176C48.3366 72.1257 50.1777 71.9167 52.0319 71.7926C56.9952 71.4599 62.0451 71.7312 66.9803 72.3482C70.6928 72.8118 74.3895 73.4879 78.0397 74.364C78.0533 74.3672 78.0673 74.3703 78.0813 74.3739C78.599 74.4985 79.1159 74.6271 79.6313 74.7594C79.9653 74.8451 80.2984 74.9323 80.6316 75.0216C81.0089 75.1227 81.3854 75.2257 81.7613 75.3308C82.08 75.4197 82.3982 75.5105 82.7155 75.603C82.7295 75.607 82.7435 75.6111 82.7571 75.6147C83.6666 75.8788 84.572 76.1555 85.4729 76.4448C86.182 76.6718 86.8885 76.907 87.5917 77.1494C88.0526 77.3083 88.5116 77.4698 88.9697 77.635C89.441 77.8052 89.9113 77.9785 90.3798 78.155C90.4326 78.1748 90.4855 78.1947 90.5383 78.215C90.9833 78.3834 91.4279 78.5549 91.8712 78.73C92.8822 79.129 93.8887 79.5452 94.8881 79.979C97.9154 81.2947 100.878 82.7766 103.705 84.4561C105.928 85.7759 108.067 87.218 110.09 88.7973C115.177 92.7685 120.927 98.6783 120.398 105.28ZM91.1899 75.3425C90.7498 75.1832 90.3084 75.0266 89.8665 74.8731C89.3488 74.6925 88.8297 74.516 88.3092 74.3436C87.8533 74.192 87.397 74.0435 86.9398 73.8977C86.2393 73.6742 85.5369 73.4576 84.8332 73.2472C84.8206 73.2436 84.8079 73.2396 84.7953 73.2359C84.3652 73.1073 83.9341 72.9814 83.5026 72.8572C83.4886 72.8536 83.4751 72.8496 83.4611 72.8459C83.1438 72.7548 82.8256 72.6649 82.5073 72.5765C82.1313 72.4718 81.7548 72.3688 81.3776 72.2686L81.2255 72.8293V72.8297L80.6315 75.0216C81.0088 75.1227 81.3853 75.2256 81.7612 75.3308C82.0799 75.4197 82.3981 75.5104 82.7154 75.6029C82.7294 75.607 82.7434 75.611 82.757 75.6147C83.6665 75.8787 84.5719 76.1554 85.4729 76.4447C86.1819 76.6718 86.8884 76.9069 87.5916 77.1493C88.0525 77.3082 88.5115 77.4698 88.9697 77.635C89.4409 77.8051 89.9112 77.9785 90.3797 78.1549C90.4325 78.1748 90.4854 78.1947 90.5382 78.215C90.9832 78.3833 91.4278 78.5548 91.8711 78.73C92.8821 79.129 93.8886 79.5451 94.888 79.9789C95.0266 79.0658 95.1828 78.154 95.3425 77.2463C95.3588 77.1515 95.3759 77.0567 95.3922 76.9624C94.0037 76.3929 92.6018 75.8535 91.1899 75.3425Z" fill="#220047"/>
<path d="M95.2279 76.8957C93.8934 76.3506 92.5464 75.8334 91.1897 75.3426C90.7494 75.1832 90.308 75.0266 89.8662 74.873C89.3485 74.6924 88.8294 74.5162 88.3088 74.3438C87.8531 74.192 87.3969 74.0436 86.9397 73.8976C86.2391 73.6743 85.5365 73.4577 84.833 73.2469C84.8205 73.2436 84.8075 73.2397 84.795 73.2358C84.3648 73.1071 83.934 72.9813 83.5023 72.857C83.4883 72.8536 83.4749 72.8493 83.461 72.8459C83.1436 72.7547 82.8252 72.6648 82.5073 72.5765C82.1313 72.4718 81.7548 72.3685 81.3773 72.2687L81.2962 72.5684L81.2251 72.8291V72.8296L80.631 75.0214C81.0085 75.1227 81.385 75.2255 81.761 75.3306C82.0798 75.4195 82.3977 75.5102 82.7152 75.6029C82.7291 75.6068 82.743 75.6111 82.7565 75.6144C83.666 75.8785 84.5717 76.1551 85.4726 76.4447C86.1814 76.6719 86.8878 76.9067 87.5914 77.1492C88.0519 77.3082 88.511 77.4695 88.9691 77.6347C89.4407 77.8052 89.9108 77.9786 90.3795 78.1548C90.4324 78.1745 90.4852 78.1947 90.538 78.2148C90.9827 78.3834 91.4274 78.5548 91.8706 78.7301C92.8815 79.1287 93.8881 79.5451 94.8874 79.9787C95.0142 79.1451 95.1554 78.3123 95.3009 77.483C95.3143 77.4042 95.3283 77.325 95.3422 77.2462C95.3585 77.1516 95.3753 77.0565 95.3917 76.9624C95.337 76.9398 95.2827 76.9178 95.2279 76.8957ZM110.349 86.2341C108.326 84.6547 106.187 83.2125 103.964 81.8929C101.185 80.2418 98.2749 78.782 95.3009 77.483C95.3143 77.4042 95.3283 77.325 95.3422 77.2462C95.3585 77.1516 95.3753 77.0565 95.3917 76.9624C95.3369 76.9399 95.2827 76.9178 95.2279 76.8957C93.8934 76.3506 92.5464 75.8334 91.1897 75.3426C90.7494 75.1832 90.308 75.0266 89.8662 74.873C89.3485 74.6924 88.8294 74.5162 88.3088 74.3438C87.8531 74.192 87.3969 74.0436 86.9397 73.8976C86.2391 73.6743 85.5365 73.4577 84.833 73.2469C84.8205 73.2436 84.8075 73.2397 84.795 73.2358C84.3648 73.1071 83.934 72.9813 83.5023 72.857C83.4883 72.8536 83.4749 72.8493 83.461 72.8459C83.1436 72.7547 82.8252 72.6648 82.5073 72.5765C82.1313 72.4718 81.7548 72.3685 81.3774 72.2687C81.2419 72.2322 81.107 72.1962 80.9716 72.1607L80.8909 72.4584C80.5576 72.3691 80.2243 72.2817 79.8906 72.1962C79.3748 72.0642 78.8581 71.9355 78.3404 71.8106C78.3265 71.8073 78.3126 71.8038 78.2991 71.801C74.6489 70.9246 70.9522 70.2485 67.2395 69.785C62.3043 69.1679 57.2542 68.8966 52.2911 69.2294C50.4369 69.3533 48.5957 69.5627 46.7766 69.8686H46.7761C46.209 69.9642 45.6442 70.0689 45.0814 70.1841C38.9662 71.4332 31.5453 74.3169 29.852 80.5445C29.7944 80.7582 29.743 80.9763 29.6988 81.1981C29.5552 81.9156 29.4957 82.6489 29.5154 83.3836C29.5154 83.3923 29.5159 83.4009 29.5163 83.4096C29.5403 83.3082 29.5658 83.2074 29.5927 83.108C31.286 76.8799 38.7069 73.9967 44.8221 72.7471C45.3849 72.6319 45.9497 72.5272 46.5168 72.4316H46.5173C48.3364 72.1257 50.1776 71.9168 52.0317 71.7924C56.9949 71.4596 62.0449 71.731 66.9802 72.3481C70.6928 72.8115 74.3891 73.4877 78.0393 74.3641C78.0532 74.367 78.0671 74.3703 78.081 74.3742C78.5987 74.4986 79.1154 74.6272 79.6312 74.7593C79.9649 74.8452 80.2982 74.9322 80.631 75.0215C81.0085 75.1229 81.385 75.2256 81.761 75.3308C82.0798 75.4196 82.3977 75.5103 82.7152 75.603C82.7291 75.6069 82.743 75.6112 82.7565 75.6145C83.666 75.8786 84.5717 76.1553 85.4726 76.4449C86.1814 76.672 86.8878 76.9069 87.5914 77.1494C88.0519 77.3083 88.511 77.4696 88.9691 77.6348C89.4407 77.8053 89.9108 77.9787 90.3795 78.155C90.4324 78.1747 90.4852 78.1948 90.538 78.215C90.9827 78.3835 91.4274 78.555 91.8706 78.7303C92.8815 79.1289 93.8881 79.5452 94.8874 79.9789C97.9148 81.2947 100.877 82.7767 103.704 84.456C105.927 85.7762 108.067 87.2183 110.089 88.7973C114.888 92.543 120.276 98.0138 120.428 104.163C120.542 103.688 120.618 103.204 120.657 102.717C121.186 96.1152 115.436 90.2051 110.349 86.2341Z" fill="#220047"/>
<path d="M120.174 105.042C118.072 111.165 110.63 113.822 104.47 114.985C102.48 115.361 100.461 115.618 98.4274 115.772C97.7186 115.826 97.0083 115.867 96.2966 115.896C91.7422 116.086 87.1344 115.796 82.6174 115.215C74.8454 114.215 67.1498 112.29 59.8057 109.544C52.9111 106.966 46.1879 103.634 40.3685 99.2105C36.7534 96.4622 32.8583 92.8543 30.862 88.6744C30.2819 87.4609 29.8622 86.1993 29.6552 84.8964V84.8959C29.5779 84.4066 29.5303 83.9115 29.5159 83.4102C29.4881 83.5264 29.4626 83.6436 29.4391 83.7622C29.2955 84.4792 29.2359 85.2129 29.2556 85.9477C29.2696 86.4572 29.3171 86.9609 29.3959 87.4594C29.6028 88.7622 30.0226 90.0238 30.6027 91.2378C32.599 95.4172 36.4941 99.0256 40.1092 101.773C45.9286 106.197 52.6518 109.529 59.5459 112.107C61.3064 112.765 63.0871 113.376 64.8845 113.939C69.4952 115.337 74.199 116.463 78.9479 117.279C78.957 117.281 78.9662 117.282 78.9758 117.284C80.1009 117.468 81.2285 117.632 82.358 117.777C86.875 118.359 91.4828 118.649 96.0368 118.459C96.7489 118.43 97.4592 118.389 98.168 118.335C100.202 118.181 102.22 117.924 104.21 117.549C110.371 116.386 117.813 113.728 119.915 107.605C120.171 106.855 120.334 106.073 120.397 105.281C120.427 104.906 120.437 104.533 120.428 104.163C120.357 104.46 120.272 104.753 120.174 105.042Z" fill="#220047"/>
<path d="M93.1742 118.756C89.8211 118.756 86.2076 118.51 82.4339 118.025C81.3247 117.882 80.1977 117.718 79.0841 117.536L79.0639 117.532C74.4329 116.737 69.742 115.622 65.1211 114.221C63.3488 113.666 61.5705 113.056 59.8356 112.407C56.2402 111.063 52.8713 109.574 49.8225 107.981C46.4594 106.224 43.3713 104.282 40.6438 102.209C38.1337 100.301 35.91 98.4267 34.293 96.5488C35.7829 98.0991 37.7032 99.6259 39.7406 101.175C45.0819 105.235 51.7039 108.757 59.4227 111.643C66.8979 114.438 74.6448 116.363 82.4482 117.367C86.303 117.863 89.9991 118.114 93.4337 118.114C94.3962 118.114 95.3571 118.095 96.2898 118.056C97.0286 118.025 97.7565 117.982 98.4534 117.929C100.567 117.769 102.635 117.5 104.601 117.129C109.168 116.267 112.919 114.927 115.702 113.095C112.535 115.711 107.892 117.067 103.985 117.805C102.088 118.163 100.09 118.423 98.0491 118.577C97.3728 118.628 96.6667 118.669 95.9501 118.699C95.0442 118.737 94.1101 118.756 93.1742 118.756Z" fill="#CFB3CD"/>
<path d="M126.024 102.746C126.073 103.029 126.117 103.313 126.157 103.596C126.196 103.878 126.226 104.16 126.245 104.443C126.265 104.536 126.279 104.631 126.289 104.725C126.303 104.773 126.316 104.82 126.328 104.868C126.329 104.848 126.33 104.827 126.331 104.807C126.331 104.806 126.331 104.806 126.331 104.806C126.339 104.621 126.347 104.436 126.352 104.25C126.356 104.153 126.359 104.055 126.362 103.958C126.312 100.035 125.086 96.1922 123.3 92.6047C121.984 89.9624 120.326 87.4681 118.459 85.1224C117.427 83.8251 116.229 82.588 115.539 81.0944C114.807 79.5092 114.691 77.469 114.677 75.7867C114.67 74.8528 114.672 73.9189 114.689 72.986C114.761 68.9967 115.249 65.0311 116.132 61.1574C116.145 61.1006 116.158 61.0432 116.171 60.9864C117.087 57.0216 118.388 53.1791 119.178 49.1777C119.666 46.706 120.007 44.191 120.045 41.661C120.065 40.3503 120.004 39.0359 119.84 37.7219C119.727 36.8232 119.568 35.9286 119.36 35.0417C117.6 27.562 111.991 21.1422 104.933 17.2939C104.862 17.2551 104.791 17.2167 104.719 17.1783C104.7 17.1679 104.681 17.1576 104.662 17.1476C104.628 17.1291 104.593 17.1111 104.56 17.093C104.527 17.0759 104.495 17.0587 104.462 17.042C104.404 17.0113 104.346 16.9811 104.287 16.9508C104.162 16.8858 104.035 16.8213 103.908 16.7576C103.743 16.6746 103.577 16.5929 103.41 16.5125C103.336 16.4773 103.262 16.4417 103.188 16.4069C103.113 16.3717 103.039 16.337 102.964 16.3022C102.942 16.2923 102.921 16.2824 102.899 16.2724C102.848 16.2485 102.795 16.2246 102.743 16.2011C102.592 16.1321 102.441 16.0644 102.288 15.998C102.216 15.9664 102.144 15.9353 102.072 15.9041C102.002 15.8743 101.932 15.8445 101.862 15.8152C101.857 15.813 101.851 15.8107 101.846 15.8085C100.723 15.3354 99.5657 14.9193 98.3867 14.5668C95.2253 13.6207 91.9082 13.1359 88.6706 13.2646C87.9755 13.2921 87.2844 13.3481 86.5992 13.4338C86.2977 13.4713 85.9971 13.5146 85.6983 13.5638C79.9858 14.5058 76.6686 17.711 74.0259 22.2369C73.4571 23.2114 72.9241 24.2044 72.428 25.2145C71.9315 26.2247 71.4716 27.2516 71.05 28.2929C70.1793 30.3759 69.5406 32.5579 68.9782 34.6973C68.7119 35.7883 68.4388 36.877 68.1648 37.9657C67.3429 41.2313 66.5106 44.4947 65.7942 47.8037C65.6981 48.2487 65.6195 48.6951 65.5559 49.1461C65.2111 51.2675 65.6656 53.091 66.6338 54.6595C66.9561 55.1827 67.3357 55.6769 67.7617 56.145C67.7653 56.1486 67.7689 56.1527 67.7726 56.1563C68.1793 56.5896 68.6094 56.9854 69.0594 57.3492C69.5158 57.7148 69.9933 58.0484 70.5029 58.3544C71.7482 59.1254 73.1033 59.5352 74.4894 59.9947C77.1394 60.8509 79.8742 61.2987 82.5703 61.9229C83.2663 62.0841 83.9596 62.2569 84.6479 62.4515C85.1038 62.5801 85.5574 62.7187 86.0083 62.8694C86.5337 63.045 87.056 63.2373 87.5732 63.4517C88.0269 63.6394 88.4773 63.8435 88.9233 64.0673C89.005 64.1084 89.0867 64.1499 89.1679 64.1924C89.4365 64.3485 89.4351 64.6794 89.3101 64.9769C89.2704 65.0617 89.2176 65.143 89.153 65.2116C89.0497 65.3213 88.9152 65.3984 88.7495 65.4043C88.4859 65.3971 88.2228 65.3876 87.9596 65.3754C87.4717 65.3519 86.9838 65.319 86.4913 65.2752C86.2277 65.2517 85.9628 65.2251 85.6956 65.1953C85.525 65.175 85.3548 65.1546 85.1851 65.1339C84.508 65.0522 83.8341 64.97 83.1629 64.8879C81.6924 64.7087 80.2335 64.5317 78.7792 64.3738C75.2103 63.9847 71.6715 63.7062 68.0656 63.7667C67.4594 63.7734 66.86 63.7897 66.2619 63.8163C64.4695 63.8958 62.6848 64.0641 60.9055 64.3918C60.3097 64.502 59.7266 64.6216 59.1465 64.752C57.1352 65.2133 55.156 65.8037 53.2842 66.5692C52.4663 66.9032 51.6696 67.2711 50.8996 67.676C50.8382 67.708 50.7768 67.741 50.7159 67.7739C50.7154 67.7739 50.715 67.7744 50.7145 67.7748C50.4248 67.9306 50.1386 68.0953 49.866 68.2768C49.866 68.2768 49.8655 68.2772 49.8651 68.2772C49.7441 68.358 49.6258 68.4415 49.5112 68.5295C49.499 68.53 49.4872 68.5308 49.4746 68.5317C49.8086 68.5142 50.1431 68.4993 50.4776 68.4866C51.4656 68.4483 52.4555 68.4289 53.4458 68.428C54.3192 68.4262 55.193 68.4384 56.0669 68.4636C57.2048 68.4961 58.3427 68.5503 59.4797 68.6243C60.061 68.6623 60.6424 68.7056 61.2238 68.7539C61.3488 68.7643 61.4788 68.78 61.6115 68.7972H61.6129C61.9807 68.8446 62.3689 68.9037 62.7251 68.8929C62.7255 68.8929 62.726 68.8929 62.726 68.8929C62.8199 68.8897 62.9115 68.882 62.9995 68.8681C63.6504 68.7643 64.2954 68.5246 64.9382 68.381C65.5972 68.2339 66.2616 68.1039 66.9296 67.9897C67.6211 67.8719 68.3167 67.7717 69.0149 67.6877C69.3643 67.6457 69.7145 67.6078 70.0648 67.574C74.616 67.2499 79.2452 67.4142 83.8049 68.0985C84.4874 68.2009 85.1685 68.3151 85.8478 68.4411C86.2924 68.5232 86.7361 68.6108 87.1789 68.7038C87.6863 68.8094 88.1922 68.9222 88.6964 69.0418C89.1284 69.1438 89.5594 69.2513 89.9887 69.3637C91.8975 69.862 93.7811 70.4578 95.6285 71.1543C95.8664 71.2409 96.1047 71.3289 96.3435 71.4188V71.4192C96.6888 71.5492 97.0346 71.6828 97.3794 71.8191C100.292 72.9733 103.115 74.3409 105.803 75.9176C105.863 75.9532 105.924 75.9888 105.984 76.0245C106.31 76.2164 106.634 76.4109 106.958 76.6082C107.171 76.7377 107.383 76.8691 107.594 77.0013C107.663 77.0442 107.732 77.088 107.801 77.1318C107.83 77.1494 107.858 77.1674 107.886 77.1859C107.949 77.2252 108.012 77.2654 108.075 77.306C108.163 77.3615 108.251 77.4179 108.338 77.4748C108.356 77.4865 108.375 77.4982 108.393 77.5099C108.511 77.5867 108.628 77.6634 108.745 77.7406C108.809 77.7822 108.871 77.8237 108.934 77.8661C108.951 77.877 108.967 77.8878 108.983 77.8986C109.024 77.9257 109.065 77.9532 109.106 77.9808C109.166 78.0204 109.226 78.0611 109.285 78.1017C109.334 78.1351 109.384 78.1685 109.433 78.2028C109.486 78.2389 109.54 78.2755 109.593 78.3125C109.669 78.3644 109.744 78.4168 109.819 78.4691C109.846 78.4876 109.872 78.5061 109.899 78.5246C109.987 78.5869 110.075 78.6492 110.163 78.7119C110.166 78.7141 110.169 78.716 110.172 78.7182C110.357 78.8504 110.541 78.9841 110.723 79.1195C110.804 79.179 110.884 79.2391 110.965 79.2996C110.989 79.3176 111.013 79.3361 111.038 79.3546C111.117 79.4142 111.196 79.4747 111.275 79.5352C111.366 79.6051 111.456 79.6751 111.547 79.746C114.231 81.8507 116.887 84.4483 118.953 87.0893C120.625 89.2269 122.065 91.556 123.222 93.9948C124.557 96.8092 125.517 99.7688 126.024 102.746Z" fill="#CFB3CD"/>
<g opacity="0.18">
<path d="M66.9956 20.666C62.6936 24.8389 60.2779 30.676 58.7365 36.5592C58.0165 39.3058 57.4645 42.0726 56.7626 44.8215C55.8928 48.2298 54.7635 51.5997 53.3801 54.8739C52.3956 57.2034 51.3521 59.8173 49.8513 61.904C49.7141 62.0949 49.8693 62.3215 50.0494 62.1938C50.7265 61.7117 51.4053 61.2297 52.0386 60.6627C52.8958 59.8945 53.5453 58.911 54.1167 57.8602C55.6794 54.9872 56.9712 51.8588 58.1167 48.8039C60.3853 42.7529 61.534 36.5375 63.4406 30.4161C64.4535 27.1653 65.6672 23.9412 67.2421 20.8985C67.3513 20.6877 67.1595 20.5072 66.9956 20.666Z" fill="white"/>
</g>
<path opacity="0.3" d="M127.076 135.945L116.053 127.113C115.591 126.743 115.384 126.255 115.577 125.988C115.766 125.726 116.28 125.761 116.773 126.07L128.743 133.587C129.322 133.951 129.635 134.541 129.413 134.849L128.465 136.165C128.246 136.469 127.602 136.367 127.076 135.945Z" fill="#979797"/>
<path opacity="0.3" d="M16.3147 54.2223L27.1006 63.3548C27.5529 63.7378 27.7182 64.2727 27.4821 64.589C27.2499 64.9001 26.7035 64.8997 26.2119 64.5881L14.2624 57.0146C13.6841 56.6481 13.4164 56.0058 13.6895 55.6399L14.8532 54.0808C15.1222 53.7203 15.7993 53.7859 16.3147 54.2223Z" fill="#979797"/>
<path opacity="0.3" d="M11.0855 103.105L25.2156 102.091C25.8082 102.048 26.3355 102.464 26.4325 103.05C26.5278 103.627 26.1758 104.183 25.614 104.344L11.9617 108.247C11.301 108.435 10.6232 108.006 10.5111 107.329L10.0332 104.44C9.92277 103.772 10.4103 103.153 11.0855 103.105Z" fill="#979797"/>
<path opacity="0.3" d="M2.93175 74.0032L16.1263 79.16C16.6796 79.3762 16.9771 79.9783 16.8128 80.5492C16.6511 81.1106 16.0942 81.4617 15.518 81.3653L1.51335 79.0222C0.8356 78.9088 0.40795 78.2303 0.59805 77.5699L1.40805 74.7562C1.59535 74.1056 2.30125 73.7568 2.93175 74.0032Z" fill="#979797"/>
<path opacity="0.3" d="M146.277 117.49L133.29 111.825C132.745 111.587 132.473 110.964 132.663 110.387C132.849 109.819 133.422 109.479 133.994 109.595L147.915 112.416C148.588 112.553 148.987 113.258 148.768 113.925L147.835 116.769C147.619 117.427 146.898 117.761 146.277 117.49Z" fill="#979797"/>
<path opacity="0.3" d="M143.746 87.0776L129.689 88.5074C129.1 88.5673 128.605 88.3359 128.547 87.9735C128.49 87.617 128.874 87.248 129.441 87.1157L143.212 83.8993C143.879 83.7437 144.522 83.9749 144.589 84.3941L144.874 86.1807C144.94 86.5938 144.418 87.0093 143.746 87.0776Z" fill="#979797"/>
<path d="M54.0354 68.4121C57.6911 68.4121 61.6308 68.6583 65.745 69.1437C66.9543 69.2861 68.183 69.4507 69.3971 69.6327L69.4191 69.6362C74.468 70.4319 79.5822 71.546 84.6201 72.9478C86.5524 73.5024 88.4912 74.1125 90.3826 74.7613C94.3025 76.1057 97.9754 77.5949 101.299 79.1875C104.966 80.9443 108.333 82.8864 111.306 84.9598C114.043 86.8677 116.348 88.7816 118.111 90.6595C116.487 89.1092 114.512 87.5425 112.291 85.9936C106.468 81.9331 99.2481 78.411 90.8328 75.5251C82.683 72.7306 74.237 70.8049 65.7294 69.8016C61.5268 69.3057 57.4972 69.0542 53.7526 69.0542C52.7032 69.0542 51.6556 69.0739 50.6387 69.1127C49.8332 69.1436 49.0397 69.1861 48.2799 69.239C45.9759 69.3991 43.7209 69.6685 41.5775 70.0395C36.5979 70.9019 32.5461 72.2755 29.5117 74.1076C32.965 71.4918 37.9892 70.1013 42.2487 69.3637C44.3177 69.0055 46.4953 68.7457 48.7208 68.5915C49.4581 68.5401 50.228 68.4989 51.0093 68.469C51.9968 68.4312 53.0151 68.4121 54.0354 68.4121Z" fill="#220047"/>
<g opacity="0.3">
<path d="M44.1044 96.5938C44.6589 96.7345 45.186 96.9075 45.7132 97.0772C45.9735 97.1666 46.2349 97.253 46.4957 97.3396C46.6266 97.3821 46.7556 97.427 46.884 97.4726C47.0123 97.5181 47.1418 97.562 47.269 97.6088C47.7777 97.7966 48.29 97.9731 48.7902 98.1645L50.285 98.7333C50.533 98.8276 50.7758 98.9293 51.0223 99.0236C51.2698 99.1161 51.5125 99.2149 51.7572 99.3099C52.0023 99.4043 52.2426 99.5052 52.4845 99.6028L52.8493 99.7438L53.2107 99.8889C53.4511 99.9861 53.6929 100.08 53.9301 100.181L54.6492 100.465L55.3607 100.756C55.6001 100.847 55.8358 100.944 56.0724 101.038C57.9646 101.794 59.8224 102.534 61.6758 103.228C63.5292 103.922 65.374 104.58 67.2386 105.189C69.1029 105.799 70.9852 106.369 72.8995 106.918L73.6179 107.124L74.3411 107.326L74.7032 107.427C74.8243 107.46 74.9437 107.499 75.0653 107.531L75.7948 107.73C76.0387 107.794 76.28 107.871 76.5253 107.935C76.7702 108 77.0159 108.062 77.2607 108.133C77.7497 108.274 78.2446 108.4 78.7389 108.538L79.1101 108.64C79.172 108.657 79.2338 108.675 79.2956 108.693L79.4821 108.744L80.2295 108.947C80.7268 109.092 81.2292 109.223 81.7316 109.367L82.1087 109.473C82.2345 109.51 82.3597 109.549 82.4863 109.583C82.7389 109.654 82.992 109.723 83.2449 109.799L84.7689 110.249C85.0237 110.328 85.2791 110.402 85.5343 110.485C85.7897 110.566 86.0465 110.64 86.3028 110.723L86.6878 110.846L87.0731 110.973L87.846 111.229L88.2332 111.362L88.427 111.429L88.6208 111.499L89.3977 111.78C89.9164 111.976 90.4365 112.17 90.9572 112.406L90.9451 112.856L89.3603 112.839C89.0961 112.837 88.832 112.828 88.5679 112.821L87.7755 112.801C87.2471 112.789 86.719 112.765 86.1906 112.746C85.9265 112.735 85.6622 112.728 85.3981 112.714L84.6058 112.674C82.4936 112.555 80.3826 112.38 78.2776 112.131L77.4883 112.036C77.3567 112.021 77.2254 112.003 77.0941 111.985L76.7003 111.93C76.4376 111.894 76.1755 111.854 75.9131 111.816C75.6507 111.778 75.3896 111.73 75.1278 111.688L74.3429 111.557C74.0817 111.511 73.8213 111.46 73.5604 111.411L72.7781 111.264L71.9988 111.1C69.9213 110.66 67.8629 110.119 65.8392 109.465C65.7118 109.427 65.5871 109.381 65.4613 109.338L65.0847 109.207L64.3316 108.945L63.5851 108.665L63.2119 108.524C63.0874 108.478 62.9629 108.431 62.8402 108.38L62.1011 108.081C61.8547 107.982 61.6078 107.884 61.365 107.776L60.6338 107.458C60.5121 107.405 60.3897 107.353 60.2685 107.299L59.907 107.132C59.4253 106.908 58.9407 106.69 58.4667 106.45L57.7521 106.098C57.6324 106.04 57.5153 105.978 57.3975 105.917L57.0445 105.733L56.3386 105.364C56.105 105.238 55.8729 105.11 55.6411 104.981L54.9464 104.592L54.2605 104.189C52.4321 103.113 50.6518 101.96 48.9134 100.752L48.2646 100.295C48.156 100.219 48.0487 100.142 47.9422 100.063L47.6216 99.8293L46.9807 99.3615L46.6607 99.1269L46.3439 98.8882L45.7105 98.4109C45.4998 98.2512 45.2869 98.0945 45.0795 97.9306L43.832 96.9517L44.1044 96.5938Z" fill="#CFB3CD"/>
</g>
</svg>
