<svg width="111" height="111" viewBox="0 0 111 111"  xmlns="http://www.w3.org/2000/svg">
<g opacity="0.6">
<path d="M92.5 64.75H27.75C17.575 64.75 9.25 73.075 9.25 83.25C9.25 93.425 17.575 101.75 27.75 101.75H92.5C97.5875 101.75 101.75 97.5875 101.75 92.5V74C101.75 68.9125 97.5875 64.75 92.5 64.75ZM27.75 92.5C22.6625 92.5 18.5 88.3375 18.5 83.25C18.5 78.1625 22.6625 74 27.75 74C32.8375 74 37 78.1625 37 83.25C37 88.3375 32.8375 92.5 27.75 92.5ZM29.1375 55.5L60.125 24.5125C63.825 20.8125 69.375 20.8125 73.075 24.5125L86.025 37.4625C89.725 41.1625 89.725 46.7125 86.025 50.4125L81.8625 55.5H29.1375ZM9.25 62.4375V18.5C9.25 13.4125 13.4125 9.25 18.5 9.25H37C42.0875 9.25 46.25 13.4125 46.25 18.5V25.4375L9.25 62.4375Z" />
</g>
</svg>
