<svg width="32" height="32" viewBox="0 0 32 32" fill="none" xmlns="http://www.w3.org/2000/svg">
<path d="M29.7606 20.3469C29.4319 19.7775 28.8994 19.37 28.2606 19.1987C27.6219 19.0275 26.9569 19.1144 26.3881 19.4431L19.8956 23.1912C19.8563 22.8287 19.7425 22.4737 19.555 22.1456C19.1988 21.5225 18.6238 21.0769 17.9369 20.89L10.6 18.8925C10.5788 18.8869 10.5563 18.8819 10.5344 18.8794C9.42627 18.7325 8.4144 19.0025 7.5269 19.6825L5.57064 21.1806L5.49002 20.8806C5.35689 20.3837 4.84439 20.0875 4.34689 20.2206L2.60127 20.6887C2.10377 20.8219 1.80814 21.335 1.94127 21.8319L4.47189 31.2769C4.58377 31.6937 4.96189 31.9688 5.37377 31.9688C5.45377 31.9688 5.53439 31.9581 5.61502 31.9369L7.36064 31.4694C7.60127 31.405 7.80252 31.2506 7.9269 31.0344C8.0519 30.8181 8.08502 30.5663 8.02065 30.3263L7.92377 29.9656C8.96314 29.1875 9.91815 28.9687 11.0756 29.2337L15.2781 30.1975C15.6425 30.2813 15.9975 30.3225 16.3425 30.3225C17.0575 30.3225 17.7281 30.1431 18.3463 29.7862L28.8556 23.7188C30.0356 23.0387 30.4406 21.5256 29.7606 20.3469ZM5.42127 30.9538L2.92439 21.6369L4.54189 21.2038L4.79689 22.1562C4.79752 22.1575 4.79752 22.1587 4.79814 22.16L7.03877 30.5206L5.42127 30.9538ZM28.3569 22.8531L17.8475 28.9206C17.1469 29.325 16.38 29.4237 15.5025 29.2225L11.3 28.2588C9.9669 27.9531 8.81752 28.1619 7.64939 28.9363L5.85127 22.2256L8.13502 20.4762C8.80502 19.9631 9.53627 19.7631 10.3706 19.8669L17.6738 21.8544C18.1031 21.9713 18.4625 22.2512 18.6863 22.6419C18.91 23.0331 18.9688 23.4844 18.8519 23.9137C18.6088 24.8062 17.685 25.335 16.7919 25.0919L12.8725 24.025C12.6063 23.9525 12.3313 24.11 12.2588 24.3762C12.1863 24.6425 12.3431 24.9175 12.61 24.99L16.5294 26.0569C16.7638 26.1206 17 26.1513 17.2319 26.1513C18.3206 26.1513 19.3269 25.4812 19.7294 24.4406L26.8869 20.3081C27.2244 20.1131 27.62 20.0619 28.0006 20.1637C28.3813 20.2656 28.6981 20.5081 28.8931 20.8456C29.2994 21.5481 29.0581 22.4481 28.3569 22.8531ZM26.0344 4.88V17.9594C26.0344 18.2356 26.2581 18.4594 26.5344 18.4594H29.4706C29.7469 18.4594 29.9706 18.2356 29.9706 17.9594V4.88C29.9706 4.60375 29.7469 4.38 29.4706 4.38H26.5344C26.2581 4.38 26.0344 4.60375 26.0344 4.88ZM27.0344 5.38H28.9706V17.4594H27.0344V5.38ZM21.4069 7.0675C21.1306 7.0675 20.9069 7.29125 20.9069 7.5675V17.9587C20.9069 18.235 21.1306 18.4587 21.4069 18.4587H24.3431C24.6194 18.4587 24.8431 18.235 24.8431 17.9587V7.5675C24.8431 7.29125 24.6194 7.0675 24.3431 7.0675H21.4069ZM23.8431 17.4587H21.9069V8.0675H23.8431V17.4587ZM10.3381 15.4906C10.4431 15.4906 10.5475 15.4881 10.6519 15.4831V17.9587C10.6519 18.235 10.8756 18.4587 11.1519 18.4587H14.0881C14.3644 18.4587 14.5881 18.235 14.5881 17.9587V14.0125C15.0331 13.6606 15.4331 13.2544 15.7794 12.8044V17.9594C15.7794 18.2356 16.0031 18.4594 16.2794 18.4594H19.2156C19.4919 18.4594 19.7156 18.2356 19.7156 17.9594V10.2556C19.7156 9.97937 19.4919 9.75562 19.2156 9.75562H17.1069C17.1675 9.38875 17.2 9.01313 17.2 8.62938C17.2 8.11375 17.1425 7.61125 17.0338 7.12813L25.68 2.13625L25.2681 3.34563C25.1794 3.60688 25.3188 3.89125 25.5806 3.98C25.6338 3.99813 25.6881 4.00688 25.7419 4.00688C25.95 4.00688 26.1444 3.87563 26.215 3.66813L27.0556 1.19938C27.1019 1.06313 27.0875 0.913125 27.015 0.788125C26.9431 0.663125 26.8206 0.575625 26.6794 0.5475L24.1213 0.0412502C23.8506 -0.0124998 23.5875 0.16375 23.5338 0.434375C23.48 0.705 23.6563 0.968125 23.9269 1.02188L25.18 1.27L16.7344 6.14625C15.7375 3.58687 13.2463 1.76813 10.3381 1.76813C6.55502 1.76813 3.47689 4.84625 3.47689 8.62938C3.47689 12.4125 6.55502 15.4906 10.3381 15.4906ZM13.5881 17.4587H11.6519V15.3638C12.3394 15.23 12.99 14.9937 13.5881 14.6706V17.4587ZM18.7156 10.7556V17.4587H16.7794V10.9944C16.8088 10.9156 16.8356 10.8356 16.8619 10.755H18.7156V10.7556ZM10.3381 2.76813C13.57 2.76813 16.1994 5.3975 16.1994 8.62938C16.1994 11.8613 13.57 14.4906 10.3381 14.4906C7.10627 14.4906 4.47689 11.8613 4.47689 8.62938C4.47689 5.3975 7.10627 2.76813 10.3381 2.76813ZM10.3381 13.7694C13.1725 13.7694 15.4781 11.4638 15.4781 8.62938C15.4781 5.795 13.1725 3.48938 10.3381 3.48938C7.50377 3.48938 5.19814 5.795 5.19814 8.62938C5.19814 11.4638 7.50377 13.7694 10.3381 13.7694ZM10.3381 4.48938C12.6213 4.48938 14.4781 6.34688 14.4781 8.62938C14.4781 10.9119 12.6206 12.7694 10.3381 12.7694C8.05565 12.7694 6.19814 10.9119 6.19814 8.62938C6.19814 6.34688 8.05502 4.48938 10.3381 4.48938ZM8.60439 7.52C8.60439 6.74375 9.15627 6.09437 9.88877 5.94375V5.70687C9.88877 5.43062 10.1125 5.20687 10.3888 5.20687C10.665 5.20687 10.8888 5.43062 10.8888 5.70687V5.94438C11.2781 6.02563 11.63 6.25062 11.8681 6.57937C12.03 6.80312 11.98 7.11563 11.7563 7.2775C11.5325 7.43938 11.22 7.38938 11.0581 7.16563C10.9425 7.00625 10.7581 6.91062 10.5638 6.91062H10.2144C9.87814 6.91062 9.60502 7.18437 9.60502 7.52C9.60502 7.85562 9.87877 8.12938 10.2144 8.12938H10.4625C11.35 8.12938 12.0719 8.85125 12.0719 9.73875C12.0719 10.515 11.52 11.1644 10.7881 11.315V11.5519C10.7881 11.8281 10.5644 12.0519 10.2881 12.0519C10.0119 12.0519 9.78815 11.8281 9.78815 11.5519V11.3144C9.39877 11.2331 9.0469 11.0081 8.80877 10.6788C8.6469 10.455 8.69689 10.1425 8.92064 9.98063C9.14439 9.81875 9.45689 9.86875 9.61877 10.0925C9.73439 10.2519 9.91877 10.3475 10.1131 10.3475H10.4625C10.7988 10.3475 11.0719 10.0737 11.0719 9.73812C11.0719 9.4025 10.7988 9.12875 10.4625 9.12875H10.2144C9.32689 9.12937 8.60439 8.4075 8.60439 7.52Z" fill="#220047"/>
</svg>
