<svg width="16" height="16" viewBox="0 0 16 16"  xmlns="http://www.w3.org/2000/svg">
<path fill-rule="evenodd" clip-rule="evenodd" d="M3.3335 1.33337H4.66683C5.03502 1.33337 5.3335 1.63185 5.3335 2.00004C5.3335 2.34193 5.07614 2.62371 4.74458 2.66222L4.66683 2.66671H3.3335C2.99161 2.66671 2.70982 2.92407 2.67131 3.25563L2.66683 3.33337V12.6667C2.66683 13.0086 2.92419 13.2904 3.25575 13.3289L3.3335 13.3334H12.6668C13.0087 13.3334 13.2905 13.076 13.329 12.7445L13.3335 12.6667V11.3334C13.3335 10.9652 13.632 10.6667 14.0002 10.6667C14.3421 10.6667 14.6238 10.9241 14.6623 11.2556L14.6668 11.3334V12.6667C14.6668 13.7318 13.8342 14.6025 12.7843 14.6633L12.6668 14.6667H3.3335C2.26838 14.6667 1.39772 13.8341 1.33689 12.7842L1.3335 12.6667V3.33337C1.3335 2.26825 2.16611 1.3976 3.21598 1.33677L3.3335 1.33337ZM14.0002 1.33337L14.0542 1.33537L14.134 1.34687L14.2083 1.36653L14.2823 1.39582L14.3473 1.4307L14.4113 1.47523L14.4716 1.52864L14.5359 1.60317L14.5837 1.67733L14.6044 1.71797L14.6269 1.77227L14.6429 1.82271L14.6622 1.92131L14.6668 2.00004V6.00004C14.6668 6.36823 14.3684 6.66671 14.0002 6.66671C13.632 6.66671 13.3335 6.36823 13.3335 6.00004V3.60937L9.13823 7.80478C8.89791 8.0451 8.51976 8.06359 8.25823 7.86024L8.19542 7.80478C7.9551 7.56446 7.93661 7.1863 8.13996 6.92477L8.19542 6.86197L12.3895 2.66671H10.0002C9.63197 2.66671 9.3335 2.36823 9.3335 2.00004C9.3335 1.63185 9.63197 1.33337 10.0002 1.33337H14.0002Z"/>
</svg>
