<svg width="35" height="35" viewBox="0 0 35 35" fill="none" xmlns="http://www.w3.org/2000/svg">
<path opacity="0.5" d="M4.90039 1.40039V4.90039H1.40039V32.2004H9.80039V30.8004H2.80039V6.30039H6.30039V2.80039H20.3004V4.90039H7.70039V6.30039H23.8004V14.0004H25.2004V4.90039H21.7004V1.40039H4.90039ZM5.60039 8.40039V9.80039H8.40039V8.40039H5.60039ZM11.9004 8.40039V9.80039H14.7004V8.40039H11.9004ZM18.2004 8.40039V9.80039H21.0004V8.40039H18.2004ZM5.60039 11.9004V13.3004H8.40039V11.9004H5.60039ZM11.9004 11.9004V13.3004H14.7004V11.9004H11.9004ZM18.2004 11.9004V13.3004H21.0004V11.9004H18.2004ZM20.3004 14.0004C18.0199 14.0004 16.3301 14.9273 15.4523 16.3082C14.6512 17.566 14.6129 19.1383 15.116 20.6039C15.0613 20.6969 14.982 20.7762 14.9301 20.8883C14.8207 21.1344 14.725 21.4133 14.7387 21.7687V21.7715C14.777 22.6656 15.2965 23.1332 15.6793 23.3957C15.8406 24.2488 16.2453 24.9625 16.8004 25.4738V26.9723C16.6773 27.2676 16.4312 27.5164 15.9582 27.7762C15.4633 28.0496 14.7934 28.3066 14.1016 28.643C13.4098 28.9793 12.6879 29.4086 12.1273 30.0922C11.5641 30.7785 11.2004 31.7164 11.2004 32.9004V33.6004H33.6359L33.5949 32.8594C33.532 31.7547 33.1219 30.8824 32.5422 30.2562C31.9652 29.6301 31.2516 29.2363 30.5762 28.9246C29.9008 28.6129 29.25 28.375 28.777 28.1207C28.3258 27.8828 28.1043 27.6586 28.0004 27.4125V26.2312C28.4187 25.627 28.602 24.9324 28.6566 24.2816C28.9902 23.9863 29.3785 23.5324 29.4879 22.7203C29.5617 22.1379 29.4141 21.6977 29.1871 21.3258C29.5016 20.4945 29.6301 19.491 29.3539 18.493C29.1953 17.9133 28.8945 17.3445 28.3941 16.9207C28.0031 16.5844 27.4672 16.3984 26.8738 16.3164L26.4254 15.4004H25.9879C25.2687 15.4004 24.5605 15.5672 23.9508 15.8051C23.7102 15.9008 23.4914 16.0047 23.2863 16.1195C23.1715 15.9664 23.0457 15.8215 22.9008 15.6902C22.4742 15.3047 21.8836 15.0859 21.2273 14.9957L20.7352 14.0004H20.3004ZM5.60039 15.4004V16.8004H8.40039V15.4004H5.60039ZM11.9004 15.4004V16.8004H13.6395L14.5336 15.4004H11.9004ZM19.9066 15.4797L20.3195 16.3109H20.7516C21.3258 16.3109 21.6785 16.475 21.9602 16.7266C22.2418 16.9809 22.4469 17.3582 22.5672 17.8012C22.8078 18.6871 22.6027 19.8383 22.4059 20.1555L22.1516 20.5602L22.4359 20.9457C22.6027 21.1672 22.7094 21.3969 22.6547 21.7059C22.5781 22.1379 22.4223 22.1953 22.1133 22.4633L21.8809 22.6629L21.8727 22.9691C21.848 23.6555 21.6102 24.3445 21.2109 24.7383L21.0004 24.9434V27.2922L21.0414 27.407C21.3176 28.1754 21.9355 28.6539 22.5645 29.0012C23.1934 29.3484 23.8715 29.6027 24.484 29.9008C25.0965 30.1988 25.627 30.5379 25.9934 30.9836C26.2477 31.2898 26.4035 31.7027 26.4992 32.2004H12.7016C12.7973 31.7027 12.9531 31.2898 13.2074 30.9836C13.5738 30.5379 14.1043 30.1988 14.7168 29.9008C15.3293 29.6027 16.0074 29.3484 16.6363 29.0012C17.2652 28.6539 17.8832 28.1754 18.1594 27.407L18.2004 27.2922V24.8668L17.8941 24.659C17.5715 24.4402 17.041 23.6391 16.9672 22.9199L16.9289 22.5316L16.5789 22.3621C16.3793 22.2664 16.1578 22.2281 16.1359 21.7113C16.1359 21.7113 16.1578 21.5773 16.2098 21.4598C16.2645 21.3395 16.3629 21.2137 16.3328 21.2437L16.6691 20.9074L16.4805 20.4699C15.9582 19.2668 16.0293 18.0062 16.6336 17.0574C17.1859 16.1879 18.2687 15.5891 19.9066 15.4797ZM25.5914 16.8797L25.9633 17.6398H26.4008C26.9312 17.6398 27.2457 17.7793 27.4863 17.9844C27.7297 18.1895 27.902 18.4902 28.0031 18.8648C28.2109 19.6141 28.0605 20.6367 27.8227 21.1016L27.593 21.5582L27.9539 21.9164C27.9074 21.8699 28.1371 22.25 28.0988 22.5371C28.0086 23.2234 27.9102 23.1797 27.6148 23.3738L27.3223 23.568L27.3004 23.9207C27.2676 24.5305 26.9613 25.4465 26.7973 25.6133L26.6004 25.8156V27.7352L26.6414 27.8473C26.9066 28.5855 27.5082 29.034 28.118 29.3566C28.725 29.6793 29.3867 29.9172 29.991 30.1961C30.5953 30.475 31.134 30.7894 31.5141 31.2051C31.7574 31.4676 31.9215 31.8039 32.0391 32.2004H27.9457C27.8309 31.3445 27.5191 30.6363 27.0734 30.0922C26.5129 29.4086 25.791 28.9793 25.0992 28.643C24.4074 28.3066 23.7375 28.0496 23.2426 27.7762C22.7695 27.5164 22.5234 27.2676 22.4004 26.9723V25.4082C22.8844 24.7957 23.1387 24.0738 23.2098 23.341C23.4805 23.1031 23.9016 22.693 24.0328 21.952C24.1395 21.3449 23.959 20.85 23.7348 20.448C24.1066 19.5922 24.216 18.523 23.918 17.432C23.9152 17.4211 23.9098 17.4102 23.907 17.3992C24.0574 17.3035 24.2488 17.1941 24.4648 17.1094C24.8066 16.9754 25.2059 16.9262 25.5914 16.8797ZM5.60039 18.9004V20.3004H8.40039V18.9004H5.60039ZM11.9004 18.9004V20.3004H13.8281L13.5766 18.9004H11.9004ZM5.60039 22.4004V23.8004H8.40039V22.4004H5.60039ZM11.9004 22.4004V23.8004H14.3148L13.7297 22.4004H11.9004ZM5.60039 25.9004V27.3004H8.40039V25.9004H5.60039ZM11.9004 25.9004V27.3004H14.7004V25.9004H11.9004Z"/>
</svg>
