<svg width="32" height="32" viewBox="0 0 32 32" fill="none" xmlns="http://www.w3.org/2000/svg">
<g clip-path="url(#clip0_74_1217)">
<path d="M12.6667 2.66669H4.66666C4.13644 2.66739 3.62814 2.87833 3.25322 3.25325C2.8783 3.62817 2.66736 4.13647 2.66666 4.66669V12.6667C2.66736 13.1969 2.8783 13.7052 3.25322 14.0801C3.62814 14.455 4.13644 14.666 4.66666 14.6667H12.6667C13.1969 14.666 13.7052 14.455 14.0801 14.0801C14.455 13.7052 14.6659 13.1969 14.6667 12.6667V4.66669C14.6659 4.13647 14.455 3.62817 14.0801 3.25325C13.7052 2.87833 13.1969 2.66739 12.6667 2.66669ZM13.3333 12.6667C13.333 12.8434 13.2626 13.0128 13.1377 13.1377C13.0127 13.2626 12.8434 13.333 12.6667 13.3334H4.66666C4.48995 13.333 4.32059 13.2626 4.19564 13.1377C4.07069 13.0128 4.00034 12.8434 3.99999 12.6667V4.66669C4.00034 4.48998 4.07069 4.32062 4.19564 4.19567C4.32059 4.07072 4.48995 4.00037 4.66666 4.00002H12.6667C12.8434 4.00037 13.0127 4.07072 13.1377 4.19567C13.2626 4.32062 13.333 4.48998 13.3333 4.66669V12.6667ZM27.3333 2.66669H19.3333C18.8031 2.66739 18.2948 2.87833 17.9199 3.25325C17.545 3.62817 17.334 4.13647 17.3333 4.66669V12.6667C17.334 13.1969 17.545 13.7052 17.9199 14.0801C18.2948 14.455 18.8031 14.666 19.3333 14.6667H27.3333C27.8635 14.666 28.3718 14.455 28.7468 14.0801C29.1217 13.7052 29.3326 13.1969 29.3333 12.6667V4.66669C29.3326 4.13647 29.1217 3.62817 28.7468 3.25325C28.3718 2.87833 27.8635 2.66739 27.3333 2.66669ZM28 12.6667C27.9996 12.8434 27.9293 13.0128 27.8043 13.1377C27.6794 13.2626 27.51 13.333 27.3333 13.3334H19.3333C19.1566 13.333 18.9873 13.2626 18.8623 13.1377C18.7374 13.0128 18.667 12.8434 18.6667 12.6667V4.66669C18.667 4.48998 18.7374 4.32062 18.8623 4.19567C18.9873 4.07072 19.1566 4.00037 19.3333 4.00002H27.3333C27.51 4.00037 27.6794 4.07072 27.8043 4.19567C27.9293 4.32062 27.9996 4.48998 28 4.66669V12.6667ZM12.6667 17.3334H4.66666C4.13644 17.3341 3.62814 17.545 3.25322 17.9199C2.8783 18.2948 2.66736 18.8031 2.66666 19.3334V27.3334C2.66736 27.8636 2.8783 28.3719 3.25322 28.7468C3.62814 29.1217 4.13644 29.3326 4.66666 29.3333H12.6667C13.1969 29.3326 13.7052 29.1217 14.0801 28.7468C14.455 28.3719 14.6659 27.8636 14.6667 27.3334V19.3334C14.6659 18.8031 14.455 18.2948 14.0801 17.9199C13.7052 17.545 13.1969 17.3341 12.6667 17.3334ZM13.3333 27.3334C13.333 27.5101 13.2626 27.6794 13.1377 27.8044C13.0127 27.9293 12.8434 27.9997 12.6667 28H4.66666C4.48995 27.9997 4.32059 27.9293 4.19564 27.8044C4.07069 27.6794 4.00034 27.5101 3.99999 27.3334V19.3334C4.00034 19.1566 4.07069 18.9873 4.19564 18.8623C4.32059 18.7374 4.48995 18.667 4.66666 18.6667H12.6667C12.8434 18.667 13.0127 18.7374 13.1377 18.8623C13.2626 18.9873 13.333 19.1566 13.3333 19.3334V27.3334ZM27.3333 17.3334H19.3333C18.8031 17.3341 18.2948 17.545 17.9199 17.9199C17.545 18.2948 17.334 18.8031 17.3333 19.3334V27.3334C17.334 27.8636 17.545 28.3719 17.9199 28.7468C18.2948 29.1217 18.8031 29.3326 19.3333 29.3333H27.3333C27.8635 29.3326 28.3718 29.1217 28.7468 28.7468C29.1217 28.3719 29.3326 27.8636 29.3333 27.3334V19.3334C29.3326 18.8031 29.1217 18.2948 28.7468 17.9199C28.3718 17.545 27.8635 17.3341 27.3333 17.3334ZM28 27.3334C27.9996 27.5101 27.9293 27.6794 27.8043 27.8044C27.6794 27.9293 27.51 27.9997 27.3333 28H19.3333C19.1566 27.9997 18.9873 27.9293 18.8623 27.8044C18.7374 27.6794 18.667 27.5101 18.6667 27.3334V19.3334C18.667 19.1566 18.7374 18.9873 18.8623 18.8623C18.9873 18.7374 19.1566 18.667 19.3333 18.6667H27.3333C27.51 18.667 27.6794 18.7374 27.8043 18.8623C27.9293 18.9873 27.9996 19.1566 28 19.3334V27.3334Z" fill="#220047"/>
<rect x="26.6857" y="29.5063" width="2.88337" height="2.80579" transform="rotate(-88.5536 26.6857 29.5063)" fill="white"/>
</g>
<defs>
<clipPath id="clip0_74_1217">
<rect width="32" height="32" fill="white"/>
</clipPath>
</defs>
</svg>
