<svg width="32" height="32" viewBox="0 0 32 32" fill="none" xmlns="http://www.w3.org/2000/svg">
<path fill-rule="evenodd" clip-rule="evenodd" d="M11.8285 11.502C11.1809 11.502 11.5414 10.7153 11.9406 9.05272H11.6997C10.8449 9.05272 10.1492 8.35728 10.1492 7.50209V1.55081C10.1492 0.695998 10.8449 0.000183105 11.6997 0.000183105H20.8598C21.7147 0.000183105 22.4107 0.695623 22.4107 1.55081V7.50227C22.4107 8.35709 21.7148 9.05291 20.8598 9.05291H15.8193C15.5553 9.12922 12.1523 11.5019 11.8287 11.5019L11.8285 11.502ZM11.6999 0.750186C11.2585 0.750186 10.8994 1.10925 10.8994 1.55081V7.50227C10.8994 8.42872 11.8999 8.30309 12.4163 8.30309C12.6576 8.30309 12.8371 8.5309 12.781 8.76565L12.4084 10.318C12.8251 10.0551 15.4684 8.30328 15.7107 8.30328H20.86C21.3014 8.30328 21.6605 7.94403 21.6605 7.50246V1.551C21.6605 1.10962 21.3014 0.750374 20.86 0.750374H11.6999V0.750186Z" fill="#220047"/>
<path fill-rule="evenodd" clip-rule="evenodd" d="M16.2194 7.58344C15.6798 7.58344 15.241 7.14469 15.241 6.60506V5.50499H14.141C12.8534 5.5048 12.8534 3.54842 14.141 3.54842L15.241 3.54823V2.44817C15.241 1.16041 17.1976 1.1606 17.1976 2.44817V3.54823H18.2977C19.5856 3.54823 19.5856 5.5048 18.2977 5.5048L17.1976 5.50499V6.60506C17.1976 7.14469 16.7585 7.58344 16.2192 7.58344H16.2194ZM14.141 4.29805C13.8413 4.29805 13.8413 4.7548 14.141 4.7548C16.2927 4.7548 15.991 4.4533 15.991 6.60487C15.991 6.9045 16.4476 6.90487 16.4476 6.60487C16.4476 4.4533 16.1461 4.7548 18.2977 4.7548C18.5973 4.7548 18.5977 4.29824 18.2977 4.29824C16.1461 4.29805 16.4478 4.59974 16.4478 2.44817C16.4478 2.14817 15.9912 2.14854 15.9912 2.44817C15.9912 4.59974 16.2927 4.29805 14.1412 4.29805H14.141Z" fill="#220047"/>
<path fill-rule="evenodd" clip-rule="evenodd" d="M9.74932 24.6029H3.46842C3.01692 24.6029 2.64941 24.2356 2.64941 23.7837V14.8208C2.64941 14.3693 3.01673 14.0018 3.46842 14.0018H9.74932C10.201 14.0018 10.5683 14.3691 10.5683 14.8208V23.7841C10.5683 24.2356 10.201 24.6031 9.74932 24.6031V24.6029ZM3.46842 14.7518C3.43092 14.7518 3.39942 14.7833 3.39942 14.8208V23.7841C3.39942 23.8216 3.43092 23.8531 3.46842 23.8531H9.74932C9.78682 23.8531 9.81832 23.8216 9.81832 23.7841V14.8208C9.81832 14.7833 9.78682 14.7518 9.74932 14.7518H3.46842Z" fill="#220047"/>
<path fill-rule="evenodd" clip-rule="evenodd" d="M10.1931 15.196C9.75944 15.196 9.67469 14.5714 10.0966 14.4585L17.1308 12.5736C17.6088 12.4461 17.8014 13.1706 17.3251 13.2983L10.1931 15.196Z" fill="#220047"/>
<path fill-rule="evenodd" clip-rule="evenodd" d="M17.2278 26.0438L10.0962 24.1459C9.61881 24.0184 9.81381 23.2922 10.2902 23.4216L17.3247 25.3066C17.746 25.4193 17.6616 26.044 17.2278 26.044V26.0438Z" fill="#220047"/>
<path fill-rule="evenodd" clip-rule="evenodd" d="M18.8951 27.7461C17.7687 27.7461 16.8524 26.8298 16.8524 25.7037V12.901C16.8524 11.7746 17.7687 10.8585 18.8949 10.8585C20.0212 10.8585 20.9375 11.7746 20.9375 12.901V25.7039C20.9375 26.8298 20.021 27.746 18.8951 27.746V27.7461ZM18.8951 11.6085C18.1825 11.6085 17.6026 12.1885 17.6026 12.901V25.7039C17.6026 27.4075 20.1871 27.4075 20.1871 25.7039V12.9012C20.1871 12.1887 19.6077 11.6087 18.8951 11.6087V11.6085Z" fill="#220047"/>
<path fill-rule="evenodd" clip-rule="evenodd" d="M10.1474 31.9998H6.62743C6.45399 31.9998 6.30324 31.8807 6.26293 31.7124L4.48711 24.3158C4.43086 24.0815 4.61086 23.8531 4.85198 23.8531H8.36706C8.5405 23.8531 8.69125 23.9722 8.73156 24.1405L10.5228 31.6246C10.5226 31.8318 10.3548 31.9998 10.1476 31.9998H10.1474ZM6.92293 31.2498H9.66663L8.07118 24.6037H5.3273L6.92312 31.2498H6.92293Z" fill="#220047"/>
<path fill-rule="evenodd" clip-rule="evenodd" d="M20.5625 22.9887C20.0703 22.9887 20.0681 22.2419 20.5601 22.2385C22.1679 22.2277 23.4757 20.9105 23.4757 19.3027C23.4757 17.695 22.1679 16.3775 20.5601 16.3666C20.0669 16.363 20.0701 15.6149 20.5649 15.6166C22.5834 15.6305 24.2257 17.284 24.2257 19.3027C24.2257 21.3292 22.5605 22.9887 20.5623 22.9887H20.5625Z" fill="#220047"/>
<path fill-rule="evenodd" clip-rule="evenodd" d="M7.30974 22.2068H3.0246C2.8176 22.2068 2.6496 22.0387 2.6496 21.8318V16.7729C2.6496 16.5659 2.8176 16.3979 3.0246 16.3979H7.30993C7.51693 16.3979 7.68493 16.5661 7.68493 16.7729V21.8318C7.68455 22.0385 7.51693 22.2068 7.30955 22.2068H7.30974ZM3.3996 21.4567H6.93493V17.1479H3.3996V21.4567Z" fill="#220047"/>
<path fill-rule="evenodd" clip-rule="evenodd" d="M28.9757 19.9095H27.4785C26.9848 19.9095 26.985 19.1595 27.4785 19.1595H28.9757C29.4692 19.1595 29.4692 19.9095 28.9757 19.9095Z" fill="#220047"/>
<path fill-rule="evenodd" clip-rule="evenodd" d="M27.9523 23.2628C27.7533 23.2628 26.7082 22.6024 26.4684 22.4641C26.0405 22.2173 26.4163 21.568 26.8434 21.8148L28.1399 22.5631C28.4718 22.7543 28.3327 23.2628 27.9521 23.2628H27.9523Z" fill="#220047"/>
<path fill-rule="evenodd" clip-rule="evenodd" d="M25.3906 25.6555C25.2613 25.6555 25.1351 25.5882 25.0657 25.4678L24.3174 24.1713C24.0706 23.7438 24.7198 23.369 24.9667 23.7963L25.7152 25.0928C25.8607 25.345 25.6749 25.6555 25.3908 25.6555H25.3906Z" fill="#220047"/>
<path fill-rule="evenodd" clip-rule="evenodd" d="M25.0434 15.2279C24.7591 15.2279 24.5733 14.9177 24.719 14.6654L25.4673 13.3688C25.7139 12.9415 26.3637 13.3159 26.1168 13.7438L25.3683 15.0404C25.2987 15.1606 25.1727 15.2279 25.0434 15.2279Z" fill="#220047"/>
<path fill-rule="evenodd" clip-rule="evenodd" d="M26.8888 17.2424C26.5085 17.2424 26.3694 16.7339 26.7009 16.5424L27.9975 15.7941C28.4246 15.5472 28.8 16.1967 28.3725 16.4434C28.1336 16.5813 27.0868 17.2424 26.8886 17.2424H26.8888Z" fill="#220047"/>
</svg>
