<?xml version="1.0"?>
<svg xmlns="http://www.w3.org/2000/svg" version="1.1" viewBox="0 0 60 60" xml:space="preserve" class=""><g><g xmlns="http://www.w3.org/2000/svg" id="Page-1" ><g id="052---Medicine-Production" transform="translate(0 -1)"><path id="Shape" d="m2 61h18c1.1045695 0 2-.8954305 2-2v-1c0-1.6568542-1.3431458-3-3-3h-1v-6c-.0048134-3.5759022-2.7007905-6.5748319-6.256-6.959l-4.044-11.547c.33373583-.7894158.38944528-1.6687788.158-2.494l9.642-19.3c.4086923-.17013505.7864508-.40665645 1.118-.7h16.66c.3544126.61675126 1.0106732.997855 1.722 1h.357c.1235931.35700903.281323.70126875.471 1.028l-2.77 1.48c-.5447966.2896906-.9253793.8146285-1.0313162 1.4224947-.1059368.6078663.0746337 1.2306.4893162 1.6875053l2.484 2.765v1.617c0 1.1045695.8954305 2 2 2v.306c-.000225.488818-.3538004.9058339-.836.986l-2.657.443c-1.4485419.2375272-2.5106407 1.4911173-2.507 2.959v18.306h-6c-2.5687655-.0025816-4.7215532 1.9417423-4.9797109 4.4975039-.2581578 2.5557617 1.4623181 4.8913243 3.9797109 5.4024961v5.1c0 1.1045695.8954305 2 2 2h30c1.1045695 0 2-.8954305 2-2v-13c0-1.1045695-.8954305-2-2-2h-5v-18.306c.0036407-1.4678827-1.0584581-2.7214728-2.507-2.959l-2.658-.443c-.4818022-.0806021-.8348566-.4975022-.835-.986v-.306c1.1045695 0 2-.8954305 2-2v-1.619l2.475-2.755c.4183354-.4562329.6018456-1.0804579.4969758-1.6905032-.1048699-.6100453-.4863003-1.1371541-1.0329758-1.4274968l-2.768-1.479c.1900025-.327052.3480655-.67164274.472-1.029h.357c1.1045695 0 2-.8954305 2-2v-4c0-1.1045695-.8954305-2-2-2h-12c-.7113268.002145-1.3675874.38324874-1.722 1h-16.66c-1.3102372-1.18150898-3.2436397-1.35487356-4.7431726-.42531141-1.499533.92956215-2.2042341 2.73829012-1.7288274 4.43731141l-9.646 19.288c-1.42220795.5702264-2.39062735 1.906432-2.48987452 3.4354786-.09924716 1.5290467.68831372 2.9792292 2.02487452 3.7285214l4.044 11.565c-1.33078844 1.311691-2.07972409 3.1024362-2.079 4.971v6h-1c-1.65685425 0-3 1.3431458-3 3v1c0 1.1045695.8954305 2 2 2zm13.163-52.091-8.542 17.091c-.50699756-.4504321-1.12078391-.7636938-1.783-.91l8.548-17.09c.5056057.44887571 1.1171309.76169303 1.777.909zm12.837 50.091v-5h30v5zm30-7h-31c-1.6568542 0-3-1.3431458-3-3s1.3431458-3 3-3h31zm-23-8v-14h16v14zm12.507-19.735 2.658.443c.4818022.0806021.8348566.4975022.835.986v2.306h-16v-2.306c.000225-.488818.3538004-.9058339.836-.986l2.657-.443c1.4485419-.2375272 2.5106407-1.4911173 2.507-2.959v-.306h4v.306c-.0036407 1.4678827 1.0584581 2.7214728 2.507 2.959zm-1.507-5.265h-7v-2h8v2zm2.132-3.646c-.3325516-.2303759-.7274464-.3538678-1.132-.354h-8c-.404573.000005-.7995049.1235085-1.132.354l-1.868-2.083 3.148-1.681c2.2228292 1.8788465 5.4771708 1.8788465 7.7 0l3.145 1.69zm-5.132-4.354c-1.4264953-.0036128-2.7435086-.7653325-3.458-2h6.916c-.7144914 1.2346675-2.0315047 1.9963872-3.458 2zm6-8v4h-12v-4zm-14 3h-15.142c.0900507-.32585845.1377763-.66195413.142-1-.0042237-.33804587-.0519493-.67414155-.142-1h15.142zm-19-3c1.1045695 0 2 .8954305 2 2s-.8954305 2-2 2-2-.8954305-2-2 .8954305-2 2-2zm-12 24c1.1045695 0 2 .8954305 2 2s-.8954305 2-2 2-2-.8954305-2-2 .8954305-2 2-2zm.328 5.967c.67817846-.0491974 1.33238145-.2716264 1.9-.646l3.432 9.811c-.65894326.129246-1.29559971.3535916-1.89.666zm1.672 16.033c0-2.7614237 2.23857625-5 5-5 2.7614237 0 5 2.2385763 5 5v6h-10zm-4 9c0-.5522847.44771525-1 1-1h16c.5522847 0 1 .4477153 1 1v1h-18z" data-original="#000000" style="" class=""/><path id="Shape" d="m11 46c-1.65685425 0-3 1.3431458-3 3s1.34314575 3 3 3c1.6568542 0 3-1.3431458 3-3s-1.3431458-3-3-3zm0 4c-.5522847 0-1-.4477153-1-1s.4477153-1 1-1 1 .4477153 1 1-.4477153 1-1 1z" data-original="#000000" style="" class=""/><circle id="Oval" cx="29" cy="49" r="1" data-original="#000000" style="" class=""/><circle id="Oval" cx="35" cy="49" r="1" data-original="#000000" style="" class=""/><circle id="Oval" cx="41" cy="49" r="1" data-original="#000000" style="" class=""/><circle id="Oval" cx="47" cy="49" r="1" data-original="#000000" style="" class=""/><circle id="Oval" cx="53" cy="49" r="1" data-original="#000000" style="" class=""/><path id="Shape" d="m43.705 32.984c-1.3218134-1.2687463-3.4091866-1.2687463-4.731 0-.6267807.6254489-.9790146 1.4745394-.9790146 2.36s.3522339 1.7345511.9790146 2.36l1.653 1.653.006.009.009.006 1.649 1.649c1.3067057 1.3061534 3.4248466 1.3057057 4.731-.001s1.3057057-3.4248466-.001-4.731zm-3.317 1.416c.2490653-.254002.5892662-.3980023.945-.4.3601644.0003773.7053144.1443397.959.4l.948.946-1.9 1.9-.953-.954c-.2515945-.2505229-.3930292-.5909486-.3930292-.946s.1414347-.6954771.3930292-.946zm5.219 5.208c-.5254655.5227476-1.3745345.5227476-1.9 0l-.95-.949 1.9-1.9.946.943c.5210726.5270769.5228534 1.3747384.004 1.904z" data-original="#000000" style="" class=""/></g></g></g></svg>
