<svg width="32" height="32" viewBox="0 0 32 32" fill="none" xmlns="http://www.w3.org/2000/svg">
<path d="M28.608 1.91998C28.672 2.10398 28.792 2.28798 28.792 2.46398C28.8 5.57598 28.8 8.68798 28.8 11.808C28.8 14.648 28.8 17.48 28.8 20.32C28.8 20.376 28.8 20.432 28.8 20.488C28.8 20.856 28.648 21.048 28.376 21.048C28.104 21.048 27.968 20.856 27.968 20.472C27.968 14.688 27.968 8.90398 27.968 3.11198C27.968 2.98398 27.968 2.85598 27.968 2.71198H8.88005C8.88005 2.79998 8.88005 2.90398 8.88005 2.99998C8.88005 3.66398 8.88005 4.31998 8.88005 4.98398C8.88005 5.28798 8.72805 5.46398 8.47205 5.46398C8.21605 5.46398 8.05605 5.28798 8.05605 4.99198C8.05605 4.11198 8.04805 3.23198 8.05605 2.34398C8.05605 2.19998 8.16005 2.06398 8.20805 1.91998C15.008 1.91998 21.8 1.91998 28.6 1.91998H28.608Z" fill="#220047"/>
<path d="M8.87998 26.184C9.49598 26.184 10.088 26.184 10.672 26.184C10.792 26.184 10.912 26.184 11.024 26.216C11.232 26.264 11.328 26.416 11.32 26.624C11.312 26.832 11.2 26.968 10.984 27C10.872 27.016 10.768 27.016 10.656 27.016C8.58398 27.016 6.50398 27.016 4.43198 27.016H4.06398C4.10398 27.176 4.11998 27.304 4.15998 27.432C4.52798 28.536 5.52798 29.248 6.74398 29.248C9.06398 29.248 11.392 29.248 13.712 29.248C16.8 29.248 19.888 29.248 22.968 29.248H23.264C23.016 28.904 22.736 28.584 22.544 28.224C22.352 27.856 22.24 27.44 22.088 27.016C22.016 27.016 21.896 27.016 21.776 27.016C18.792 27.016 15.808 27.016 12.824 27.016C12.712 27.016 12.6 27.016 12.496 27C12.288 26.96 12.176 26.832 12.168 26.616C12.168 26.408 12.264 26.256 12.464 26.208C12.576 26.184 12.704 26.184 12.816 26.176C15.968 26.176 19.12 26.176 22.264 26.176C22.848 26.176 22.928 26.248 22.968 26.832C23.048 28.08 24.12 29.144 25.4 29.232C26.544 29.32 27.656 28.432 27.904 27.216C27.952 26.992 27.952 26.76 27.952 26.528C27.952 25.176 27.952 23.824 27.952 22.48C27.952 22.368 27.952 22.256 27.984 22.152C28.04 21.952 28.2 21.816 28.392 21.872C28.536 21.912 28.648 22.064 28.76 22.184C28.792 22.216 28.776 22.288 28.776 22.344C28.776 23.872 28.8 25.392 28.752 26.92C28.696 28.672 27.208 30.064 25.448 30.064C20.968 30.064 16.48 30.064 12 30.064C10.248 30.064 8.48798 30.064 6.73598 30.064C4.88798 30.064 3.45598 28.816 3.19998 26.984C3.19198 26.912 3.18398 26.84 3.18398 26.768C3.16798 26.328 3.30398 26.184 3.74398 26.176C4.29598 26.176 4.84798 26.176 5.39998 26.176C6.16798 26.176 6.94398 26.176 7.71198 26.176C7.80798 26.176 7.91198 26.176 8.03998 26.176V25.8C8.03998 19.52 8.03998 13.232 8.03998 6.95199C8.03998 6.84799 8.03198 6.74399 8.04798 6.64799C8.09598 6.42399 8.23198 6.28799 8.47198 6.29599C8.70398 6.30399 8.83998 6.43999 8.86398 6.67999C8.87198 6.78399 8.86398 6.87999 8.86398 6.98399C8.86398 13.248 8.86398 19.512 8.86398 25.776V26.184H8.87998Z" fill="#220047"/>
<path d="M18.096 9.024C18.608 9.592 19.104 10.136 19.616 10.696C19.96 10.312 20.2959 9.944 20.6399 9.576C20.7119 9.496 20.816 9.376 20.896 9.384C21.056 9.392 21.248 9.432 21.352 9.536C21.512 9.688 21.4639 9.896 21.3199 10.056C21.0159 10.4 20.7039 10.736 20.3999 11.08C20.3359 11.152 20.2639 11.232 20.1839 11.32C20.5439 11.72 20.9119 12.104 21.2559 12.512C21.3439 12.616 21.44 12.776 21.416 12.896C21.4 13.024 21.272 13.2 21.152 13.232C21.024 13.272 20.8159 13.216 20.7119 13.128C20.3919 12.824 20.112 12.488 19.816 12.16C19.752 12.096 19.696 12.024 19.624 11.936C19.296 12.296 18.9919 12.64 18.6799 12.976C18.616 13.048 18.5439 13.128 18.4639 13.192C18.2719 13.328 18.0799 13.32 17.9199 13.152C17.7599 12.984 17.7519 12.784 17.9039 12.608C18.2079 12.256 18.5279 11.912 18.8399 11.56C18.9039 11.488 18.9679 11.408 19.0479 11.328C18.4399 10.656 17.8399 9.992 17.2399 9.336C17.1999 9.296 17.1279 9.264 17.0719 9.264C16.8079 9.264 16.5439 9.264 16.2479 9.264C16.2479 9.776 16.2479 10.272 16.2479 10.76C16.2479 10.872 16.2399 10.984 16.1999 11.08C16.1279 11.264 15.9759 11.336 15.7759 11.312C15.5759 11.288 15.464 11.168 15.432 10.976C15.424 10.904 15.424 10.832 15.424 10.76C15.424 9.256 15.424 7.752 15.424 6.24C15.424 5.792 15.5439 5.672 15.9999 5.672C16.3919 5.672 16.7919 5.672 17.1839 5.672C18.0079 5.68 18.6719 6.16 18.9199 6.912C19.1679 7.672 18.9039 8.432 18.2399 8.928C18.1999 8.952 18.1679 8.984 18.1039 9.032L18.096 9.024ZM16.2639 8.416C16.6159 8.416 16.9359 8.432 17.2559 8.416C17.7599 8.384 18.1279 8.008 18.1679 7.52C18.2079 7.072 17.888 6.592 17.432 6.528C17.048 6.472 16.6559 6.52 16.2559 6.52V8.424L16.2639 8.416Z" fill="#220047"/>
<path d="M18.216 15.88C15.864 15.88 13.512 15.88 11.168 15.88C11.064 15.88 10.968 15.88 10.864 15.872C10.656 15.848 10.536 15.72 10.52 15.512C10.504 15.288 10.608 15.136 10.824 15.08C10.92 15.056 11.024 15.056 11.128 15.056C15.872 15.056 20.616 15.056 25.368 15.056C25.456 15.056 25.552 15.056 25.64 15.072C25.856 15.12 25.976 15.264 25.968 15.488C25.96 15.704 25.832 15.848 25.608 15.872C25.512 15.888 25.408 15.88 25.304 15.88C22.944 15.88 20.584 15.88 18.224 15.88H18.216Z" fill="#220047"/>
<path d="M18.248 18.256C15.888 18.256 13.528 18.256 11.168 18.256C11.056 18.256 10.944 18.256 10.84 18.24C10.632 18.2 10.52 18.064 10.512 17.856C10.512 17.648 10.608 17.504 10.816 17.456C10.912 17.432 11.016 17.432 11.12 17.432C15.864 17.432 20.616 17.432 25.36 17.432C25.464 17.432 25.56 17.432 25.656 17.456C25.856 17.512 25.968 17.656 25.96 17.864C25.952 18.072 25.84 18.208 25.632 18.248C25.512 18.272 25.392 18.264 25.272 18.264C22.928 18.264 20.592 18.264 18.248 18.264V18.256Z" fill="#220047"/>
<path d="M18.248 20.624C15.904 20.624 13.568 20.624 11.224 20.624C11.144 20.624 11.056 20.624 10.976 20.624C10.68 20.608 10.52 20.472 10.512 20.224C10.504 19.968 10.672 19.808 10.976 19.792C11.048 19.792 11.12 19.792 11.2 19.792C15.888 19.792 20.584 19.792 25.272 19.792C25.392 19.792 25.512 19.792 25.624 19.816C25.84 19.856 25.96 20.008 25.952 20.224C25.952 20.44 25.816 20.584 25.6 20.616C25.488 20.632 25.384 20.632 25.272 20.632C22.928 20.632 20.592 20.632 18.248 20.632V20.624Z" fill="#220047"/>
<path d="M15.264 22.992C13.888 22.992 12.512 22.992 11.136 22.992C11.024 22.992 10.912 22.992 10.808 22.968C10.616 22.92 10.52 22.784 10.512 22.584C10.512 22.384 10.6 22.248 10.792 22.192C10.896 22.16 11.008 22.16 11.12 22.16C13.904 22.16 16.68 22.16 19.464 22.16C19.568 22.16 19.672 22.16 19.768 22.184C19.976 22.232 20.08 22.368 20.08 22.584C20.08 22.792 19.968 22.936 19.76 22.976C19.656 23 19.544 22.992 19.432 22.992C18.048 22.992 16.656 22.992 15.272 22.992H15.264Z" fill="#220047"/>
</svg>
