<?xml version="1.0"?>
<svg xmlns="http://www.w3.org/2000/svg" xmlns:xlink="http://www.w3.org/1999/xlink" version="1.1" viewBox="0 0 120.101 120.101" style="enable-background:new 0 0 512 512" xml:space="preserve" class=""><g>
<g xmlns="http://www.w3.org/2000/svg">
	<path d="M22.529,89.252c4.401,0,8.523-1.561,11.896-4.262c4.413,3.547,9.785,5.574,15.519,5.574c6.724,0,13.024-2.648,17.756-7.436   c9.623-9.788,9.493-25.588-0.295-35.211c-4.679-4.613-10.888-7.155-17.461-7.155c-2.875,0-5.642,0.576-8.263,1.501V19.157   C41.68,8.594,33.085,0,22.529,0C11.963,0,3.366,8.594,3.366,19.157v50.945C3.366,80.659,11.963,89.252,22.529,89.252z    M9.419,70.096V46.798h24.447c-0.556,0.479-1.155,0.878-1.676,1.398c-8.763,8.922-9.339,22.791-1.986,32.468   c-2.213,1.619-4.859,2.529-7.675,2.529C15.292,83.2,9.419,77.325,9.419,70.096z M63.384,78.874   c-6.348,6.442-16.976,7.14-24.281,2.11l25.995-26.422C70.465,61.886,69.945,72.212,63.384,78.874z M60.795,50.315l-26.02,26.442   c-5.358-7.317-4.838-17.641,1.723-24.311c3.573-3.632,8.346-5.636,13.444-5.636C53.889,46.81,57.642,48.063,60.795,50.315z    M22.529,6.047c7.223,0,13.099,5.875,13.099,13.104v21.595H9.419V19.151C9.419,11.922,15.292,6.047,22.529,6.047z M116.735,56.276   c0,1.67-1.348,3.026-3.026,3.026H92.524L75.359,98.544c-0.484,1.105-1.572,1.82-2.777,1.82H7.788c-1.667,0-3.026-1.359-3.026-3.026   c0-1.673,1.359-3.026,3.026-3.026h62.819l17.165-39.247c0.484-1.1,1.572-1.814,2.778-1.814h23.158   C115.387,53.25,116.735,54.607,116.735,56.276z M30.568,111.442c0,4.787-3.881,8.659-8.653,8.659c-4.788,0-8.668-3.878-8.668-8.659   c0-4.782,3.88-8.665,8.668-8.665C26.687,102.789,30.568,106.666,30.568,111.442z M61.363,111.442c0,4.787-3.877,8.659-8.665,8.659   c-4.776,0-8.668-3.878-8.668-8.659c0-4.782,3.892-8.665,8.668-8.665C57.485,102.789,61.363,106.666,61.363,111.442z" data-original="#000000" style="" class=""/>
</g>
<g xmlns="http://www.w3.org/2000/svg">
</g>
<g xmlns="http://www.w3.org/2000/svg">
</g>
<g xmlns="http://www.w3.org/2000/svg">
</g>
<g xmlns="http://www.w3.org/2000/svg">
</g>
<g xmlns="http://www.w3.org/2000/svg">
</g>
<g xmlns="http://www.w3.org/2000/svg">
</g>
<g xmlns="http://www.w3.org/2000/svg">
</g>
<g xmlns="http://www.w3.org/2000/svg">
</g>
<g xmlns="http://www.w3.org/2000/svg">
</g>
<g xmlns="http://www.w3.org/2000/svg">
</g>
<g xmlns="http://www.w3.org/2000/svg">
</g>
<g xmlns="http://www.w3.org/2000/svg">
</g>
<g xmlns="http://www.w3.org/2000/svg">
</g>
<g xmlns="http://www.w3.org/2000/svg">
</g>
<g xmlns="http://www.w3.org/2000/svg">
</g>
</g></svg>
