<svg width="32" height="32" viewBox="0 0 32 32" fill="none" xmlns="http://www.w3.org/2000/svg">
<g clip-path="url(#clip0_74_1172)">
<path d="M7.85599 7.87463C7.51099 7.87463 7.23099 8.15463 7.23099 8.49963C7.23099 8.84463 7.51099 9.12463 7.85599 9.12463C8.20099 9.12463 8.48099 8.84463 8.48099 8.49963C8.48099 8.15463 8.20099 7.87463 7.85599 7.87463Z" fill="#220047"/>
<path d="M13.4807 19.5615H11.6058V17.6866C11.6058 17.3415 11.3259 17.0616 10.9808 17.0616C10.6357 17.0616 10.3559 17.3415 10.3559 17.6866V19.5615H8.48099C8.13586 19.5615 7.85599 19.8414 7.85599 20.1864C7.85599 20.5315 8.13586 20.8114 8.48099 20.8114H10.3559V22.6863C10.3559 23.0314 10.6357 23.3113 10.9808 23.3113C11.3259 23.3113 11.6058 23.0314 11.6058 22.6863V20.8114H13.4807C13.8258 20.8114 14.1057 20.5316 14.1057 20.1864C14.1057 19.8413 13.8259 19.5615 13.4807 19.5615Z" fill="#220047"/>
<path d="M30.3486 20.124C28.9671 17.7311 25.9123 16.9122 23.519 18.2941L20.9804 19.7597V14.3324C20.9804 13.6615 20.7585 12.9957 20.3555 12.4576L17.2306 8.29125V6.51713C17.958 6.25913 18.4806 5.5645 18.4806 4.74969V1.87487C18.4805 0.841062 17.6394 0 16.6056 0H5.35614C4.32232 0 3.4812 0.841062 3.4812 1.87487V4.74975C3.4812 5.56444 4.00376 6.25919 4.73114 6.51719V8.29131L1.60607 12.4579C1.2032 12.9958 0.981323 13.6615 0.981323 14.3324V26.4362C0.981323 28.1593 2.38314 29.561 4.10614 29.561H14.15C15.5513 31.9099 18.573 32.6961 20.9415 31.3284L28.5188 26.9536C30.891 25.5837 31.7371 22.5299 30.3486 20.124ZM4.73114 1.87487C4.73114 1.53025 5.01151 1.24987 5.35607 1.24987H16.6055C16.9501 1.24987 17.2305 1.53025 17.2305 1.87487V4.74975C17.2305 5.09438 16.9501 5.37469 16.6055 5.37469H5.35614C5.01151 5.37469 4.7312 5.09431 4.7312 4.74975L4.73114 1.87487ZM2.60632 13.2074L5.85607 8.87456C5.9372 8.76644 5.98107 8.63481 5.98107 8.49956V6.62469H15.9806V7.87463H10.3559C10.0108 7.87463 9.73089 8.1545 9.73089 8.49963C9.73089 8.84475 10.0108 9.12463 10.3559 9.12463H16.2931L19.3551 13.2072C19.5553 13.4744 19.6796 13.7941 19.7171 14.1244H2.24457C2.28207 13.7941 2.40639 13.4744 2.60632 13.2074ZM4.1062 28.3111C3.07239 28.3111 2.23132 27.47 2.23132 26.4362V25.805H13.586C13.3878 26.6153 13.3891 27.4808 13.6161 28.3111H4.1062V28.3111ZM14.0762 24.5613H2.23126V15.3742H19.7304V20.4813L15.9417 22.6689C15.1518 23.1252 14.5133 23.7748 14.0762 24.5613ZM20.3166 30.2459C18.5231 31.2816 16.2312 30.6691 15.1948 28.8743C14.1535 27.0622 14.7846 24.7807 16.5668 23.7512L19.9591 21.7926L23.709 28.2873L20.3166 30.2459ZM27.8938 25.8712L24.7915 27.6624L21.0416 21.1676L24.144 19.3766C25.9387 18.3404 28.2298 18.954 29.2661 20.7489C30.3071 22.5527 29.6741 24.8431 27.8938 25.8712Z" fill="#220047"/>
</g>
<defs>
<clipPath id="clip0_74_1172">
<rect width="32" height="32" fill="white"/>
</clipPath>
</defs>
</svg>
