<?xml version="1.0"?>
<svg xmlns="http://www.w3.org/2000/svg" xmlns:xlink="http://www.w3.org/1999/xlink" version="1.1" viewBox="0 0 512 512" style="enable-background:new 0 0 512 512" xml:space="preserve" class=""><g><g xmlns="http://www.w3.org/2000/svg"><path d="m461.007 250.505c6.948-7.671 13.336-15.891 19.053-24.643 20.889-31.978 31.931-69.155 31.931-107.511 0-1.232-.01-2.464-.031-3.709-.445-23.984-6.54-45.258-18.113-63.229-2.242-3.482-6.884-4.486-10.366-2.245-3.482 2.243-4.488 6.884-2.245 10.366 10.043 15.595 15.333 34.23 15.727 55.374.02 1.148.029 2.296.029 3.444 0 35.435-10.197 69.776-29.489 99.308-18.17 27.815-43.434 50.044-73.218 64.463-29.788-14.419-55.054-36.648-73.226-64.463-19.292-29.532-29.49-63.872-29.49-99.308 0-1.127.009-2.255.039-3.432.403-21.821 6.007-40.943 16.656-56.835 9.503-14.181 23.13-25.611 39.407-33.055 18.069-8.264 39.313-11.524 59.821-9.181 21.105 2.412 40.27 10.357 55.422 22.978 3.183 2.651 7.911 2.221 10.563-.962 2.651-3.183 2.22-7.912-.962-10.563-35.167-29.292-87.844-35.686-131.082-15.913-40.326 18.441-63.953 56.076-64.821 103.205-.031 1.252-.042 2.505-.042 3.757 0 38.357 11.042 75.534 31.933 107.511 5.718 8.752 12.107 16.972 19.055 24.643-26.015 9.299-40.665 23.508-40.665 39.905 0 5.766 1.872 11.31 5.464 16.485-8.796.333-17.163.865-24.997 1.597-4.124.385-7.155 4.04-6.77 8.164.363 3.887 3.631 6.803 7.458 6.803.233 0 .469-.011.706-.033 11.924-1.113 25.156-1.755 39.328-1.907.211-.002.419-.019.625-.038 3.586 2.184 7.582 4.233 11.985 6.122 19.78 8.486 45.915 13.159 73.591 13.159s53.811-4.673 73.591-13.159c21.797-9.351 33.8-22.559 33.8-37.193 0-16.396-14.651-30.606-40.667-39.905zm-66.724 75.257c-54.447 0-92.392-18.631-92.392-35.352 0-10.336 14.547-21.112 37.413-27.962 15.254 14.207 32.719 25.966 51.843 34.779.996.459 2.067.688 3.139.688s2.143-.229 3.139-.688c19.121-8.813 36.584-20.572 51.837-34.779 22.865 6.851 37.413 17.626 37.413 27.962-.001 16.722-37.945 35.352-92.392 35.352z" data-original="#000000" style=""/><path d="m394.282 39.792c-45.275 0-82.109 36.834-82.109 82.109s36.834 82.109 82.109 82.109 82.109-36.834 82.109-82.109-36.834-82.109-82.109-82.109zm0 149.219c-37.004 0-67.11-30.105-67.11-67.11s30.105-67.11 67.11-67.11 67.11 30.105 67.11 67.11-30.106 67.11-67.11 67.11z" data-original="#000000" style=""/><path d="m405.921 114.284c-1.551-.491-3.132-1.002-4.714-1.53v-23.739c3.655.991 5.92 2.564 6.345 2.879 3.327 2.469 8.024 1.772 10.491-1.555 2.468-3.327 1.771-8.024-1.555-10.491-1.456-1.081-6.961-4.795-15.281-6.153v-3.982c0-4.142-3.358-7.5-7.5-7.5s-7.5 3.358-7.5 7.5v4.461c-.636.141-1.277.294-1.928.469-9.965 2.689-17.24 10.518-18.987 20.43-1.521 8.629 1.686 16.906 8.369 21.603 3.242 2.278 7.208 4.368 12.546 6.547v31.299c-4.486-.415-7.592-1.569-12.658-4.539-3.574-2.093-8.168-.895-10.263 2.678-2.094 3.574-.895 8.168 2.678 10.263 7.918 4.64 13.435 6.176 20.242 6.632v4.535c0 4.142 3.358 7.5 7.5 7.5s7.5-3.358 7.5-7.5v-5.151c14.257-3.002 23.128-14.151 24.794-25.149 2.034-13.418-5.848-25-20.079-29.507zm-23.636-9.882c-2.813-1.976-2.411-5.648-2.221-6.726.49-2.779 2.366-6.082 6.143-7.831v16.893c-1.451-.755-2.779-1.533-3.922-2.336zm28.886 37.141c-.712 4.702-4.228 9.45-9.964 11.752v-24.77c.063.02.122.039.185.059 7.121 2.255 10.685 6.978 9.779 12.959z" data-original="#000000" style=""/><path d="m238.11 454c-14.055-.367-27.56-.613-40.138-.73-4.13-.068-7.531 3.287-7.569 7.429-.039 4.141 3.287 7.531 7.429 7.569 12.495.117 25.915.361 39.886.726.067.001.133.002.2.002 4.051 0 7.387-3.23 7.493-7.304.109-4.139-3.16-7.584-7.301-7.692z" data-original="#000000" style=""/><path d="m204.774 351.094c1.077 0 2.172-.233 3.21-.726 3.742-1.775 5.336-6.248 3.56-9.991-.188-.397-.198-.588-.198-.622 0-.052 1.713-5.65 22.982-10.916 4.021-.996 6.473-5.062 5.478-9.082-.996-4.021-5.062-6.473-9.082-5.478-22.811 5.647-34.377 14.218-34.377 25.476 0 2.377.554 4.75 1.646 7.052 1.283 2.705 3.975 4.287 6.781 4.287z" data-original="#000000" style=""/><path d="m227.471 359.972c-1.456 3.878.506 8.201 4.384 9.658 10.685 4.013 23.89 7.896 39.25 11.539.582.138 1.164.204 1.737.204 3.395 0 6.473-2.322 7.291-5.77.956-4.03-1.536-8.072-5.566-9.028-14.747-3.498-27.342-7.195-37.437-10.986-3.879-1.457-8.203.505-9.659 4.383z" data-original="#000000" style=""/><path d="m385.629 389.594c-3.697-1.866-8.208-.382-10.075 3.315-1.867 3.698-.382 8.208 3.315 10.075 11.994 6.055 20.133 15.007 21.24 23.363.5 3.772 3.722 6.515 7.425 6.515.329 0 .661-.021.995-.066 4.106-.544 6.994-4.314 6.449-8.42-1.775-13.398-12.747-26.401-29.349-34.782z" data-original="#000000" style=""/><path d="m346.53 394.86c.354.05.707.074 1.055.074 3.679 0 6.89-2.708 7.417-6.455.577-4.102-2.28-7.895-6.381-8.472-13.891-1.955-27.082-4.056-39.208-6.243-4.07-.731-7.976 1.973-8.712 6.049-.735 4.076 1.973 7.977 6.049 8.712 12.315 2.222 25.699 4.353 39.78 6.335z" data-original="#000000" style=""/><path d="m385.048 446.107c-8.897 4.377-21.036 7.469-36.079 9.19-4.115.471-7.07 4.188-6.598 8.303.438 3.826 3.681 6.648 7.442 6.648.285 0 .572-.016.862-.049 16.756-1.917 30.549-5.494 40.995-10.632 3.717-1.828 5.247-6.324 3.419-10.04-1.829-3.717-6.324-5.248-10.041-3.42z" data-original="#000000" style=""/><path d="m313.982 456.848c-6.094-.073-12.542-.301-19.165-.678-5.618-.32-12.74-.658-20.596-.977-4.145-.185-7.63 3.05-7.798 7.189s3.05 7.63 7.189 7.798c7.777.316 14.815.65 20.354.965 6.846.39 13.52.625 19.837.701h.092c4.099 0 7.448-3.299 7.497-7.41.049-4.14-3.268-7.538-7.41-7.588z" data-original="#000000" style=""/><path d="m157.647 270.867 20.734-40.555c1.189-2.325 1.082-5.101-.28-7.328-1.363-2.227-3.786-3.585-6.397-3.585h-42.159c-4.142 0-7.5 3.358-7.5 7.5s3.358 7.5 7.5 7.5h29.901l-16.899 33.055c-1.096 2.144-1.096 4.683 0 6.827l16.901 33.065h-82.382v-72.947h22.479c4.142 0 7.5-3.358 7.5-7.5s-3.358-7.5-7.5-7.5h-22.48v-3.367c0-4.142-3.358-7.5-7.5-7.5s-7.5 3.358-7.5 7.5v227.93c-31.324 1.629-62.057 13.394-62.057 33.917 0 22.162 35.837 34.121 69.557 34.121s69.557-11.959 69.557-34.121c0-3.059-.704-5.916-1.97-8.581 5.763-.402 13.759-.756 24.871-.949 4.141-.072 7.441-3.488 7.369-7.629-.072-4.142-3.469-7.417-7.629-7.369-18.438.32-31.06 1.101-38.392 2.376-11.863-6.866-28.989-10.865-46.306-11.765v-121.618h94.638c2.611 0 5.034-1.358 6.397-3.585s1.469-5.003.281-7.328zm-33.524 207.012c0 7.797-21.253 19.122-54.558 19.122-33.304 0-54.557-11.325-54.557-19.122 0-7.194 18.101-17.383 47.058-18.917v18.917c0 4.142 3.358 7.5 7.5 7.5s7.5-3.358 7.5-7.5v-18.917c28.956 1.534 47.057 11.723 47.057 18.917z" data-original="#000000" style=""/></g></g></svg>
