<?xml version="1.0" encoding="utf-8"?>
<!-- Generator: Adobe Illustrator 25.0.1, SVG Export Plug-In . SVG Version: 6.00 Build 0)  -->
<svg version="1.1" id="Layer_1" xmlns="http://www.w3.org/2000/svg" xmlns:xlink="http://www.w3.org/1999/xlink" x="0px" y="0px"
	 viewBox="0 0 64 80" style="enable-background:new 0 0 64 80;" xml:space="preserve">
<path d="M41.2,19.1H22.9c-0.8,0-1.5-0.7-1.5-1.5V5.3c0-0.8,0.7-1.5,1.5-1.5h18.3c0.8,0,1.5,0.7,1.5,1.5v12.3
	C42.7,18.4,42.1,19.1,41.2,19.1z M24.4,16.1h15.3V6.8H24.4L24.4,16.1z"/>
<path d="M36,40.2h-7.8c-0.5,0-1-0.3-1.3-0.8L23,32.8c-0.3-0.5-0.3-1,0-1.5l3.9-6.7c0.3-0.5,0.8-0.7,1.3-0.8H36c0.5,0,1,0.3,1.3,0.8
	l3.9,6.7c0.3,0.5,0.3,1,0,1.5l-3.9,6.7C37,39.9,36.5,40.2,36,40.2z M29.1,37.2h6l3-5.2l-3-5.2h-6L26,32L29.1,37.2z"/>
<path d="M33.1,60.2c-4.2,0-7.6-3.5-7.6-7.7c0-4.2,3.5-7.6,7.7-7.6c4.2,0,7.6,3.4,7.6,7.6C40.7,56.8,37.3,60.2,33.1,60.2
	C33.1,60.2,33.1,60.2,33.1,60.2z M33.1,48c-2.6,0-4.6,2.1-4.6,4.7c0,2.6,2.1,4.6,4.7,4.6c2.5,0,4.6-2.1,4.6-4.6
	C37.7,50,35.6,48,33.1,48L33.1,48z"/>
<path d="M19.5,30.8L14.9,27c-0.5-0.6-1.5-0.7-2.1-0.2c-0.6,0.5-0.7,1.5-0.2,2.1c0.1,0.1,0.3,0.3,0.4,0.4l1.5,1.3h-2.4
	c-4.7,0.2-8.6-3.5-8.8-8.2s3.5-8.6,8.2-8.8c0.2,0,0.4,0,0.6,0h6.8v-3h-6.8C5.8,10.4,0.5,15.4,0.3,21.7s4.8,11.6,11.1,11.8
	c0.2,0,0.5,0,0.7,0h2.4l-1.4,1.3c-0.6,0.6-0.7,1.5-0.1,2.1c0.3,0.3,0.7,0.5,1.1,0.5c0.4,0,0.7-0.1,1-0.4l4.5-4
	c0.6-0.5,0.7-1.5,0.2-2.1C19.7,30.9,19.7,30.8,19.5,30.8L19.5,30.8z"/>
<path d="M51.6,30.5h-8c0.4,1,0.4,2,0,3h8c4.8-0.2,8.9,3.6,9.1,8.5c0.2,4.8-3.6,8.9-8.5,9.1c-0.2,0-0.4,0-0.6,0h-2.4l1.5-1.3
	c0.6-0.6,0.7-1.5,0.1-2.1s-1.5-0.7-2.1-0.1l-4.5,4c-0.3,0.3-0.5,0.7-0.5,1.2c0,0.4,0.2,0.9,0.5,1.1l4.7,3.8c0.3,0.2,0.6,0.3,0.9,0.3
	c0.5,0,0.9-0.2,1.2-0.5c0.5-0.6,0.4-1.6-0.2-2.1l-1.5-1.2h2.3c6.5,0.2,11.9-4.9,12.1-11.4c0.2-6.5-4.9-11.9-11.4-12.1
	C52.1,30.5,51.8,30.5,51.6,30.5L51.6,30.5z"/>
</svg>
