<svg width="67" height="62" viewBox="0 0 67 62" fill="none" xmlns="http://www.w3.org/2000/svg">
<g filter="url(#filter0_ddd_40_11889)">
<rect x="10" y="3" width="51" height="51" rx="8" fill="#6DF0C2"/>
<path d="M38.6166 19.5046C39.8377 19.5046 41.0088 19.0195 41.8723 18.156C42.7357 17.2926 43.2208 16.1215 43.2208 14.9004H45.3458C45.3458 16.1215 45.8309 17.2926 46.6943 18.156C47.5578 19.0195 48.7288 19.5046 49.95 19.5046V21.6296C48.7288 21.6296 47.5578 22.1146 46.6943 22.9781C45.8309 23.8415 45.3458 25.0126 45.3458 26.2337H43.2208C43.2208 25.0126 42.7357 23.8415 41.8723 22.9781C41.0088 22.1146 39.8377 21.6296 38.6166 21.6296V19.5046ZM23.0333 21.9837C23.0333 21.2323 23.3318 20.5116 23.8631 19.9803C24.3945 19.4489 25.1152 19.1504 25.8666 19.1504H35.7833V16.3171H25.8666C24.3637 16.3171 22.9224 16.9141 21.8597 17.9768C20.797 19.0395 20.2 20.4808 20.2 21.9837V36.1504C20.2 37.6533 20.797 39.0946 21.8597 40.1573C22.9224 41.22 24.3637 41.8171 25.8666 41.8171H42.8666C44.3695 41.8171 45.8108 41.22 46.8736 40.1573C47.9363 39.0946 48.5333 37.6533 48.5333 36.1504V29.0671H45.7V36.1504C45.7 36.9018 45.4014 37.6225 44.8701 38.1539C44.3387 38.6852 43.6181 38.9837 42.8666 38.9837H25.8666C25.1152 38.9837 24.3945 38.6852 23.8631 38.1539C23.3318 37.6225 23.0333 36.9018 23.0333 36.1504V21.9837Z" fill="#1E3E5F"/>
</g>
<defs>
<filter id="filter0_ddd_40_11889" x="0" y="0" width="67" height="62" filterUnits="userSpaceOnUse" color-interpolation-filters="sRGB">
<feFlood flood-opacity="0" result="BackgroundImageFix"/>
<feColorMatrix in="SourceAlpha" type="matrix" values="0 0 0 0 0 0 0 0 0 0 0 0 0 0 0 0 0 0 127 0" result="hardAlpha"/>
<feOffset dy="4"/>
<feGaussianBlur stdDeviation="2"/>
<feComposite in2="hardAlpha" operator="out"/>
<feColorMatrix type="matrix" values="0 0 0 0 0 0 0 0 0 0 0 0 0 0 0 0 0 0 0.25 0"/>
<feBlend mode="normal" in2="BackgroundImageFix" result="effect1_dropShadow_40_11889"/>
<feColorMatrix in="SourceAlpha" type="matrix" values="0 0 0 0 0 0 0 0 0 0 0 0 0 0 0 0 0 0 127 0" result="hardAlpha"/>
<feOffset dx="2" dy="1"/>
<feGaussianBlur stdDeviation="2"/>
<feComposite in2="hardAlpha" operator="out"/>
<feColorMatrix type="matrix" values="0 0 0 0 0 0 0 0 0 0 0 0 0 0 0 0 0 0 0.25 0"/>
<feBlend mode="normal" in2="effect1_dropShadow_40_11889" result="effect2_dropShadow_40_11889"/>
<feColorMatrix in="SourceAlpha" type="matrix" values="0 0 0 0 0 0 0 0 0 0 0 0 0 0 0 0 0 0 127 0" result="hardAlpha"/>
<feOffset dx="-6" dy="2"/>
<feGaussianBlur stdDeviation="2"/>
<feComposite in2="hardAlpha" operator="out"/>
<feColorMatrix type="matrix" values="0 0 0 0 0 0 0 0 0 0 0 0 0 0 0 0 0 0 0.25 0"/>
<feBlend mode="normal" in2="effect2_dropShadow_40_11889" result="effect3_dropShadow_40_11889"/>
<feBlend mode="normal" in="SourceGraphic" in2="effect3_dropShadow_40_11889" result="shape"/>
</filter>
</defs>
</svg>
