<svg width="32" height="32" viewBox="0 0 32 32" fill="none" xmlns="http://www.w3.org/2000/svg">
<g clip-path="url(#clip0_74_1313)">
<path d="M17.8489 13.0613C18.3453 13.0613 18.7477 12.6589 18.7477 12.1625C18.7477 11.6661 18.3453 11.2637 17.8489 11.2637C17.3525 11.2637 16.9501 11.6661 16.9501 12.1625C16.9501 12.6589 17.3525 13.0613 17.8489 13.0613Z" fill="#220047"/>
<path d="M21.1594 12.5465C21.6558 12.5465 22.0582 12.1441 22.0582 11.6477C22.0582 11.1513 21.6558 10.7489 21.1594 10.7489C20.663 10.7489 20.2606 11.1513 20.2606 11.6477C20.2606 12.1441 20.663 12.5465 21.1594 12.5465Z" fill="#220047"/>
<path d="M24.279 11.6054C24.7754 11.6054 25.1778 11.203 25.1778 10.7066C25.1778 10.2102 24.7754 9.8078 24.279 9.8078C23.7826 9.8078 23.3802 10.2102 23.3802 10.7066C23.3802 11.203 23.7826 11.6054 24.279 11.6054Z" fill="#220047"/>
<path d="M17.8489 20.7295C18.3453 20.7295 18.7477 20.3271 18.7477 19.8307C18.7477 19.3343 18.3453 18.9319 17.8489 18.9319C17.3525 18.9319 16.9501 19.3343 16.9501 19.8307C16.9501 20.3271 17.3525 20.7295 17.8489 20.7295Z" fill="#220047"/>
<path d="M21.1594 20.2147C21.6558 20.2147 22.0582 19.8123 22.0582 19.3159C22.0582 18.8195 21.6558 18.4171 21.1594 18.4171C20.663 18.4171 20.2606 18.8195 20.2606 19.3159C20.2606 19.8123 20.663 20.2147 21.1594 20.2147Z" fill="#220047"/>
<path d="M24.279 19.2736C24.7754 19.2736 25.1778 18.8712 25.1778 18.3748C25.1778 17.8784 24.7754 17.476 24.279 17.476C23.7826 17.476 23.3802 17.8784 23.3802 18.3748C23.3802 18.8712 23.7826 19.2736 24.279 19.2736Z" fill="#220047"/>
<path d="M17.8489 28.266C18.3453 28.266 18.7477 27.8636 18.7477 27.3672C18.7477 26.8708 18.3453 26.4684 17.8489 26.4684C17.3525 26.4684 16.9501 26.8708 16.9501 27.3672C16.9501 27.8636 17.3525 28.266 17.8489 28.266Z" fill="#220047"/>
<path d="M21.1594 27.7512C21.6558 27.7512 22.0582 27.3488 22.0582 26.8524C22.0582 26.356 21.6558 25.9536 21.1594 25.9536C20.663 25.9536 20.2606 26.356 20.2606 26.8524C20.2606 27.3488 20.663 27.7512 21.1594 27.7512Z" fill="#220047"/>
<path d="M24.279 26.8108C24.7754 26.8108 25.1778 26.4083 25.1778 25.9119C25.1778 25.4155 24.7754 25.0131 24.279 25.0131C23.7826 25.0131 23.3802 25.4155 23.3802 25.9119C23.3802 26.4083 23.7826 26.8108 24.279 26.8108Z" fill="#220047"/>
<path d="M27.0218 4.59587C27.0209 3.28306 25.8145 2.08993 23.6245 1.23612C21.58 0.438999 18.8722 0 15.9999 0C13.1276 0 10.4199 0.438999 8.37546 1.23606C6.18465 2.09025 4.97809 3.28393 4.97809 4.5973V12.1992V19.8009V27.4028C4.97809 28.7161 6.18465 29.9098 8.37546 30.764C10.4198 31.5611 13.1276 32.0001 15.9999 32.0001C18.8722 32.0001 21.58 31.5611 23.6245 30.764C25.8153 29.9098 27.0219 28.7161 27.0219 27.4028V19.801V19.8009V12.1992V12.1992V4.5973C27.0219 4.59674 27.0218 4.5963 27.0218 4.59587ZM5.96196 6.55217C5.96271 6.55286 5.96346 6.55349 5.96421 6.55417C6.65277 7.19186 7.50777 7.62024 8.37552 7.95855C10.4199 8.75561 13.1277 9.19461 16 9.19461C16.9874 9.19461 17.9553 9.14273 18.8835 9.04223C20.6556 8.85042 22.2829 8.48161 23.6246 7.95855C24.4764 7.62642 25.3282 7.19692 26.0097 6.57755C26.0181 6.56986 26.027 6.56224 26.0353 6.55461C26.0362 6.55374 26.0372 6.55293 26.0382 6.55205V12.1992C26.0382 12.3667 25.9989 12.5342 25.9334 12.6879C25.7665 13.0805 25.457 13.3862 25.1255 13.6445C22.6309 15.5888 19.0439 15.8127 16 15.8127C15.5745 15.8127 15.1489 15.8029 14.7239 15.7826C12.4563 15.6747 10.3641 15.2798 8.73289 14.6438C6.9719 13.9572 5.96196 13.0661 5.96196 12.1991V6.55217ZM8.73283 2.15256C10.6661 1.39881 13.2469 0.983686 15.9999 0.983686C18.7529 0.983686 21.3338 1.39881 23.2671 2.1525C25.028 2.83906 26.038 3.73018 26.038 4.59724C26.038 5.4643 25.028 6.35543 23.2671 7.04199C22.0587 7.51311 20.5975 7.85192 18.9994 8.03973C18.0404 8.15248 17.0323 8.21086 15.9999 8.21086C13.2469 8.21086 10.6661 7.79573 8.73283 7.04205C6.97183 6.35549 5.96184 5.46436 5.96184 4.5973C5.96184 3.73024 6.97183 2.83906 8.73283 2.15256ZM5.9619 14.1538C5.96277 14.1547 5.96365 14.1554 5.96452 14.1562C5.97409 14.1651 5.98421 14.1737 5.9939 14.1825C6.67596 14.8014 7.52308 15.2281 8.37558 15.5603C10.42 16.3574 13.1278 16.7964 16.0001 16.7964C16.3834 16.7964 16.7638 16.7883 17.1401 16.7728C17.5568 16.7557 17.9684 16.7295 18.3734 16.694C18.3841 16.6931 18.3948 16.692 18.4056 16.6911C19.6361 16.5815 20.8042 16.3878 21.8655 16.1175C23.1482 15.7908 24.4511 15.3355 25.5367 14.5599C25.7111 14.4353 25.8782 14.3005 26.0361 14.1556C26.0367 14.155 26.0375 14.1543 26.0382 14.1538V19.8009C26.0382 19.9078 26.0225 20.0141 25.9939 20.1171C25.9929 20.1203 25.9924 20.1235 25.9914 20.1268C25.8549 20.6063 25.4753 20.979 25.09 21.2733C24.6322 21.6228 24.0183 21.9529 23.2672 22.2457C21.8923 22.7818 20.1897 23.1463 18.3308 23.3122C18.2803 23.3167 18.2296 23.3211 18.1789 23.3253C17.4713 23.3841 16.742 23.4145 16.0001 23.4145C13.2471 23.4145 10.6662 22.9994 8.73296 22.2457C6.97196 21.5591 5.96202 20.668 5.96202 19.801V14.1538H5.9619ZM26.0382 27.4026H26.0382C26.0382 28.2698 25.0282 29.1608 23.2672 29.8473C21.3339 30.6011 18.7531 31.0162 16.0001 31.0162C13.247 31.0162 10.6663 30.6011 8.73296 29.8473C6.97196 29.1608 5.96202 28.2696 5.96202 27.4026V21.7556C5.96284 21.7563 5.96359 21.757 5.9644 21.7577C5.97509 21.7676 5.98646 21.7774 5.99734 21.7872C6.68171 22.4076 7.52102 22.8289 8.37571 23.1621C10.4201 23.9591 13.1279 24.3981 16.0002 24.3981C16.3714 24.3981 16.7398 24.3906 17.1044 24.3761C19.5612 24.2785 21.8444 23.8561 23.6246 23.1621C24.2815 22.9061 24.9204 22.594 25.4987 22.1886C25.6747 22.0651 25.8434 21.9316 26.0028 21.7873C26.0137 21.7775 26.0252 21.7676 26.036 21.7576C26.0368 21.7569 26.0375 21.7563 26.0384 21.7555V27.4026H26.0382Z" fill="#220047"/>
</g>
<defs>
<clipPath id="clip0_74_1313">
<rect width="32" height="32" fill="white"/>
</clipPath>
</defs>
</svg>
