<svg width="35" height="36" viewBox="0 0 35 36" fill="none" xmlns="http://www.w3.org/2000/svg">
<path d="M34.8258 21.5647C34.6159 20.9292 34.0662 20.4864 33.3552 20.3802C33.0199 20.3301 32.6359 20.3515 32.1816 20.4451C31.3898 20.6086 30.8023 20.6707 30.3733 20.6827C31.9919 17.9503 33.3079 14.8344 34.0655 11.901C35.2906 7.15813 34.6359 4.99743 33.8709 4.0201C31.8465 1.43325 28.8927 0.043545 25.3292 0.00102902C23.4284 -0.022209 21.7596 0.353109 20.8892 0.623036C20.0786 0.480026 19.2071 0.400106 18.2927 0.385382C16.5785 0.358023 15.064 0.731684 13.7699 1.49973C13.0534 1.25739 11.9036 0.915842 10.5757 0.697898C7.45251 0.185187 4.93539 0.584697 3.09423 1.88538C0.86479 3.46025 -0.168768 6.19639 0.0223916 10.0179C0.0831055 11.2313 0.761848 14.9229 1.83051 18.4239C2.44465 20.4361 3.09956 22.1073 3.77708 23.3912C4.73781 25.2117 5.7659 26.2838 6.92002 26.6688C7.56687 26.8843 8.74216 27.0351 9.97829 26.0057C10.135 26.1954 10.3441 26.3839 10.6214 26.5592C10.9738 26.7813 11.4047 26.9629 11.8349 27.0706C13.3855 27.4581 14.8381 27.3611 16.077 26.8178C16.0848 27.0382 16.0907 27.2488 16.0956 27.4306C16.1039 27.7256 16.112 28.0147 16.1228 28.2852C16.1962 30.1136 16.3206 31.5355 16.6892 32.5305C16.7096 32.585 16.7367 32.6684 16.7654 32.7569C16.9493 33.32 17.2568 34.2626 18.0392 35.0008C18.8492 35.7655 19.8291 36 20.7266 36C21.1768 36 21.6063 35.941 21.9828 35.8603C23.3256 35.5725 24.8506 35.134 25.9536 33.5633C26.9965 32.0785 27.5036 29.842 27.5952 26.3182C27.6071 26.2186 27.6181 26.1234 27.6287 26.0327L27.6505 25.8464L27.8962 25.8682L27.9595 25.8723C29.327 25.9348 30.9992 25.6448 32.0261 25.1676C32.8377 24.791 35.438 23.4182 34.8258 21.5647Z" fill="black"/>
<path d="M32.492 21.9256C28.4258 22.7644 28.1463 21.3876 28.1463 21.3876C32.4394 15.0172 34.2342 6.93065 32.6855 4.95152C28.46 -0.44713 21.1459 2.10615 21.0239 2.17228L20.9846 2.17943C20.1811 2.01258 19.2822 1.91332 18.2717 1.89679C16.4319 1.8667 15.0362 2.37917 13.977 3.18231C13.977 3.18231 0.92917 -2.19294 1.53617 9.94264C1.66517 12.5243 5.23649 29.4771 9.4961 24.3567C11.053 22.4841 12.5574 20.901 12.5574 20.901C13.3045 21.3973 14.199 21.6506 15.1366 21.5597L15.2095 21.4977C15.1868 21.7303 15.1973 21.9576 15.2387 22.2269C14.1413 23.4529 14.4638 23.6682 12.2701 24.1198C10.0504 24.5772 11.3544 25.3915 12.2057 25.6046C13.2379 25.8626 15.6257 26.2281 17.2392 23.9695L17.1749 24.2273C17.6048 24.5718 17.9066 26.4672 17.856 28.1858C17.8053 29.9041 17.7716 31.084 18.1104 32.0056C18.4493 32.9272 18.7868 35.0006 21.6706 34.3827C24.0803 33.8663 25.3289 32.5281 25.5026 30.296C25.6259 28.7091 25.9049 28.9438 25.9226 27.5249L26.1463 26.8533C26.4042 24.7021 26.1873 24.0082 27.6718 24.3309L28.0327 24.3626C29.1251 24.4123 30.5554 24.1868 31.3947 23.7967C33.2019 22.9581 34.2738 21.5575 32.4918 21.9256H32.492Z" fill="#336791"/>
<path d="M14.7427 11.0944C14.3762 11.0434 14.0443 11.0906 13.8764 11.2178C13.7821 11.2893 13.7528 11.3721 13.7449 11.4292C13.7239 11.5802 13.8297 11.7473 13.8948 11.8334C14.0788 12.0774 14.3476 12.245 14.6138 12.2819C14.6523 12.2874 14.6906 12.2898 14.7288 12.2898C15.1725 12.2898 15.5761 11.9443 15.6115 11.6893C15.656 11.37 15.1923 11.1571 14.7427 11.0946" fill="white"/>
<path d="M26.8745 11.1026C26.8394 10.8523 26.3941 10.7809 25.9713 10.8397C25.549 10.8984 25.1397 11.0891 25.1739 11.34C25.2012 11.5351 25.5535 11.8681 25.9706 11.8681C26.0058 11.8681 26.0413 11.8658 26.0771 11.8608C26.3556 11.8222 26.5599 11.6454 26.6569 11.5436C26.8045 11.3882 26.8902 11.2152 26.8745 11.1026Z" fill="white"/>
<path d="M33.8308 21.8255C33.6758 21.3567 33.1767 21.2059 32.3476 21.3771C29.8859 21.8852 29.0043 21.5331 28.7149 21.32C30.6283 18.4051 32.2025 14.8813 33.0516 11.5937C33.4539 10.0364 33.6762 8.59008 33.6944 7.41126C33.7144 6.11737 33.494 5.16661 33.0395 4.58582C31.2071 2.24435 28.5176 0.988365 25.2621 0.953931C23.0242 0.928731 21.1331 1.50151 20.7666 1.66255C19.9948 1.4706 19.1531 1.35272 18.2369 1.33769C16.5568 1.31047 15.1045 1.71274 13.9022 2.53269C13.3798 2.33827 12.0301 1.87488 10.3793 1.60899C7.52559 1.14957 5.25783 1.49767 3.6395 2.64415C1.70852 4.01218 0.817105 6.45768 0.989778 9.91256C1.0479 11.0749 1.71019 14.6505 2.75531 18.0748C4.13106 22.582 5.62659 25.1333 7.20008 25.6582C7.38424 25.7198 7.59656 25.7626 7.83074 25.7626C8.40474 25.7626 9.10847 25.5039 9.84064 24.6237C10.7337 23.5524 11.6575 22.5071 12.6109 21.489C13.2294 21.821 13.9089 22.0064 14.604 22.0251C14.6052 22.0433 14.607 22.0614 14.6088 22.0794C14.4891 22.2222 14.372 22.3667 14.2573 22.5136C13.7758 23.1249 13.6755 23.2521 12.1255 23.5713C11.6846 23.6624 10.5135 23.9036 10.4963 24.7245C10.4777 25.6215 11.8806 25.9982 12.0405 26.0382C12.5975 26.1775 13.1341 26.2463 13.6459 26.2463C14.8905 26.2463 15.9858 25.8373 16.8612 25.0458C16.8342 28.2432 16.9675 31.3939 17.3515 32.354C17.6659 33.1399 18.434 35.0605 20.8604 35.0603C21.2164 35.0603 21.6083 35.0189 22.0394 34.9264C24.5718 34.3837 25.6714 33.2645 26.0968 30.7968C26.3245 29.4782 26.7151 26.3292 26.8988 24.6401C27.2866 24.7611 27.7857 24.8163 28.3253 24.8163C29.4509 24.8163 30.7498 24.5771 31.5643 24.1991C32.4792 23.7741 34.1303 22.7316 33.8308 21.8255ZM27.8005 10.4116C27.792 10.9103 27.7234 11.3629 27.6507 11.8355C27.5722 12.3437 27.4914 12.8691 27.4711 13.5069C27.4509 14.1277 27.5285 14.7731 27.6034 15.3971C27.7549 16.6579 27.9103 17.9556 27.3085 19.2362C27.2086 19.059 27.1195 18.876 27.0419 18.6881C26.9672 18.5068 26.8047 18.2156 26.5799 17.8124C25.7049 16.2435 23.656 12.569 24.705 11.0696C25.0173 10.6234 25.8102 10.1645 27.8005 10.4116ZM25.3879 1.96368C28.3048 2.02806 30.6122 3.11924 32.2459 5.20682C33.4989 6.80803 32.1192 14.0938 28.125 20.3792C28.0849 20.3282 28.0444 20.2773 28.0039 20.2265L27.9533 20.1633C28.9854 18.4587 28.7836 16.7722 28.604 15.2771C28.5302 14.6633 28.4603 14.0838 28.4782 13.5393C28.4965 12.9624 28.5727 12.4674 28.6466 11.9889C28.7372 11.3991 28.8295 10.789 28.8041 10.0697C28.823 9.99413 28.8308 9.90498 28.8209 9.79916C28.7559 9.10943 27.9682 7.04496 26.3632 5.17642C25.4851 4.1544 24.2046 3.01066 22.4563 2.23931C23.2083 2.08345 24.2366 1.93804 25.3879 1.96368ZM9.06581 23.9793C8.25912 24.9494 7.7021 24.7634 7.51888 24.7024C6.32526 24.3042 4.94025 21.7814 3.71913 17.7807C2.66246 14.3191 2.04501 10.8381 1.99607 9.8621C1.84186 6.77503 2.59014 4.62366 4.22036 3.4675C6.87341 1.58611 11.2352 2.71222 12.988 3.28334C12.9628 3.30824 12.9366 3.33149 12.9117 3.35675C10.0355 6.26139 10.1037 11.224 10.1109 11.5274C10.1106 11.6444 10.1204 11.8102 10.1338 12.0381C10.1833 12.8728 10.2754 14.4262 10.0293 16.1855C9.80071 17.8205 10.3047 19.4205 11.4117 20.5757C11.5254 20.694 11.6448 20.8067 11.7696 20.9132C11.2768 21.441 10.2059 22.6081 9.06581 23.9793ZM12.1393 19.8786C11.247 18.9474 10.8418 17.6523 11.0273 16.325C11.2871 14.4667 11.1913 12.848 11.1397 11.9785C11.1324 11.8568 11.126 11.7501 11.1223 11.666C11.5425 11.2934 13.4896 10.2503 14.8781 10.5684C15.5119 10.7135 15.898 11.1449 16.0584 11.8872C16.8892 15.7296 16.1683 17.331 15.5893 18.618C15.4699 18.8832 15.3571 19.1337 15.2608 19.3929L15.1861 19.5935C14.9971 20.1002 14.8214 20.5714 14.7123 21.0187C13.7638 21.016 12.841 20.6106 12.1393 19.8784V19.8786ZM12.2849 25.0604C12.0079 24.9913 11.7588 24.8711 11.6127 24.7715C11.7347 24.7141 11.952 24.6358 12.3288 24.5582C14.1524 24.1829 14.434 23.9178 15.0489 23.1369C15.19 22.9578 15.3499 22.755 15.5711 22.5078L15.5715 22.5075C15.901 22.1383 16.0519 22.2009 16.3253 22.3145C16.5471 22.4061 16.7629 22.6839 16.8504 22.9895C16.8918 23.1341 16.9382 23.408 16.7861 23.6213C15.5014 25.4201 13.6293 25.397 12.2849 25.0604ZM21.8282 33.9412C19.5975 34.4192 18.8075 33.2808 18.2871 31.9798C17.9512 31.1396 17.786 27.3515 17.9032 23.1681C17.9046 23.1125 17.8967 23.0586 17.8814 23.0081C17.8677 22.9082 17.8468 22.8093 17.8191 22.7125C17.6449 22.1037 17.2204 21.5947 16.711 21.3834C16.5087 21.2997 16.1374 21.146 15.691 21.2601C15.7862 20.8679 15.9513 20.4251 16.1302 19.9455L16.2052 19.7438C16.2898 19.5166 16.3959 19.2808 16.508 19.0315C17.1141 17.6849 17.9442 15.8407 17.0433 11.6743C16.7058 10.1137 15.579 9.35157 13.8707 9.52858C12.8466 9.63455 11.9096 10.0478 11.4423 10.2847C11.3418 10.3355 11.2499 10.3848 11.1641 10.4326C11.2944 8.8603 11.7872 5.92173 13.6306 4.06251C14.7913 2.89213 16.337 2.3141 18.2201 2.34528C21.931 2.40592 24.3106 4.31026 25.6536 5.89727C26.8108 7.26471 27.4374 8.64221 27.6874 9.38521C25.8068 9.19389 24.5277 9.5651 23.8793 10.4921C22.4687 12.5086 24.651 16.4222 25.6999 18.3032C25.8923 18.6479 26.0582 18.9458 26.1104 19.0724C26.4521 19.9002 26.8942 20.4528 27.2169 20.8562C27.3159 20.9798 27.412 21.0997 27.4849 21.2043C26.9154 21.3686 25.8923 21.7481 25.9855 23.6445C25.9103 24.5962 25.3755 29.0516 25.1039 30.6257C24.7451 32.7054 23.98 33.4799 21.8282 33.9412ZM31.14 23.2853C30.5575 23.5556 29.5828 23.7583 28.6569 23.8019C27.6341 23.8497 27.1134 23.6874 26.991 23.5875C26.9336 22.4056 27.3735 22.2821 27.839 22.1514C27.9121 22.1309 27.9835 22.1108 28.0525 22.0866C28.0951 22.1216 28.1421 22.1561 28.1936 22.1901C29.0155 22.7327 30.4816 22.791 32.5516 22.3638L32.5742 22.3593C32.2951 22.6203 31.8173 22.9706 31.14 23.2853Z" fill="white"/>
</svg>
