<svg width="32" height="32" viewBox="0 0 32 32" fill="none" xmlns="http://www.w3.org/2000/svg">
<path d="M5.30609 3.19739C5.30609 3.97276 5.9369 4.60364 6.71234 4.60364C7.48778 4.60364 8.11859 3.97276 8.11859 3.19739C8.11859 2.42201 7.48778 1.79114 6.71234 1.79114C5.9369 1.79114 5.30609 2.42201 5.30609 3.19739ZM7.18109 3.19739C7.18109 3.45589 6.97084 3.66614 6.71234 3.66614C6.45384 3.66614 6.24359 3.45589 6.24359 3.19739C6.24359 2.93889 6.45384 2.72864 6.71234 2.72864C6.97084 2.72864 7.18109 2.93889 7.18109 3.19739Z" fill="#220047"/>
<path d="M9.21234 3.19739C9.21234 3.97276 9.84315 4.60364 10.6186 4.60364C11.394 4.60364 12.0248 3.97276 12.0248 3.19739C12.0248 2.42201 11.394 1.79114 10.6186 1.79114C9.84315 1.79114 9.21234 2.42201 9.21234 3.19739ZM11.0873 3.19739C11.0873 3.45589 10.8771 3.66614 10.6186 3.66614C10.3601 3.66614 10.1498 3.45589 10.1498 3.19739C10.1498 2.93889 10.3601 2.72864 10.6186 2.72864C10.8771 2.72864 11.0873 2.93889 11.0873 3.19739Z" fill="#220047"/>
<path d="M13.1186 3.19739C13.1186 3.97276 13.7494 4.60364 14.5248 4.60364C15.3003 4.60364 15.9311 3.97276 15.9311 3.19739C15.9311 2.42201 15.3003 1.79114 14.5248 1.79114C13.7494 1.79114 13.1186 2.42201 13.1186 3.19739ZM14.9936 3.19739C14.9936 3.45589 14.7833 3.66614 14.5248 3.66614C14.2663 3.66614 14.0561 3.45589 14.0561 3.19739C14.0561 2.93889 14.2663 2.72864 14.5248 2.72864C14.7833 2.72864 14.9936 2.93889 14.9936 3.19739Z" fill="#220047"/>
<path d="M8.98566 19.989C9.32153 20.2086 9.57228 20.3027 9.8699 20.3395V20.4978C9.8699 20.7568 10.0798 20.9666 10.3387 20.9666C10.5975 20.9666 10.8074 20.7568 10.8074 20.4978V20.2919C11.4388 20.1025 11.8428 19.5502 11.9345 19.0053C12.0571 18.2758 11.6617 17.6168 10.9503 17.3654L10.8162 17.3181C10.405 17.1736 10.2174 17.1077 10.0203 16.9615C9.94428 16.9051 9.88309 16.725 9.91678 16.5321C9.93272 16.4406 9.98191 16.2805 10.1317 16.2353C10.4845 16.1291 10.734 16.2499 10.8514 16.3314C11.064 16.4788 11.3562 16.4261 11.5038 16.2135C11.6514 16.0008 11.5986 15.7088 11.3859 15.5611C11.2798 15.4876 11.0794 15.3708 10.8074 15.3052V15.1646C10.8074 14.9056 10.5975 14.6958 10.3387 14.6958C10.0798 14.6958 9.8699 14.9056 9.8699 15.1646V15.3353C9.86703 15.3362 9.86422 15.3367 9.86134 15.3376C9.40684 15.4745 9.08234 15.8608 8.99328 16.3709C8.89978 16.9066 9.08372 17.434 9.46184 17.7144C9.77284 17.9451 10.0486 18.042 10.5054 18.2026L10.638 18.2493C11.0265 18.3866 11.0378 18.6845 11.01 18.8498C10.9639 19.1241 10.7332 19.4204 10.3356 19.423C9.92578 19.4263 9.80897 19.4072 9.49891 19.2044C9.28228 19.0626 8.99172 19.1233 8.85003 19.3401C8.70822 19.5567 8.76897 19.8473 8.98566 19.989Z" fill="#220047"/>
<path d="M10.3646 22.8625C13.1388 22.8625 15.3958 20.6055 15.3958 17.8312C15.3958 15.057 13.1388 12.8 10.3646 12.8C7.59031 12.8 5.33331 15.057 5.33331 17.8312C5.33331 20.6055 7.59038 22.8625 10.3646 22.8625ZM10.3646 13.7375C12.6219 13.7375 14.4583 15.5739 14.4583 17.8312C14.4583 20.0886 12.6219 21.925 10.3646 21.925C8.10725 21.925 6.27081 20.0886 6.27081 17.8312C6.27081 15.5739 8.10731 13.7375 10.3646 13.7375Z" fill="#220047"/>
<path d="M28.3125 16.6563C28.8122 16.6563 29.2188 16.2497 29.2188 15.75V9.5C29.2188 9.00031 28.8122 8.59375 28.3125 8.59375H26.5938V1.59375C26.5938 0.714938 25.8788 0 25 0H23.6965C23.4376 0 23.2278 0.209813 23.2278 0.46875C23.2278 0.727688 23.4376 0.9375 23.6965 0.9375H25C25.3619 0.9375 25.6563 1.23188 25.6563 1.59375V5.45731H3.71875V1.59375C3.71875 1.23188 4.01313 0.9375 4.375 0.9375H21.2679C21.5269 0.9375 21.7367 0.727688 21.7367 0.46875C21.7367 0.209813 21.5269 0 21.2679 0H4.375C3.49619 0 2.78125 0.714938 2.78125 1.59375V25.3958C2.78125 25.6548 2.99112 25.8646 3.25 25.8646C3.50888 25.8646 3.71875 25.6548 3.71875 25.3958V6.39481H25.6563V8.59375H17.9375C17.4378 8.59375 17.0313 9.00031 17.0313 9.5V15.75C17.0313 16.2497 17.4378 16.6563 17.9375 16.6563H25.6563V20.194H17.9375C17.4378 20.194 17.0313 20.6006 17.0313 21.1003V27.3503C17.0313 27.8499 17.4378 28.2565 17.9375 28.2565H25.6563V30.4063C25.6563 30.7681 25.3619 31.0625 25 31.0625H4.375C4.01313 31.0625 3.71875 30.7681 3.71875 30.4063V27.5417C3.71875 27.2828 3.50888 27.0729 3.25 27.0729C2.99112 27.0729 2.78125 27.2828 2.78125 27.5417V30.4063C2.78125 31.2851 3.49619 32 4.375 32H25C25.8788 32 26.5938 31.2851 26.5938 30.4063V28.2565H28.3125C28.8122 28.2565 29.2188 27.8499 29.2188 27.3503V21.1003C29.2188 20.6006 28.8122 20.194 28.3125 20.194H26.5938V16.6563H28.3125ZM28.2813 27.319H17.9688V21.1315H28.2813V27.319ZM17.9688 9.53125H28.2813V15.7188H17.9688V9.53125Z" fill="#220047"/>
<path d="M19.875 12.1354H23.4166C23.6756 12.1354 23.8854 11.9256 23.8854 11.6667C23.8854 11.4077 23.6756 11.1979 23.4166 11.1979H19.875C19.6161 11.1979 19.4062 11.4077 19.4062 11.6667C19.4062 11.9256 19.6161 12.1354 19.875 12.1354Z" fill="#220047"/>
<path d="M26.125 13.1354H19.875C19.6161 13.1354 19.4062 13.3452 19.4062 13.6041C19.4062 13.8631 19.6161 14.0729 19.875 14.0729H26.125C26.3839 14.0729 26.5938 13.8631 26.5938 13.6041C26.5938 13.3452 26.3839 13.1354 26.125 13.1354Z" fill="#220047"/>
<path d="M19.875 23.6302H23.4166C23.6756 23.6302 23.8854 23.4204 23.8854 23.1614C23.8854 22.9025 23.6756 22.6927 23.4166 22.6927H19.875C19.6161 22.6927 19.4062 22.9025 19.4062 23.1614C19.4062 23.4204 19.6161 23.6302 19.875 23.6302Z" fill="#220047"/>
<path d="M19.875 25.5676H26.125C26.3839 25.5676 26.5938 25.3578 26.5938 25.0989C26.5938 24.8399 26.3839 24.6301 26.125 24.6301H19.875C19.6161 24.6301 19.4062 24.8399 19.4062 25.0989C19.4062 25.3578 19.6161 25.5676 19.875 25.5676Z" fill="#220047"/>
</svg>
