<svg width="57" height="57" viewBox="0 0 57 57" fill="none" xmlns="http://www.w3.org/2000/svg">
<g filter="url(#filter0_b_9454_22673)">
<rect width="56" height="56" rx="8" fill="#25486D" fill-opacity="0.7"/>
<g filter="url(#filter1_d_9454_22673)">
<circle cx="27.8423" cy="27.8423" r="19.8423" fill="#132742"/>
</g>
<g clip-path="url(#clip0_9454_22673)">
<path d="M27.8003 26.9C25.5303 26.31 24.8003 25.7 24.8003 24.75C24.8003 23.66 25.8103 22.9 27.5003 22.9C29.2803 22.9 29.9403 23.75 30.0003 25H32.2103C32.1403 23.28 31.0903 21.7 29.0003 21.19V19H26.0003V21.16C24.0603 21.58 22.5003 22.84 22.5003 24.77C22.5003 27.08 24.4103 28.23 27.2003 28.9C29.7003 29.5 30.2003 30.38 30.2003 31.31C30.2003 32 29.7103 33.1 27.5003 33.1C25.4403 33.1 24.6303 32.18 24.5203 31H22.3203C22.4403 33.19 24.0803 34.42 26.0003 34.83V37H29.0003V34.85C30.9503 34.48 32.5003 33.35 32.5003 31.3C32.5003 28.46 30.0703 27.49 27.8003 26.9Z" fill="url(#paint0_linear_9454_22673)"/>
</g>
<rect x="0.25" y="0.25" width="55.5" height="55.5" rx="7.75" stroke="url(#paint1_linear_9454_22673)" stroke-width="0.5"/>
</g>
<defs>
<filter id="filter0_b_9454_22673" x="-24" y="-24" width="104" height="104" filterUnits="userSpaceOnUse" color-interpolation-filters="sRGB">
<feFlood flood-opacity="0" result="BackgroundImageFix"/>
<feGaussianBlur in="BackgroundImageFix" stdDeviation="12"/>
<feComposite in2="SourceAlpha" operator="in" result="effect1_backgroundBlur_9454_22673"/>
<feBlend mode="normal" in="SourceGraphic" in2="effect1_backgroundBlur_9454_22673" result="shape"/>
</filter>
<filter id="filter1_d_9454_22673" x="7" y="7" width="49.6836" height="49.6846" filterUnits="userSpaceOnUse" color-interpolation-filters="sRGB">
<feFlood flood-opacity="0" result="BackgroundImageFix"/>
<feColorMatrix in="SourceAlpha" type="matrix" values="0 0 0 0 0 0 0 0 0 0 0 0 0 0 0 0 0 0 127 0" result="hardAlpha"/>
<feMorphology radius="1" operator="dilate" in="SourceAlpha" result="effect1_dropShadow_9454_22673"/>
<feOffset dx="4" dy="4"/>
<feGaussianBlur stdDeviation="2"/>
<feComposite in2="hardAlpha" operator="out"/>
<feColorMatrix type="matrix" values="0 0 0 0 0 0 0 0 0 0 0 0 0 0 0 0 0 0 0.2 0"/>
<feBlend mode="normal" in2="BackgroundImageFix" result="effect1_dropShadow_9454_22673"/>
<feBlend mode="normal" in="SourceGraphic" in2="effect1_dropShadow_9454_22673" result="shape"/>
</filter>
<linearGradient id="paint0_linear_9454_22673" x1="23" y1="19" x2="32.5" y2="37.5" gradientUnits="userSpaceOnUse">
<stop stop-color="#6DF0C2"/>
<stop offset="1" stop-color="#6DF0C2" stop-opacity="0.5"/>
</linearGradient>
<linearGradient id="paint1_linear_9454_22673" x1="-2.07636e-07" y1="13.1327" x2="60.3691" y2="20.5793" gradientUnits="userSpaceOnUse">
<stop stop-color="#6DF0C2" stop-opacity="0.4"/>
<stop offset="0.51532" stop-color="#6DF0C2"/>
<stop offset="1" stop-color="#6DF0C2" stop-opacity="0.4"/>
</linearGradient>
<clipPath id="clip0_9454_22673">
<rect width="24" height="24" fill="white" transform="translate(16 16)"/>
</clipPath>
</defs>
</svg>
