<svg width="34" height="34" viewBox="0 0 34 34" fill="none" xmlns="http://www.w3.org/2000/svg">
<path d="M21.5632 10.9882H19.1224V8.85137C19.1224 8.76847 19.0457 8.70129 18.951 8.70129H15.2138C15.1192 8.70129 15.0424 8.76847 15.0424 8.85137V10.9882H12.6016C12.5069 10.9882 12.4302 11.0554 12.4302 11.1383V14.4101C12.4302 14.493 12.5069 14.5601 12.6016 14.5601H15.0408V16.697C15.0408 16.7799 15.1175 16.8471 15.2122 16.8471H18.9494C19.0441 16.8471 19.1208 16.7799 19.1208 16.697V14.5601H21.5616C21.6563 14.5601 21.733 14.493 21.733 14.4101V11.1383C21.7347 11.0554 21.6579 10.9882 21.5632 10.9882Z" stroke="#220047" stroke-miterlimit="10" stroke-linecap="round"/>
<path d="M17.0001 23.5663C18.3527 23.5663 19.4491 22.6064 19.4491 21.4223C19.4491 20.2382 18.3527 19.2783 17.0001 19.2783C15.6476 19.2783 14.5511 20.2382 14.5511 21.4223C14.5511 22.6064 15.6476 23.5663 17.0001 23.5663Z" stroke="#220047" stroke-miterlimit="10" stroke-linecap="round"/>
<path d="M22.8776 32.9999V26.3464C22.8776 25.5259 22.2703 24.8013 21.3772 24.5554L19.8686 24.1395C19.6744 24.0866 19.4637 24.1352 19.325 24.2638L17.6466 25.8318" stroke="#220047" stroke-miterlimit="10" stroke-linecap="round"/>
<path d="M10.9592 33V26.3464C10.9592 25.526 11.5666 24.8013 12.4596 24.5554L13.9258 24.1524C14.1413 24.0938 14.3747 24.1595 14.5086 24.3182L16.9919 27.2583" stroke="#220047" stroke-miterlimit="10" stroke-linecap="round"/>
<path d="M13.5714 27.7114V30.856" stroke="#220047" stroke-miterlimit="10" stroke-linecap="round"/>
<path d="M20.4286 27.7114V30.856" stroke="#220047" stroke-miterlimit="10" stroke-linecap="round"/>
<path d="M27.1224 20.7077C28.475 20.7077 29.5714 19.7478 29.5714 18.5637C29.5714 17.3796 28.475 16.4197 27.1224 16.4197C25.7699 16.4197 24.6735 17.3796 24.6735 18.5637C24.6735 19.7478 25.7699 20.7077 27.1224 20.7077Z" stroke="#220047" stroke-miterlimit="10" stroke-linecap="round"/>
<path d="M32.9999 30.1413V23.4877C32.9999 22.6673 32.3926 21.9426 31.4995 21.6968L29.991 21.2808C29.7967 21.2279 29.5861 21.2765 29.4473 21.4052L27.7689 22.9732" stroke="#220047" stroke-miterlimit="10" stroke-linecap="round"/>
<path d="M27.0456 24.2425L24.5624 21.3023C24.4285 21.1437 24.1934 21.0765 23.9795 21.1365L21.4081 21.1036" stroke="#220047" stroke-miterlimit="10" stroke-linecap="round"/>
<path d="M30.551 24.8528V27.9973" stroke="#220047" stroke-miterlimit="10" stroke-linecap="round"/>
<path d="M7.04078 20.7077C8.39331 20.7077 9.48976 19.7478 9.48976 18.5637C9.48976 17.3796 8.39331 16.4197 7.04078 16.4197C5.68824 16.4197 4.5918 17.3796 4.5918 18.5637C4.5918 19.7478 5.68824 20.7077 7.04078 20.7077Z" stroke="#220047" stroke-miterlimit="10" stroke-linecap="round"/>
<path d="M1 30.1413V23.4877C1 22.6673 1.60735 21.9426 2.50041 21.6968L4.00898 21.2808C4.20326 21.2279 4.41388 21.2765 4.55265 21.4052L6.23102 22.9732" stroke="#220047" stroke-miterlimit="10" stroke-linecap="round"/>
<path d="M6.90039 24.2424L9.38366 21.3023C9.51753 21.1436 9.75263 21.0765 9.96651 21.1365L12.5902 21.115" stroke="#220047" stroke-miterlimit="10" stroke-linecap="round"/>
<path d="M3.4491 24.8528V27.9973" stroke="#220047" stroke-miterlimit="10" stroke-linecap="round"/>
<path d="M3.95833 15.5264C3.70854 14.6316 3.57629 13.6954 3.57629 12.7334C3.57629 6.25281 9.57629 1 16.9787 1C24.3812 1 30.3812 6.25281 30.3812 12.7334C30.3812 13.6168 30.2702 14.4772 30.0579 15.3034" stroke="#220047" stroke-miterlimit="10" stroke-linecap="round"/>
<path d="M6.16076 14.0713C6.10036 13.6626 6.06934 13.2466 6.06934 12.825C6.06934 7.54928 10.9542 3.27271 16.9804 3.27271C23.0065 3.27271 27.8914 7.54928 27.8914 12.825C27.8914 13.1837 27.8685 13.5396 27.8244 13.8884" stroke="#220047" stroke-miterlimit="10" stroke-linecap="round"/>
</svg>
