<svg width="16" height="16" viewBox="0 0 16 16" fill="none" xmlns="http://www.w3.org/2000/svg">
<path fill-rule="evenodd" clip-rule="evenodd" d="M7.72028 7.95081C6.01719 7.95081 4.63217 6.52444 4.63217 4.77049C4.63217 3.01655 6.01719 1.59017 7.72028 1.59017C9.42338 1.59017 10.8084 3.01655 10.8084 4.77049C10.8084 6.52444 9.42338 7.95081 7.72028 7.95081ZM10.6216 8.48589C11.6762 7.6121 12.3524 6.27318 12.3524 4.77048C12.3524 2.13558 10.2788 0 7.72028 0C5.16178 0 3.08811 2.13558 3.08811 4.77048C3.08811 6.27318 3.76441 7.6121 4.819 8.48589C1.99415 9.57912 0 12.28 0 15.9016H1.54406C1.54406 11.9262 4.31486 9.54096 7.72028 9.54096C11.1257 9.54096 13.8965 11.9262 13.8965 15.9016H15.4406C15.4406 12.28 13.4464 9.57912 10.6216 8.48589Z" />
</svg>
