<svg width="30" height="30" viewBox="0 0 30 30" fill="none" xmlns="http://www.w3.org/2000/svg">
<path d="M12.5 19.375L16.25 20.625C16.25 20.625 25.625 18.75 26.875 18.75C28.125 18.75 28.125 20 26.875 21.25C25.625 22.5 21.25 26.25 17.5 26.25C13.75 26.25 11.25 24.375 8.75 24.375C6.25 24.375 2.5 24.375 2.5 24.375" stroke="#220047" stroke-linecap="round" stroke-linejoin="round"/>
<path d="M2.5 16.875C3.75 15.625 6.25 13.75 8.75 13.75C11.25 13.75 17.1875 16.25 18.125 17.5C19.0625 18.75 16.25 20.625 16.25 20.625" stroke="#220047" stroke-linecap="round" stroke-linejoin="round"/>
<path d="M10 10V5C10 4.30964 10.5596 3.75 11.25 3.75H26.25C26.9404 3.75 27.5 4.30964 27.5 5V15" stroke="#220047" stroke-linecap="round" stroke-linejoin="round"/>
<path d="M21.875 3.75H15.625V9.375H21.875V3.75Z" stroke="#220047" stroke-linecap="round" stroke-linejoin="round"/>
</svg>
