<svg width="20" height="18" viewBox="0 0 20 18" fill="none" xmlns="http://www.w3.org/2000/svg">
<path d="M16.5668 13.975C16.9335 13.3917 17.1502 12.7167 17.1502 11.9833C17.1502 9.90833 15.4752 8.23333 13.4002 8.23333C11.3252 8.23333 9.65016 9.90833 9.65016 11.9833C9.65016 14.0583 11.3252 15.7333 13.3918 15.7333C14.1252 15.7333 14.8085 15.5167 15.3835 15.15L17.9835 17.75L19.1668 16.5667L16.5668 13.975ZM13.4002 14.0667C12.2502 14.0667 11.3168 13.1333 11.3168 11.9833C11.3168 10.8333 12.2502 9.9 13.4002 9.9C14.5502 9.9 15.4835 10.8333 15.4835 11.9833C15.4835 13.1333 14.5502 14.0667 13.4002 14.0667ZM13.1002 6.98333C12.4835 7 11.8918 7.13333 11.3502 7.35833L10.8918 6.66667L7.72516 11.8167L5.21683 8.88333L2.19183 13.725L0.833496 12.75L5.00016 6.08333L7.50016 9L10.8335 3.58333L13.1002 6.98333ZM15.2585 7.4C14.7252 7.16667 14.1502 7.025 13.5502 6.99167L17.8168 0.25L19.1668 1.23333L15.2585 7.4Z" fill="#220047"/>
</svg>
