<svg width="33" height="33" viewBox="0 0 33 33" fill="none" xmlns="http://www.w3.org/2000/svg">
<path d="M16.1577 32.3154C25.0814 32.3154 32.3154 25.0814 32.3154 16.1577C32.3154 7.23405 25.0814 0 16.1577 0C7.23405 0 0 7.23405 0 16.1577C0 25.0814 7.23405 32.3154 16.1577 32.3154Z" fill="#132742"/>
<path d="M16.1577 32.3154C25.0814 32.3154 32.3154 25.0814 32.3154 16.1577C32.3154 7.23405 25.0814 0 16.1577 0C7.23405 0 0 7.23405 0 16.1577C0 25.0814 7.23405 32.3154 16.1577 32.3154Z" fill="#132742"/>
<path d="M25.0529 15.7047C25.0608 15.7557 25.0652 15.7877 25.0654 15.8161C25.0656 15.845 25.0614 15.8779 25.0533 15.9304C25.0527 15.9343 25.0521 15.9384 25.0514 15.9426C25.0443 15.9882 25.0346 16.0506 25.0325 16.1145C24.8697 21.0773 20.815 25.0644 15.8154 25.0644C10.7112 25.0644 6.56543 20.9187 6.56543 15.8145C6.56543 10.7102 10.7112 6.56445 15.8154 6.56445C20.8189 6.56445 24.8759 10.5576 25.0327 15.5258C25.0347 15.5893 25.0444 15.6507 25.0514 15.6954L25.0529 15.7047ZM24.7735 15.8145C24.7735 10.8619 20.768 6.85636 15.8154 6.85636C10.8629 6.85636 6.85734 10.8619 6.85734 15.8145C6.85734 20.767 10.8629 24.7725 15.8154 24.7725C20.768 24.7725 24.7735 20.767 24.7735 15.8145Z" fill="url(#paint0_linear_8055_35643)" stroke="url(#paint1_linear_8055_35643)" stroke-width="0.5"/>
<path opacity="0.2" d="M18.6319 16.9235C18.5805 16.9687 18.5423 17.0269 18.5213 17.092C18.5004 17.1571 18.4974 17.2267 18.5128 17.2933L19.1466 20.0374C19.1633 20.1091 19.1586 20.1841 19.133 20.2531C19.1075 20.3221 19.0621 20.3821 19.0027 20.4255C18.9433 20.4689 18.8724 20.4939 18.7989 20.4973C18.7254 20.5008 18.6525 20.4825 18.5893 20.4448L16.1939 18.9916C16.1357 18.9562 16.0689 18.9375 16.0008 18.9375C15.9327 18.9375 15.8659 18.9562 15.8077 18.9916L13.4124 20.4448C13.3492 20.4825 13.2763 20.5008 13.2028 20.4973C13.1292 20.4939 13.0583 20.4689 12.9989 20.4255C12.9395 20.3821 12.8942 20.3221 12.8686 20.2531C12.843 20.1841 12.8383 20.1091 12.855 20.0374L13.4888 17.2933C13.5042 17.2267 13.5013 17.1571 13.4803 17.092C13.4593 17.0269 13.4211 16.9687 13.3697 16.9235L11.2552 15.079C11.1987 15.0309 11.1576 14.9672 11.1374 14.8958C11.1171 14.8245 11.1184 14.7487 11.1412 14.6781C11.1639 14.6075 11.2072 14.5452 11.2653 14.4992C11.3235 14.4531 11.394 14.4254 11.468 14.4194L14.2552 14.1785C14.3232 14.1724 14.3882 14.1479 14.4433 14.1076C14.4984 14.0673 14.5415 14.0127 14.5678 13.9498L15.6568 11.3548C15.6858 11.2877 15.7339 11.2305 15.795 11.1904C15.8562 11.1503 15.9277 11.1289 16.0008 11.1289C16.0739 11.1289 16.1455 11.1503 16.2066 11.1904C16.2677 11.2305 16.3158 11.2877 16.3449 11.3548L17.4338 13.9498C17.4601 14.0127 17.5032 14.0673 17.5583 14.1076C17.6134 14.1479 17.6784 14.1724 17.7464 14.1785L20.5336 14.4194C20.6076 14.4254 20.6781 14.4531 20.7363 14.4992C20.7945 14.5452 20.8377 14.6075 20.8605 14.6781C20.8832 14.7487 20.8846 14.8245 20.8643 14.8958C20.844 14.9672 20.803 15.0309 20.7464 15.079L18.6319 16.9235Z" fill="url(#paint2_linear_8055_35643)"/>
<path d="M21.2129 14.5604C21.1675 14.4204 21.0819 14.2969 20.9668 14.2052C20.8517 14.1135 20.7121 14.0577 20.5656 14.0448L17.7817 13.8047L16.6904 11.2098C16.6336 11.0736 16.5378 10.9573 16.415 10.8755C16.2922 10.7937 16.1479 10.75 16.0004 10.75C15.8529 10.75 15.7086 10.7937 15.5858 10.8755C15.463 10.9573 15.3672 11.0736 15.3104 11.2098L14.2224 13.8047L11.4352 14.0462C11.2881 14.0585 11.1478 14.1141 11.0321 14.2058C10.9164 14.2976 10.8303 14.4215 10.7847 14.5619C10.7391 14.7024 10.736 14.8532 10.7757 14.9954C10.8155 15.1377 10.8964 15.265 11.0082 15.3615L13.1227 17.2093L12.489 19.9533C12.4555 20.0969 12.465 20.2472 12.5165 20.3854C12.5679 20.5236 12.659 20.6436 12.7782 20.7303C12.8975 20.8171 13.0396 20.8667 13.187 20.8731C13.3343 20.8795 13.4802 20.8423 13.6065 20.7662L15.9971 19.313L18.3929 20.7662C18.5192 20.8423 18.6651 20.8795 18.8124 20.8731C18.9598 20.8667 19.1019 20.8171 19.2212 20.7303C19.3404 20.6436 19.4315 20.5236 19.4829 20.3854C19.5343 20.2472 19.5439 20.0969 19.5104 19.9533L18.8771 17.2065L20.9912 15.3615C21.103 15.2647 21.1837 15.137 21.2232 14.9944C21.2626 14.8519 21.259 14.7009 21.2129 14.5604ZM20.4995 14.7948L18.3854 16.6397C18.2825 16.7293 18.206 16.8451 18.164 16.9749C18.1221 17.1046 18.1163 17.2434 18.1473 17.3762L18.7824 20.1249L16.3885 18.6718C16.2717 18.6007 16.1376 18.563 16.0009 18.563C15.8641 18.563 15.73 18.6007 15.6132 18.6718L13.2226 20.1249L13.8535 17.378C13.8845 17.2452 13.8787 17.1065 13.8368 16.9767C13.7948 16.847 13.7183 16.7311 13.6154 16.6416L11.5004 14.7976V14.7933L14.2867 14.5524C14.4227 14.5404 14.5529 14.4915 14.6631 14.411C14.7734 14.3304 14.8596 14.2213 14.9124 14.0954L16.0004 11.5037L17.0879 14.0954C17.1407 14.2213 17.2269 14.3304 17.3372 14.411C17.4475 14.4915 17.5777 14.5404 17.7137 14.5524L20.5004 14.7933V14.7966L20.4995 14.7948Z" fill="url(#paint3_linear_8055_35643)"/>
<defs>
<linearGradient id="paint0_linear_8055_35643" x1="6.31543" y1="6.31445" x2="27.7884" y2="23.1764" gradientUnits="userSpaceOnUse">
<stop stop-color="#6DF0C2" stop-opacity="0.8"/>
<stop offset="1" stop-color="#6DF0C2" stop-opacity="0.3"/>
</linearGradient>
<linearGradient id="paint1_linear_8055_35643" x1="6.31543" y1="10.7702" x2="26.7978" y2="13.2967" gradientUnits="userSpaceOnUse">
<stop stop-color="#6DF0C2" stop-opacity="0.4"/>
<stop offset="0.51532" stop-color="#6DF0C2"/>
<stop offset="1" stop-color="#6DF0C2" stop-opacity="0.4"/>
</linearGradient>
<linearGradient id="paint2_linear_8055_35643" x1="12.286" y1="12.2857" x2="21.0775" y2="21.1101" gradientUnits="userSpaceOnUse">
<stop stop-color="#6DF0C2" stop-opacity="0.8"/>
<stop offset="1" stop-color="#6DF0C2" stop-opacity="0.3"/>
</linearGradient>
<linearGradient id="paint3_linear_8055_35643" x1="12" y1="12" x2="21.5" y2="21.5" gradientUnits="userSpaceOnUse">
<stop stop-color="#6DF0C2" stop-opacity="0.8"/>
<stop offset="1" stop-color="#6DF0C2" stop-opacity="0.3"/>
</linearGradient>
</defs>
</svg>
