<svg width="20" height="20" viewBox="0 0 20 20" fill="none" xmlns="http://www.w3.org/2000/svg">
<path d="M16.3869 3.58359C16.051 3.24989 15.5085 3.24989 15.1726 3.58359L7.86975 10.8482L4.82115 7.81911C4.48529 7.48541 3.94274 7.48541 3.60688 7.81911C3.27101 8.15282 3.27101 8.69189 3.60688 9.0256L7.25831 12.6536C7.59417 12.9873 8.13672 12.9873 8.47259 12.6536L16.3869 4.79008C16.7314 4.45637 16.7314 3.9173 16.3869 3.58359Z" />
<path d="M4.82945 16.6666H15.1637C15.6374 16.6666 16.0249 16.2816 16.0249 15.811C16.0249 15.3404 15.6374 14.9553 15.1637 14.9553H4.82945C4.3558 14.9553 3.96826 15.3404 3.96826 15.811C3.96826 16.2816 4.3558 16.6666 4.82945 16.6666Z" />
</svg>
