<svg width="300" height="300" viewBox="0 0 300 300" fill="none" xmlns="http://www.w3.org/2000/svg">
<mask id="mask0_6757_10463" style="mask-type:luminance" maskUnits="userSpaceOnUse" x="0" y="0" width="300" height="300">
<path d="M300 0H0V300H300V0Z" fill="white"/>
</mask>
<g mask="url(#mask0_6757_10463)">
<path d="M150 269C216.274 269 270 215.274 270 149C270 82.726 216.274 29 150 29C83.726 29 30 82.726 30 149C30 215.274 83.726 269 150 269Z" fill="url(#paint0_linear_6757_10463)"/>
<path d="M105 63.5557H197.537C206.374 63.5557 213.537 70.7187 213.537 79.5557V202.585C213.537 211.422 206.374 218.585 197.537 218.585H105C96.163 218.585 89 211.422 89 202.585V79.5557C89 70.7187 96.163 63.5557 105 63.5557Z" fill="url(#paint1_linear_6757_10463)"/>
<path d="M104.9 83.5557H145.1C147.806 83.5557 150 85.7497 150 88.4557C150 91.1617 147.806 93.3557 145.1 93.3557H104.9C102.194 93.3557 100 91.1617 100 88.4557C100 85.7497 102.194 83.5557 104.9 83.5557Z" fill="#220047"/>
<path d="M104.9 111.356H195.1C197.806 111.356 200 113.55 200 116.256C200 118.962 197.806 121.156 195.1 121.156H104.9C102.194 121.156 100 118.962 100 116.256C100 113.55 102.194 111.356 104.9 111.356Z" fill="#E2E2E2"/>
<path d="M104.9 139.156H195.1C197.806 139.156 200 141.35 200 144.056C200 146.762 197.806 148.956 195.1 148.956H104.9C102.194 148.956 100 146.762 100 144.056C100 141.35 102.194 139.156 104.9 139.156Z" fill="#E2E2E2"/>
<path d="M104.9 166.956H195.1C197.806 166.956 200 169.15 200 171.856C200 174.562 197.806 176.756 195.1 176.756H104.9C102.194 176.756 100 174.562 100 171.856C100 169.15 102.194 166.956 104.9 166.956Z" fill="#E2E2E2"/>
<path d="M104.9 194.756H195.1C197.806 194.756 200 196.95 200 199.656C200 202.362 197.806 204.556 195.1 204.556H104.9C102.194 204.556 100 202.362 100 199.656C100 196.95 102.194 194.756 104.9 194.756Z" fill="#E2E2E2"/>
<path d="M288.15 46.4238H228.069C225.27 46.4238 223 48.8118 223 51.7588V81.4778C223 84.4238 225.27 86.8128 228.069 86.8128H288.15C290.95 86.8128 293.219 84.4238 293.219 81.4778V51.7588C293.219 48.8118 290.95 46.4238 288.15 46.4238Z" fill="white"/>
<path d="M238 73C241.314 73 244 70.314 244 67C244 63.686 241.314 61 238 61C234.686 61 232 63.686 232 67C232 70.314 234.686 73 238 73Z" fill="#CCC6D9"/>
<path d="M258 61H278C281.314 61 284 63.686 284 67C284 70.314 281.314 73 278 73H258C254.686 73 252 70.314 252 67C252 63.686 254.686 61 258 61Z" fill="#E2E2E2"/>
<path fill-rule="evenodd" clip-rule="evenodd" d="M185.109 225.563C197.988 225.563 209.958 221.667 219.904 214.989L260.603 253.841L275.364 236.716L236.091 199.226C243.344 189.018 247.609 176.539 247.609 163.063C247.609 128.546 219.626 100.563 185.109 100.563C150.591 100.563 122.609 128.546 122.609 163.063C122.609 197.581 150.591 225.563 185.109 225.563ZM238.418 163.063C238.418 192.287 214.727 215.977 185.504 215.977C156.281 215.977 132.591 192.287 132.591 163.063C132.591 133.84 156.281 110.15 185.504 110.15C214.727 110.15 238.418 133.84 238.418 163.063Z" fill="#CCC6D9"/>
<path d="M185.5 217C215.6 217 240 192.823 240 163C240 133.177 215.6 109 185.5 109C155.4 109 131 133.177 131 163C131 192.823 155.4 217 185.5 217Z" fill="white" fill-opacity="0.3"/>
<path d="M194.923 163L208.112 149.862C209.348 148.562 210.025 146.835 209.999 145.047C209.974 143.259 209.248 141.552 207.976 140.287C206.704 139.023 204.986 138.301 203.187 138.276C201.388 138.251 199.65 138.923 198.342 140.151L185.124 153.289L171.935 140.151C171.3 139.484 170.537 138.95 169.691 138.58C168.845 138.211 167.933 138.014 167.009 138.001C166.085 137.988 165.168 138.159 164.312 138.504C163.456 138.85 162.678 139.362 162.024 140.012C161.371 140.661 160.855 141.434 160.508 142.285C160.16 143.136 159.988 144.048 160.001 144.967C160.014 145.885 160.212 146.791 160.584 147.632C160.955 148.473 161.493 149.231 162.165 149.862L175.376 163L162.165 176.138C161.493 176.769 160.955 177.527 160.584 178.368C160.212 179.209 160.014 180.115 160.001 181.033C159.988 181.952 160.16 182.863 160.508 183.715C160.855 184.566 161.371 185.339 162.024 185.988C162.678 186.637 163.456 187.15 164.312 187.496C165.168 187.841 166.085 188.012 167.009 187.999C167.933 187.986 168.845 187.789 169.691 187.42C170.537 187.05 171.3 186.516 171.935 185.849L185.153 172.711L198.372 185.849C199.692 187.004 201.405 187.616 203.164 187.559C204.922 187.503 206.592 186.782 207.834 185.544C209.076 184.305 209.796 182.643 209.848 180.896C209.9 179.148 209.279 177.446 208.112 176.138L194.923 163Z" fill="#220047"/>
<path d="M260.602 253.843L275.363 236.717L277.586 238.84C279.743 240.899 281.034 243.775 281.176 246.837C281.318 249.898 280.298 252.893 278.342 255.163C276.385 257.433 273.652 258.792 270.743 258.941C267.834 259.09 264.988 258.017 262.831 255.958L260.608 253.836L260.602 253.843Z" fill="#E1DCEB"/>
<path fill-rule="evenodd" clip-rule="evenodd" d="M56.3135 91.1718C56.2955 89.7458 56.1165 88.3068 55.7585 86.8588C54.5035 81.7768 48.9055 78.5138 42.9475 77.7468C36.9925 76.9798 30.7985 78.7258 28.4115 83.1468C27.0465 85.6738 26.8585 87.8518 27.4165 89.6888C27.9715 91.5158 29.2895 93.0298 31.0785 94.2108C36.0665 97.4978 44.8025 98.1688 48.7885 96.7948C50.6315 96.1578 52.4325 95.3908 54.1855 94.5128C53.1835 100.259 49.4475 105.702 44.4615 110.607C33.6255 121.268 16.8115 129.36 7.6545 132.335C7.1625 132.495 6.8895 133.04 7.0425 133.554C7.1955 134.068 7.7185 134.356 8.2105 134.196C17.5485 131.162 34.6905 122.898 45.7405 112.026C51.4495 106.411 55.5165 100.089 56.2115 93.4428C69.1165 86.2418 79.7135 73.1768 88.7745 62.1808C89.1115 61.7758 89.0665 61.1588 88.6755 60.8068C88.2845 60.4578 87.6965 60.5018 87.3595 60.9098C78.6675 71.4558 68.5805 83.9998 56.3135 91.1718ZM54.4375 92.2168C54.5085 90.6138 54.3575 88.9858 53.9505 87.3438C52.8655 82.9448 47.8775 80.3438 42.7195 79.6798C39.5585 79.2738 36.3075 79.6088 33.7575 80.7988C32.1545 81.5458 30.8345 82.6298 30.0385 84.1048C28.9935 86.0398 28.7675 87.6948 29.1955 89.0988C29.6245 90.5128 30.6885 91.6488 32.0745 92.5608C36.6205 95.5578 44.5745 96.1948 48.2025 94.9428C50.3415 94.2058 52.4185 93.2858 54.4375 92.2168Z" fill="#220047"/>
<path d="M285 190C288.314 190 291 187.314 291 184C291 180.686 288.314 178 285 178C281.686 178 279 180.686 279 184C279 187.314 281.686 190 285 190Z" fill="#FF8A8A"/>
<path fill-rule="evenodd" clip-rule="evenodd" d="M58.3839 225.394C59.4549 224.993 60.5819 224.459 61.4509 223.686C62.4829 222.769 62.903 221.587 63.184 220.343C63.546 218.744 63.691 217.042 64.13 215.441C64.292 214.846 64.6049 214.621 64.7389 214.522C65.0779 214.27 65.4209 214.202 65.7429 214.228C66.1249 214.257 66.6499 214.409 66.9959 215.083C67.0449 215.18 67.1089 215.327 67.1519 215.528C67.1829 215.676 67.2039 216.137 67.2369 216.328C67.3199 216.797 67.3889 217.266 67.4549 217.737C67.6719 219.306 67.7969 220.639 68.4829 222.081C69.4139 224.038 70.3469 225.235 71.6119 225.766C72.8359 226.279 74.298 226.182 76.167 225.78C76.345 225.735 76.521 225.696 76.695 225.664C77.519 225.513 78.3069 226.082 78.4689 226.946C78.6309 227.809 78.1069 228.65 77.2899 228.84C77.1199 228.88 76.9519 228.917 76.7859 228.952C74.2599 229.61 71.3359 231.958 69.6369 234.014C69.1139 234.648 68.3469 236.421 67.5649 237.551C66.9879 238.386 66.339 238.935 65.794 239.13C65.429 239.261 65.1219 239.24 64.8679 239.174C64.4979 239.079 64.1919 238.868 63.9569 238.533C63.8289 238.35 63.7099 238.105 63.6529 237.791C63.6259 237.64 63.6229 237.257 63.6239 237.083C63.4639 236.506 63.2689 235.943 63.1269 235.361C62.7879 233.971 62.1229 233.092 61.3329 231.93C60.5939 230.843 59.7999 230.159 58.6359 229.614C58.4849 229.575 57.2629 229.26 56.8319 229.08C56.2019 228.815 55.901 228.371 55.792 228.132C55.607 227.727 55.5879 227.373 55.6249 227.077C55.6799 226.641 55.8659 226.268 56.1959 225.967C56.3999 225.78 56.7049 225.598 57.1139 225.509C57.4289 225.44 58.2669 225.4 58.3839 225.394ZM65.5509 223.13C65.6069 223.263 65.6679 223.396 65.7319 223.531C67.0949 226.397 68.6199 227.998 70.4739 228.774L70.5359 228.799C69.2959 229.768 68.1729 230.851 67.3159 231.889C66.9619 232.317 66.4949 233.205 65.9889 234.115C65.5299 232.545 64.7799 231.435 63.8359 230.045C63.1139 228.985 62.3589 228.187 61.4299 227.537C62.1509 227.148 62.8379 226.692 63.4369 226.16C64.4339 225.273 65.0929 224.246 65.5509 223.13Z" fill="#FF8A8A"/>
</g>
<defs>
<linearGradient id="paint0_linear_6757_10463" x1="149.072" y1="-10.0749" x2="151.53" y2="411.347" gradientUnits="userSpaceOnUse">
<stop stop-color="#BF99BD" stop-opacity="0.07"/>
<stop offset="1" stop-color="#EFEFEF"/>
</linearGradient>
<linearGradient id="paint1_linear_6757_10463" x1="151.268" y1="63.5557" x2="151.268" y2="218.585" gradientUnits="userSpaceOnUse">
<stop stop-color="white"/>
<stop offset="0.7188" stop-color="#FAFAFA"/>
</linearGradient>
</defs>
</svg>
