<?xml version="1.0"?>
<svg xmlns="http://www.w3.org/2000/svg" xmlns:xlink="http://www.w3.org/1999/xlink" version="1.1" viewBox="0 0 96 96" style="enable-background:new 0 0 512 512" xml:space="preserve"><g><g xmlns="http://www.w3.org/2000/svg" id="Layer_20" data-name="Layer 20"><path d="m51.76 31.44a13.69 13.69 0 1 1 -19.36 0 13.38 13.38 0 0 1 3.4-2.44 1 1 0 0 1 1.35.43 1 1 0 0 1 -.44 1.34 11.86 11.86 0 0 0 -2.9 2.13 11.7 11.7 0 1 0 12.83-2.5 1 1 0 1 1 .78-1.84 13.6 13.6 0 0 1 4.34 2.88zm-15.34 8.78-.46.46a2.08 2.08 0 0 0 0 2.94l.89.89-1.06 1.06a1 1 0 0 0 0 1.41 1 1 0 0 0 .7.29 1 1 0 0 0 .71-.27l1.06-1.06.89.89a2.1 2.1 0 0 0 2.94 0l2.46-2.46a2.2 2.2 0 0 0 0-3.1l-3-3a.18.18 0 0 1 0-.27l2.1-2.1h.12l3.15 3.1v.12l-.35.35a1 1 0 0 0 1.43 1.44l.36-.35a2.08 2.08 0 0 0 .64-1.47 2.11 2.11 0 0 0 -.61-1.48l-.89-.88 1.09-1.09a1 1 0 0 0 0-1.42 1 1 0 0 0 -1.41 0l-1.18 1.1-.88-.89a2.14 2.14 0 0 0 -2.95 0l-2.07 2.11a2.19 2.19 0 0 0 0 3.09l3 3a.19.19 0 0 1 0 .26l-2.46 2.46a.09.09 0 0 1 -.12 0l-3.18-3.18a.08.08 0 0 1 0-.12l.45-.46a1 1 0 1 0 -1.41-1.41zm5-10.61a1 1 0 0 0 .71-.29 1 1 0 1 0 -1.42 0 1 1 0 0 0 .72.29zm42.67-22.46-11.34 11.35a12 12 0 0 1 .47 3.55l-.22 12.24a4.16 4.16 0 0 1 -1 2.59l2.4 2.49a4.2 4.2 0 0 1 1.17 2.93v48a4.22 4.22 0 0 1 -4.22 4.22h-27.81a4.23 4.23 0 0 1 -4.23-4.22v-20.69l-1.5 1.5a4.21 4.21 0 0 1 -6 0l-19.63-19.66a4.21 4.21 0 0 1 0-6l33.92-33.9a4.23 4.23 0 0 1 2.9-1.23l12.24-.25a11.68 11.68 0 0 1 7.76 2.77l10.41-10.37a3.39 3.39 0 0 1 4.68 0 3.31 3.31 0 0 1 0 4.68zm-13.77 28.62a2.18 2.18 0 0 0 .68-1.52l.22-12.25a9.71 9.71 0 0 0 -2.22-6.33l-2.72 2.72a4.33 4.33 0 1 1 -1.38-1.39l2.72-2.73a9.64 9.64 0 0 0 -6.34-2.18l-12.28.23a2.18 2.18 0 0 0 -1.52.65l-33.89 33.93a2.22 2.22 0 0 0 0 3.14l19.66 19.66a2.22 2.22 0 0 0 3.14 0zm-5.49-15.89-1.23 1.23a1 1 0 0 1 -.71.29 1 1 0 0 1 -.71-.29 1 1 0 0 1 0-1.42l1.23-1.22a2.22 2.22 0 0 0 -.76-.14 2.32 2.32 0 1 0 2.35 2.31 2.43 2.43 0 0 0 -.17-.76zm8.11 20.88-2.34-2.44-29.29 29.29v22.67a2.23 2.23 0 0 0 2.23 2.22h27.8a2.22 2.22 0 0 0 2.22-2.22v-48a2.2 2.2 0 0 0 -.62-1.52zm9.74-36.88a1.36 1.36 0 0 0 -1.86 0l-10.37 10.37a11.72 11.72 0 0 1 1.49 2.23l10.74-10.74a1.32 1.32 0 0 0 0-1.86zm-12.87 81.69a3 3 0 0 1 -3 3h-18.75a3 3 0 0 1 0-6h18.75a3 3 0 0 1 3 3zm-2 0a1 1 0 0 0 -1-1h-18.75a1 1 0 0 0 0 2h18.75a1 1 0 0 0 1-1zm-22.75-17.57a3 3 0 0 1 3-3h9.13a3 3 0 0 1 0 6h-9.13a3 3 0 0 1 -3-3zm2 0a1 1 0 0 0 1 1h9.13a1 1 0 0 0 0-2h-9.13a1 1 0 0 0 -1 1zm22.75 0a3 3 0 0 1 -3 3h-1.18a3 3 0 1 1 0-6h1.18a3 3 0 0 1 3 3zm-2 0a1 1 0 0 0 -1-1h-1.18a1 1 0 0 0 0 2h1.18a1 1 0 0 0 1-1zm-22.75 8.79a3 3 0 0 1 3-3h3a3 3 0 0 1 0 6h-3a3 3 0 0 1 -3-3zm2 0a1 1 0 0 0 1 1h3a1 1 0 0 0 0-2h-3a1 1 0 0 0 -1 1zm22.75 0a3 3 0 0 1 -3 3h-7.87a3 3 0 0 1 0-6h7.87a3 3 0 0 1 3 3zm-2 0a1 1 0 0 0 -1-1h-7.87a1 1 0 0 0 0 2h7.87a1 1 0 0 0 1-1z" data-original="#000000" style=""/></g><script/></g></svg>
