<svg width="32" height="32" viewBox="0 0 32 32" fill="none" xmlns="http://www.w3.org/2000/svg">
<g clip-path="url(#clip0_74_351)">
<path d="M8.5744 20.3209V19.784C8.5744 19.6114 8.71434 19.4715 8.8869 19.4715C9.05946 19.4715 9.1994 19.6114 9.1994 19.784V20.3209C9.1994 20.4935 9.05946 20.6334 8.8869 20.6334C8.71434 20.6334 8.5744 20.4935 8.5744 20.3209ZM31.6154 24.2878C31.6154 28.0842 28.5268 31.1728 24.7304 31.1728C21.9453 31.1728 19.5412 29.5105 18.4579 27.1259H0.696777C0.524215 27.1259 0.384277 26.986 0.384277 26.8134V25.1916C0.384277 25.019 0.524215 24.8791 0.696777 24.8791H1.67253V12.3615C0.913465 12.0152 0.384277 11.2497 0.384277 10.3624V9.07209C0.384277 9.01727 0.398715 8.96334 0.426152 8.91584L5.00596 0.983398C5.06178 0.886711 5.16496 0.827148 5.27659 0.827148H22.492C22.6036 0.827148 22.7068 0.886711 22.7626 0.983398L27.3424 8.91577C27.3698 8.96327 27.3843 9.01721 27.3843 9.07202V10.3623C27.3843 11.2496 26.8551 12.0152 26.096 12.3614V17.5391C29.2405 18.1743 31.6154 20.9588 31.6154 24.2878ZM26.7593 10.3623V9.38452H23.6164V10.3623C23.6164 11.2288 24.3213 11.9338 25.1878 11.9338C26.0543 11.9338 26.7593 11.2288 26.7593 10.3623ZM23.009 2.66027H20.9977L23.513 8.75952H26.5305L23.009 2.66027ZM18.2714 2.66027L19.7807 8.75952H22.837L20.3217 2.66027H18.2714ZM15.5529 2.66027L16.056 8.75952H19.1368L17.6275 2.66027H15.5529ZM12.8427 2.66027L12.3397 8.75952H15.4288L14.9258 2.66027H12.8427ZM12.2156 2.66027H10.1409L8.63165 8.75952H11.7125L12.2156 2.66027ZM9.49709 2.66027H7.44684L4.93153 8.75952H7.9879L9.49709 2.66027ZM6.77078 2.66027H4.75946L1.23809 8.75952H4.25553L6.77078 2.66027ZM4.77709 10.3623C4.77709 11.2288 5.48203 11.9338 6.34853 11.9338C7.21503 11.9338 7.91996 11.2288 7.91996 10.3623V9.38452H4.77709V10.3623ZM8.54496 10.3623C8.54496 11.2288 9.2499 11.9338 10.1164 11.9338C10.9829 11.9338 11.6878 11.2288 11.6878 10.3623V9.38452H8.54496V10.3623ZM12.3128 10.3623C12.3128 11.2288 13.0178 11.9338 13.8843 11.9338C14.7508 11.9338 15.4557 11.2288 15.4557 10.3623V9.38452H12.3128V10.3623ZM16.0807 10.3623C16.0807 11.2288 16.7857 11.9338 17.6522 11.9338C18.5187 11.9338 19.2236 11.2288 19.2236 10.3623V9.38452H16.0808L16.0807 10.3623ZM19.8485 10.3623C19.8485 11.2288 20.5535 11.9338 21.42 11.9338C22.2865 11.9338 22.9914 11.2288 22.9914 10.3623V9.38452H19.8485V10.3623ZM5.12034 2.03527H22.6482L22.3116 1.45215H5.45696L5.12034 2.03527ZM2.58071 11.9338C3.44721 11.9338 4.15215 11.2288 4.15215 10.3623V9.38452H1.00928V10.3623C1.00928 11.2288 1.71421 11.9338 2.58071 11.9338ZM2.29753 24.8791H4.06828V15.0668C4.06828 14.8942 4.20821 14.7543 4.38078 14.7543H10.0614C10.234 14.7543 10.3739 14.8942 10.3739 15.0668V24.8791H17.8712C17.8545 24.6841 17.8455 24.487 17.8455 24.2878C17.8455 23.5221 17.9713 22.7853 18.203 22.0968H12.278C12.1055 22.0968 11.9655 21.9569 11.9655 21.7843V15.0668C11.9655 14.8942 12.1055 14.7543 12.278 14.7543H23.3878C23.5603 14.7543 23.7003 14.8942 23.7003 15.0668V17.48C24.0364 17.4293 24.3803 17.4029 24.7304 17.4029C24.9806 17.4029 25.2276 17.4167 25.471 17.4428V12.54C25.3782 12.552 25.2838 12.5588 25.1878 12.5588C24.3889 12.5588 23.6883 12.1301 23.3038 11.4906C22.9195 12.1301 22.2188 12.5588 21.4199 12.5588C20.621 12.5588 19.9203 12.1301 19.536 11.4906C19.1516 12.1301 18.4509 12.5588 17.652 12.5588C16.8532 12.5588 16.1525 12.1301 15.7681 11.4906C15.3837 12.1301 14.683 12.5588 13.8842 12.5588C13.0853 12.5588 12.3846 12.1301 12.0002 11.4906C11.6158 12.1301 10.9152 12.5588 10.1163 12.5588C9.3174 12.5588 8.61671 12.1301 8.23234 11.4906C7.84796 12.1301 7.14728 12.5588 6.3484 12.5588C5.54953 12.5588 4.84884 12.1301 4.46446 11.4906C4.08009 12.1301 3.3794 12.5588 2.58053 12.5588C2.48453 12.5588 2.39015 12.552 2.29734 12.54L2.29753 24.8791ZM23.0753 17.6045V15.3793H12.5905V21.4718H18.4481C19.3063 19.5648 21.0082 18.1166 23.0753 17.6045ZM9.74884 15.3793H4.69321V24.8791H9.74884V15.3793ZM18.2103 26.5009C18.1007 26.1786 18.0142 25.8457 17.953 25.5041H1.00928V26.5009H18.2103ZM30.9904 24.2878C30.9904 20.836 28.1822 18.0278 24.7304 18.0278C21.2786 18.0278 18.4704 20.836 18.4704 24.2878C18.4704 27.7396 21.2787 30.5478 24.7304 30.5478C28.1822 30.5478 30.9904 27.7396 30.9904 24.2878ZM29.0928 21.7641C29.1513 21.8475 29.1656 21.954 29.131 22.0498L27.7403 25.907C27.6957 26.0308 27.5781 26.1135 27.4463 26.1135H23.1956C22.95 26.1135 22.7502 26.3133 22.7502 26.559C22.7502 26.8046 22.95 27.0043 23.1956 27.0043H23.2068C23.335 26.6529 23.6715 26.4008 24.0668 26.4008C24.462 26.4008 24.7985 26.6529 24.9267 27.0043H25.6602C25.7884 26.6529 26.125 26.4008 26.5202 26.4008C27.0252 26.4008 27.4361 26.8118 27.4361 27.3168C27.4361 27.8219 27.0252 28.2328 26.5202 28.2328C26.125 28.2328 25.7884 27.9807 25.6602 27.6293H24.9267C24.7985 27.9808 24.462 28.2328 24.0668 28.2328C23.6716 28.2328 23.335 27.9807 23.2068 27.6293H23.1956C22.6054 27.6293 22.1252 27.1491 22.1252 26.559C22.1252 26.1052 22.4095 25.7175 22.8088 25.562L21.5878 20.9679H20.6237C20.4512 20.9679 20.3112 20.828 20.3112 20.6554C20.3112 20.4828 20.4512 20.3429 20.6237 20.3429H21.8281C21.9698 20.3429 22.0937 20.4382 22.1301 20.5751L22.4108 21.6313H28.8372C28.9389 21.6313 29.0343 21.6808 29.0928 21.7641ZM26.2292 27.3168C26.2292 27.4773 26.3597 27.6078 26.5202 27.6078C26.6806 27.6078 26.8111 27.4773 26.8111 27.3168C26.8111 27.1564 26.6806 27.0258 26.5202 27.0258C26.3597 27.0258 26.2292 27.1564 26.2292 27.3168ZM23.7758 27.3168C23.7758 27.4773 23.9063 27.6078 24.0668 27.6078C24.2273 27.6078 24.3577 27.4773 24.3577 27.3168C24.3577 27.1564 24.2272 27.0258 24.0668 27.0258C23.9063 27.0258 23.7758 27.1564 23.7758 27.3168ZM28.3922 22.2563H22.5769L23.436 25.4885H27.2269L28.3922 22.2563Z" fill="#220047"/>
</g>
<defs>
<clipPath id="clip0_74_351">
<rect width="32" height="32" fill="white"/>
</clipPath>
</defs>
</svg>
