<svg width="32" height="32" viewBox="0 0 32 32" fill="none" xmlns="http://www.w3.org/2000/svg">
<path d="M28.7992 13.584C27.9032 16.232 26.9992 18.872 26.1032 21.52C25.6712 22.784 24.7512 23.448 23.4152 23.448C20.2712 23.448 17.1352 23.448 13.9912 23.448C12.6312 23.448 11.6632 22.72 11.2872 21.408C10.1752 17.528 9.06315 13.656 7.95115 9.77598C7.71915 8.95998 7.15916 8.52798 6.30316 8.52798C5.48716 8.52798 4.67116 8.52798 3.85516 8.52798C3.69516 8.52798 3.49515 8.47198 3.37515 8.37598C3.06315 8.11998 3.19115 7.62398 3.57515 7.49598C3.62315 7.47998 3.67116 7.46398 3.71916 7.46398C4.71116 7.46398 5.70315 7.42398 6.68715 7.50398C7.79115 7.59198 8.54316 8.23998 8.90316 9.28798C9.15116 10.016 9.34315 10.768 9.55115 11.512C9.59915 11.68 9.66316 11.736 9.83916 11.736C10.6312 11.728 11.4232 11.736 12.2152 11.736C12.5832 11.736 12.8232 11.984 12.7912 12.304C12.7672 12.592 12.5352 12.792 12.1992 12.792C11.5352 12.792 10.8632 12.792 10.1992 12.792C10.1192 12.792 10.0312 12.792 9.91916 12.792C10.0392 13.208 10.1432 13.6 10.2552 13.984C10.9352 16.352 11.6152 18.72 12.2872 21.08C12.5432 21.968 13.0952 22.384 14.0232 22.384C17.1512 22.384 20.2712 22.384 23.3992 22.384C24.2632 22.384 24.8072 21.992 25.0872 21.176C25.9352 18.68 26.7832 16.184 27.6312 13.688C27.6712 13.56 27.7032 13.432 27.7272 13.304C27.7752 13.016 27.9192 12.84 28.1672 12.8C28.3912 12.76 28.6072 12.872 28.7432 13.104C28.7592 13.136 28.7752 13.16 28.7912 13.192V13.592L28.7992 13.584Z" fill="#220047"/>
<path d="M28.7992 7.33601C28.7592 7.50401 28.7272 7.68001 28.6872 7.84801C28.5192 8.49601 28.1992 9.06401 27.7272 9.54401C25.5832 11.688 23.4472 13.84 21.2952 15.976C19.8312 17.432 17.4872 17.416 16.0312 15.96C14.5752 14.504 14.5592 12.168 16.0152 10.704C18.1512 8.55201 20.2952 6.40801 22.4472 4.27201C23.0152 3.70401 23.7112 3.36001 24.5112 3.24001C24.5592 3.24001 24.6072 3.20801 24.6552 3.20001C24.9352 3.20001 25.2232 3.20001 25.5032 3.20001C25.5512 3.21601 25.5912 3.24001 25.6392 3.24801C27.1992 3.54401 28.2072 4.45601 28.6712 5.97601C28.7272 6.15201 28.7592 6.32801 28.7992 6.50401V7.35201V7.33601ZM20.3992 7.87201C21.6392 9.10401 22.8872 10.352 24.0952 11.56C25.1032 10.576 26.1752 9.63201 27.1272 8.57601C28.0552 7.55201 27.9112 5.95201 26.9192 5.00001C25.9192 4.04001 24.3432 3.96001 23.3352 4.90401C22.3192 5.85601 21.3752 6.87201 20.3992 7.87201ZM19.5672 8.64001C18.6872 9.52001 17.7992 10.408 16.9112 11.296C16.8232 11.384 16.7352 11.472 16.6552 11.568C16.0232 12.328 15.8312 13.192 16.1352 14.136C16.7512 16.032 19.0952 16.6 20.5432 15.192C21.4632 14.304 22.3592 13.384 23.2632 12.472C23.2952 12.44 23.3192 12.408 23.3272 12.4C22.0712 11.144 20.8232 9.89601 19.5592 8.63201L19.5672 8.64001Z" fill="#220047"/>
<path d="M22.3993 24.52C23.5753 24.52 24.5273 25.464 24.5353 26.64C24.5353 27.816 23.5673 28.784 22.3913 28.776C21.2233 28.776 20.2633 27.8 20.2713 26.64C20.2713 25.464 21.2313 24.52 22.4073 24.52H22.3993ZM23.4633 26.656C23.4633 26.064 22.9993 25.584 22.4153 25.576C21.8233 25.576 21.3513 26.04 21.3433 26.632C21.3433 27.224 21.7993 27.704 22.3913 27.712C22.9753 27.72 23.4553 27.248 23.4633 26.656Z" fill="#220047"/>
<path d="M14.9272 24.52C16.1112 24.52 17.0552 25.456 17.0632 26.64C17.0632 27.816 16.1272 28.776 14.9512 28.784C13.7672 28.784 12.7992 27.832 12.7992 26.648C12.7992 25.472 13.7512 24.528 14.9272 24.52ZM15.9992 26.648C15.9992 26.064 15.5192 25.584 14.9352 25.576C14.3512 25.576 13.8632 26.056 13.8632 26.64C13.8632 27.216 14.3512 27.712 14.9272 27.712C15.5032 27.712 15.9992 27.232 15.9992 26.648Z" fill="#220047"/>
</svg>
