<svg width="32" height="32" viewBox="0 0 32 32" fill="none" xmlns="http://www.w3.org/2000/svg">
<path d="M21.3125 13.6875H26.5625C26.662 13.6875 26.7573 13.648 26.8277 13.5777C26.898 13.5073 26.9375 13.412 26.9375 13.3125V11.875C26.9375 11.7755 26.898 11.6802 26.8277 11.6098C26.7573 11.5395 26.662 11.5 26.5625 11.5H21.3125C21.213 11.5 21.1177 11.5395 21.0473 11.6098C20.977 11.6802 20.9375 11.7755 20.9375 11.875V13.3125C20.9375 13.412 20.977 13.5073 21.0473 13.5777C21.1177 13.648 21.213 13.6875 21.3125 13.6875ZM23.5 12.25H26.1875V12.9375H23.5V12.25ZM21.6875 12.25H22.75V12.9375H21.6875V12.25Z" fill="#220047"/>
<path d="M21.3125 16.8125H28.4375C28.537 16.8125 28.6323 16.773 28.7027 16.7027C28.773 16.6323 28.8125 16.537 28.8125 16.4375V15C28.8125 14.9005 28.773 14.8052 28.7027 14.7348C28.6323 14.6645 28.537 14.625 28.4375 14.625H21.3125C21.213 14.625 21.1177 14.6645 21.0473 14.7348C20.977 14.8052 20.9375 14.9005 20.9375 15V16.4375C20.9375 16.537 20.977 16.6323 21.0473 16.7027C21.1177 16.773 21.213 16.8125 21.3125 16.8125ZM23.5 15.375H28.0625V16.0625H23.5V15.375ZM21.6875 15.375H22.75V16.0625H21.6875V15.375Z" fill="#220047"/>
<path d="M21.3125 19.9375H26.5625C26.662 19.9375 26.7573 19.898 26.8277 19.8277C26.898 19.7573 26.9375 19.662 26.9375 19.5625V18.125C26.9375 18.0255 26.898 17.9302 26.8277 17.8598C26.7573 17.7895 26.662 17.75 26.5625 17.75H21.3125C21.213 17.75 21.1177 17.7895 21.0473 17.8598C20.977 17.9302 20.9375 18.0255 20.9375 18.125V19.5625C20.9375 19.662 20.977 19.7573 21.0473 19.8277C21.1177 19.898 21.213 19.9375 21.3125 19.9375ZM23.5 18.5H26.1875V19.1875H23.5V18.5ZM21.6875 18.5H22.75V19.1875H21.6875V18.5Z" fill="#220047"/>
<path d="M21.3125 23.0625H27.8125C27.912 23.0625 28.0073 23.023 28.0777 22.9527C28.148 22.8823 28.1875 22.787 28.1875 22.6875V21.25C28.1875 21.1505 28.148 21.0552 28.0777 20.9848C28.0073 20.9145 27.912 20.875 27.8125 20.875H21.3125C21.213 20.875 21.1177 20.9145 21.0473 20.9848C20.977 21.0552 20.9375 21.1505 20.9375 21.25V22.6875C20.9375 22.787 20.977 22.8823 21.0473 22.9527C21.1177 23.023 21.213 23.0625 21.3125 23.0625ZM23.5 21.625H27.4375V22.3125H23.5V21.625ZM21.6875 21.625H22.75V22.3125H21.6875V21.625Z" fill="#220047"/>
<path d="M5.58957 25.125H17.2854C17.3364 25.1282 17.3874 25.1203 17.4349 25.1019C17.4825 25.0835 17.5255 25.055 17.561 25.0184C17.5965 24.9817 17.6237 24.9379 17.6406 24.8897C17.6575 24.8416 17.6638 24.7904 17.6591 24.7396L16.7403 13.8617C16.733 13.7697 16.6918 13.6837 16.6247 13.6202C16.5576 13.5568 16.4694 13.5205 16.3771 13.5183L13.6875 13.5V12.5864C13.6889 12.2391 13.6217 11.8948 13.4897 11.5735C13.3577 11.2522 13.1636 10.9601 12.9184 10.714C12.6733 10.4679 12.3819 10.2726 12.0611 10.1393C11.7403 10.0061 11.3964 9.9375 11.049 9.9375H11.0478C9.58645 9.93819 8.37501 11.1276 8.37501 12.5887V13.5H6.50807C6.41467 13.4987 6.32422 13.5327 6.2549 13.5953C6.18558 13.6579 6.14252 13.7444 6.13439 13.8375L5.21589 24.75C5.21159 24.7993 5.21809 24.849 5.23495 24.8956C5.25181 24.9421 5.27862 24.9844 5.31351 25.0196C5.3495 25.0556 5.39269 25.0836 5.44027 25.1018C5.48785 25.12 5.53873 25.1279 5.58957 25.125ZM16.0625 14.4519L16.8625 23.9347L16.0625 23.2884V14.4519ZM16.2243 24.375H15.1038L15.685 23.9392L16.2243 24.375ZM15.3125 23.3277L14.4599 23.9671L15.3125 15.2829V23.3277ZM9.12501 12.5886C9.12501 11.5408 10 10.688 11.05 10.6875H11.0509C11.2998 10.6877 11.5462 10.7372 11.7759 10.833C12.0057 10.9288 12.2142 11.0691 12.3895 11.2458C12.5649 11.4225 12.7035 11.6321 12.7976 11.8625C12.8916 12.093 12.9392 12.3398 12.9375 12.5887V13.5H9.12501V12.5886ZM6.85289 14.25H8.37501V15.4529C8.37501 15.5524 8.41452 15.6478 8.48485 15.7181C8.55517 15.7884 8.65056 15.8279 8.75001 15.8279C8.84947 15.8279 8.94485 15.7884 9.01518 15.7181C9.0855 15.6478 9.12501 15.5524 9.12501 15.4529V14.25H12.9375V15.4529C12.9375 15.5524 12.977 15.6478 13.0473 15.7181C13.1177 15.7884 13.2131 15.8279 13.3125 15.8279C13.412 15.8279 13.5074 15.7884 13.5777 15.7181C13.648 15.6478 13.6875 15.5524 13.6875 15.4529V14.25H14.6368L13.8793 21.9375H6.20357L6.85289 14.25ZM6.14039 22.6875H13.8056L13.6388 24.375H5.99745L6.14039 22.6875Z" fill="#220047"/>
<path d="M28.5 3H3.5C2.7375 3 2.00624 3.3029 1.46707 3.84207C0.927901 4.38124 0.625 5.1125 0.625 5.875V26.125C0.625 26.8875 0.927901 27.6188 1.46707 28.1579C2.00624 28.6971 2.7375 29 3.5 29H28.5C29.2625 29 29.9938 28.6971 30.5329 28.1579C31.0721 27.6188 31.375 26.8875 31.375 26.125V5.875C31.375 5.1125 31.0721 4.38124 30.5329 3.84207C29.9938 3.3029 29.2625 3 28.5 3ZM1.375 5.88637C1.37529 5.32183 1.5989 4.78032 1.99703 4.38006C2.39516 3.9798 2.93546 3.7533 3.5 3.75H10.5V5.80431C10.5009 5.97779 10.4675 6.14973 10.4016 6.31021C10.3357 6.47069 10.2386 6.61653 10.1161 6.73932C9.99354 6.86211 9.84788 6.9594 9.68752 7.0256C9.52717 7.0918 9.35529 7.12558 9.18181 7.125H1.375V5.88637ZM30.625 26.1136C30.6247 26.6782 30.4011 27.2197 30.003 27.6199C29.6048 28.0202 29.0645 28.2467 28.5 28.25H3.5C2.93546 28.2467 2.39516 28.0202 1.99703 27.6199C1.5989 27.2197 1.37529 26.6782 1.375 26.1136V7.875H30.625V26.1136ZM30.625 7.125H10.7807C11.0887 6.75427 11.255 6.2862 11.25 5.80425V3.75H28.5C29.0645 3.7533 29.6048 3.9798 30.003 4.38006C30.4011 4.78032 30.6247 5.32183 30.625 5.88637V7.125Z" fill="#220047"/>
<path d="M3.89773 4.93616C3.79659 4.93616 3.69772 4.96615 3.61362 5.02234C3.52953 5.07853 3.46398 5.1584 3.42528 5.25184C3.38657 5.34528 3.37645 5.4481 3.39618 5.5473C3.41591 5.64649 3.46461 5.73761 3.53613 5.80913C3.60765 5.88065 3.69877 5.92935 3.79796 5.94908C3.89716 5.96881 3.99998 5.95869 4.09342 5.91998C4.18686 5.88128 4.26673 5.81573 4.32292 5.73164C4.37911 5.64754 4.4091 5.54867 4.4091 5.44753C4.40895 5.31195 4.35503 5.18197 4.25916 5.0861C4.16329 4.99023 4.03331 4.93631 3.89773 4.93616Z" fill="#220047"/>
<path d="M5.9432 4.93616C5.84206 4.93616 5.74319 4.96615 5.65909 5.02234C5.575 5.07853 5.50945 5.1584 5.47075 5.25184C5.43205 5.34528 5.42192 5.4481 5.44165 5.5473C5.46138 5.64649 5.51009 5.73761 5.5816 5.80913C5.65312 5.88065 5.74424 5.92935 5.84343 5.94908C5.94263 5.96881 6.04545 5.95869 6.13889 5.91998C6.23234 5.88128 6.3122 5.81573 6.36839 5.73164C6.42458 5.64754 6.45457 5.54867 6.45457 5.44753C6.45443 5.31195 6.4005 5.18197 6.30463 5.0861C6.20876 4.99023 6.07878 4.93631 5.9432 4.93616Z" fill="#220047"/>
<path d="M7.98867 4.93616C7.88753 4.93614 7.78865 4.96613 7.70455 5.02231C7.62045 5.07849 7.55489 5.15835 7.51618 5.25179C7.47746 5.34523 7.46733 5.44806 7.48705 5.54726C7.50678 5.64646 7.55548 5.73758 7.62699 5.80911C7.6985 5.88063 7.78962 5.92934 7.88882 5.94908C7.98802 5.96881 8.09084 5.95869 8.18429 5.91999C8.27773 5.88128 8.3576 5.81574 8.4138 5.73164C8.46999 5.64755 8.49998 5.54868 8.49998 5.44753C8.49984 5.31196 8.44592 5.18199 8.35006 5.08612C8.25421 4.99025 8.12424 4.93632 7.98867 4.93616Z" fill="#220047"/>
<path d="M2.75 9.92707C2.84946 9.92707 2.94484 9.88756 3.01517 9.81723C3.08549 9.74691 3.125 9.65152 3.125 9.55207V9.28363C3.125 9.18417 3.08549 9.08879 3.01517 9.01847C2.94484 8.94814 2.84946 8.90863 2.75 8.90863C2.65054 8.90863 2.55516 8.94814 2.48483 9.01847C2.41451 9.08879 2.375 9.18417 2.375 9.28363V9.55207C2.375 9.65152 2.41451 9.74691 2.48483 9.81723C2.55516 9.88756 2.65054 9.92707 2.75 9.92707Z" fill="#220047"/>
<path d="M2.75 17.2396C2.84946 17.2396 2.94484 17.2001 3.01517 17.1297C3.08549 17.0594 3.125 16.964 3.125 16.8646V10.8646C3.125 10.7651 3.08549 10.6697 3.01517 10.5994C2.94484 10.5291 2.84946 10.4896 2.75 10.4896C2.65054 10.4896 2.55516 10.5291 2.48483 10.5994C2.41451 10.6697 2.375 10.7651 2.375 10.8646V16.8646C2.375 16.964 2.41451 17.0594 2.48483 17.1297C2.55516 17.2001 2.65054 17.2396 2.75 17.2396Z" fill="#220047"/>
</svg>
