<?xml version="1.0"?>
<svg xmlns="http://www.w3.org/2000/svg" xmlns:xlink="http://www.w3.org/1999/xlink" version="1.1" viewBox="0 0 480.00002 480" style="enable-background:new 0 0 512 512" xml:space="preserve" class=""><g><path xmlns="http://www.w3.org/2000/svg" d="m450.480469 369.359375c15.050781-15.539063 17.84375-39.226563 6.824219-57.84375-11.019532-18.617187-33.132813-27.5625-53.996094-21.839844-20.863282 5.71875-35.324219 24.691407-35.308594 46.324219v1.039062c-2.605469-.714843-5.296875-1.0625-8-1.039062-11.925781 0-22.863281 6.628906-28.378906 17.203125-5.511719 10.574219-4.6875 23.339844 2.140625 33.117187-8.394531 3.957032-13.75 12.402344-13.761719 21.679688v32c0 4.417969 3.582031 8 8 8s8-3.582031 8-8v-32c0-4.417969 3.582031-8 8-8h8.800781c-.550781 2.628906-.820312 5.3125-.800781 8v64c0 4.417969 3.582031 8 8 8s8-3.582031 8-8v-64c-.003906-3.8125.902344-7.566406 2.640625-10.960938.535156-.605468.941406-1.3125 1.199219-2.078124 2.726562-4.203126 6.699218-7.449219 11.359375-9.28125.8125-.144532 1.59375-.414063 2.320312-.800782 2.113281-.578125 4.292969-.871094 6.480469-.878906h2.238281l5.761719 16.640625-8 46.078125c-.300781 1.988281.15625 4.015625 1.28125 5.679688l16 24c1.484375 2.214843 3.972656 3.539062 6.640625 3.539062 2.664063 0 5.152344-1.324219 6.636719-3.539062l16-24c1.125-1.664063 1.582031-3.691407 1.28125-5.679688l-8-46.078125 5.921875-16.640625h2.238281c13.253906 0 24 10.746094 24 24v64c0 4.417969 3.582031 8 8 8s8-3.582031 8-8v-64c.015625-18.070312-12.082031-33.90625-29.519531-38.640625zm-34.480469-65.359375c17.671875 0 32 14.328125 32 32s-14.328125 32-32 32-32-14.328125-32-32 14.328125-32 32-32zm-56 48c8.835938 0 16 7.164062 16 16 .121094 1.171875.121094 2.351562 0 3.519531-6.296875 2.753907-11.796875 7.042969-16 12.480469-8.835938 0-16-7.164062-16-16s7.164062-16 16-16zm56 49.28125 8 44.878906-8 11.441406-8-11.441406 8-44.878906c.277344-1.265625.277344-2.578125 0-3.839844l-4.878906-13.441406h9.757812l-4.480468 13.441406c-.410157 1.234375-.546876 2.542969-.398438 3.839844zm0 0" data-original="#000000" style="" class=""/><path xmlns="http://www.w3.org/2000/svg" d="m400 240c4.417969 0 8-3.582031 8-8v-56c0-4.417969-3.582031-8-8-8h-48c-4.417969 0-8 3.582031-8 8v56c0 4.417969 3.582031 8 8 8s8-3.582031 8-8v-48h32v48c0 4.417969 3.582031 8 8 8zm0 0" data-original="#000000" style="" class=""/><path xmlns="http://www.w3.org/2000/svg" d="m328 232v-120h32v24c0 4.417969 3.582031 8 8 8h80v88c0 4.417969 3.582031 8 8 8s8-3.582031 8-8v-168c0-4.417969-3.582031-8-8-8h-32c-4.097656-.023438-7.550781 3.046875-8 7.121094l-7.121094 64.878906h-32.878906v-24c0-4.417969-3.582031-8-8-8h-48c-4.417969 0-8 3.582031-8 8v56h-24c-4.417969 0-8 3.582031-8 8v64c0 4.417969 3.582031 8 8 8s8-3.582031 8-8v-56h16v56c0 4.417969 3.582031 8 8 8s8-3.582031 8-8zm103.199219-160h16.800781v56h-23.039062zm0 0" data-original="#000000" style="" class=""/><path xmlns="http://www.w3.org/2000/svg" d="m145.359375 400c-3.496094 9.941406-.097656 21.003906 8.378906 27.265625 8.476563 6.265625 20.046875 6.265625 28.523438 0 8.476562-6.261719 11.875-17.324219 8.378906-27.265625h17.359375c4.417969 0 8-3.582031 8-8v-32.640625s0 0 0-.398437v-1.039063c-.097656-.335937-.234375-.65625-.398438-.960937v-.960938l-20-32c-1.542968-2.695312-4.507812-4.253906-7.601562-4h-36v-8c0-4.417969-3.582031-8-8-8h-128c-4.417969 0-8 3.582031-8 8s3.582031 8 8 8h56v24c0 4.417969 3.582031 8 8 8h32c4.417969 0 8-3.582031 8-8v-24h16v64h-80v-3.519531c0-4.417969-3.582031-8-8-8s-8 3.582031-8 8v11.519531c0 4.417969 3.582031 8 8 8h9.359375c-3.496094 9.941406-.097656 21.003906 8.378906 27.265625 8.476563 6.265625 20.046875 6.265625 28.523438 0 8.476562-6.261719 11.875-17.324219 8.378906-27.265625zm-41.359375-64h-16v-16h16zm72 72c0 4.417969-3.582031 8-8 8s-8-3.582031-8-8 3.582031-8 8-8 8 3.582031 8 8zm24-24h-48v-16h48zm-16-48 10 16h-42v-16zm-96 72c0 4.417969-3.582031 8-8 8s-8-3.582031-8-8 3.582031-8 8-8 8 3.582031 8 8zm0 0" data-original="#000000" style="" class=""/><path xmlns="http://www.w3.org/2000/svg" d="m56 352c0-4.417969-3.582031-8-8-8h-16c-4.417969 0-8 3.582031-8 8s3.582031 8 8 8h16c4.417969 0 8-3.582031 8-8zm0 0" data-original="#000000" style="" class=""/><path xmlns="http://www.w3.org/2000/svg" d="m208 176c4.417969 0 8-3.582031 8-8s-3.582031-8-8-8h-32v-16h32c4.417969 0 8-3.582031 8-8v-96c0-4.417969-3.582031-8-8-8h-16v-24c0-4.417969-3.582031-8-8-8h-128c-4.417969 0-8 3.582031-8 8v32c0 4.417969 3.582031 8 8 8h16v16h-64c-4.417969 0-8 3.582031-8 8v96c0 4.417969 3.582031 8 8 8zm-8-96v16h-24v-16zm-24 48v-16h24v16zm24-64h-48v-16h48zm-24-32h-48v-16h48zm-112-16h48v16h-48zm24 32h48v16h-48zm-72 32h144v80h-144zm0 0" data-original="#000000" style="" class=""/><path xmlns="http://www.w3.org/2000/svg" d="m88 96c-13.253906 0-24 10.746094-24 24s10.746094 24 24 24 24-10.746094 24-24-10.746094-24-24-24zm0 32c-4.417969 0-8-3.582031-8-8s3.582031-8 8-8 8 3.582031 8 8-3.582031 8-8 8zm0 0" data-original="#000000" style="" class=""/><path xmlns="http://www.w3.org/2000/svg" d="m144 120c0 4.417969-3.582031 8-8 8s-8-3.582031-8-8 3.582031-8 8-8 8 3.582031 8 8zm0 0" data-original="#000000" style="" class=""/><path xmlns="http://www.w3.org/2000/svg" d="m48 120c0 4.417969-3.582031 8-8 8s-8-3.582031-8-8 3.582031-8 8-8 8 3.582031 8 8zm0 0" data-original="#000000" style="" class=""/><path xmlns="http://www.w3.org/2000/svg" d="m240 40h112c13.253906 0 24 10.746094 24 24 0 4.417969 3.582031 8 8 8s8-3.582031 8-8c0-22.089844-17.910156-40-40-40h-112c-4.417969 0-8 3.582031-8 8s3.582031 8 8 8zm0 0" data-original="#000000" style="" class=""/><path xmlns="http://www.w3.org/2000/svg" d="m272 464h-112c-13.253906 0-24-10.746094-24-24v-16c0-4.417969-3.582031-8-8-8s-8 3.582031-8 8v16c0 22.089844 17.910156 40 40 40h112c4.417969 0 8-3.582031 8-8s-3.582031-8-8-8zm0 0" data-original="#000000" style="" class=""/><path xmlns="http://www.w3.org/2000/svg" d="m96 208v64c0 4.417969 3.582031 8 8 8s8-3.582031 8-8v-64c0-4.417969-3.582031-8-8-8s-8 3.582031-8 8zm0 0" data-original="#000000" style="" class=""/><path xmlns="http://www.w3.org/2000/svg" d="m352 264c-4.417969 0-8 3.582031-8 8v32c0 4.417969 3.582031 8 8 8s8-3.582031 8-8v-32c0-4.417969-3.582031-8-8-8zm0 0" data-original="#000000" style="" class=""/><path xmlns="http://www.w3.org/2000/svg" d="m213.679688 218.320312c-3.136719-3.136718-8.222657-3.136718-11.359376 0-3.136718 3.136719-3.136718 8.222657 0 11.359376l96 96c1.5 1.515624 3.546876 2.367187 5.679688 2.367187s4.179688-.851563 5.679688-2.367187c1.515624-1.5 2.367187-3.546876 2.367187-5.679688s-.851563-4.179688-2.367187-5.679688zm0 0" data-original="#000000" style="" class=""/><script/></g></svg>
