<?xml version="1.0"?>
<svg xmlns="http://www.w3.org/2000/svg" xmlns:xlink="http://www.w3.org/1999/xlink" version="1.1" viewBox="0 0 512 512" style="enable-background:new 0 0 512 512" xml:space="preserve" class=""><g><g xmlns="http://www.w3.org/2000/svg"><path d="m466.11 98.52c4.143 0 7.5-3.358 7.5-7.5v-83.52c0-4.142-3.357-7.5-7.5-7.5h-32.32c-4.143 0-7.5 3.358-7.5 7.5v132.913h-33.489v-103.618c0-4.142-3.357-7.5-7.5-7.5h-64.65c-4.143 0-7.5 3.358-7.5 7.5v103.618h-17.325v-103.618c0-4.142-3.357-7.5-7.5-7.5h-64.65c-4.143 0-7.5 3.358-7.5 7.5v103.618h-17.326v-103.618c0-4.142-3.357-7.5-7.5-7.5h-64.65c-4.143 0-7.5 3.358-7.5 7.5v103.618h-33.49v-132.913c0-4.142-3.357-7.5-7.5-7.5h-32.32c-4.143 0-7.5 3.358-7.5 7.5v257.26c0 4.142 3.357 7.5 7.5 7.5s7.5-3.358 7.5-7.5v-249.76h17.32v449.67h-17.32v-164.91c0-4.142-3.357-7.5-7.5-7.5s-7.5 3.358-7.5 7.5v172.41c0 4.142 3.357 7.5 7.5 7.5h24.144c.032 0 .064.005.097.005h.581v24.825c0 4.142 3.357 7.5 7.5 7.5h42.428c3.28 0 6.18-2.132 7.158-5.263l8.457-27.062h239.493l8.457 27.062c.979 3.131 3.878 5.263 7.158 5.263h42.428c4.143 0 7.5-3.358 7.5-7.5v-24.83h24.821c4.143 0 7.5-3.358 7.5-7.5v-346.15c0-4.142-3.357-7.5-7.5-7.5s-7.5 3.358-7.5 7.5v338.65h-17.32v-449.67h17.32v76.02c-.002 4.142 3.356 7.5 7.498 7.5zm-380.4 366.155v-49.65h340.58v49.65zm40.408-243.602h17.325v49.65h-17.325zm300.172 64.651v17.325h-340.58v-17.325zm-219.359-64.651h17.325v49.65h-17.325zm80.813 0h17.325v49.65h-17.325zm80.813 0h17.325v49.65h-17.325zm9.244 178.951h-49.65v-49.65h49.65zm7.5-64.65h-64.65c-4.143 0-7.5 3.358-7.5 7.5v57.15h-17.325v-57.15c0-4.142-3.357-7.5-7.5-7.5h-64.65c-4.143 0-7.5 3.358-7.5 7.5v57.15h-17.326v-57.15c0-4.142-3.357-7.5-7.5-7.5h-64.65c-4.143 0-7.5 3.358-7.5 7.5v57.15h-33.49v-81.976h340.58v81.976h-33.489v-57.15c0-4.142-3.358-7.5-7.5-7.5zm-104.476 64.65h-49.65v-49.65h49.65zm-96.975 0h-49.65v-49.65h49.65zm144.3-316.333h49.65v17.325h-49.65zm49.651-39.396v24.396h-49.65v-24.396zm-49.651 71.721h49.65v24.396h-49.65zm-96.975-32.325h49.65v17.325h-49.65zm49.65-39.396v24.396h-49.65v-24.396zm-49.65 71.721h49.65v24.396h-49.65zm-96.976-32.325h49.65v17.325h-49.65zm49.651-39.396v24.396h-49.65v-24.396zm-49.651 71.721h49.65v24.396h-49.65zm292.091 39.397v17.328h-61.4c-4.143 0-7.5 3.358-7.5 7.5s3.357 7.5 7.5 7.5h61.4v82.983h-25.408v-49.65h.582c4.143 0 7.5-3.358 7.5-7.5s-3.357-7.5-7.5-7.5h-48.488c-4.143 0-7.5 3.358-7.5 7.5s3.357 7.5 7.5 7.5h.581v49.65h-33.487v-49.65h.581c4.143 0 7.5-3.358 7.5-7.5s-3.357-7.5-7.5-7.5h-48.487c-4.143 0-7.5 3.358-7.5 7.5s3.357 7.5 7.5 7.5h.581v49.65h-33.488v-49.65h.581c4.143 0 7.5-3.358 7.5-7.5s-3.357-7.5-7.5-7.5h-48.488c-4.143 0-7.5 3.358-7.5 7.5s3.357 7.5 7.5 7.5h.581v49.65h-33.487v-49.65h.581c4.143 0 7.5-3.358 7.5-7.5s-3.357-7.5-7.5-7.5h-48.488c-4.143 0-7.5 3.358-7.5 7.5s3.357 7.5 7.5 7.5h.582v49.65h-25.409v-82.984h244.18c4.143 0 7.5-3.358 7.5-7.5s-3.357-7.5-7.5-7.5h-244.18v-17.328h340.58zm-311.165 341.587h-29.414v-17.325h34.828zm281.75 0-5.414-17.325h34.828v17.325z" data-original="#000000" style="" class=""/></g><script/></g></svg>
