<svg width="32" height="32" viewBox="0 0 32 32" fill="none" xmlns="http://www.w3.org/2000/svg">
<path d="M28 2.90909H4.00001C3.51797 2.90966 3.05584 3.1014 2.71498 3.44225C2.37413 3.7831 2.18239 4.24523 2.18182 4.72727V27.2727C2.18239 27.7548 2.37413 28.2169 2.71498 28.5577C3.05584 28.8986 3.51797 29.0903 4.00001 29.0909H28C28.482 29.0903 28.9442 28.8986 29.285 28.5577C29.6259 28.2169 29.8176 27.7548 29.8182 27.2727V4.72727C29.8176 4.24523 29.6259 3.7831 29.285 3.44225C28.9442 3.1014 28.482 2.90966 28 2.90909ZM4.00001 3.63636H28C28.2892 3.63668 28.5665 3.75172 28.771 3.95623C28.9756 4.16075 29.0906 4.43804 29.0909 4.72727V7.27272H2.9091V4.72727C2.90941 4.43804 3.02445 4.16075 3.22897 3.95623C3.43348 3.75172 3.71078 3.63668 4.00001 3.63636ZM28 28.3636H4.00001C3.71078 28.3633 3.43348 28.2483 3.22897 28.0438C3.02445 27.8392 2.90941 27.562 2.9091 27.2727V8H29.0909V27.2727C29.0906 27.562 28.9756 27.8392 28.771 28.0438C28.5665 28.2483 28.2892 28.3633 28 28.3636Z" fill="#220047"/>
<path d="M5.45456 6.54547C5.67032 6.54547 5.88123 6.48149 6.06063 6.36162C6.24003 6.24174 6.37986 6.07137 6.46243 5.87203C6.54499 5.67269 6.5666 5.45335 6.5245 5.24173C6.48241 5.03012 6.37851 4.83573 6.22595 4.68317C6.07338 4.5306 5.879 4.4267 5.66738 4.38461C5.45577 4.34252 5.23642 4.36412 5.03708 4.44669C4.83775 4.52926 4.66737 4.66908 4.5475 4.84848C4.42763 5.02788 4.36365 5.2388 4.36365 5.45456C4.36397 5.74379 4.479 6.02108 4.68352 6.2256C4.88803 6.43011 5.16533 6.54515 5.45456 6.54547ZM5.45456 5.09092C5.52648 5.09092 5.59678 5.11225 5.65658 5.1522C5.71638 5.19216 5.76299 5.24895 5.79051 5.3154C5.81804 5.38185 5.82524 5.45496 5.81121 5.5255C5.79717 5.59604 5.76254 5.66083 5.71169 5.71169C5.66083 5.76254 5.59604 5.79718 5.5255 5.81121C5.45496 5.82524 5.38184 5.81804 5.3154 5.79051C5.24895 5.76299 5.19216 5.71638 5.1522 5.65658C5.11225 5.59678 5.09092 5.52648 5.09092 5.45456C5.09101 5.35814 5.12935 5.2657 5.19752 5.19752C5.2657 5.12935 5.35814 5.09101 5.45456 5.09092Z" fill="#220047"/>
<path d="M8.36361 6.54547C8.57938 6.54547 8.79029 6.48149 8.96969 6.36162C9.14909 6.24174 9.28891 6.07137 9.37148 5.87203C9.45405 5.67269 9.47565 5.45335 9.43356 5.24173C9.39147 5.03012 9.28757 4.83573 9.135 4.68317C8.98244 4.5306 8.78806 4.4267 8.57644 4.38461C8.36482 4.34252 8.14548 4.36412 7.94614 4.44669C7.7468 4.52926 7.57643 4.66908 7.45656 4.84848C7.33669 5.02788 7.27271 5.2388 7.27271 5.45456C7.27302 5.74379 7.38806 6.02108 7.59258 6.2256C7.79709 6.43011 8.07438 6.54515 8.36361 6.54547ZM8.36361 5.09092C8.43553 5.09092 8.50584 5.11225 8.56564 5.1522C8.62544 5.19216 8.67205 5.24895 8.69957 5.3154C8.72709 5.38185 8.73429 5.45496 8.72026 5.5255C8.70623 5.59604 8.6716 5.66083 8.62074 5.71169C8.56989 5.76254 8.5051 5.79718 8.43456 5.81121C8.36402 5.82524 8.2909 5.81804 8.22446 5.79051C8.15801 5.76299 8.10122 5.71638 8.06126 5.65658C8.0213 5.59678 7.99998 5.52648 7.99998 5.45456C8.00006 5.35814 8.0384 5.2657 8.10658 5.19752C8.17476 5.12935 8.2672 5.09101 8.36361 5.09092Z" fill="#220047"/>
<path d="M11.2727 6.54547C11.4885 6.54547 11.6994 6.48149 11.8788 6.36162C12.0582 6.24174 12.198 6.07137 12.2806 5.87203C12.3632 5.67269 12.3848 5.45335 12.3427 5.24173C12.3006 5.03012 12.1967 4.83573 12.0441 4.68317C11.8916 4.5306 11.6972 4.4267 11.4856 4.38461C11.2739 4.34252 11.0546 4.36412 10.8553 4.44669C10.6559 4.52926 10.4855 4.66908 10.3657 4.84848C10.2458 5.02788 10.1818 5.2388 10.1818 5.45456C10.1821 5.74379 10.2972 6.02108 10.5017 6.2256C10.7062 6.43011 10.9835 6.54515 11.2727 6.54547ZM11.2727 5.09092C11.3447 5.09092 11.415 5.11225 11.4748 5.1522C11.5346 5.19216 11.5812 5.24895 11.6087 5.3154C11.6362 5.38185 11.6434 5.45496 11.6294 5.5255C11.6154 5.59604 11.5807 5.66083 11.5299 5.71169C11.479 5.76254 11.4142 5.79718 11.3437 5.81121C11.2731 5.82524 11.2 5.81804 11.1336 5.79051C11.0671 5.76299 11.0103 5.71638 10.9704 5.65658C10.9304 5.59678 10.9091 5.52648 10.9091 5.45456C10.9092 5.35814 10.9475 5.2657 11.0157 5.19752C11.0839 5.12935 11.1763 5.09101 11.2727 5.09092Z" fill="#220047"/>
<path d="M20 5.81818H27.2727C27.3692 5.81818 27.4617 5.77987 27.5298 5.71168C27.598 5.64348 27.6364 5.55099 27.6364 5.45455C27.6364 5.35811 27.598 5.26561 27.5298 5.19742C27.4617 5.12922 27.3692 5.09091 27.2727 5.09091H20C19.9035 5.09091 19.8111 5.12922 19.7429 5.19742C19.6747 5.26561 19.6364 5.35811 19.6364 5.45455C19.6364 5.55099 19.6747 5.64348 19.7429 5.71168C19.8111 5.77987 19.9035 5.81818 20 5.81818Z" fill="#220047"/>
<path d="M15.4957 10.999C15.2195 10.999 15 10.7723 15 10.496C15 10.2198 15.2195 10 15.4957 10H24.5C24.7763 10 25 10.2198 25 10.496C25 10.7723 24.7765 10.999 24.5 10.999H15.4957ZM15.4957 13.3232C15.2195 13.3232 15 13.1035 15 12.8273C15 12.551 15.2195 12.3243 15.4957 12.3243H17.168C17.4442 12.3243 17.671 12.551 17.671 12.8273C17.671 13.1035 17.4445 13.3232 17.168 13.3232H15.4957Z" fill="#220047"/>
<path d="M15.4957 20.999C15.2195 20.999 15 20.7723 15 20.496C15 20.2198 15.2195 20 15.4957 20H24.5C24.7763 20 25 20.2198 25 20.496C25 20.7723 24.7765 20.999 24.5 20.999H15.4957ZM15.4957 23.3232C15.2195 23.3232 15 23.1035 15 22.8273C15 22.551 15.2195 22.3243 15.4957 22.3243H17.168C17.4442 22.3243 17.671 22.551 17.671 22.8273C17.671 23.1035 17.4445 23.3232 17.168 23.3232H15.4957Z" fill="#220047"/>
<path d="M7.0065 10H11.924C12.2003 10 12.4483 10.1135 12.6325 10.2905C12.8168 10.4747 12.923 10.7227 12.923 10.999V15.9237C12.923 16.193 12.8028 16.4905 12.597 16.6605C12.4198 16.8235 12.179 16.9227 11.9237 16.9227H7.00625C6.45375 16.9227 6 16.4692 6 15.9237V10.9993C6.00025 10.4465 6.45375 10 7.0065 10ZM11.924 10.9993H7.0065V15.924H11.924V10.9993Z" fill="#220047"/>
<path d="M6.99925 20H11.924C12.4767 20 12.923 20.4465 12.923 20.9993V25.924C12.923 26.1932 12.8025 26.4908 12.59 26.6608C12.4128 26.8238 12.1787 26.923 11.924 26.923H6.99925C6.45325 26.923 6 26.4695 6 25.924V20.9993C6 20.4465 6.45325 20 6.99925 20ZM11.924 20.9993H6.99925V25.924H11.924V20.9993Z" fill="#220047"/>
</svg>
