<svg width="32" height="32" viewBox="0 0 32 32" fill="none" xmlns="http://www.w3.org/2000/svg">
<g clip-path="url(#clip0_74_1442)">
<path d="M17.0336 15.5088C16.8304 15.4412 16.6217 15.3699 16.4145 15.295V12.4011C17.0125 12.4881 17.3719 12.7794 17.3978 12.8011C17.5931 12.9686 17.8876 12.9471 18.0566 12.7524C18.2264 12.557 18.2056 12.2609 18.0101 12.0912C17.976 12.0616 17.3822 11.5578 16.4145 11.4564V11.1458C16.4145 10.8869 16.2047 10.6771 15.9457 10.6771C15.6868 10.6771 15.477 10.8869 15.477 11.1458V11.4927C15.3584 11.5138 15.2369 11.5407 15.1119 11.5762C14.276 11.8133 13.6594 12.4959 13.5027 13.3575C13.3652 14.1136 13.6252 14.8383 14.1812 15.249C14.5036 15.4872 14.9097 15.7053 15.4769 15.9384V19.5308C14.896 19.5101 14.5466 19.4113 13.9295 19.0312C13.7092 18.8956 13.4204 18.964 13.2846 19.1844C13.1487 19.4048 13.2174 19.6936 13.4378 19.8294C14.2359 20.321 14.7459 20.444 15.4769 20.4678V20.8542C15.4769 21.1131 15.6867 21.3229 15.9457 21.3229C16.2046 21.3229 16.4144 21.1131 16.4144 20.8542V20.4351C17.7482 20.2288 18.5912 19.189 18.754 18.1644C18.9449 16.9626 18.2696 15.9203 17.0336 15.5088ZM14.7383 14.4949C14.4721 14.2983 14.3521 13.9267 14.4251 13.5252C14.4973 13.1278 14.783 12.6439 15.3678 12.478C15.4046 12.4676 15.441 12.4581 15.477 12.4494V14.9156C15.1944 14.7841 14.9401 14.6439 14.7383 14.4949ZM17.8281 18.0173C17.73 18.6353 17.252 19.2953 16.4145 19.4825V16.2886C16.5186 16.3246 16.6252 16.3609 16.7374 16.3983C17.9253 16.7938 17.8726 17.7375 17.8281 18.0173Z" fill="#220047"/>
<path d="M29.6781 12.5805H29.6497C29.0639 12.5805 28.5377 12.2046 28.3403 11.6451C28.1864 11.2087 28.0069 10.7755 27.8068 10.3574C27.5497 9.82006 27.6552 9.18062 28.0697 8.76625L28.0898 8.74613C28.9951 7.84081 28.9951 6.36763 28.0898 5.46231L26.5377 3.91019C25.6322 3.00494 24.1591 3.00506 23.2544 3.90969L23.2337 3.93038C22.8194 4.34475 22.1801 4.45056 21.6426 4.19312C21.2246 3.99312 20.7913 3.81362 20.3549 3.65975C19.7954 3.46231 19.4195 2.93612 19.4195 2.35031V2.32194C19.4195 1.04163 18.3779 0 17.0976 0H14.9025C13.6222 0 12.5806 1.04163 12.5806 2.32194V2.35031C12.5806 2.93612 12.2046 3.46231 11.6451 3.65969C11.2088 3.81363 10.7756 3.99313 10.3574 4.19319C9.82006 4.45025 9.18063 4.34475 8.76631 3.93031L8.74619 3.91019C8.30756 3.47162 7.72444 3.23012 7.10425 3.23012C6.484 3.23012 5.90088 3.47162 5.46231 3.91019L3.91019 5.46231C3.00488 6.36763 3.00488 7.84081 3.91019 8.74613L3.93031 8.76625C4.34475 9.18062 4.45031 9.82006 4.19312 10.3574C3.99312 10.7754 3.81362 11.2087 3.65975 11.6451C3.46231 12.2046 2.93612 12.5805 2.35031 12.5805H2.32194C1.04163 12.5805 0 13.6221 0 14.9024V17.0975C0 18.3778 1.04163 19.4194 2.32194 19.4194H2.35031C2.93612 19.4194 3.46231 19.7954 3.65969 20.3549C3.81363 20.7912 3.99313 21.2244 4.19319 21.6426C4.45031 22.1799 4.34475 22.8193 3.93031 23.2337L3.91019 23.2538C3.00488 24.1591 3.00488 25.6323 3.91019 26.5376L5.46231 28.0897C5.90088 28.5283 6.484 28.7698 7.10425 28.7698C7.72444 28.7698 8.30756 28.5283 8.74619 28.0898L8.76631 28.0696C9.18069 27.6553 9.82006 27.5496 10.3575 27.8068C10.7755 28.0068 11.2088 28.1863 11.6451 28.3402C12.2046 28.5376 12.5806 29.0638 12.5806 29.6496V29.678C12.5806 30.9583 13.6222 31.9999 14.9025 31.9999H17.0976C18.3779 31.9999 19.4195 30.9583 19.4195 29.678V29.6496C19.4195 29.0638 19.7954 28.5376 20.3549 28.3403C20.7912 28.1863 21.2245 28.0068 21.6426 27.8067C22.1799 27.5496 22.8193 27.6551 23.2337 28.0696L23.2539 28.0898C24.1593 28.995 25.6323 28.995 26.5377 28.0898L28.0898 26.5376C28.9951 25.6323 28.9951 24.1591 28.0898 23.2538L28.0697 23.2337C27.6552 22.8193 27.5497 22.1799 27.8069 21.6425C28.0069 21.2245 28.1864 20.7913 28.3403 20.3549C28.5377 19.7954 29.0639 19.4194 29.6497 19.4194H29.6781C30.9584 19.4194 32 18.3778 32 17.0975V14.9024C32 13.6221 30.9584 12.5805 29.6781 12.5805ZM31.0625 17.0976C31.0625 17.8609 30.4414 18.482 29.6781 18.482H29.6497C28.6671 18.482 27.7856 19.1093 27.4561 20.0431C27.3133 20.448 27.1468 20.8499 26.9612 21.2378C26.5327 22.1331 26.7117 23.2016 27.4067 23.8967L27.4268 23.9168C27.9667 24.4566 27.9667 25.3349 27.4268 25.8747L25.8747 27.4268C25.3349 27.9668 24.4566 27.9668 23.9168 27.4268L23.8967 27.4067C23.2017 26.7118 22.1332 26.5327 21.2379 26.9611C20.8499 27.1468 20.4479 27.3133 20.0431 27.4562C19.1094 27.7856 18.482 28.6671 18.482 29.6497V29.6781C18.482 30.4414 17.8609 31.0625 17.0976 31.0625H14.9025C14.1391 31.0625 13.5181 30.4414 13.5181 29.6781V29.6497C13.5181 28.6671 12.8907 27.7856 11.957 27.4561C11.5521 27.3133 11.1501 27.1468 10.7622 26.9612C10.4376 26.8058 10.0903 26.7303 9.74619 26.7303C9.14125 26.7303 8.54644 26.9637 8.10338 27.4067L8.08325 27.4268C7.82175 27.6884 7.47412 27.8323 7.10431 27.8323C6.7345 27.8323 6.38687 27.6883 6.12537 27.4268L4.57325 25.8747C4.03337 25.3349 4.03337 24.4566 4.57325 23.9168L4.59338 23.8967C5.28838 23.2016 5.46738 22.1331 5.03894 21.2379C4.85325 20.8499 4.68675 20.4479 4.54388 20.0431C4.21444 19.1094 3.333 18.482 2.35037 18.482H2.322C1.55863 18.482 0.937563 17.8609 0.937563 17.0976V14.9025C0.937563 14.1391 1.55869 13.5181 2.322 13.5181H2.35037C3.333 13.5181 4.21444 12.8907 4.54394 11.957C4.68675 11.5521 4.85325 11.1501 5.03888 10.7622C5.46738 9.86694 5.28838 8.79844 4.59338 8.10338L4.57325 8.08325C4.03337 7.54344 4.03337 6.66519 4.57325 6.12537L6.12531 4.57312C6.38681 4.31162 6.73444 4.16769 7.10425 4.16769C7.47406 4.16769 7.82169 4.31169 8.08319 4.57319L8.10331 4.59331C8.79838 5.28831 9.86687 5.46738 10.7621 5.03888C11.1501 4.85319 11.5521 4.68669 11.9569 4.54381C12.8906 4.21437 13.518 3.33294 13.518 2.35031V2.32194C13.518 1.55856 14.1391 0.9375 14.9024 0.9375H17.0975C17.8609 0.9375 18.4819 1.55863 18.4819 2.32194V2.35031C18.4819 3.33294 19.1092 4.21438 20.043 4.54388C20.4479 4.68669 20.8499 4.85319 21.2377 5.03881C22.133 5.46738 23.2016 5.28831 23.896 4.59381L23.9167 4.57319C24.4566 4.03325 25.3348 4.03325 25.8746 4.57319L27.4268 6.12531C27.9666 6.66512 27.9666 7.54337 27.4268 8.08319L27.4066 8.10331C26.7116 8.79838 26.5326 9.86687 26.9611 10.7621C27.1468 11.1501 27.3133 11.5521 27.4561 11.9569C27.7856 12.8906 28.667 13.518 29.6496 13.518H29.678C30.4414 13.518 31.0624 14.1391 31.0624 14.9024V17.0976H31.0625Z" fill="#220047"/>
<path d="M6.39667 16C6.39667 10.7047 10.7047 6.39669 16 6.39669C18.1737 6.39669 20.2238 7.10488 21.9287 8.44475C22.1322 8.60475 22.4269 8.56932 22.5869 8.36588C22.7469 8.16232 22.7115 7.86757 22.508 7.70769C20.6363 6.23669 18.3859 5.45919 16 5.45919C10.1877 5.45919 5.45917 10.1878 5.45917 16C5.45917 18.4038 6.24723 20.6677 7.73829 22.5469C7.83079 22.6635 7.9676 22.7243 8.10579 22.7243C8.20785 22.7243 8.31067 22.6911 8.39686 22.6227C8.59961 22.4618 8.63361 22.1669 8.47267 21.9641C7.11454 20.2524 6.39667 18.1901 6.39667 16Z" fill="#220047"/>
<path d="M23.5173 9.28006C23.3166 9.44356 23.2865 9.73887 23.4499 9.93956C24.8386 11.6444 25.6033 13.7967 25.6033 16C25.6033 21.2953 21.2953 25.6033 16 25.6033C13.7961 25.6033 11.6433 24.8381 9.93809 23.4486C9.73734 23.2851 9.44203 23.3153 9.27859 23.5159C9.11509 23.7166 9.14515 24.0119 9.3459 24.1754C11.2178 25.7008 13.581 26.5408 16 26.5408C21.8123 26.5408 26.5408 21.8122 26.5408 16C26.5408 13.5817 25.7013 11.2191 24.1768 9.34756C24.0134 9.14687 23.7182 9.11662 23.5173 9.28006Z" fill="#220047"/>
<path d="M16 7.84375C11.5026 7.84375 7.84375 11.5026 7.84375 16C7.84375 20.4974 11.5026 24.1562 16 24.1562C20.4974 24.1562 24.1562 20.4974 24.1562 16C24.1562 11.5026 20.4974 7.84375 16 7.84375ZM16 23.2188C12.0196 23.2188 8.78125 19.9804 8.78125 16C8.78125 12.0196 12.0196 8.78125 16 8.78125C19.9804 8.78125 23.2188 12.0196 23.2188 16C23.2188 19.9804 19.9804 23.2188 16 23.2188Z" fill="#220047"/>
</g>
<defs>
<clipPath id="clip0_74_1442">
<rect width="32" height="32" fill="white"/>
</clipPath>
</defs>
</svg>
