<svg id="Layer_1" data-name="Layer 1" xmlns="http://www.w3.org/2000/svg" viewBox="0 0 54.55 46.07"><defs><style>.cls-1{fill:#fff;}</style></defs><g id="Layer_1-2" data-name="Layer 1"><path d="M22.38,16.72a2,2,0,0,1-2.1-1.88A2,2,0,0,1,22.38,13a2,2,0,0,1,2.09,1.87,1.11,1.11,0,1,0,2.21,0,4.11,4.11,0,0,0-3.2-3.91V9.05a1.11,1.11,0,0,0-2.21,0v1.88a4.11,4.11,0,0,0-3.2,3.91,4.2,4.2,0,0,0,4.31,4.09,1.89,1.89,0,1,1,0,3.75,2,2,0,0,1-2.1-1.88,1.11,1.11,0,0,0-2.21,0,4.11,4.11,0,0,0,3.2,3.92V26.6a1.11,1.11,0,0,0,2.21,0V24.72a4,4,0,0,0-1.1-8Z"/><path d="M51.56,18H42a1.11,1.11,0,0,0,0,2.21h6.79l-9.33,9.32L31.76,21.8a1.06,1.06,0,0,0-1.55,0L10.79,41.16a1.08,1.08,0,0,0,0,1.55,1.08,1.08,0,0,0,1.55,0L30.93,24.17l7.78,7.72a1.09,1.09,0,0,0,.77.33,1.08,1.08,0,0,0,.77-.33L50.46,21.68v7.07a1.11,1.11,0,0,0,2.21,0v-9.6A1.11,1.11,0,0,0,51.56,18Z"/><path d="M19,32.22l1.87-1.87A12.57,12.57,0,1,1,35,17.82a12.71,12.71,0,0,1-1.16,5.24l1.65,1.66a14.42,14.42,0,0,0,1.71-6.9A14.76,14.76,0,1,0,19,32.22Z"/><path d="M32,25.93a12.77,12.77,0,0,1-6,3.92l-2.7,2.7a14.63,14.63,0,0,0,10.26-5.07Z"/></g></svg>