<?xml version="1.0" encoding="UTF-8"?><svg id="Layer_1" xmlns="http://www.w3.org/2000/svg" viewBox="0 0 373.59 348.51"><defs><style></style></defs><g id="underwriting"><g id="search_magnifier_magnifying_glass_loupe"><g id="search_funds_magnifying_glass_magnifier_loupe"><g id="analysis"><path class="cls-1" d="m239.78,256.97c1.1-1.1,2.36-1.96,3.68-2.7l-20.53-20.53c-1.76-1.76-4.62-1.76-6.38,0-1.76,1.77-1.76,4.62,0,6.38l20.48,20.48c.78-1.29,1.64-2.54,2.74-3.63h0Z"/><path class="cls-1" d="m284.09,323.83c-6.02,0-11.68-2.34-15.94-6.6l-31.56-31.56c-4.26-4.27-6.6-9.92-6.6-15.94s2.34-11.68,6.6-15.94c8.17-8.17,23.71-8.17,31.88,0l31.56,31.56c4.27,4.27,6.61,9.92,6.61,15.94s-2.34,11.68-6.6,15.94-9.93,6.6-15.94,6.6Zm-31.56-67.46c-3.67,0-7.15,1.37-9.57,3.79-2.55,2.55-3.96,5.95-3.96,9.56s1.41,7.01,3.96,9.57l31.56,31.56c5.11,5.1,14.01,5.1,19.13,0,2.56-2.56,3.97-5.96,3.97-9.57s-1.41-7.01-3.96-9.57l-31.56-31.56c-2.42-2.41-5.9-3.78-9.57-3.78h0Z"/><path class="cls-1" d="m144.31,246.72c-2.49,0-4.51-2.02-4.51-4.51s2.02-4.51,4.51-4.51c26.99,0,51.49-13.7,65.54-36.64,1.31-2.13,4.08-2.8,6.2-1.5,2.12,1.31,2.8,4.08,1.49,6.2-15.71,25.65-43.08,40.95-73.24,40.95Z"/><path class="cls-1" d="m144.31,269.72c-59.67,0-108.22-48.54-108.22-108.22s48.54-108.22,108.22-108.22c29.88,0,57.68,11.89,78.3,33.51,1.71,1.79,1.65,4.65-.15,6.37-1.8,1.72-4.66,1.67-6.38-.15-18.89-19.79-44.38-30.71-71.77-30.71-54.69,0-99.2,44.5-99.2,99.2s44.5,99.2,99.2,99.2c38.99,0,74.52-22.98,90.51-58.53,1.02-2.27,3.7-3.29,5.96-2.26,2.27,1.02,3.28,3.69,2.26,5.96-17.44,38.79-56.19,63.85-98.73,63.85h0Z"/></g></g></g><path class="cls-1" d="m293.11,170.52c-2.49,0-4.51-2.02-4.51-4.51v-72.15c0-2.49,2.02-4.51,4.51-4.51s4.51,2.02,4.51,4.51v72.15c0,2.49-2.02,4.51-4.51,4.51Z"/><path class="cls-1" d="m239,170.52c-2.49,0-4.51-2.02-4.51-4.51v-27.05c0-2.49,2.02-4.51,4.51-4.51s4.51,2.02,4.51,4.51v27.05c0,2.49-2.02,4.51-4.51,4.51Z"/><path class="cls-1" d="m184.89,170.52c-2.49,0-4.51-2.02-4.51-4.51v-9.02c0-2.49,2.02-4.51,4.51-4.51s4.51,2.02,4.51,4.51v9.02c0,2.49-2.02,4.51-4.51,4.51Z"/><path class="cls-1" d="m130.79,170.52c-2.49,0-4.51-2.02-4.51-4.51v-36.07c0-2.49,2.02-4.51,4.51-4.51s4.51,2.02,4.51,4.51v36.07c0,2.49-2.02,4.51-4.51,4.51Z"/><path class="cls-1" d="m76.68,170.52c-1.17,0-2.34-.45-3.16-1.35-.9-.81-1.35-1.98-1.35-3.16s.45-2.34,1.35-3.17c1.62-1.7,4.69-1.7,6.31,0,.9.82,1.35,1.99,1.35,3.17s-.45,2.34-1.35,3.16c-.81.9-1.98,1.35-3.16,1.35Z"/><path class="cls-1" d="m293.11,80.34c-7.46,0-13.53-6.07-13.53-13.53s6.07-13.53,13.53-13.53,13.53,6.07,13.53,13.53-6.07,13.53-13.53,13.53Zm0-18.04c-2.49,0-4.51,2.03-4.51,4.51s2.02,4.51,4.51,4.51,4.51-2.03,4.51-4.51-2.02-4.51-4.51-4.51Z"/><path class="cls-1" d="m239,125.43c-7.46,0-13.53-6.07-13.53-13.53s6.07-13.53,13.53-13.53,13.53,6.07,13.53,13.53-6.07,13.53-13.53,13.53Zm0-18.04c-2.49,0-4.51,2.03-4.51,4.51s2.02,4.51,4.51,4.51,4.51-2.03,4.51-4.51-2.02-4.51-4.51-4.51Z"/><path class="cls-1" d="m184.89,143.47c-7.46,0-13.53-6.07-13.53-13.53s6.07-13.53,13.53-13.53,13.53,6.07,13.53,13.53-6.07,13.53-13.53,13.53Zm0-18.04c-2.49,0-4.51,2.03-4.51,4.51s2.02,4.51,4.51,4.51,4.51-2.03,4.51-4.51-2.02-4.51-4.51-4.51Z"/><path class="cls-1" d="m130.79,116.41c-7.46,0-13.53-6.07-13.53-13.53s6.07-13.53,13.53-13.53,13.53,6.07,13.53,13.53-6.07,13.53-13.53,13.53Zm0-18.04c-2.49,0-4.51,2.03-4.51,4.51s2.02,4.51,4.51,4.51,4.51-2.03,4.51-4.51-2.02-4.51-4.51-4.51Z"/><path class="cls-1" d="m121.88,103.41l-41.28,27.51c2.83,1.39,4.79,4.19,5,7.51l41.28-27.52c-2.85-1.38-4.8-4.18-5-7.5Z"/><path class="cls-1" d="m229.99,111.9c0-.67.24-1.25.38-1.88l-39.59,13.2c1.88,1.64,3.14,4,3.14,6.71,0,.67-.24,1.25-.38,1.88l39.59-13.2c-1.88-1.64-3.14-4-3.14-6.71Z"/><path class="cls-1" d="m180.1,122.5l-40.41-20.2c0,.2.12.38.12.59,0,3.18-1.73,5.83-4.22,7.44l40.41,20.2c0-.2-.12-.38-.12-.59,0-3.18,1.74-5.83,4.22-7.44h0Z"/><path class="cls-1" d="m284.5,68.86l-42.37,34.66c3,1.12,5.11,3.79,5.62,7.04l43.03-35.2c-3.15-.86-5.51-3.31-6.28-6.5Z"/><path class="cls-1" d="m76.68,152.48c-7.46,0-13.53-6.07-13.53-13.53s6.07-13.53,13.53-13.53,13.53,6.07,13.53,13.53-6.07,13.53-13.53,13.53Zm0-18.04c-2.49,0-4.51,2.03-4.51,4.51s2.02,4.51,4.51,4.51,4.51-2.03,4.51-4.51-2.02-4.51-4.51-4.51Z"/><path class="cls-1" d="m302.13,188.56H76.68c-2.49,0-4.51-2.02-4.51-4.51s2.02-4.51,4.51-4.51h225.45c2.49,0,4.51,2.02,4.51,4.51s-2.02,4.51-4.51,4.51Z"/></g></svg>