<svg width="225" height="226" viewBox="0 0 225 226" fill="none" xmlns="http://www.w3.org/2000/svg">
<circle cx="112.037" cy="113" r="112.037" fill="#022E46"/>
<mask id="mask0_853_51836" style="mask-type:alpha" maskUnits="userSpaceOnUse" x="0" y="0" width="226" height="226">
<circle cx="112.963" cy="113" r="112.037" fill="#3E5D7B"/>
</mask>
<g mask="url(#mask0_853_51836)">
<g clip-path="url(#clip0_853_51836)">
<path d="M62.6053 32.8633H261.048C263.9 32.8633 266.208 35.412 266.208 38.5391V177.954C266.208 181.091 263.891 183.63 261.048 183.63H62.6143C59.7624 183.63 57.4542 181.081 57.4542 177.954V38.5391C57.4542 35.4022 59.7713 32.8633 62.6143 32.8633H62.6053Z" fill="white" fill-opacity="0.4" stroke="#1D2342" stroke-width="2.39" stroke-linecap="round" stroke-linejoin="round"/>
<path d="M261.498 174.45C261.498 177.135 259.294 179.321 256.573 179.321H67.0801C64.3592 179.321 62.1467 177.144 62.1467 174.45V54.8358C62.1467 52.1416 64.3592 49.9648 67.0801 49.9648H256.573C259.294 49.9648 261.498 52.1416 261.498 54.8358V174.45Z" fill="#DADADA"/>
<g style="mix-blend-mode:soft-light" opacity="0.4">
<path d="M122.935 175.735C132.026 168.847 140.786 161.505 149.021 153.61C166.042 137.311 181.27 119.157 194.527 99.6732C205.589 83.401 215.501 66.219 223.886 48.3232H64.6893C61.8969 48.3232 59.631 50.5624 59.631 53.3191V175.949C59.631 178.705 61.8969 180.944 64.6893 180.944H115.682C118.153 179.276 120.571 177.519 122.935 175.726V175.735Z" fill="#DEDEDE"/>
</g>
<path d="M187.952 173.71C187.952 175.138 186.792 176.297 185.365 176.297H176.756C175.329 176.297 174.178 175.138 174.178 173.71C174.178 172.283 175.329 171.123 176.756 171.123H185.365C186.792 171.123 187.952 172.283 187.952 173.71Z" fill="#878787"/>
<path d="M168.718 173.71C168.718 175.138 167.559 176.297 166.131 176.297H157.522C156.095 176.297 154.935 175.138 154.935 173.71C154.935 172.283 156.095 171.123 157.522 171.123H166.131C167.559 171.123 168.718 172.283 168.718 173.71Z" fill="#878787"/>
<path d="M149.484 173.71C149.484 175.138 148.325 176.297 146.897 176.297H138.288C136.861 176.297 135.701 175.138 135.701 173.71C135.701 172.283 136.861 171.123 138.288 171.123H146.897C148.325 171.123 149.484 172.283 149.484 173.71Z" fill="#878787"/>
<path d="M290.849 184.283H34.2593" stroke="#1D2342" stroke-width="2.02" stroke-linecap="round" stroke-linejoin="round"/>
<path d="M258.456 37.5107H64.9658C64.3696 37.5107 63.8864 37.994 63.8864 38.5902V176.502C63.8864 177.098 64.3696 177.581 64.9658 177.581H258.456C259.052 177.581 259.535 177.098 259.535 176.502V38.5902C259.535 37.994 259.052 37.5107 258.456 37.5107Z" fill="white"/>
<path d="M257.127 39.2105V175.679H66.0216V39.2105H257.127ZM257.127 37.0742H66.0216C64.8409 37.0742 63.8893 38.0276 63.8893 39.2105V175.679C63.8893 176.853 64.8409 177.815 66.0216 177.815H257.127C258.299 177.815 259.26 176.862 259.26 175.679V39.2105C259.26 38.0364 258.308 37.0742 257.127 37.0742Z" fill="#1D2342" fill-opacity="0.6"/>
<path d="M258.456 38.5908H64.9658V52.927H258.456V38.5908Z" fill="#516671"/>
<path d="M230.8 45.7541C230.8 48.3769 228.668 50.5091 226.045 50.5091C223.423 50.5091 221.29 48.3769 221.29 45.7541C221.29 43.1313 223.423 40.9902 226.045 40.9902C228.668 40.9902 230.8 43.1224 230.8 45.7541Z" fill="#1E1E1E"/>
<path d="M182.885 45.7547C182.885 47.753 181.261 49.3766 179.263 49.3766H74.44C72.4416 49.3766 70.818 47.753 70.818 45.7547C70.818 43.7563 72.4416 42.1416 74.44 42.1416H179.263C181.261 42.1416 182.885 43.7652 182.885 45.7547Z" fill="#1E1E1E" fill-opacity="0.13"/>
<path d="M252.987 57.4141H70.8358V75.0154H252.987V57.4141Z" fill="#EDEDED"/>
<path d="M253.353 78.3613H70.4701V103.34H253.353V78.3613Z" fill="#EDEDED"/>
<path d="M126.673 107.801H70.4701V170.249H126.673V107.801Z" fill="#EDEDED"/>
<path d="M249.784 107.801H128.457V170.249H249.784V107.801Z" fill="#EDEDED"/>
<path d="M119.536 82.8213H73.1464V98.8793H119.536V82.8213Z" fill="#C6C6C6"/>
<path d="M140.947 82.8213H123.105V98.8793H140.947V82.8213Z" fill="#C6C6C6"/>
<path d="M161.465 82.8213H144.515V98.8793H161.465V82.8213Z" fill="#C6C6C6"/>
<path d="M182.876 82.8213H165.034V98.8793H182.876V82.8213Z" fill="#C6C6C6"/>
<path d="M203.395 82.8213H186.444V98.8793H203.395V82.8213Z" fill="#C6C6C6"/>
<path d="M224.805 82.8213H206.963V98.8793H224.805V82.8213Z" fill="#C6C6C6"/>
<path d="M97.1482 103.741H44.5186C43.9663 103.741 43.5186 104.189 43.5186 104.741V111.075C43.5186 111.627 43.9663 112.075 44.5186 112.075H97.1482C97.7005 112.075 98.1482 111.627 98.1482 111.075V104.741C98.1482 104.189 97.7005 103.741 97.1482 103.741Z" fill="#3A75F6"/>
<path d="M97.1482 114.852H44.5186C43.9663 114.852 43.5186 115.299 43.5186 115.852V123.111C43.5186 123.663 43.9663 124.111 44.5186 124.111H97.1482C97.7005 124.111 98.1482 123.663 98.1482 123.111V115.852C98.1482 115.299 97.7005 114.852 97.1482 114.852Z" fill="#3A75F6"/>
<path d="M97.1482 126.889H44.5186C43.9663 126.889 43.5186 127.336 43.5186 127.889V134.222C43.5186 134.774 43.9663 135.222 44.5186 135.222H97.1482C97.7005 135.222 98.1482 134.774 98.1482 134.222V127.889C98.1482 127.336 97.7005 126.889 97.1482 126.889Z" fill="#3A75F6"/>
<path d="M97.1482 149.111H44.5186C43.9663 149.111 43.5186 149.559 43.5186 150.111V156.445C43.5186 156.997 43.9663 157.445 44.5186 157.445H97.1482C97.7005 157.445 98.1482 156.997 98.1482 156.445V150.111C98.1482 149.559 97.7005 149.111 97.1482 149.111Z" fill="#3A75F6"/>
<path d="M97.1482 137.074H44.5186C43.9663 137.074 43.5186 137.522 43.5186 138.074V145.333C43.5186 145.886 43.9663 146.333 44.5186 146.333H97.1482C97.7005 146.333 98.1482 145.886 98.1482 145.333V138.074C98.1482 137.522 97.7005 137.074 97.1482 137.074Z" fill="#3A75F6"/>
<path d="M97.1482 160.223H44.5186C43.9663 160.223 43.5186 160.67 43.5186 161.223V168.482C43.5186 169.034 43.9663 169.482 44.5186 169.482H97.1482C97.7005 169.482 98.1482 169.034 98.1482 168.482V161.223C98.1482 160.67 97.7005 160.223 97.1482 160.223Z" fill="#3A75F6"/>
<path d="M105.869 66.2105C105.869 67.8698 104.522 69.2169 102.863 69.2169H78.8292C77.1698 69.2169 75.8228 67.8698 75.8228 66.2105C75.8228 64.5512 77.1698 63.2041 78.8292 63.2041H102.863C104.522 63.2041 105.869 64.5512 105.869 66.2105Z" fill="#C6C6C6"/>
<path d="M141.91 66.2105C141.91 67.8698 140.563 69.2169 138.913 69.2169H114.888C113.229 69.2169 111.882 67.8698 111.882 66.2105C111.882 64.5512 113.229 63.2041 114.888 63.2041H138.913C140.572 63.2041 141.91 64.5512 141.91 66.2105Z" fill="#C6C6C6"/>
<path d="M177.952 66.2105C177.952 67.8698 176.605 69.2169 174.945 69.2169H150.921C149.261 69.2169 147.914 67.8698 147.914 66.2105C147.914 64.5512 149.252 63.2041 150.921 63.2041H174.945C176.605 63.2041 177.952 64.5512 177.952 66.2105Z" fill="#C6C6C6"/>
<ellipse opacity="0.8" cx="100.722" cy="122.52" rx="12.0435" ry="12.0435" fill="black" fill-opacity="0.35"/>
<ellipse opacity="0.8" cx="100.722" cy="122.52" rx="9.36717" ry="9.36717" fill="#011E3B" fill-opacity="0.21"/>
<circle opacity="0.8" cx="100.722" cy="122.52" r="5.79872" fill="#3E5D7B" fill-opacity="0.49"/>
<path d="M107.618 145.269L104.736 123.858L123.47 135.563H112.518L107.618 145.269Z" fill="#3E5D7B" stroke="#F6FAFF"/>
</g>
</g>
<defs>
<clipPath id="clip0_853_51836">
<rect width="283.709" height="186.469" fill="white" transform="translate(34.2593 19.4814)"/>
</clipPath>
</defs>
</svg>
