<svg width="24" height="25" viewBox="0 0 24 25" fill="none" xmlns="http://www.w3.org/2000/svg">
<path d="M23.6954 1.29001C23.5604 1.15569 23.3899 1.06268 23.2039 1.02194C23.0179 0.981196 22.8241 0.994405 22.6454 1.06001L0.645352 9.06001C0.45562 9.13198 0.292272 9.25996 0.177003 9.42697C0.0617345 9.59397 0 9.79209 0 9.99501C0 10.1979 0.0617345 10.3961 0.177003 10.5631C0.292272 10.7301 0.45562 10.858 0.645352 10.93L9.23535 14.36L15.5754 8.00001L16.9854 9.41001L10.6154 15.78L14.0554 24.37C14.1295 24.5561 14.2577 24.7156 14.4235 24.8279C14.5894 24.9403 14.7851 25.0002 14.9854 25C15.1874 24.9959 15.3835 24.9306 15.5478 24.8128C15.712 24.6949 15.8367 24.5301 15.9054 24.34L23.9054 2.34001C23.9735 2.16309 23.9899 1.97044 23.9527 1.78454C23.9156 1.59863 23.8263 1.42712 23.6954 1.29001Z" fill="#0C2744"/>
</svg>
