<svg width="24" height="24" viewBox="0 0 24 24" fill="none" xmlns="http://www.w3.org/2000/svg">
<rect width="24" height="24" fill="transparent"/>
<g clip-path="url(#clip0_7295_24601)">
<path fill-rule="evenodd" clip-rule="evenodd" d="M21.1693 6.58334C21.1693 8.65441 19.4904 10.3333 17.4193 10.3333C16.252 10.3333 15.2094 9.80007 14.5216 8.96387L10.2302 11.1096C10.2993 11.3943 10.3359 11.6917 10.3359 11.9976C10.3359 12.3051 10.2989 12.6039 10.2291 12.8898L14.5216 15.0361C15.2094 14.1999 16.252 13.6667 17.4193 13.6667C19.4904 13.6667 21.1693 15.3456 21.1693 17.4167C21.1693 19.4878 19.4904 21.1667 17.4193 21.1667C15.3482 21.1667 13.6693 19.4878 13.6693 17.4167C13.6693 17.1099 13.7061 16.8118 13.7756 16.5265L9.48222 14.3798C8.79444 15.2151 7.75238 15.7476 6.58594 15.7476C4.51487 15.7476 2.83594 14.0687 2.83594 11.9976C2.83594 9.92655 4.51487 8.24762 6.58594 8.24762C7.75395 8.24762 8.79724 8.78162 9.48499 9.61879L13.7755 7.47351C13.7061 7.18818 13.6693 6.89006 13.6693 6.58334C13.6693 4.51228 15.3482 2.83334 17.4193 2.83334C19.4904 2.83334 21.1693 4.51228 21.1693 6.58334ZM15.3384 6.58334C15.3384 7.73262 16.27 8.66429 17.4193 8.66429C18.5685 8.66429 19.5002 7.73262 19.5002 6.58334C19.5002 5.43407 18.5685 4.5024 17.4193 4.5024C16.27 4.5024 15.3384 5.43407 15.3384 6.58334ZM15.3384 17.4167C15.3384 18.5659 16.27 19.4976 17.4193 19.4976C18.5685 19.4976 19.5002 18.5659 19.5002 17.4167C19.5002 16.2674 18.5685 15.3358 17.4193 15.3358C16.27 15.3358 15.3384 16.2674 15.3384 17.4167ZM6.58594 14.0786C5.43666 14.0786 4.505 13.1469 4.505 11.9976C4.505 10.8483 5.43666 9.91668 6.58594 9.91668C7.73521 9.91668 8.66688 10.8483 8.66688 11.9976C8.66688 13.1469 7.73521 14.0786 6.58594 14.0786Z" fill="#220047"/>
</g>
<defs>
<clipPath id="clip0_7295_24601">
<rect width="20" height="20" fill="transparent" transform="translate(2 2)"/>
</clipPath>
</defs>
</svg>
