<svg width="15" height="16" viewBox="0 0 15 16" fill="none" xmlns="http://www.w3.org/2000/svg">
<path d="M10.5889 3.87745C11.0179 4.30638 11.5881 4.54298 12.1957 4.54298C12.8034 4.54298 13.3736 4.30638 13.8026 3.87745C14.2315 3.44851 14.4681 2.8783 14.4681 2.27064C14.4681 1.66298 14.2315 1.09277 13.8026 0.66383C13.3736 0.234894 12.8034 0 12.1957 0C11.5881 0 11.0179 0.236596 10.5889 0.665532C10.16 1.09447 9.92341 1.66468 9.92341 2.27234C9.92341 2.49872 9.95575 2.72 10.0204 2.93106L3.93021 6.44596C3.91319 6.42723 3.89617 6.41021 3.87745 6.39149C3.44851 5.96255 2.8783 5.72596 2.27064 5.72596C1.66298 5.72596 1.09277 5.96255 0.66383 6.39149C0.234894 6.82043 0 7.39064 0 7.9983C0 8.60596 0.236596 9.17617 0.665532 9.60511C1.09447 10.034 1.66468 10.2706 2.27234 10.2706C2.88 10.2706 3.45021 10.034 3.87915 9.60511C3.89617 9.58809 3.91489 9.56936 3.93192 9.55064L10.0238 13.0672C9.95915 13.2783 9.92681 13.5013 9.92681 13.7277C9.92681 14.3353 10.1634 14.9055 10.5923 15.3345C11.0213 15.7634 11.5898 16 12.1957 16C12.8017 16 13.3736 15.7634 13.8026 15.3345C14.2315 14.9055 14.4681 14.3353 14.4681 13.7277C14.4681 13.12 14.2315 12.5498 13.8026 12.1209C13.3736 11.6919 12.8034 11.4553 12.1957 11.4553C11.5881 11.4553 11.0179 11.6919 10.5889 12.1209C10.5719 12.1379 10.5549 12.1566 10.5379 12.1736L4.44596 8.65872C4.51064 8.44766 4.54298 8.22468 4.54298 7.9983C4.54298 7.77191 4.51064 7.54894 4.44596 7.33787L10.5362 3.82128C10.5532 3.84 10.5719 3.85872 10.5889 3.87745ZM12.1957 1.02979C12.88 1.02979 13.4366 1.58638 13.4366 2.27064C13.4366 2.95489 12.88 3.51149 12.1957 3.51149C11.5115 3.51149 10.9549 2.95489 10.9549 2.27064C10.9549 1.58638 11.5115 1.02979 12.1957 1.02979ZM2.27234 9.23915C1.58809 9.23915 1.03149 8.68255 1.03149 7.9983C1.03149 7.31404 1.58809 6.75745 2.27234 6.75745C2.9566 6.75745 3.51319 7.31404 3.51319 7.9983C3.51319 8.68255 2.9566 9.23915 2.27234 9.23915ZM12.1957 12.4868C12.88 12.4868 13.4366 13.0434 13.4366 13.7277C13.4366 14.4119 12.88 14.9685 12.1957 14.9685C11.5115 14.9685 10.9549 14.4119 10.9549 13.7277C10.9549 13.0434 11.5115 12.4868 12.1957 12.4868Z" fill="white" fill-opacity="0.8"/>
</svg>
