<?xml version="1.0" encoding="UTF-8"?><svg id="Layer_1" xmlns="http://www.w3.org/2000/svg" viewBox="0 0 373.59 348.51"><defs><style></style></defs><path class="cls-1" d="m333.49,47.41H40.1c-7.79,0-14.14,6.34-14.14,14.14v14.13h9.42v-14.13c0-2.6,2.11-4.71,4.71-4.71h293.39c2.6,0,4.71,2.11,4.71,4.71v155.49H35.39V85.1h-9.42v164.91c0,7.79,6.34,14.13,14.14,14.13h132.35c-.84,9.18-4.54,21.68-17.54,28.27h-52.92c-7.79,0-14.14,6.34-14.14,14.13v14.14h146.07v-9.42H97.27v-4.71c0-2.6,2.11-4.71,4.71-4.71h169.63c2.6,0,4.71,2.11,4.71,4.71v4.71h-14.14v9.42h23.56v-14.14c0-7.79-6.34-14.13-14.14-14.13h-52.92c-13-6.59-16.7-19.1-17.54-28.27h132.35c7.79,0,14.14-6.34,14.14-14.13V61.54c0-7.79-6.34-14.14-14.14-14.14h0Zm-130.25,245.01h-32.88c6.67-7.19,10.68-16.91,11.55-28.27h9.79c.86,11.37,4.88,21.08,11.55,28.27Zm130.25-37.69H40.1c-2.6,0-4.71-2.11-4.71-4.71v-23.56h302.81v23.56c0,2.6-2.11,4.71-4.71,4.71Z"/><path class="cls-1" d="m243.34,311.27h9.42v9.42h-9.42v-9.42Z"/><path class="cls-1" d="m182.08,235.88h9.42v9.42h-9.42v-9.42Z"/><path class="cls-1" d="m120.83,155.78c-12.99,0-23.56,10.57-23.56,23.56s10.57,23.56,23.56,23.56,23.56-10.57,23.56-23.56c0-3.29-.68-6.42-1.9-9.26l15.46-10.7c6.03,6.48,14.62,10.54,24.14,10.54,16.59,0,30.35-12.31,32.64-28.27h14.95c2.19,10.74,11.71,18.85,23.08,18.85,12.99,0,23.56-10.57,23.56-23.56s-10.57-23.56-23.56-23.56c-11.38,0-20.9,8.11-23.08,18.85h-14.95c-2.29-15.96-16.05-28.27-32.64-28.27-9.52,0-18.11,4.06-24.14,10.54l-15.46-10.7c1.22-2.85,1.9-5.98,1.9-9.26,0-12.99-10.57-23.56-23.56-23.56s-23.56,10.57-23.56,23.56,10.57,23.56,23.56,23.56c6.31,0,12.05-2.5,16.28-6.56l15.46,10.7c-2.22,4.43-3.47,9.42-3.47,14.7s1.25,10.27,3.47,14.7l-15.46,10.7c-4.23-4.06-9.97-6.56-16.28-6.56h0Zm131.93-32.98c7.79,0,14.14,6.34,14.14,14.14s-6.34,14.14-14.14,14.14-14.14-6.34-14.14-14.14,6.34-14.14,14.14-14.14Zm-131.93-14.14c-7.79,0-14.14-6.34-14.14-14.14s6.34-14.14,14.14-14.14,14.14,6.34,14.14,14.14-6.34,14.14-14.14,14.14Zm61.25,4.71c12.99,0,23.56,10.57,23.56,23.56s-10.57,23.56-23.56,23.56-23.56-10.57-23.56-23.56,10.57-23.56,23.56-23.56Zm-61.25,80.1c-7.79,0-14.14-6.34-14.14-14.14s6.34-14.14,14.14-14.14,14.14,6.34,14.14,14.14-6.34,14.14-14.14,14.14Z"/><path class="cls-1" d="m319.35,66.25h9.42v9.42h-9.42v-9.42Z"/><path class="cls-1" d="m319.35,85.1h9.42v9.42h-9.42v-9.42Z"/></svg>