<svg width="32" height="32" viewBox="0 0 32 32" fill="none" xmlns="http://www.w3.org/2000/svg">
<path fill-rule="evenodd" clip-rule="evenodd" d="M6.47298 25.974L6.04248 26.2225C4.26146 27.2508 1.96405 26.633 0.937229 24.8545C-0.089594 23.0761 0.524178 20.7775 2.3052 19.7493C2.7884 19.4703 4.72114 18.3545 5.2044 18.0754C6.97883 16.4831 8.27063 14.2612 9.41585 12.2727C9.42012 12.2642 9.42463 12.2558 9.4294 12.2476C9.53437 12.065 9.63878 11.8846 9.74212 11.7068C9.86705 11.491 9.99053 11.2791 10.1131 11.0723C10.1134 11.0717 10.1138 11.0711 10.1141 11.0706L10.1143 11.0701C10.393 10.6009 10.8579 10.3381 11.4007 10.3419C11.9435 10.3457 12.4066 10.6147 12.6774 11.0838L14.4841 14.2131C15.5664 13.8129 16.8115 14.2381 17.4081 15.2712C18.0045 16.3043 17.7502 17.5952 16.8624 18.3324L18.6691 21.4617C18.9479 21.9446 18.9411 22.4984 18.6522 22.9738C18.3637 23.4484 17.8804 23.7094 17.3232 23.6875H17.3229L17.3221 23.6874C17.0918 23.6785 16.8606 23.6693 16.6286 23.6611C14.2738 23.5804 11.8342 23.607 9.47389 24.3633L12.1212 28.9485C12.2598 29.1885 12.1775 29.4955 11.9374 29.6341L11.3983 29.9454C10.3116 30.5728 8.91157 30.1977 8.28412 29.111L6.47298 25.974ZM5.31633 19.17L2.80716 20.6187C1.50451 21.3707 1.05569 23.0519 1.80663 24.3526C2.55762 25.6533 4.23794 26.1052 5.54052 25.3531L8.0497 23.9044L5.31633 19.17ZM9.86234 13.498C8.82492 15.268 7.64807 17.1385 6.1356 18.5812L8.9612 23.4753C10.9919 22.7898 13.0809 22.6238 15.1337 22.6282L9.86234 13.498ZM17.7997 21.9637L11.8079 11.5858C11.7202 11.4337 11.5696 11.347 11.3937 11.3458C11.218 11.3446 11.0682 11.4305 10.9779 11.5821L10.9775 11.5828C10.8039 11.8784 10.6252 12.1844 10.4441 12.4977L16.303 22.6457C16.4724 22.6509 16.6414 22.6568 16.81 22.6631C16.9946 22.6696 17.1786 22.6768 17.3621 22.6843H17.3625C17.5436 22.6915 17.7006 22.6065 17.7943 22.4523C17.8877 22.2987 17.8898 22.1197 17.7997 21.9637ZM16.3475 17.4406C16.7606 16.9995 16.8565 16.3236 16.5386 15.7731C16.2208 15.2226 15.5876 14.9677 14.999 15.1049L16.3475 17.4406ZM7.34244 25.472L9.15357 28.609C9.5047 29.2171 10.2882 29.4271 10.8964 29.076L11.0007 29.0157L8.55166 24.7738L7.34244 25.472ZM31.5608 8.39737C31.5608 9.23715 30.876 9.92038 30.0362 9.92038H25.6304L23.7781 11.8486C23.6361 11.9964 23.4187 12.043 23.2287 11.9665C23.0386 11.89 22.9141 11.7057 22.9141 11.5009V9.92038H22.5512C21.7114 9.92038 21.0266 9.23715 21.0266 8.39737V3.27486C21.0266 2.43527 21.7117 1.75022 22.5512 1.75022H30.0362C30.8757 1.75022 31.5608 2.43527 31.5608 3.27486V8.39737ZM30.5569 8.39737V3.27486C30.5569 2.98812 30.3229 2.75414 30.0362 2.75414H22.5512C22.2645 2.75414 22.0306 2.98812 22.0306 3.27486V8.39737C22.0306 8.68387 22.2647 8.91646 22.5512 8.91646H23.4161C23.6933 8.91646 23.9181 9.14122 23.9181 9.41842V10.2537L25.0545 9.07069C25.1492 8.97218 25.2799 8.91646 25.4165 8.91646H30.0362C30.3227 8.91646 30.5569 8.68387 30.5569 8.39737ZM23.5213 4.73293C23.2442 4.73293 23.0193 4.50799 23.0193 4.23097C23.0193 3.95395 23.2442 3.72901 23.5213 3.72901H28.9764C29.2535 3.72901 29.4783 3.95395 29.4783 4.23097C29.4783 4.50799 29.2535 4.73293 28.9764 4.73293H23.5213ZM23.5213 6.35584C23.2442 6.35584 23.0193 6.13096 23.0193 5.85387C23.0193 5.57685 23.2442 5.35191 23.5213 5.35191H28.9764C29.2535 5.35191 29.4783 5.57685 29.4783 5.85387C29.4783 6.13096 29.2535 6.35584 28.9764 6.35584H23.5213ZM23.5213 7.97723C23.2442 7.97723 23.0193 7.75229 23.0193 7.47527C23.0193 7.19825 23.2442 6.97331 23.5213 6.97331H28.9764C29.2535 6.97331 29.4783 7.19825 29.4783 7.47527C29.4783 7.75229 29.2535 7.97723 28.9764 7.97723H23.5213ZM26.8268 12.6753C29.4396 12.6753 31.5608 14.7965 31.5608 17.4093C31.5608 20.022 29.4396 22.1433 26.8268 22.1433C24.214 22.1433 22.0928 20.022 22.0928 17.4093C22.0928 14.7965 24.214 12.6753 26.8268 12.6753ZM26.8268 13.6792C24.7681 13.6792 23.0967 15.3506 23.0967 17.4093C23.0967 19.468 24.7681 21.1393 26.8268 21.1393C28.8855 21.1393 30.5569 19.468 30.5569 17.4093C30.5569 15.3506 28.8855 13.6792 26.8268 13.6792ZM29.0064 17.844L25.9528 19.607C25.7975 19.6966 25.6062 19.6966 25.4509 19.607C25.2956 19.5173 25.1999 19.3516 25.1999 19.1723V15.6463C25.1999 15.4669 25.2956 15.3012 25.4509 15.2116C25.6062 15.1219 25.7975 15.1219 25.9528 15.2116L29.0064 16.9746C29.1617 17.0642 29.2574 17.2299 29.2574 17.4093C29.2574 17.5886 29.1617 17.7543 29.0064 17.844ZM27.7515 17.4093L26.2038 16.5157V18.3029L27.7515 17.4093ZM13.9148 10.4485C12.9187 9.86272 11.4227 8.8199 10.3745 7.59907C9.6182 6.71806 9.10087 5.73987 9.08317 4.77303C9.05707 3.32575 9.87314 2.28393 10.9859 1.90489C11.9514 1.57598 13.1694 1.74558 14.2633 2.65864C15.3572 1.74664 16.5754 1.57698 17.5413 1.90558C18.6547 2.28431 19.4713 3.32562 19.4451 4.77296C19.4275 5.7398 18.9101 6.71806 18.1538 7.59907C17.1057 8.8199 15.6097 9.86272 14.6139 10.4483C14.393 10.58 14.1358 10.58 13.9148 10.4485ZM14.2642 9.48795C15.1832 8.93146 16.4744 8.014 17.3921 6.94507C17.9833 6.25645 18.4276 5.51047 18.4414 4.75477C18.4585 3.80493 17.9487 3.10457 17.218 2.85598C16.4465 2.59358 15.4691 2.83094 14.6211 3.693C14.5266 3.78893 14.3977 3.84296 14.2631 3.84289C14.1285 3.84289 13.9996 3.78881 13.9052 3.69281C13.0573 2.83006 12.0805 2.59257 11.3096 2.85516C10.5792 3.10395 10.0698 3.80487 10.087 4.75477C10.1008 5.51047 10.5451 6.25645 11.1363 6.94507C12.0539 8.014 13.3452 8.93146 14.2642 9.48795ZM16.885 12.3536C16.8132 12.6212 16.5377 12.7803 16.2702 12.7086C16.0026 12.6369 15.8435 12.3614 15.9152 12.0938L16.3944 10.3057C16.4661 10.0381 16.7415 9.87904 17.0091 9.95075C17.2767 10.0225 17.4357 10.2979 17.3641 10.5655L16.885 12.3536ZM19.4081 18.17C19.1406 18.0981 18.9818 17.8224 19.0538 17.5549C19.1258 17.2874 19.4014 17.1286 19.6689 17.2006L21.4583 17.682C21.7259 17.7539 21.8846 18.0295 21.8126 18.297C21.7407 18.5646 21.4651 18.7233 21.1976 18.6514L19.4081 18.17ZM19.3503 14.7413C19.1103 14.8798 18.8031 14.7974 18.6646 14.5576C18.5261 14.3176 18.6084 14.0104 18.8483 13.8718L20.4545 12.9445C20.6944 12.806 21.0017 12.8884 21.1401 13.1282C21.2787 13.3682 21.1964 13.6754 20.9564 13.814L19.3503 14.7413Z" fill="#220047"/>
</svg>
