<svg width="32" height="32" viewBox="0 0 32 32" fill="none" xmlns="http://www.w3.org/2000/svg">
<g clip-path="url(#clip0_74_1344)">
<path d="M9.2266 14.4021C9.46822 14.4021 9.6641 14.2062 9.6641 13.9646V7.60143L15.1755 4.4195C15.276 4.36143 15.3493 4.26581 15.3793 4.15362C15.4093 4.04143 15.3935 3.922 15.3354 3.8215C14.077 1.64668 11.7363 0.295685 9.2266 0.295685C5.33747 0.295685 2.17341 3.45975 2.17341 7.34887C2.17341 11.238 5.33747 14.4021 9.2266 14.4021V14.4021ZM14.3452 3.88843L9.66403 6.59106V1.18693C11.5492 1.322 13.2832 2.32231 14.3452 3.88843ZM8.7891 1.18637V13.5117C5.58572 13.2866 3.04841 10.6086 3.04841 7.34887C3.04841 4.08918 5.58578 1.41156 8.7891 1.18637ZM28.4853 19.6284C27.2357 20.3498 24.1261 21.8658 21.8032 22.7462C21.9011 22.3107 21.8308 21.8522 21.5909 21.4484C21.2521 20.8783 20.6557 20.5515 19.9962 20.5736C17.124 20.5722 15.2657 19.8014 13.626 19.1212C12.1385 18.5042 10.8537 17.9712 9.3361 18.3386C7.80072 18.7102 6.16522 19.9851 4.05297 22.461C3.51103 22.1958 2.83747 22.2868 2.3876 22.7366L0.378095 24.7459C0.20722 24.9167 0.20722 25.1937 0.378095 25.3646L6.5896 31.5762C6.6716 31.6582 6.78291 31.7043 6.89897 31.7043C7.01503 31.7043 7.12628 31.6582 7.20835 31.5762L9.21772 29.5667C9.49116 29.2934 9.64172 28.9288 9.64172 28.5402C9.64172 28.3549 9.60653 28.1754 9.54103 28.0083C10.8288 27.4655 12.2636 27.4186 14.0985 27.5282C14.5093 27.5528 14.9405 27.5875 15.397 27.6242C16.4796 27.7115 17.5991 27.8021 18.6807 27.7777C20.9513 27.7275 22.3183 27.0896 24.1445 26.1222C26.0067 25.1358 29.9778 22.7807 30.7189 21.8065C31.2398 21.1217 31.2702 20.3316 30.7965 19.7937C30.3607 19.2989 29.477 19.0559 28.4853 19.6283L28.4853 19.6284ZM8.59903 28.948L6.89897 30.6481L1.30616 25.0552L3.00622 23.3552C3.2311 23.1303 3.59703 23.1303 3.82191 23.3552L8.5991 28.1324C8.70722 28.2405 8.76678 28.3854 8.76678 28.5402C8.76678 28.695 8.70716 28.8399 8.59903 28.948ZM30.0225 21.2768C29.499 21.9649 26.1548 24.0672 23.735 25.349C22.0193 26.2578 20.7392 26.857 18.6613 26.9029C17.6248 26.9257 16.5279 26.8375 15.4672 26.7521C15.0062 26.7149 14.5706 26.6799 14.1508 26.6547C12.5283 26.5577 10.6726 26.5235 8.99703 27.2928L4.72516 23.0209C8.91178 18.1136 10.4781 18.7626 13.2908 19.9293C14.9223 20.6061 16.953 21.4485 20.0039 21.4485C20.0094 21.4485 20.0149 21.4484 20.0205 21.4482C20.3584 21.4347 20.6648 21.6026 20.8388 21.8953C21.0128 22.1881 21.0133 22.5367 20.8403 22.8277C20.5272 23.3546 19.3986 23.6279 17.8212 23.5593C16.3452 23.4949 14.859 23.142 14.275 22.8381C14.0607 22.7264 13.7965 22.8097 13.6849 23.0242C13.5733 23.2386 13.6567 23.5027 13.871 23.6142C14.6592 24.0244 16.3045 24.3689 17.7831 24.4334C17.9483 24.4406 18.1192 24.4449 18.2932 24.4449C19.0809 24.4449 19.9308 24.3584 20.6 24.0759C22.9425 23.4156 27.3126 21.3159 28.923 20.3862C29.483 20.0628 29.9464 20.1522 30.14 20.372C30.3318 20.5897 30.288 20.928 30.0227 21.2768H30.0225ZM22.9796 7.86268C19.6692 7.86268 16.9759 10.5559 16.9759 13.8664C16.9759 17.1768 19.6692 19.8701 22.9796 19.8701C26.29 19.8701 28.9833 17.1768 28.9833 13.8664C28.9833 10.5559 26.29 7.86268 22.9796 7.86268ZM22.9796 18.995C20.1516 18.995 17.8509 16.6942 17.8509 13.8663C17.8509 11.0384 20.1517 8.73762 22.9796 8.73762C25.8075 8.73762 28.1083 11.0384 28.1083 13.8663C28.1083 16.6942 25.8075 18.995 22.9796 18.995ZM22.9796 9.3685C20.4995 9.3685 18.4817 11.3862 18.4817 13.8664C18.4817 16.3465 20.4995 18.3642 22.9796 18.3642C25.4597 18.3642 27.4775 16.3465 27.4775 13.8664C27.4775 11.3862 25.4597 9.3685 22.9796 9.3685ZM22.9796 17.4892C20.982 17.4892 19.3567 15.8641 19.3567 13.8664C19.3567 11.8687 20.9819 10.2435 22.9796 10.2435C24.9773 10.2435 26.6025 11.8687 26.6025 13.8664C26.6025 15.8641 24.9773 17.4892 22.9796 17.4892ZM24.6717 14.9745C24.6145 15.3762 24.3572 15.7271 23.9835 15.9131C23.8144 15.9972 23.6212 16.0552 23.4171 16.0872V16.4252C23.4171 16.6669 23.2212 16.8627 22.9796 16.8627C22.738 16.8627 22.5421 16.6669 22.5421 16.4252V16.0697C22.0273 15.9704 21.5575 15.7126 21.3293 15.2958C21.2133 15.0839 21.291 14.818 21.503 14.702C21.715 14.5859 21.9808 14.6638 22.0968 14.8756C22.2816 15.2131 23.135 15.3579 23.5937 15.1296C23.7113 15.071 23.7885 14.9695 23.8054 14.8511C23.8134 14.795 23.8128 14.6881 23.7188 14.6015C23.6433 14.5319 23.486 14.4297 23.1662 14.3388C23.0749 14.3128 22.973 14.2887 22.8651 14.2632C22.5049 14.178 22.0967 14.0814 21.7913 13.8445C21.5025 13.6204 21.3302 13.3156 21.306 12.9862C21.2825 12.6638 21.4007 12.3496 21.6389 12.1014C21.8533 11.8781 22.1762 11.7234 22.5422 11.6556V11.3076C22.5422 11.066 22.738 10.8701 22.9797 10.8701C23.2213 10.8701 23.4172 11.066 23.4172 11.3076V11.6583C23.942 11.7568 24.3523 12.0214 24.5536 12.3949C24.6682 12.6076 24.5887 12.8729 24.376 12.9875C24.1632 13.1022 23.8979 13.0226 23.7833 12.8099C23.7038 12.6624 23.4731 12.5459 23.1812 12.5062C22.8133 12.456 22.4301 12.5407 22.2702 12.7074C22.206 12.7742 22.1735 12.8506 22.1788 12.9224C22.1862 13.0233 22.2638 13.1036 22.3278 13.1532C22.483 13.2737 22.793 13.347 23.0666 13.4117C23.1791 13.4383 23.2954 13.4658 23.4056 13.4971C23.7953 13.6079 24.1002 13.763 24.3118 13.958C24.5953 14.2193 24.7265 14.5897 24.6717 14.9744L24.6717 14.9745ZM28.8738 10.4634C28.753 10.2541 28.8247 9.98656 29.0339 9.86575L29.9773 9.32112C30.1866 9.2005 30.4541 9.272 30.5749 9.48125C30.6957 9.69056 30.624 9.95806 30.4148 10.0789L29.4714 10.6235C29.4025 10.6632 29.3273 10.6821 29.253 10.6821C29.1018 10.6821 28.9548 10.6037 28.8737 10.4633L28.8738 10.4634ZM18.4343 6.86868C18.3135 6.65943 18.3852 6.39187 18.5945 6.27106C18.8037 6.15031 19.0713 6.22193 19.1921 6.43118L19.7367 7.37456C19.8575 7.58381 19.7858 7.85137 19.5766 7.97218C19.5077 8.01193 19.4325 8.03081 19.3582 8.03081C19.207 8.03081 19.06 7.95237 18.979 7.812L18.4343 6.86868ZM26.2225 7.37456L26.7672 6.43118C26.888 6.22187 27.1555 6.15043 27.3648 6.27106C27.574 6.39193 27.6457 6.6595 27.5249 6.86868L26.9803 7.81206C26.8993 7.95237 26.7522 8.03087 26.601 8.03087C26.5268 8.03087 26.4516 8.01193 26.3827 7.97225C26.1734 7.85137 26.1017 7.58381 26.2225 7.37462V7.37456ZM22.5422 6.62287V5.53356C22.5422 5.29193 22.738 5.09606 22.9797 5.09606C23.2213 5.09606 23.4172 5.29193 23.4172 5.53356V6.62287C23.4172 6.8645 23.2213 7.06037 22.9797 7.06037C22.738 7.06037 22.5422 6.8645 22.5422 6.62287ZM31.75 13.8664C31.75 14.108 31.5541 14.3039 31.3125 14.3039H30.2232C29.9815 14.3039 29.7857 14.108 29.7857 13.8664C29.7857 13.6247 29.9815 13.4289 30.2232 13.4289H31.3125C31.5541 13.4289 31.75 13.6247 31.75 13.8664ZM10.5375 8.35831V14.4984C10.5375 14.623 10.5907 14.7417 10.6835 14.8247C10.7642 14.8967 10.8681 14.9359 10.975 14.9359C10.9913 14.9359 11.0077 14.935 11.0242 14.9332C14.5896 14.5308 17.2783 11.518 17.2783 7.92531C17.2783 6.94862 17.0819 6.00237 16.6947 5.113C16.6449 4.99875 16.5488 4.91112 16.4304 4.87212C16.312 4.83312 16.1826 4.8465 16.0748 4.90875L10.7563 7.97943C10.6209 8.05762 10.5375 8.20206 10.5375 8.35831ZM11.4125 8.61087L16.0709 5.92137C16.2917 6.56375 16.4032 7.23568 16.4032 7.92531C16.4032 10.9066 14.2898 13.4319 11.4125 13.9892V8.61081L11.4125 8.61087Z" fill="#220047"/>
</g>
<defs>
<clipPath id="clip0_74_1344">
<rect width="32" height="32" fill="white"/>
</clipPath>
</defs>
</svg>
