<svg xmlns="http://www.w3.org/2000/svg" width="18" height="18" viewBox="0 0 18 18" fill="none">
<path d="M6.60039 8.4002C5.80474 8.4002 5.04168 8.08412 4.47907 7.52152C3.91646 6.95891 3.60039 6.19584 3.60039 5.4002V3.0002C3.60039 2.84107 3.6636 2.68845 3.77613 2.57593C3.88865 2.46341 4.04126 2.4002 4.20039 2.4002H4.80039C4.95952 2.4002 5.11213 2.33698 5.22465 2.22446C5.33718 2.11194 5.40039 1.95933 5.40039 1.8002C5.40039 1.64107 5.33718 1.48845 5.22465 1.37593C5.11213 1.26341 4.95952 1.2002 4.80039 1.2002H4.20039C3.723 1.2002 3.26516 1.38984 2.9276 1.7274C2.59003 2.06497 2.40039 2.52281 2.40039 3.0002V5.4002C2.40116 6.07804 2.56645 6.74556 2.88207 7.34544C3.19769 7.94532 3.6542 8.45963 4.21239 8.84419C4.74869 9.31701 5.18362 9.8936 5.49092 10.5391C5.79823 11.1847 5.97154 11.8858 6.00039 12.6002C6.00039 13.7141 6.44289 14.7824 7.23054 15.57C8.0182 16.3577 9.08648 16.8002 10.2004 16.8002C11.3143 16.8002 12.3826 16.3577 13.1702 15.57C13.9579 14.7824 14.4004 13.7141 14.4004 12.6002V11.9162C14.966 11.7702 15.4589 11.4229 15.7868 10.9394C16.1146 10.4559 16.2549 9.86948 16.1813 9.28999C16.1077 8.71051 15.8252 8.17775 15.3869 7.7916C14.9486 7.40545 14.3845 7.1924 13.8004 7.1924C13.2162 7.1924 12.6522 7.40545 12.2139 7.7916C11.7755 8.17775 11.4931 8.71051 11.4195 9.28999C11.3459 9.86948 11.4862 10.4559 11.814 10.9394C12.1419 11.4229 12.6348 11.7702 13.2004 11.9162V12.6002C13.2004 13.3958 12.8843 14.1589 12.3217 14.7215C11.7591 15.2841 10.996 15.6002 10.2004 15.6002C9.40474 15.6002 8.64168 15.2841 8.07907 14.7215C7.51646 14.1589 7.20039 13.3958 7.20039 12.6002C7.23076 11.8849 7.40595 11.1833 7.71534 10.5377C8.02473 9.89206 8.4619 9.31595 9.00039 8.84419C9.55637 8.4583 10.0105 7.9434 10.324 7.34361C10.6375 6.74381 10.801 6.07697 10.8004 5.4002V3.0002C10.8004 2.52281 10.6107 2.06497 10.2732 1.7274C9.93562 1.38984 9.47778 1.2002 9.00039 1.2002H8.40039C8.24126 1.2002 8.08865 1.26341 7.97613 1.37593C7.86361 1.48845 7.80039 1.64107 7.80039 1.8002C7.80039 1.95933 7.86361 2.11194 7.97613 2.22446C8.08865 2.33698 8.24126 2.4002 8.40039 2.4002H9.00039C9.15952 2.4002 9.31213 2.46341 9.42465 2.57593C9.53718 2.68845 9.60039 2.84107 9.60039 3.0002V5.4002C9.60039 5.79416 9.52279 6.18427 9.37203 6.54824C9.22127 6.91222 9.00029 7.24294 8.72171 7.52152C8.44314 7.80009 8.11242 8.02107 7.74844 8.17183C7.38446 8.3226 6.99436 8.40019 6.60039 8.4002ZM13.8004 10.8002C13.4821 10.8002 13.1769 10.6738 12.9519 10.4487C12.7268 10.2237 12.6004 9.91845 12.6004 9.60019C12.6004 9.28193 12.7268 8.97671 12.9519 8.75167C13.1769 8.52662 13.4821 8.40019 13.8004 8.4002C14.1187 8.40019 14.4239 8.52662 14.6489 8.75167C14.874 8.97671 15.0004 9.28193 15.0004 9.60019C15.0004 9.91845 14.874 10.2237 14.6489 10.4487C14.4239 10.6738 14.1187 10.8002 13.8004 10.8002Z" fill="#5193E0"/>
</svg>
