<svg id="Layer_1" data-name="Layer 1" width="20" height="20" xmlns="http://www.w3.org/2000/svg" viewBox="0 0 22 22"><defs><style>.cls-1{}</style></defs><path class="cls-1" d="M5.89,11V21c0,.21,0,.21-.2.21H1c-.19,0-.19,0-.19-.19V1C.76.76.76.76,1,.76H5.69c.2,0,.2,0,.2.2Z"/><path class="cls-1" d="M14.83,14.19V7.35c0-.2,0-.2.19-.2h6c.2,0,.2,0,.2.21V21c0,.2,0,.2-.19.2H15c-.14,0-.18,0-.18-.18Z"/><path class="cls-1" d="M14.19,5.89H7.35c-.19,0-.19,0-.19-.18V1c0-.19,0-.19.18-.19H21.05c.19,0,.19,0,.19.18V5.71c0,.14,0,.18-.18.18Z"/><path class="cls-1" d="M13.56,18c0,1,0,2,0,3,0,.15-.05.17-.19.17h-6c-.15,0-.19,0-.19-.18q0-3,0-6.06c0-.14,0-.18.18-.18H13.4c.14,0,.17,0,.17.17C13.56,16,13.56,17,13.56,18Z"/><path class="cls-1" d="M13.56,10.36c0,1,0,2,0,3,0,.13,0,.16-.17.16H7.32c-.13,0-.16,0-.16-.17V7.31c0-.13,0-.16.16-.16H13.4c.14,0,.17,0,.17.17C13.56,8.33,13.56,9.34,13.56,10.36Z"/></svg>