<svg id="Layer_1" data-name="Layer 1" xmlns="http://www.w3.org/2000/svg" viewBox="0 0 42.11 46.07"><defs><style>.cls-1{fill:#fff;}</style></defs><path d="M26.39,15.31h-11a.92.92,0,0,1-.9-.9V7a.92.92,0,0,1,.9-.9h11a.92.92,0,0,1,.9.9v7.37A.88.88,0,0,1,26.39,15.31Zm-10.07-1.8h9.17V7.94H16.32Z"/><path d="M23.28,28H18.6a.94.94,0,0,1-.78-.48l-2.33-3.95a.82.82,0,0,1,0-.9l2.33-4a1.1,1.1,0,0,1,.78-.48h4.68a.94.94,0,0,1,.78.48l2.33,4a.82.82,0,0,1,0,.9l-2.33,4A1,1,0,0,1,23.28,28Zm-4.14-1.8h3.6L24.53,23l-1.79-3.12h-3.6L17.28,23Z"/><path d="M21.54,39.94a4.59,4.59,0,1,1,.06-9.17,4.54,4.54,0,0,1,4.55,4.55,4.65,4.65,0,0,1-4.61,4.62Zm0-7.32a2.79,2.79,0,1,0,2.82,2.82,2.85,2.85,0,0,0-2.82-2.82Z"/><path d="M13.39,22.32,10.63,20a.89.89,0,0,0-1.38,1.14l.24.24.9.78H9A5.1,5.1,0,0,1,8.59,12H13v-1.8H9a6.87,6.87,0,0,0-.42,13.73h1.86l-.84.77A.87.87,0,0,0,9.49,26a1,1,0,0,0,.66.3.77.77,0,0,0,.6-.24l2.7-2.39a.93.93,0,0,0,.12-1.26c-.06,0-.06-.06-.18-.06Z"/><path d="M32.62,22.14H27.83a2.34,2.34,0,0,1,0,1.8h4.79A5.27,5.27,0,1,1,33,34.48H31.19l.9-.78a.89.89,0,0,0-1.2-1.32l-2.7,2.4a1,1,0,0,0-.3.72.86.86,0,0,0,.3.66L31,38.44a1,1,0,0,0,.54.18,1,1,0,0,0,.72-.3.94.94,0,0,0-.12-1.26l-.9-.72h1.37A7,7,0,1,0,33,22.26a.57.57,0,0,0-.42-.12Z"/></svg>