<svg id="Layer_1" data-name="Layer 1" xmlns="http://www.w3.org/2000/svg" viewBox="0 0 54.55 46.07"><defs><style>.cls-1{fill:#fff;}</style></defs><g id="Layer_1-2" data-name="Layer 1"><path d="M27,14.3,18.65,17a.74.74,0,0,0-.5.72v11a.78.78,0,0,0,.5.72L27,32.17a.41.41,0,0,0,.21,0,.43.43,0,0,0,.25,0l8.37-2.73a.73.73,0,0,0,.51-.72v-11a.78.78,0,0,0-.51-.72L27.48,14.3A.89.89,0,0,0,27,14.3Zm-.5,16.19-6.9-2.27V18.8l6.9,2.27Zm8.37-2.27L28,30.49V21l6.9-2.27Zm-7.62-8.5-6-2,6-2,6,2Z"/><path d="M11.33,18.46a.89.89,0,0,0,.89-.88,9.36,9.36,0,0,1,8.62-9.34v2.19a.88.88,0,0,0,.46.75.79.79,0,0,0,.42.13.93.93,0,0,0,.47-.13L27.4,8a.89.89,0,0,0,.42-.76.87.87,0,0,0-.42-.75L22.14,3.4a.87.87,0,0,0-.88,0,.9.9,0,0,0-.46.76V6.52a11.15,11.15,0,0,0-10.35,11.1A.85.85,0,0,0,11.33,18.46Z"/><path d="M21.64,38.31a9.36,9.36,0,0,1-9.34-8.62h2.19a.9.9,0,0,0,.76-.46.87.87,0,0,0,0-.88l-3.16-5.22a.89.89,0,0,0-.76-.42.87.87,0,0,0-.75.42L7.42,28.39a.82.82,0,0,0,0,.88.87.87,0,0,0,.76.46h2.35A11.16,11.16,0,0,0,21.64,40.08a.89.89,0,0,0,0-1.77Z"/><path d="M43.22,28.05a.89.89,0,0,0-.89.88,9.35,9.35,0,0,1-8.62,9.34V36.09a.89.89,0,0,0-.46-.76.84.84,0,0,0-.89,0l-5.21,3.15a.9.9,0,0,0,0,1.52l5.21,3.15a.83.83,0,0,0,.47.13.7.7,0,0,0,.42-.13.89.89,0,0,0,.46-.76V40A11.23,11.23,0,0,0,44.1,28.89.85.85,0,0,0,43.22,28.05Z"/><path d="M47.13,17.24a.9.9,0,0,0-.76-.46H44A11.16,11.16,0,0,0,32.91,6.43a.89.89,0,0,0-.88.89.86.86,0,0,0,.88.88,9.36,9.36,0,0,1,9.34,8.62H40.06a.9.9,0,0,0-.76.46.89.89,0,0,0,0,.89l3.16,5.21a.89.89,0,0,0,.76.42.94.94,0,0,0,.75-.42l3.16-5.21A.91.91,0,0,0,47.13,17.24Z"/></g></svg>