<svg width="32" height="32" viewBox="0 0 32 32" fill="none" xmlns="http://www.w3.org/2000/svg">
<g clip-path="url(#clip0_74_1450)">
<path d="M12.0258 26.421V20.4944C12.0258 20.3381 11.9424 20.1937 11.8071 20.1156L6.6745 17.1523C6.53912 17.0741 6.37237 17.0741 6.237 17.1523L1.10437 20.1156C0.968995 20.1937 0.88562 20.3381 0.88562 20.4944V26.421C0.88562 26.5773 0.968995 26.7218 1.10437 26.7999L6.23693 29.7632C6.30462 29.8022 6.38012 29.8218 6.45568 29.8218C6.53125 29.8218 6.60675 29.8022 6.67443 29.7632L11.807 26.7999C11.9424 26.7217 12.0258 26.5773 12.0258 26.421ZM6.45575 18.0363L10.7133 20.4944L6.45575 22.9526L2.19818 20.4944L6.45575 18.0363ZM1.76062 21.2521L6.01818 23.7103V28.6265L1.76062 26.1684V21.2521ZM6.89325 28.6265V23.7103L11.1508 21.2521V26.1684L6.89325 28.6265ZM13.4971 17.9473C13.4971 19.3274 14.6199 20.4502 16 20.4502C17.3801 20.4502 18.5029 19.3274 18.5029 17.9473C18.5029 16.5671 17.3801 15.4443 16 15.4443C14.6199 15.4443 13.4971 16.5671 13.4971 17.9473ZM17.6279 17.9473C17.6279 18.8449 16.8976 19.5752 15.9999 19.5752C15.1023 19.5752 14.372 18.8449 14.372 17.9473C14.372 17.0496 15.1023 16.3193 15.9999 16.3193C16.8976 16.3193 17.6279 17.0496 17.6279 17.9473ZM10.6486 10.2687L15.7812 13.232C15.8489 13.2711 15.9244 13.2906 15.9999 13.2906C16.0755 13.2906 16.151 13.2711 16.2187 13.232L21.3512 10.2687C21.4866 10.1906 21.57 10.0461 21.57 9.88981V3.96325C21.57 3.80694 21.4866 3.6625 21.3512 3.58438L16.2187 0.621063C16.0834 0.542938 15.9166 0.542938 15.7812 0.621063L10.6486 3.58438C10.5132 3.6625 10.4299 3.80694 10.4299 3.96325V9.88981C10.4299 10.0461 10.5132 10.1906 10.6486 10.2687ZM11.3049 4.721L15.5625 7.17913V12.0954L11.3049 9.63725L11.3049 4.721ZM16.4375 12.0954V7.17913L20.6951 4.721V9.63725L16.4375 12.0954ZM16 1.50513L20.2576 3.96325L16 6.42138L11.7424 3.96325L16 1.50513ZM30.8956 20.1155L25.763 17.1522C25.6276 17.0741 25.4609 17.0741 25.3255 17.1522L20.1929 20.1155C20.0576 20.1936 19.9742 20.3381 19.9742 20.4944V26.421C19.9742 26.5773 20.0576 26.7218 20.1929 26.7999L25.3255 29.7631C25.3932 29.8022 25.4687 29.8218 25.5442 29.8218C25.6197 29.8218 25.6953 29.8022 25.763 29.7631L30.8956 26.7999C31.031 26.7218 31.1144 26.5773 31.1144 26.421V20.4944C31.1144 20.3381 31.031 20.1937 30.8956 20.1155ZM25.5442 18.0362L29.8019 20.4944L25.5442 22.9526L21.2867 20.4944L25.5442 18.0362ZM20.8491 21.2521L25.1067 23.7102V28.6264L20.8491 26.1683V21.2521ZM25.9817 28.6265V23.7102L30.2394 21.2521V26.1684L25.9817 28.6265ZM22.7556 7.9115C22.8974 7.71594 23.171 7.67231 23.3666 7.81419C25.8925 9.64606 27.6427 12.3821 28.2709 15.432L28.8394 14.4998C28.9652 14.2934 29.2344 14.2282 29.4407 14.3539C29.6471 14.4798 29.7123 14.7489 29.5865 14.9553L28.3965 16.9068C28.3144 17.0416 28.1705 17.1166 28.0226 17.1166C27.9517 17.1166 27.8798 17.0994 27.8134 17.0631L25.807 15.968C25.5949 15.8522 25.5168 15.5864 25.6326 15.3744C25.7484 15.1623 26.0142 15.0842 26.2262 15.1999L27.4659 15.8766C26.9312 12.9318 25.2757 10.2796 22.8529 8.5225C22.6573 8.38069 22.6137 8.10713 22.7556 7.9115ZM3.54118 16.6341C3.86475 13.5307 5.35906 10.6469 7.68618 8.57794L6.59462 8.55181C6.35312 8.546 6.16193 8.3455 6.16775 8.10394C6.1735 7.86244 6.37156 7.67225 6.61562 7.677L8.90075 7.73175C9.13412 7.73731 9.322 7.92525 9.32762 8.15869L9.38237 10.4438C9.38818 10.6854 9.19699 10.8859 8.95549 10.8917C8.95187 10.8918 8.94837 10.8918 8.94481 10.8918C8.708 10.8918 8.51331 10.7028 8.50762 10.4648L8.47381 9.05281C6.19093 10.9883 4.72181 13.7481 4.41143 16.7249C4.388 16.9498 4.19812 17.1171 3.97687 17.1171C3.96168 17.1171 3.94637 17.1162 3.93099 17.1147C3.69056 17.0896 3.51606 16.8745 3.54118 16.6341ZM21.3134 28.8157C21.4119 29.0363 21.3128 29.295 21.0922 29.3935C18.2427 30.6649 14.9981 30.8128 12.0428 29.8319L12.5659 30.7903C12.6817 31.0024 12.6036 31.2681 12.3915 31.3839C12.325 31.4203 12.2531 31.4375 12.1822 31.4375C12.0274 31.4375 11.8773 31.3551 11.7979 31.2096L10.7027 29.2032C10.5909 28.9983 10.6597 28.7416 10.859 28.62L12.8106 27.43C13.0168 27.3043 13.2861 27.3695 13.4119 27.5758C13.5377 27.7821 13.4724 28.0513 13.2661 28.1771L12.0602 28.9124C14.8779 29.9217 18.0025 29.8141 20.7357 28.5944C20.9562 28.4961 21.2149 28.5951 21.3134 28.8157Z" fill="#220047"/>
</g>
<defs>
<clipPath id="clip0_74_1450">
<rect width="32" height="32" fill="white"/>
</clipPath>
</defs>
</svg>
