<svg width="32" height="32" viewBox="0 0 32 32" fill="none" xmlns="http://www.w3.org/2000/svg">
<path d="M15.8299 17.3296C17.072 17.3296 18.0826 16.3192 18.0826 15.0771C18.0826 13.835 17.072 12.8246 15.8299 12.8246C14.5878 12.8246 13.5775 13.835 13.5775 15.0771C13.5774 16.3192 14.5878 17.3296 15.8299 17.3296ZM15.8299 13.9188C16.4687 13.9188 16.9884 14.4384 16.9884 15.0771C16.9884 15.7158 16.4687 16.2355 15.8299 16.2355C15.1912 16.2355 14.6716 15.7158 14.6716 15.0771C14.6716 14.4384 15.1912 13.9188 15.8299 13.9188Z" fill="#220047"/>
<path d="M24.7738 15.0989C26.6779 13.4849 28.1531 11.8404 28.828 10.3896C28.6583 10.424 28.4826 10.4422 28.3028 10.4422C28.0639 10.4422 27.8326 10.4098 27.6122 10.35C27.2432 10.9923 26.6851 11.719 25.955 12.4927C25.3621 13.1208 24.6779 13.7593 23.9184 14.3969C22.975 13.6489 21.9386 12.9079 20.8321 12.1918C20.7544 10.9837 20.6287 9.79323 20.4559 8.65805C22.457 7.96409 24.2631 7.5683 25.6725 7.53929C25.7113 7.1426 25.8382 6.77165 26.0333 6.44569C25.9687 6.44421 25.9047 6.44228 25.8383 6.44228C24.3395 6.44228 22.4079 6.84425 20.2724 7.56955C19.4827 3.31444 17.9907 0.0788269 15.866 0.0788269C13.7412 0.0788269 12.2491 3.31442 11.4596 7.56955C9.32395 6.84425 7.39248 6.44228 5.89364 6.44228C5.88697 6.44228 5.88076 6.4426 5.87408 6.4426C6.07104 6.77072 6.19879 7.14476 6.23719 7.54457C7.6192 7.60158 9.35806 7.99294 11.2759 8.65805C11.1032 9.79323 10.9774 10.9838 10.8996 12.1919C9.79332 12.908 8.75696 13.6489 7.81353 14.3969C7.05401 13.7594 6.36983 13.1207 5.77696 12.4926C5.06105 11.7342 4.51044 11.0206 4.14137 10.3877C3.96844 10.4233 3.78949 10.4422 3.60619 10.4422C3.3547 10.4422 3.11159 10.406 2.88105 10.3402C3.54514 11.803 5.03236 13.4666 6.95815 15.0989C6.22556 15.7218 5.56178 16.3459 4.98116 16.9612C2.80603 19.2657 2.04142 21.1687 2.76972 22.4643C3.25401 23.3257 4.30494 23.7625 5.89339 23.7625C7.3923 23.7625 9.32377 23.3606 11.4596 22.6351C11.8959 24.9869 12.547 27.0265 13.4008 28.3812C13.5614 28.0083 13.8056 27.6797 14.1093 27.4184C13.783 26.8175 13.4735 26.0628 13.1971 25.176C12.922 24.294 12.688 23.3148 12.4973 22.2628C13.5881 21.8519 14.7201 21.3643 15.866 20.8093C17.0118 21.3643 18.1438 21.8519 19.2346 22.2627C19.0438 23.3148 18.8098 24.294 18.5348 25.176C18.252 26.0835 17.9344 26.8534 17.5995 27.461C17.899 27.7314 18.1361 28.0695 18.2874 28.4507C19.1628 27.0968 19.8285 25.0271 20.2724 22.6351C22.4081 23.3606 24.3397 23.7625 25.8387 23.7625C27.4269 23.7625 28.478 23.3256 28.9622 22.4642C29.6906 21.1687 28.9259 19.2657 26.7508 16.9612C26.1701 16.3459 25.5063 15.7218 24.7738 15.0989ZM23.0465 15.1023C22.3754 15.6266 21.6566 16.1471 20.899 16.6577C20.9167 16.1388 20.926 15.6196 20.926 15.1025C20.926 14.5852 20.9167 14.0658 20.899 13.5469C21.6566 14.0574 22.3754 14.578 23.0465 15.1023ZM11.9 15.1025C11.9 14.3285 11.9194 13.5644 11.9567 12.8153C12.5913 12.4158 13.248 12.0246 13.9226 11.6453C14.5711 11.2807 15.2205 10.9369 15.866 10.6139C16.5115 10.9369 17.1609 11.2807 17.8094 11.6453C18.4841 12.0245 19.1406 12.4158 19.7753 12.8152C19.8126 13.5643 19.8318 14.3284 19.8318 15.1025C19.8318 15.8763 19.8126 16.6403 19.7753 17.3894C19.1405 17.7889 18.4839 18.1801 17.8092 18.5595C17.1608 18.9239 16.5114 19.2679 15.866 19.5907C15.2206 19.2679 14.5711 18.9239 13.9227 18.5594C13.248 18.1801 12.5914 17.7888 11.9567 17.3893C11.9194 16.6403 11.9 15.8763 11.9 15.1025ZM19.6879 11.4754C19.2489 11.2094 18.8012 10.9476 18.3454 10.6915C17.932 10.4591 17.5177 10.2349 17.104 10.0185C17.8888 9.65652 18.6619 9.32901 19.4141 9.03952C19.5284 9.82121 19.6199 10.6361 19.6879 11.4754ZM13.1971 5.02877C13.9498 2.61442 14.9474 1.17298 15.866 1.17298C16.7845 1.17298 17.7821 2.61442 18.5348 5.02877C18.8098 5.91085 19.0438 6.89003 19.2345 7.9419C18.1438 8.3528 17.0118 8.84034 15.866 9.39545C14.7201 8.84034 13.5882 8.3528 12.4973 7.9419C12.6881 6.89001 12.922 5.91083 13.1971 5.02877ZM12.3177 9.03945C13.0699 9.32894 13.8431 9.65653 14.6279 10.0186C14.2142 10.2349 13.8 10.4591 13.3865 10.6915C12.9308 10.9476 12.483 11.2094 12.0439 11.4754C12.112 10.6361 12.2036 9.82121 12.3177 9.03945ZM10.833 13.547C10.8152 14.0659 10.8059 14.5852 10.8059 15.1025C10.8059 15.6196 10.8152 16.1388 10.8329 16.6576C10.0753 16.1471 9.35668 15.6265 8.68546 15.1024C9.35668 14.5781 10.0753 14.0575 10.833 13.547ZM5.8934 22.6684C4.76242 22.6684 3.9918 22.4054 3.72341 21.9281C3.27342 21.1275 4.041 19.5514 5.77689 17.7121C6.37093 17.0825 7.05698 16.4425 7.81851 15.8035C8.77488 16.5606 9.81497 17.3032 10.8994 18.0079C10.9772 19.2176 11.1029 20.4099 11.276 21.5468C9.19588 22.268 7.32539 22.6684 5.8934 22.6684ZM12.3177 21.1652C12.2035 20.3829 12.1119 19.5674 12.0438 18.7274C12.4874 18.9971 12.9357 19.2597 13.3866 19.5131C13.8 19.7455 14.2142 19.9697 14.6281 20.186C13.8432 20.5481 13.0699 20.8758 12.3177 21.1652ZM17.104 20.186C17.5178 19.9697 17.932 19.7455 18.3453 19.5133C18.7961 19.2598 19.2444 18.9972 19.6881 18.7275C19.62 19.5674 19.5285 20.3829 19.4141 21.1651C18.6619 20.8758 17.8888 20.5481 17.104 20.186ZM28.0085 21.9281C27.7401 22.4054 26.9695 22.6684 25.8387 22.6684C24.4065 22.6684 22.5361 22.268 20.456 21.5467C20.6289 20.4099 20.7549 19.2176 20.8325 18.0078C21.917 17.3032 22.9571 16.5607 23.9136 15.8035C24.675 16.4425 25.361 17.0825 25.9552 17.7121C27.6909 19.5514 28.4586 21.1275 28.0085 21.9281Z" fill="#220047"/>
<path d="M5.75441 7.63998C5.75441 6.39294 4.73985 5.37846 3.49281 5.37846C2.24584 5.37846 1.23135 6.39293 1.23135 7.63998C1.23135 8.88695 2.24584 9.90151 3.49281 9.90151C4.73985 9.90151 5.75441 8.88695 5.75441 7.63998ZM2.34342 7.63998C2.34342 7.00622 2.85903 6.49053 3.49281 6.49053C4.12664 6.49053 4.64234 7.00622 4.64234 7.63998C4.64234 8.27374 4.12664 8.78944 3.49281 8.78944C2.85903 8.78944 2.34342 8.27374 2.34342 7.63998Z" fill="#220047"/>
<path d="M28.5071 5.37846C27.2601 5.37846 26.2456 6.39293 26.2456 7.63998C26.2456 8.88695 27.2601 9.90151 28.5071 9.90151C29.7542 9.90151 30.7687 8.88695 30.7687 7.63998C30.7687 6.39294 29.7542 5.37846 28.5071 5.37846ZM28.5071 8.78944C27.8733 8.78944 27.3577 8.27374 27.3577 7.63998C27.3577 7.00622 27.8733 6.49053 28.5071 6.49053C29.141 6.49053 29.6566 7.00622 29.6566 7.63998C29.6566 8.27374 29.141 8.78944 28.5071 8.78944Z" fill="#220047"/>
<path d="M15.8753 27.3981C14.6283 27.3981 13.6138 28.4126 13.6138 29.6597C13.6138 30.9067 14.6283 31.9212 15.8753 31.9212C17.1224 31.9212 18.137 30.9067 18.137 29.6597C18.137 28.4126 17.1224 27.3981 15.8753 27.3981ZM15.8753 30.8091C15.2415 30.8091 14.7259 30.2935 14.7259 29.6597C14.7259 29.0259 15.2415 28.5102 15.8753 28.5102C16.5092 28.5102 17.0249 29.0259 17.0249 29.6597C17.0249 30.2935 16.5092 30.8091 15.8753 30.8091Z" fill="#220047"/>
</svg>
