<?xml version="1.0"?>
<svg xmlns="http://www.w3.org/2000/svg" xmlns:xlink="http://www.w3.org/1999/xlink" version="1.1" viewBox="0 0 64 64" style="enable-background:new 0 0 512 512" xml:space="preserve" class=""><g><g xmlns="http://www.w3.org/2000/svg" id="discount-phone-shopping-call-ecommerce"><path d="M51.74,50.33l-9.62-9.62a3,3,0,0,0-4.24,0l-5.26,5.25a6.938,6.938,0,0,1-7.81,1.45,17.1,17.1,0,0,1-8.22-8.22,6.938,6.938,0,0,1,1.45-7.81l5.25-5.26a3,3,0,0,0,0-4.24l-9.62-9.62a3.052,3.052,0,0,0-2.24-.88,2.989,2.989,0,0,0-2.16,1.03,31.464,31.464,0,0,0-2.22,2.91A30.017,30.017,0,0,0,48.68,56.95a31.464,31.464,0,0,0,2.91-2.22,2.989,2.989,0,0,0,1.03-2.16A3.029,3.029,0,0,0,51.74,50.33ZM10.79,13.72a.976.976,0,0,1,.71-.35h.04a1.04,1.04,0,0,1,.72.3l9.62,9.62a1.008,1.008,0,0,1,0,1.42L20,26.59,9.19,15.77A24.493,24.493,0,0,1,10.79,13.72ZM32,60a27.713,27.713,0,0,1-10.51-2.05A28.042,28.042,0,0,1,6.05,42.5,27.927,27.927,0,0,1,8.07,17.48L18.59,28l-1.97,1.96a8.941,8.941,0,0,0-1.84,10.07,19.046,19.046,0,0,0,9.19,9.19,8.941,8.941,0,0,0,10.07-1.84L36,45.41,46.52,55.93A27.866,27.866,0,0,1,32,60Zm18.28-6.79c-.65.57-1.35,1.1-2.05,1.6L37.41,44l1.88-1.88a1.008,1.008,0,0,1,1.42,0l9.62,9.62a1.032,1.032,0,0,1,.3.76A.976.976,0,0,1,50.28,53.21Z" data-original="#000000" style="" class=""/><path d="M44,2A17.992,17.992,0,0,0,27.812,27.861L26.02,36.8A1,1,0,0,0,27,38a.932.932,0,0,0,.2-.02l8.943-1.792A18,18,0,1,0,44,2Zm0,34a15.923,15.923,0,0,1-7.262-1.749,1.008,1.008,0,0,0-.458-.111.934.934,0,0,0-.2.02l-7.808,1.565,1.565-7.808a1,1,0,0,0-.091-.655A16,16,0,1,1,44,36Z" data-original="#000000" style="" class=""/><path d="M42,15a4,4,0,1,0-4,4A4,4,0,0,0,42,15Zm-6,0a2,2,0,1,1,2,2A2,2,0,0,1,36,15Z" data-original="#000000" style="" class=""/><path d="M50,21a4,4,0,1,0,4,4A4,4,0,0,0,50,21Zm0,6a2,2,0,1,1,2-2A2,2,0,0,1,50,27Z" data-original="#000000" style="" class=""/><path d="M50.555,10.168a1,1,0,0,0-1.387.277l-12,18a1,1,0,0,0,1.664,1.11l12-18A1,1,0,0,0,50.555,10.168Z" data-original="#000000" style="" class=""/></g></g></svg>
