<?xml version="1.0"?>
<svg xmlns="http://www.w3.org/2000/svg" xmlns:xlink="http://www.w3.org/1999/xlink" version="1.1" viewBox="0 0 64 64" style="enable-background:new 0 0 512 512" xml:space="preserve" class=""><g><g xmlns="http://www.w3.org/2000/svg"><path d="m21 16c0 .551-.449 1-1 1s-1-.449-1-1v-1h-2v1c0 1.654 1.346 3 3 3s3-1.346 3-3v-1h-2z" data-original="#000000" style=""/><path d="m53 29c-5.514 0-10 4.486-10 10v3.757c0 .834.104 1.657.284 2.46-1.539-1.242-3.439-2.026-5.495-2.186l-.553-2.21c1.041-.371 1.831-1.299 1.975-2.449l.172-1.372h.617c1.654 0 3-1.346 3-3 0-.636-.202-1.225-.541-1.711l.352-1.408c.125-.504.189-1.021.189-1.539 0-3.497-2.845-6.342-6.342-6.342h-4.001c-1.335 0-2.591.52-3.535 1.464l-.662.662-.345.115c-.405.135-.775.331-1.115.562v-3.389l2.414-2.414-.707-.707c-1.101-1.101-1.707-2.564-1.707-4.122v-2.171h2c1.103 0 2-.897 2-2 0-5.514-4.486-10-10-10l-6.034.003c-7.701.006-13.966 6.276-13.966 13.977 0 5.328 2.96 10.119 7.726 12.501l2.274 1.137v3.788c-3.715 2.105-6 5.994-6 10.302v3.292c0 2.535.74 4.895 2 6.897v10.103h20v-4h14.001c1.473 0 2.749-.81 3.443-2h18.556v-2.675c0-1.933-.795-3.716-2.115-5.004 1.37-1.905 2.115-4.2 2.115-6.563v-3.758c0-5.514-4.486-10-10-10zm-8.569 21.098c-.409.539-.733 1.136-.972 1.775-.677-.533-1.519-.866-2.444-.869h-.145c-.363-1.16-1.447-2.004-2.724-2.004-.486 0-.941.137-1.349.357l-.679-1.357 1.476-2.953c3.077.227 5.717 2.175 6.837 5.051zm-17.686-3.844c1.107-.701 2.35-1.111 3.661-1.207l1.476 2.953-1.5 3h-3.382v-1.858c0-.982-.094-1.945-.255-2.888zm-15.822-11.408c.393-.295.806-.569 1.248-.808 5.882.965 10.571 5.297 12.202 10.822l-7.064-4.229 1.032-2.064zm10.077-4.166 1.61.268c.205.035.412.052.619.052.684 0 1.318-.197 1.872-.517.013.061.019.124.034.185l.406 1.622c-.339.485-.541 1.074-.541 1.71 0 1.654 1.346 3 3 3h.617l.172 1.372c.144 1.15.933 2.078 1.975 2.449l-.552 2.21c-1.395.108-2.732.507-3.953 1.167-.956-3.163-2.801-5.967-5.259-8.106zm4-5.68h-.99c-1.309 0-2.425-.839-2.839-2.008l3.829.006zm3 8h.117l.25 2h-.367c-.551 0-1-.449-1-1s.449-1 1-1zm7.219 8 .5 2h-3.438l.5-2zm-.837 6h-.764l-1-2h2.764zm-.764 2h.764l1 2h-2.764zm3.609-10.876c-.063.5-.489.876-.993.876h-4.469c-.503 0-.93-.376-.992-.876l-.7-5.602 2.585-1.551c.834.833 1.929 1.409 3.16 1.584l2.067.295zm2.773-3.124h-.367l.25-2h.117c.551 0 1 .449 1 1s-.449 1-1 1zm-11.253-7.861.793-.265.996-.996c.558-.558 1.331-.878 2.121-.878h4.001c2.394 0 4.342 1.948 4.342 4.342 0 .354-.043.709-.13 1.054l-.173.694c-.225-.054-.456-.09-.697-.09h-.929l-2.969-.424c-1.769-.253-3.102-1.79-3.102-3.576h-2c0 .824.183 1.614.511 2.327l-2.788 1.673h-.723c-.241 0-.472.036-.697.09l-.227-.907c-.05-.203-.076-.412-.076-.62 0-1.102.702-2.076 1.747-2.424zm-2.117-7.183-1.044 1.044-6.586-.012v1.001c0 2.763 2.248 5.01 5.01 5.01h.99v.229c0 .978-.794 1.772-1.771 1.772-.098 0-.196-.008-.291-.024l-3.568-.595c-1.066-.178-1.992-.861-2.476-1.829l-1.789.895c.763 1.525 2.217 2.604 3.895 2.897v4.242c-1.796-1.157-3.821-1.987-6-2.413v-9.792l-2.847-1.424c-.711-.354-1.153-1.069-1.153-1.864 0-.558.218-1.083.613-1.477.394-.393.917-.609 1.472-.609h.005l1.91.006v-1.003c0-1.66 1.351-3.01 3.01-3.01h8.99v2.171c0 1.754.573 3.42 1.63 4.785zm-17.009 5.736c-4.084-2.042-6.621-6.146-6.621-10.712 0-6.599 5.369-11.972 11.967-11.977l6.033-.003c4.411 0 8 3.589 8 8h-12.99c-2.419 0-4.444 1.724-4.91 4.008h-.005c-.003 0-.007 0-.011 0-1.089 0-2.113.423-2.885 1.193-.773.772-1.199 1.799-1.199 2.892 0 1.558.865 2.958 2.258 3.654l1.742.871v2.764zm-2.621 17.016c0-2.409.872-4.652 2.375-6.401l6.284 3.152-.968 1.936 10.211 6.113c.059.539.098 1.082.098 1.634v1.858h-7c-2.757 0-5-2.243-5-5v-5h-2v5c0 3.86 3.14 7 7 7h17v4h-17c-6.065 0-11-4.935-11-11zm18 18.292h-16v-5.641c2.338 2.249 5.507 3.641 9 3.641h7zm16.001-4h-4.001v-4.764l.381-.763c.146-.292.439-.473.765-.473.471 0 .854.383.854.854v1.143l2.008.007c1.098.003 1.992.9 1.992 1.998 0 1.102-.896 1.998-1.999 1.998zm3.999-2.675c0-1.963 1.147-3.709 2.894-4.521l3.29 5.196h-6.184zm7.999-9.325c-1.826 0-3.369-1.307-3.669-3.108l-.314-1.884c-.011-.061-.016-.121-.016-.182 0-.546.408-1.017.949-1.094l1.233-.176c1.361-.194 2.556-.879 3.416-1.858l1.429 1.072c.609.457.973 1.185.973 1.946 0 .134-.011.267-.033.4l-.296 1.776c-.3 1.801-1.843 3.108-3.672 3.108zm-1.658 1.736c.529.16 1.081.264 1.66.264.578 0 1.13-.104 1.658-.264.256.929.826 1.715 1.602 2.242l-1.279 2.022h-3.964l-1.28-2.021c.777-.527 1.347-1.314 1.603-2.243zm2.375 6.264-.716 1.131-.716-1.131zm7.284 1.325v.675h-6.184l3.29-5.197c1.748.813 2.894 2.559 2.894 4.522zm0-11.568c0 1.937-.609 3.818-1.729 5.381-.336-.177-.689-.332-1.059-.455l-.334-.111c-.652-.218-1.142-.746-1.308-1.413l-.089-.355c1.113-.855 1.915-2.105 2.162-3.584l.296-1.775c.041-.24.061-.485.061-.729 0-1.387-.663-2.712-1.772-3.545l-1.592-1.194c.236-.619.364-1.286.364-1.977h-2c0 1.786-1.333 3.323-3.101 3.576l-1.233.176c-1.52.217-2.666 1.539-2.666 3.074 0 .171.014.342.042.511l.314 1.884c.247 1.479 1.049 2.728 2.162 3.584l-.089.356c-.167.667-.656 1.194-1.307 1.412l-.336.111c-.37.123-.722.277-1.058.455-1.119-1.564-1.728-3.445-1.728-5.382v-3.757c0-4.411 3.589-8 8-8s8 3.589 8 8z" data-original="#000000" style=""/><path d="m41 7h15v-2h-15v-4.869l-8.803 5.869 8.803 5.869zm-2 1.131-3.197-2.131 3.197-2.131z" data-original="#000000" style=""/><path d="m48 15v-4.869l-8.803 5.869 8.803 5.869v-4.869h15v-2zm-2 3.131-3.197-2.131 3.197-2.131z" data-original="#000000" style=""/></g></g></svg>
