<svg width="32" height="32" viewBox="0 0 32 32" fill="none" xmlns="http://www.w3.org/2000/svg">
<path d="M11.6459 10.934C11.74 11.025 11.866 11.0755 11.9968 11.0746C12.1277 11.0737 12.253 11.0216 12.3458 10.9294C12.4387 10.8372 12.4917 10.7122 12.4934 10.5814C12.4952 10.4505 12.4456 10.3242 12.3553 10.2295C11.8114 9.67938 11.5063 8.93695 11.5063 8.16332C11.5064 7.3897 11.8114 6.64727 12.3553 6.09714C12.4487 6.00306 12.501 5.87573 12.5005 5.74316C12.5001 5.61058 12.447 5.48361 12.3529 5.39019C12.2588 5.29677 12.1315 5.24454 11.9989 5.245C11.8663 5.24546 11.7394 5.29856 11.6459 5.39264C10.9171 6.13066 10.5085 7.12611 10.5085 8.16334C10.5085 9.20056 10.9171 10.196 11.6459 10.934Z" fill="#220047"/>
<path d="M9.81734 12.7612C9.91169 12.8519 10.0379 12.902 10.1688 12.9008C10.2997 12.8995 10.4249 12.8469 10.5175 12.7543C10.6101 12.6618 10.6626 12.5366 10.6639 12.4056C10.6652 12.2747 10.615 12.1485 10.5242 12.0542C9.50072 11.0178 8.92679 9.61989 8.9268 8.1633C8.92682 6.70671 9.50078 5.30879 10.5243 4.27245C10.6181 4.17869 10.6707 4.05154 10.6707 3.91896C10.6707 3.78637 10.618 3.65923 10.5243 3.56548C10.4305 3.47174 10.3034 3.41908 10.1708 3.41908C10.0382 3.41909 9.91107 3.47177 9.81733 3.56552C8.60739 4.78995 7.92886 6.44195 7.92886 8.16334C7.92887 9.88472 8.6074 11.5367 9.81734 12.7612Z" fill="#220047"/>
<path d="M8.25605 14.3224C8.35416 14.3209 8.44968 14.2907 8.53085 14.2355C8.61202 14.1804 8.67531 14.1028 8.71294 14.0122C8.75057 13.9215 8.76089 13.8219 8.74264 13.7255C8.72439 13.6291 8.67836 13.5401 8.61022 13.4695C7.21402 12.0564 6.43106 10.1498 6.43108 8.16329C6.4311 6.17674 7.21411 4.27025 8.61034 2.85713C8.70075 2.76253 8.7505 2.63627 8.7489 2.50542C8.7473 2.37458 8.69449 2.24957 8.60179 2.15721C8.50909 2.06485 8.38389 2.01249 8.25304 2.01137C8.12218 2.01025 7.99611 2.06045 7.90184 2.15121C6.32011 3.7525 5.43315 5.91261 5.43317 8.16338C5.43319 10.4141 6.3202 12.5742 7.90195 14.1755C7.94836 14.2221 8.00354 14.2591 8.06432 14.2844C8.12509 14.3096 8.19026 14.3225 8.25605 14.3224Z" fill="#220047"/>
<path d="M19.6471 10.9365C20.6137 11.7097 21.6224 8.88817 21.4991 8.16327C21.6226 7.43737 20.613 4.6169 19.6471 5.39016C19.6006 5.43642 19.5635 5.4914 19.5382 5.55197C19.5129 5.61254 19.4997 5.67751 19.4995 5.74316C19.4993 5.80882 19.512 5.87387 19.5369 5.93461C19.5618 5.99535 19.5985 6.05059 19.6447 6.09716C20.192 6.64555 20.4993 7.38864 20.4993 8.16338C20.4993 8.93812 20.192 9.68121 19.6447 10.2296C19.5985 10.2762 19.5618 10.3314 19.5369 10.3921C19.512 10.4529 19.4993 10.5179 19.4995 10.5835C19.4997 10.6492 19.5129 10.7142 19.5382 10.7747C19.5635 10.8353 19.6006 10.8903 19.6471 10.9365Z" fill="#220047"/>
<path d="M23.9988 29.0002H20.4143L16.9199 10.213C17.3894 10.0025 17.7724 9.63725 18.0051 9.17833C18.2378 8.7194 18.306 8.19455 18.1983 7.6914C18.0907 7.18825 17.8137 6.73725 17.4136 6.41371C17.0135 6.09017 16.5146 5.91366 16 5.91366C15.4855 5.91366 14.9865 6.09017 14.5864 6.41371C14.1863 6.73725 13.9094 7.18825 13.8017 7.6914C13.6941 8.19455 13.7623 8.7194 13.9949 9.17833C14.2276 9.63725 14.6107 10.0025 15.0802 10.213L11.5857 29.0002H8.00123C7.87022 29.0025 7.74537 29.0563 7.65356 29.1498C7.56175 29.2433 7.51031 29.3691 7.51031 29.5001C7.51032 29.6311 7.56176 29.7569 7.65357 29.8504C7.74538 29.9439 7.87022 29.9976 8.00123 30H23.9988C24.1296 29.9974 24.2543 29.9436 24.3459 29.8501C24.4375 29.7566 24.4888 29.631 24.4888 29.5001C24.4888 29.3692 24.4375 29.2435 24.3459 29.1501C24.2543 29.0566 24.1296 29.0028 23.9988 29.0002ZM18.4646 23.9859L14.4052 21.0813L17.4847 18.7217L18.4646 23.9859ZM16 10.7279L17.0448 16.3371L15.2851 14.5773L16 10.7279ZM15.0601 15.7721L17.0698 17.7818L14.2953 19.9065L15.0601 15.7721ZM13.9103 21.9562L18.2796 25.0807L12.6955 28.4902L13.9103 21.9562ZM13.7803 29.0002L18.8246 25.9206L19.3995 29.0002H13.7803Z" fill="#220047"/>
<path d="M23.0839 8.16321C23.0864 8.88589 22.9456 9.60189 22.6695 10.2698C22.3935 10.9377 21.9877 11.5442 21.4757 12.0542C21.3851 12.1486 21.335 12.2747 21.3363 12.4056C21.3377 12.5365 21.3902 12.6616 21.4828 12.7541C21.5753 12.8467 21.7004 12.8992 21.8313 12.9005C21.9622 12.9018 22.0883 12.8518 22.1827 12.7611C23.3926 11.5367 24.0711 9.88467 24.0711 8.16328C24.0711 6.4419 23.3926 4.7899 22.1826 3.5655C22.0883 3.4745 21.962 3.42417 21.831 3.42535C21.6999 3.42653 21.5746 3.47912 21.4819 3.5718C21.3892 3.66448 21.3367 3.78984 21.3355 3.9209C21.3344 4.05195 21.3847 4.17821 21.4758 4.2725C21.9877 4.7825 22.3935 5.38896 22.6695 6.0568C22.9455 6.72464 23.0864 7.44058 23.0839 8.16321Z" fill="#220047"/>
<path d="M25.5835 8.16321C25.5859 9.14867 25.3933 10.1249 25.0168 11.0356C24.6403 11.9463 24.0873 12.7735 23.3897 13.4695C23.2993 13.5641 23.2495 13.6904 23.251 13.8213C23.2526 13.9521 23.3054 14.0772 23.3981 14.1695C23.4908 14.2619 23.6161 14.3143 23.7469 14.3154C23.8778 14.3165 24.0039 14.2663 24.0982 14.1755C25.6799 12.5742 26.5668 10.4141 26.5668 8.1633C26.5668 5.91253 25.6798 3.75244 24.098 2.15118C24.0038 2.06012 23.8776 2.00966 23.7466 2.01067C23.6156 2.01168 23.4902 2.06406 23.3974 2.15657C23.3046 2.24907 23.2518 2.3743 23.2504 2.50532C23.249 2.63634 23.299 2.76268 23.3898 2.85718C24.0873 3.5532 24.6403 4.38035 25.0168 5.29101C25.3933 6.20166 25.5859 7.1778 25.5835 8.16321Z" fill="#220047"/>
</svg>
