<?xml version="1.0" encoding="UTF-8"?>
<svg width="24px" height="24px" viewBox="0 0 24 24" version="1.1" xmlns="http://www.w3.org/2000/svg" xmlns:xlink="http://www.w3.org/1999/xlink">
    <!-- Generator: Sketch 63.1 (92452) - https://sketch.com -->
    <title>Group 20</title>
    <desc>Created with Sketch.</desc>
    <g id="hierarchy" stroke="none" stroke-width="1" fill="none" fill-rule="evenodd">
        <g id="1" transform="translate(-270.000000, -855.000000)" fill="#6df0c2" fill-rule="nonzero">
            <g id="Group-20" transform="translate(270.000000, 855.000000)">
                <path d="M4.44,15.12 L0.6,15.12 C0.27,15.12 -1.09245946e-13,15.39 -1.09245946e-13,15.72 L-1.09245946e-13,22.5 C-1.09245946e-13,22.83 0.27,23.1 0.6,23.1 L4.44,23.1 C4.77,23.1 5.04,22.83 5.04,22.5 L5.04,15.72 C5.04,15.39 4.77,15.12 4.44,15.12 L4.44,15.12 Z" id="Path"></path>
                <path d="M10.74,10.05 L6.9,10.05 C6.57,10.05 6.3,10.32 6.3,10.65 L6.3,22.5 C6.3,22.83 6.57,23.1 6.9,23.1 L10.74,23.1 C11.07,23.1 11.34,22.83 11.34,22.5 L11.34,10.65 C11.34,10.32 11.1,10.05 10.74,10.05 L10.74,10.05 Z" id="Path"></path>
                <path d="M17.07,5.04 L13.23,5.04 C12.9,5.04 12.63,5.31 12.63,5.64 L12.63,22.5 C12.63,22.83 12.9,23.1 13.23,23.1 L17.07,23.1 C17.4,23.1 17.67,22.83 17.67,22.5 L17.67,5.64 C17.67,5.31 17.4,5.04 17.07,5.04 L17.07,5.04 Z" id="Path"></path>
                <path d="M23.4,0 L19.56,0 C19.23,0 18.96,0.27 18.96,0.6 L18.96,22.5 C18.96,22.83 19.23,23.1 19.56,23.1 L23.4,23.1 C23.73,23.1 24,22.83 24,22.5 L24,0.6 C24,0.27 23.73,0 23.4,0 L23.4,0 Z" id="Path"></path>
            </g>
        </g>
    </g>
</svg>