<svg width="16" height="16" viewBox="0 0 16 16" fill="none" xmlns="http://www.w3.org/2000/svg">
<path d="M13.0451 15.6014H2.95234C2.51052 15.6014 2.15234 15.2432 2.15234 14.8014V8.33748C2.15234 7.89565 2.51052 7.53748 2.95234 7.53748H13.0451C13.4869 7.53748 13.8451 7.89565 13.8451 8.33748V14.8014C13.8451 15.2432 13.4869 15.6014 13.0451 15.6014Z" fill="#E4E8ED"/>
<path d="M12.2297 9.97966H10.7097V4.63012C10.7097 3.1358 9.49395 1.92002 7.99963 1.92002C6.50531 1.92002 5.28953 3.1358 5.28953 4.63012V9.97966H3.76953V4.63012C3.76953 2.29765 5.66716 0.400024 7.99963 0.400024C10.3321 0.400024 12.2297 2.29765 12.2297 4.63012V9.97966Z" fill="#E4E8ED"/>
</svg>
