<svg width="32" height="32" viewBox="0 0 32 32" fill="none" xmlns="http://www.w3.org/2000/svg">
<path d="M10.832 25.008H18.792V20.736C18.696 20.736 18.608 20.72 18.512 20.72C15.416 20.752 12.32 20.784 9.23202 20.816C9.16802 20.816 9.09602 20.816 9.03202 20.816C8.77602 20.792 8.63202 20.648 8.60802 20.392C8.58402 20.144 8.74402 19.944 9.00002 19.92C9.27202 19.896 9.55202 19.896 9.82402 19.896C12.664 19.864 15.496 19.84 18.336 19.808C18.48 19.808 18.616 19.808 18.784 19.808C18.784 19.688 18.8 19.6 18.8 19.504C18.792 16.36 18.776 13.216 18.768 10.072C18.768 9.54397 18.736 9.51997 18.224 9.51997C18.056 9.51997 17.88 9.52797 17.712 9.51997C17.424 9.49597 17.24 9.29597 17.248 9.03997C17.264 8.79197 17.44 8.62397 17.728 8.61597C18 8.60797 18.28 8.60797 18.56 8.61597C19.104 8.63197 19.552 9.02397 19.648 9.56797C19.672 9.71997 19.68 9.87197 19.688 10.024C19.696 11.272 19.704 12.52 19.712 13.768C19.712 13.872 19.712 13.976 19.712 14.128C19.84 14.128 19.952 14.128 20.056 14.128C21.544 14.128 23.024 14.136 24.512 14.128C25.096 14.128 25.496 14.352 25.784 14.872C26.72 16.544 27.68 18.192 28.616 19.856C28.72 20.04 28.776 20.264 28.784 20.472C28.8 21.912 28.792 23.352 28.784 24.784C28.784 25.52 28.368 25.936 27.632 25.944C27.288 25.944 26.944 25.944 26.592 25.944C26.568 26.024 26.544 26.096 26.528 26.16C26.176 27.456 25.08 28.312 23.776 28.312C22.464 28.312 21.36 27.448 21.032 26.152C20.984 25.968 20.912 25.928 20.744 25.936C17.496 25.936 14.248 25.936 11 25.944C10.944 25.944 10.888 25.944 10.888 25.944C10.688 26.36 10.552 26.776 10.312 27.112C9.63202 28.064 8.66402 28.464 7.52002 28.256C6.36002 28.048 5.60802 27.328 5.28002 26.184C5.21602 25.968 5.12802 25.912 4.93602 25.928C4.82402 25.936 4.70402 25.928 4.59202 25.928C3.82402 25.92 3.24002 25.36 3.19202 24.592C3.19202 24.528 3.19202 24.456 3.19202 24.392C3.19202 19.584 3.19202 14.776 3.19202 9.95997C3.19202 9.56797 3.26402 9.19997 3.56802 8.95197C3.76802 8.79197 4.04002 8.66397 4.29602 8.61597C4.61602 8.55997 4.96002 8.59197 5.29602 8.59997C5.57602 8.59997 5.76002 8.79197 5.76002 9.03997C5.76002 9.27997 5.58402 9.48797 5.31202 9.50397C5.04002 9.51997 4.76002 9.51997 4.48802 9.50397C4.21602 9.49597 4.11202 9.63197 4.11202 9.88797C4.11202 9.94397 4.11202 9.99997 4.11202 10.056C4.11202 14.8 4.11202 19.544 4.11202 24.288C4.11202 24.384 4.11202 24.48 4.12002 24.576C4.16002 24.848 4.32802 24.992 4.60002 25.008C4.63202 25.008 4.65602 25.008 4.68802 25.008C5.01335 25.008 5.22935 24.856 5.33602 24.552C5.73602 23.384 6.86402 22.592 8.08802 22.624C9.32002 22.656 10.4 23.488 10.744 24.688C10.776 24.784 10.8 24.888 10.832 25V25.008ZM19.776 25.024C20.136 25.024 20.432 25.016 20.72 25.024C20.912 25.032 20.984 24.976 21.04 24.776C21.344 23.672 22.064 22.96 23.176 22.712C24.264 22.472 25.208 22.792 25.92 23.64C26.24 24.024 26.424 24.512 26.704 25.024C26.928 25.024 27.248 25.016 27.568 25.024C27.808 25.032 27.88 24.952 27.88 24.712C27.872 23.456 27.88 22.2 27.88 20.944C27.88 20.872 27.872 20.8 27.864 20.704C27.728 20.704 27.616 20.704 27.504 20.704C25.792 20.704 24.08 20.704 22.36 20.704C21.736 20.704 21.416 20.376 21.416 19.752C21.416 18.8 21.416 17.848 21.416 16.896C21.416 16.264 21.728 15.952 22.368 15.952C23.24 15.952 24.12 15.952 24.992 15.952C25.088 15.952 25.192 15.952 25.344 15.952C25.208 15.712 25.088 15.536 25 15.336C24.896 15.104 24.736 15.032 24.48 15.032C23.008 15.04 21.528 15.032 20.056 15.032H19.768V25.016L19.776 25.024ZM22.344 16.864V19.768H27.528C27.008 18.856 26.512 17.984 26.008 17.112C25.976 17.064 25.96 16.992 25.92 16.968C25.84 16.92 25.744 16.872 25.648 16.872C24.784 16.872 23.92 16.872 23.056 16.872C22.824 16.872 22.584 16.872 22.336 16.872L22.344 16.864ZM8.01602 27.392C9.08002 27.392 9.93602 26.536 9.93602 25.472C9.93602 24.416 9.06402 23.544 8.00002 23.552C6.95202 23.56 6.10402 24.416 6.09602 25.464C6.09602 26.536 6.94402 27.392 8.00802 27.392H8.01602ZM21.864 25.448C21.856 26.52 22.688 27.384 23.76 27.392C24.824 27.4 25.696 26.552 25.704 25.488C25.704 24.424 24.848 23.552 23.792 23.552C22.744 23.552 21.88 24.4 21.872 25.448H21.864Z" fill="#220047"/>
<path d="M16.52 10.272C16.52 11.968 16.52 13.664 16.52 15.36C16.52 16.312 16.008 16.824 15.056 16.824C12.648 16.824 10.24 16.824 7.83199 16.824C6.88799 16.824 6.35999 16.296 6.35999 15.36C6.35999 11.96 6.35999 8.55999 6.35999 5.15999C6.35999 4.21599 6.88799 3.69599 7.83199 3.68799C10.24 3.68799 12.648 3.68799 15.056 3.68799C16.008 3.68799 16.52 4.20799 16.52 5.15199C16.52 6.85599 16.52 8.55999 16.52 10.264V10.272ZM10.96 15.912V4.60799C9.93599 4.60799 8.93599 4.60799 7.94399 4.60799C7.36799 4.60799 7.27999 4.69599 7.27999 5.26399C7.27999 8.59199 7.27999 11.928 7.27999 15.256C7.27999 15.336 7.27999 15.408 7.27999 15.488C7.30399 15.768 7.43199 15.912 7.71199 15.912C8.78399 15.912 9.86399 15.912 10.96 15.912ZM11.912 15.896C12.016 15.896 12.104 15.912 12.184 15.912C13.136 15.912 14.088 15.912 15.04 15.912C15.504 15.912 15.608 15.808 15.608 15.336C15.608 11.96 15.608 8.57599 15.608 5.19999C15.608 4.71199 15.512 4.60799 15.024 4.60799C14.08 4.60799 13.136 4.60799 12.2 4.60799C12.112 4.60799 12.016 4.61599 11.912 4.62399V15.896Z" fill="#220047"/>
<path d="M5.48801 20.76C5.20801 20.76 4.98401 20.52 4.98401 20.248C4.98401 19.976 5.22401 19.744 5.49601 19.744C5.78401 19.744 6.01601 19.976 6.00801 20.272C6.00001 20.56 5.77601 20.768 5.48801 20.76Z" fill="#220047"/>
<path d="M7.08798 20.76C6.80798 20.76 6.58398 20.52 6.58398 20.248C6.58398 19.976 6.82398 19.744 7.09598 19.744C7.38398 19.744 7.61598 19.984 7.59998 20.272C7.59198 20.56 7.36799 20.76 7.07999 20.76H7.08798Z" fill="#220047"/>
<path d="M8.68804 25.464C8.68804 25.824 8.41604 26.12 8.04804 26.128C7.67204 26.136 7.36804 25.856 7.36804 25.48C7.36804 25.104 7.66404 24.8 8.03204 24.808C8.38404 24.808 8.68004 25.112 8.68804 25.464Z" fill="#220047"/>
<path d="M24.528 25.472C24.528 25.84 24.256 26.128 23.888 26.136C23.512 26.144 23.208 25.848 23.208 25.48C23.208 25.12 23.52 24.808 23.88 24.816C24.24 24.816 24.528 25.112 24.528 25.48V25.472Z" fill="#220047"/>
<path d="M9.94397 7.16803C9.94397 7.65603 9.54397 8.05603 9.05597 8.05603C8.56797 8.05603 8.16797 7.65603 8.16797 7.16803C8.16797 6.68003 8.56797 6.28003 9.05597 6.28003C9.54397 6.28003 9.94397 6.68003 9.94397 7.16803Z" fill="#220047"/>
<path d="M9.94397 10.248C9.94397 10.744 9.55197 11.144 9.06397 11.144C8.57597 11.144 8.16797 10.752 8.16797 10.264C8.16797 9.77598 8.55997 9.36798 9.04797 9.36798C9.53597 9.36798 9.94397 9.75998 9.94397 10.248Z" fill="#220047"/>
<path d="M9.94397 13.336C9.94397 13.824 9.55197 14.232 9.06397 14.232C8.56797 14.232 8.16797 13.848 8.16797 13.352C8.16797 12.864 8.55997 12.456 9.04797 12.456C9.53597 12.456 9.94397 12.848 9.94397 13.336Z" fill="#220047"/>
<path d="M13.728 8.06402C13.24 8.06402 12.84 7.66402 12.848 7.17602C12.848 6.68002 13.248 6.28802 13.736 6.28802C14.224 6.28802 14.632 6.69602 14.624 7.17602C14.624 7.65602 14.216 8.06402 13.728 8.06402Z" fill="#220047"/>
<path d="M13.736 11.144C13.24 11.144 12.848 10.76 12.84 10.264C12.84 9.76798 13.224 9.36798 13.72 9.36798C14.208 9.36798 14.616 9.75998 14.624 10.248C14.624 10.728 14.224 11.144 13.744 11.144H13.736Z" fill="#220047"/>
<path d="M13.736 14.232C13.24 14.232 12.848 13.848 12.84 13.352C12.84 12.856 13.232 12.456 13.72 12.456C14.208 12.456 14.616 12.856 14.616 13.336C14.616 13.816 14.216 14.224 13.728 14.232H13.736Z" fill="#220047"/>
</svg>
