<svg width="98" height="57" viewBox="0 0 98 57" fill="none" xmlns="http://www.w3.org/2000/svg">
<path d="M66.5306 22.8034H77.1379C78.2112 22.8034 79.1719 22.205 79.6444 21.2413C80.1174 20.2779 80.0033 19.1516 79.3469 18.3026L75.0803 12.7846C74.5551 12.1057 73.7294 11.7003 72.8713 11.7003H66.5306C64.9909 11.7003 63.738 12.9532 63.738 14.4929V20.0113C63.7377 21.5506 64.9909 22.8034 66.5306 22.8034ZM64.8818 14.4929C64.8818 13.584 65.621 12.8445 66.5302 12.8445H72.8709C73.3774 12.8445 73.8648 13.0836 74.1749 13.4845L78.4415 19.0025C78.8347 19.5113 78.9007 20.1596 78.6173 20.7371C78.334 21.3145 77.7809 21.6589 77.1375 21.6589H66.5302C65.621 21.6589 64.8818 20.9194 64.8818 20.0105V14.4929V14.4929Z" fill="#AA7EF0"/>
<path d="M26.2428 45.3968C24.3279 45.3968 22.7706 46.9544 22.7706 48.8693C22.7706 50.7843 24.3282 52.3419 26.2428 52.3419C28.1574 52.3419 29.715 50.7843 29.715 48.8693C29.715 46.9544 28.1578 45.3968 26.2428 45.3968ZM26.2428 51.1977C24.9591 51.1977 23.9148 50.1531 23.9148 48.8693C23.9148 47.5856 24.9591 46.5409 26.2428 46.5409C27.5266 46.5409 28.5709 47.5856 28.5709 48.8693C28.5709 50.1531 27.5266 51.1977 26.2428 51.1977Z" fill="#AA7EF0"/>
<path d="M71.9417 45.3968C70.0267 45.3968 68.4695 46.9544 68.4695 48.8693C68.4695 50.7843 70.0271 52.3419 71.9417 52.3419C73.8563 52.3419 75.4143 50.7843 75.4143 48.8693C75.4143 46.9544 73.8567 45.3968 71.9417 45.3968ZM71.9417 51.1977C70.6579 51.1977 69.6137 50.1531 69.6137 48.8693C69.6137 47.5856 70.6579 46.5409 71.9417 46.5409C73.2255 46.5409 74.2701 47.5856 74.2701 48.8693C74.2701 50.1531 73.2258 51.1977 71.9417 51.1977Z" fill="#AA7EF0"/>
<path d="M69.81 25.1357H65.3637C64.5078 25.1357 63.8114 25.8321 63.8114 26.6884C63.8114 27.5446 64.5078 28.241 65.3637 28.241H69.81C70.6662 28.241 71.3626 27.5446 71.3626 26.6884C71.363 25.8321 70.6666 25.1357 69.81 25.1357ZM69.81 27.0968H65.3637C65.1387 27.0968 64.9556 26.9138 64.9556 26.6884C64.9556 26.4633 65.1387 26.2799 65.3637 26.2799H69.81C70.0354 26.2799 70.2184 26.463 70.2184 26.6884C70.2188 26.91 70.0315 27.0968 69.81 27.0968Z" fill="#AA7EF0"/>
<path d="M9.9086 0.57209V13.0826H4.38602C4.07023 13.0826 3.81393 13.3385 3.81393 13.6546C3.81393 13.9708 4.07023 14.2267 4.38602 14.2267H9.90822V20.3695H0.57209C0.256296 20.3695 0 20.6254 0 20.9415C0 21.2577 0.256296 21.5136 0.57209 21.5136H9.90822V27.6567H4.38602C4.07023 27.6567 3.81393 27.9127 3.81393 28.2288C3.81393 28.545 4.07023 28.8009 4.38602 28.8009H9.90822V41.0097C8.64428 41.5391 7.75411 42.7878 7.75411 44.2416V44.6917C7.75411 46.623 9.32545 48.1944 11.2568 48.1944H18.1463C18.128 48.4175 18.112 48.6418 18.112 48.8698C18.112 51.8409 19.7188 54.4374 22.1044 55.8558H0.57209C0.256296 55.8558 0 56.1117 0 56.4279C0 56.7441 0.256296 57 0.57209 57H97.0124C97.3282 57 97.5844 56.7441 97.5844 56.4279C97.5844 56.1117 97.3282 55.8558 97.0124 55.8558H76.0788C78.4644 54.4374 80.0712 51.8409 80.0712 48.8698C80.0712 48.6418 80.0556 48.4179 80.0369 48.1944H90.333C92.264 48.1944 93.8357 46.623 93.8357 44.6917V44.2416C93.8357 42.3103 92.2644 40.7389 90.333 40.7389H89.3425V24.699C89.3425 23.7635 89.0622 22.8615 88.5317 22.0903L81.72 12.1893C78.9511 8.16525 74.382 5.76247 69.4975 5.76247H64.1214C62.7426 5.76247 61.5073 6.37461 60.6633 7.33763V0.57209C60.6633 0.255915 60.407 0 60.0912 0H48.4034H22.1685H10.4807C10.1649 0 9.9086 0.255915 9.9086 0.57209ZM11.2568 47.0498C9.95665 47.0498 8.89829 45.9918 8.89829 44.6913V44.2412C8.89829 42.9407 9.95627 41.8827 11.2568 41.8827H22.1048C20.2219 43.0021 18.829 44.8553 18.3248 47.0494H11.2568V47.0498ZM60.0916 41.8831H67.8037C65.9212 43.0025 64.5283 44.8557 64.0237 47.0498H34.1603C33.6561 44.8557 32.2632 43.0025 30.3803 41.8831H48.4034H60.0916ZM47.8313 40.7389H22.7406V36.1202H47.8313V40.7389ZM19.2565 48.8695C19.2565 45.0174 22.3905 41.8835 26.2425 41.8835C30.0946 41.8835 33.2285 45.0174 33.2285 48.8695C33.2285 52.7215 30.0946 55.8554 26.2425 55.8554C22.3905 55.8554 19.2565 52.7215 19.2565 48.8695ZM30.3803 55.8554C32.7659 54.437 34.3727 51.8405 34.3727 48.8695C34.3727 48.6414 34.3571 48.4175 34.3384 48.194H63.8452C63.8269 48.4171 63.8109 48.6414 63.8109 48.8695C63.8109 51.8405 65.4177 54.437 67.8033 55.8554H30.3803ZM71.9411 55.8554C68.089 55.8554 64.9555 52.7215 64.9555 48.8695C64.9555 45.0174 68.0894 41.8835 71.9411 41.8835C75.7935 41.8835 78.9271 45.0174 78.9271 48.8695C78.9271 52.7215 75.7935 55.8554 71.9411 55.8554ZM92.6919 44.2416V44.6917C92.6919 45.9922 91.634 47.0502 90.3334 47.0502H79.8588C79.3546 44.8561 77.9618 43.0029 76.0788 41.8835H88.7708H90.3334C91.6336 41.8831 92.6919 42.9411 92.6919 44.2416ZM64.1218 6.90703H69.4979C74.0056 6.90703 78.2226 9.12407 80.778 12.8381L87.5893 22.7391C87.9878 23.3188 88.1987 23.9961 88.1987 24.6994V40.7393H60.6637V10.3651C60.6637 8.45816 62.2148 6.90703 64.1218 6.90703ZM47.8313 1.14418V5.76285H22.7406V1.14418H47.8313ZM21.5964 1.14418V6.33494C21.5964 6.65112 21.8527 6.90703 22.1685 6.90703H48.4034C48.7192 6.90703 48.9755 6.65112 48.9755 6.33494V1.14418H59.5195V10.3651V40.7393H48.9755V35.5485C48.9755 35.2324 48.7192 34.9764 48.4034 34.9764H22.1685C21.8527 34.9764 21.5964 35.2324 21.5964 35.5485V40.7393H11.2568H11.0528V28.8009H22.9934C23.3092 28.8009 23.5655 28.545 23.5655 28.2288C23.5655 27.9127 23.3092 27.6567 22.9934 27.6567H11.0528V21.5136H23.334C23.622 27.6983 28.5572 32.6492 34.8067 32.8959H34.8079C34.9669 32.902 35.1263 32.9078 35.2865 32.9078C35.4471 32.9078 35.6065 32.902 35.7652 32.8959H35.7663C42.2077 32.6416 47.2531 27.3901 47.2531 20.9415C47.2531 14.4929 42.2077 9.24193 35.7663 8.98715C35.4486 8.97495 35.1267 8.97495 34.8075 8.98715C28.5584 9.2343 23.6231 14.1848 23.3348 20.3695H11.0528V14.2267H22.9934C23.3092 14.2267 23.5655 13.9708 23.5655 13.6546C23.5655 13.3385 23.3092 13.0826 22.9934 13.0826H11.0528V1.14418H21.5964ZM35.0562 10.1306C35.2099 10.1275 35.3628 10.1275 35.5161 10.1306C37.3521 11.819 38.711 13.9315 39.4937 16.2527H31.0786C31.8616 13.9315 33.2201 11.819 35.0562 10.1306ZM35.5161 31.7525C35.3632 31.756 35.2099 31.756 35.0562 31.7525C33.2201 30.0641 31.8616 27.9519 31.0786 25.6304H39.4937C38.7107 27.9516 37.3518 30.0641 35.5161 31.7525ZM46.1085 20.9415C46.1085 22.1837 45.8992 23.3756 45.517 24.4862H41.0059C41.2713 23.3325 41.4105 22.1445 41.4105 20.9415C41.4105 19.7386 41.2713 18.5502 41.0059 17.3969H45.517C45.8992 18.5075 46.1085 19.6994 46.1085 20.9415ZM40.2667 20.9415C40.2667 22.1471 40.1134 23.3363 39.8266 24.4862H30.7456C30.4588 23.3359 30.3055 22.1471 30.3055 20.9415C30.3055 19.736 30.4588 18.5472 30.7456 17.3969H39.8266C40.113 18.5472 40.2667 19.736 40.2667 20.9415ZM29.566 24.4862H25.0556C24.6735 23.3756 24.4641 22.1837 24.4641 20.9415C24.4641 19.6994 24.6735 18.5075 25.0556 17.3969H29.5664C29.3009 18.5502 29.1617 19.7386 29.1617 20.9415C29.1613 22.1445 29.3005 23.3329 29.566 24.4862ZM29.8776 25.6304C30.5584 27.8226 31.7071 29.8562 33.2628 31.574C29.8208 30.9302 26.9809 28.677 25.5228 25.6304H29.8776ZM40.6947 25.6304H45.0494C43.5914 28.677 40.7515 30.9302 37.309 31.574C38.8651 29.8562 40.0139 27.8226 40.6947 25.6304ZM40.6947 16.2527C40.0139 14.0604 38.8651 12.0269 37.309 10.3091C40.7511 10.9529 43.5914 13.2061 45.0494 16.2527H40.6947ZM29.8776 16.2527H25.5228C26.9809 13.2061 29.8208 10.9529 33.2628 10.3091C31.7071 12.0269 30.5584 14.0604 29.8776 16.2527Z" fill="#AA7EF0"/>
</svg>
