<svg width="20" height="20" viewBox="0 0 20 20" fill="none" xmlns="http://www.w3.org/2000/svg">
<path d="M13.9109 2.5H12.5505C12.4302 2.5 12.3327 2.59752 12.3327 2.71785C12.3327 2.83818 12.4302 2.9357 12.5505 2.9357H13.9109C14.2712 2.9357 14.5644 3.22887 14.5644 3.5892V13.7259C14.5644 14.0863 14.2712 14.3794 13.9109 14.3794H8.5337C8.41336 14.3794 8.31587 14.4769 8.31587 14.5973C8.31587 14.7176 8.41339 14.8151 8.5337 14.8151H13.9109C14.1559 14.8151 14.3822 14.7337 14.5644 14.5967V14.5972C14.5644 14.9576 14.2712 15.2507 13.9109 15.2507H5.2794C5.15907 15.2507 5.06158 15.3482 5.06158 15.4686C5.06158 15.5889 5.15909 15.6864 5.2794 15.6864H6.11596V16.122H4.83917C4.47884 16.122 4.18567 15.8289 4.18567 15.4686C4.18567 15.1082 4.47884 14.8151 4.83917 14.8151H7.66235C7.78268 14.8151 7.8802 14.7175 7.8802 14.5972C7.8802 14.4769 7.78268 14.3794 7.66235 14.3794H5.49722V2.93567H11.6791C11.7995 2.93567 11.897 2.83816 11.897 2.71782C11.897 2.59749 11.7995 2.5 11.6791 2.5H4.83917C4.23858 2.5 3.75 2.98861 3.75 3.58917V15.4686C3.75 16.0692 4.23861 16.5578 4.83917 16.5578H6.11596V17.1242C6.11086 17.2878 6.30671 17.3993 6.44487 17.3116L7.21589 16.8546L7.98694 17.3116C8.1251 17.3994 8.32095 17.2878 8.31585 17.1242V16.5578H11.6791C11.7995 16.5578 11.897 16.4603 11.897 16.34C11.897 16.2197 11.7994 16.1221 11.6791 16.1221H8.31585V15.6864H13.9108C14.1558 15.6864 14.3822 15.6051 14.5643 15.468V15.4686C14.5643 15.829 14.2712 16.1221 13.9108 16.1221H12.5505C12.4301 16.1221 12.3326 16.2196 12.3326 16.34C12.3326 16.4603 12.4302 16.5578 12.5505 16.5578H13.9108C14.5114 16.5578 15 16.0692 15 15.4686V3.58917C15 2.98861 14.5114 2.5 13.9109 2.5ZM4.18567 3.58917C4.18567 3.22881 4.47884 2.93567 4.83917 2.93567H5.06155V14.3794H4.83917C4.59419 14.3794 4.36781 14.4607 4.18567 14.5978V3.58917ZM7.8802 16.7418L7.32697 16.4139C7.29271 16.3936 7.2543 16.3835 7.21589 16.3835C7.17748 16.3835 7.13904 16.3936 7.1048 16.4139L6.55161 16.7418V15.6864H7.88017V16.7418H7.8802Z" fill="#220047"/>
</svg>
