<?xml version="1.0" encoding="utf-8"?>
<!-- Generator: Adobe Illustrator 25.1.0, SVG Export Plug-In . SVG Version: 6.00 Build 0)  -->
<svg version="1.1" id="Layer_1" xmlns="http://www.w3.org/2000/svg" xmlns:xlink="http://www.w3.org/1999/xlink" x="0px" y="0px"
	 viewBox="0 0 63.7 73.5" style="enable-background:new 0 0 63.7 73.5;" xml:space="preserve">
<path d="M32.5,7.9c7.8,0,14.2,6.3,14.2,14.2s-6.3,14.2-14.2,14.2S18.3,29.9,18.3,22S24.7,7.9,32.5,7.9 M32.5,40
	c13.4,0,24.3,10.9,24.3,24.3H8.2C8.2,50.9,19.1,40,32.5,40 M32.5,4.9C23,4.9,15.3,12.6,15.3,22c0,7.1,4.3,13.2,10.5,15.8
	C14,40.9,5.2,51.6,5.2,64.4c0,1.7,1.3,3,3,3h48.7c1.7,0,3-1.3,3-3c0-12.8-8.8-23.5-20.7-26.5c6.2-2.6,10.5-8.7,10.5-15.8
	C49.7,12.6,42,4.9,32.5,4.9L32.5,4.9z"/>
</svg>
