<?xml version="1.0" encoding="UTF-8"?><svg id="Layer_2" xmlns="http://www.w3.org/2000/svg" viewBox="0 0 368.01 540.52"><defs><style>.cls-1{stroke:#231f20;stroke-miterlimit:10;stroke-width:4px;}</style></defs><g id="Layer_2-2"><path d="m362.26,414.01H51.75c-3.18,0-5.75-2.58-5.75-5.75V5.75c0-3.17,2.58-5.75,5.75-5.75h310.51c3.17,0,5.75,2.57,5.75,5.75v402.51c0,3.17-2.57,5.75-5.75,5.75Zm-304.76-11.5h299.01V11.5H57.5v391.01Z"/><path d="m5.75,460.01c-3.17,0-5.75-2.58-5.75-5.75V37.57C0,16.85,16.85,0,37.57,0h25.68c3.18,0,5.75,2.57,5.75,5.75s-2.57,5.75-5.75,5.75h-25.68c-14.37,0-26.07,11.69-26.07,26.07v416.69c0,3.17-2.57,5.75-5.75,5.75Z"/><path d="m281.76,57.5H51.75c-3.18,0-5.75-2.57-5.75-5.75s2.58-5.75,5.75-5.75h230c3.18,0,5.75,2.58,5.75,5.75s-2.57,5.75-5.75,5.75Z"/><path d="m316.26,63.25c-3.03,0-6-1.23-8.14-3.37-2.13-2.14-3.37-5.1-3.37-8.13s1.23-5.99,3.37-8.13c2.14-2.14,5.11-3.37,8.14-3.37s5.99,1.23,8.12,3.37c2.14,2.14,3.38,5.1,3.38,8.13s-1.23,5.99-3.38,8.13c-2.13,2.14-5.1,3.37-8.12,3.37Z"/><path d="m362.26,368.01h-230.01c-3.17,0-5.75-2.57-5.75-5.75s2.58-5.75,5.75-5.75h230.01c3.17,0,5.75,2.57,5.75,5.75s-2.57,5.75-5.75,5.75Z"/><path d="m362.26,494.52h-184.01c-3.18,0-5.75-2.58-5.75-5.75v-28.75h-80.5v28.75c0,3.17-2.57,5.75-5.75,5.75h-40.25c-25.37,0-46-20.64-46-46s20.64-46,46-46h316.26c3.17,0,5.75,2.57,5.75,5.75v80.5c0,3.17-2.57,5.75-5.75,5.75Zm-178.26-11.5h172.5v-69H46c-19.03,0-34.5,15.47-34.5,34.5s15.48,34.5,34.5,34.5h34.5v-28.75c0-3.18,2.57-5.75,5.75-5.75h92c3.17,0,5.75,2.57,5.75,5.75v28.75Z"/><path d="m178.26,540.52c-1.22,0-2.44-.39-3.45-1.15l-42.55-31.91-42.55,31.91c-1.74,1.31-4.07,1.52-6.02.54-1.95-.98-3.18-2.96-3.18-5.14v-80.5c0-3.18,2.57-5.75,5.75-5.75h92c3.17,0,5.75,2.57,5.75,5.75v80.5c0,2.18-1.23,4.17-3.18,5.14-.82.4-1.69.61-2.57.61Zm-46-46c1.22,0,2.43.38,3.45,1.14l36.8,27.6v-63.25h-80.5v63.25l36.8-27.6c1.02-.76,2.23-1.14,3.44-1.14Z"/><path d="m362.26,460.01H63.25c-3.18,0-5.75-2.58-5.75-5.75s2.58-5.75,5.75-5.75h299.01c3.17,0,5.75,2.57,5.75,5.75s-2.57,5.75-5.75,5.75Z"/><path d="m222,323.12h-29.73c-3.17,0-5.75-2.58-5.75-5.75s2.57-5.75,5.75-5.75h29.73c3.17,0,5.75,2.57,5.75,5.75s-2.57,5.75-5.75,5.75Z"/><path d="m100.39,340.24c-12.69,0-23-10.32-23-23s10.32-23,23-23,23,10.32,23,23-10.32,23-23,23Zm0-36.8c-7.61,0-13.8,6.19-13.8,13.8s6.19,13.8,13.8,13.8,13.8-6.19,13.8-13.8-6.19-13.8-13.8-13.8Z"/><rect x="304.76" y="263.5" width="23" height="23" transform="translate(-101.82 304.18) rotate(-45)"/><rect x="78.37" y="229" width="23" height="23" transform="translate(-143.74 133.99) rotate(-45)"/><path class="cls-1" d="m206.88,101.5c19.88,0,36.19,16.05,36.19,36.19s-16.05,36.19-36.19,36.19-36.19-16.31-36.19-36.44,16.31-35.93,36.19-35.93m0,81.8c34.15,0,61.93,27.78,61.93,61.93h-123.85c0-34.15,27.78-61.93,61.93-61.93m0-89.45c-24.21,0-43.83,19.62-43.83,43.58,0,18.09,10.96,33.64,26.76,40.26-30.07,7.9-52.5,35.17-52.5,67.79,0,4.33,3.31,7.65,7.65,7.65h124.11c4.33,0,7.65-3.31,7.65-7.65,0-32.62-22.43-59.89-52.75-67.53,15.8-6.63,26.76-22.17,26.76-40.26,0-24.21-19.62-43.83-43.83-43.83h0Z"/></g></svg>