<svg width="67" height="50" viewBox="0 0 67 50" fill="none" xmlns="http://www.w3.org/2000/svg">
<mask id="path-1-inside-1_972_543" fill="white">
<path class="noFill noStroke" d="M43.1129 37.1906C45.0972 35.224 46.4577 32.7038 47.021 29.9512C47.5843 27.1987 47.3248 24.3388 46.2756 21.7362C45.2264 19.1336 43.435 16.9063 41.13 15.3385C38.825 13.7707 36.1108 12.9333 33.3337 12.9333C30.5565 12.9333 27.8424 13.7707 25.5373 15.3385C23.2323 16.9063 21.4409 19.1336 20.3917 21.7362C19.3425 24.3388 19.083 27.1987 19.6463 29.9512C20.2096 32.7038 21.5702 35.224 23.5545 37.1906C20.1948 38.9983 17.4015 41.7209 15.4903 45.051C15.081 45.7996 14.9783 46.6809 15.2045 47.5054C15.4306 48.3298 15.9675 49.0314 16.6995 49.4593C17.4315 49.8872 18.3002 50.0071 19.1187 49.7933C19.9372 49.5794 20.6401 49.049 21.0761 48.316C22.3365 46.1604 24.13 44.3743 26.2798 43.1336C28.4296 41.893 30.8616 41.2405 33.3363 41.2405C35.811 41.2405 38.2431 41.893 40.3929 43.1336C42.5427 44.3743 44.3362 46.1604 45.5966 48.316C45.8041 48.6955 46.0843 49.0294 46.4207 49.2981C46.7571 49.5668 47.1431 49.765 47.556 49.881C47.9689 49.997 48.4006 50.0286 48.8257 49.9739C49.2508 49.9192 49.6609 49.7793 50.0321 49.5624C50.4032 49.3455 50.7279 49.0559 50.9872 48.7105C51.2465 48.3652 51.4352 47.971 51.5423 47.551C51.6494 47.131 51.6727 46.6936 51.6109 46.2643C51.5491 45.8351 51.4035 45.4226 51.1824 45.051C49.2697 41.7202 46.4745 38.9974 43.1129 37.1906ZM25.8071 27.0965C25.8071 25.5897 26.2485 24.1168 27.0755 22.864C27.9026 21.6112 29.0781 20.6347 30.4534 20.0581C31.8287 19.4815 33.342 19.3307 34.802 19.6246C36.262 19.9186 37.6032 20.6441 38.6558 21.7096C39.7084 22.775 40.4252 24.1324 40.7156 25.6102C41.006 27.088 40.857 28.6198 40.2873 30.0118C39.7176 31.4039 38.753 32.5937 37.5152 33.4308C36.2775 34.2679 34.8223 34.7147 33.3337 34.7147C31.3375 34.7147 29.4231 33.9121 28.0116 32.4834C26.6001 31.0547 25.8071 29.1169 25.8071 27.0965ZM65.3781 29.7057C65.0393 29.9635 64.6536 30.1512 64.2431 30.2581C63.8326 30.3649 63.4053 30.3889 62.9856 30.3285C62.566 30.2681 62.1622 30.1246 61.7974 29.9061C61.4326 29.6877 61.1138 29.3986 60.8595 29.0554C58.6203 26.0381 55.5237 23.7254 52.9754 23.1676C52.2978 23.0193 51.6854 22.6539 51.2291 22.1257C50.7727 21.5975 50.4966 20.9345 50.4417 20.235C50.3868 19.5355 50.556 18.8367 50.9243 18.2422C51.2925 17.6477 51.8402 17.189 52.4861 16.9343C53.2904 16.6165 54.0072 16.1074 54.5759 15.4499C55.1447 14.7925 55.5486 14.0061 55.7536 13.1572C55.9586 12.3084 55.9586 11.422 55.7536 10.5732C55.5486 9.7243 55.1447 8.93789 54.5759 8.28045C54.0072 7.62301 53.2904 7.11388 52.4861 6.79612C51.6819 6.47836 50.8139 6.36132 49.9555 6.4549C49.0971 6.54847 48.2736 6.84991 47.5547 7.33372C46.8358 7.81753 46.2425 8.46948 45.8251 9.23442C45.6272 9.62206 45.3545 9.96561 45.0231 10.2448C44.6918 10.5239 44.3085 10.733 43.896 10.8597C43.4834 10.9864 43.05 11.0281 42.6213 10.9823C42.1925 10.9365 41.7772 10.8043 41.3999 10.5933C41.0225 10.3823 40.6907 10.0969 40.4242 9.75392C40.1577 9.41095 39.9618 9.01739 39.8481 8.59648C39.7344 8.17558 39.7052 7.73587 39.7622 7.30335C39.8193 6.87084 39.9614 6.45428 40.1802 6.0783C40.9784 4.64974 42.0582 3.40255 43.3527 2.41421C44.6471 1.42587 46.1285 0.717483 47.7049 0.333055C49.2812 -0.0513728 50.9188 -0.103632 52.5159 0.179525C54.1131 0.462681 55.6356 1.07521 56.989 1.97905C58.3424 2.88289 59.4978 4.05875 60.3833 5.43358C61.2688 6.80841 61.8655 8.35284 62.1365 9.97095C62.4075 11.5891 62.3468 13.2463 61.9584 14.8397C61.5699 16.4331 60.8619 17.9286 59.8783 19.2334C62.2451 20.8291 64.3229 22.8254 66.0206 25.1348C66.5341 25.8272 66.755 26.6977 66.6345 27.5549C66.514 28.4121 66.0621 29.1857 65.3781 29.7057ZM13.692 23.1758C11.1437 23.7335 8.04702 26.0462 5.80786 29.0663C5.29277 29.7587 4.52705 30.2156 3.67913 30.3365C2.83122 30.4575 1.97057 30.2325 1.28653 29.7111C0.602481 29.1898 0.151068 28.4147 0.0315941 27.5565C-0.08788 26.6983 0.134371 25.8271 0.649456 25.1348C2.34788 22.8261 4.4255 20.83 6.79169 19.2334C5.80813 17.9286 5.10013 16.4331 4.71166 14.8397C4.32319 13.2463 4.26255 11.5891 4.53351 9.97095C4.80447 8.35284 5.40124 6.80841 6.28675 5.43358C7.17226 4.05875 8.32759 2.88289 9.68099 1.97905C11.0344 1.07521 12.5569 0.462681 14.1541 0.179525C15.7512 -0.103632 17.3888 -0.0513728 18.9651 0.333055C20.5415 0.717483 22.0229 1.42587 23.3173 2.41421C24.6118 3.40255 25.6917 4.64974 26.4898 6.0783C26.7086 6.45428 26.8508 6.87084 26.9078 7.30335C26.9648 7.73587 26.9356 8.17558 26.8219 8.59648C26.7082 9.01739 26.5123 9.41095 26.2458 9.75392C25.9793 10.0969 25.6475 10.3823 25.2702 10.5933C24.8928 10.8043 24.4775 10.9365 24.0487 10.9823C23.62 11.0281 23.1866 10.9864 22.774 10.8597C22.3615 10.733 21.9782 10.5239 21.6469 10.2448C21.3155 9.96561 21.0428 9.62206 20.8449 9.23442C20.4275 8.46948 19.8343 7.81753 19.1153 7.33372C18.3964 6.84991 17.5729 6.54847 16.7145 6.4549C15.8561 6.36132 14.9881 6.47836 14.1839 6.79612C13.3796 7.11388 12.6628 7.62301 12.0941 8.28045C11.5254 8.93789 11.1214 9.7243 10.9164 10.5732C10.7114 11.422 10.7114 12.3084 10.9164 13.1572C11.1214 14.0061 11.5254 14.7925 12.0941 15.4499C12.6628 16.1074 13.3796 16.6165 14.1839 16.9343C14.8298 17.189 15.3775 17.6477 15.7458 18.2422C16.114 18.8367 16.2832 19.5355 16.2283 20.235C16.1734 20.9345 15.8973 21.5975 15.441 22.1257C14.9846 22.6539 14.3722 23.0193 13.6946 23.1676L13.692 23.1758Z" stroke="black" stroke-width="2.4"/>
</mask>
<path class="noStroke" d="M43.1129 37.1906C45.0972 35.224 46.4577 32.7038 47.021 29.9512C47.5843 27.1987 47.3248 24.3388 46.2756 21.7362C45.2264 19.1336 43.435 16.9063 41.13 15.3385C38.825 13.7707 36.1108 12.9333 33.3337 12.9333C30.5565 12.9333 27.8424 13.7707 25.5373 15.3385C23.2323 16.9063 21.4409 19.1336 20.3917 21.7362C19.3425 24.3388 19.083 27.1987 19.6463 29.9512C20.2096 32.7038 21.5702 35.224 23.5545 37.1906C20.1948 38.9983 17.4015 41.7209 15.4903 45.051C15.081 45.7996 14.9783 46.6809 15.2045 47.5054C15.4306 48.3298 15.9675 49.0314 16.6995 49.4593C17.4315 49.8872 18.3002 50.0071 19.1187 49.7933C19.9372 49.5794 20.6401 49.049 21.0761 48.316C22.3365 46.1604 24.13 44.3743 26.2798 43.1336C28.4296 41.893 30.8616 41.2405 33.3363 41.2405C35.811 41.2405 38.2431 41.893 40.3929 43.1336C42.5427 44.3743 44.3362 46.1604 45.5966 48.316C45.8041 48.6955 46.0843 49.0294 46.4207 49.2981C46.7571 49.5668 47.1431 49.765 47.556 49.881C47.9689 49.997 48.4006 50.0286 48.8257 49.9739C49.2508 49.9192 49.6609 49.7793 50.0321 49.5624C50.4032 49.3455 50.7279 49.0559 50.9872 48.7105C51.2465 48.3652 51.4352 47.971 51.5423 47.551C51.6494 47.131 51.6727 46.6936 51.6109 46.2643C51.5491 45.8351 51.4035 45.4226 51.1824 45.051C49.2697 41.7202 46.4745 38.9974 43.1129 37.1906ZM25.8071 27.0965C25.8071 25.5897 26.2485 24.1168 27.0755 22.864C27.9026 21.6112 29.0781 20.6347 30.4534 20.0581C31.8287 19.4815 33.342 19.3307 34.802 19.6246C36.262 19.9186 37.6032 20.6441 38.6558 21.7096C39.7084 22.775 40.4252 24.1324 40.7156 25.6102C41.006 27.088 40.857 28.6198 40.2873 30.0118C39.7176 31.4039 38.753 32.5937 37.5152 33.4308C36.2775 34.2679 34.8223 34.7147 33.3337 34.7147C31.3375 34.7147 29.4231 33.9121 28.0116 32.4834C26.6001 31.0547 25.8071 29.1169 25.8071 27.0965ZM65.3781 29.7057C65.0393 29.9635 64.6536 30.1512 64.2431 30.2581C63.8326 30.3649 63.4053 30.3889 62.9856 30.3285C62.566 30.2681 62.1622 30.1246 61.7974 29.9061C61.4326 29.6877 61.1138 29.3986 60.8595 29.0554C58.6203 26.0381 55.5237 23.7254 52.9754 23.1676C52.2978 23.0193 51.6854 22.6539 51.2291 22.1257C50.7727 21.5975 50.4966 20.9345 50.4417 20.235C50.3868 19.5355 50.556 18.8367 50.9243 18.2422C51.2925 17.6477 51.8402 17.189 52.4861 16.9343C53.2904 16.6165 54.0072 16.1074 54.5759 15.4499C55.1447 14.7925 55.5486 14.0061 55.7536 13.1572C55.9586 12.3084 55.9586 11.422 55.7536 10.5732C55.5486 9.7243 55.1447 8.93789 54.5759 8.28045C54.0072 7.62301 53.2904 7.11388 52.4861 6.79612C51.6819 6.47836 50.8139 6.36132 49.9555 6.4549C49.0971 6.54847 48.2736 6.84991 47.5547 7.33372C46.8358 7.81753 46.2425 8.46948 45.8251 9.23442C45.6272 9.62206 45.3545 9.96561 45.0231 10.2448C44.6918 10.5239 44.3085 10.733 43.896 10.8597C43.4834 10.9864 43.05 11.0281 42.6213 10.9823C42.1925 10.9365 41.7772 10.8043 41.3999 10.5933C41.0225 10.3823 40.6907 10.0969 40.4242 9.75392C40.1577 9.41095 39.9618 9.01739 39.8481 8.59648C39.7344 8.17558 39.7052 7.73587 39.7622 7.30335C39.8193 6.87084 39.9614 6.45428 40.1802 6.0783C40.9784 4.64974 42.0582 3.40255 43.3527 2.41421C44.6471 1.42587 46.1285 0.717483 47.7049 0.333055C49.2812 -0.0513728 50.9188 -0.103632 52.5159 0.179525C54.1131 0.462681 55.6356 1.07521 56.989 1.97905C58.3424 2.88289 59.4978 4.05875 60.3833 5.43358C61.2688 6.80841 61.8655 8.35284 62.1365 9.97095C62.4075 11.5891 62.3468 13.2463 61.9584 14.8397C61.5699 16.4331 60.8619 17.9286 59.8783 19.2334C62.2451 20.8291 64.3229 22.8254 66.0206 25.1348C66.5341 25.8272 66.755 26.6977 66.6345 27.5549C66.514 28.4121 66.0621 29.1857 65.3781 29.7057ZM13.692 23.1758C11.1437 23.7335 8.04702 26.0462 5.80786 29.0663C5.29277 29.7587 4.52705 30.2156 3.67913 30.3365C2.83122 30.4575 1.97057 30.2325 1.28653 29.7111C0.602481 29.1898 0.151068 28.4147 0.0315941 27.5565C-0.08788 26.6983 0.134371 25.8271 0.649456 25.1348C2.34788 22.8261 4.4255 20.83 6.79169 19.2334C5.80813 17.9286 5.10013 16.4331 4.71166 14.8397C4.32319 13.2463 4.26255 11.5891 4.53351 9.97095C4.80447 8.35284 5.40124 6.80841 6.28675 5.43358C7.17226 4.05875 8.32759 2.88289 9.68099 1.97905C11.0344 1.07521 12.5569 0.462681 14.1541 0.179525C15.7512 -0.103632 17.3888 -0.0513728 18.9651 0.333055C20.5415 0.717483 22.0229 1.42587 23.3173 2.41421C24.6118 3.40255 25.6917 4.64974 26.4898 6.0783C26.7086 6.45428 26.8508 6.87084 26.9078 7.30335C26.9648 7.73587 26.9356 8.17558 26.8219 8.59648C26.7082 9.01739 26.5123 9.41095 26.2458 9.75392C25.9793 10.0969 25.6475 10.3823 25.2702 10.5933C24.8928 10.8043 24.4775 10.9365 24.0487 10.9823C23.62 11.0281 23.1866 10.9864 22.774 10.8597C22.3615 10.733 21.9782 10.5239 21.6469 10.2448C21.3155 9.96561 21.0428 9.62206 20.8449 9.23442C20.4275 8.46948 19.8343 7.81753 19.1153 7.33372C18.3964 6.84991 17.5729 6.54847 16.7145 6.4549C15.8561 6.36132 14.9881 6.47836 14.1839 6.79612C13.3796 7.11388 12.6628 7.62301 12.0941 8.28045C11.5254 8.93789 11.1214 9.7243 10.9164 10.5732C10.7114 11.422 10.7114 12.3084 10.9164 13.1572C11.1214 14.0061 11.5254 14.7925 12.0941 15.4499C12.6628 16.1074 13.3796 16.6165 14.1839 16.9343C14.8298 17.189 15.3775 17.6477 15.7458 18.2422C16.114 18.8367 16.2832 19.5355 16.2283 20.235C16.1734 20.9345 15.8973 21.5975 15.441 22.1257C14.9846 22.6539 14.3722 23.0193 13.6946 23.1676L13.692 23.1758Z" stroke-width="2.4" mask="url(#path-1-inside-1_972_543)"/>
</svg>
