<svg width="50" height="50" viewBox="0 0 50 50" fill="none" xmlns="http://www.w3.org/2000/svg">
<path class="noStroke" d="M10.7143 30.3571H7.14282V26.7857C7.14424 25.3653 7.70911 24.0035 8.71346 22.9992C9.71781 21.9948 11.0796 21.43 12.5 21.4285H21.4285V25H12.5C12.0265 25.0004 11.5726 25.1887 11.2378 25.5235C10.903 25.8583 10.7147 26.3122 10.7143 26.7857V30.3571ZM17.8571 19.6428C16.4444 19.6428 15.0634 19.2239 13.8888 18.439C12.7141 17.6542 11.7986 16.5386 11.258 15.2334C10.7173 13.9282 10.5759 12.4921 10.8515 11.1065C11.1271 9.7209 11.8074 8.44816 12.8063 7.44921C13.8053 6.45027 15.078 5.76998 16.4636 5.49437C17.8492 5.21876 19.2854 5.36021 20.5906 5.90084C21.8957 6.44146 23.0113 7.35698 23.7962 8.53162C24.581 9.70625 25 11.0873 25 12.5C24.9976 14.3937 24.2443 16.2091 22.9053 17.5481C21.5662 18.8872 19.7508 19.6405 17.8571 19.6428ZM17.8571 8.92855C17.1507 8.92855 16.4602 9.13801 15.8729 9.53044C15.2856 9.92288 14.8279 10.4807 14.5575 11.1333C14.2872 11.7858 14.2165 12.5039 14.3543 13.1967C14.4921 13.8895 14.8323 14.5259 15.3317 15.0254C15.8312 15.5248 16.4676 15.865 17.1604 16.0028C17.8531 16.1406 18.5712 16.0699 19.2238 15.7995C19.8764 15.5292 20.4342 15.0715 20.8266 14.4842C21.2191 13.8968 21.4285 13.2063 21.4285 12.5C21.4276 11.5531 21.051 10.6452 20.3814 9.97564C19.7119 9.30607 18.804 8.92949 17.8571 8.92855ZM32.1428 32.1428C30.7301 32.1428 29.3491 31.7239 28.1745 30.939C26.9998 30.1542 26.0843 29.0386 25.5437 27.7334C25.0031 26.4282 24.8616 24.9921 25.1372 23.6065C25.4128 22.2209 26.0931 20.9482 27.0921 19.9492C28.091 18.9503 29.3637 18.27 30.7493 17.9944C32.1349 17.7188 33.5711 17.8602 34.8763 18.4008C36.1815 18.9415 37.297 19.857 38.0819 21.0316C38.8668 22.2063 39.2857 23.5873 39.2857 25C39.2833 26.8937 38.53 28.7091 37.191 30.0481C35.8519 31.3872 34.0365 32.1405 32.1428 32.1428ZM32.1428 21.4285C31.4365 21.4285 30.746 21.638 30.1586 22.0304C29.5713 22.4229 29.1136 22.9807 28.8433 23.6333C28.5729 24.2858 28.5022 25.0039 28.64 25.6967C28.7778 26.3895 29.118 27.0259 29.6174 27.5254C30.1169 28.0248 30.7533 28.365 31.4461 28.5028C32.1389 28.6406 32.857 28.5699 33.5096 28.2995C34.1621 28.0292 34.7199 27.5715 35.1124 26.9842C35.5048 26.3968 35.7143 25.7063 35.7143 25C35.7133 24.0531 35.3367 23.1452 34.6672 22.4756C33.9976 21.8061 33.0897 21.4295 32.1428 21.4285ZM42.8571 42.8571H39.2857V39.2857C39.2852 38.8122 39.0969 38.3583 38.7621 38.0235C38.4274 37.6887 37.9734 37.5004 37.5 37.5H26.7857C26.3122 37.5004 25.8583 37.6887 25.5235 38.0235C25.1887 38.3583 25.0004 38.8122 25 39.2857V42.8571H21.4285V39.2857C21.43 37.8653 21.9948 36.5035 22.9992 35.4992C24.0035 34.4948 25.3653 33.93 26.7857 33.9285H37.5C38.9203 33.93 40.2821 34.4948 41.2865 35.4992C42.2908 36.5035 42.8557 37.8653 42.8571 39.2857V42.8571Z" fill="#00FFC3"/>
<path class="noStroke" d="M10.7143 50H3.57143C2.62452 49.9991 1.71666 49.6225 1.04709 48.9529C0.377523 48.2833 0.000945494 47.3755 0 46.4286V3.57143C0.000945494 2.62452 0.377523 1.71666 1.04709 1.04709C1.71666 0.377523 2.62452 0.000945494 3.57143 0H10.7143V3.57143H3.57143V46.4286H10.7143V50ZM46.4286 50H39.2857V46.4286H46.4286V3.57143H39.2857V0H46.4286C47.3755 0.000945494 48.2833 0.377523 48.9529 1.04709C49.6225 1.71666 49.9991 2.62452 50 3.57143V46.4286C49.9991 47.3755 49.6225 48.2833 48.9529 48.9529C48.2833 49.6225 47.3755 49.9991 46.4286 50Z" fill="#00FFC3"/>
</svg>
