<svg width="50" height="48" viewBox="0 0 50 48" fill="none" xmlns="http://www.w3.org/2000/svg">
<path d="M47.214 12.2535C47.214 12.6151 47.1976 12.9684 47.1647 13.3136C47.1318 13.6588 47.0661 14.0122 46.9675 14.3738L50 15.6312L48.7919 18.5404L45.7347 17.283C44.9786 18.4993 43.9924 19.4855 42.7761 20.2416L44.0335 23.3235L41.1243 24.5316L39.8422 21.4744C39.497 21.5565 39.1519 21.6141 38.8067 21.6469C38.4615 21.6798 38.1082 21.7045 37.7465 21.7209C37.3849 21.7209 37.0316 21.7045 36.6864 21.6716C36.3412 21.6387 35.9878 21.573 35.6262 21.4744L35.0592 22.855L32.3225 21.2032L32.717 20.2416C31.5007 19.4855 30.5145 18.4993 29.7584 17.283L26.6765 18.5404L25.4684 15.6312L28.5256 14.3738C28.4435 14.0286 28.3859 13.6834 28.3531 13.3383C28.3202 12.9931 28.2955 12.6315 28.2791 12.2535C28.2791 11.8918 28.2955 11.5385 28.3284 11.1933C28.3613 10.8481 28.427 10.503 28.5256 10.1578L25.4684 8.87574L26.6765 5.96647L29.7584 7.24852C30.1364 6.64037 30.572 6.08974 31.0651 5.59665C31.5582 5.10355 32.1088 4.65976 32.717 4.26529L31.4596 1.20809L34.3688 0L35.6262 3.03254C35.9714 2.95036 36.3166 2.89283 36.6617 2.85996C37.0069 2.82709 37.3685 2.80243 37.7465 2.786C38.1082 2.786 38.4615 2.80243 38.8067 2.83531C39.1519 2.86818 39.497 2.93392 39.8422 3.03254L41.1243 0L44.0335 1.20809L42.7761 4.26529C43.9924 5.02137 44.9786 6.00756 45.7347 7.22387L48.7919 5.96647L50 8.87574L46.9675 10.1578C47.0496 10.503 47.1072 10.8481 47.14 11.1933C47.1729 11.5385 47.1976 11.8918 47.214 12.2535ZM37.7465 18.5651C38.6177 18.5651 39.4313 18.4007 40.1874 18.072C40.9435 17.7433 41.6174 17.2913 42.2091 16.716C42.8008 16.1407 43.2528 15.475 43.5651 14.7189C43.8774 13.9629 44.0417 13.141 44.0582 12.2535C44.0582 11.3823 43.8938 10.5687 43.5651 9.81262C43.2364 9.05654 42.7844 8.38264 42.2091 7.79093C41.6338 7.19921 40.9681 6.74721 40.212 6.43491C39.4559 6.12262 38.6341 5.95825 37.7465 5.94181C36.8754 5.94181 36.0618 6.10618 35.3057 6.43491C34.5496 6.76364 33.8757 7.21565 33.284 7.79093C32.6923 8.36621 32.2403 9.03189 31.928 9.78797C31.6157 10.544 31.4513 11.3659 31.4349 12.2535C31.4349 13.1246 31.5993 13.9382 31.928 14.6943C32.2567 15.4504 32.7087 16.1243 33.284 16.716C33.8593 17.3077 34.525 17.7597 35.2811 18.072C36.0371 18.3843 36.859 18.5487 37.7465 18.5651ZM23.5207 23.9892L26.9477 22.5592L28.0325 25.1726V25.5424L24.7535 26.8984C24.8685 27.3422 24.9589 27.786 25.0247 28.2298C25.0904 28.6736 25.1233 29.1338 25.1233 29.6105C25.1233 30.0707 25.0904 30.5227 25.0247 30.9665C24.9589 31.4103 24.8685 31.8623 24.7535 32.3225L28.0325 33.6785V34.0483L26.9477 36.6617L23.5207 35.2318C23.044 36.0207 22.4852 36.7357 21.8442 37.3767C21.2032 38.0178 20.4882 38.5848 19.6992 39.0779L21.1292 42.5049L18.1953 43.713L16.7899 40.286C16.3462 40.4011 15.9024 40.4915 15.4586 40.5572C15.0148 40.6229 14.5546 40.6558 14.0779 40.6558C13.6177 40.6558 13.1657 40.6229 12.7219 40.5572C12.2781 40.4915 11.8261 40.4011 11.3659 40.286L9.9359 43.713L7.02663 42.5049L8.45661 39.0533C6.86226 38.0999 5.58843 36.8261 4.63511 35.2318L1.18343 36.6617L0 33.7525L3.40237 32.3225C3.28731 31.8787 3.19691 31.4349 3.13116 30.9911C3.06542 30.5473 3.03254 30.0871 3.03254 29.6105C3.03254 29.1502 3.06542 28.6982 3.13116 28.2544C3.19691 27.8107 3.28731 27.3586 3.40237 26.8984L0 25.4931L1.18343 22.5592L4.63511 23.9892C5.58843 22.3948 6.86226 21.121 8.45661 20.1677L7.02663 16.7406L9.9359 15.5325L11.3659 18.9349C11.8097 18.8199 12.2535 18.7295 12.6972 18.6637C13.141 18.598 13.6012 18.5651 14.0779 18.5651C14.5381 18.5651 14.9901 18.598 15.4339 18.6637C15.8777 18.7295 16.3297 18.8199 16.7899 18.9349L18.1953 15.5325L21.1292 16.7406L19.6992 20.1677C21.2936 21.121 22.5674 22.3948 23.5207 23.9892ZM14.0779 37.5C15.1627 37.5 16.1818 37.2945 17.1351 36.8836C18.0884 36.4727 18.9185 35.9139 19.6252 35.2071C20.332 34.5003 20.8991 33.6621 21.3264 32.6923C21.7538 31.7226 21.9675 30.6953 21.9675 29.6105C21.9675 28.5256 21.762 27.5066 21.3511 26.5533C20.9402 25.5999 20.3731 24.7699 19.6499 24.0631C18.9267 23.3563 18.0884 22.7893 17.1351 22.3619C16.1818 21.9346 15.1627 21.7209 14.0779 21.7209C12.9931 21.7209 11.974 21.9264 11.0207 22.3373C10.0674 22.7482 9.22913 23.3153 8.50592 24.0385C7.78271 24.7617 7.21565 25.5999 6.80473 26.5533C6.39382 27.5066 6.18836 28.5256 6.18836 29.6105C6.18836 30.6953 6.39382 31.7143 6.80473 32.6677C7.21565 33.621 7.77449 34.4592 8.48126 35.1824C9.18803 35.9057 10.0263 36.4727 10.9961 36.8836C11.9658 37.2945 12.9931 37.5 14.0779 37.5ZM31.1884 47.214V25.1233L49.6055 36.1686L31.1884 47.214ZM34.3442 30.6953V41.642L43.4665 36.1686L34.3442 30.6953Z"/>
</svg>
