<svg width="50" height="50" viewBox="0 0 50 50" fill="none" xmlns="http://www.w3.org/2000/svg">
<path d="M37.3 12.5V12.7H37.5H41.6667C43.8238 12.7 45.8925 13.5569 47.4178 15.0822C48.9431 16.6075 49.8 18.6762 49.8 20.8333V41.6667C49.8 43.8238 48.9431 45.8925 47.4178 47.4178C45.8925 48.9431 43.8238 49.8 41.6667 49.8H20.8333C18.6762 49.8 16.6075 48.9431 15.0822 47.4178C13.5569 45.8925 12.7 43.8238 12.7 41.6667V37.5V37.3H12.5H8.33333C6.17624 37.3 4.10749 36.4431 2.5822 34.9178C1.0569 33.3925 0.2 31.3238 0.2 29.1667V8.33333C0.2 6.17624 1.0569 4.10749 2.5822 2.5822C4.10749 1.0569 6.17624 0.2 8.33333 0.2H29.1667C31.3238 0.2 33.3925 1.0569 34.9178 2.5822C36.4431 4.10749 37.3 6.17624 37.3 8.33333V12.5ZM12.5 33.5333H12.7V33.3333V20.8333C12.7 18.6762 13.5569 16.6075 15.0822 15.0822C16.6075 13.5569 18.6762 12.7 20.8333 12.7H33.3333H33.5333V12.5V8.33333C33.5333 7.17522 33.0733 6.06454 32.2544 5.24563C31.4355 4.42672 30.3248 3.96667 29.1667 3.96667H8.33333C7.17522 3.96667 6.06454 4.42672 5.24563 5.24563C4.42672 6.06454 3.96667 7.17522 3.96667 8.33333V29.1667C3.96667 30.3248 4.42672 31.4355 5.24563 32.2544C6.06454 33.0733 7.17522 33.5333 8.33333 33.5333H12.5ZM16.5252 31.9711L16.4667 32.0297V32.1125V33.3333V33.5333H16.6667H22.0542H22.137L22.1956 33.4748L33.4748 22.1956L33.5333 22.137V22.0542V16.6667V16.4667H33.3333H32.1125H32.0297L31.9711 16.5252L16.5252 31.9711ZM26.3623 16.8081L26.7037 16.4667H26.2208H20.8333C19.6752 16.4667 18.5645 16.9267 17.7456 17.7456C16.9267 18.5645 16.4667 19.6752 16.4667 20.8333V26.2208V26.7037L16.8081 26.3623L26.3623 16.8081ZM37.3 29.1667V29.1671C37.3011 29.7172 37.2466 30.2661 37.1375 30.8054C36.7586 32.6396 35.7589 34.287 34.3069 35.4701C32.855 36.6531 31.0396 37.2994 29.1667 37.3C29.1666 37.3 29.1666 37.3 29.1666 37.3H16.6667H16.4667V37.5V41.6667C16.4667 42.8248 16.9267 43.9355 17.7456 44.7544C18.5645 45.5733 19.6752 46.0333 20.8333 46.0333H41.6667C42.8248 46.0333 43.9355 45.5733 44.7544 44.7544C45.5733 43.9355 46.0333 42.8248 46.0333 41.6667V20.8333C46.0333 19.6752 45.5733 18.5645 44.7544 17.7456C43.9355 16.9267 42.8248 16.4667 41.6667 16.4667H37.5H37.3V16.6667V29.1667ZM27.8044 33.1919L27.463 33.5333H27.9458H29.1667C30.3248 33.5333 31.4355 33.0733 32.2544 32.2544C33.0733 31.4355 33.5333 30.3248 33.5333 29.1667V27.9458V27.463L33.1919 27.8044L27.8044 33.1919Z" fill="#90EDC5" stroke="#1A395A" stroke-width="0"/>
</svg>
