<svg width="50" height="50" viewBox="0 0 50 50" fill="none" xmlns="http://www.w3.org/2000/svg">
<path class="noStroke" d="M39.4 34H43V43H39.4V34ZM32.2 25H35.8V43H32.2V25ZM16 43C13.6139 42.9971 11.3264 42.048 9.6392 40.3608C7.95199 38.6736 7.00286 36.3861 7 34H10.6C10.6 35.068 10.9167 36.1121 11.5101 37.0001C12.1034 37.8881 12.9468 38.5802 13.9335 38.9889C14.9202 39.3977 16.006 39.5046 17.0535 39.2962C18.101 39.0879 19.0632 38.5736 19.8184 37.8184C20.5736 37.0632 21.0879 36.101 21.2962 35.0535C21.5046 34.006 21.3977 32.9202 20.9889 31.9335C20.5802 30.9468 19.8881 30.1034 19.0001 29.5101C18.1121 28.9167 17.068 28.6 16 28.6V25C18.3869 25 20.6761 25.9482 22.364 27.636C24.0518 29.3239 25 31.6131 25 34C25 36.3869 24.0518 38.6761 22.364 40.364C20.6761 42.0518 18.3869 43 16 43Z"/>
<path class="noStroke" d="M46.4286 0H3.57143C2.62452 0.000945494 1.71666 0.377523 1.04709 1.04709C0.377523 1.71666 0.000945494 2.62452 0 3.57143V46.4286C0.000945494 47.3755 0.377523 48.2833 1.04709 48.9529C1.71666 49.6225 2.62452 49.9991 3.57143 50H46.4286C47.3753 49.9986 48.2829 49.6219 48.9524 48.9524C49.6219 48.2829 49.9986 47.3753 50 46.4286V3.57143C49.9991 2.62452 49.6225 1.71666 48.9529 1.04709C48.2833 0.377523 47.3755 0.000945494 46.4286 0ZM46.4286 16.0714H21.4286V3.57143H46.4286V16.0714ZM17.8571 3.57143V16.0714H3.57143V3.57143H17.8571ZM3.57143 46.4286V19.6429H46.4286L46.4321 46.4286H3.57143Z"/>
</svg>
