<svg width="56" height="53" viewBox="0 0 56 53" fill="none" stroke="none" xmlns="http://www.w3.org/2000/svg">
<path class="noFill" d="M27.9999 16.0385C32.0146 16.0385 35.2692 12.7839 35.2692 8.76923C35.2692 4.75455 32.0146 1.5 27.9999 1.5C23.9853 1.5 20.7307 4.75455 20.7307 8.76923C20.7307 12.7839 23.9853 16.0385 27.9999 16.0385Z" fill="none" stroke-width="3" stroke-linecap="round" stroke-linejoin="round"/>
<path class="noFill" d="M8.76923 50.6538C12.7839 50.6538 16.0385 47.3993 16.0385 43.3846C16.0385 39.3699 12.7839 36.1154 8.76923 36.1154C4.75455 36.1154 1.5 39.3699 1.5 43.3846C1.5 47.3993 4.75455 50.6538 8.76923 50.6538Z" fill="none" stroke-width="3" stroke-linecap="round" stroke-linejoin="round"/>
<path class="noFill" d="M27.9999 50.6538C32.0146 50.6538 35.2692 47.3993 35.2692 43.3846C35.2692 39.3699 32.0146 36.1154 27.9999 36.1154C23.9853 36.1154 20.7307 39.3699 20.7307 43.3846C20.7307 47.3993 23.9853 50.6538 27.9999 50.6538Z" fill="none" stroke-width="3" stroke-linecap="round" stroke-linejoin="round"/>
<path class="noFill" d="M47.2308 50.6538C51.2455 50.6538 54.5 47.3993 54.5 43.3846C54.5 39.3699 51.2455 36.1154 47.2308 36.1154C43.2161 36.1154 39.9615 39.3699 39.9615 43.3846C39.9615 47.3993 43.2161 50.6538 47.2308 50.6538Z" fill="none" stroke-width="3" stroke-linecap="round" stroke-linejoin="round"/>
<mask id="path-5-outside-1_972_530" maskUnits="userSpaceOnUse" x="5.76929" y="11.5385" width="45" height="30" fill="black">
<rect fill="white" x="5.76929" y="11.5385" width="45" height="30"/>
<path class="noStroke noFill" d="M8.76929 37.6154V29.9231C8.76929 28.903 9.17451 27.9247 9.8958 27.2034C10.6171 26.4821 11.5954 26.0769 12.6154 26.0769H43.3847C44.4047 26.0769 45.383 26.4821 46.1043 27.2034C46.8256 27.9247 47.2308 28.903 47.2308 29.9231V37.6154M28.0001 14.5385V37.6154Z"/>
</mask>
<path d="M5.76929 37.6154C5.76929 39.2722 7.11243 40.6154 8.76929 40.6154C10.4261 40.6154 11.7693 39.2722 11.7693 37.6154H5.76929ZM12.6154 26.0769V29.0769V26.0769ZM44.2308 37.6154C44.2308 39.2722 45.574 40.6154 47.2308 40.6154C48.8877 40.6154 50.2308 39.2722 50.2308 37.6154H44.2308ZM31.0001 14.5385C31.0001 12.8816 29.6569 11.5385 28.0001 11.5385C26.3432 11.5385 25.0001 12.8816 25.0001 14.5385H31.0001ZM25.0001 37.6154C25.0001 39.2722 26.3432 40.6154 28.0001 40.6154C29.6569 40.6154 31.0001 39.2722 31.0001 37.6154H25.0001ZM11.7693 37.6154V29.9231H5.76929V37.6154H11.7693ZM11.7693 29.9231C11.7693 29.6987 11.8584 29.4834 12.0171 29.3247L7.77448 25.0821C6.49058 26.366 5.76929 28.1074 5.76929 29.9231H11.7693ZM12.0171 29.3247C12.1758 29.1661 12.391 29.0769 12.6154 29.0769L12.6154 23.0769C10.7997 23.0769 9.05838 23.7982 7.77448 25.0821L12.0171 29.3247ZM12.6154 29.0769H43.3847V23.0769H12.6154V29.0769ZM43.3847 29.0769C43.6091 29.0769 43.8243 29.1661 43.983 29.3247L48.2256 25.0821C46.9417 23.7982 45.2004 23.0769 43.3847 23.0769V29.0769ZM43.983 29.3247C44.1417 29.4834 44.2308 29.6987 44.2308 29.9231H50.2308C50.2308 28.1074 49.5095 26.366 48.2256 25.0821L43.983 29.3247ZM44.2308 29.9231V37.6154H50.2308V29.9231H44.2308ZM25.0001 14.5385V37.6154H31.0001V14.5385H25.0001Z" mask="url(#path-5-outside-1_972_530)"/>
</svg>
