<svg width="20" height="20" viewBox="0 0 20 20" fill="none" xmlns="http://www.w3.org/2000/svg">
<path d="M12.3962 2.22774C12.1554 1.80449 11.8067 1.45256 11.3858 1.20776C10.9648 0.962946 10.4865 0.833984 9.99953 0.833984C9.51255 0.833984 9.03426 0.962946 8.61329 1.20776C8.19233 1.45256 7.8437 1.80449 7.60286 2.22774L0.344528 15.1594C0.114043 15.5652 -0.00511089 16.0247 -0.000867036 16.4914C0.00337682 16.9581 0.130868 17.4154 0.368695 17.8169C0.610015 18.2312 0.95655 18.5743 1.37319 18.8115C1.78983 19.0488 2.26177 19.1716 2.74119 19.1677H17.2579C17.7373 19.1716 18.2092 19.0488 18.6259 18.8115C19.0425 18.5743 19.389 18.2312 19.6304 17.8169C19.8682 17.4154 19.9957 16.9581 19.9999 16.4914C20.0042 16.0247 19.885 15.5652 19.6545 15.1594L12.3962 2.22774ZM18.192 16.9777C18.0961 17.1394 17.9592 17.2729 17.7952 17.3648C17.6312 17.4567 17.4458 17.5037 17.2579 17.5011H2.74119C2.55298 17.5034 2.36748 17.456 2.20345 17.3637C2.03942 17.2714 1.90267 17.1374 1.80703 16.9752C1.71637 16.8246 1.66771 16.6523 1.6661 16.4765C1.66449 16.3006 1.70998 16.1276 1.79786 15.9752L9.05619 3.04274C9.159 2.88647 9.29903 2.75818 9.46368 2.66941C9.62834 2.58064 9.81247 2.53417 9.99953 2.53417C10.1866 2.53417 10.3707 2.58064 10.5354 2.66941C10.7 2.75818 10.8401 2.88647 10.9429 3.04274L18.2012 15.9744C18.2892 16.1268 18.3348 16.3001 18.3332 16.4761C18.3316 16.6521 18.2828 16.8245 18.192 16.9752V16.9777Z" />
<path d="M9.99935 5.83398C9.77834 5.83398 9.56637 5.92178 9.41009 6.07806C9.25381 6.23434 9.16602 6.4463 9.16602 6.66732V11.6673C9.16602 11.8883 9.25381 12.1003 9.41009 12.2566C9.56637 12.4129 9.77834 12.5007 9.99935 12.5007C10.2204 12.5007 10.4323 12.4129 10.5886 12.2566C10.7449 12.1003 10.8327 11.8883 10.8327 11.6673V6.66732C10.8327 6.4463 10.7449 6.23434 10.5886 6.07806C10.4323 5.92178 10.2204 5.83398 9.99935 5.83398Z" />
<path d="M9.99935 15.8346C10.4596 15.8346 10.8327 15.4615 10.8327 15.0013C10.8327 14.5411 10.4596 14.168 9.99935 14.168C9.53911 14.168 9.16602 14.5411 9.16602 15.0013C9.16602 15.4615 9.53911 15.8346 9.99935 15.8346Z" fill="#220047"/>
</svg>
