<svg width="15" height="16" viewBox="0 0 15 16" fill="none" xmlns="http://www.w3.org/2000/svg">
<path d="M3.19925 8.13891C3.0384 8.13891 2.88414 8.2028 2.77041 8.31654C2.65667 8.43027 2.59277 8.58453 2.59277 8.74538V13.5972C2.59277 13.758 2.65667 13.9123 2.77041 14.026C2.88414 14.1398 3.0384 14.2037 3.19925 14.2037C3.3601 14.2037 3.51435 14.1398 3.62809 14.026C3.74183 13.9123 3.80572 13.758 3.80572 13.5972V8.74538C3.80572 8.58453 3.74183 8.43027 3.62809 8.31654C3.51435 8.2028 3.3601 8.13891 3.19925 8.13891ZM6.23162 2.07416C6.07077 2.07416 5.91652 2.13805 5.80278 2.25179C5.68904 2.36553 5.62515 2.51979 5.62515 2.68063V13.5972C5.62515 13.758 5.68904 13.9123 5.80278 14.026C5.91652 14.1398 6.07077 14.2037 6.23162 14.2037C6.39247 14.2037 6.54673 14.1398 6.66046 14.026C6.7742 13.9123 6.8381 13.758 6.8381 13.5972V2.68063C6.8381 2.51979 6.7742 2.36553 6.66046 2.25179C6.54673 2.13805 6.39247 2.07416 6.23162 2.07416ZM12.2964 10.5648C12.1355 10.5648 11.9813 10.6287 11.8675 10.7424C11.7538 10.8562 11.6899 11.0104 11.6899 11.1713V13.5972C11.6899 13.758 11.7538 13.9123 11.8675 14.026C11.9813 14.1398 12.1355 14.2037 12.2964 14.2037C12.4572 14.2037 12.6115 14.1398 12.7252 14.026C12.8389 13.9123 12.9028 13.758 12.9028 13.5972V11.1713C12.9028 11.0104 12.8389 10.8562 12.7252 10.7424C12.6115 10.6287 12.4572 10.5648 12.2964 10.5648ZM9.264 5.71301C9.10315 5.71301 8.94889 5.7769 8.83515 5.89064C8.72142 6.00437 8.65752 6.15863 8.65752 6.31948V13.5972C8.65752 13.758 8.72142 13.9123 8.83515 14.026C8.94889 14.1398 9.10315 14.2037 9.264 14.2037C9.42484 14.2037 9.5791 14.1398 9.69284 14.026C9.80657 13.9123 9.87047 13.758 9.87047 13.5972V6.31948C9.87047 6.15863 9.80657 6.00437 9.69284 5.89064C9.5791 5.7769 9.42484 5.71301 9.264 5.71301Z"  fill-opacity="0.9"/>
</svg>
