<svg width="79" height="55" viewBox="0 0 79 55" fill="none" xmlns="http://www.w3.org/2000/svg">
<path d="M12.467 5.08763C19.4993 1.89231 28.9871 0 39.2867 0C49.5864 0 59.0741 1.89231 66.1065 5.08763C72.8441 8.152 78.5735 13.0497 78.5735 19.6434C78.5735 26.237 72.8441 31.1347 66.1065 34.1991C59.0741 37.3944 49.5864 39.2867 39.2867 39.2867C28.9871 39.2867 19.4993 37.3944 12.467 34.1991C5.72931 31.1347 0 26.237 0 19.6434C0 13.0497 5.72931 8.152 12.467 5.08763Z" fill="#699BF7"/>
<path d="M0 29.8623V35.3559C0 41.9495 5.72931 46.8473 12.467 49.9116C19.4993 53.1004 28.9871 54.9993 39.2867 54.9993C49.5864 54.9993 59.0741 53.1069 66.1065 49.9116C72.8441 46.8473 78.5735 41.9495 78.5735 35.3559V29.8623C75.5811 32.6909 71.9995 34.7797 68.8173 36.2268C60.7504 39.8935 50.3001 41.9037 39.2867 41.9037C28.2733 41.9037 17.8231 39.8935 9.7562 36.2268C6.57398 34.7862 2.99234 32.6909 0 29.8623Z" fill="#699BF7"/>
</svg>
