<svg width="102" height="84" viewBox="0 0 102 84" fill="none" xmlns="http://www.w3.org/2000/svg">
<path d="M0.943842 14.1131C0.339241 13.508 0 12.6903 0 11.8381C0 10.9859 0.339241 10.1682 0.943842 9.56308C1.34529 9.15385 10.7957 0 29.295 0C38.957 0 45.9987 4.65769 52.8017 9.15385C59.073 13.3054 65.0026 17.2308 72.6953 17.2308C80.8762 17.2308 86.8926 15.1469 90.5002 13.3969C92.6651 12.4044 94.6749 11.1077 96.4677 9.54693C97.0815 8.95043 97.908 8.61892 98.7669 8.62467C99.6259 8.63042 100.448 8.97296 101.053 9.57761C101.659 10.1823 101.999 11 102 11.8526C102.001 12.7052 101.662 13.5236 101.057 14.1292C100.645 14.5385 91.1946 23.6923 72.6953 23.6923C63.0279 23.6923 55.9916 19.0346 49.1886 14.5385C42.9173 10.3815 36.9877 6.46154 29.295 6.46154C21.1141 6.46154 15.0977 8.54539 11.4901 10.2954C9.32515 11.288 7.31538 12.5846 5.52256 14.1454C4.90888 14.7396 4.0838 15.0695 3.22651 15.0634C2.36922 15.0574 1.54895 14.7159 0.943842 14.1131ZM96.4243 39.7008C94.6315 41.2616 92.6217 42.5582 90.4568 43.5508C86.8926 45.3008 80.8762 47.3846 72.6953 47.3846C65.0026 47.3846 59.073 43.4646 52.8017 39.3077C45.9987 34.8062 38.957 30.1538 29.295 30.1538C10.7957 30.1538 1.34529 39.3077 0.949266 39.7169C0.344687 40.3226 0.00583245 41.1409 0.00656233 41.9935C0.00729221 42.8461 0.347548 43.6639 0.953163 44.2685C1.55878 44.8732 2.38065 45.2157 3.23963 45.2215C4.09862 45.2272 4.92506 44.8957 5.53884 44.2992C7.33165 42.7384 9.34143 41.4418 11.5064 40.4492C15.0977 38.6992 21.1141 36.6154 29.295 36.6154C36.9877 36.6154 42.9173 40.5354 49.1886 44.6923C55.9916 49.1938 63.0279 53.8462 72.6953 53.8462C91.1946 53.8462 100.645 44.6923 101.041 44.2831C101.646 43.6774 101.984 42.8591 101.984 42.0065C101.983 41.1539 101.643 40.3361 101.037 39.7315C100.432 39.1268 99.6096 38.7843 98.7507 38.7785C97.8917 38.7728 97.0652 39.1043 96.4514 39.7008H96.4243ZM96.4243 69.8546C94.6315 71.4154 92.6217 72.7121 90.4568 73.7046C86.8926 75.4546 80.8762 77.5385 72.6953 77.5385C65.0026 77.5385 59.073 73.6185 52.8017 69.4615C45.9987 64.96 38.957 60.3077 29.295 60.3077C10.7957 60.3077 1.34529 69.4615 0.949266 69.8708C0.344687 70.4764 0.00583245 71.2948 0.00656233 72.1474C0.00729221 73 0.347548 73.8177 0.953163 74.4224C1.55878 75.0271 2.38065 75.3696 3.23963 75.3753C4.09862 75.3811 4.92506 75.0496 5.53884 74.4531C7.33165 72.8923 9.34143 71.5956 11.5064 70.6031C15.0977 68.8531 21.1141 66.7692 29.295 66.7692C36.9877 66.7692 42.9173 70.6892 49.1886 74.8462C55.9916 79.3477 63.0279 84 72.6953 84C91.1946 84 100.645 74.8462 101.041 74.4369C101.646 73.8313 101.984 73.0129 101.984 72.1603C101.983 71.3077 101.643 70.49 101.037 69.8853C100.432 69.2806 99.6096 68.9381 98.7507 68.9324C97.8917 68.9266 97.0652 69.2581 96.4514 69.8546H96.4243Z" fill="#699BF7"/>
</svg>
