<svg width="15" height="16" viewBox="0 0 15 16" fill="none" xmlns="http://www.w3.org/2000/svg">
<path d="M3.5484 13.5453C3.21484 13.5453 2.92919 13.4264 2.69145 13.1887C2.45371 12.9509 2.33505 12.6655 2.33545 12.3323V3.84167C2.33545 3.50811 2.45432 3.22246 2.69206 2.98472C2.9298 2.74699 3.21524 2.62832 3.5484 2.62872H12.039C12.3726 2.62872 12.6583 2.74759 12.896 2.98533C13.1337 3.22307 13.2524 3.50852 13.252 3.84167V12.3323C13.252 12.6659 13.1331 12.9515 12.8954 13.1893C12.6577 13.427 12.3722 13.5457 12.039 13.5453H3.5484ZM3.5484 12.3323H7.18725V3.84167H3.5484V12.3323ZM8.4002 12.3323H12.039V8.087H8.4002V12.3323ZM8.4002 6.87405H12.039V3.84167H8.4002V6.87405Z"  fill-opacity="0.8"/>
</svg>
