<svg width="16" height="16" viewBox="0 0 16 16" fill="none" xmlns="http://www.w3.org/2000/svg">
<g clip-path="url(#clip0_6002_1708)">
<path d="M5.57386 0.526614C3.97522 1.0812 2.59654 2.13382 1.64035 3.52987C0.684163 4.92591 0.200854 6.59179 0.261418 8.28282C0.321982 9.97385 0.923226 11.6009 1.97684 12.9249C3.03045 14.249 4.48089 15.2003 6.11511 15.6391C7.44002 15.981 8.82813 15.996 10.1601 15.6829C11.3668 15.4118 12.4823 14.8321 13.3976 14.0004C14.3502 13.1083 15.0417 11.9735 15.3976 10.7179C15.7844 9.35243 15.8532 7.91654 15.5989 6.52036H8.15886V9.60661H12.4676C12.3815 10.0988 12.197 10.5686 11.9251 10.9879C11.6531 11.4072 11.2994 11.7672 10.8851 12.0466C10.359 12.3948 9.7659 12.629 9.14387 12.7341C8.52005 12.8501 7.88018 12.8501 7.25636 12.7341C6.62406 12.6035 6.02592 12.3426 5.50011 11.9679C4.6553 11.3698 4.02096 10.5203 3.68762 9.54036C3.34873 8.54209 3.34873 7.45989 3.68762 6.46161C3.9249 5.76188 4.31716 5.12478 4.83511 4.59786C5.42785 3.9838 6.17828 3.54486 7.00406 3.32921C7.82984 3.11356 8.69906 3.12953 9.51637 3.37536C10.1549 3.57127 10.7387 3.91371 11.2214 4.37536C11.7072 3.89203 12.1922 3.40745 12.6764 2.92161C12.9264 2.66036 13.1989 2.41161 13.4451 2.14411C12.7083 1.45851 11.8434 0.924994 10.9001 0.574114C9.18224 -0.0496488 7.30259 -0.0664119 5.57386 0.526614Z" fill="white"/>
<path d="M5.57372 0.526245C7.3023 -0.067184 9.18196 -0.0508622 10.9 0.572495C11.8435 0.925758 12.7079 1.46184 13.4437 2.14999C13.1937 2.41749 12.93 2.66749 12.675 2.92749C12.19 3.41166 11.7054 3.89416 11.2212 4.37499C10.7386 3.91334 10.1547 3.5709 9.51622 3.37499C8.69919 3.1283 7.82999 3.1114 7.004 3.32617C6.178 3.54094 5.42711 3.97907 4.83372 4.59249C4.31576 5.11941 3.9235 5.75651 3.68622 6.45624L1.09497 4.44999C2.02248 2.6107 3.62841 1.20377 5.57372 0.526245Z" fill="#E33629"/>
<path d="M0.407438 6.4377C0.546612 5.74741 0.777845 5.07894 1.09494 4.4502L3.68619 6.46145C3.3473 7.45972 3.3473 8.54192 3.68619 9.5402C2.82285 10.2069 1.9591 10.8769 1.09494 11.5502C0.301376 9.97059 0.0593537 8.17082 0.407438 6.4377Z" fill="#F8BD00"/>
<path d="M8.15876 6.51855H15.5988C15.8531 7.91473 15.7843 9.35062 15.3975 10.7161C15.0416 11.9717 14.3501 13.1065 13.3975 13.9986C12.5613 13.3461 11.7213 12.6986 10.885 12.0461C11.2996 11.7664 11.6535 11.4059 11.9254 10.9862C12.1973 10.5665 12.3817 10.0962 12.4675 9.60355H8.15876C8.15751 8.57605 8.15876 7.5473 8.15876 6.51855Z" fill="#587DBD"/>
<path d="M1.09375 11.55C1.95792 10.8834 2.82167 10.2134 3.685 9.54004C4.01901 10.5203 4.65426 11.3699 5.5 11.9675C6.02744 12.3405 6.62687 12.5993 7.26 12.7275C7.88382 12.8436 8.52368 12.8436 9.1475 12.7275C9.76953 12.6224 10.3627 12.3882 10.8887 12.04C11.725 12.6925 12.565 13.34 13.4012 13.9925C12.4861 14.8247 11.3705 15.4049 10.1637 15.6763C8.83176 15.9894 7.44365 15.9744 6.11875 15.6325C5.07088 15.3528 4.09209 14.8595 3.24375 14.1838C2.34591 13.4708 1.61254 12.5724 1.09375 11.55Z" fill="#319F43"/>
</g>
<defs>
<clipPath id="clip0_6002_1708">
<rect width="16" height="16" fill="white"/>
</clipPath>
</defs>
</svg>
