<svg width="14" height="14" viewBox="0 0 14 14" fill="none" xmlns="http://www.w3.org/2000/svg">
<path d="M1.66669 10.9999C1.66669 10.2927 1.94764 9.6144 2.44774 9.1143C2.94783 8.6142 3.62611 8.33325 4.33335 8.33325H9.66669C10.3739 8.33325 11.0522 8.6142 11.5523 9.1143C12.0524 9.6144 12.3334 10.2927 12.3334 10.9999C12.3334 11.3535 12.1929 11.6927 11.9428 11.9427C11.6928 12.1928 11.3536 12.3333 11 12.3333H3.00002C2.6464 12.3333 2.30726 12.1928 2.05721 11.9427C1.80716 11.6927 1.66669 11.3535 1.66669 10.9999Z" fill="white" stroke="#220047" stroke-width="1.5" stroke-linejoin="round"/>
<path d="M7 5.66663C8.10457 5.66663 9 4.7712 9 3.66663C9 2.56206 8.10457 1.66663 7 1.66663C5.89543 1.66663 5 2.56206 5 3.66663C5 4.7712 5.89543 5.66663 7 5.66663Z" fill="white" stroke="#220047" stroke-width="1.5"/>
</svg>
