<svg width="15" height="16" viewBox="0 0 15 16" fill="none" xmlns="http://www.w3.org/2000/svg">
<path fill-rule="evenodd" clip-rule="evenodd" d="M0.3453 3.17332C0.123791 2.93308 0 2.61788 0 2.29132V1.058C0 0.777611 0.111755 0.507928 0.310506 0.309838C0.508579 0.11108 0.777611 0 1.05867 0H13.2936C13.5746 0 13.8436 0.111087 14.0417 0.309838C14.2405 0.508597 14.3522 0.777611 14.3522 1.058V2.29132C14.3522 2.61788 14.2284 2.93308 14.0069 3.17332L9.29186 8.27796C9.16471 8.41514 9.09445 8.59516 9.09445 8.78253V13.5646C9.09445 13.8865 8.94857 14.1903 8.69695 14.391L6.97645 15.7682C6.65924 16.0219 6.22361 16.0721 5.85621 15.8954C5.4895 15.7187 5.25661 15.348 5.25661 14.9411V8.78256C5.25661 8.59517 5.18568 8.41451 5.05921 8.27799L0.344135 3.17335L0.3453 3.17332ZM1.07071 1.07009V2.29137C1.07071 2.34893 1.0928 2.40447 1.13161 2.4473L5.84668 7.55194C6.15585 7.8872 6.3285 8.32686 6.3285 8.78325V14.9165L8.02423 13.56V8.78325C8.02423 8.32686 8.19688 7.8872 8.50605 7.55194L13.2211 2.4473C13.2599 2.40447 13.282 2.34893 13.282 2.29137V1.07009H1.07071Z" fill="#220047" fill-opacity="0.8"/>
</svg>
