<?xml version="1.0" encoding="UTF-8"?>
<svg id="Layer_1" xmlns="http://www.w3.org/2000/svg" viewBox="0 0 121.98 121.98">
    <path d="m33.6,111.91c-.68,0-1.35-.17-1.96-.51-1.27-.72-2.05-2.07-2.04-3.53l.16-13.99h-4.69c-8.82,0-16-7.18-16-16v-44.5c0-8.82,7.18-16,16-16h71.86c8.82,0,16,7.18,16,16v44.5c0,8.82-7.18,16-16,16h-33.2l-28.01,17.43c-.65.4-1.38.6-2.11.6ZM25.06,25.38c-4.41,0-8,3.59-8,8v44.5c0,4.41,3.59,8,8,8h8.74c1.07,0,2.09.43,2.84,1.19s1.17,1.79,1.16,2.86l-.12,10.74,22.79-14.18c.63-.39,1.37-.6,2.11-.6h34.34c4.41,0,8-3.59,8-8v-44.5c0-4.41-3.59-8-8-8H25.06Z" />
    <rect x="28.67" y="36.77" width="49.85" height="8.84" rx="4.42" ry="4.42" />
    <rect x="30.43" y="54.64" width="29.34" height="10" rx="5" ry="5" />
</svg>