<?xml version="1.0" encoding="UTF-8"?>
<svg id="Layer_1" xmlns="http://www.w3.org/2000/svg" viewBox="0 0 121.98 121.98">
    <path d="m92.65,17.37H20.79c-8.83,0-16,7.18-16,16v44.5c0,8.83,7.17,16,16,16h4.69l-.16,14c-.01,1.46.77,2.81,2.04,3.53.61.34,1.29.51,1.96.51.74,0,1.47-.2,2.12-.6l28.01-17.44h33.2c8.82,0,16-7.17,16-16v-44.5c0-8.82-7.18-16-16-16Zm-38.61,45.8c-.9.91-2.16,1.47-3.53,1.47h-19.35c-2.75,0-5-2.25-5-5,0-1.37.56-2.63,1.47-3.53.91-.91,2.15-1.47,3.53-1.47h19.35c2.75,0,5,2.25,5,5,0,1.37-.56,2.63-1.47,3.53Zm18.91-18.86c-.8.8-1.91,1.3-3.12,1.3H28.81c-2.43,0-4.42-1.99-4.42-4.42,0-1.22.5-2.32,1.3-3.12s1.91-1.3,3.12-1.3h41.02c2.43,0,4.41,1.99,4.41,4.42,0,1.22-.5,2.32-1.29,3.12Z" />
</svg>