<svg width="24" height="24" viewBox="0 0 24 24" fill="none" xmlns="http://www.w3.org/2000/svg">
<path d="M12.2158 5.24259C12.0815 5.08867 11.8871 5 11.6831 5C11.4792 5 11.2847 5.08867 11.1505 5.24259L7.17157 9.83648C6.99169 10.0449 6.94926 10.3381 7.06326 10.5883C7.17791 10.8391 7.42683 10.9994 7.70234 11H15.664C15.9389 10.9994 16.1878 10.8391 16.3024 10.5883C16.4164 10.3381 16.374 10.0449 16.1941 9.83648L12.2158 5.24259Z" fill="#929BA7"/>
<path d="M15.6624 13.0007H7.70163C7.42678 13.0013 7.17788 13.1615 7.06326 13.4123C6.94926 13.6625 6.99169 13.9557 7.17155 14.164L11.1494 18.7574C11.2836 18.9113 11.478 19 11.682 19C11.8859 19 12.0803 18.9113 12.2146 18.7574L16.193 14.1634C16.3729 13.955 16.4153 13.6618 16.3013 13.4117C16.1867 13.1609 15.9379 13.0013 15.6624 13.0007Z" fill="#220047"/>
</svg>
