<svg width="10" height="14" viewBox="0 0 10 14" fill="none" xmlns="http://www.w3.org/2000/svg">
<path d="M5.21581 0.242585C5.08153 0.088674 4.88709 0 4.68313 0C4.47917 0 4.28474 0.088674 4.15045 0.242585L0.171573 4.83648C-0.00831092 5.04487 -0.0507444 5.33812 0.0632647 5.5883C0.177906 5.83912 0.426826 5.99937 0.702343 6H8.66399H8.66336C8.93824 5.99937 9.1878 5.83912 9.30244 5.5883C9.41644 5.33811 9.37401 5.04485 9.19413 4.83648L5.21581 0.242585Z" fill="#929BA7"/>
<path d="M8.66242 8.00065H0.701632H0.702266C0.427411 8.00128 0.17788 8.16151 0.0632563 8.41231C-0.0507388 8.66247 -0.00830834 8.95569 0.171553 9.16404L4.14935 13.7574C4.28361 13.9113 4.47803 14 4.68197 14C4.88591 14 5.08032 13.9113 5.21459 13.7574L9.19304 9.16339C9.3729 8.95503 9.41533 8.6618 9.30134 8.41166C9.18671 8.16086 8.93781 8.00063 8.66233 8L8.66242 8.00065Z" fill="#929BA7"/>
</svg>
