<?xml version="1.0" encoding="UTF-8"?>
<svg xmlns="http://www.w3.org/2000/svg" viewBox="0 0 500 500">
  <defs>
    <style>
      .cls-1 {
        opacity: .8;
      }

      .cls-1, .cls-2, .cls-3, .cls-4, .cls-5, .cls-6, .cls-7, .cls-8, .cls-9, .cls-10, .cls-11, .cls-12, .cls-13, .cls-14, .cls-15, .cls-16, .cls-17, .cls-18, .cls-19, .cls-20 {
        stroke-width: 0px;
      }

      .cls-1, .cls-2, .cls-3, .cls-20 {
        fill: #0053cc;
      }

      .cls-2 {
        mix-blend-mode: multiply;
        opacity: .3;
      }

      .cls-21 {
        isolation: isolate;
      }

      .cls-3 {
        opacity: .6;
      }

      .cls-4 {
        fill: #f3f8ff;
      }

      .cls-5 {
        fill: #0f264c;
      }

      .cls-6 {
        fill: #407bff;
      }

      .cls-7 {
        fill: #0a1b35;
      }

      .cls-8 {
        fill: #14365b;
      }

      .cls-9 {
        fill: #d1e3ff;
      }

      .cls-10 {
        fill: #cadefc;
      }

      .cls-11 {
        fill: #9fc6ff;
      }

      .cls-12 {
        fill: #ff8b7b;
      }

      .cls-13 {
        fill: #fff;
      }

      .cls-14 {
        fill: #e3eeff;
      }

      .cls-15 {
        fill: #ea7063;
      }

      .cls-16 {
        fill: #eef9ff;
      }

      .cls-17 {
        fill: #ebf3ff;
      }

      .cls-18 {
        fill: #f0f6ff;
      }

      .cls-19 {
        fill: #f5fcff;
      }
    </style>
  </defs>
  <g class="cls-21">
    <g id="Background_2" data-name="Background 2">
      <g>
        <g>
          <rect class="cls-9" y="382.4" width="500" height=".25"/>
          <rect class="cls-9" x="85.91" y="392.99" width="33.74" height=".25"/>
          <rect class="cls-9" x="58.55" y="393.11" width="20.02" height=".25"/>
          <rect class="cls-9" x="208.33" y="387.75" width="94.79" height=".25"/>
          <rect class="cls-9" x="137.56" y="400.08" width="30.22" height=".25"/>
          <rect class="cls-9" x="335" y="391.19" width="78.67" height=".25"/>
          <path class="cls-9" d="m237.01,337.8H43.91c-3.15,0-5.71-2.56-5.71-5.71V60.66c0-3.15,2.56-5.71,5.71-5.71h193.1c3.15,0,5.71,2.56,5.71,5.71v271.43c0,3.15-2.56,5.71-5.71,5.71ZM43.91,55.2c-3.01,0-5.46,2.45-5.46,5.46v271.43c0,3.01,2.45,5.46,5.46,5.46h193.1c3.01,0,5.46-2.45,5.46-5.46V60.66c0-3.01-2.45-5.46-5.46-5.46H43.91Z"/>
          <path class="cls-9" d="m453.31,337.8h-193.1c-3.15,0-5.71-2.56-5.71-5.71V60.66c0-3.15,2.56-5.71,5.71-5.71h193.1c3.15,0,5.71,2.56,5.71,5.71v271.43c0,3.15-2.56,5.71-5.71,5.71ZM260.21,55.2c-3.01,0-5.46,2.45-5.46,5.46v271.43c0,3.01,2.45,5.46,5.46,5.46h193.1c3.01,0,5.46-2.45,5.46-5.46V60.66c0-3.01-2.45-5.46-5.46-5.46h-193.1Z"/>
        </g>
        <g>
          <g>
            <rect class="cls-9" x="395.74" y="265.78" width="25.48" height="116.62"/>
            <polygon class="cls-16" points="416.38 382.4 421.22 382.4 421.22 368.63 411.31 368.63 416.38 382.4"/>
            <rect class="cls-9" x="300.52" y="265.78" width="25.48" height="116.62"/>
            <rect class="cls-16" x="321.77" y="265.78" width="99.45" height="108.17"/>
            <rect class="cls-9" x="377.42" y="316.69" width="35.76" height="44.35" transform="translate(56.43 734.16) rotate(-90)"/>
            <rect class="cls-9" x="329.82" y="316.69" width="35.76" height="44.35" transform="translate(8.84 686.56) rotate(-90)"/>
            <path class="cls-16" d="m352.09,324.84h-8.77c-3.81,0-7.45-1.57-10.08-4.33h28.92c-2.62,2.77-6.26,4.33-10.08,4.33Z"/>
            <path class="cls-16" d="m400.13,324.84h-8.77c-3.81,0-7.45-1.57-10.08-4.33h28.92c-2.62,2.77-6.26,4.33-10.08,4.33Z"/>
            <rect class="cls-9" x="377.42" y="269.63" width="35.76" height="44.35" transform="translate(103.49 687.1) rotate(-90)"/>
            <rect class="cls-9" x="329.82" y="269.63" width="35.76" height="44.35" transform="translate(55.89 639.51) rotate(-90)"/>
            <path class="cls-16" d="m352.09,277.78h-8.77c-3.81,0-7.45-1.57-10.08-4.33h28.92c-2.62,2.77-6.26,4.33-10.08,4.33Z"/>
            <path class="cls-16" d="m400.13,277.78h-8.77c-3.81,0-7.45-1.57-10.08-4.33h28.92c-2.62,2.77-6.26,4.33-10.08,4.33Z"/>
            <polygon class="cls-16" points="326.61 382.4 321.77 382.4 321.77 368.63 331.68 368.63 326.61 382.4"/>
          </g>
          <g>
            <path class="cls-10" d="m346.37,247.51c0,4.46,3.1,7.56-1.35,7.56s-14.78-3.11-14.78-7.56,3.61-8.07,8.07-8.07,8.07,3.61,8.07,8.07Z"/>
            <path class="cls-10" d="m360.18,251.36c0,4.46,3.1,7.56-1.35,7.56s-14.78-3.11-14.78-7.56,3.61-8.07,8.07-8.07,8.07,3.61,8.07,8.07Z"/>
            <path class="cls-10" d="m373.41,248.99c0,4.46,3.1,7.56-1.35,7.56s-14.78-3.11-14.78-7.56,3.61-8.07,8.07-8.07,8.07,3.61,8.07,8.07Z"/>
            <path class="cls-14" d="m325.29,250.04s.66,15.74,25.95,15.74,25.95-15.74,25.95-15.74h-51.89Z"/>
          </g>
          <g>
            <g>
              <rect class="cls-9" x="294.05" y="73.99" width="128.23" height="141.9"/>
              <path class="cls-9" d="m436.02,69.61h-150.27c-.7,0-1.27.57-1.27,1.27h0c0,.7.57,1.27,1.27,1.27h150.27c.7,0,1.27-.57,1.27-1.27h0c0-.7-.57-1.27-1.27-1.27Z"/>
              <rect class="cls-14" x="296.59" y="73.99" width="131.13" height="141.9"/>
              <rect class="cls-9" x="294.05" y="215.89" width="128.23" height="10.11"/>
              <rect class="cls-14" x="305.65" y="215.89" width="131.13" height="10.11"/>
              <rect class="cls-19" x="298.82" y="86.99" width="126.66" height="115.89" transform="translate(507.09 -217.22) rotate(90)"/>
              <polygon class="cls-13" points="330.52 208.27 375.23 81.61 396.33 81.61 351.62 208.27 330.52 208.27"/>
              <polygon class="cls-13" points="356.16 208.27 400.86 81.61 409.09 81.61 364.38 208.27 356.16 208.27"/>
              <rect class="cls-9" x="356.29" y="144.46" width="126.66" height=".97" transform="translate(564.56 -274.68) rotate(90)"/>
            </g>
            <g>
              <rect class="cls-17" x="291.19" y="67.33" width="13.11" height="122.22"/>
              <rect class="cls-9" x="299.19" y="67.33" width="10.21" height="122.22"/>
              <rect class="cls-17" x="304.3" y="67.33" width="13.11" height="122.22"/>
              <rect class="cls-9" x="312.3" y="67.33" width="10.21" height="122.22"/>
              <rect class="cls-17" x="317.41" y="67.33" width="13.11" height="122.22"/>
            </g>
            <g>
              <rect class="cls-17" x="407.67" y="67.33" width="7.55" height="122.22"/>
              <rect class="cls-9" x="412.28" y="67.33" width="5.89" height="122.22"/>
              <rect class="cls-17" x="415.22" y="67.33" width="7.55" height="122.22"/>
              <rect class="cls-9" x="419.83" y="67.33" width="5.89" height="122.22"/>
              <rect class="cls-17" x="422.78" y="67.33" width="7.55" height="122.22"/>
            </g>
          </g>
          <g>
            <rect class="cls-14" x="96.71" y="105.64" width="13.66" height="37.27"/>
            <g>
              <g>
                <polygon class="cls-4" points="78.04 151.44 73.7 163.28 78.04 163.28 104.6 151.44 78.04 151.44"/>
                <polygon class="cls-9" points="73.7 151.44 73.7 163.28 100.27 151.44 73.7 151.44"/>
              </g>
              <g>
                <polygon class="cls-4" points="182.2 151.44 177.87 163.28 182.2 163.28 208.77 151.44 182.2 151.44"/>
                <polygon class="cls-9" points="177.87 151.44 177.87 163.28 204.43 151.44 177.87 151.44"/>
              </g>
              <g>
                <rect class="cls-9" x="54.2" y="142.99" width="28.89" height="9.01" transform="translate(137.3 294.99) rotate(180)"/>
                <rect class="cls-4" x="83.09" y="142.99" width="143.63" height="9.01"/>
              </g>
            </g>
            <g>
              <polygon class="cls-9" points="133.12 142.91 99.87 142.91 95.76 97.74 129.01 97.74 133.12 142.91"/>
              <polygon class="cls-16" points="134.84 142.91 101.6 142.91 97.49 97.74 130.73 97.74 134.84 142.91"/>
              <polygon class="cls-13" points="106.14 137.91 102.94 102.74 126.19 102.74 129.39 137.91 106.14 137.91"/>
            </g>
            <path class="cls-14" d="m148.26,128.24s.61,14.67,24.18,14.67,24.18-14.67,24.18-14.67h-48.36Z"/>
          </g>
          <g>
            <g>
              <path class="cls-9" d="m123.76,379.16h-36.43c-1.69,0-3.13-1.04-3.66-2.64-.53-1.61,0-3.3,1.36-4.3l.6.8c-1.22.91-1.32,2.24-1.01,3.19.31.95,1.19,1.96,2.71,1.96h36.43c4.64,0,8.41-3.77,8.41-8.41v-107.86c0-5.05,4.11-9.17,9.17-9.17h10.89v1h-10.89c-4.5,0-8.17,3.66-8.17,8.17v107.86c0,5.19-4.22,9.41-9.41,9.41Z"/>
              <rect class="cls-9" x="179.84" y="254.77" width="65.61" height="127.63"/>
              <rect class="cls-17" x="242.51" y="254.77" width="5.41" height="127.63"/>
              <rect class="cls-17" x="119.14" y="254.77" width="130.46" height="9.57" transform="translate(368.73 519.11) rotate(180)"/>
              <rect class="cls-9" x="52.74" y="254.77" width="65.61" height="127.63"/>
              <rect class="cls-17" x="115.4" y="254.77" width="5.41" height="127.63"/>
            </g>
            <g>
              <polygon class="cls-9" points="98.03 216.67 159.17 216.67 168.03 252.77 106.89 252.77 98.03 216.67"/>
              <polygon class="cls-9" points="106.89 252.77 107.14 254.77 168.28 254.77 168.04 252.77 106.89 252.77"/>
              <polygon class="cls-16" points="99.91 216.67 161.05 216.67 169.92 252.77 108.78 252.77 99.91 216.67"/>
              <polygon class="cls-13" points="110.07 251.12 102.02 218.32 159.76 218.32 167.81 251.12 110.07 251.12"/>
              <polygon class="cls-16" points="124.71 252.77 124.95 254.77 192.28 254.77 192.03 252.77 124.71 252.77"/>
            </g>
            <g>
              <path class="cls-16" d="m77.07,245.67s-9-15.51,3.49-27.86c0,0,3.26,2.12,3.21,4.98-.05,2.85-3.49,3.58-2.75,5.96.74,2.38,3.99,4.72,1.85,6.69-2.13,1.97.34,3.72.2,6.14-.14,2.41-6,4.09-6,4.09Z"/>
              <path class="cls-16" d="m77.75,247.09s3.65-17.56-12.09-25.34c0,0-2.42,3.04-1.47,5.74.95,2.69,4.44,2.29,4.49,4.79.05,2.49-2.29,5.74.35,6.93,2.64,1.2.85,3.64,1.75,5.89.9,2.24,6.98,1.99,6.98,1.99Z"/>
              <path class="cls-9" d="m63.97,243.2s.3,11.57,11.77,11.57,11.77-11.57,11.77-11.57h-23.54Z"/>
            </g>
            <g>
              <path class="cls-17" d="m225.74,382.4h-2.28l-6.52-32.16-1.15-5.63-7.12-35.04h-27.29l-14.79,72.83h-2.28l15.07-74.17c.11-.52.56-.89,1.1-.89h29.11c.53,0,.99.37,1.09.89l6.25,30.78,1.15,5.62,7.67,37.77Z"/>
              <path class="cls-17" d="m269.55,382.4h-2.28l-14.8-72.83h-27.28l-7.12,35.06-1.14,5.62-6.53,32.16h-2.28l7.67-37.79,1.14-5.61,6.25-30.78c.11-.52.57-.89,1.1-.89h29.11c.54,0,.99.37,1.1.89l15.07,74.17Z"/>
              <path class="cls-14" d="m202.29,308.45h50.14c9.57,0,17.39-7.66,17.58-17.23l1.87-76.2c.15-7.17-5.63-13.07-12.81-13.07h-31.43c-6.51,0-11.99,4.89-12.73,11.36l-12.63,95.14Z"/>
              <path class="cls-14" d="m173.7,298.84h53.43c1.38,0,2.5,1.12,2.5,2.5v.24c0,3.79-3.08,6.87-6.87,6.87h-49.07v-9.61h0Z" transform="translate(403.33 607.29) rotate(180)"/>
            </g>
          </g>
        </g>
      </g>
    </g>
    <g id="Objects">
      <g>
        <ellipse class="cls-18" cx="250" cy="416.24" rx="193.89" ry="11.32"/>
        <g>
          <g>
            <path class="cls-12" d="m276.44,170.82l.65.55c.24.2.51.4.76.61.52.41,1.05.82,1.6,1.2,1.08.79,2.24,1.51,3.39,2.23,2.31,1.43,4.75,2.68,7.26,3.72,2.51,1.05,5.09,1.97,7.74,2.64.66.18,1.33.3,2,.45l1,.22c.21.04.04.02-.06.05-.12.04-.3.1-.38.18-.09.09-.09.08-.05.06.09-.11.3-.47.46-.94.33-.95.54-2.24.66-3.55.12-1.32.16-2.69.15-4.09-.02-2.79-.22-5.64-.44-8.5-.24-2.86-.57-5.73-.94-8.6-.34-2.87-.78-5.76-1.2-8.6l3.76-.86c1.66,5.72,2.97,11.46,3.97,17.36.51,2.94.89,5.92,1.1,8.98.1,1.53.15,3.08.11,4.69-.06,1.61-.17,3.25-.66,5.11-.26.93-.6,1.94-1.35,3.03-.41.55-.88,1.12-1.59,1.61-.68.48-1.55.87-2.39,1-.82.17-1.73.09-2.24.01l-1.15-.19c-.77-.13-1.54-.23-2.31-.4-3.06-.62-6.08-1.47-9-2.58-2.92-1.12-5.74-2.49-8.45-4.06-1.34-.81-2.66-1.66-3.94-2.59-.64-.46-1.27-.94-1.9-1.44-.31-.26-.62-.5-.93-.78-.32-.28-.59-.52-.99-.9l5.4-5.61Z"/>
            <path class="cls-11" d="m265.57,166.27c10.97-1.49,19.84,7.38,19.84,7.38l-10.06,15.52s-10.78-6.9-12.67-11.6c-1.97-4.89-2.73-10.54,2.9-11.3Z"/>
            <path class="cls-12" d="m299.17,149.79l-3.64-7.32,9.57-.08s.19,5.11-2.23,8.04l-3.69-.64Z"/>
            <polygon class="cls-12" points="297.22 134.6 304.34 135.87 305.09 142.39 295.52 142.47 297.22 134.6"/>
            <polygon class="cls-12" points="226.67 407.87 235.63 408.73 241.83 387.68 232.87 386.82 226.67 407.87"/>
            <polygon class="cls-12" points="169.7 376.75 176.34 382.99 190.68 367.23 184.04 360.99 169.7 376.75"/>
            <path class="cls-8" d="m179.41,380l-4.99-8.99c-.18-.33-.56-.47-.9-.34l-7.68,2.92c-.8.3-1.14,1.33-.71,2.07,1.79,3.11,2.82,4.51,5.01,8.47,1.35,2.43,3.98,8.01,5.84,11.37,1.82,3.29,5.29,1.69,4.81.13-2.13-7.02-1.73-10.93-1.13-14.03.11-.56.02-1.13-.25-1.61Z"/>
            <path class="cls-8" d="m236.68,406h-10.86c-.4,0-.75.27-.86.66l-2.36,8.59c-.24.89.41,1.71,1.32,1.72,3.83.03,5.64.02,10.42.02h14.6c3.97,0,4.8-4.01,3.16-4.38-7.36-1.63-11.61-3.88-13.88-6.02-.41-.39-.96-.59-1.54-.59Z"/>
            <polygon class="cls-15" points="241.83 387.69 238.64 398.54 229.41 398.54 232.86 386.83 241.83 387.69"/>
            <polygon class="cls-15" points="184.03 361 190.68 367.23 183.28 375.35 176.64 369.11 184.03 361"/>
            <path class="cls-5" d="m276.41,160.06c-.07-7.27-6.64-9.81-6.64-9.81,0,0,8.23-15.58,3.98-25.92-4.25-10.33-18.17-12.17-22.6-7.33-7.76-.33-10.24,10.83-10.24,10.83,0,0-6.5,1.08-8.25,5.81-1.75,4.73,3.58,10.06,3.58,10.06,0,0-7.42,1.04-10.15,6.71-2.73,5.67-1.06,13.29,7.15,19.83,11.92,9.5,33.83-2.42,33.83-2.42,0,0,9.41.58,9.33-7.77Z"/>
            <path class="cls-11" d="m274.96,167.29s3.97,1.75-9.36,54.51c-14.7-1.27-29.89-2.59-37.04-3.2,1.93-15.02,2.75-24.32-1.78-55.88,0,0,7.91-1.02,15.91-.71,6.26.24,11.38.48,16.82,1.46,7.17,1.28,15.45,3.83,15.45,3.83Z"/>
            <path class="cls-13" d="m265.41,164.71c-1.92-.46-3.95-.9-5.9-1.25-5.44-.97-10.56-1.21-16.82-1.45-1.93-.07-3.86-.07-5.67-.03l1.24,2.36c.22.42,5.5,10.27,15.53,15.86l2.76,1.54,2.57-1.83c6.48-4.61,7.44-10.63,6.29-15.2Z"/>
            <path class="cls-12" d="m245.99,143.21c.59,5.5.79,15.51-3.3,18.8,0,0,4.69,8.89,13.54,13.82,7.85-5.58,3.28-12.37,3.28-12.37-5.91-1.96-5.37-6.43-3.95-10.54l-9.56-9.71Z"/>
            <path class="cls-15" d="m249.89,147.17l5.66,5.74c-.34.97-.62,1.97-.78,2.94-2.28-.53-5.57-2.9-5.61-5.33-.02-1.21.48-2.81.73-3.35Z"/>
            <path class="cls-12" d="m245.76,130.71c-1.08,9.02-1.73,12.82,1.93,18.22,5.52,8.13,16.84,7.48,20.59-1.03,3.38-7.66,4.58-21.13-3.5-26.28-7.96-5.07-17.94.07-19.03,9.09Z"/>
            <path class="cls-5" d="m252.74,119.62c6.95,1.8.08,22.94-11.04,16.81,0,0,.5-8.93,3.58-12.72,3.08-3.79,7.46-4.09,7.46-4.09Z"/>
            <path class="cls-5" d="m251.99,120.79c3,4.88,25.25,14.12,17.77,3.62s-17.77-3.62-17.77-3.62Z"/>
            <path class="cls-12" d="m242.9,138.5c-.15,1.88.57,3.65,1.59,4.82,1.53,1.75,3.57.69,4.21-1.43.57-1.9.47-5.1-1.59-6.08-2.02-.96-4.04.54-4.21,2.69Z"/>
            <path class="cls-5" d="m265.6,221.81s12.53,55.44,4.17,94.53c-5.6,26.18-25.81,79.06-25.81,79.06l-15.8-.41s15.3-55.5,18.46-77.32c5.41-37.33-8.14-98.21-8.14-98.21l27.13,2.35Z"/>
            <path class="cls-7" d="m251.15,233l-7.9,12.46c2.01,12.92,4.01,29.08,4.52,44.63,11.11-19.89,5.85-46.56,3.38-57.09Z"/>
            <polygon class="cls-11" points="245.26 396.21 225.74 395.72 226.87 389.72 248.18 390.73 245.26 396.21"/>
            <path class="cls-5" d="m257.5,221.21s-7.35,58.8-23.29,90.9c-12.87,25.93-47.22,62.84-47.22,62.84l-8.78-9.05s23.2-40.11,32.77-57.33c23.46-42.23,4.29-74.46,17.58-89.96l28.94,2.61Z"/>
            <polygon class="cls-11" points="187.88 376.16 176.54 365.11 180.3 359.99 192.66 372.76 187.88 376.16"/>
            <path class="cls-20" d="m228.19,216.38l-1.96,3.17c-.15.25.13.53.56.57l38.85,3.36c.33.03.62-.11.66-.32l.62-3.29c.04-.23-.23-.45-.59-.48l-37.51-3.24c-.28-.02-.53.07-.63.23Z"/>
            <path class="cls-5" d="m232.87,221.01l-1-.09c-.2-.02-.34-.13-.32-.26l.84-4.27c.02-.12.21-.21.41-.2l1,.09c.2.02.34.13.32.26l-.84,4.27c-.02.12-.21.21-.41.2Z"/>
            <path class="cls-5" d="m262.79,223.6l-1-.09c-.2-.02-.34-.13-.32-.26l.84-4.27c.02-.12.21-.21.41-.2l1,.09c.2.02.34.13.32.26l-.84,4.27c-.02.12-.21.21-.41.2Z"/>
            <path class="cls-5" d="m247.83,222.3l-1-.09c-.2-.02-.34-.13-.32-.26l.84-4.27c.02-.12.21-.21.41-.2l1,.09c.2.02.34.13.32.26l-.84,4.27c-.02.12-.21.21-.41.2Z"/>
            <path class="cls-12" d="m229.59,175.97c-1.53,3.12-3.18,5.86-4.95,8.68-1.8,2.76-3.7,5.46-5.76,8.06-2.04,2.61-4.29,5.08-6.64,7.45-1.23,1.15-2.41,2.33-3.72,3.4l-.96.82-.24.21-.32.25c-.22.16-.43.34-.66.48-.91.62-1.91,1.12-2.93,1.47-2.06.71-4.17.83-6.09.67-1.93-.18-3.72-.61-5.4-1.18-3.36-1.15-6.38-2.73-9.19-4.53-5.62-3.62-10.57-7.8-15.14-12.54l2.65-2.8c2.39,1.92,4.92,3.84,7.49,5.57,2.56,1.77,5.19,3.41,7.88,4.84,2.69,1.4,5.43,2.68,8.16,3.41,2.71.76,5.42.89,7.29.1,1.01-.4,1.52-.84,2.77-2.04,1.11-1,2.14-2.11,3.2-3.19,2.05-2.23,3.95-4.62,5.81-7.04,1.85-2.44,3.57-5,5.2-7.6.83-1.29,1.62-2.61,2.4-3.94.75-1.32,1.53-2.71,2.18-3.95l6.99,3.42Z"/>
            <path class="cls-12" d="m172.68,187.63l-3.56-7.36-5.92,7.52s3.92,3.28,7.73,3.16l1.75-3.32Z"/>
            <polygon class="cls-12" points="165.23 178.12 161.88 184.52 163.2 187.79 169.12 180.27 165.23 178.12"/>
            <path class="cls-11" d="m226.78,162.72c-4.54.8-10.9,13.83-10.9,13.83l12.46,11.27s8.09-10.85,7.6-16.77c-.41-5.02-3.38-9.36-9.16-8.33Z"/>
            <path class="cls-6" d="m181.16,384.83c-.12,0-.24-.02-.35-.06-1.09-.37-1.8-2.38-2.13-3.54-.02-.07,0-.14.06-.19.06-.05.13-.05.2-.02.33.17,3.23,1.72,3.33,2.87.01.17-.03.43-.31.64-.26.2-.53.3-.8.3Zm-2.01-3.28c.5,1.61,1.15,2.67,1.77,2.88.27.09.53.03.82-.19.16-.12.17-.24.17-.32-.06-.7-1.76-1.81-2.75-2.37Z"/>
            <path class="cls-6" d="m181.61,382c-1.03,0-2.29-.33-2.85-.67-.06-.03-.09-.09-.09-.16,0-.06.04-.12.09-.15.1-.05,2.39-1.32,3.63-.88.32.11.55.33.68.64.2.48-.02.76-.16.89-.27.23-.76.33-1.3.33Zm-2.36-.82c.98.42,2.89.68,3.43.22.09-.08.18-.2.06-.48-.09-.21-.24-.36-.46-.44-.84-.3-2.37.37-3.03.69Z"/>
            <path class="cls-6" d="m241.5,407.76c-1.04,0-2.18-.2-2.97-.38-.08-.02-.13-.08-.14-.16,0-.08.03-.15.1-.18.45-.21,4.38-2.03,5.38-1.36.13.09.27.25.26.56-.02.42-.2.77-.54,1.02-.49.37-1.26.5-2.1.5Zm-2.35-.62c1.17.22,3.33.5,4.22-.17.25-.19.38-.43.39-.75,0-.15-.05-.2-.1-.24-.56-.38-2.88.44-4.52,1.16Z"/>
            <path class="cls-6" d="m238.58,407.38s-.08-.01-.12-.04c-.05-.04-.07-.11-.06-.18.04-.17.94-4.06,3.07-3.8.54.06.68.33.71.54.13.99-2.35,2.98-3.54,3.47-.02,0-.05.01-.07.01Zm2.7-3.67c-1.36,0-2.16,2.26-2.43,3.17,1.28-.67,3.06-2.29,2.97-2.93,0-.05-.03-.19-.4-.23-.05,0-.1,0-.15,0Z"/>
          </g>
          <g>
            <path class="cls-3" d="m184.49,77.53l-29.31,189.44,164.92,25.51,29.31-189.44-164.92-25.51Zm67.76,107.78c-21.13-3.27-35.61-23.05-32.34-44.18,3.27-21.14,23.05-35.61,44.18-32.34,21.14,3.27,35.61,23.04,32.34,44.18-3.27,21.13-23.04,35.61-44.18,32.34Z"/>
            <path class="cls-2" d="m315.12,285.29l-.25-.04-165.17-25.55.04-.25,29.35-189.69.25.04,165.17,25.55-.04.25-29.35,189.69Zm-164.84-26.01l164.43,25.44,29.23-188.95-164.43-25.44-29.23,188.95Z"/>
            <path class="cls-13" d="m258.19,187.26c-2.04,0-4.1-.16-6.17-.48h0c-21.91-3.39-36.98-23.98-33.59-45.89,1.64-10.62,7.32-19.96,15.99-26.3,8.67-6.34,19.29-8.93,29.9-7.29,21.91,3.39,36.98,23.98,33.59,45.89-3.07,19.84-20.24,34.07-39.72,34.07Zm-5.71-3.44c20.28,3.14,39.33-10.81,42.47-31.09,3.14-20.28-10.81-39.33-31.09-42.47-9.82-1.52-19.65.88-27.67,6.75-8.02,5.87-13.28,14.52-14.8,24.34-3.14,20.28,10.81,39.33,31.09,42.47h0Z"/>
            <g>
              <rect class="cls-11" x="183.2" y="194.18" width="36.76" height="8.26" transform="translate(32.69 -28.49) rotate(8.79)"/>
              <rect class="cls-11" x="224.38" y="199.63" width="24.87" height="8.26" transform="translate(33.94 -33.81) rotate(8.79)"/>
              <rect class="cls-13" x="180.07" y="218.07" width="132.93" height="8.26" transform="translate(36.87 -35.08) rotate(8.79)"/>
              <rect class="cls-13" x="177.78" y="230.32" width="66.1" height="8.26" transform="translate(38.32 -29.48) rotate(8.79)"/>
              <rect class="cls-13" x="254.41" y="240.48" width="44.22" height="8.26" transform="translate(40.65 -39.4) rotate(8.79)"/>
              <rect class="cls-13" x="174.86" y="250.75" width="106.27" height="8.26" transform="translate(41.65 -31.86) rotate(8.79)"/>
            </g>
          </g>
          <g>
            <g>
              <path class="cls-11" d="m351.17,292.48h-1c0-2.49-.31-4.97-.91-7.36l.97-.24c.62,2.47.94,5.03.94,7.6Zm-3.92-12.92c-2.19-4.58-5.53-8.57-9.67-11.54l.58-.81c4.28,3.07,7.73,7.19,10,11.92l-.9.43Z"/>
              <path class="cls-11" d="m320.1,264.91c-15.23,0-27.57,12.34-27.57,27.57s12.34,27.57,27.57,27.57,27.57-12.34,27.57-27.57-12.34-27.57-27.57-27.57Zm0,51.57c-13.25,0-23.99-10.74-23.99-23.99s10.74-23.99,23.99-23.99,23.99,10.74,23.99,23.99-10.74,23.99-23.99,23.99Z"/>
              <circle class="cls-1" cx="320.1" cy="292.48" r="23.99"/>
            </g>
            <polygon class="cls-13" points="316.37 307.66 302.29 293.58 305.83 290.05 316.37 300.59 334.38 282.58 337.91 286.12 316.37 307.66"/>
          </g>
        </g>
      </g>
    </g>
  </g>
</svg>