<svg width="133" height="167" viewBox="0 0 133 167" fill="none" xmlns="http://www.w3.org/2000/svg">
<path fill-rule="evenodd" clip-rule="evenodd" d="M69.9942 32.5575C68.4716 30.4906 67.5154 28.0218 67.8889 25.3571C68.9649 17.6795 79.5658 20.1317 81.3804 24.1728C83.195 28.2138 82.2614 38.0744 79.5184 38.5806C78.4245 38.7825 76.1824 37.9414 73.9501 36.37L74.6927 46.8406L66.0574 46.2324L69.9942 32.5575Z" fill="#915B3C"/>
<path fill-rule="evenodd" clip-rule="evenodd" d="M64.3101 22.5247C64.0505 22.2281 63.926 21.8221 63.8205 21.4375C63.711 21.038 63.6057 20.6347 63.5432 20.2224C63.4184 19.3988 63.4815 18.4661 64.1025 17.877C64.6004 17.4045 65.3106 17.2269 65.955 17.2227C66.3843 17.2199 66.8187 17.3107 67.2186 17.4743C67.6155 17.6367 67.947 17.928 68.3292 18.1212C68.405 17.2484 68.6179 16.3445 69.1121 15.6294C69.5877 14.9414 70.2942 14.5862 71.0744 14.5339C71.8752 14.4803 72.6454 14.7214 73.3287 15.1562C73.4998 15.2651 73.6689 15.3785 73.8295 15.5046C73.9639 15.6102 74.1026 15.7358 74.2655 15.7864C74.4471 15.8428 74.546 15.7424 74.6754 15.6158C74.8271 15.4674 74.9952 15.3391 75.1715 15.2273C75.9511 14.7331 76.9396 14.5768 77.776 14.9647C78.1613 15.1434 78.5284 15.4267 78.7723 15.7987C78.9898 16.1303 79.1258 16.6416 79.441 16.8841C79.5747 16.9871 79.6823 16.8707 79.8163 16.7885C80.0175 16.665 80.2109 16.5267 80.4143 16.4071C80.6999 16.2391 81.0047 16.1198 81.3259 16.0688C81.796 15.994 82.4336 16.0641 82.5237 16.6808C82.5575 16.9125 82.5024 17.1538 82.4704 17.3826C82.4264 17.6967 82.3815 18.0106 82.3322 18.3239C82.2948 18.5618 82.2524 18.7911 82.191 19.0229C82.1583 19.1465 82.0668 19.3748 82.1117 19.504C82.1678 19.6655 82.4831 19.5981 82.6147 19.6128C82.8748 19.642 83.1335 19.7062 83.3669 19.8349C83.5478 19.9346 83.7355 20.0758 83.7994 20.2961C83.8387 20.4314 83.8165 20.566 83.7842 20.7001C83.7454 20.8611 83.7708 20.9497 83.7799 21.1154C84.1422 20.9671 85.3829 20.6683 85.4919 21.3083C85.5281 21.5215 85.3959 21.7501 85.2952 21.9206C85.1187 22.2197 84.8958 22.4887 84.6693 22.7443C84.1969 23.2775 83.6458 23.7273 83.0604 24.1039C83.6922 24.4403 83.8028 25.3093 83.2027 25.7802C82.9378 25.9881 82.5992 26.0148 82.2858 25.9783C82.1711 25.9649 82.0083 25.9089 81.9164 25.9226C81.8669 25.93 81.8118 25.9677 81.744 25.9676C81.2982 25.9669 80.8048 25.8245 80.3779 25.6953C79.6173 25.4652 78.9111 25.0467 78.3525 24.4457C78.2092 24.2915 78.0884 24.2001 77.8819 24.1877C77.701 24.1768 77.5202 24.214 77.3392 24.2059C76.8605 24.1846 76.4459 23.9201 76.013 23.733C75.944 24.332 75.7272 24.9819 75.4444 25.5053C75.2137 25.9321 74.7916 25.9668 74.3786 25.9767C73.0577 26.0082 71.7504 25.7775 70.4364 25.687C71.6882 26.0646 72.9943 26.2758 74.2313 26.7035C74.7905 26.8968 74.3286 27.2512 74.0664 27.5009C73.6346 27.9122 73.2984 28.4358 73.0516 28.9949C72.486 28.1381 71.4235 27.5251 70.4318 27.7064C69.336 27.9067 68.4764 29.3128 69.0918 30.4103C69.4491 31.0475 70.1545 31.3333 70.7369 31.6372C70.2344 32.0925 70.0709 32.8057 69.7467 33.3933C69.5868 33.6831 69.368 34.0081 69.0497 34.0906C68.932 34.1212 68.7968 34.115 68.6995 34.2026C68.5789 34.3111 68.5431 34.4394 68.3925 34.5294C67.7917 34.8885 66.8987 34.7948 66.4271 34.2379C66.0005 33.7343 66.1719 32.9969 66.5888 32.546C65.9959 32.2479 64.9062 31.8415 65.2152 30.905C63.8982 30.7239 60.8352 28.3469 62.7204 26.8998C61.7842 26.2792 60.9827 24.8668 61.6915 23.7213C62.2373 22.8392 63.3869 22.5086 64.3101 22.5247Z" fill="#191847"/>
<path fill-rule="evenodd" clip-rule="evenodd" d="M58.9731 77.7354L85.7598 122.642L105.842 160.607H110.168L76.5195 77.7354L58.9731 77.7354Z" fill="#784931"/>
<path fill-rule="evenodd" clip-rule="evenodd" d="M103.197 158.854C102.793 159.934 102.592 160.742 102.592 161.278C102.592 161.93 102.7 162.881 102.917 164.131C103.671 164.131 110.448 164.131 123.249 164.131C123.777 162.38 123.472 161.434 122.334 161.295C121.196 161.155 120.25 161.029 119.497 160.916L110.047 156.692C109.865 156.61 109.652 156.692 109.571 156.875C109.569 156.878 109.568 156.881 109.567 156.884L108.959 158.362C107.905 158.855 107.049 159.101 106.39 159.101C105.855 159.101 105.116 158.884 104.172 158.451L104.172 158.451C103.81 158.284 103.382 158.444 103.217 158.807C103.209 158.822 103.203 158.838 103.197 158.854Z" fill="#E4E4E4"/>
<path fill-rule="evenodd" clip-rule="evenodd" d="M100.264 154.528L108.606 151.997C104.951 141.041 100.472 128.985 95.1677 115.827C89.8637 102.67 84.1673 89.9725 78.0786 77.7354H54.5186C61.2878 93.2147 68.4642 107.28 76.0476 119.93C83.6311 132.581 91.7033 144.113 100.264 154.528Z" fill="#5C63AB"/>
<path fill-rule="evenodd" clip-rule="evenodd" d="M57.2126 77.7354C54.6844 93.5159 49.8083 113.677 49.3481 114.3C49.0413 114.714 37.9971 118.425 16.2153 125.433L17.1497 129.258C43.1244 125.5 56.8108 122.584 58.209 120.511C60.3063 117.401 70.7784 92.8323 74.8345 77.7354H57.2126Z" fill="#915B3C"/>
<path fill-rule="evenodd" clip-rule="evenodd" d="M23.8721 122.127L25.5179 128.287C44.9454 129.995 56.8491 128.761 61.2289 124.583C65.6087 120.405 70.6004 104.789 76.204 77.7354H53.7381C50.1878 99.8889 48.2029 111.431 47.7835 112.361C47.3641 113.291 39.3936 116.546 23.8721 122.127Z" fill="#8991DC"/>
<path fill-rule="evenodd" clip-rule="evenodd" d="M17.286 123.84C16.1549 123.629 15.326 123.571 14.7992 123.664C14.1584 123.778 13.2422 124.05 12.0505 124.482C12.1812 125.226 13.356 131.918 15.575 144.558C17.3883 144.774 18.2649 144.309 18.2048 143.16C18.1448 142.012 18.1048 141.056 18.0849 140.293L20.5993 130.227C20.6477 130.033 20.5302 129.837 20.3369 129.789C20.3336 129.788 20.3303 129.787 20.327 129.786L18.7693 129.444C18.102 128.489 17.7112 127.686 17.597 127.036C17.5042 126.507 17.5891 125.739 17.8518 124.733L17.8518 124.733C17.9526 124.346 17.7218 123.952 17.3363 123.851C17.3196 123.847 17.3029 123.843 17.286 123.84Z" fill="#E4E4E4"/>
<path fill-rule="evenodd" clip-rule="evenodd" d="M91.1463 74.1903L101.01 84.5259C103.936 85.9 106.321 87.3873 108.165 88.9879C108.574 89.5184 109.004 90.5224 107.013 90.0094C105.021 89.4964 102.903 89.0465 102.503 89.6869C102.103 90.3273 103.18 91.3685 102.454 92.1995C101.969 92.7535 100.469 90.8837 97.952 86.5901L87.554 79.9459L91.1463 74.1903ZM40.5002 61.6454L46.5544 63.8866C36.7637 77.0261 31.5372 83.9646 30.8749 84.7022C29.3846 86.3618 29.9681 89.9307 30.0996 91.7822C27.4129 91.9742 29.051 88.2293 25.643 88.5234C22.5322 88.7919 19.6929 90.2992 17.3082 87.2778C17.015 86.9063 16.92 85.8758 18.1701 85.554C21.2845 84.752 25.9646 83.0673 26.808 82.2583C27.9581 81.1551 32.5222 74.2841 40.5002 61.6454Z" fill="#915B3C"/>
<path fill-rule="evenodd" clip-rule="evenodd" d="M93.6331 75.5472C95.1092 75.7005 96.6524 76.2234 98.2516 77.0984C99.0386 77.529 99.3287 78.5171 98.8998 79.3053C98.6506 79.7631 98.2137 80.0528 97.737 80.1309C98.0205 80.4263 98.3072 80.7209 98.597 81.0147L94.7127 86.3548C83.7399 78.2156 73.2305 71.6828 69.8204 60.8503C68.6759 57.2147 71.2461 46.0091 71.8032 41.8656L75.8758 40.9776C79.246 52.8827 84.5655 64.6738 93.6331 75.5472Z" fill="#69A1AC"/>
<path fill-rule="evenodd" clip-rule="evenodd" d="M51.7522 77.7598C62.7036 80.9671 71.4933 82.524 78.1214 82.4307C78.9426 82.4191 79.51 78.9815 79.3061 77.9791C76.1303 62.369 74.2314 51.0171 76.0107 40.8805C74.8612 41.245 73.0044 41.0013 70.4401 40.1492C61.533 49.3423 56.1778 60.752 51.7522 77.7598Z" fill="#191847"/>
<path fill-rule="evenodd" clip-rule="evenodd" d="M49.3743 79.1287C49.0578 78.7039 48.9542 78.1329 49.1483 77.5979L49.5179 76.5792C49.7684 75.8888 50.4371 75.4723 51.1333 75.5119C51.3463 74.999 51.5421 74.4869 51.7195 73.9754C53.2172 69.6549 52.7575 65.077 53.5667 60.8047C46.9976 64.6758 40.3934 72.1996 33.7543 83.376L27.3925 80.2097C27.8157 79.3021 28.2461 78.4079 28.6836 77.5271C27.9866 76.9492 27.4363 74.7687 28.1469 74.546C28.8807 74.316 29.6363 74.1965 30.4121 74.1848C39.8222 56.7103 52.265 44.9156 67.7404 38.8005L69.6592 39.1404L71.7803 39.5161C67.8245 55.0654 78.2141 92.3828 67.3515 120.758C56.3934 121.249 42.6288 111.242 26.9467 114.511C29.5691 102.774 42.9309 90.8069 49.3743 79.1286L49.3743 79.1287Z" fill="#89C5CC"/>
<path fill-rule="evenodd" clip-rule="evenodd" d="M69.1479 39.4036L66.3233 44.7261L69.2716 49.6133L65.3514 52.3492L70.9921 67.6228L63.5476 52.0583L67.4132 49.2842L64.7933 44.9627L69.1479 39.4036Z" fill="black" fill-opacity="0.1"/>
<path fill-rule="evenodd" clip-rule="evenodd" d="M67.6764 72.5457C66.8913 72.4066 66.3668 71.6565 66.5049 70.8701C66.643 70.0838 67.3913 69.559 68.1764 69.698C68.9615 69.837 69.486 70.5872 69.348 71.3736C69.2099 72.1599 68.4615 72.6847 67.6764 72.5457ZM68.0158 81.0473C67.2307 80.9083 66.7062 80.1581 66.8443 79.3718C66.9824 78.5854 67.7307 78.0607 68.5158 78.1997C69.3009 78.3387 69.8254 79.0889 69.6874 79.8752C69.5493 80.6616 68.8009 81.1864 68.0158 81.0473ZM66.9337 89.2973C66.1486 89.1583 65.6241 88.4081 65.7621 87.6217C65.9002 86.8354 66.6486 86.3106 67.4337 86.4496C68.2188 86.5886 68.7433 87.3388 68.6052 88.1252C68.4672 88.9115 67.7188 89.4363 66.9337 89.2973Z" fill="black" fill-opacity="0.4"/>
</svg>
