<svg width="163" height="180" viewBox="0 0 163 180" fill="none" xmlns="http://www.w3.org/2000/svg">
<rect x="0.145" y="0.145" width="162.197" height="178.737" stroke="#D2D2D2" stroke-width="0.29"/>
<path fill-rule="evenodd" clip-rule="evenodd" d="M76.503 29.6664C74.8296 27.6997 73.697 25.2896 73.8862 22.5889C74.4315 14.8076 85.2501 16.5194 87.3545 20.4467C89.459 24.3741 89.2089 34.3361 86.4891 35.038C85.4045 35.3179 83.0938 34.6322 80.7422 33.213L82.2183 43.6687H73.5024L76.503 29.6664Z" fill="#B28B67"/>
<path fill-rule="evenodd" clip-rule="evenodd" d="M83.5105 21.0163C82.3277 21.6787 81.486 22.92 80.4727 24.5481C80.2259 24.451 79.9572 24.3977 79.676 24.3977C78.4726 24.3977 77.497 25.3744 77.497 26.5793C77.497 27.191 77.7484 27.7438 78.1534 28.14C77.6493 28.8525 77.0842 29.5968 76.4367 30.3649C74.0205 28.9135 72.2234 24.6833 74.5304 20.5996C76.5154 12.4196 87.7629 17.4968 89.9269 16.1173C90.3999 19.0856 88.8742 21.4791 83.5105 21.0163Z" fill="#191847"/>
<path fill-rule="evenodd" clip-rule="evenodd" d="M73.1514 75.235L90.9758 120.404L102.931 158.591H107.651L89.375 75.235L73.1514 75.235Z" fill="#997659"/>
<path fill-rule="evenodd" clip-rule="evenodd" d="M69.5623 75.235C69.3725 91.1078 66.6044 112.478 66.1622 113.467C65.8674 114.127 55.6894 122.515 35.6284 138.632L38.8799 142.116C62.55 128.298 74.9327 120.467 76.0281 118.624C77.6711 115.86 83.0202 90.4202 87.3147 75.235H69.5623Z" fill="#B28B67"/>
<path fill-rule="evenodd" clip-rule="evenodd" d="M35.194 137.47C34.1019 137.856 33.3496 138.223 32.9371 138.569C32.4353 138.991 31.7733 139.69 30.951 140.666C31.4393 141.248 35.8277 146.485 44.1162 156.375C45.8066 155.65 46.3369 154.803 45.7073 153.833C45.0777 152.864 44.5624 152.051 44.1615 151.397L41.2941 141.363C41.239 141.17 41.0379 141.059 40.8451 141.114C40.8418 141.115 40.8385 141.116 40.8352 141.117L39.3046 141.603C38.2427 141.108 37.4985 140.606 37.0718 140.096C36.7252 139.683 36.4134 138.971 36.1364 137.962L36.1364 137.962C36.0301 137.575 35.6303 137.347 35.2435 137.454C35.2268 137.459 35.2103 137.464 35.194 137.47Z" fill="#E4E4E4"/>
<path fill-rule="evenodd" clip-rule="evenodd" d="M100.998 156.828C100.592 157.914 100.389 158.727 100.389 159.266C100.389 159.922 100.498 160.878 100.716 162.136C101.476 162.136 108.303 162.136 121.199 162.136C121.731 160.374 121.424 159.423 120.277 159.283C119.13 159.142 118.178 159.016 117.419 158.902L107.899 154.653C107.716 154.571 107.501 154.654 107.419 154.837C107.418 154.84 107.416 154.843 107.415 154.846L106.803 156.333C105.742 156.829 104.879 157.077 104.215 157.077C103.676 157.077 102.931 156.859 101.981 156.422L101.981 156.422C101.616 156.255 101.185 156.415 101.018 156.78C101.011 156.796 101.004 156.812 100.998 156.828Z" fill="#E4E4E4"/>
<path fill-rule="evenodd" clip-rule="evenodd" d="M85.1357 154.658L107.581 152.219L90.9463 75.235H70.8433L85.1357 154.658Z" fill="#69A1AC"/>
<path fill-rule="evenodd" clip-rule="evenodd" d="M40.271 133.012L54.9935 150.46C70.5004 133.503 79.5409 122.438 82.1151 117.266C84.6893 112.094 87.0034 98.0839 89.0574 75.235H66.4251C65.3031 95.3364 64.5468 105.855 64.1562 106.79C63.7656 107.726 55.8038 116.466 40.271 133.012Z" fill="#89C5CC"/>
<path fill-rule="evenodd" clip-rule="evenodd" d="M105.918 70.8396L116.59 81.197C119.696 82.5147 122.24 83.9697 124.224 85.562C124.67 86.0972 125.155 87.1228 123.057 86.6639C120.958 86.205 118.73 85.8161 118.335 86.4951C117.941 87.174 119.103 88.2144 118.374 89.1029C117.888 89.6953 116.254 87.8111 113.471 83.4503L102.373 76.9412L105.918 70.8396ZM53.7274 61.4658L61.9775 61.4966C55.694 81.7481 52.3585 92.3514 51.971 93.3066C51.0992 95.4559 52.944 98.7292 53.733 100.488C51.1635 101.632 51.4372 97.3961 48.1959 98.8962C45.2373 100.265 42.9867 102.746 39.5685 100.648C39.1482 100.39 38.6877 99.4191 39.8004 98.6602C42.5725 96.7693 46.5673 93.4599 47.107 92.3706C47.8431 90.8852 50.0499 80.5836 53.7274 61.4658Z" fill="#B28B67"/>
<path fill-rule="evenodd" clip-rule="evenodd" d="M78.8665 38.1846L82.1244 37.6287C87.2566 55.6756 113.626 67.9772 115.244 74.7235C115.838 77.1976 114.048 78.4483 114.973 79.2019L110.738 82.2856C110.021 81.4533 108.491 82.9758 105.295 81.9108C102.099 80.8459 78.8665 59.5537 78.8665 38.1846Z" fill="#DB2721"/>
<path fill-rule="evenodd" clip-rule="evenodd" d="M84.3472 40.5701C83.966 64.4743 97.8563 70.5695 94.7631 80.1561C92.2092 88.0711 67.7644 96.5797 63.5344 88.8211C61.8222 85.6805 61.0453 81.8823 60.9572 77.7527C59.8761 80.9253 59.021 83.6565 58.3921 85.9464C57.307 89.8967 53.1005 90.5246 53.1005 92.0464L47.5585 90.5246C47.9344 88.4572 45.3218 87.4504 46.0223 82.8316C49.161 62.1365 57.5943 47.1352 71.3221 37.8279L71.4683 35.7631C71.5246 34.9624 72.2182 34.3587 73.018 34.4143L73.0181 34.413L83.2744 35.1251C84.0748 35.1808 84.6785 35.8756 84.6229 36.6769C84.6229 36.6773 84.6228 36.6777 84.6228 36.6782L84.3472 40.5701Z" fill="#FF4133"/>
</svg>
