<?xml version="1.0" encoding="UTF-8"?>
<svg xmlns="http://www.w3.org/2000/svg" viewBox="0 0 500 500">
  <defs>
    <style>
      .cls-1 {
        fill: #ccc;
      }

      .cls-1, .cls-2, .cls-3, .cls-4 {
        mix-blend-mode: multiply;
      }

      .cls-1, .cls-2, .cls-3, .cls-5, .cls-6, .cls-7, .cls-8, .cls-9, .cls-10, .cls-11, .cls-12, .cls-13, .cls-14, .cls-15 {
        stroke-width: 0px;
      }

      .cls-2 {
        fill: #eaeff4;
      }

      .cls-3 {
        fill: #ebedf7;
      }

      .cls-16 {
        mix-blend-mode: overlay;
      }

      .cls-17 {
        isolation: isolate;
      }

      .cls-5 {
        fill: #5074ad;
      }

      .cls-6 {
        fill: #47a4ea;
      }

      .cls-7 {
        fill: #2e55b7;
      }

      .cls-8 {
        fill: #2e5799;
      }

      .cls-9 {
        fill: #cc5050;
      }

      .cls-10 {
        fill: #d7e0f7;
      }

      .cls-11 {
        fill: #7bc0ff;
      }

      .cls-12 {
        fill: #999;
      }

      .cls-13 {
        fill: #fff;
      }

      .cls-14 {
        fill: #ffc24a;
      }

      .cls-15 {
        fill: #e6e7e8;
      }
    </style>
  </defs>
  <g class="cls-17">
    <g id="Layer_1" data-name="Layer 1">
      <g>
        <path class="cls-11" d="m331.02,127.95c.43-.67,1.29-1,2.07-.9.79.09,1.5.56,2.03,1.15.52.6.88,1.33,1.17,2.06.49,1.22.84,2.55.75,3.85,1.43-1.3,2.75-2.71,3.97-4.22.11-.14.22-.28.33-.41-1.13-.79-2.26-1.57-3.4-2.36-.76-.52-1.53-1.07-2.03-1.84-.51-.77-.68-1.83-.19-2.61.43-.67,1.29-1,2.07-.9.79.09,1.5.56,2.03,1.15.52.6.88,1.33,1.17,2.06.51,1.26.86,2.63.74,3.97,1.29-1.71,2.44-3.53,3.43-5.44-1.12-.84-2.23-1.68-3.35-2.52-.73-.55-1.49-1.13-1.96-1.91-.48-.79-.61-1.85-.09-2.61.45-.66,1.32-.95,2.11-.82s1.48.61,1.98,1.23c.5.62.83,1.36,1.1,2.11.43,1.2.72,2.49.62,3.75.68-1.39,1.29-2.83,1.79-4.3.15-.43.29-.87.42-1.31-1.12-.9-2.24-1.8-3.36-2.71-.72-.58-1.45-1.17-1.9-1.98-.45-.8-.55-1.87,0-2.61.47-.64,1.35-.9,2.13-.75.78.15,1.46.66,1.94,1.3.48.63.78,1.38,1.03,2.14.35,1.08.58,2.23.52,3.36.4-1.51.7-3.04.91-4.59-.54-1.29-1.08-2.59-1.62-3.88-.36-.85-.72-1.72-.73-2.64-.01-.92.4-1.91,1.24-2.3.72-.34,1.62-.15,2.23.35.61.5.97,1.28,1.09,2.06.12.79.03,1.59-.12,2.37-.27,1.44-.76,2.9-1.71,4,0,0,0,0,0,.01-.21,1.65-.54,3.28-.97,4.88.68-.97,1.63-1.75,2.64-2.4.67-.43,1.38-.82,2.15-1,.77-.19,1.62-.15,2.32.23.7.38,1.21,1.14,1.17,1.94-.05.92-.81,1.68-1.66,2.02-.86.34-1.8.33-2.72.32-1.4-.01-2.8-.03-4.2-.04-.59,1.94-1.34,3.84-2.23,5.67.92-.84,2.1-1.4,3.29-1.79.75-.25,1.54-.45,2.33-.44.79.01,1.61.26,2.19.8.58.54.89,1.41.65,2.17-.27.88-1.2,1.43-2.11,1.54-.91.11-1.83-.13-2.72-.36-1.35-.36-2.71-.72-4.06-1.08-.03.06-.06.11-.09.17-.98,1.86-2.11,3.63-3.37,5.3,1.14-.8,2.56-1.17,3.96-1.33.79-.09,1.6-.13,2.37.04.78.17,1.52.58,1.98,1.23.46.65.59,1.56.2,2.25-.45.81-1.46,1.16-2.38,1.08-.92-.08-1.76-.49-2.59-.91-1.29-.65-2.58-1.3-3.88-1.94-.02.02-.04.05-.05.07v.04s0-.01-.02-.02c-1.26,1.61-2.64,3.12-4.13,4.5,1.23-.26,2.53-.15,3.77.11.79.16,1.59.39,2.28.81.69.42,1.29,1.05,1.53,1.82s.07,1.69-.53,2.24c-.69.63-1.78.65-2.64.28-.86-.37-1.55-1.05-2.21-1.71-.94-.94-1.88-1.88-2.82-2.82-.03-.02-.07-.05-.1-.07-1.69,1.48-3.51,2.81-5.44,3.96-.2.12-.43-.17-.23-.3,1.9-1.13,3.69-2.43,5.35-3.89-1.07-.75-2.15-1.49-3.22-2.24-.76-.52-1.53-1.07-2.03-1.84-.51-.77-.68-1.83-.19-2.61Z"/>
        <g>
          <path class="cls-6" d="m355.03,182.68c-1.22-.51-2.75-1.14-2.7-2.44.03-.95,1.05-1.8,2.07-2.01,1.03-.22,2.04.06,2.92.48,1.49.7,2.73,1.75,4.18,2.51,1.44.77,3.23,1.24,4.94.68,4.13-1.36,4.62-7.26,8.51-9.25-1.46-.08-2.96.33-4.41.79-1.44.45-2.91.93-4.39.98-1.47.05-2.99-.43-3.69-1.55-.7-1.12-.27-2.94,1.1-3.59,1.65-.8,3.32.33,5.01.64,2.42.45,5.12-.93,6.86-2.82,1.74-1.87,2.73-4.21,3.69-6.48-3.72,1.47-7.84,1.65-11.36.52.93-1.72,3.44-1.84,5.41-2.39,2.95-.82,5.34-3.18,6.77-5.75,1.11-2.02,1.73-4.18,2.22-6.35l-47.97,24.89c.33.03.65.05.98.04.15,0,.29,0,.45-.02-.34.44-.62.93-.84,1.45-2.43,5.48.9,14.49,6.18,17.48,2.99,1.68,6.98,1.34,10.68,1.01,3.71-.33,7.72-.51,10.52,1.43-.16-4.46-2.97-8.47-7.16-10.27Zm1.1-8.53c-.81-.16-1.38-.77-1.26-1.34.11-.59.86-.92,1.68-.76.81.16,1.38.77,1.26,1.34-.11.59-.86.92-1.68.76Z"/>
          <path class="cls-11" d="m375.65,145.12c-2.94-.19-6.21.55-8.5,2.6-1.52,1.36-2.96,3.41-4.93,3.26.94-3.56,3.33-6.94,6.56-9.27-2.43-.41-4.93-.84-7.44-.39-2.53.45-5.13,1.99-6.07,4.27-.65,1.59-.6,3.6-2.16,4.56-1.28.8-3.04.19-3.62-1.01-.55-1.2-.14-2.73.69-3.95.84-1.22,2.03-2.2,3.19-3.16,1.15-.98,2.32-2.01,3.03-3.29-3.77,2.2-9-.55-12.36,2.19-1.4,1.13-1.96,2.89-2.11,4.52-.13,1.63.09,3.24-.11,4.87-.12.96-.43,1.98-1.16,2.72-.73.76-2,1.14-2.83.66-1.12-.66-.82-2.27-.6-3.57.76-4.52-1.12-9.04-4.8-11.58.14,3.41-2.18,6.69-4.47,9.64-2.26,2.94-4.71,6.11-4.89,9.55-.33,6.12,5.26,13.16,11.16,13.78l47.97-24.89c-2.1-.74-4.25-1.38-6.54-1.53Zm-46.32,9.98c-1.02-.55-1.22-2.16-.45-3.6.78-1.44,2.23-2.15,3.24-1.6,1.03.55,1.23,2.16.45,3.6-.77,1.44-2.22,2.15-3.24,1.6Zm29.99-6.98c-.6-.32-.72-1.26-.27-2.11.45-.84,1.3-1.26,1.9-.93.6.32.71,1.26.26,2.11-.44.84-1.29,1.25-1.89.94Z"/>
        </g>
        <path class="cls-11" d="m148.1,233.41c-3.06-.62-5.97-1.87-8.52-3.67-1.19-.84-2.38-1.8-3.31-2.94l.13.04c.39-.04,3.05-.37,4.03-2.3.8-1.57.15-3.55-.37-5.13-.18-.56-.38-1.01-.52-1.33-.24.7-.67,1.7-1.48,2.7-.64.79-1.04,1-1.45,1.52-.53.68-1.02,1.83-.82,3.84-.82-1.23-1.22-2.64-1.54-4.07-.31-1.42-.55-2.88-1.11-4.23-.43-1.03-1.06-1.91-1.9-2.59.71-.1,2.98-.53,3.87-2.28.8-1.57.15-3.55-.37-5.13-.18-.56-.38-1.01-.52-1.33-.24.7-.67,1.7-1.48,2.7-.64.79-1.04,1-1.45,1.52-.54.7-1.04,1.87-.81,3.97-1.36-.83-2.92-1.4-4.42-1.9-.74-.25-1.49-.45-2.24-.65.89-.16,2.81-.66,3.61-2.24.8-1.57.15-3.55-.37-5.13-.18-.56-.38-1.01-.52-1.33-.24.7-.67,1.7-1.48,2.7-.64.79-1.04,1-1.45,1.52-.56.72-1.08,1.96-.78,4.2-.39-.1-.77-.21-1.16-.33-1.67-.51-3.21-1.34-4.07-2.92l.28.08c.39-.04,3.05-.36,4.03-2.3.8-1.57.15-3.55-.37-5.13-.18-.56-.38-1.01-.52-1.33-.24.7-.67,1.7-1.48,2.7-.64.79-1.04,1-1.45,1.53-.52.67-1,1.77-.84,3.69-.45-1.17-.59-2.46-.64-3.73l.38-.27c.22-.34,1.72-2.69.81-4.76-.74-1.68-2.76-2.46-4.37-3.09-.57-.22-1.06-.36-1.41-.45.41.66.93,1.66,1.2,2.97.21,1.03.11,1.49.27,2.17.21.93.87,2.17,2.88,3.41.05,1.25.18,2.5.6,3.68.43,1.2,1.18,2.19,2.2,2.89-.87-.25-2.48-.54-3.71.33-1.33.94-1.66,2.84-1.93,4.36-.09.54-.13.99-.15,1.31.5-.47,1.29-1.1,2.38-1.57.87-.37,1.28-.36,1.85-.62.8-.36,1.78-1.18,2.52-3.25l-.04-.04c1.2.57,2.52.85,3.79,1.18.95.25,1.89.54,2.82.88h-.07c-.35.06-2.78.6-3.51,2.47-.59,1.52.19,3.28.81,4.69.22.5.44.9.6,1.18.16-.67.46-1.63,1.12-2.62.52-.79.87-1.01,1.2-1.54.46-.73.82-1.93.32-4.01.58.22,1.15.45,1.72.71.58.26,1.14.55,1.65.88,0,.02,0,.04,0,.06l.14.04c.77.53,1.43,1.18,1.91,2.06.47.87.76,1.83.98,2.79l-.4-.1c-.36.05-2.82.4-3.69,2.21-.71,1.47-.07,3.29.44,4.74.18.51.37.93.51,1.22.21-.66.59-1.59,1.32-2.53.58-.74.94-.94,1.32-1.44.43-.58.83-1.51.73-3.05.03.15.06.3.09.45.3,1.42.62,2.87,1.32,4.15.19.35.42.69.66,1.01,0,0,0,.01,0,.02h.01c.78,1.03,1.76,1.89,2.77,2.67,2.76,2.13,6,3.61,9.42,4.31.16.03.21-.21.05-.25Z"/>
        <g>
          <path class="cls-6" d="m123.2,269.48c-.92,4.07-6.38,8.86-11.53,9.99,0,0,5.65,5.09,9.56,5.11,8.81.04,14.05-4.64,23.52-12.73.01-.06.02-.11.03-.17-23.01-10.12-38.76-30.57-63.15-50.78,1.73,3.07,2.83,5.53,4.4,11.61,2.41,9.24,19.34,8.55,15.18,10.54-2.56,1.23-14.55-4.01-16.66-6.51-.02.26.91,6.04,2.99,9.02,2.25,3.22,16.88,1.99,13.25,4.09-3.63,2.12-13.55-3.11-13.55-3.11,0,0,1.77,6.61,4.36,10.11,2.59,3.5,19.06-2.59,17.82.59-.75,1.92-11.62,4.07-17.55.8,0,0,5.68,8.97,8.47,11.46,2.78,2.49,18.89-12.16,19.12-8.14.23,3.97-13.68,11-18.28,9.75,0,0,4.85,5.68,8.79,7.25,3.95,1.57,13.84-11.57,13.23-8.9Zm-19.96-17c.24.39-.1,1.03-.75,1.41-.65.38-1.36.38-1.6-.02-.23-.4.11-1.02.76-1.4.64-.39,1.37-.38,1.59.01Zm23.74,19.84c.83.65.58,2.38-.58,3.88-1.16,1.49-2.77,2.18-3.6,1.53-.83-.65-.57-2.38.57-3.88,1.16-1.5,2.77-2.18,3.6-1.53Z"/>
          <path class="cls-11" d="m144.78,271.68c2.09-10.53,1.71-19.21.08-26.69-1.12-5.13-7.93-8.62-7.93-8.62-1.33,9.38-6.21,12.96-7.72,12.38-1.52-.58,5.74-7.48,6.21-12.75.47-5.28-8.84-8.32-8.84-8.32,4.41,2.62-1.34,21.91-3.81,22.35-2.47.43,3.36-13.8,3.25-19.33-.09-5.46-10.71-5.39-10.97-5.39,4.13.98,2.61,16.33-.34,16.3-2.94-.03-.42-16.19-2.29-17.71-2.89-2.36-10.87-1.3-11.12-1.27,4.3.39,7.83,12.04,6.12,16.51-1.73,4.53-1.68-15.99-10-16.36-4.39-.19-10.56-.51-15.79-1.88,24.4,20.21,40.14,40.65,63.15,50.78Zm-48.35-43.27c-.32-1.26,0-2.42.7-2.6.7-.18,1.53.7,1.85,1.96.32,1.26,0,2.42-.7,2.6-.7.18-1.53-.7-1.85-1.96Zm11.81-.93c-.03-.69.31-1.27.77-1.29.45-.03.86.52.89,1.21.03.69-.31,1.27-.77,1.29-.45.03-.85-.51-.89-1.21Zm26.82,21.18c.68-2.14,2.2-3.58,3.41-3.2,1.2.38,1.63,2.43.95,4.59-.68,2.15-2.2,3.58-3.41,3.2-1.2-.38-1.62-2.42-.95-4.59Zm-17.43-1.71c.26-1.27,1.05-2.18,1.76-2.04.71.16,1.07,1.3.8,2.57-.26,1.27-1.05,2.18-1.76,2.03-.71-.14-1.07-1.29-.8-2.56Z"/>
        </g>
        <ellipse class="cls-2" cx="250.23" cy="409.9" rx="174.77" ry="15.38"/>
        <g>
          <path class="cls-8" d="m274.65,117.74h-17.37c0-9.75-7.9-17.65-17.65-17.65s-17.65,7.9-17.65,17.65h-17.37c-2.83,0-5.12,2.29-5.12,5.12v14.51c0,1.28,1.04,2.32,2.32,2.32h75.64c1.28,0,2.32-1.04,2.32-2.32v-14.51c0-2.83-2.29-5.12-5.12-5.12Zm-35.02-3.41c-2.31,0-4.18-1.87-4.18-4.18s1.87-4.18,4.18-4.18,4.18,1.87,4.18,4.18-1.87,4.18-4.18,4.18Z"/>
          <path class="cls-5" d="m147.03,126.25h185.19c3.67,0,6.64,2.98,6.64,6.64v270.37c0,3.67-2.98,6.64-6.64,6.64h-185.19c-3.67,0-6.64-2.98-6.64-6.64V132.89c0-3.67,2.98-6.64,6.64-6.64Z"/>
          <path class="cls-13" d="m151.22,131.67h176.81c2.98,0,5.41,2.42,5.41,5.41v262c0,2.98-2.42,5.41-5.41,5.41h-176.81c-2.98,0-5.41-2.42-5.41-5.41V137.08c0-2.98,2.42-5.41,5.41-5.41Z"/>
          <g>
            <path class="cls-10" d="m175.41,234.58h17.26c3.11,0,5.63,2.52,5.63,5.63v17.26c0,3.11-2.52,5.63-5.63,5.63h-17.26c-3.11,0-5.63-2.52-5.63-5.63v-17.26c0-3.11,2.52-5.63,5.63-5.63Z"/>
            <g>
              <path class="cls-10" d="m307.97,241.58h-87.42c-.83,0-1.5.67-1.5,1.5s.67,1.5,1.5,1.5h87.42c.83,0,1.5-.67,1.5-1.5s-.67-1.5-1.5-1.5Z"/>
              <path class="cls-10" d="m287.01,253.08h-45.49c-.83,0-1.5.67-1.5,1.5s.67,1.5,1.5,1.5h45.49c.83,0,1.5-.67,1.5-1.5s-.67-1.5-1.5-1.5Z"/>
            </g>
            <path class="cls-13" d="m190.6,240.09c-2.83,3.96-5.67,7.91-8.5,11.87-1.97-1.85-3.94-3.7-5.92-5.55-1.19,1.51-2.38,3.02-3.56,4.54,3.34,2.21,6.69,4.42,10.03,6.63,4.27-4.59,8.54-9.17,12.81-13.76-1.62-1.24-3.24-2.48-4.86-3.73Z"/>
            <rect class="cls-10" x="169.78" y="274.09" width="28.51" height="28.51" rx="5.63" ry="5.63"/>
            <g>
              <path class="cls-10" d="m307.97,281.09h-87.42c-.83,0-1.5.67-1.5,1.5s.67,1.5,1.5,1.5h87.42c.83,0,1.5-.67,1.5-1.5s-.67-1.5-1.5-1.5Z"/>
              <path class="cls-10" d="m287.01,292.59h-45.49c-.83,0-1.5.67-1.5,1.5s.67,1.5,1.5,1.5h45.49c.83,0,1.5-.67,1.5-1.5s-.67-1.5-1.5-1.5Z"/>
            </g>
            <path class="cls-13" d="m190.6,279.6c-2.83,3.96-5.67,7.91-8.5,11.87-1.97-1.85-3.94-3.7-5.92-5.55-1.19,1.51-2.38,3.02-3.56,4.54,3.34,2.21,6.69,4.42,10.03,6.63,4.27-4.59,8.54-9.17,12.81-13.76-1.62-1.24-3.24-2.48-4.86-3.73Z"/>
            <rect class="cls-10" x="169.78" y="313.6" width="28.51" height="28.51" rx="5.63" ry="5.63"/>
            <g>
              <path class="cls-10" d="m307.97,320.6h-87.42c-.83,0-1.5.67-1.5,1.5s.67,1.5,1.5,1.5h87.42c.83,0,1.5-.67,1.5-1.5s-.67-1.5-1.5-1.5Z"/>
              <path class="cls-10" d="m287.01,332.1h-45.49c-.83,0-1.5.67-1.5,1.5s.67,1.5,1.5,1.5h45.49c.83,0,1.5-.67,1.5-1.5s-.67-1.5-1.5-1.5Z"/>
            </g>
            <path class="cls-13" d="m190.6,319.11c-2.83,3.96-5.67,7.91-8.5,11.87-1.97-1.85-3.94-3.7-5.92-5.55-1.19,1.51-2.38,3.02-3.56,4.54,3.34,2.21,6.69,4.42,10.03,6.63,4.27-4.59,8.54-9.17,12.81-13.76-1.62-1.24-3.24-2.48-4.86-3.73Z"/>
            <path class="cls-10" d="m175.41,353.11h17.26c3.11,0,5.63,2.52,5.63,5.63v17.26c0,3.11-2.52,5.63-5.63,5.63h-17.26c-3.11,0-5.63-2.52-5.63-5.63v-17.26c0-3.11,2.52-5.63,5.63-5.63Z"/>
            <g>
              <path class="cls-10" d="m307.97,360.11h-87.42c-.83,0-1.5.67-1.5,1.5s.67,1.5,1.5,1.5h87.42c.83,0,1.5-.67,1.5-1.5s-.67-1.5-1.5-1.5Z"/>
              <path class="cls-10" d="m287.01,371.62h-45.49c-.83,0-1.5.67-1.5,1.5s.67,1.5,1.5,1.5h45.49c.83,0,1.5-.67,1.5-1.5s-.67-1.5-1.5-1.5Z"/>
            </g>
            <path class="cls-13" d="m190.6,358.62c-2.83,3.96-5.67,7.91-8.5,11.87-1.97-1.85-3.94-3.7-5.92-5.55-1.19,1.51-2.38,3.02-3.56,4.54,3.34,2.21,6.69,4.42,10.03,6.63,4.27-4.59,8.54-9.17,12.81-13.76-1.62-1.24-3.24-2.48-4.86-3.73Z"/>
          </g>
          <path class="cls-3" d="m328.03,131.67c-6.73,180.56-72.09,261.88-182.22,267.41,0,2.99,2.42,5.41,5.41,5.41h176.81c2.99,0,5.41-2.42,5.41-5.41V137.08c0-2.99-2.42-5.41-5.41-5.41Z"/>
          <path class="cls-8" d="m276.84,126.59v12.71c0,2.37-1.92,4.29-4.29,4.29h-65.84c-2.37,0-4.29-1.92-4.29-4.29v-12.71h-2.2v13.12c0,3.36,2.72,6.08,6.08,6.08h66.66c3.36,0,6.08-2.72,6.08-6.08v-13.12h-2.2Z"/>
          <path class="cls-8" d="m283.42,124.82h-87.58c-2.29,0-4.14,1.85-4.14,4.14s1.85,4.14,4.14,4.14h87.58c2.29,0,4.14-1.85,4.14-4.14s-1.85-4.14-4.14-4.14Z"/>
          <g>
            <circle class="cls-9" cx="194.45" cy="187.43" r="26.45"/>
            <path class="cls-13" d="m180.72,184.03h9.67v-8.53c0-1.88,1.52-3.4,3.4-3.4s3.4,1.52,3.4,3.4v8.53h9.67c1.88,0,3.4,1.52,3.4,3.4s-1.52,3.4-3.4,3.4h-9.67v8.53c0,1.88-1.52,3.4-3.4,3.4s-3.4-1.52-3.4-3.4v-8.53h-9.67c-1.88,0-3.4-1.52-3.4-3.4s1.52-3.4,3.4-3.4Z"/>
          </g>
          <g>
            <path class="cls-10" d="m247,177.12h63.01c.69,0,1.25-.56,1.25-1.25s-.56-1.25-1.25-1.25h-63.01c-.69,0-1.25.56-1.25,1.25s.56,1.25,1.25,1.25Z"/>
            <path class="cls-10" d="m310.01,188.36h-63.01c-.69,0-1.25.56-1.25,1.25s.56,1.25,1.25,1.25h63.01c.69,0,1.25-.56,1.25-1.25s-.56-1.25-1.25-1.25Z"/>
            <path class="cls-10" d="m301.52,202.1h-46.04c-.69,0-1.25.56-1.25,1.25s.56,1.25,1.25,1.25h46.04c.69,0,1.25-.56,1.25-1.25s-.56-1.25-1.25-1.25Z"/>
          </g>
        </g>
        <g>
          <path class="cls-8" d="m393.17,332.44c-6.66-8.76-14.76-14.52-23.69-17.01-1.73-14.6-7.46-29.14-14.03-34.68-1.03-.87-2.57-.74-3.44.29-.88,1.03-.74,2.57.29,3.44,5.03,4.24,10.21,16.83,12.1,29.89-4.14-.56-8.42-.46-12.78.34-15.42,2.81-21.17,14.14-19.99,23.48,1.05,8.3,7.81,16.29,18.69,15.51,8.57-.62,14.69-5.79,17.67-14.96,1.71-5.27,2.27-11.55,1.94-18.04,9.25,3.17,15.7,9.88,19.35,14.69,9.73,12.81,13.03,28.9,9.91,35.32-6.87,14.14-25.73,16.69-43.29,18.34-1.15.11-2.29.21-3.42.31-.1,0-.2.02-.31.03-.64.06-1.26.11-1.88.17-7.9.73-15.1,1.5-20.79,3.32-.63.2-1.24.41-1.83.64-1.28.49-2.46,1.05-3.53,1.69.08.48.18.96.3,1.44.3,1.19.73,2.32,1.27,3.37.93-.66,2.03-1.24,3.26-1.75.56-.23,1.14-.44,1.75-.64,5.23-1.73,12.35-2.49,19.87-3.19.63-.06,1.27-.12,1.9-.17.14-.01.28-.03.42-.04,1.11-.1,2.22-.2,3.34-.31,18.87-1.76,39.27-4.51,47.32-21.08,4.36-8.98-.31-27.11-10.41-40.42Zm-29.84,4.79c-2.35,7.23-6.85,11.13-13.37,11.6-8.22.59-12.75-5.42-13.49-11.25-.88-6.95,3.16-14.85,13.99-17.62.65-.17,1.33-.32,2.02-.44,4.54-.83,8.69-.77,12.47-.1.48,6.37.08,12.61-1.62,17.81Z"/>
          <g>
            <path class="cls-8" d="m355.82,388.67c.03.13.07.26.09.39.38,1.63.49,3.28.36,4.87-.52,6.72-5.24,12.67-12.14,14.43-7.48,1.91-15.06-1.73-18.41-8.32-.54-1.05-.97-2.17-1.27-3.37-.12-.48-.22-.96-.3-1.44-1.32-8.18,3.8-16.16,11.98-18.25,8.66-2.21,17.48,3.02,19.69,11.69Z"/>
            <path class="cls-1" d="m328.03,395.76c-1.7-6.68,2.33-13.48,9.01-15.18,6.68-1.7,13.48,2.33,15.18,9.01,1.7,6.68-2.33,13.48-9.01,15.18-6.68,1.7-13.48-2.33-15.18-9.01Z"/>
            <path class="cls-14" d="m329.83,395.3c-1.45-5.69,1.98-11.48,7.67-12.93,5.69-1.45,11.48,1.98,12.93,7.67,1.45,5.69-1.98,11.48-7.67,12.93-5.69,1.45-11.48-1.98-12.93-7.67Z"/>
          </g>
          <path class="cls-14" d="m352.85,282.77c-20.37,5.2-41.17-7.15-46.37-27.52l-2.72-10.65c-2.16-8.47,5.35-17.73,16.74-20.63l.54,2.1c-10.23,2.61-17.04,10.68-15.17,17.99l2.72,10.65c4.9,19.21,24.51,30.85,43.72,25.95,19.21-4.9,30.85-24.51,25.95-43.72l-2.72-10.65c-1.86-7.31-11.7-11.13-21.94-8.53l-2.79.71-.54-2.1,2.79-.71c11.39-2.91,22.42,1.62,24.58,10.09l2.72,10.65c5.2,20.37-7.15,41.17-27.52,46.37Z"/>
          <path class="cls-8" d="m353.18,284.08c-21.1,5.38-42.64-7.41-48.02-28.5-.33-1.31.46-2.64,1.76-2.97,1.31-.33,2.64.46,2.97,1.76,4.71,18.49,23.59,29.69,42.07,24.97,18.49-4.71,29.69-23.59,24.97-42.07-.33-1.31.46-2.64,1.76-2.97,1.31-.33,2.64.46,2.97,1.76,5.38,21.1-7.41,42.64-28.5,48.02Z"/>
          <path class="cls-8" d="m316.46,226.26c-.52-2.04.71-4.11,2.75-4.63s4.11.71,4.63,2.75c.52,2.04-.71,4.11-2.75,4.63-2.04.52-4.11-.71-4.63-2.75Z"/>
          <path class="cls-8" d="m346.37,218.63c-.52-2.04.71-4.11,2.75-4.63,2.04-.52,4.11.71,4.63,2.75.52,2.04-.71,4.11-2.75,4.63-2.04.52-4.11-.71-4.63-2.75Z"/>
        </g>
        <g>
          <path class="cls-7" d="m171.06,414.76c-19.64,1.87-39.28,1.87-58.91,0-1.37-.13-2.41-1.27-2.41-2.62h0c0-1.45,1.2-2.63,2.67-2.63h58.4c1.48,0,2.67,1.18,2.67,2.63h0c0,1.35-1.04,2.49-2.41,2.62Z"/>
          <path class="cls-7" d="m159.02,316.51h-34.95c-4.26,0-7.71-3.45-7.71-7.71h0c0-4.26,3.45-7.71,7.71-7.71h34.95c4.26,0,7.71,3.45,7.71,7.71h0c0,4.26-3.45,7.71-7.71,7.71Z"/>
          <g>
            <rect class="cls-7" x="117.77" y="314.45" width="47.66" height="2.55"/>
            <path class="cls-11" d="m165.32,319.08h-47.55c-.78,0-1.41-.63-1.41-1.41h0c0-.78.63-1.41,1.41-1.41h47.55c.78,0,1.41.63,1.41,1.41h0c0,.78-.63,1.41-1.41,1.41Z"/>
            <path class="cls-11" d="m165.32,315.01h-47.55c-.78,0-1.41-.63-1.41-1.41h0c0-.78.63-1.41,1.41-1.41h47.55c.78,0,1.41.63,1.41,1.41h0c0,.78-.63,1.41-1.41,1.41Z"/>
          </g>
          <path class="cls-11" d="m171.75,329.12v80.66c-20.24,2.18-40.39,2.32-60.4,0v-80.66c0-2.17.63-4.22,1.74-5.98.41-.64.89-1.24,1.42-1.79h0c.93-.96,2.02-1.74,3.27-2.32h47.54c3.92,1.83,6.43,5.77,6.43,10.09Z"/>
          <rect class="cls-13" x="111.34" y="345.66" width="60.4" height="33.53"/>
          <rect class="cls-13" x="111.34" y="340.66" width="60.4" height="2.82"/>
          <rect class="cls-13" x="111.34" y="381.59" width="60.4" height="2.82"/>
          <g class="cls-4">
            <path class="cls-15" d="m171.75,329.12v80.66l-5.07.5c.24-11.8,1.28-75.73-4.31-82.77-4.99-6.28-47.85-6.17-47.85-6.17h0c.93-.96,2.02-1.74,3.27-2.32h47.54c3.92,1.83,6.43,5.77,6.43,10.09Z"/>
          </g>
          <path class="cls-13" d="m121.78,407h-2.55c-2.61,0-4.72-2.11-4.72-4.72h0c0-2.61,2.11-4.72,4.72-4.72h2.55c2.61,0,4.72,2.11,4.72,4.72h0c0,2.61-2.11,4.72-4.72,4.72Z"/>
          <path class="cls-13" d="m164.63,399.19h-33.73c-.45,0-.82-.37-.82-.82h0c0-.45.37-.82.82-.82h33.73c.45,0,.82.37.82.82h0c0,.45-.37.82-.82.82Z"/>
          <path class="cls-13" d="m164.63,403.09h-33.73c-.45,0-.82-.37-.82-.82h0c0-.45.37-.82.82-.82h33.73c.45,0,.82.37.82.82h0c0,.45-.37.82-.82.82Z"/>
          <path class="cls-11" d="m151.4,360.65h-9.32v-9.32c0-.98-.8-1.78-1.78-1.78s-1.78.8-1.78,1.78v9.32h-9.32c-.98,0-1.78.8-1.78,1.78s.8,1.78,1.78,1.78h9.32v9.32c0,.98.8,1.78,1.78,1.78s1.78-.8,1.78-1.78v-9.32h9.32c.98,0,1.78-.8,1.78-1.78s-.8-1.78-1.78-1.78Z"/>
          <g class="cls-16">
            <path class="cls-12" d="m125.21,304.21h-4.4c-.61,0-1.19.53-1.16,1.16.03.63.51,1.16,1.16,1.16h4.4c.61,0,1.19-.53,1.16-1.16-.03-.63-.51-1.16-1.16-1.16Z"/>
          </g>
          <g class="cls-16">
            <path class="cls-12" d="m147.06,304.44h-16.62c-1.49,0-1.49,2.32,0,2.32h16.62c1.49,0,1.49-2.32,0-2.32Z"/>
          </g>
        </g>
        <g>
          <path class="cls-8" d="m174.3,317.31l95.54,82.99-8.03,9.25-95.54-82.99c-1.7-1.48-1.88-4.06-.4-5.76l2.68-3.08c1.48-1.7,4.06-1.88,5.76-.4Z"/>
          <polygon class="cls-8" points="277.54 415.1 261.81 409.55 269.84 400.3 277.54 415.1"/>
          <path class="cls-14" d="m183.55,325.34l-1.85-1.61-9.1,10.48-1.61,1.85,25.58,22.22c.51.44,1.28.39,1.73-.12.35-.4.39-.97.13-1.41.02-.02.04-.03.06-.05.3-.34.12-.98-.39-1.42-.51-.44-1.16-.53-1.46-.19l-22.19-19.28,9.1-10.48Z"/>
          <rect class="cls-14" x="244.29" y="371.13" width="12.25" height="40.82" transform="translate(-209.4 323.82) rotate(-49.02)"/>
          <rect class="cls-14" x="224.57" y="372.78" width="12.25" height="3.27" transform="translate(-203.25 303.03) rotate(-49.02)"/>
          <rect class="cls-14" x="167.86" y="323.52" width="12.25" height="3.27" transform="translate(-185.58 243.27) rotate(-49.02)"/>
        </g>
        <g>
          <path class="cls-9" d="m409.32,305.88l-1.07-5.45c-.02-.09-.09-.16-.18-.18l-5.43-1.18c-.24-.05-.24-.4,0-.45l5.45-1.07c.09-.02.16-.09.18-.18l1.18-5.43c.05-.24.4-.24.45,0l1.07,5.45c.02.09.09.16.18.18l5.43,1.18c.24.05.24.4,0,.45l-5.45,1.07c-.09.02-.16.09-.18.18l-1.18,5.43c-.05.24-.4.24-.45,0Z"/>
          <path class="cls-14" d="m386.45,296.7l-.58-2.98s-.05-.09-.1-.1l-2.97-.64c-.13-.03-.13-.22,0-.24l2.98-.58s.09-.05.1-.1l.64-2.97c.03-.13.22-.13.24,0l.58,2.98s.05.09.1.1l2.97.64c.13.03.13.22,0,.24l-2.98.58s-.09.05-.1.1l-.64,2.97c-.03.13-.22.13-.24,0Z"/>
          <path class="cls-11" d="m396.95,287.92l-.9-4.58c-.01-.08-.07-.13-.15-.15l-4.56-.99c-.2-.04-.2-.34,0-.38l4.58-.9c.08-.01.13-.07.15-.15l.99-4.56c.04-.2.34-.2.38,0l.9,4.58c.01.08.07.13.15.15l4.56.99c.2.04.2.34,0,.38l-4.58.9c-.08.01-.13.07-.15.15l-.99,4.56c-.04.2-.34.2-.38,0Z"/>
        </g>
        <g>
          <path class="cls-9" d="m94.96,178.05l1.07-5.45c.02-.09.09-.16.18-.18l5.43-1.18c.24-.05.24-.4,0-.45l-5.45-1.07c-.09-.02-.16-.09-.18-.18l-1.18-5.43c-.05-.24-.4-.24-.45,0l-1.07,5.45c-.02.09-.09.16-.18.18l-5.43,1.18c-.24.05-.24.4,0,.45l5.45,1.07c.09.02.16.09.18.18l1.18,5.43c.05.24.4.24.45,0Z"/>
          <path class="cls-14" d="m117.83,168.87l.58-2.98s.05-.09.1-.1l2.97-.64c.13-.03.13-.22,0-.24l-2.98-.58s-.09-.05-.1-.1l-.64-2.97c-.03-.13-.22-.13-.24,0l-.58,2.98s-.05.09-.1.1l-2.97.64c-.13.03-.13.22,0,.24l2.98.58s.09.05.1.1l.64,2.97c.03.13.22.13.24,0Z"/>
          <path class="cls-11" d="m107.33,160.09l.9-4.58c.01-.08.07-.13.15-.15l4.56-.99c.2-.04.2-.34,0-.38l-4.58-.9c-.08-.01-.13-.07-.15-.15l-.99-4.56c-.04-.2-.34-.2-.38,0l-.9,4.58c-.01.08-.07.13-.15.15l-4.56.99c-.2.04-.2.34,0,.38l4.58.9c.08.01.13.07.15.15l.99,4.56c.04.2.34.2.38,0Z"/>
        </g>
        <g>
          <path class="cls-9" d="m253.77,81.98l5.45,1.07c.09.02.16.09.18.18l1.18,5.43c.05.24.4.24.45,0l1.07-5.45c.02-.09.09-.16.18-.18l5.43-1.18c.24-.05.24-.4,0-.45l-5.45-1.07c-.09-.02-.16-.09-.18-.18l-1.18-5.43c-.05-.24-.4-.24-.45,0l-1.07,5.45c-.02.09-.09.16-.18.18l-5.43,1.18c-.24.05-.24.4,0,.45Z"/>
          <path class="cls-14" d="m268.36,97.77l2.98.58s.09.05.1.1l.64,2.97c.03.13.22.13.24,0l.58-2.98s.05-.09.1-.1l2.97-.64c.13-.03.13-.22,0-.24l-2.98-.58s-.09-.05-.1-.1l-.64-2.97c-.03-.13-.22-.13-.24,0l-.58,2.98s-.05.09-.1.1l-2.97.64c-.13.03-.13.22,0,.24Z"/>
          <path class="cls-11" d="m277.94,87.94l4.58.9c.08.01.13.07.15.15l.99,4.56c.04.2.34.2.38,0l.9-4.58c.01-.08.07-.13.15-.15l4.56-.99c.2-.04.2-.34,0-.38l-4.58-.9c-.08-.01-.13-.07-.15-.15l-.99-4.56c-.04-.2-.34-.2-.38,0l-.9,4.58c-.01.08-.07.13-.15.15l-4.56.99c-.2.04-.2.34,0,.38Z"/>
        </g>
      </g>
    </g>
  </g>
</svg>