<?xml version="1.0" encoding="UTF-8"?>
<svg id="OBJECTS" xmlns="http://www.w3.org/2000/svg" viewBox="0 0 500 500">
  <defs>
    <style>
      .cls-1 {
        fill: #f44a38;
        opacity: .35;
      }

      .cls-1, .cls-2, .cls-3, .cls-4, .cls-5, .cls-6, .cls-7, .cls-8, .cls-9, .cls-10, .cls-11, .cls-12, .cls-13, .cls-14, .cls-15, .cls-16, .cls-17, .cls-18, .cls-19, .cls-20, .cls-21, .cls-22, .cls-23 {
        stroke-width: 0px;
      }

      .cls-2 {
        opacity: .17;
      }

      .cls-2, .cls-20 {
        fill: #fff;
      }

      .cls-24 {
        opacity: .19;
      }

      .cls-25 {
        opacity: .55;
      }

      .cls-26 {
        opacity: .54;
      }

      .cls-27 {
        opacity: .5;
      }

      .cls-3 {
        fill: #f59074;
      }

      .cls-4 {
        fill: #78adf9;
      }

      .cls-5 {
        fill: #4f7af7;
      }

      .cls-6 {
        fill: #88b4ff;
      }

      .cls-7 {
        fill: #0f1c43;
      }

      .cls-8 {
        fill: #071330;
      }

      .cls-9 {
        fill: #254eb7;
      }

      .cls-10 {
        fill: #e26240;
      }

      .cls-11 {
        fill: #e26439;
      }

      .cls-12 {
        fill: #e06338;
      }

      .cls-13 {
        fill: #aacaf9;
      }

      .cls-14 {
        fill: #a3c9ec;
      }

      .cls-15 {
        fill: #8cb8ed;
      }

      .cls-16 {
        fill: #04137a;
      }

      .cls-17 {
        fill: #febd9f;
      }

      .cls-18 {
        fill: #f2a486;
      }

      .cls-19 {
        fill: #f3885b;
      }

      .cls-21 {
        fill: #e82d1f;
      }

      .cls-22 {
        fill: #003236;
      }

      .cls-23 {
        fill: #061230;
      }
    </style>
  </defs>
  <g class="cls-24">
    <path class="cls-13" d="m371.18,406.88l-199.05-2.12c-34.44.1-68.27-22.61-88.88-57.77-20.62-35.16-28.01-81.71-21.17-124.37,6.83-42.67,27.42-81.04,55.29-106.35,17.18-15.6,37.25-26.51,58.33-29.46,21.08-2.95,43.14,2.37,61.18,16.72,31.42,24.99,48.38,74.33,82.06,93.98,15.69,9.15,33.33,10.75,49.99,16.4,32.8,11.14,63.93,43.17,68.21,85.78,3.14,31.27-4.9,54.56-21.49,79.19-13.72,20.37-24.59,30.32-44.46,28.02"/>
  </g>
  <path class="cls-6" d="m432.73,413.28H65.86c-.99,0-1.79-.8-1.79-1.79h0c0-.99.8-1.79,1.79-1.79h366.86c.99,0,1.79.8,1.79,1.79h0c0,.99-.8,1.79-1.79,1.79Z"/>
  <g>
    <g>
      <path class="cls-13" d="m381.26,335.56c8.7.7,16.4.52,24.93.5,6.56-.02,14.01-.66,19.98-3.37,6.85-3.11,11.84-9.45,14.77-16.38,2.93-6.93,4.03-14.49,4.89-21.96,1.35-11.78,2.17-23.69,1.07-35.49-1.82,1.94-2.04,4.84-2.21,7.5-.63,9.64-1.99,19.23-4.06,28.67-1.29,5.89-2.31,12.06-5.28,17.31-2.55,4.52-5.18,7.89-8.89,11.51-1.45,1.41-4.39,3.06-6.14,4.07-1.9,1.1-4.04,1.72-6.17,2.26-9.35,2.37-19.04,3.41-28.68,3.06-1.04-.04-2.11-.09-3.1.23-.99.32-1.91,1.1-2.07,2.12"/>
      <g>
        <path class="cls-13" d="m383.31,407.62c0,1.44-1.17,2.61-2.61,2.61s-2.61-1.17-2.61-2.61,1.17-2.61,2.61-2.61,2.61,1.17,2.61,2.61Z"/>
        <path class="cls-13" d="m413.79,407.98c0,1.44-1.17,2.61-2.61,2.61s-2.61-1.17-2.61-2.61,1.17-2.61,2.61-2.61,2.61,1.17,2.61,2.61Z"/>
        <path class="cls-13" d="m444.27,407.62c0,1.44-1.17,2.61-2.61,2.61s-2.61-1.17-2.61-2.61,1.17-2.61,2.61-2.61,2.61,1.17,2.61,2.61Z"/>
        <path class="cls-13" d="m442.41,405.93c-4.27-6-9.27-10.78-15.15-14.39-2.66-1.63-5.37-3.03-8.2-4.21-1.96-.82-4-1.72-6.06-2.21,0-.05.01-.1.01-.15v-49.31c0-2.23-2.91-2.23-2.91,0v49.31s0,.07,0,.11c-2.12.48-4.22,1.41-6.23,2.25-2.82,1.18-5.54,2.57-8.2,4.21-5.88,3.61-10.88,8.38-15.15,14.39-1,1.41.71,3.46,1.72,2.04,4.15-5.83,8.95-10.43,14.66-13.94,2.54-1.56,5.12-2.88,7.81-4,1.78-.74,3.63-1.55,5.5-2.04-.04,7.01-.09,14.02-.13,21.03-.01,1.69,2.61,1.69,2.62,0,.04-7,.09-14,.13-21,1.83.49,3.65,1.29,5.39,2.01,2.7,1.12,5.28,2.44,7.81,4,5.71,3.51,10.51,8.1,14.66,13.94,1.01,1.42,2.72-.63,1.71-2.04Z"/>
      </g>
    </g>
    <g>
      <g>
        <path class="cls-13" d="m85.49,370.82c4.59-4.14,6.84-11.61,5.43-17.63-1.41-6.02-5.44-11.19-10.35-14.95-3.81-2.91-8.59-5.13-13.31-4.26-1.36.25-2.66.75-3.84,1.48-1.41.87-2.65,2.09-3.29,3.61-1.07,2.54-.32,5.53,1.16,7.85.61.96,1.35,1.85,1.7,2.93.43,1.32.24,2.75.3,4.13.16,3.53,2.03,6.81,4.53,9.3,2.5,2.49,4.01,3.44,7.12,5.11,2.37,1.28,7.86,2.64,10.55,2.43"/>
        <g class="cls-25">
          <path class="cls-6" d="m90.92,353.19c-.6-2.55-1.67-4.95-3.08-7.16-.2,1.37-.45,2.74-.74,4.07-.62,2.84-1.21,5.98-2.31,8.67-1.07,2.62-3.34,3.17-5.8,2.2-1.4-.55-2.65-1.37-4.11-1.78-1.52-.42-2.54-.82-3.64-2.02-1.93-2.11-2.8-4.79-3.43-7.53-.73-3.16-1.7-5.97-2.98-8.94-.66-1.54-1.53-3.25-1.82-4.97-1.23.84-2.3,1.97-2.87,3.34-1.07,2.54-.32,5.53,1.16,7.85.61.96,1.35,1.85,1.7,2.93.43,1.32.24,2.75.3,4.13.16,3.53,2.03,6.81,4.53,9.3,2.5,2.49,4.01,3.44,7.12,5.11,2.37,1.28,7.86,2.64,10.55,2.43,4.59-4.14,6.84-11.61,5.43-17.63Z"/>
        </g>
        <path class="cls-16" d="m87.1,387.72c.33-5.67-.22-11.39-1.61-16.9-.32-1.26-.69-2.5-1.1-3.74-.08-.25-.16-.49-.24-.74-.01-.04-.02-.07-.03-.11,0,0,0,0,0,0-.5-1.54-1.06-3.06-1.67-4.55-.58-1.4-1.2-2.78-1.87-4.14.03-.03.05-.07.06-.12.08-1.69-.11-3.37-.56-5-.06-.21-.39-.12-.33.09.41,1.46.58,2.96.56,4.46-1.17-2.32-2.46-4.57-3.88-6.75-2.37-3.61-5.09-7-8.1-10.1-.15-.16-.4.08-.24.24,1.69,1.73,3.28,3.55,4.77,5.45.83,1.06,1.62,2.14,2.38,3.24-.95-.2-1.92-.33-2.89-.38-.22-.01-.22.33,0,.34,1.07.05,2.13.2,3.17.44,1.58,2.32,3.01,4.74,4.29,7.23.96,1.88,1.83,3.8,2.61,5.75-1.89-.69-3.8-1.38-5.58-2.32-.19-.1-.37.19-.17.29,1.89,1,3.92,1.72,5.92,2.45.43,1.1.83,2.21,1.2,3.33-.05.06,2.77,8.33,2.97,16.75.04,1.58.02,3.15-.07,4.73-.02.29.44.32.45.03Z"/>
      </g>
      <g>
        <path class="cls-6" d="m96.11,368.37c-5.73-10.79-6.01-24.22-1.08-35.4,2.72-6.16,7.19-11.85,13.39-14.5,2.14-.92,4.47-1.45,6.79-1.29,2.32.16,4.63,1.06,6.27,2.71,3.06,3.08,3.25,7.97,2.66,12.28-1.13,8.31-4.44,16.28-9.35,23.07-4.91,6.79-11.35,9.06-18.68,13.13"/>
        <path class="cls-4" d="m91.95,343.88c.34,2.2,1.06,4.37,2.23,6.48,3.18,5.75,8.18,2.11,12.38-.27,4.96-2.82,9.52-5.77,12-11.11,2.79-6.03,2.53-12.94,2.52-19.44.14.12.27.23.4.36,3.06,3.08,3.25,7.97,2.66,12.28-1.13,8.31-4.44,16.28-9.35,23.07-4.91,6.79-11.35,9.06-18.68,13.13-3.95-7.44-5.31-16.15-4.16-24.5Z"/>
        <path class="cls-16" d="m95.81,387.23c-.9-7.41-.66-14.95.71-22.29.31-1.68.7-3.34,1.13-4.99.08-.33.17-.66.25-.99.01-.05.02-.1.04-.14,0,0,0,0,0,0,.53-2.06,1.13-4.1,1.81-6.11.64-1.89,1.34-3.75,2.11-5.59-.04-.03-.08-.08-.08-.15-.24-2.2-.13-4.43.32-6.6.06-.28.5-.19.44.09-.41,1.94-.52,3.93-.36,5.9,1.34-3.14,2.85-6.2,4.53-9.17,2.81-4.94,6.09-9.6,9.79-13.91.19-.22.53.08.34.29-2.07,2.41-4.01,4.93-5.8,7.55-1,1.45-1.94,2.94-2.85,4.45,1.23-.34,2.48-.59,3.75-.73.29-.03.32.41.03.45-1.4.16-2.77.44-4.12.84-1.87,3.17-3.55,6.46-5.02,9.84-1.1,2.54-2.08,5.13-2.94,7.76,2.42-1.06,4.87-2.13,7.13-3.51.25-.15.5.22.25.37-2.39,1.47-4.99,2.58-7.56,3.71-.47,1.48-.9,2.97-1.29,4.47.07.07-2.94,11.15-2.51,22.22.08,2.07.24,4.14.49,6.19.05.38-.55.46-.59.08Z"/>
      </g>
      <g>
        <path class="cls-17" d="m106.83,385.79c.09-.48-.28-.93-.76-.93h-29.46c-.49,0-.86.45-.76.93l.83,4.16c.12.6.65,1.04,1.27,1.04h26.66c.72,0,1.33-.51,1.47-1.21l.77-3.99Z"/>
        <path class="cls-17" d="m78.17,390.71l3.66,18.3c.07.33.36.57.7.57h17.77c.34,0,.63-.24.7-.57l3.53-18.29h-26.35Z"/>
        <path class="cls-18" d="m101.26,407.6l3.26-16.89h-26.35l.15.73c8.66,3.36,19.53,6.95,22.94,16.15Z"/>
      </g>
    </g>
    <g>
      <g>
        <path class="cls-14" d="m360.13,283.79c13.97,41.57,28.41,82.97,43.34,124.19.76,2.1,4.08,1.19,3.31-.93-14.93-41.22-29.38-82.61-43.34-124.19-.71-2.13-4.03-1.21-3.31.94h0Z"/>
        <rect class="cls-13" x="97.81" y="279.75" width="328.48" height="4.76" rx="1.42" ry="1.42"/>
        <path class="cls-13" d="m165.55,283.79c-13.97,41.57-28.41,82.97-43.34,124.19-.76,2.1-4.08,1.19-3.31-.93,14.93-41.22,29.38-82.61,43.34-124.19.71-2.13,4.03-1.21,3.31.94h0Z"/>
      </g>
      <g>
        <rect class="cls-13" x="193.13" y="211.61" width="78.65" height="54.87" rx="2.29" ry="2.29"/>
        <path class="cls-2" d="m226.75,211.61c-7.7,13.88-22.79,41.39-28.99,54.87h37.67l15.26-54.87h-23.94Z"/>
        <rect class="cls-15" x="220.8" y="245.46" width="25.22" height="34.29"/>
        <path class="cls-15" d="m235.4,234.9c0,1.63-1.32,2.95-2.95,2.95s-2.95-1.32-2.95-2.95,1.32-2.95,2.95-2.95,2.95,1.32,2.95,2.95Z"/>
      </g>
      <g>
        <g>
          <path class="cls-13" d="m373.09,240.43c4.59-4.14,6.84-11.61,5.43-17.63s-5.44-11.19-10.35-14.94c-3.81-2.91-8.59-5.13-13.31-4.26-1.36.25-2.66.75-3.84,1.48-1.41.87-2.65,2.09-3.29,3.61-1.07,2.54-.32,5.53,1.16,7.85.61.96,1.35,1.85,1.7,2.93.43,1.32.24,2.75.3,4.13.16,3.53,2.03,6.81,4.53,9.3,2.5,2.49,4.01,3.44,7.12,5.11,2.37,1.28,7.86,2.64,10.55,2.43"/>
          <g class="cls-25">
            <path class="cls-6" d="m378.52,222.79c-.6-2.55-1.67-4.95-3.08-7.16-.2,1.37-.45,2.74-.74,4.07-.62,2.84-1.21,5.98-2.31,8.67-1.07,2.62-3.34,3.17-5.8,2.2-1.4-.55-2.65-1.37-4.11-1.78-1.52-.42-2.54-.82-3.64-2.02-1.93-2.11-2.8-4.79-3.43-7.53-.73-3.16-1.7-5.97-2.98-8.94-.66-1.54-1.53-3.25-1.82-4.97-1.23.84-2.3,1.97-2.87,3.34-1.07,2.54-.32,5.53,1.16,7.85.61.96,1.35,1.85,1.7,2.93.43,1.32.24,2.75.3,4.13.16,3.53,2.03,6.81,4.53,9.3,2.5,2.49,4.01,3.44,7.12,5.11,2.37,1.28,7.86,2.64,10.55,2.43,4.59-4.14,6.84-11.61,5.43-17.63Z"/>
          </g>
          <path class="cls-16" d="m374.7,257.32c.33-5.67-.22-11.39-1.61-16.9-.32-1.26-.69-2.5-1.1-3.74-.08-.25-.16-.49-.24-.74-.01-.04-.02-.07-.03-.11,0,0,0,0,0,0-.5-1.54-1.06-3.06-1.67-4.55-.58-1.4-1.2-2.78-1.87-4.14.03-.03.05-.07.06-.12.08-1.69-.11-3.37-.56-5-.06-.21-.39-.12-.33.09.41,1.46.58,2.96.56,4.46-1.17-2.32-2.46-4.57-3.88-6.75-2.37-3.61-5.09-7-8.1-10.1-.15-.16-.4.08-.24.24,1.69,1.73,3.28,3.55,4.77,5.45.83,1.06,1.62,2.14,2.38,3.24-.95-.2-1.92-.33-2.89-.38-.22-.01-.22.33,0,.34,1.07.05,2.13.2,3.17.44,1.58,2.32,3.01,4.74,4.29,7.23.96,1.88,1.83,3.8,2.61,5.75-1.89-.69-3.8-1.38-5.58-2.32-.19-.1-.37.19-.17.29,1.89,1,3.92,1.72,5.92,2.45.43,1.1.83,2.21,1.2,3.33-.05.06,2.77,8.33,2.97,16.75.04,1.58.02,3.15-.07,4.73-.02.29.44.32.45.03Z"/>
        </g>
        <g>
          <path class="cls-6" d="m383.76,244.7c-3.5-6.58-3.67-14.78-.66-21.6,1.66-3.76,4.39-7.23,8.17-8.85,1.31-.56,2.73-.89,4.15-.79,1.42.1,2.82.65,3.83,1.66,1.87,1.88,1.98,4.87,1.62,7.49-.69,5.07-2.71,9.93-5.71,14.08-3,4.14-6.93,5.53-11.4,8.01"/>
          <path class="cls-4" d="m381.22,229.75c.21,1.34.65,2.67,1.36,3.96,1.94,3.51,4.99,1.29,7.55-.17,3.03-1.72,5.81-3.52,7.32-6.78,1.71-3.68,1.55-7.9,1.54-11.86.08.07.17.14.24.22,1.87,1.88,1.98,4.87,1.62,7.49-.69,5.07-2.71,9.93-5.71,14.08s-6.93,5.53-11.4,8.01c-2.41-4.54-3.24-9.85-2.54-14.95Z"/>
          <path class="cls-16" d="m383.58,256.2c-.55-4.52-.4-9.12.43-13.6.19-1.02.43-2.04.69-3.05.05-.2.1-.4.15-.6,0-.03.01-.06.02-.09,0,0,0,0,0,0,.33-1.26.69-2.5,1.11-3.73.39-1.15.82-2.29,1.28-3.41-.03-.02-.05-.05-.05-.09-.15-1.34-.08-2.71.2-4.03.04-.17.3-.12.27.05-.25,1.19-.32,2.4-.22,3.6.81-1.92,1.74-3.78,2.77-5.59,1.71-3.01,3.71-5.86,5.97-8.49.11-.13.32.05.21.18-1.26,1.47-2.44,3.01-3.54,4.6-.61.89-1.19,1.79-1.74,2.71.75-.21,1.52-.36,2.29-.45.18-.02.19.25.02.27-.85.1-1.69.27-2.51.51-1.14,1.94-2.17,3.94-3.06,6-.67,1.55-1.27,3.13-1.79,4.74,1.48-.65,2.97-1.3,4.35-2.14.15-.09.3.13.15.23-1.46.89-3.05,1.57-4.61,2.26-.29.9-.55,1.81-.79,2.73.04.05-1.8,6.8-1.53,13.56.05,1.26.14,2.52.3,3.78.03.23-.33.28-.36.05Z"/>
        </g>
        <g>
          <path class="cls-17" d="m394.44,255.39c.09-.48-.28-.93-.76-.93h-29.46c-.49,0-.86.45-.76.93l.83,4.16c.12.6.65,1.04,1.27,1.04h26.66c.72,0,1.33-.51,1.47-1.21l.77-3.99Z"/>
          <path class="cls-17" d="m365.78,260.31l3.66,18.3c.07.33.36.57.7.57h17.77c.34,0,.63-.24.7-.57l3.53-18.29h-26.35Z"/>
          <path class="cls-18" d="m388.87,277.2l3.26-16.89h-26.35l.15.73c8.66,3.36,19.53,6.95,22.94,16.15Z"/>
        </g>
      </g>
      <g>
        <g>
          <path class="cls-13" d="m322.37,210.37c0,1.36,1.1,2.46,2.46,2.46s2.46-1.1,2.46-2.46-1.1-2.46-2.46-2.46-2.46,1.1-2.46,2.46Z"/>
          <path class="cls-13" d="m295.63,275.01h25.75c2.42,0,4.39,2.25,4.39,5.02h-34.53c0-2.77,1.96-5.02,4.39-5.02Z"/>
          <polygon class="cls-15" points="310.66 276.23 325.92 210.13 325.62 209.75 290.75 165.84 289.18 167.08 323.75 210.61 308.71 275.79 310.66 276.23"/>
        </g>
        <g>
          <g>
            <circle class="cls-15" cx="272.91" cy="180.2" r="6.74"/>
            <path class="cls-15" d="m278.67,176.73c.61,1.01.97,2.2.97,3.47,0,3.72-3.02,6.74-6.74,6.74-3.47,0-6.33-2.63-6.69-6,4.7,1.12,9.74.23,12.46-4.21Z"/>
          </g>
          <path class="cls-13" d="m286.29,169.45h0c.9,1.1,2.52,1.27,3.63.37l3.35-2.73c1.1-.9,1.27-2.52.37-3.63h0c-.9-1.1-2.52-1.27-3.63-.37l-3.35,2.73c-1.1.9-1.27,2.52-.37,3.63Z"/>
          <path class="cls-13" d="m291.8,198.4s8.45-20.25-6.2-32.71c-13.63-11.59-28.11-2.7-30.37-2.26l36.57,34.97Z"/>
        </g>
      </g>
    </g>
  </g>
  <g>
    <path class="cls-8" d="m318.15,249.52c-5.99,3.14-9.64,10.24-8.71,16.95.31,2.23,1.07,4.43.84,6.67-.29,2.75-2.02,5.1-3.42,7.49-2.01,3.43-3.41,7.25-3.8,11.21-.39,3.96.27,8.05,2.16,11.55,1.57,2.91,4.1,5.44,7.28,6.36,1.31.38,2.73.47,4.05.1,1.31-.37,2.48-1.17,3.39-2.18,2.86-3.15,3.14-7.91,2.31-12.08-.83-4.17,2.85-3.26,2.11-7.45-1.58-9.01-3.71-23.32-5.92-32.21"/>
    <g>
      <path class="cls-7" d="m404.14,381.12c-.85-2.38,4.93-4.2,2.52-5.09-9.13-3.34-27.44-3.61-37.17-3.05-1.31.08-2.63.18-3.94.3-3.22.3-6.35-1.1-8.32-3.67-4.5-5.86-8.69-9.72-9.69-10.72-21.14,4.34-35.91.23-35.91.23-3.51,3.64-6.39,7.25-8.7,10.48-1.68,2.35-4.46,3.64-7.34,3.45-.31-.02-.63-.04-.94-.06-10.06-.58-32.57.11-42,3.57-2.5.91,7.07,2.4,6.2,4.86-.81,2.27.25,4.86,2,6.54,1.75,1.68,4.09,2.64,6.4,3.48,18.23,6.67,38.16,8.83,57.44,6.22,3.2-.43,6.41-1.01,9.5-1.93,2.05.46,4.14.81,6.23,1.09,18.66,2.52,37.95.43,55.59-6.01,2.23-.81,4.49-1.73,6.19-3.36,1.7-1.63,2.72-4.13,1.94-6.32Z"/>
      <path class="cls-23" d="m384.3,391.74c4.02-2.1,14.19-7.09,11.89-11-.76-1.28-1.18-2.9-2.5-3.59-5.64-2.93-21.64-.07-28-.08-38.99-.12-46.37,9.2-69,1.82-3.65-1.19-7.3-2.58-11.14-2.76-3.83-.18-22.25-1.97-24.45,1.18,0,0,12.11,5.18,28.81,12.03,44.87,18.39,94.38,2.41,94.38,2.41Z"/>
      <path class="cls-7" d="m320.17,399.75c11.51-3.16,22.79-6.93,33.77-11.29,8.42-3.35,16.67-7.05,25.43-9.65,8.76-2.6,18.16-4.07,27.29-2.78,4.57.64,9.5,2.35,11.33,6.05,1.26,2.54.74,5.52-.58,8.04-2.07,3.92-5.91,6.92-10.05,9.3-8.35,4.79-18.15,7.42-28.05,8.63-9.9,1.21-19.95,1.06-29.94.67-14.43-.56-28.84-1.62-43.17-3.17"/>
      <g>
        <path class="cls-3" d="m341.55,399.97s3.21-.28,5.85-2.19c2.63-1.91,5.26-1.55,6.58,1.47,1.31,3.03,1.75,6.25,7.25,9.48,5.5,3.23,7.45,7.49,6.45,8.12-1,.64-3.89-2.04-6.71-3.01-4.56-1.56-12.96-5.32-14.16-5.99-1.19-.68-7.09-1.08-7.09-1.08"/>
        <path class="cls-10" d="m353.92,404.96c1.45,2.24,3.93,3.53,6.27,4.62,1.91.89,3.75,1.76,5.51,2.71-1.08-1.18-2.56-2.43-4.48-3.56-5.5-3.23-5.93-6.45-7.25-9.48-.29-.68-.66-1.22-1.07-1.63-.1,2.61-.6,4.84,1.02,7.34Z"/>
      </g>
      <path class="cls-7" d="m341.39,406.93c-14.78,1.55-11.99,1.22-26.87,1.78-10.3.39-20.66.54-30.87-.67-10.21-1.21-20.32-3.83-28.92-8.63-4.26-2.37-8.23-5.38-10.36-9.3-1.37-2.51-1.9-5.5-.6-8.04,1.89-3.7,6.97-5.4,11.68-6.05,9.42-1.29,19.11.18,28.14,2.78,9.03,2.6,17.54,6.3,26.22,9.65,11.32,4.36,20.64,8.29,32.51,11.44,0,0-.5,1.71-.78,3.73-.28,2.01-.16,3.3-.16,3.3Z"/>
    </g>
    <g>
      <path class="cls-19" d="m312.8,302.28c1.75,3.11,3.62,6.36,6.3,8.7,3.69,3.22,8.04,3.45,12.77,3.31,7.39-.22,11.56-7.06,13.75-13.45-.96-.23-1.92-.5-2.87-.79-1.72-.54-3.46-1.21-4.78-2.44-2.06-1.93-3.68-4.96-3.65-7.78.03-2.82-.39-5.58-.22-8.39h-5.19c.76,3.38,3.38,19.71-16.11,20.86Z"/>
      <path class="cls-10" d="m312.8,302.27c20.19-1.26,23.87-19.09,23.11-22.47l-13.6,1.52c.17,2.82.53,5.75.56,8.58.03,2.82-1.25,5.77-3.31,7.7-1.32,1.23-3.06,1.9-4.78,2.44-.92.29-1.85.55-2.79.78.27.48.54.96.82,1.45Z"/>
    </g>
    <g>
      <path class="cls-19" d="m319.49,258.86c-5.17,2.14-5.43,14.04-3.17,20.41.97,2.75,2.31,5.43,4.36,7.51,2.05,2.07,4.9,3.48,7.82,3.32,2.61-.15,5.05-1.55,6.84-3.47,1.79-1.91,2.99-4.3,3.91-6.75,2.85-7.57,3.19-16.06.94-23.83"/>
      <g>
        <path class="cls-19" d="m315.79,273.92c.06-.88-.56-1.69-1.3-2.17-.39-.25-.83-.44-1.29-.43-.77.01-1.45.58-1.76,1.29-.31.71-.28,1.52-.11,2.27.41,1.79,1.74,3.41,3.52,3.88.71.19,1.54.17,2.1-.3"/>
        <path class="cls-10" d="m313.06,272.88c-.92.63-1.16,2.06-.5,2.96.2.27.63.49.84.22.13-.17.06-.41.02-.62-.08-.44.04-.91.31-1.27.16-.22.39-.41.46-.67.07-.26-.11-1.1-1.12-.63"/>
      </g>
    </g>
    <g>
      <path class="cls-3" d="m272.38,365.16s-12.17,3.35-14.39,5.3c-2.22,1.95-10.92,5.86-14.22,1.74-3.3-4.12-2.89-7.46-1.16-9.69,1.73-2.23,3.49-4.42,4.02-3.71.53.71.59,2.7.07,3.92-.52,1.22-1.03,2.63.12,3.6,1.15.97,4.58-.27,4.38-1.33-.2-1.06-4.01-3.77-4.07-6-.06-2.23,1.46-.46,2.51.21,1.05.67,5.35,1.51,7.02,3.53,0,0,9.62-2.76,11.05-4.3"/>
      <path class="cls-3" d="m387.12,364.73s12.17,3.35,14.39,5.3c2.22,1.95,10.92,5.86,14.22,1.74,3.3-4.12,2.89-7.46,1.16-9.69-1.73-2.23-3.49-4.42-4.02-3.71-.53.71-.59,2.7-.07,3.92.52,1.22,1.03,2.63-.12,3.6-1.15.97-4.58-.27-4.38-1.33.2-1.06,4.01-3.77,4.07-6,.06-2.23-1.46-.46-2.51.21-1.05.67-5.35,1.51-7.02,3.53,0,0-9.62-2.76-11.05-4.3"/>
      <g>
        <g>
          <path class="cls-5" d="m379.71,344.94c-3.77-2.77-6.65-6.58-8.29-10.97-2.96-7.93-7.84-20.56-10.19-24.32-3.12-5-6.17-6.95-6.81-7.32,0-.04,0-.06,0-.06l-11.66-2.23c-14.12,15.32-25.31-1.03-25.31-1.03l-12.23,3.68s-3.43,1.77-6.94,7.39c-2.35,3.77-7.23,16.39-10.19,24.32-1.64,4.39-4.52,8.19-8.29,10.97l-21.77,16.01,3.55,8.75s29.05-3.75,40.29-15.77c2.76-2.96,4.37-7.59,5.22-12.88,0,.15,0,.32.01.47.31,13.82,4.54,17.18,4.54,17.18,16.72,7.5,27.84,1.08,35.91-.23,3.07-.5,5.22-5.11,6.6-10.99.88,2.38,2.02,4.44,3.49,6.02,11.24,12.02,40.29,15.77,40.29,15.77l3.55-8.75-21.77-16.01Z"/>
          <g>
            <path class="cls-9" d="m353.88,348.48c-5.49,5.99-15.42,7.54-22.75,4.5-4.76-1.97-9.41-1.35-14.22-2.87-3.71-1.17-7.04-3.69-9.64-6.59-.03.04-.07.07-.1.1.61,12.38,4.46,15.5,4.46,15.5,16.72,7.5,27.84,1.08,35.91-.23,3.01-.49,5.13-4.92,6.5-10.62-.06.07-.11.14-.17.21Z"/>
            <path class="cls-9" d="m379.37,360.24c-8.65-3.31-16.49-7.59-24.18-12.73-.15-.1-.28-.2-.41-.3-.16.3-.34.59-.57.87.87,2.3,1.98,4.31,3.42,5.84,11.24,12.02,40.29,15.77,40.29,15.77l1.71-4.2c-7.05.85-13.45-2.65-20.26-5.25Z"/>
            <path class="cls-9" d="m298.21,350.58c-4.49,3.36-8.04,6.96-13.07,9.67-5.14,2.77-10.66,4.98-16.07,7.13-3.55,1.41-6.08,1.15-8.67-.15l1.17,2.89s29.05-3.75,40.29-15.77c2.26-2.42,3.73-5.96,4.66-10.06-2.4,2.44-5.48,4.17-8.32,6.29Z"/>
          </g>
        </g>
        <g>
          <g>
            <path class="cls-20" d="m329.87,306.34c0,2.05-.57,5.52-1.99,7.01-1.44,1.51-4.33,2.32-6.24,1.49-1.91-.84-3.14-1.92-4.25-3.68-2.27-3.59-3.47-7.07-3.45-11.32l4.05-1.32s6.27,7.55,11.88,7.83"/>
            <path class="cls-20" d="m329.87,306.34c.07,2.05.78,5.5,2.25,6.93,1.5,1.45,4.42,2.16,6.29,1.25,1.88-.91,3.06-2.04,4.11-3.84,2.13-3.67,3.2-7.2,3.02-11.44l-4.09-1.17s-5.98,7.78-11.58,8.28"/>
          </g>
          <g class="cls-26">
            <path class="cls-20" d="m329.79,313.39c1.72,12.01.35,24.15.11,36.2-.07,3.37-.04,6.75.16,10.12.03.57.92.57.89,0-.71-12.14.88-24.25.54-36.39-.09-3.4-.35-6.8-.84-10.17-.08-.56-.94-.32-.85.24h0Z"/>
          </g>
          <path class="cls-20" d="m306.92,313.59c1.14,0,1.14-1.77,0-1.77s-1.14,1.77,0,1.77h0Z"/>
          <path class="cls-20" d="m300.03,325.92c1.14,0,1.14-1.77,0-1.77s-1.14,1.77,0,1.77h0Z"/>
          <path class="cls-20" d="m314.44,334.24c1.14,0,1.14-1.77,0-1.77s-1.14,1.77,0,1.77h0Z"/>
          <path class="cls-20" d="m322.6,321.6c1.14,0,1.14-1.77,0-1.77s-1.14,1.77,0,1.77h0Z"/>
          <path class="cls-20" d="m293.79,337.92c1.14,0,1.14-1.77,0-1.77s-1.14,1.77,0,1.77h0Z"/>
          <path class="cls-20" d="m317.16,347.04c1.14,0,1.14-1.77,0-1.77s-1.14,1.77,0,1.77h0Z"/>
          <path class="cls-20" d="m314.12,357.6c1.14,0,1.14-1.77,0-1.77s-1.14,1.77,0,1.77h0Z"/>
          <path class="cls-20" d="m326.76,358.57c1.14,0,1.14-1.77,0-1.77s-1.14,1.77,0,1.77h0Z"/>
          <path class="cls-20" d="m326.28,337.28c1.14,0,1.14-1.77,0-1.77s-1.14,1.77,0,1.77h0Z"/>
          <path class="cls-20" d="m339.4,322.08c1.14,0,1.14-1.77,0-1.77s-1.14,1.77,0,1.77h0Z"/>
          <path class="cls-20" d="m336.52,337.6c1.14,0,1.14-1.77,0-1.77s-1.14,1.77,0,1.77h0Z"/>
          <path class="cls-20" d="m346.77,342.08c1.14,0,1.14-1.77,0-1.77s-1.14,1.77,0,1.77h0Z"/>
          <path class="cls-20" d="m338.6,353.76c1.14,0,1.14-1.77,0-1.77s-1.14,1.77,0,1.77h0Z"/>
          <path class="cls-20" d="m350.61,325.28c1.14,0,1.14-1.77,0-1.77s-1.14,1.77,0,1.77h0Z"/>
          <path class="cls-20" d="m355.41,311.67c1.14,0,1.14-1.77,0-1.77s-1.14,1.77,0,1.77h0Z"/>
          <path class="cls-20" d="m363.41,330.24c1.14,0,1.14-1.77,0-1.77s-1.14,1.77,0,1.77h0Z"/>
          <path class="cls-20" d="m354.61,340.96c1.14,0,1.14-1.77,0-1.77s-1.14,1.77,0,1.77h0Z"/>
          <path class="cls-20" d="m364.69,354.4c1.14,0,1.14-1.77,0-1.77s-1.14,1.77,0,1.77h0Z"/>
          <path class="cls-20" d="m372.05,344.16c1.14,0,1.14-1.77,0-1.77s-1.14,1.77,0,1.77h0Z"/>
          <path class="cls-20" d="m382.13,355.52c1.14,0,1.14-1.77,0-1.77s-1.14,1.77,0,1.77h0Z"/>
          <path class="cls-20" d="m374.61,361.93c1.14,0,1.14-1.77,0-1.77s-1.14,1.77,0,1.77h0Z"/>
          <path class="cls-20" d="m391.1,364.81c1.14,0,1.14-1.77,0-1.77s-1.14,1.77,0,1.77h0Z"/>
          <path class="cls-20" d="m302.28,344.8c1.14,0,1.14-1.77,0-1.77s-1.14,1.77,0,1.77h0Z"/>
          <path class="cls-20" d="m292.83,357.76c1.14,0,1.14-1.77,0-1.77s-1.14,1.77,0,1.77h0Z"/>
          <path class="cls-20" d="m289.63,347.84c1.14,0,1.14-1.77,0-1.77s-1.14,1.77,0,1.77h0Z"/>
          <path class="cls-20" d="m277.47,350.72c1.14,0,1.14-1.77,0-1.77s-1.14,1.77,0,1.77h0Z"/>
          <path class="cls-20" d="m278.91,360.49c1.14,0,1.14-1.77,0-1.77s-1.14,1.77,0,1.77h0Z"/>
          <path class="cls-20" d="m266.91,358.73c1.14,0,1.14-1.77,0-1.77s-1.14,1.77,0,1.77h0Z"/>
          <path class="cls-20" d="m263.55,366.73c1.14,0,1.14-1.77,0-1.77s-1.14,1.77,0,1.77h0Z"/>
        </g>
      </g>
    </g>
    <path class="cls-8" d="m315.4,253.17c.86,3.09,2.88,5.84,5.58,7.57,5.23,3.37,12.64,2.96,16.85,7.54,1.92,2.08,2.85,5.04,2.46,7.84-.73,5.22-5.57,8.99-7,14.06-.66,2.34-.56,4.85-.1,7.24.56,2.9,1.66,5.75,3.61,7.97,3.21,3.64,8.76,5.08,13.28,3.3s7.61-6.76,7.04-11.58c-.24-2.02-1.05-3.95-1.24-5.97-.3-3.24.99-6.38,2.05-9.46,1.06-3.08,1.88-6.5.69-9.52-1.17-2.95-4.02-4.9-5.58-7.66-2.12-3.73-1.65-8.48-3.64-12.28-1.51-2.89-4.29-4.91-7.21-6.37-6.79-3.4-15.25-4.15-21.91-.49-2.62,1.44-5.04,3.81-5.3,6.8"/>
  </g>
  <g>
    <path class="cls-19" d="m179.99,101.76s1.27,1.95,3.16,4.86c.12-.1.23-.2.35-.31,1.96-1.71,3.72-3.61,5.49-5.52-.48-.48-.91-.89-1.28-1.21-5.09-4.37-8.56-13.56-9.88-19.96-1.32-6.4-3.15-3.24-3.15-3.24,0,0,.86,15.84.59,19.55-.27,3.71,4.71,5.81,4.71,5.81Z"/>
    <path class="cls-19" d="m170.87,101.76s-1.27,1.95-3.16,4.86c-.12-.1-.23-.2-.35-.31-1.96-1.71-3.72-3.61-5.49-5.52.48-.48.91-.89,1.28-1.21,5.09-4.37,8.56-13.56,9.88-19.96,1.32-6.4,3.15-3.24,3.15-3.24,0,0-.86,15.84-.59,19.55.27,3.71-4.71,5.81-4.71,5.81Z"/>
    <g>
      <g>
        <path class="cls-19" d="m167.85,150.69c.81,2.41,2.03,6.95.73,9.14-1.3,2.19-2.26,3.84-9.15,5.03,1.25,3.52,5.94,13.98,9.46,15.23,3.52,1.25,9.23,1.06,12.34-1.02,1.85-1.24,5.35-12.19,6.87-13.82-3.59-.55-7.03-2.26-8.04-4.73s-.92-5.36.25-7.75"/>
        <g class="cls-27">
          <path class="cls-12" d="m162.16,164.4c6.03-.22,15.98-1.48,17.28-8.94.25-1.42.48-2.47,1.3-3.15l-12.9-1.62c.81,2.41,2.03,6.95.73,9.14-1.3,2.19-2.26,3.84-9.15,5.03.03.07.06.16.09.24.79-.42,1.68-.67,2.64-.7Z"/>
        </g>
      </g>
      <g>
        <path class="cls-19" d="m190.79,139.04c-.16-.76-.52-1.54-1.21-1.9-.78-.41-1.69-.15-2.46.34,0-4.06-.83-8.15-2.15-11.98l-23.06.96c-.29,2.48-1.07,8.2-.96,10.68-.6-.23-1.23-.29-1.79,0-.69.36-1.05,1.14-1.21,1.9-.37,1.76.11,3.68,1.26,5.08.86,1.06,2.09,1.81,3.41,2.14,1.03,2.91,2.49,5.19,5.44,7.87.83.75,1.87,1.2,2.87,1.67,1.35.64,2.8,1.21,4.27,1.06,1.04-.1,2.02-.56,2.92-1.1,3.43-2.06,5.96-5.5,7.44-9.39,1.53-.25,2.98-1.05,3.96-2.25,1.14-1.4,1.63-3.32,1.26-5.08Z"/>
        <g>
          <g>
            <path class="cls-22" d="m172.01,133.44c-4.86-1.45-7.23-.47-9.56,1.1,2.17-.09,3.12-.31,5.26-.03.5.06,1.8.11,2.31.16.51.06,1.49.12,1.93-.1.44-.23.71-.75.06-1.12"/>
            <path class="cls-11" d="m174.86,137.4c-.22,1.9.2,3.9,1.37,5.43.14.18.28.37.44.53.12.12.06.02.01.06-.08.06-.17.11-.26.16-.31.16-.67.24-1.01.27-.3.03-.61.03-.91.02-.17,0-.35-.04-.52,0-.56.11-.33.98.24.86-.21.04.01.02.08.02.13,0,.27.01.4.02.37,0,.74-.02,1.11-.08.7-.12,2.14-.59,1.75-1.55-.19-.47-.64-.83-.91-1.25-.27-.43-.48-.88-.63-1.36-.32-1.01-.39-2.07-.27-3.12.07-.57-.83-.57-.9,0h0Z"/>
            <g class="cls-27">
              <path class="cls-21" d="m171.61,148.31c.76.91,1.97,1.43,3.15,1.36,1.18-.07,2.32-.72,2.98-1.71"/>
            </g>
            <path class="cls-11" d="m169.88,138.43c-.5.64-1.47.64-2.2.54-.86-.12-1.71-.47-2.38-1.03-.19-.15-.45-.18-.63,0-.16.16-.19.48,0,.63.86.72,1.9,1.16,3.01,1.3.96.12,2.19.02,2.83-.8.15-.19.19-.45,0-.63-.16-.16-.48-.19-.63,0h0Z"/>
            <path class="cls-11" d="m184.06,137.92c-.59.43-1.27.72-1.99.87-.77.16-1.85.24-2.43-.41-.39-.43-1.02.21-.63.63.77.86,2.08.85,3.12.67.98-.17,1.89-.6,2.67-1.22-.27-.16-.51-.35-.73-.55Z"/>
            <path class="cls-1" d="m169.38,143.9c0,1.17-1.39,2.12-3.11,2.12s-3.11-.95-3.11-2.12,1.39-2.12,3.11-2.12,3.11.95,3.11,2.12Z"/>
            <path class="cls-1" d="m185.53,144.11c0,1.17-1.39,2.12-3.11,2.12s-3.11-.95-3.11-2.12,1.39-2.12,3.11-2.12,3.11.95,3.11,2.12Z"/>
          </g>
          <path class="cls-11" d="m186.37,143.5c-.35-.09-.42-1-.15-2.03.27-1.03.77-1.79,1.13-1.7.35.09.42,1,.15,2.03-.27,1.03-.77,1.79-1.13,1.7Z"/>
          <path class="cls-11" d="m162.25,143.88c-.36.07-.82-.72-1.03-1.76-.21-1.05-.09-1.95.27-2.02.36-.07.82.72,1.03,1.76.21,1.05.09,1.95-.27,2.02Z"/>
        </g>
        <path class="cls-8" d="m192.24,131.04c.05-3.53-1.27-5.69-2.7-7-1.85-1.69-3.36-3.67-4.58-5.86-1.19-2.13-3.65-4.54-8.73-5.65-7.93-1.74-11.03,2.34-12,4.2-.27.52-.77.89-1.35,1.02-7.62,1.71-5.2,14.45-5.2,14.45,0,0,1.32,5.44,3.39,7.47,2.55-2.43,4.78-7.61,4.37-11.45.94.22,1.88.67,2.72,1.12,1.62.86,3.25,1.72,4.7,2.85,1.52,1.19,2.82,2.66,4.46,3.68,1.74,1.08,3.78,1.59,5.82,1.79,0,0,.15.02.4.03.16.01.32.03.49.03.48.91,1.12,1.75,1.83,2.22.65-.82,1.31-1.78,1.89-2.78,2.22-.73,4.42-2.39,4.47-6.13Z"/>
      </g>
    </g>
    <g>
      <path class="cls-19" d="m172.13,391.96c-.56,4.07-.29,6.11-2.6,11.7-.38.91-.9,2.86.23,4.19.51.59,1.31,1.22,2.81,1.43,6.09.85,12.57.06,18.51,1.77,3.09.89,6.36,1.07,9.45.27.89-.23.95-1.5.08-1.82-1.32-.48-2.9-.39-4.39-.85-4.37-1.34-8.82-2.99-12.22-6.25s-5.5-8.55-4.06-13.21"/>
      <path class="cls-19" d="m159.16,272.32c2.01.29,3.67-1.51,5.2-2.95,1.53-1.44,3.92-2.61,5.45-1.17.58.54.88,1.35,1.06,2.15.58,2.59.12,5.3,0,7.96-.38,7.79,2.13,15.54,1.4,23.3-3.32-4.06-3.73-10.05-6.47-14.59-1.78-2.97-4.46-5.15-7.07-7.28"/>
      <g>
        <path class="cls-7" d="m200.23,249.24h0c-.46-2.23-.26-4.92-1.24-9.08-.84-3.56-.83-9.47-2.69-12.1-.75-1.06-4.09,1.68-5.29,2.01-10.56,2.9-21.78,2.92-32.35.07-1.25-.34-5.06-3.03-5.54-1.73,0,0-4.06,7.18-9.06,9.68-4.79,2.4-41.12,19.36-46.29,35.68-.03.09-.08.18-.11.27-.18.52-.29,1.05-.35,1.59-.01.08-.04.17-.05.25h.03c-.27,3.38,1.65,6.9,4.36,8.82,3.7,2.62,8.46,2.84,12.79,2.72,3.19-.09,6.37-.39,9.53-.82,8.05-1.12,16.1-2.23,24.16-3.35,4.35-.6,5.3-.93,9.69-.86.74.01,2.63-.06,3.07-.33.7-.43.6-.8.6-1.67,0-2.74.42-4.96.42-7.7,0-.34.13-1.7-.05-1.97-.18-.27-1-.35-1.3-.39-2.22-.31-8.65-.31-10.38-.63,1.66-.16,3.28.76,11.08-2.28,2.42-.94,4.81-2.24,7.04-3.68l.8,130.01c.65.4,1.31.72,1.96.99.14.33.45.56.83.57.26,0,.52,0,.78,0,6.52,1.85,12.51-1.56,12.51-1.56,9.43-24.82,7.66-62.94,11.67-90.29.28-1.27.53-2.54.75-3.83.29-1.71.56-3.32.82-4.87,0,0,0-.01,0-.02,3.3-31.26,1.84-45.48,1.84-45.48Z"/>
        <path class="cls-23" d="m161.67,276.78c-1.01.48-2.2.7-3.52.51-9.83-1.39-19.69-.84-29.31,1.58-9.12,2.3-17.71,5.32-27.13,5.85,3.69,2.59,8.43,2.81,12.74,2.69,3.19-.09,6.37-.39,9.53-.82,8.05-1.12,16.1-2.23,24.16-3.35,4.35-.6,5.3-.93,9.69-.86.74.01,2.63-.06,3.07-.33.7-.43.6-.8.6-1.67,0-1.28.09-2.44.19-3.6Z"/>
        <path class="cls-23" d="m200.23,249.24h0c-.43-2.08-.3-4.58-1.07-8.28-13.25,8.79-29.09,8.73-44.68,11.91-9.89,2.02-19.88,4.63-28.89,9.3-4.84,2.51-10.67,5.77-15.38,9.73,7.22-1.58,14.21-4.16,21.56-5.49,9.88-1.78,19.54-1.68,29.45-.27.67.1,1.25.28,1.76.52,1.19-.55,2.37-1.17,3.52-1.84-.36-5.94,9.32-8.01,11.47-1.51,7.91,23.84,7.01,47.64,6.27,72.36-.27,8.93-1.52,17.83-1.6,26.75-.02,2.86-.04,5.95.84,8.71.16.5.36,1.52.77,2.09.04-.2.78-.27,1.38-.47,1.9-.65,3.51-.31,4.71.57,3.72-22.54,3.46-49.26,6.49-69.87.28-1.27.53-2.54.75-3.83.29-1.71.56-3.32.82-4.87,0,0,0-.01,0-.02,3.3-31.26,1.84-45.48,1.84-45.48Z"/>
        <path class="cls-23" d="m114.74,255.01c8.32-5.24,17.81-8.67,27.29-11.15,9.19-2.41,18.48-3.63,27.86-4.98,9.48-1.36,18.78-3.4,26.09-9.99.18-.17.37-.31.56-.45-.08-.13-.15-.27-.24-.39-.75-1.06-4.09,1.68-5.29,2.01-10.56,2.9-21.78,2.92-32.35.07-1.25-.34-5.06-3.03-5.54-1.73,0,0-4.06,7.18-9.06,9.68-2.91,1.45-17.45,8.29-29.58,17.08.09-.06.18-.11.26-.17Z"/>
      </g>
    </g>
    <g>
      <g>
        <path class="cls-5" d="m184.22,95.31l-5.68,7.91,29.84,29.1s-18.71,26.7-22.85,30.73h0l-5.1-1.83c-6.23,6.52-13.01.32-13.01.32l-3.68,1.17c-4.7-4.96-22.53-30.4-22.53-30.4l29.84-29.1-5.68-7.91s-44.96,27.27-43.71,32.37c1.25,5.1,2.53,14.77,21.86,41.93,4.8,6.74,6.11,24.83,6.11,24.83h0c1.41,12.09,1.37,35.61,1.37,35.61,16.07,9.31,45.98-.37,45.98-.37,0,0,1.77-21.56,2.35-33.91,0,0-.38-15.66,6.72-26.16,18.66-27.62,20.61-36.83,21.86-41.93,1.25-5.1-43.71-32.37-43.71-32.37Z"/>
        <path class="cls-9" d="m201.17,181.08c-1.19,1.83-2.31,3.68-2.94,5.77-1.17,3.88-1.85,8.02-2.64,11.99-1.43,7.23-1.84,15.68-6.32,21.83-8.81,12.08-25.34,10.07-38.22,8.33-.02,0-.03,0-.05,0,0,.68,0,1.06,0,1.06,16.07,9.31,45.98-.37,45.98-.37,0,0,1.77-21.56,2.35-33.91,0,0-.16-6.95,1.82-14.69Z"/>
        <path class="cls-9" d="m149.11,120.82c-3.6,2.8-13.29,6.42-13.28,11.44,0,5.98,7.41,12.04,11.27,15.84,4.54,4.47,8.75,9.95,14.75,12.46.03.01.05.03.08.04-6.33-7.77-20.71-28.28-20.71-28.28l26.69-26.02c-6.7,4.28-12.53,9.65-18.8,14.52Z"/>
        <path class="cls-9" d="m206.73,144.28c5.28-4.15,12.52-8.84,9.59-16.73-2.33-6.26-9.68-10.13-15.47-12.48-7.73-3.14-15.21-5.42-21.11-11.66-.27-.29-.5-.58-.7-.89l-.51.7,29.84,29.1s-12.66,18.06-19.45,26.71c3.43-1.58,6.76-3.29,9.43-6.02,2.89-2.95,5.09-6.14,8.37-8.73Z"/>
      </g>
      <g>
        <g>
          <path class="cls-20" d="m173.73,164.38s-2.27,1.22-2.03,3.42c.24,2.21,2.89,2.1,2.89,2.1,0,0,2.67-.33,2.6-2.32-.06-1.99-1.79-3.76-3.46-3.2Z"/>
          <path class="cls-20" d="m173.01,169.59s-2.84,7.99-3.94,24.09c-1.08,15.74-1.16,17.39-1.16,17.39l5.27,5.88,5.25-5.38s.54-32.55-3.15-42.66l-2.27.67Z"/>
        </g>
        <path class="cls-23" d="m173.65,174.05c.53,0,.53-.82,0-.82s-.53.82,0,.82h0Z"/>
        <path class="cls-23" d="m176.21,178.95c.53,0,.53-.82,0-.82s-.53.82,0,.82h0Z"/>
        <path class="cls-23" d="m171.98,182.63c.53,0,.53-.82,0-.82s-.53.82,0,.82h0Z"/>
        <path class="cls-23" d="m175.43,189.65c.53,0,.53-.82,0-.82s-.53.82,0,.82h0Z"/>
        <path class="cls-23" d="m170.64,194.11c.53,0,.53-.82,0-.82s-.53.82,0,.82h0Z"/>
        <path class="cls-23" d="m176.55,198.45c.53,0,.53-.82,0-.82s-.53.82,0,.82h0Z"/>
        <path class="cls-23" d="m170.08,201.91c.53,0,.53-.82,0-.82s-.53.82,0,.82h0Z"/>
        <path class="cls-23" d="m174.09,205.25c.53,0,.53-.82,0-.82s-.53.82,0,.82h0Z"/>
        <path class="cls-23" d="m170.08,210.04c.53,0,.53-.82,0-.82s-.53.82,0,.82h0Z"/>
        <path class="cls-23" d="m176.66,210.04c.53,0,.53-.82,0-.82s-.53.82,0,.82h0Z"/>
        <path class="cls-23" d="m173.87,213.94c.53,0,.53-.82,0-.82s-.53.82,0,.82h0Z"/>
        <path class="cls-23" d="m174.97,167.25c.53,0,.53-.82,0-.82s-.53.82,0,.82h0Z"/>
      </g>
      <g>
        <polygon class="cls-9" points="174.8 164.17 178.89 171.37 185.53 163.05 180.06 160.52 174.8 164.17"/>
        <polygon class="cls-9" points="173.88 164.2 169.68 171.2 163.75 162.72 168.26 160.36 173.88 164.2"/>
      </g>
    </g>
  </g>
</svg>