<svg xmlns="http://www.w3.org/2000/svg" xmlns:xlink="http://www.w3.org/1999/xlink" width="1174" height="489" fill="none" xmlns:v="https://vecta.io/nano"><g opacity=".04" fill="#1373e5"><path d="M726.24 307.27l60.108 34.741v69.463l-60.108 34.742-60.107-34.742v-69.463l60.107-34.741zm58.069 35.927l-58.069-33.556-58.069 33.556v67.092l58.069 33.556 58.069-33.556v-67.092z"/><path d="M608.064 307.27l60.107 34.741v69.463l-60.107 34.742-60.108-34.742v-69.463l60.108-34.741zm58.068 35.927l-58.068-33.556-58.069 33.556v67.092l58.069 33.556 58.068-33.556v-67.092z"/><path d="M489.888 307.27l60.107 34.741v69.463l-60.107 34.742-60.108-34.742v-69.463l60.108-34.741zm58.069 35.927l-58.069-33.556-58.069 33.556v67.092l58.069 33.556 58.069-33.556v-67.092zm473.713-138.344l60.11 34.741v69.464l-60.11 34.741-60.105-34.741v-69.464l60.105-34.741zm58.07 35.927l-58.07-33.556-58.067 33.556v67.092l58.067 33.556 58.07-33.556V240.78z"/><path d="M903.495 204.853l60.108 34.741v69.464l-60.108 34.741-60.107-34.741v-69.464l60.107-34.741zm58.05 35.927l-58.05-33.556-58.069 33.556v67.092l58.069 33.556 58.05-33.556V240.78z"/><path d="M785.338 204.853l60.107 34.741v69.464l-60.107 34.741-60.108-34.741v-69.464l60.108-34.741zm58.069 35.927l-58.069-33.556-58.069 33.556v67.092l58.069 33.556 58.069-33.556V240.78z"/><use xlink:href="#B"/><use xlink:href="#B" x="-118.177"/><path d="M1021.16 138.363v-.289l-.25-.144-58.066-33.556-.25-.145-.25.145-58.05 33.556-.25.144v.289 67.092.289l.25.144 58.05 33.556.25.145.25-.145 58.066-33.556.25-.144v-.289-67.092zm-118.174-.897l59.608-34.452 59.606 34.452v68.886l-59.606 34.452-59.608-34.452v-68.886z" stroke="#000"/><path d="M844.417 102.436l60.107 34.742v69.463l-60.107 34.741-60.107-34.741v-69.463l60.107-34.742zm58.069 35.927l-58.069-33.556-58.069 33.556v67.092l58.069 33.557 58.069-33.557v-67.092zm-294.422-35.927l60.107 34.742v69.463l-60.107 34.741-60.108-34.741v-69.463l60.108-34.742zm58.068 35.927l-58.068-33.556-58.069 33.556v67.092l58.069 33.557 58.068-33.557v-67.092z"/><path d="M903.495 0l60.108 34.741v69.463l-60.108 34.742-60.107-34.742V34.741L903.495 0zm58.05 35.927L903.495 2.37l-58.069 33.556v67.093l58.069 33.556 58.05-33.556V35.927z"/></g><path d="M1051.63 436.831v-93.44l-82.048-47.41v-94.82l-82.046-47.409v-94.82l-83.482-48.226-83.483 48.226v94.82l-82.046 47.409v94.82l-82.046 47.41v93.848H0v2.759h556.693l83.23 48.09 82.046-47.41 82.046 47.41 82.046-47.41 82.046 47.41 83.483-48.226v-.272h122.06v-2.759h-122.06.04zM723.406 60.564l80.628-46.594 80.629 46.594v93.188l-24.734 14.3-55.895 32.293-60.398-34.896-20.23-11.678V60.584v-.019zm-2.854 377.646l-80.629 46.594-80.628-46.594v-93.187l80.628-46.594 45.702 26.406 34.927 20.188v93.187zm-38.887-118.952l-40.325-23.296v-93.188l80.629-46.594 45.896 26.523 34.733 20.071v93.188l-34.733 20.071-45.896 26.522-40.324-23.297h.02zM884.663 438.21l-80.629 46.594-80.628-46.594v-93.187l20.23-11.678 60.398-34.896 55.895 32.293 24.734 14.3v93.188-.02zm-38.887-118.952l-40.324-23.296v-93.188l40.324-23.297L886.1 156.18l80.628 46.594v93.188l-40.324 23.296-40.324 23.297-40.324-23.297h.02zM1048.77 438.21l-80.624 46.594-80.629-46.594v-93.187l34.927-20.188 45.702-26.406 80.624 46.594v93.187z" fill="#1373e5" fill-opacity=".15"/><g fill="#6d92f0"><path d="M771.942 126.666l-1.398 5.674 5.669-1.38 1.631-5.441-5.902 1.147zm48.148-23.103l-4.834-4.838-5.048 1.01 7.689 7.695c-1.224 1.904-2.583 3.614-4.097 5.168l-10.911-10.919-4.407 1.651 12.115 12.125c-.893.66-1.806 1.282-2.796 1.845l-3.087 1.535-12.231-12.241c-1.029.758-2.039 1.594-2.951 2.507a3.98 3.98 0 0 0-.272.311l11.105 11.114c-2.33.797-4.737 1.477-7.203 2.06l-7.94-7.947a41.74 41.74 0 0 0-2.155 3.905l5.086 5.091-7.765 1.399-1.689 5.382c11.571-2.273 23.646-3.459 33.373-8.86 8.698-4.858 13.513-14.32 16.755-25.357l-6.096 1.166a63.53 63.53 0 0 1-2.641 6.179v.019zm-63.272 27.96l4.272 4.275c.621-.311 1.281-.563 1.922-.835l3.863 3.866 1.029-5.032-.505-.505c.214-.078.447-.136.66-.195.428-1.982.893-3.925 1.398-5.829-4.407 1.049-8.678 2.351-12.639 4.275v-.02zm66.786-36.587l5.941-1.166c.505-1.846.952-3.75 1.398-5.654-1.864.525-3.766.972-5.688 1.38-.505 1.865-1.049 3.672-1.651 5.441zm2.272-7.908c1.903-.427 3.766-.894 5.611-1.438.039-.155.077-.311.097-.466l.33.33c1.534-.466 3.048-.972 4.504-1.554l-3.825-3.828.525-2.701-4.272-4.275c-.893 4.702-1.844 9.385-2.97 13.932z"/><path d="M783.649 103.233c-8.989 8.996-12.406 24.521-15.298 39.832l4.271 4.275c2.893-15.311 6.29-30.836 15.298-39.832 1.709-1.71 3.612-3.168 5.747-4.372 14.911-8.297 35.335-6.645 50.983-14.223l-4.271-4.275c-15.649 7.578-36.073 5.926-50.983 14.223-2.136 1.185-4.038 2.662-5.747 4.372zm121.574 129.172c-11.804 0-21.434 9.23-22.133 20.888h44.285c-.699-11.639-10.329-20.888-22.133-20.888h-.019zm-22.152 23.375c.602 11.736 10.27 21.082 22.152 21.082s21.55-9.346 22.152-21.082h-44.304zm-18.735-39.521c-7.844 0-14.251 6.412-14.251 14.242v43.096c0 3.925 1.631 7.481 4.213 10.065s6.135 4.197 10.057 4.197c7.824 0 14.231-6.412 14.231-14.242V230.52c0-7.83-6.407-14.242-14.231-14.242l-.019-.019zm11.182 36.587h-22.385v-21.859c0-6.16 5.029-11.192 11.203-11.192s11.182 5.032 11.182 11.192v21.859zm-235.963 97.987s-24.366 40.842-24.366 54.307 10.911 24.385 24.366 24.385 24.365-10.92 24.365-24.385-24.365-54.307-24.365-54.307zm0 73.582c-10.62 0-19.26-8.646-19.26-19.275 0-7.461 10.484-28.543 19.26-44.087 8.756 15.564 19.259 36.626 19.259 44.087 0 10.629-8.639 19.275-19.259 19.275zm-2.524-7.636a14.91 14.91 0 0 1-7.785-13.096c0-1.03-.835-1.865-1.864-1.865s-1.863.835-1.863 1.865c0 6.82 3.727 13.115 9.746 16.38.291.155.582.213.893.213.66 0 1.281-.369 1.631-.971.485-.894.155-2.04-.758-2.526zm121.826-195.06s-2.737 2.642-11.183 2.642c-1.864 0-4.019-.136-6.484-.447-14.173-1.826-20.23-8.102-20.23-8.102s-6.058 6.276-20.23 8.102c-2.466.311-4.621.447-6.485.447-8.426 0-11.182-2.642-11.182-2.642s-8.193 48.672 37.897 75.408c46.09-26.736 37.897-75.408 37.897-75.408zm-37.897 70.259c-16.638-10.337-27.355-24.87-31.84-43.271-2.058-8.394-2.291-15.835-2.136-20.635 1.942.428 4.33.7 7.261.7 2.194 0 4.563-.156 7.048-.486 9.785-1.263 16.192-4.547 19.667-6.898 3.475 2.332 9.882 5.635 19.647 6.898 2.485.33 4.873.486 7.067.486 2.932 0 5.339-.292 7.261-.7.408 12.727-2.155 44.107-33.975 63.887v.019zm5.338-53.433h-10.523v10.59h-10.561v10.511h10.561v10.57h10.523v-10.57h10.562v-10.511h-10.562v-10.59zM846.65 387.226c-.661-12.591-11.047-22.093-24.152-22.093-.388 0-.777 0-1.184.02-8.174.33-14.328 5.654-17.415 8.996-3.029-3.381-9.125-8.802-17.299-9.249-.543-.039-1.067-.039-1.592-.039-12.871 0-23.2 9.346-24.054 21.723-.796 11.678 7.164 21.821 13.202 28.446 7.824 8.569 19.977 17.798 27.937 22.481l1.301.777 1.32-.758c8.038-4.566 20.308-13.62 28.268-22.072 6.135-6.529 14.231-16.574 13.609-28.252l.059.02zm-17.454 24.657c-7.921 8.432-19.201 16.438-25.724 20.343-6.465-4.003-17.609-12.163-25.414-20.713-1.514-1.651-3.145-3.555-4.718-5.634h16.561c.272 0 .524-.117.679-.331l.913-1.204 1.145 5.187c.078.35.408.583.816.603.407 0 .737-.253.815-.603l1.087-4.799 1.34 7.092c.058.35.408.622.815.622.389 0 .738-.253.816-.602l4.096-19.858 3.398 29.398c.039.369.388.661.815.661.408 0 .757-.272.816-.622l2.931-17.507 1.184 7.481c.059.35.369.622.777.641.388 0 .738-.194.835-.525l2.038-6.45.796 3.652c.078.331.389.583.758.603.368 0 .699-.175.834-.486l1.068-2.681.932 1.321c.136.194.388.33.68.33s.504-.097.679-.272l1.417-1.613h11.979c-1.708 2.235-3.494 4.256-5.145 6.004l-.019-.038zm6.232-7.481h-13.474c-.252 0-.485.097-.64.272l-.952 1.069-1.223-1.71a.86.86 0 0 0-.776-.331c-.33.02-.602.214-.699.486l-.622 1.574-.893-4.041c-.077-.331-.407-.583-.776-.603h-.02c-.369 0-.699.214-.796.544l-1.922 6.062-1.436-9.054c-.059-.369-.408-.641-.816-.641s-.757.272-.815.622l-2.796 16.729-3.3-28.698c-.039-.37-.389-.642-.796-.661-.428 0-.758.252-.835.602l-4.291 20.81-1.301-6.898c-.058-.349-.407-.621-.815-.621s-.738.252-.815.602l-1.146 5.071-.718-3.284c-.058-.31-.35-.544-.68-.582-.31-.039-.64.077-.815.31l-1.786 2.351h-17.182c-3.572-5.071-6.485-11.094-6.038-17.428.563-8.355 7.203-16.827 18.813-16.827.427 0 .854 0 1.3.039 9.067.505 15.318 9.54 15.377 9.637l2.135 3.187 2.194-3.148s6.388-9.035 15.512-9.404c12.212-.486 19.396 8.569 19.861 17.079.331 6.14-2.465 11.969-5.96 16.885h-.058zm175.212-3.75c0-5.207-4.21-9.424-9.41-9.424a9.42 9.42 0 0 0-9.419 9.424 9.4 9.4 0 0 0 7.339 9.171v15.836c0 11.463-9.319 20.771-20.754 20.771s-20.754-9.327-20.754-20.771v-6.451h9.144c5.067 0 9.358-3.789 9.979-8.841l5.242-42.28a10.13 10.13 0 0 0-2.446-7.908 10.07 10.07 0 0 0-7.533-3.401h-3.786a2.08 2.08 0 0 0-2.077 2.079 2.08 2.08 0 0 0 2.077 2.079h3.786c1.689 0 3.3.739 4.426 2.002s1.651 2.973 1.437 4.644l-5.242 42.28a5.93 5.93 0 0 1-5.863 5.188h-22.463a5.93 5.93 0 0 1-5.863-5.188l-5.242-42.28c-.213-1.691.311-3.381 1.437-4.644s2.737-2.002 4.426-2.002h5.359a2.08 2.08 0 0 0 2.077-2.079 2.08 2.08 0 0 0-2.077-2.079h-5.359a10.04 10.04 0 0 0-7.533 3.401 10.13 10.13 0 0 0-2.446 7.908l5.242 42.28c.621 5.032 4.912 8.841 9.979 8.841h9.145v6.451c0 13.737 11.182 24.929 24.908 24.929s24.914-11.192 24.914-24.929v-15.836c4.19-.952 7.33-4.702 7.33-9.171h.02z"/></g><defs ><path id="B" d="M667.162 204.853l60.108 34.741v69.464l-60.108 34.741-60.107-34.741v-69.464l60.107-34.741zm58.069 35.927l-58.069-33.556-58.069 33.556v67.092l58.069 33.556 58.069-33.556V240.78z"/></defs></svg>