<svg width="70" height="70" viewBox="0 0 70 70" fill="none" xmlns="http://www.w3.org/2000/svg">
<path d="M36.9906 51.2094C36.8464 51.5338 36.6254 51.8182 36.3467 52.0381C36.068 52.258 35.74 52.4067 35.3909 52.4715C35.0419 52.5363 34.6823 52.5152 34.3433 52.4099C34.0043 52.3047 33.6959 52.1186 33.4449 51.8675C33.1939 51.6165 33.0077 51.3082 32.9025 50.9691C32.7973 50.6301 32.7762 50.2705 32.8409 49.9215C32.9057 49.5725 33.0545 49.2445 33.2744 48.9658C33.4943 48.6871 33.7787 48.4661 34.1031 48.3219C33.9711 48.6023 33.9038 48.9088 33.9062 49.2187C33.9079 49.7984 34.139 50.3538 34.5488 50.7636C34.9587 51.1735 35.5141 51.4045 36.0937 51.4062C36.4036 51.4086 36.7101 51.3414 36.9906 51.2094V51.2094Z" fill="#48CAE4"/>
<path d="M51.4063 55.7813H30.625V49.2188H33.0138C32.8842 49.569 32.8161 49.9391 32.8125 50.3125C32.8125 51.1827 33.1582 52.0173 33.7736 52.6327C34.3889 53.248 35.2235 53.5938 36.0938 53.5938H60.1563C61.0265 53.5938 61.8611 53.248 62.4764 52.6327C63.0918 52.0173 63.4375 51.1827 63.4375 50.3125C63.4375 49.4423 63.0918 48.6077 62.4764 47.9923C61.8611 47.377 61.0265 47.0313 60.1563 47.0313H30.625V33.9063C30.6233 32.4564 30.0465 31.0664 29.0213 30.0412C27.9961 29.016 26.6061 28.4392 25.1563 28.4375H7.65625C6.20638 28.4392 4.81639 29.016 3.79118 30.0412C2.76596 31.0664 2.18924 32.4564 2.1875 33.9063V40.4688C2.1875 40.7588 2.30273 41.037 2.50785 41.2421C2.71297 41.4473 2.99117 41.5625 3.28125 41.5625C3.57133 41.5625 3.84953 41.4473 4.05465 41.2421C4.25977 41.037 4.375 40.7588 4.375 40.4688V33.9063C4.375 33.036 4.7207 32.2014 5.33606 31.5861C5.95141 30.9707 6.78601 30.625 7.65625 30.625H25.1563C26.0265 30.625 26.8611 30.9707 27.4764 31.5861C28.0918 32.2014 28.4375 33.036 28.4375 33.9063V62.3438C28.4375 63.214 28.0918 64.0486 27.4764 64.6639C26.8611 65.2793 26.0265 65.625 25.1563 65.625H7.65625C6.78601 65.625 5.95141 65.2793 5.33606 64.6639C4.7207 64.0486 4.375 63.214 4.375 62.3438V44.8438C4.375 44.5537 4.25977 44.2755 4.05465 44.0704C3.84953 43.8652 3.57133 43.75 3.28125 43.75C2.99117 43.75 2.71297 43.8652 2.50785 44.0704C2.30273 44.2755 2.1875 44.5537 2.1875 44.8438V62.3438C2.18924 63.7936 2.76596 65.1836 3.79118 66.2088C4.81639 67.234 6.20638 67.8108 7.65625 67.8125H25.1563C26.6061 67.8108 27.9961 67.234 29.0213 66.2088C30.0465 65.1836 30.6233 63.7936 30.625 62.3438V57.9688H51.4063C51.6963 57.9688 51.9745 57.8535 52.1797 57.6484C52.3848 57.4433 52.5 57.1651 52.5 56.875C52.5 56.5849 52.3848 56.3067 52.1797 56.1016C51.9745 55.8965 51.6963 55.7813 51.4063 55.7813ZM35 50.3125C35 50.0962 35.0641 49.8847 35.1843 49.7048C35.3045 49.525 35.4753 49.3848 35.6752 49.302C35.875 49.2192 36.095 49.1976 36.3071 49.2398C36.5193 49.282 36.7142 49.3861 36.8672 49.5391C37.0201 49.6921 37.1243 49.887 37.1665 50.0991C37.2087 50.3113 37.187 50.5312 37.1042 50.7311C37.0215 50.9309 36.8813 51.1017 36.7014 51.2219C36.5215 51.3421 36.3101 51.4063 36.0938 51.4063C35.8037 51.4063 35.5255 51.291 35.3204 51.0859C35.1152 50.8808 35 50.6026 35 50.3125ZM49.2188 50.3125C49.2188 50.5288 49.1546 50.7403 49.0344 50.9202C48.9142 51.1 48.7434 51.2402 48.5436 51.323C48.3437 51.4058 48.1238 51.4274 47.9116 51.3852C47.6995 51.343 47.5046 51.2389 47.3516 51.0859C47.1986 50.9329 47.0945 50.738 47.0523 50.5259C47.0101 50.3137 47.0317 50.0938 47.1145 49.8939C47.1973 49.6941 47.3375 49.5233 47.5173 49.4031C47.6972 49.2829 47.9087 49.2188 48.125 49.2188C48.4151 49.2188 48.6933 49.334 48.8984 49.5391C49.1035 49.7442 49.2188 50.0224 49.2188 50.3125ZM51.205 49.2188H57.0762C56.8079 49.9232 56.8079 50.7018 57.0762 51.4063H51.205C51.4734 50.7018 51.4734 49.9232 51.205 49.2188ZM45.045 51.4063H39.1738C39.4421 50.7018 39.4421 49.9232 39.1738 49.2188H45.045C44.7766 49.9232 44.7766 50.7018 45.045 51.4063ZM60.1563 51.4063C59.9399 51.4063 59.7285 51.3421 59.5486 51.2219C59.3687 51.1017 59.2285 50.9309 59.1458 50.7311C59.063 50.5312 59.0413 50.3113 59.0835 50.0991C59.1257 49.887 59.2299 49.6921 59.3829 49.5391C59.5358 49.3861 59.7307 49.282 59.9429 49.2398C60.155 49.1976 60.375 49.2192 60.5748 49.302C60.7747 49.3848 60.9455 49.525 61.0657 49.7048C61.1859 49.8847 61.25 50.0962 61.25 50.3125C61.25 50.6026 61.1348 50.8808 60.9297 51.0859C60.7245 51.291 60.4463 51.4063 60.1563 51.4063Z" fill="#5298D8"/>
<path d="M62.3438 42.6562H55.7812V38.4103C55.7843 37.8383 55.6267 37.2769 55.3264 36.79C55.0261 36.3031 54.5952 35.9103 54.0827 35.6562C53.9359 35.5841 53.8124 35.4723 53.7259 35.3335C53.6395 35.1947 53.5937 35.0344 53.5938 34.8709V33.9062C53.8838 33.9062 54.162 33.791 54.3671 33.5859C54.5723 33.3808 54.6875 33.1026 54.6875 32.8125V28.4375C54.6875 28.1474 54.5723 27.8692 54.3671 27.6641C54.162 27.459 53.8838 27.3438 53.5938 27.3438H44.8438C44.5537 27.3438 44.2755 27.459 44.0704 27.6641C43.8652 27.8692 43.75 28.1474 43.75 28.4375V32.8125C43.75 33.1026 43.8652 33.3808 44.0704 33.5859C44.2755 33.791 44.5537 33.9062 44.8438 33.9062V34.8709C44.8448 35.0354 44.7995 35.1968 44.713 35.3366C44.6265 35.4765 44.5024 35.5892 44.3548 35.6617C43.8432 35.9154 43.4128 36.3073 43.1126 36.7932C42.8123 37.279 42.6543 37.8392 42.6562 38.4103V42.6562H33.9062C33.6162 42.6562 33.338 42.7715 33.1329 42.9766C32.9277 43.1817 32.8125 43.4599 32.8125 43.75C32.8125 44.0401 32.9277 44.3183 33.1329 44.5234C33.338 44.7285 33.6162 44.8438 33.9062 44.8438H62.3438C63.214 44.8438 64.0486 45.1895 64.6639 45.8048C65.2793 46.4202 65.625 47.2548 65.625 48.125V52.5C65.625 53.3702 65.2793 54.2048 64.6639 54.8202C64.0486 55.4355 63.214 55.7812 62.3438 55.7812H55.7812C55.4912 55.7812 55.213 55.8965 55.0079 56.1016C54.8027 56.3067 54.6875 56.5849 54.6875 56.875C54.6875 57.1651 54.8027 57.4433 55.0079 57.6484C55.213 57.8535 55.4912 57.9688 55.7812 57.9688H62.3438C63.7936 57.967 65.1836 57.3903 66.2088 56.3651C67.234 55.3399 67.8108 53.9499 67.8125 52.5V48.125C67.8108 46.6751 67.234 45.2851 66.2088 44.2599C65.1836 43.2347 63.7936 42.658 62.3438 42.6562V42.6562ZM45.9375 29.5312H52.5V31.7188H45.9375V29.5312ZM44.8438 42.6562V38.4103C44.8427 38.2459 44.888 38.0845 44.9745 37.9446C45.061 37.8048 45.1851 37.6921 45.3327 37.6195C45.8443 37.3659 46.2747 36.9739 46.5749 36.4881C46.8752 36.0023 47.0332 35.442 47.0312 34.8709V33.9062H51.4062V34.8709C51.4032 35.443 51.5608 36.0044 51.8611 36.4912C52.1614 36.9781 52.5923 37.3709 53.1048 37.625C53.2524 37.6976 53.3765 37.8102 53.463 37.9501C53.5495 38.0899 53.5948 38.2513 53.5938 38.4158V42.6562H44.8438Z" fill="#5298D8"/>
<path d="M15.3125 61.25C15.0224 61.25 14.7442 61.3652 14.5391 61.5704C14.334 61.7755 14.2188 62.0537 14.2188 62.3438C14.2188 62.6338 14.334 62.912 14.5391 63.1171C14.7442 63.3223 15.0224 63.4375 15.3125 63.4375H18.5938C18.8838 63.4375 19.162 63.3223 19.3671 63.1171C19.5723 62.912 19.6875 62.6338 19.6875 62.3438C19.6875 62.0537 19.5723 61.7755 19.3671 61.5704C19.162 61.3652 18.8838 61.25 18.5938 61.25H15.3125Z" fill="#5298D8"/>
<path d="M7.65625 35C8.26031 35 8.75 34.5103 8.75 33.9062C8.75 33.3022 8.26031 32.8125 7.65625 32.8125C7.05219 32.8125 6.5625 33.3022 6.5625 33.9062C6.5625 34.5103 7.05219 35 7.65625 35Z" fill="#5298D8"/>
<path d="M12.0312 35C12.6353 35 13.125 34.5103 13.125 33.9062C13.125 33.3022 12.6353 32.8125 12.0312 32.8125C11.4272 32.8125 10.9375 33.3022 10.9375 33.9062C10.9375 34.5103 11.4272 35 12.0312 35Z" fill="#5298D8"/>
<path d="M16.8842 39.4844C16.633 39.3393 16.3345 39.3 16.0543 39.3751C15.7741 39.4502 15.5352 39.6335 15.3902 39.8847L8.82766 51.2509C8.75567 51.3754 8.70892 51.5128 8.69008 51.6553C8.67125 51.7978 8.68069 51.9426 8.71787 52.0815C8.75504 52.2204 8.81923 52.3505 8.90676 52.4646C8.99429 52.5786 9.10344 52.6743 9.22797 52.7461L7.58734 55.5899C7.44342 55.8403 7.40439 56.1375 7.47877 56.4165C7.55315 56.6956 7.73491 56.934 7.98437 57.0795L8.93156 57.6264L7.29094 60.4702C7.21799 60.5946 7.17037 60.7322 7.15083 60.8752C7.13129 61.0181 7.14021 61.1634 7.17708 61.3029C7.21395 61.4423 7.27804 61.5731 7.36566 61.6877C7.45327 61.8023 7.56269 61.8984 7.68761 61.9705C7.81253 62.0427 7.95048 62.0894 8.09352 62.1079C8.23656 62.1265 8.38186 62.1167 8.52107 62.0789C8.66027 62.0411 8.79063 61.9761 8.90463 61.8877C9.01863 61.7994 9.11402 61.6893 9.18531 61.5639L10.8259 58.7202L11.7731 59.267C11.8976 59.3388 12.0349 59.3854 12.1774 59.404C12.3198 59.4227 12.4646 59.4131 12.6033 59.3758C12.7421 59.3386 12.8721 59.2743 12.986 59.1868C13.0999 59.0992 13.1955 58.9901 13.2672 58.8656L14.9078 56.0219C15.0323 56.0945 15.1698 56.1418 15.3126 56.161C15.4554 56.1803 15.6005 56.1712 15.7398 56.1342C15.879 56.0972 16.0095 56.0331 16.1239 55.9455C16.2383 55.8579 16.3342 55.7485 16.4062 55.6238L22.9687 44.2575C23.1138 44.0063 23.1531 43.7078 23.078 43.4276C23.0029 43.1474 22.8196 42.9085 22.5684 42.7634L23.6622 40.8691L24.6094 41.4159C24.7338 41.4889 24.8715 41.5365 25.0144 41.5561C25.1573 41.5756 25.3026 41.5667 25.4421 41.5298C25.5816 41.4929 25.7123 41.4288 25.8269 41.3412C25.9415 41.2536 26.0376 41.1442 26.1097 41.0193C26.1819 40.8944 26.2286 40.7564 26.2472 40.6134C26.2658 40.4703 26.2559 40.325 26.2181 40.1858C26.1803 40.0466 26.1153 39.9163 26.027 39.8023C25.9386 39.6883 25.8285 39.5929 25.7031 39.5216L18.1256 35.1466C17.8745 35.0038 17.5772 34.9662 17.2985 35.0418C17.0197 35.1175 16.7822 35.3004 16.6378 35.5505C16.4934 35.8006 16.4538 36.0977 16.5276 36.377C16.6014 36.6562 16.7827 36.8949 17.0319 37.0409L17.9791 37.5878L16.8853 39.4822L16.8842 39.4844ZM16.7344 41.9234L20.5231 44.1109L19.4294 46.0053L15.6406 43.8178L16.7344 41.9234ZM13.0156 54.9314L11.9219 56.8247L10.9769 56.2778L10.0308 55.7309L11.1245 53.8377L12.0717 54.3845L13.0156 54.9314ZM15.0577 53.5828L11.2689 51.3953L12.3627 49.502L14.2581 50.5958C14.5095 50.7408 14.8082 50.7801 15.0885 50.7049C15.3687 50.6297 15.6077 50.4463 15.7527 50.1949C15.8978 49.9436 15.937 49.6449 15.8618 49.3646C15.7867 49.0843 15.6032 48.8454 15.3519 48.7003L13.4575 47.6066L14.5512 45.7122L18.34 47.8997L15.0577 53.5828ZM18.7797 40.5781L19.8734 38.6838L21.7667 39.7775L20.673 41.6719L19.7269 41.125L18.7797 40.5781Z" fill="#5298D8"/>
<path d="M6.5625 42.6562C6.5625 42.9463 6.67773 43.2245 6.88285 43.4296C7.08797 43.6348 7.36617 43.75 7.65625 43.75C7.94633 43.75 8.22453 43.6348 8.42965 43.4296C8.63477 43.2245 8.75 42.9463 8.75 42.6562V39.375H12.0312C12.3213 39.375 12.5995 39.2598 12.8046 39.0546C13.0098 38.8495 13.125 38.5713 13.125 38.2812C13.125 37.9912 13.0098 37.713 12.8046 37.5079C12.5995 37.3027 12.3213 37.1875 12.0312 37.1875H7.65625C7.36617 37.1875 7.08797 37.3027 6.88285 37.5079C6.67773 37.713 6.5625 37.9912 6.5625 38.2812V42.6562Z" fill="#5298D8"/>
<path d="M25.1562 52.5C24.8662 52.5 24.588 52.6152 24.3829 52.8204C24.1777 53.0255 24.0625 53.3037 24.0625 53.5938V56.875H20.7812C20.4912 56.875 20.213 56.9902 20.0079 57.1954C19.8027 57.4005 19.6875 57.6787 19.6875 57.9688C19.6875 58.2588 19.8027 58.537 20.0079 58.7421C20.213 58.9473 20.4912 59.0625 20.7812 59.0625H25.1562C25.4463 59.0625 25.7245 58.9473 25.9296 58.7421C26.1348 58.537 26.25 58.2588 26.25 57.9688V53.5938C26.25 53.3037 26.1348 53.0255 25.9296 52.8204C25.7245 52.6152 25.4463 52.5 25.1562 52.5Z" fill="#5298D8"/>
<path d="M18.7261 22.8364C18.9424 22.8364 19.1538 22.7722 19.3336 22.652C19.5135 22.5318 19.6536 22.361 19.7364 22.1612C19.8191 21.9614 19.8408 21.7415 19.7986 21.5293C19.7564 21.3172 19.6523 21.1223 19.4994 20.9694C18.6664 20.1732 17.5585 19.7289 16.4063 19.7289C15.254 19.7289 14.1461 20.1732 13.3131 20.9694C13.1139 21.1757 13.0037 21.4519 13.0061 21.7387C13.0086 22.0255 13.1237 22.2998 13.3265 22.5026C13.5292 22.7054 13.8036 22.8204 14.0903 22.8229C14.3771 22.8254 14.6534 22.7152 14.8597 22.5159C15.2763 22.118 15.8302 21.8959 16.4063 21.8959C16.9823 21.8959 17.5363 22.118 17.9528 22.5159C18.1579 22.7211 18.436 22.8363 18.7261 22.8364Z" fill="#5298D8"/>
<path d="M21.8203 19.7422C22.0366 19.7421 22.248 19.678 22.4278 19.5578C22.6077 19.4376 22.7478 19.2668 22.8306 19.067C22.9133 18.8671 22.935 18.6473 22.8928 18.4351C22.8506 18.223 22.7465 18.0281 22.5936 17.8752C20.9512 16.2368 18.7261 15.3167 16.4062 15.3167C14.0864 15.3167 11.8613 16.2368 10.2189 17.8752C10.0197 18.0814 9.90941 18.3577 9.91191 18.6445C9.9144 18.9313 10.0294 19.2056 10.2322 19.4084C10.435 19.6112 10.7093 19.7262 10.9961 19.7287C11.2829 19.7312 11.5592 19.621 11.7655 19.4217C12.9976 18.1935 14.6664 17.5037 16.4062 17.5037C18.146 17.5037 19.8149 18.1935 21.047 19.4217C21.2521 19.6269 21.5302 19.7421 21.8203 19.7422Z" fill="#5298D8"/>
<path d="M16.4062 26.25C17.0103 26.25 17.5 25.7603 17.5 25.1562C17.5 24.5522 17.0103 24.0625 16.4062 24.0625C15.8022 24.0625 15.3125 24.5522 15.3125 25.1562C15.3125 25.7603 15.8022 26.25 16.4062 26.25Z" fill="#5298D8"/>
<path d="M42.6562 4.375H66.7188C67.0088 4.375 67.287 4.25977 67.4921 4.05465C67.6973 3.84953 67.8125 3.57133 67.8125 3.28125C67.8125 2.99117 67.6973 2.71297 67.4921 2.50785C67.287 2.30273 67.0088 2.1875 66.7188 2.1875H42.6562C42.3662 2.1875 42.088 2.30273 41.8829 2.50785C41.6777 2.71297 41.5625 2.99117 41.5625 3.28125C41.5625 3.57133 41.6777 3.84953 41.8829 4.05465C42.088 4.25977 42.3662 4.375 42.6562 4.375Z" fill="#5298D8"/>
<path d="M3.28125 4.375H38.2812C38.5713 4.375 38.8495 4.25977 39.0546 4.05465C39.2598 3.84953 39.375 3.57133 39.375 3.28125C39.375 2.99117 39.2598 2.71297 39.0546 2.50785C38.8495 2.30273 38.5713 2.1875 38.2812 2.1875H3.28125C2.99117 2.1875 2.71297 2.30273 2.50785 2.50785C2.30273 2.71297 2.1875 2.99117 2.1875 3.28125C2.1875 3.57133 2.30273 3.84953 2.50785 4.05465C2.71297 4.25977 2.99117 4.375 3.28125 4.375V4.375Z" fill="#5298D8"/>
<path d="M66.7188 6.5625H3.28125C2.99117 6.5625 2.71297 6.67773 2.50785 6.88285C2.30273 7.08797 2.1875 7.36617 2.1875 7.65625C2.1875 7.94633 2.30273 8.22453 2.50785 8.42965C2.71297 8.63477 2.99117 8.75 3.28125 8.75H12.0312V12.0312C12.0312 12.3213 12.1465 12.5995 12.3516 12.8046C12.5567 13.0098 12.8349 13.125 13.125 13.125H19.6875C19.9776 13.125 20.2558 13.0098 20.4609 12.8046C20.666 12.5995 20.7812 12.3213 20.7812 12.0312V8.75H45.9375V16.4062H44.8438C44.5537 16.4062 44.2755 16.5215 44.0704 16.7266C43.8652 16.9317 43.75 17.2099 43.75 17.5V19.6875H41.5625C39.8225 19.6892 38.1544 20.3812 36.924 21.6115C35.6937 22.8419 35.0017 24.51 35 26.25V30.625C35 31.4952 35.3457 32.3298 35.9611 32.9452C36.5764 33.5605 37.411 33.9062 38.2812 33.9062C38.5713 33.9063 38.8495 33.791 39.0546 33.5859C39.2598 33.3808 39.375 33.1026 39.375 32.8125C39.375 32.5224 39.2598 32.2442 39.0546 32.0391C38.8495 31.834 38.5713 31.7188 38.2812 31.7188C37.9912 31.7188 37.713 31.6035 37.5079 31.3984C37.3027 31.1933 37.1875 30.9151 37.1875 30.625V26.25C37.1875 25.0897 37.6484 23.9769 38.4689 23.1564C39.2894 22.3359 40.4022 21.875 41.5625 21.875H43.75V24.0625C43.75 24.3526 43.8652 24.6308 44.0704 24.8359C44.2755 25.041 44.5537 25.1562 44.8438 25.1562H53.5938C53.8838 25.1562 54.162 25.041 54.3671 24.8359C54.5723 24.6308 54.6875 24.3526 54.6875 24.0625V21.875H56.875C58.0353 21.875 59.1481 22.3359 59.9686 23.1564C60.7891 23.9769 61.25 25.0897 61.25 26.25V30.625C61.25 30.9151 61.1348 31.1933 60.9296 31.3984C60.7245 31.6035 60.4463 31.7188 60.1562 31.7188C59.8662 31.7188 59.588 31.834 59.3829 32.0391C59.1777 32.2442 59.0625 32.5224 59.0625 32.8125C59.0625 33.1026 59.1777 33.3808 59.3829 33.5859C59.588 33.791 59.8662 33.9062 60.1562 33.9062C61.0265 33.9062 61.8611 33.5605 62.4764 32.9452C63.0918 32.3298 63.4375 31.4952 63.4375 30.625V26.25C63.4358 24.51 62.7438 22.8419 61.5135 21.6115C60.2831 20.3812 58.615 19.6892 56.875 19.6875H54.6875V17.5C54.6875 17.2099 54.5723 16.9317 54.3671 16.7266C54.162 16.5215 53.8838 16.4062 53.5938 16.4062H52.5V8.75H66.7188C67.0088 8.75 67.287 8.63477 67.4921 8.42965C67.6973 8.22453 67.8125 7.94633 67.8125 7.65625C67.8125 7.36617 67.6973 7.08797 67.4921 6.88285C67.287 6.67773 67.0088 6.5625 66.7188 6.5625ZM18.5938 10.9375H14.2188V8.75H18.5938V10.9375ZM52.5 22.9688H45.9375V18.5938H52.5V22.9688ZM48.125 16.4062V14.2188H50.3125V16.4062H48.125ZM50.3125 12.0312H48.125V8.75H50.3125V12.0312Z" fill="#5298D8"/>
<path d="M50.3125 38.2812C50.3125 37.9912 50.1973 37.713 49.9921 37.5079C49.787 37.3027 49.5088 37.1875 49.2188 37.1875C48.9287 37.1875 48.6505 37.3027 48.4454 37.5079C48.2402 37.713 48.125 37.9912 48.125 38.2812C47.8349 38.2812 47.5567 38.3965 47.3516 38.6016C47.1465 38.8067 47.0312 39.0849 47.0312 39.375C47.0312 39.6651 47.1465 39.9433 47.3516 40.1484C47.5567 40.3535 47.8349 40.4688 48.125 40.4688C48.125 40.7588 48.2402 41.037 48.4454 41.2421C48.6505 41.4473 48.9287 41.5625 49.2188 41.5625C49.5088 41.5625 49.787 41.4473 49.9921 41.2421C50.1973 41.037 50.3125 40.7588 50.3125 40.4688C50.6026 40.4688 50.8808 40.3535 51.0859 40.1484C51.291 39.9433 51.4062 39.6651 51.4062 39.375C51.4062 39.0849 51.291 38.8067 51.0859 38.6016C50.8808 38.3965 50.6026 38.2812 50.3125 38.2812Z" fill="#5298D8"/>
</svg>
