<svg width="16" height="16" viewBox="0 0 16 16" fill="none" xmlns="http://www.w3.org/2000/svg">
<path d="M9.39769 10.5646C9.27775 10.5646 9.16052 10.529 9.06081 10.4624C8.9611 10.3957 8.88339 10.301 8.8375 10.1902C8.79161 10.0794 8.7796 9.95748 8.80299 9.83986C8.82638 9.72223 8.88412 9.61418 8.96891 9.52936L13.2142 5.28404C13.3283 5.17202 13.482 5.10957 13.6419 5.1103C13.8017 5.11102 13.9549 5.17485 14.0679 5.2879C14.181 5.40095 14.2448 5.55408 14.2455 5.71395C14.2463 5.87383 14.1838 6.02752 14.0718 6.14159L9.82646 10.3869C9.77022 10.4433 9.70339 10.4881 9.62981 10.5186C9.55622 10.5491 9.47734 10.5647 9.39769 10.5646ZM2.72646 11.1711C2.60653 11.1711 2.4893 11.1355 2.38959 11.0688C2.28988 11.0022 2.21217 10.9075 2.16628 10.7967C2.12038 10.6859 2.10837 10.564 2.13176 10.4463C2.15515 10.3287 2.21289 10.2207 2.29769 10.1358L5.93653 6.49699C6.0506 6.38496 6.2043 6.32252 6.36417 6.32325C6.52405 6.32397 6.67717 6.3878 6.79022 6.50085C6.90327 6.6139 6.96711 6.76703 6.96783 6.9269C6.96855 7.08678 6.90611 7.24047 6.79409 7.35454L3.15524 10.9934C3.099 11.0498 3.03217 11.0945 2.95859 11.125C2.885 11.1555 2.80612 11.1712 2.72646 11.1711Z"/>
<path d="M9.39808 10.5648C9.31843 10.5649 9.23954 10.5492 9.16596 10.5187C9.09237 10.4882 9.02554 10.4435 8.9693 10.3871L5.93693 7.35473C5.82491 7.24066 5.76247 7.08696 5.76319 6.92709C5.76391 6.76721 5.82775 6.61409 5.9408 6.50104C6.05385 6.38799 6.20697 6.32416 6.36685 6.32343C6.52672 6.32271 6.68042 6.38515 6.79449 6.49717L9.82686 9.52955C9.91165 9.61436 9.96939 9.72241 9.99278 9.84004C10.0162 9.95767 10.0042 10.0796 9.95827 10.1904C9.91238 10.3012 9.83466 10.3959 9.73495 10.4625C9.63524 10.5292 9.51801 10.5648 9.39808 10.5648Z" />
</svg>
