<svg width="120" height="119" viewBox="0 0 120 119" fill="none" xmlns="http://www.w3.org/2000/svg">
<path d="M29.5297 9.77894C37.5175 6.14944 48.2945 4 59.9937 4C71.6928 4 82.4698 6.14944 90.4577 9.77894C98.1108 13.2597 104.619 18.8229 104.619 26.3125C104.619 33.8021 98.1108 39.3653 90.4577 42.8461C82.4698 46.4756 71.6928 48.625 59.9937 48.625C48.2945 48.625 37.5175 46.4756 29.5297 42.8461C21.8765 39.3653 15.3687 33.8021 15.3687 26.3125C15.3687 18.8229 21.8765 13.2597 29.5297 9.77894Z" fill="#699BF7"/>
<path d="M15.3687 42.3848V48.6248C15.3687 56.1144 21.8765 61.6776 29.5297 65.1584C37.5175 68.7804 48.2945 70.9373 59.9937 70.9373C71.6928 70.9373 82.4698 68.7879 90.4577 65.1584C98.1108 61.6776 104.619 56.1144 104.619 48.6248V42.3848C101.22 45.5978 97.1514 47.9703 93.5368 49.614C84.3738 53.779 72.5035 56.0623 59.9937 56.0623C47.4838 56.0623 35.6135 53.779 26.4505 49.614C22.8359 47.9778 18.7676 45.5978 15.3687 42.3848Z" fill="#699BF7"/>
<path d="M15.3687 64.6973V70.9373C15.3687 78.4269 21.8765 83.9901 29.5297 87.4709C37.5175 91.1004 48.2945 93.2498 59.9937 93.2498C71.6928 93.2498 82.4698 91.1004 90.4577 87.4709C98.1108 83.9901 104.619 78.4269 104.619 70.9373V64.6973C101.22 67.9103 97.1514 70.2828 93.5368 71.9265C84.3738 76.0915 72.5035 78.3748 59.9937 78.3748C47.4838 78.3748 35.6135 76.0915 26.4505 71.9265C22.8359 70.2903 18.7676 67.9103 15.3687 64.6973Z" fill="#699BF7"/>
<path d="M15.3687 87.0098V93.2498C15.3687 100.739 21.8765 106.303 29.5297 109.783C37.5175 113.413 48.2945 115.562 59.9937 115.562C71.6928 115.562 82.4698 113.413 90.4577 109.783C98.1108 106.303 104.619 100.739 104.619 93.2498V87.0098C101.22 90.2228 97.1514 92.5953 93.5368 94.239C84.3738 98.404 72.5035 100.687 59.9937 100.687C47.4838 100.687 35.6135 98.404 26.4505 94.239C22.8359 92.6028 18.7676 90.2228 15.3687 87.0098Z" fill="#699BF7"/>
</svg>
