<svg width="32" height="32" viewBox="0 0 32 32" fill="none" xmlns="http://www.w3.org/2000/svg">
<path d="M15.9999 4C10.1066 4 5.33325 6.38667 5.33325 9.33333C5.33325 12.28 10.1066 14.6667 15.9999 14.6667C21.8933 14.6667 26.6666 12.28 26.6666 9.33333C26.6666 6.38667 21.8933 4 15.9999 4ZM5.33325 12V16C5.33325 18.9467 10.1066 21.3333 15.9999 21.3333C21.8933 21.3333 26.6666 18.9467 26.6666 16V12C26.6666 14.9467 21.8933 17.3333 15.9999 17.3333C10.1066 17.3333 5.33325 14.9467 5.33325 12ZM5.33325 18.6667V22.6667C5.33325 25.6133 10.1066 28 15.9999 28C21.8933 28 26.6666 25.6133 26.6666 22.6667V18.6667C26.6666 21.6133 21.8933 24 15.9999 24C10.1066 24 5.33325 21.6133 5.33325 18.6667Z" fill="#699BF7"/>
</svg>
