<svg width="14" height="14" viewBox="0 0 14 14" fill="none" xmlns="http://www.w3.org/2000/svg">
<path d="M0.333008 1.50065C0.333008 0.856651 0.855674 0.333984 1.49967 0.333984H12.4997C13.1437 0.333984 13.6663 0.856651 13.6663 1.50065V12.5007C13.6663 12.8101 13.5434 13.1068 13.3246 13.3256C13.1058 13.5444 12.8091 13.6673 12.4997 13.6673H1.49967C1.19026 13.6673 0.893509 13.5444 0.674717 13.3256C0.455924 13.1068 0.333008 12.8101 0.333008 12.5007V1.50065ZM4.99967 5.00065V12.6673H12.4997C12.5439 12.6673 12.5863 12.6498 12.6175 12.6185C12.6488 12.5872 12.6663 12.5449 12.6663 12.5007V5.00065H4.99967ZM12.6663 4.00065V1.50065C12.6663 1.45645 12.6488 1.41406 12.6175 1.3828C12.5863 1.35154 12.5439 1.33398 12.4997 1.33398H4.99967V4.00065H12.6663ZM1.33301 5.00065V12.5007C1.33301 12.5927 1.40767 12.6673 1.49967 12.6673H3.99967V5.00065H1.33301ZM3.99967 4.00065V1.33398H1.49967C1.45547 1.33398 1.41308 1.35154 1.38182 1.3828C1.35057 1.41406 1.33301 1.45645 1.33301 1.50065V4.00065H3.99967Z" fill="transparent" fill-opacity="0.8"/>
</svg>
