<?xml version="1.0" encoding="UTF-8"?>
<svg width="20px" height="24px" viewBox="0 0 20 24" version="1.1" xmlns="http://www.w3.org/2000/svg" xmlns:xlink="http://www.w3.org/1999/xlink">
    <!-- Generator: Sketch 63.1 (92452) - https://sketch.com -->
    <title>Path</title>
    <desc>Created with Sketch.</desc>
    <g id="hierarchy" stroke="none" stroke-width="1" fill="none" fill-rule="evenodd">
        <g id="1" transform="translate(-272.000000, -293.000000)" fill="#F44336">
            <path d="M282.545317,315.451613 C283.753021,315.746544 284.931269,316.041475 286.138973,316.336406 C286.138973,315.717051 286.138973,315.097696 286.168429,314.478341 C285.108006,313.682028 284.077039,312.885714 283.046073,312.059908 C283.22281,309.877419 283.399547,307.665438 283.576284,305.453456 C286.197885,306.131797 288.819486,306.780645 291.441088,307.429493 C291.470544,306.869124 291.470544,306.308756 291.5,305.748387 C288.996224,303.801843 286.492447,301.8553 283.988671,299.938249 C283.988671,298.522581 284.018127,297.106912 284.018127,295.720737 C282.780967,292.093088 280.719033,292.093088 279.481873,295.720737 C279.481873,297.106912 279.511329,298.522581 279.511329,299.938249 C277.007553,301.8553 274.503776,303.801843 272,305.748387 C272.029456,306.308756 272.029456,306.869124 272.058912,307.429493 C274.680514,306.780645 277.302115,306.131797 279.923716,305.453456 C280.100453,307.665438 280.27719,309.877419 280.453927,312.059908 C279.393505,312.885714 278.362538,313.682028 277.331571,314.478341 C277.331571,315.097696 277.361027,315.717051 277.361027,316.336406 C278.568731,316.041475 279.746979,315.746544 280.954683,315.451613 C281.367069,317.516129 282.132931,317.516129 282.545317,315.451613 Z" id="Path"></path>
        </g>
    </g>
</svg>