<?xml version="1.0" encoding="UTF-8"?>
<svg width="24px" height="16px" viewBox="0 0 24 16" version="1.1" xmlns="http://www.w3.org/2000/svg" xmlns:xlink="http://www.w3.org/1999/xlink">
    <!-- Generator: Sketch 63.1 (92452) - https://sketch.com -->
    <title>Shape</title>
    <desc>Created with Sketch.</desc>
    <g id="hierarchy" stroke="none" stroke-width="1" fill="none" fill-rule="evenodd">
        <g id="1" transform="translate(-276.000000, -512.000000)" fill="#009688" fill-rule="nonzero">
            <g id="Group-3" transform="translate(53.000000, 480.000000)">
                <path d="M223,32.7169639 L223,41.9472641 C223.006663,42.3465436 223.332634,42.6666667 223.732418,42.6666667 L241.823138,42.6666667 C242.222921,42.6666667 242.548892,42.3465436 242.555556,41.9472641 L242.555556,32.7169639 C242.547579,32.3186402 242.221989,32 241.823138,32 L223.732418,32 C223.333567,32 223.007977,32.3186402 223,32.7169639 Z M231.064435,38.9514641 L231.178288,38.7782656 C231.231088,38.6950982 231.314316,38.6382018 231.408491,38.6208931 C231.502667,38.6035844 231.599524,38.6273826 231.676393,38.6867178 C231.926519,38.8919932 232.226102,39.0212774 232.542148,39.0603317 C232.724106,39.0796072 232.904409,39.0102177 233.030766,38.8722876 C233.102589,38.7682338 233.137778,38.6415076 233.130388,38.5135193 C233.130388,38.0928944 232.819664,37.9073246 232.314443,37.6376298 C232.031876,37.5055765 231.769683,37.3304667 231.536449,37.1180343 C231.411309,37.0029394 231.308973,36.8634073 231.235214,36.7073065 C231.159424,36.5255134 231.121429,36.3290287 231.123733,36.130803 C231.103955,35.4820206 231.511246,34.9029409 232.110457,34.7278952 L232.160267,34.7130496 L232.160267,34.1439689 C232.159636,34.0470772 232.196092,33.9539275 232.261549,33.8851813 C232.327007,33.8164351 232.416055,33.7777778 232.508941,33.7777778 L232.658373,33.7777778 C232.85225,33.7777778 233.009419,33.9417271 233.009419,34.1439689 L233.009419,34.698204 L233.066345,34.7105754 C233.367247,34.7714759 233.644844,34.9218483 233.865686,35.1435716 L233.884662,35.1633657 C234.014049,35.2984633 234.020284,35.515273 233.898893,35.6582185 L233.749462,35.831417 C233.625346,35.9714704 233.418958,35.9886938 233.275075,35.8710052 C233.093309,35.7073566 232.864871,35.6108213 232.625166,35.5963619 C232.491689,35.5785088 232.357512,35.6234783 232.258981,35.7190887 C232.160451,35.814699 232.107767,35.9510535 232.115201,36.0912147 C232.115201,36.4277147 232.395089,36.5860676 232.8505,36.8186484 C233.151951,36.9539677 233.43126,37.1376329 233.678304,37.3629865 C233.811227,37.4957877 233.917636,37.6547203 233.991399,37.8306224 C234.072496,38.0352689 234.112846,38.2549829 234.109995,38.4764054 C234.136256,39.1633649 233.696416,39.7751188 233.056858,39.9411697 L233.007047,39.9560153 L233.007047,40.5250961 C233.007049,40.62199 232.969989,40.7148797 232.904086,40.7831614 C232.838183,40.8514431 232.748886,40.889472 232.656001,40.8888129 L232.506569,40.8888129 C232.413279,40.8908014 232.323116,40.8537009 232.25625,40.7858103 C232.189384,40.7179196 232.151395,40.6249042 232.15078,40.5275703 L232.15078,39.9807579 L232.096225,39.9659124 C231.754434,39.8607049 231.433212,39.6931651 231.147453,39.4710595 C230.989897,39.3540291 230.952774,39.1261056 231.064435,38.9613611 L231.064435,38.9514641 Z M227.806448,46.0173378 L245.544646,46.0173378 C245.743224,46.0173378 245.904204,45.8566566 245.904204,45.6584462 L245.904204,36.8033444 C245.904202,36.7077359 245.942419,36.6160785 246.010379,36.5487026 C246.07834,36.4813267 246.170424,36.4438024 246.266208,36.4444444 L246.642888,36.4444444 C246.84051,36.4457947 247,36.6060836 247,36.8033444 C247,36.8033444 247,43.2218894 247,45.9611847 C247,46.2665854 246.878288,46.5594422 246.661707,46.775164 C246.445126,46.9908858 246.151468,47.1117512 245.845501,47.1111111 L227.806448,47.1111111 C227.710665,47.1117532 227.61858,47.0742288 227.55062,47.006853 C227.48266,46.9394771 227.444444,46.8478197 227.444444,46.7522112 L227.444444,46.3786709 C227.444444,46.1791121 227.606519,46.0173378 227.806448,46.0173378 Z M244.777778,34.5811141 C244.777778,34.5811141 244.777778,41.004547 244.777778,43.7389616 C244.777778,44.0443625 244.656005,44.3372195 244.439315,44.5529415 C244.222626,44.7686635 243.928821,44.889529 243.622701,44.8888889 L225.584407,44.8888889 C225.488576,44.889531 225.396445,44.8520066 225.328451,44.7846307 C225.260457,44.7172547 225.222222,44.6255972 225.222222,44.5299887 L225.222222,44.1564481 C225.222222,43.9568892 225.384378,43.7951147 225.584407,43.7951147 L243.331484,43.7951147 C243.526401,43.7951867 243.685918,43.6403752 243.691222,43.4459886 L243.691222,34.5811141 C243.691181,34.3857291 243.847814,34.2262097 244.043619,34.2222222 L244.420487,34.2222222 C244.618208,34.2235641 244.777778,34.3838531 244.777778,34.5811141 Z" id="Shape"></path>
            </g>
        </g>
    </g>
</svg>