<svg xmlns="http://www.w3.org/2000/svg" viewBox="0 0 929.55 250.25"><defs><style>.cls-1{fill:#6df0c2;}.cls-2{fill:#52ce9e;}</style></defs><g id="Layer_2" data-name="Layer 2"><g id="Layer_1-2" data-name="Layer 1"><path class="cls-1" d="M59.45,234.34a109.83,109.83,0,0,1-43.74-44Q0,161.83,0,125,0,88.23,15.53,59.83A108.73,108.73,0,0,1,59.09,15.91Q87.13.38,123.47.38q30,0,54.79,10.23t41.09,29.5a95.49,95.49,0,0,1,6.45,8.57c10.29,15.41-.69,36.08-19.23,36.08h0a23.68,23.68,0,0,1-20.35-12.11A60,60,0,0,0,167.3,53.07q-18.45-12.32-44.2-12.32-23.19,0-40.82,10.41A68.94,68.94,0,0,0,55.16,80.84q-9.49,19.26-9.5,44.47,0,25.38,9.68,44.47a67.94,67.94,0,0,0,27.31,29.13Q100.28,209,123.1,209q25,0,43.75-12.15a58.58,58.58,0,0,0,19.44-20.08,23.55,23.55,0,0,1,20.36-12.15h.23a23.17,23.17,0,0,1,19.34,35.91,94.74,94.74,0,0,1-6.32,8.56Q203.82,228.51,179,239.18t-55.52,10.69Q87.49,249.87,59.45,234.34Z"/><path class="cls-1" d="M450.81,225.19c0-14.61,10.84-24.18,24.44-24.18s24.43,9.57,24.43,24.18c0,14.35-10.83,24.68-24.43,24.68S450.81,239.54,450.81,225.19Z"/><path class="cls-1" d="M279.79,192.34a20.52,20.52,0,0,1-30.09-13.75A89.81,89.81,0,0,1,356.15,72.13a20.52,20.52,0,0,1,13.76,30.09h0a20.56,20.56,0,0,1-22.21,10,48.86,48.86,0,0,0-57.9,57.9,20.56,20.56,0,0,1-10,22.21Z"/><path class="cls-1" d="M337.48,249.87a90.13,90.13,0,0,1-18.84-2c-13.36-2.85-20-18.06-13.31-30h0a20.55,20.55,0,0,1,22.2-10,48.85,48.85,0,0,0,57.9-57.9,20.54,20.54,0,0,1,10-22.2h0a20.53,20.53,0,0,1,30.1,13.75,89.76,89.76,0,0,1-88.07,108.35Z"/><circle class="cls-2" cx="405.42" cy="144.79" r="19.53"/><circle class="cls-2" cx="269.97" cy="175.44" r="19.53"/><path class="cls-1" d="M695,248.29h0a25,25,0,0,1-25-25v-.81c-12.4,18-31.33,27.74-55.49,27.74-49.94,0-82.9-36.23-82.9-90.41,0-53.53,32.64-89.11,81.6-89.11,24.8,0,44.06,9.79,56.79,27.74V25A25,25,0,0,1,695,0h0a25,25,0,0,1,25,25V223.32A25,25,0,0,1,695,248.29Zm-25-87.15c0-28.72-17.95-48.63-43.74-48.63-26.11,0-44.06,20.23-44.39,48.63.33,28.73,18,48.64,44.39,48.64C652.1,209.78,670.05,189.87,670.05,161.14Z"/><rect class="cls-1" x="816.59" y="47.07" width="50.42" height="227.3" rx="25.21" transform="translate(360.2 -548.17) rotate(45)"/><rect class="cls-1" x="816.4" y="47.34" width="50.42" height="226.77" rx="25.21" transform="translate(1550.38 -320.73) rotate(135)"/></g></g></svg>