<?xml version="1.0" encoding="UTF-8"?>
<svg width="24px" height="26px" viewBox="0 0 24 26" version="1.1" xmlns="http://www.w3.org/2000/svg" xmlns:xlink="http://www.w3.org/1999/xlink">
    <!-- Generator: Sketch 63.1 (92452) - https://sketch.com -->
    <title>Group 22</title>
    <desc>Created with Sketch.</desc>
    <g id="hierarchy" stroke="none" stroke-width="1" fill="none" fill-rule="evenodd">
        <g id="1" transform="translate(-274.000000, -717.000000)" fill="#E91E63">
            <g id="Group-22" transform="translate(274.000000, 717.000000)">
                <path d="M15.5586207,10.5103448 C14.0689655,8.35862069 9.93103448,8.44137931 8.52413793,10.5931034 C8.85517241,7.03448276 9.93103448,3.64137931 12.0827586,0.662068966 C14.1517241,3.64137931 15.2275862,6.95172414 15.5586207,10.5103448 Z" id="Path"></path>
                <path d="M12.662069,0 C18.8689655,0.331034483 23.9172414,5.46206897 24,11.7517241 C23.5034483,8.52413793 18.1241379,8.02758621 16.3862069,10.5931034 C16.0551724,6.7862069 14.8965517,3.22758621 12.662069,0 Z" id="Path"></path>
                <path d="M7.69655172,10.6758621 C6.12413793,8.02758621 0.496551724,8.35862069 0,11.7517241 C0.0827586207,5.37931034 5.13103448,0.248275862 11.5034483,0 C9.1862069,3.22758621 8.02758621,6.86896552 7.69655172,10.6758621 Z" id="Path"></path>
                <path d="M4.96551724,21.2689655 C5.04827586,20.5241379 6.12413793,20.6896552 6.04137931,21.4344828 C5.87586207,22.5103448 6.37241379,23.5862069 7.28275862,24.1655172 C8.19310345,24.7448276 9.35172414,24.7448276 10.262069,24.1655172 C11.2551724,23.5034483 11.4206897,22.4275862 11.4206897,21.3517241 L11.4206897,8.60689655 C11.4206897,7.86206897 12.5793103,7.86206897 12.5793103,8.60689655 L12.5793103,21.3517241 C12.4965517,22.8413793 12.1655172,24.1655172 10.8413793,25.0758621 C9.6,25.9034483 7.94482759,25.9034483 6.70344828,25.0758621 C5.37931034,24.2482759 4.71724138,22.7586207 4.96551724,21.2689655 Z" id="Path" fill-rule="nonzero"></path>
            </g>
        </g>
    </g>
</svg>