<?xml version="1.0" encoding="UTF-8"?>
<svg width="22px" height="21px" viewBox="0 0 22 21" version="1.1" xmlns="http://www.w3.org/2000/svg" xmlns:xlink="http://www.w3.org/1999/xlink">
    <!-- Generator: Sketch 63.1 (92452) - https://sketch.com -->
    <title>Group 21</title>
    <desc>Created with Sketch.</desc>
    <g id="hierarchy" stroke="none" stroke-width="1" fill="none" fill-rule="evenodd">
        <g id="1" transform="translate(-271.000000, -744.000000)" fill="#8BC34A" fill-rule="nonzero">
            <g id="Group-21" transform="translate(271.000000, 744.000000)">
                <rect id="Rectangle" x="5.3" y="13" width="3" height="3"></rect>
                <rect id="Rectangle" x="12.3" y="12" width="4" height="9"></rect>
                <path d="M1.3,8 L1.3,21 L11.3,21 L11.3,11 L17.3,11 L17.3,21 L20.3,21 L20.3,8 L21.56,8 L18.13,0 L3.47,0 L3.18,0.67 L0.3,7.3 L0.3,7.3 L6.53699317e-13,8 L1.3,8 Z M9.3,12 L9.3,17 L4.3,17 L4.3,12 L9.3,12 Z M17.47,1 L17.8,1.77 L15.56,7 L14.47,7 L17.04,1 L17.47,1 Z M15.38,1 L12.81,7 L11.72,7 L14.3,1 L15.38,1 Z M12.63,1 L10.06,7 L8.97,7 L11.54,1 L12.63,1 Z M9.88,1 L7.3,7 L6.22,7 L8.79,1 L9.88,1 Z M7.13,1 L4.56,7 L3.47,7 L6.04,1 L7.13,1 Z" id="Shape"></path>
            </g>
        </g>
    </g>
</svg>