<svg width="48" height="26" viewBox="0 0 48 26" fill="none" xmlns="http://www.w3.org/2000/svg">
<path d="M16.7165 1.07744L1.27734 9.32812L6.61158 19.3099L22.0508 11.0592L16.7165 1.07744Z" fill="#7C8795"/>
<path d="M5.59273 5.69141L0.726562 8.29137L1.2806 9.32601L6.42378 6.57586L5.59273 5.69141Z" fill="#7C8795"/>
<path d="M22.0162 11.07L6.57335 19.3238L0.619141 10.7362L16.0587 2.48242L22.0162 11.07Z" fill="#FFF0EE"/>
<path d="M4.86617 7.24414L0 9.84744L0.617451 10.7352L5.76398 7.98508L4.86617 7.24414Z" fill="#FFF0EE"/>
<path d="M47.9999 8.13697C44.7892 5.38682 41.6074 2.6745 38.4545 0C34.8265 3.7147 32.5303 9.03144 28.4785 12.2388C31.6892 14.9868 34.8699 17.698 38.0206 20.3725C41.6519 16.6578 43.9448 11.341 47.9999 8.13697Z" fill="#FFF0EE"/>
<path d="M31.0488 11.4299L36.2721 15.8555L36.5324 15.5451L31.3192 11.1328L31.0488 11.4299Z" fill="#7C8795"/>
<path d="M31.7246 10.6762C33.4601 12.1469 35.1912 13.6099 36.9179 15.0651C37.0046 14.9605 37.0881 14.8493 37.1682 14.7313L31.9849 10.3691L31.7246 10.6762Z" fill="#7C8795"/>
<path d="M32.377 9.88404L37.5468 14.2429L37.7905 13.9091L32.6306 9.57031L32.377 9.88404Z" fill="#7C8795"/>
<path d="M33.0098 9.07594L40.5526 15.4173C40.6294 15.3038 40.7095 15.1904 40.7896 15.0836L33.2567 8.74219C33.1733 8.859 33.0999 8.96914 33.0098 9.07594Z" fill="#7C8795"/>
<path d="M33.623 8.24001L41.1459 14.5814C41.226 14.4679 41.3028 14.3544 41.3829 14.2476L33.8634 7.90625L33.623 8.24001Z" fill="#7C8795"/>
<path d="M34.2246 7.39373L41.7408 13.7117L41.9778 13.378L34.4616 7.05664C34.3848 7.17012 34.3047 7.28026 34.2246 7.39373Z" fill="#7C8795"/>
<path d="M34.8203 6.54469L42.3365 12.8627L42.5735 12.5289L35.0539 6.21094L34.8203 6.54469Z" fill="#7C8795"/>
<path d="M35.4141 5.68532L42.9403 12.0267L43.1806 11.6929L35.651 5.35156L35.4141 5.68532Z" fill="#7C8795"/>
<path d="M36.0137 4.8318C38.5235 6.94114 41.0378 9.05493 43.5566 11.1732L43.8069 10.8394L36.2506 4.49805L36.0137 4.8318Z" fill="#7C8795"/>
<path d="M36.6211 3.99253C39.1332 6.11077 41.6564 8.23791 44.1907 10.3739L44.4477 10.0602L36.8647 3.66211L36.6211 3.99253Z" fill="#7C8795"/>
<path d="M37.2363 3.16416C39.764 5.29352 42.2994 7.43512 44.8426 9.58896C44.9327 9.48549 45.0195 9.38537 45.1096 9.28858C42.5553 7.12362 40.0143 4.97534 37.4866 2.84375L37.2363 3.16416Z" fill="#7C8795"/>
<path d="M37.8789 2.36117L45.5286 8.83938L45.8089 8.55235C43.2368 6.36736 40.678 4.20017 38.1326 2.05078L37.8789 2.36117Z" fill="#7C8795"/>
<path d="M5.02148 16.8185C5.02143 18.0272 5.47811 19.1913 6.30004 20.0776C7.12197 20.9639 8.24843 21.5069 9.45376 21.5978H36.5881C38.0165 21.5688 39.3804 20.9979 40.4035 20.0008C41.4266 19.0037 42.0325 17.6549 42.0982 16.2278C42.164 14.8006 41.6848 13.4019 40.7578 12.3149C39.8307 11.2279 38.5251 10.5339 37.1055 10.3736C37.0364 8.17206 36.2034 6.06316 34.7492 4.40876C33.295 2.75436 31.3104 1.65761 29.1359 1.30671C26.9614 0.955802 24.7325 1.37261 22.8318 2.48562C20.931 3.59863 19.4769 5.33844 18.7188 7.40654C17.9377 7.0116 17.0743 6.8069 16.199 6.80911C14.7656 6.80894 13.3862 7.3554 12.3419 8.33711C11.2975 9.31883 10.6669 10.6619 10.5785 12.0925C10.3216 12.0491 10.0614 12.0279 9.80087 12.0291C8.53238 12.0317 7.31675 12.5375 6.42073 13.4354C5.52471 14.3333 5.02148 15.55 5.02148 16.8185Z" fill="#FFA497" fill-opacity="0.8"/>
<path d="M26.5311 14.6387H20.707V21.6108H26.5311V14.6387Z" fill="#FFF0EE"/>
<path d="M18.8828 15.6619H28.3515L23.6155 10.1016L18.8828 15.6619Z" fill="#FFF0EE"/>
<path d="M36.915 23.7422H10.9922V25.5612H36.915V23.7422Z" fill="#7C8795"/>
<path d="M30.3467 23.7422H10.9922V25.5612H30.3467V23.7422Z" fill="#FFA497" fill-opacity="0.8"/>
</svg>
