
    
      <svg width="16" height="16" viewBox="0 0 16 16"  xmlns="http://www.w3.org/2000/svg" 
>
      <path d="M5.71089 9.96575C5.53352 9.96575 5.37154 9.88878 5.24236 9.73717C5.01077 9.4671 5.00174 9.14448 5.21894 8.8744C5.39999 8.64884 5.74737 8.44737 6.25105 8.27602C6.42641 8.21612 6.61918 8.1609 6.81998 8.11103C6.94347 7.88212 7.06428 7.63279 7.1774 7.37108C7.28081 7.1318 7.37151 6.89552 7.44748 6.66828C7.16368 6.1877 6.90666 5.63082 6.91469 5.19107C6.92138 4.80821 7.14293 4.55186 7.50738 4.50567C7.83469 4.4635 8.09305 4.62849 8.19847 4.94609C8.33903 5.36911 8.20617 6.03008 8.03114 6.59867C8.17337 6.82357 8.33735 7.05683 8.51841 7.28976C8.66968 7.48454 8.82463 7.6676 8.97791 7.83426C9.59637 7.8259 10.1827 7.88915 10.5321 8.07723C10.847 8.24624 10.9779 8.52702 10.8822 8.82922C10.769 9.18598 10.4889 9.36469 10.1322 9.30579C9.68539 9.23283 9.16699 8.80011 8.75636 8.37776C8.46486 8.39014 8.15396 8.41825 7.83636 8.46276C7.60477 8.49623 7.38188 8.53472 7.17272 8.57956C7.09541 8.71343 7.0171 8.83993 6.93845 8.95874C6.64261 9.40451 6.35981 9.70538 6.09844 9.8533C5.98114 9.92362 5.84762 9.96236 5.71089 9.96575ZM6.40767 8.78672C6.02849 8.91657 5.75273 9.06382 5.6356 9.20974C5.58606 9.27132 5.57435 9.30278 5.64831 9.38879C5.68178 9.42627 5.70822 9.45873 5.83439 9.38879C5.99971 9.29307 6.19884 9.08089 6.40633 8.78672H6.40767ZM9.55353 8.38847C9.82126 8.61069 10.0555 8.75158 10.2229 8.77869C10.2988 8.79107 10.337 8.79174 10.3761 8.66858C10.3862 8.63746 10.3945 8.61035 10.2834 8.55045C10.1285 8.46912 9.87213 8.41457 9.55152 8.38847H9.55353ZM7.81327 7.2332C7.75671 7.37978 7.70617 7.50093 7.67037 7.58326C7.61314 7.71713 7.55323 7.84664 7.49199 7.97415C7.58101 7.95909 7.67103 7.94537 7.76206 7.93232C7.93442 7.90822 8.11581 7.88714 8.30054 7.87107C8.21554 7.769 8.14626 7.68199 8.09773 7.61974C8.0298 7.5344 7.92806 7.39986 7.81159 7.2332H7.81327ZM7.57632 5.03813C7.49801 5.04817 7.45384 5.06055 7.45116 5.20178C7.44815 5.37714 7.52211 5.6268 7.65698 5.9193C7.7306 5.56456 7.746 5.27975 7.69044 5.1161C7.662 5.0311 7.63991 5.02976 7.57498 5.03813H7.57632Z" />
      <path d="M5.52074 11.1766C5.51976 11.1451 5.52526 11.1137 5.5369 11.0844C5.54855 11.0551 5.56608 11.0286 5.58843 11.0063C5.61077 10.9841 5.63745 10.9667 5.66679 10.9553C5.69614 10.9438 5.72753 10.9384 5.75902 10.9396H6.34436C6.71249 10.9396 7.06188 11.1779 7.06188 11.6514C7.06188 12.0604 6.81188 12.3603 6.35908 12.3603H5.99731V12.7987C5.99731 12.966 5.89691 13.0517 5.75902 13.0517C5.62114 13.0517 5.52074 12.9663 5.52074 12.7987V11.1766ZM5.99731 11.9356H6.25299C6.45613 11.9356 6.56791 11.7974 6.56791 11.6501C6.56791 11.462 6.44141 11.362 6.25299 11.362H5.99731V11.9356Z"  />
      <path d="M7.29716 11.1766C7.29598 11.145 7.30134 11.1135 7.3129 11.084C7.32446 11.0546 7.34197 11.0278 7.36434 11.0055C7.3867 10.9831 7.41344 10.9656 7.44288 10.954C7.47232 10.9425 7.50383 10.9371 7.53544 10.9383H8.10437C8.72785 10.9383 9.08093 11.4326 9.08093 11.9707C9.08093 12.6561 8.6221 13.0326 8.10437 13.0326H7.53544C7.50383 13.0338 7.47232 13.0285 7.44288 13.0169C7.41344 13.0053 7.3867 12.9878 7.36434 12.9655C7.34197 12.9431 7.32446 12.9164 7.3129 12.8869C7.30134 12.8575 7.29598 12.826 7.29716 12.7944V11.1766ZM7.77372 12.5915H8.02673C8.3972 12.5915 8.57089 12.3355 8.57089 11.9707C8.57089 11.6177 8.39419 11.3797 8.04714 11.3797H7.77372V12.5915Z"  />
      <path d="M9.34733 11.1766C9.34616 11.145 9.35151 11.1135 9.36305 11.0841C9.37459 11.0547 9.39207 11.028 9.41439 11.0056C9.43672 10.9832 9.46342 10.9657 9.49282 10.9541C9.52222 10.9426 9.55369 10.9372 9.58527 10.9383H10.3148C10.4648 10.9383 10.5531 11.0266 10.5531 11.1588C10.5531 11.297 10.4648 11.3797 10.3148 11.3797H9.82356V11.7532H10.2533C10.4032 11.7532 10.4912 11.8385 10.4912 11.9737C10.4912 12.1089 10.4032 12.1943 10.2533 12.1943H9.82356V12.7967C9.82356 12.964 9.72316 13.0497 9.58527 13.0497C9.44739 13.0497 9.34733 12.9644 9.34733 12.7967V11.1766Z"  />
      <path d="M12.5765 4.69843C12.5055 4.69843 12.4374 4.72664 12.3872 4.77685C12.3369 4.82706 12.3087 4.89515 12.3087 4.96616V13.9101C12.3086 14.057 12.2501 14.1979 12.1462 14.3018C12.0423 14.4057 11.9015 14.4641 11.7545 14.4643H4.09068C3.94357 14.4644 3.80245 14.4061 3.69834 14.3022C3.59423 14.1982 3.53564 14.0572 3.53547 13.9101V2.0964C3.53529 1.9493 3.59353 1.80814 3.69739 1.70396C3.80126 1.59979 3.94223 1.54112 4.08934 1.54085H9.67324V3.18072C9.6736 3.43993 9.77675 3.68842 9.96007 3.87168C10.1434 4.05494 10.3919 4.15801 10.6511 4.15828H12.5631C12.6161 4.15832 12.6679 4.14264 12.7119 4.11322C12.756 4.08381 12.7904 4.04198 12.8106 3.99303C12.8309 3.94408 12.8362 3.89022 12.8259 3.83825C12.8155 3.78629 12.79 3.73857 12.7525 3.70112L10.1304 1.07768C10.0995 1.04706 10.0617 1.02441 10.0201 1.0117C9.97853 0.998989 9.93449 0.996593 9.89178 1.00472L4.08934 1.00539C3.80051 1.00583 3.52363 1.12079 3.31943 1.32506C3.11523 1.52932 3.00035 1.80623 3 2.09506V13.9088C3.00035 14.1977 3.11527 14.4746 3.31955 14.6789C3.52383 14.8832 3.80078 14.9981 4.08967 14.9984H11.7535C12.0424 14.9981 12.3194 14.8832 12.5237 14.6789C12.7279 14.4746 12.8428 14.1977 12.8432 13.9088V4.96616C12.8432 4.89533 12.8151 4.82738 12.7651 4.7772C12.7151 4.72702 12.6473 4.69869 12.5765 4.69843ZM10.6511 3.62147C10.5339 3.62138 10.4215 3.57479 10.3385 3.49191C10.2556 3.40903 10.2089 3.29663 10.2087 3.17938V1.91367L11.9155 3.62047L10.6511 3.62147Z"  />
      </svg>
