
    <svg width="16" height="16" viewBox="0 0 16 16" xmlns="http://www.w3.org/2000/svg" 
>
    <path d="M13.9316 2.57648L12.3163 1.06407C12.2725 1.02305 12.2131 1 12.1511 1H3.79677C3.66775 1 3.56314 1.09795 3.56314 1.21875V2.4636H2.23362C2.1046 2.4636 2 2.56155 2 2.68235V14.7812C2 14.9021 2.1046 15 2.23362 15H12.2032C12.3323 15 12.4369 14.9021 12.4369 14.7812V13.5364H13.7664C13.8954 13.5364 14 13.4384 14 13.3176V2.73119C14 2.67314 13.9754 2.61752 13.9316 2.57648ZM12.3847 1.74684L13.2024 2.51241H12.3847V1.74684ZM2.46725 14.5625V2.9011H10.3543V4.19482C10.3543 4.31562 10.4589 4.41357 10.588 4.41357H11.9696V14.5625H2.46725ZM10.8216 3.21047L11.6392 3.97607H10.8216V3.21047ZM12.4369 13.0989V4.19482C12.4369 4.13679 12.4122 4.08118 12.3684 4.04013L10.7532 2.52767C10.7094 2.48665 10.6499 2.4636 10.588 2.4636H4.03039V1.4375H11.9175V2.73119C11.9175 2.85199 12.0221 2.94994 12.1511 2.94994H13.5328V13.0989H12.4369ZM10.4024 6.42656C10.4024 6.54736 10.2978 6.64531 10.1688 6.64531H4.2681C4.13908 6.64531 4.03448 6.54736 4.03448 6.42656C4.03448 6.30575 4.13908 6.20781 4.2681 6.20781H10.1688C10.2978 6.20781 10.4024 6.30575 10.4024 6.42656ZM10.4024 8.05477C10.4024 8.17557 10.2978 8.27352 10.1688 8.27352H4.2681C4.13908 8.27352 4.03448 8.17557 4.03448 8.05477C4.03448 7.93396 4.13908 7.83602 4.2681 7.83602H10.1688C10.2978 7.83602 10.4024 7.93396 10.4024 8.05477ZM10.4024 9.68301C10.4024 9.80381 10.2978 9.90176 10.1688 9.90176H4.2681C4.13908 9.90176 4.03448 9.80381 4.03448 9.68301C4.03448 9.5622 4.13908 9.46426 4.2681 9.46426H10.1688C10.2978 9.46426 10.4024 9.5622 10.4024 9.68301ZM10.4024 11.3112C10.4024 11.4321 10.2978 11.53 10.1688 11.53H4.2681C4.13908 11.53 4.03448 11.4321 4.03448 11.3112C4.03448 11.1904 4.13908 11.0925 4.2681 11.0925H10.1688C10.2978 11.0925 10.4024 11.1904 10.4024 11.3112ZM10.4024 12.9395C10.4024 13.0603 10.2978 13.1582 10.1688 13.1582H4.2681C4.13908 13.1582 4.03448 13.0603 4.03448 12.9395C4.03448 12.8187 4.13908 12.7207 4.2681 12.7207H10.1688C10.2978 12.7207 10.4024 12.8187 10.4024 12.9395ZM4.03448 4.79832C4.03448 4.67752 4.13908 4.57957 4.2681 4.57957H8.5039C8.63291 4.57957 8.73752 4.67752 8.73752 4.79832C8.73752 4.91913 8.63291 5.01707 8.5039 5.01707H4.2681C4.13908 5.01707 4.03448 4.91913 4.03448 4.79832Z"/>
    </svg>

