
    <svg width="16" height="16" viewBox="0 0 16 16"  xmlns="http://www.w3.org/2000/svg"
>
    <path fill-rule="evenodd" clip-rule="evenodd" d="M2.9963 7.49063H2.62176C2.00124 7.49063 1.49817 7.9937 1.49817 8.61423V13.9825C1.49817 14.3962 1.83351 14.7316 2.24723 14.7316H13.7329C13.9315 14.7316 14.122 14.6526 14.2626 14.5122C14.403 14.3717 14.482 14.1811 14.482 13.9825C14.482 13.0257 14.482 10.9443 14.482 9.98753C14.482 9.78888 14.403 9.59832 14.2626 9.45785C14.122 9.31739 13.9315 9.23847 13.7329 9.23847H13.2335V4.49438C13.2335 4.44032 13.216 4.38777 13.1836 4.34456L10.9364 1.34831C10.8892 1.28545 10.8152 1.24841 10.7366 1.24841H3.74536C3.54671 1.24841 3.35615 1.32733 3.21568 1.4678C3.07522 1.60832 2.9963 1.79883 2.9963 1.99748V7.49063ZM13.7329 9.73782H2.62129C2.39758 9.73782 2.18084 9.67112 1.99752 9.5487V13.9826C1.99752 14.1204 2.10934 14.2322 2.24723 14.2322H13.7329C13.7991 14.2322 13.8626 14.2059 13.9094 14.1591C13.9562 14.1122 13.9825 14.0487 13.9825 13.9825V9.98753C13.9825 9.92131 13.9562 9.85779 13.9094 9.81093C13.8626 9.76413 13.7991 9.73782 13.7329 9.73782ZM7.14737 13.2334V11.5061L8.57137 13.3843C8.63615 13.4698 8.74827 13.5043 8.8499 13.4701C8.95153 13.4359 9.02003 13.3407 9.02003 13.2334V10.7366C9.02003 10.5988 8.90815 10.4869 8.77032 10.4869C8.63255 10.4869 8.52061 10.5988 8.52061 10.7366V12.4908L7.09661 10.6127C7.03183 10.5272 6.91971 10.4926 6.81808 10.5269C6.71645 10.561 6.64795 10.6563 6.64801 10.7635V13.2334C6.64795 13.3713 6.75989 13.4831 6.89766 13.4831C7.03549 13.4831 7.14737 13.3713 7.14737 13.2334ZM10.8927 10.4869H10.892C10.065 10.4869 9.39456 11.1573 9.39456 11.9844V11.985C9.39456 12.8124 10.0653 13.4831 10.8927 13.4831C11.3698 13.4831 11.806 13.2136 12.0194 12.7868L12.0519 12.7217C12.0691 12.6879 12.0787 12.6497 12.0787 12.6093V12.1411C12.0787 12.0032 11.9669 11.8914 11.829 11.8914H10.8927C10.7549 11.8914 10.643 12.0033 10.643 12.1411C10.643 12.2789 10.7549 12.3908 10.8927 12.3908H11.5793V12.5503L11.5727 12.5635C11.4439 12.8211 11.1807 12.9838 10.8927 12.9838C10.3411 12.9838 9.89391 12.5366 9.89391 11.985V11.9844C9.89391 11.4331 10.3408 10.9862 10.892 10.9862H10.8927C11.0393 10.9862 11.1794 11.0284 11.2987 11.1038C11.3756 11.1524 11.4439 11.2147 11.4996 11.2886C11.5826 11.3986 11.7393 11.4205 11.8493 11.3375C11.9593 11.2545 11.9812 11.0978 11.8982 10.9878C11.8059 10.8655 11.6929 10.7621 11.5653 10.6815C11.3677 10.5567 11.1355 10.4869 10.8927 10.4869ZM4.40082 12.3908H5.49056C5.92292 12.3908 6.27342 12.0403 6.27342 11.6079V11.2697C6.27342 10.8374 5.92292 10.4869 5.49056 10.4869C4.93703 10.4869 4.15111 10.4869 4.15111 10.4869C4.01323 10.4869 3.9014 10.5986 3.9014 10.7366V13.2334C3.9014 13.3713 4.01329 13.4831 4.15111 13.4831C4.28888 13.4831 4.40076 13.3713 4.40082 13.2334V12.3908ZM4.40082 11.8914H5.49062C5.64714 11.8914 5.77406 11.7645 5.77406 11.6079V11.2697C5.77406 11.1132 5.64714 10.9862 5.49056 10.9862H4.40082V11.8914ZM12.1001 9.23847H12.7341V4.74408H11.236C10.8223 4.74408 10.4869 4.40868 10.4869 3.99502V1.74783H3.74536C3.67914 1.74783 3.61562 1.77414 3.56882 1.82094C3.52196 1.86774 3.49565 1.93126 3.49565 1.99748V9.23847H4.12978L6.21607 6.79999C6.26353 6.74456 6.33287 6.71268 6.40579 6.71268C6.47878 6.71268 6.54812 6.74456 6.59552 6.79999L7.44927 7.79781L8.96861 6.02205C9.01607 5.96662 9.08534 5.93468 9.15833 5.93468C9.23132 5.93468 9.3006 5.96662 9.34806 6.02205L12.1001 9.23847ZM6.87387 9.23847H11.4428L9.15833 6.56844L6.87387 9.23847ZM4.78698 9.23847H6.21667L7.12064 8.18187L6.40579 7.34639L4.78698 9.23847ZM2.9963 7.98999H2.62176C2.27702 7.98999 1.99752 8.26948 1.99752 8.61423V8.61471C1.99752 8.78016 2.06326 8.93878 2.18024 9.05575C2.29721 9.17273 2.45583 9.23847 2.62129 9.23847H2.9963V7.98999ZM5.74284 3.74531C5.05382 3.74531 4.49442 4.30471 4.49442 4.99373C4.49442 5.68281 5.05382 6.24221 5.74284 6.24221C6.43192 6.24221 6.99132 5.68281 6.99132 4.99373C6.99132 4.30471 6.43192 3.74531 5.74284 3.74531ZM5.74284 4.24467C6.15627 4.24467 6.49191 4.58031 6.49191 4.99373C6.49191 5.40715 6.15627 5.7428 5.74284 5.7428C5.32942 5.7428 4.99378 5.40715 4.99378 4.99373C4.99378 4.58031 5.32942 4.24467 5.74284 4.24467ZM10.9863 2.24718V3.99502C10.9863 4.13291 11.0981 4.24467 11.236 4.24467H12.4844L10.9863 2.24718Z"  />
    </svg>
