<?xml version="1.0" encoding="utf-8"?>
<!-- Generator: Adobe Illustrator 28.2.0, SVG Export Plug-In . SVG Version: 6.00 Build 0)  -->
<svg version="1.1" id="OBJECTS" xmlns="http://www.w3.org/2000/svg" xmlns:xlink="http://www.w3.org/1999/xlink" x="0px" y="0px"
	 viewBox="0 0 500 500" style="enable-background:new 0 0 500 500;" xml:space="preserve">
<style type="text/css">
	.st0{opacity:0.19;}
	.st1{fill:#AACAF9;}
	.st2{fill:#88B4FF;}
	.st3{fill:#A3C9EC;}
	.st4{opacity:0.17;fill:#FFFFFF;enable-background:new    ;}
	.st5{fill:#8CB8ED;}
	.st6{fill:#071330;}
	.st7{fill:#0F1C43;}
	.st8{fill:#061230;}
	.st9{fill:#F59074;}
	.st10{fill:#E26240;}
	.st11{fill:#F3885B;}
	.st12{fill:#4F7AF7;}
	.st13{fill:#254EB7;}
	.st14{fill:#FFFFFF;}
	.st15{opacity:0.54;}
	.st16{opacity:0.5;}
	.st17{fill:#E06338;}
	.st18{fill:#003236;}
	.st19{fill:#E26439;}
	.st20{fill:#E82D1F;}
	.st21{opacity:0.35;fill:#F44A38;enable-background:new    ;}
	.st22{opacity:0.55;}
	.st23{fill:#04137A;}
	.st24{fill:#78ADF9;}
	.st25{fill:#FEBD9F;}
	.st26{fill:#F2A486;}
</style>
<g class="st0">
	<path class="st1" d="M371.2,406.9l-199.1-2.1c-34.4,0.1-68.3-22.6-88.9-57.8c-20.6-35.2-28-81.7-21.2-124.4
		c6.8-42.7,27.4-81,55.3-106.3c17.2-15.6,37.2-26.5,58.3-29.5s43.1,2.4,61.2,16.7c31.4,25,48.4,74.3,82.1,94
		c15.7,9.1,33.3,10.8,50,16.4c32.8,11.1,63.9,43.2,68.2,85.8c3.1,31.3-4.9,54.6-21.5,79.2C401.9,399.3,391.1,409.2,371.2,406.9"/>
</g>
<path class="st2" d="M432.7,413.3H65.9c-1,0-1.8-0.8-1.8-1.8l0,0c0-1,0.8-1.8,1.8-1.8h366.9c1,0,1.8,0.8,1.8,1.8l0,0
	C434.5,412.5,433.7,413.3,432.7,413.3L432.7,413.3z"/>
<g>
	<path class="st1" d="M381.3,335.6c8.7,0.7,16.4,0.5,24.9,0.5c6.6,0,14-0.7,20-3.4c6.9-3.1,11.8-9.5,14.8-16.4s4-14.5,4.9-22
		c1.4-11.8,2.2-23.7,1.1-35.5c-1.8,1.9-2,4.8-2.2,7.5c-0.6,9.6-2,19.2-4.1,28.7c-1.3,5.9-2.3,12.1-5.3,17.3
		c-2.5,4.5-5.2,7.9-8.9,11.5c-1.5,1.4-4.4,3.1-6.1,4.1c-1.9,1.1-4,1.7-6.2,2.3c-9.4,2.4-19,3.4-28.7,3.1c-1,0-2.1-0.1-3.1,0.2
		c-1,0.3-1.9,1.1-2.1,2.1"/>
	<g>
		<path class="st1" d="M383.3,407.6c0,1.4-1.2,2.6-2.6,2.6s-2.6-1.2-2.6-2.6s1.2-2.6,2.6-2.6S383.3,406.2,383.3,407.6z"/>
		<path class="st1" d="M413.8,408c0,1.4-1.2,2.6-2.6,2.6s-2.6-1.2-2.6-2.6s1.2-2.6,2.6-2.6S413.8,406.5,413.8,408z"/>
		<path class="st1" d="M444.3,407.6c0,1.4-1.2,2.6-2.6,2.6s-2.6-1.2-2.6-2.6s1.2-2.6,2.6-2.6S444.3,406.2,444.3,407.6z"/>
		<path class="st1" d="M442.4,405.9c-4.3-6-9.3-10.8-15.1-14.4c-2.7-1.6-5.4-3-8.2-4.2c-2-0.8-4-1.7-6.1-2.2c0,0,0-0.1,0-0.1v-49.3
			c0-2.2-2.9-2.2-2.9,0V385c0,0,0,0.1,0,0.1c-2.1,0.5-4.2,1.4-6.2,2.2c-2.8,1.2-5.5,2.6-8.2,4.2c-5.9,3.6-10.9,8.4-15.1,14.4
			c-1,1.4,0.7,3.5,1.7,2c4.1-5.8,9-10.4,14.7-13.9c2.5-1.6,5.1-2.9,7.8-4c1.8-0.7,3.6-1.5,5.5-2c0,7-0.1,14-0.1,21
			c0,1.7,2.6,1.7,2.6,0c0-7,0.1-14,0.1-21c1.8,0.5,3.6,1.3,5.4,2c2.7,1.1,5.3,2.4,7.8,4c5.7,3.5,10.5,8.1,14.7,13.9
			C441.7,409.4,443.4,407.3,442.4,405.9L442.4,405.9z"/>
	</g>
</g>
<g>
	<g>
		<path class="st3" d="M360.1,283.8c14,41.6,28.4,83,43.3,124.2c0.8,2.1,4.1,1.2,3.3-0.9c-14.9-41.2-29.4-82.6-43.3-124.2
			C362.7,280.7,359.4,281.7,360.1,283.8L360.1,283.8L360.1,283.8z"/>
		<path class="st1" d="M99.2,279.8h325.6c0.8,0,1.4,0.6,1.4,1.4v1.9c0,0.8-0.6,1.4-1.4,1.4H99.2c-0.8,0-1.4-0.6-1.4-1.4v-1.9
			C97.8,280.4,98.4,279.8,99.2,279.8z"/>
		<path class="st1" d="M165.6,283.8c-14,41.6-28.4,83-43.3,124.2c-0.8,2.1-4.1,1.2-3.3-0.9c14.9-41.2,29.4-82.6,43.3-124.2
			C163,280.7,166.3,281.7,165.6,283.8L165.6,283.8L165.6,283.8z"/>
	</g>
	<g>
		<path class="st1" d="M195.4,211.6h74.1c1.3,0,2.3,1,2.3,2.3v50.3c0,1.3-1,2.3-2.3,2.3h-74.1c-1.3,0-2.3-1-2.3-2.3v-50.3
			C193.1,212.6,194.2,211.6,195.4,211.6z"/>
		<path class="st4" d="M226.8,211.6c-7.7,13.9-22.8,41.4-29,54.9h37.7l15.3-54.9L226.8,211.6L226.8,211.6z"/>
		<rect x="220.8" y="245.5" class="st5" width="25.2" height="34.3"/>
		<path class="st5" d="M235.4,234.9c0,1.6-1.3,2.9-2.9,2.9s-2.9-1.3-2.9-2.9s1.3-2.9,2.9-2.9S235.4,233.3,235.4,234.9z"/>
	</g>
	<g>
		<g>
			<path class="st1" d="M322.4,210.4c0,1.4,1.1,2.5,2.5,2.5s2.5-1.1,2.5-2.5s-1.1-2.5-2.5-2.5S322.4,209,322.4,210.4z"/>
			<path class="st1" d="M295.6,275h25.8c2.4,0,4.4,2.2,4.4,5h-34.5C291.2,277.3,293.2,275,295.6,275L295.6,275z"/>
			<polygon class="st5" points="310.7,276.2 325.9,210.1 325.6,209.8 290.8,165.8 289.2,167.1 323.8,210.6 308.7,275.8 			"/>
		</g>
		<g>
			<g>
				<circle class="st5" cx="272.9" cy="180.2" r="6.7"/>
				<path class="st5" d="M278.7,176.7c0.6,1,1,2.2,1,3.5c0,3.7-3,6.7-6.7,6.7c-3.5,0-6.3-2.6-6.7-6
					C270.9,182.1,276,181.2,278.7,176.7z"/>
			</g>
			<path class="st1" d="M286.3,169.4L286.3,169.4c0.9,1.1,2.5,1.3,3.6,0.4l3.4-2.7c1.1-0.9,1.3-2.5,0.4-3.6l0,0
				c-0.9-1.1-2.5-1.3-3.6-0.4l-3.4,2.7C285.6,166.7,285.4,168.3,286.3,169.4z"/>
			<path class="st1" d="M291.8,198.4c0,0,8.5-20.2-6.2-32.7c-13.6-11.6-28.1-2.7-30.4-2.3L291.8,198.4L291.8,198.4z"/>
		</g>
	</g>
</g>
<g>
	<g>
		<g>
			<path class="st1" d="M373.1,240.4c4.6-4.1,6.8-11.6,5.4-17.6s-5.4-11.2-10.4-14.9c-3.8-2.9-8.6-5.1-13.3-4.3
				c-1.4,0.2-2.7,0.8-3.8,1.5c-1.4,0.9-2.6,2.1-3.3,3.6c-1.1,2.5-0.3,5.5,1.2,7.9c0.6,1,1.4,1.9,1.7,2.9c0.4,1.3,0.2,2.8,0.3,4.1
				c0.2,3.5,2,6.8,4.5,9.3s4,3.4,7.1,5.1C364.9,239.3,370.4,240.6,373.1,240.4"/>
			<g class="st22">
				<path class="st2" d="M378.5,222.8c-0.6-2.6-1.7-4.9-3.1-7.2c-0.2,1.4-0.5,2.7-0.7,4.1c-0.6,2.8-1.2,6-2.3,8.7
					c-1.1,2.6-3.3,3.2-5.8,2.2c-1.4-0.6-2.6-1.4-4.1-1.8c-1.5-0.4-2.5-0.8-3.6-2c-1.9-2.1-2.8-4.8-3.4-7.5c-0.7-3.2-1.7-6-3-8.9
					c-0.7-1.5-1.5-3.2-1.8-5c-1.2,0.8-2.3,2-2.9,3.3c-1.1,2.5-0.3,5.5,1.2,7.9c0.6,1,1.4,1.9,1.7,2.9c0.4,1.3,0.2,2.8,0.3,4.1
					c0.2,3.5,2,6.8,4.5,9.3s4,3.4,7.1,5.1c2.4,1.3,7.9,2.6,10.5,2.4C377.7,236.3,379.9,228.8,378.5,222.8L378.5,222.8z"/>
			</g>
			<path class="st23" d="M374.7,257.3c0.3-5.7-0.2-11.4-1.6-16.9c-0.3-1.3-0.7-2.5-1.1-3.7c-0.1-0.2-0.2-0.5-0.2-0.7
				c0,0,0-0.1,0-0.1l0,0c-0.5-1.5-1.1-3.1-1.7-4.6c-0.6-1.4-1.2-2.8-1.9-4.1c0,0,0-0.1,0.1-0.1c0.1-1.7-0.1-3.4-0.6-5
				c-0.1-0.2-0.4-0.1-0.3,0.1c0.4,1.5,0.6,3,0.6,4.5c-1.2-2.3-2.5-4.6-3.9-6.8c-2.4-3.6-5.1-7-8.1-10.1c-0.1-0.2-0.4,0.1-0.2,0.2
				c1.7,1.7,3.3,3.6,4.8,5.4c0.8,1.1,1.6,2.1,2.4,3.2c-1-0.2-1.9-0.3-2.9-0.4c-0.2,0-0.2,0.3,0,0.3c1.1,0.1,2.1,0.2,3.2,0.4
				c1.6,2.3,3,4.7,4.3,7.2c1,1.9,1.8,3.8,2.6,5.8c-1.9-0.7-3.8-1.4-5.6-2.3c-0.2-0.1-0.4,0.2-0.2,0.3c1.9,1,3.9,1.7,5.9,2.4
				c0.4,1.1,0.8,2.2,1.2,3.3c0,0.1,2.8,8.3,3,16.8c0,1.6,0,3.1-0.1,4.7C374.3,257.5,374.7,257.6,374.7,257.3L374.7,257.3z"/>
		</g>
		<g>
			<path class="st2" d="M383.8,244.7c-3.5-6.6-3.7-14.8-0.7-21.6c1.7-3.8,4.4-7.2,8.2-8.9c1.3-0.6,2.7-0.9,4.1-0.8
				c1.4,0.1,2.8,0.6,3.8,1.7c1.9,1.9,2,4.9,1.6,7.5c-0.7,5.1-2.7,9.9-5.7,14.1C392.2,240.8,388.2,242.2,383.8,244.7"/>
			<path class="st24" d="M381.2,229.8c0.2,1.3,0.6,2.7,1.4,4c1.9,3.5,5,1.3,7.5-0.2c3-1.7,5.8-3.5,7.3-6.8c1.7-3.7,1.5-7.9,1.5-11.9
				c0.1,0.1,0.2,0.1,0.2,0.2c1.9,1.9,2,4.9,1.6,7.5c-0.7,5.1-2.7,9.9-5.7,14.1s-6.9,5.5-11.4,8C381.3,240.2,380.5,234.9,381.2,229.8
				L381.2,229.8z"/>
			<path class="st23" d="M383.6,256.2c-0.5-4.5-0.4-9.1,0.4-13.6c0.2-1,0.4-2,0.7-3.1c0-0.2,0.1-0.4,0.1-0.6c0,0,0-0.1,0-0.1l0,0
				c0.3-1.3,0.7-2.5,1.1-3.7c0.4-1.1,0.8-2.3,1.3-3.4c0,0,0-0.1,0-0.1c-0.1-1.3-0.1-2.7,0.2-4c0-0.2,0.3-0.1,0.3,0.1
				c-0.2,1.2-0.3,2.4-0.2,3.6c0.8-1.9,1.7-3.8,2.8-5.6c1.7-3,3.7-5.9,6-8.5c0.1-0.1,0.3,0.1,0.2,0.2c-1.3,1.5-2.4,3-3.5,4.6
				c-0.6,0.9-1.2,1.8-1.7,2.7c0.8-0.2,1.5-0.4,2.3-0.4c0.2,0,0.2,0.2,0,0.3c-0.9,0.1-1.7,0.3-2.5,0.5c-1.1,1.9-2.2,3.9-3.1,6
				c-0.7,1.6-1.3,3.1-1.8,4.7c1.5-0.6,3-1.3,4.4-2.1c0.1-0.1,0.3,0.1,0.1,0.2c-1.5,0.9-3,1.6-4.6,2.3c-0.3,0.9-0.5,1.8-0.8,2.7
				c0,0.1-1.8,6.8-1.5,13.6c0,1.3,0.1,2.5,0.3,3.8C384,256.4,383.6,256.4,383.6,256.2L383.6,256.2z"/>
		</g>
		<g>
			<path class="st25" d="M394.4,255.4c0.1-0.5-0.3-0.9-0.8-0.9h-29.5c-0.5,0-0.9,0.4-0.8,0.9l0.8,4.2c0.1,0.6,0.6,1,1.3,1h26.7
				c0.7,0,1.3-0.5,1.5-1.2L394.4,255.4L394.4,255.4z"/>
			<path class="st25" d="M365.8,260.3l3.7,18.3c0.1,0.3,0.4,0.6,0.7,0.6h17.8c0.3,0,0.6-0.2,0.7-0.6l3.5-18.3L365.8,260.3
				L365.8,260.3z"/>
			<path class="st26" d="M388.9,277.2l3.3-16.9h-26.4l0.1,0.7C374.6,264.4,385.5,268,388.9,277.2L388.9,277.2z"/>
		</g>
	</g>
</g>
</svg>
