<?xml version="1.0" encoding="utf-8"?>
<!-- Generator: Adobe Illustrator 28.2.0, SVG Export Plug-In . SVG Version: 6.00 Build 0)  -->
<svg version="1.1" id="OBJECTS" xmlns="http://www.w3.org/2000/svg" xmlns:xlink="http://www.w3.org/1999/xlink" x="0px" y="0px"
	 viewBox="0 0 500 500" style="enable-background:new 0 0 500 500;" xml:space="preserve">
<style type="text/css">
	.st0{opacity:0.19;}
	.st1{fill:#AACAF9;}
	.st2{fill:#88B4FF;}
	.st3{fill:#A3C9EC;}
	.st4{opacity:0.17;fill:#FFFFFF;enable-background:new    ;}
	.st5{fill:#8CB8ED;}
	.st6{fill:#071330;}
	.st7{fill:#0F1C43;}
	.st8{fill:#061230;}
	.st9{fill:#F59074;}
	.st10{fill:#E26240;}
	.st11{fill:#F3885B;}
	.st12{fill:#4F7AF7;}
	.st13{fill:#254EB7;}
	.st14{fill:#FFFFFF;}
	.st15{opacity:0.54;}
	.st16{opacity:0.5;}
	.st17{fill:#E06338;}
	.st18{fill:#003236;}
	.st19{fill:#E26439;}
	.st20{fill:#E82D1F;}
	.st21{opacity:0.35;fill:#F44A38;enable-background:new    ;}
	.st22{opacity:0.55;}
	.st23{fill:#04137A;}
	.st24{fill:#78ADF9;}
	.st25{fill:#FEBD9F;}
	.st26{fill:#F2A486;}
</style>
<g>
	<path class="st6" d="M318.1,249.5c-6,3.1-9.6,10.2-8.7,16.9c0.3,2.2,1.1,4.4,0.8,6.7c-0.3,2.8-2,5.1-3.4,7.5
		c-2,3.4-3.4,7.2-3.8,11.2c-0.4,4,0.3,8,2.2,11.5c1.6,2.9,4.1,5.4,7.3,6.4c1.3,0.4,2.7,0.5,4,0.1c1.3-0.4,2.5-1.2,3.4-2.2
		c2.9-3.1,3.1-7.9,2.3-12.1c-0.8-4.2,2.9-3.3,2.1-7.5c-1.6-9-3.7-23.3-5.9-32.2"/>
	<g>
		<path class="st7" d="M404.1,381.1c-0.9-2.4,4.9-4.2,2.5-5.1c-9.1-3.3-27.4-3.6-37.2-3c-1.3,0.1-2.6,0.2-3.9,0.3
			c-3.2,0.3-6.4-1.1-8.3-3.7c-4.5-5.9-8.7-9.7-9.7-10.7c-21.1,4.3-35.9,0.2-35.9,0.2c-3.5,3.6-6.4,7.2-8.7,10.5
			c-1.7,2.4-4.5,3.6-7.3,3.5c-0.3,0-0.6,0-0.9-0.1c-10.1-0.6-32.6,0.1-42,3.6c-2.5,0.9,7.1,2.4,6.2,4.9c-0.8,2.3,0.2,4.9,2,6.5
			c1.8,1.7,4.1,2.6,6.4,3.5c18.2,6.7,38.2,8.8,57.4,6.2c3.2-0.4,6.4-1,9.5-1.9c2,0.5,4.1,0.8,6.2,1.1c18.7,2.5,38,0.4,55.6-6
			c2.2-0.8,4.5-1.7,6.2-3.4C403.9,385.8,404.9,383.3,404.1,381.1L404.1,381.1z"/>
		<path class="st8" d="M384.3,391.7c4-2.1,14.2-7.1,11.9-11c-0.8-1.3-1.2-2.9-2.5-3.6c-5.6-2.9-21.6-0.1-28-0.1
			c-39-0.1-46.4,9.2-69,1.8c-3.6-1.2-7.3-2.6-11.1-2.8c-3.8-0.2-22.2-2-24.5,1.2c0,0,12.1,5.2,28.8,12
			C334.8,407.7,384.3,391.8,384.3,391.7L384.3,391.7z"/>
		<path class="st7" d="M320.2,399.8c11.5-3.2,22.8-6.9,33.8-11.3c8.4-3.4,16.7-7,25.4-9.6c8.8-2.6,18.2-4.1,27.3-2.8
			c4.6,0.6,9.5,2.4,11.3,6c1.3,2.5,0.7,5.5-0.6,8c-2.1,3.9-5.9,6.9-10,9.3c-8.4,4.8-18.1,7.4-28,8.6s-20,1.1-29.9,0.7
			c-14.4-0.6-28.8-1.6-43.2-3.2"/>
		<g>
			<path class="st9" d="M341.5,400c0,0,3.2-0.3,5.9-2.2c2.6-1.9,5.3-1.5,6.6,1.5c1.3,3,1.8,6.2,7.2,9.5s7.5,7.5,6.5,8.1
				c-1,0.6-3.9-2-6.7-3c-4.6-1.6-13-5.3-14.2-6c-1.2-0.7-7.1-1.1-7.1-1.1"/>
			<path class="st10" d="M353.9,405c1.5,2.2,3.9,3.5,6.3,4.6c1.9,0.9,3.8,1.8,5.5,2.7c-1.1-1.2-2.6-2.4-4.5-3.6
				c-5.5-3.2-5.9-6.5-7.2-9.5c-0.3-0.7-0.7-1.2-1.1-1.6C352.8,400.2,352.3,402.5,353.9,405L353.9,405z"/>
		</g>
		<path class="st7" d="M341.4,406.9c-14.8,1.5-12,1.2-26.9,1.8c-10.3,0.4-20.7,0.5-30.9-0.7c-10.2-1.2-20.3-3.8-28.9-8.6
			c-4.3-2.4-8.2-5.4-10.4-9.3c-1.4-2.5-1.9-5.5-0.6-8c1.9-3.7,7-5.4,11.7-6c9.4-1.3,19.1,0.2,28.1,2.8c9,2.6,17.5,6.3,26.2,9.6
			c11.3,4.4,20.6,8.3,32.5,11.4c0,0-0.5,1.7-0.8,3.7C341.3,405.6,341.4,406.9,341.4,406.9L341.4,406.9z"/>
	</g>
	<g>
		<path class="st11" d="M312.8,302.3c1.8,3.1,3.6,6.4,6.3,8.7c3.7,3.2,8,3.5,12.8,3.3c7.4-0.2,11.6-7.1,13.8-13.5
			c-1-0.2-1.9-0.5-2.9-0.8c-1.7-0.5-3.5-1.2-4.8-2.4c-2.1-1.9-3.7-5-3.6-7.8s-0.4-5.6-0.2-8.4h-5.2
			C329.7,284.8,332.3,301.1,312.8,302.3L312.8,302.3z"/>
		<path class="st10" d="M312.8,302.3c20.2-1.3,23.9-19.1,23.1-22.5l-13.6,1.5c0.2,2.8,0.5,5.8,0.6,8.6c0,2.8-1.2,5.8-3.3,7.7
			c-1.3,1.2-3.1,1.9-4.8,2.4c-0.9,0.3-1.9,0.5-2.8,0.8C312.3,301.3,312.5,301.8,312.8,302.3L312.8,302.3z"/>
	</g>
	<g>
		<path class="st11" d="M319.5,258.9c-5.2,2.1-5.4,14-3.2,20.4c1,2.8,2.3,5.4,4.4,7.5c2,2.1,4.9,3.5,7.8,3.3c2.6-0.1,5-1.5,6.8-3.5
			c1.8-1.9,3-4.3,3.9-6.8c2.9-7.6,3.2-16.1,0.9-23.8"/>
		<g>
			<path class="st11" d="M315.8,273.9c0.1-0.9-0.6-1.7-1.3-2.2c-0.4-0.2-0.8-0.4-1.3-0.4c-0.8,0-1.5,0.6-1.8,1.3
				c-0.3,0.7-0.3,1.5-0.1,2.3c0.4,1.8,1.7,3.4,3.5,3.9c0.7,0.2,1.5,0.2,2.1-0.3"/>
			<path class="st10" d="M313.1,272.9c-0.9,0.6-1.2,2.1-0.5,3c0.2,0.3,0.6,0.5,0.8,0.2c0.1-0.2,0.1-0.4,0-0.6
				c-0.1-0.4,0-0.9,0.3-1.3c0.2-0.2,0.4-0.4,0.5-0.7C314.3,273.2,314.1,272.4,313.1,272.9"/>
		</g>
	</g>
	<g>
		<path class="st9" d="M272.4,365.2c0,0-12.2,3.4-14.4,5.3c-2.2,2-10.9,5.9-14.2,1.7s-2.9-7.5-1.2-9.7s3.5-4.4,4-3.7
			c0.5,0.7,0.6,2.7,0.1,3.9c-0.5,1.2-1,2.6,0.1,3.6s4.6-0.3,4.4-1.3s-4-3.8-4.1-6c-0.1-2.2,1.5-0.5,2.5,0.2c1.1,0.7,5.4,1.5,7,3.5
			c0,0,9.6-2.8,11-4.3"/>
		<path class="st9" d="M387.1,364.7c0,0,12.2,3.4,14.4,5.3c2.2,2,10.9,5.9,14.2,1.7s2.9-7.5,1.2-9.7s-3.5-4.4-4-3.7
			c-0.5,0.7-0.6,2.7-0.1,3.9s1,2.6-0.1,3.6s-4.6-0.3-4.4-1.3c0.2-1.1,4-3.8,4.1-6s-1.5-0.5-2.5,0.2c-1,0.7-5.4,1.5-7,3.5
			c0,0-9.6-2.8-11-4.3"/>
		<g>
			<g>
				<path class="st12" d="M379.7,344.9c-3.8-2.8-6.6-6.6-8.3-11c-3-7.9-7.8-20.6-10.2-24.3c-3.1-5-6.2-7-6.8-7.3c0,0,0-0.1,0-0.1
					l-11.7-2.2c-14.1,15.3-25.3-1-25.3-1l-12.2,3.7c0,0-3.4,1.8-6.9,7.4c-2.4,3.8-7.2,16.4-10.2,24.3c-1.6,4.4-4.5,8.2-8.3,11
					l-21.8,16l3.5,8.8c0,0,29-3.8,40.3-15.8c2.8-3,4.4-7.6,5.2-12.9c0,0.1,0,0.3,0,0.5c0.3,13.8,4.5,17.2,4.5,17.2
					c16.7,7.5,27.8,1.1,35.9-0.2c3.1-0.5,5.2-5.1,6.6-11c0.9,2.4,2,4.4,3.5,6c11.2,12,40.3,15.8,40.3,15.8l3.5-8.8L379.7,344.9
					L379.7,344.9z"/>
				<g>
					<path class="st13" d="M353.9,348.5c-5.5,6-15.4,7.5-22.8,4.5c-4.8-2-9.4-1.4-14.2-2.9c-3.7-1.2-7-3.7-9.6-6.6
						c0,0-0.1,0.1-0.1,0.1c0.6,12.4,4.5,15.5,4.5,15.5c16.7,7.5,27.8,1.1,35.9-0.2c3-0.5,5.1-4.9,6.5-10.6
						C354,348.3,353.9,348.4,353.9,348.5L353.9,348.5z"/>
					<path class="st13" d="M379.4,360.2c-8.6-3.3-16.5-7.6-24.2-12.7c-0.1-0.1-0.3-0.2-0.4-0.3c-0.2,0.3-0.3,0.6-0.6,0.9
						c0.9,2.3,2,4.3,3.4,5.8c11.2,12,40.3,15.8,40.3,15.8l1.7-4.2C392.6,366.3,386.2,362.8,379.4,360.2L379.4,360.2z"/>
					<path class="st13" d="M298.2,350.6c-4.5,3.4-8,7-13.1,9.7c-5.1,2.8-10.7,5-16.1,7.1c-3.5,1.4-6.1,1.1-8.7-0.1l1.2,2.9
						c0,0,29-3.8,40.3-15.8c2.3-2.4,3.7-6,4.7-10.1C304.1,346.7,301,348.5,298.2,350.6L298.2,350.6z"/>
				</g>
			</g>
			<g>
				<g>
					<path class="st14" d="M329.9,306.3c0,2-0.6,5.5-2,7c-1.4,1.5-4.3,2.3-6.2,1.5c-1.9-0.8-3.1-1.9-4.2-3.7
						c-2.3-3.6-3.5-7.1-3.5-11.3l4-1.3C318,298.5,324.3,306.1,329.9,306.3"/>
					<path class="st14" d="M329.9,306.3c0.1,2,0.8,5.5,2.2,6.9c1.5,1.5,4.4,2.2,6.3,1.2c1.9-0.9,3.1-2,4.1-3.8
						c2.1-3.7,3.2-7.2,3-11.4l-4.1-1.2C341.4,298.1,335.5,305.8,329.9,306.3"/>
				</g>
				<g class="st15">
					<path class="st14" d="M329.8,313.4c1.7,12,0.4,24.1,0.1,36.2c-0.1,3.4,0,6.8,0.2,10.1c0,0.6,0.9,0.6,0.9,0
						c-0.7-12.1,0.9-24.2,0.5-36.4c-0.1-3.4-0.4-6.8-0.8-10.2C330.6,312.6,329.7,312.8,329.8,313.4L329.8,313.4L329.8,313.4z"/>
				</g>
				<path class="st14" d="M306.9,313.6c1.1,0,1.1-1.8,0-1.8S305.8,313.6,306.9,313.6L306.9,313.6z"/>
				<path class="st14" d="M300,325.9c1.1,0,1.1-1.8,0-1.8S298.9,325.9,300,325.9L300,325.9z"/>
				<path class="st14" d="M314.4,334.2c1.1,0,1.1-1.8,0-1.8S313.3,334.2,314.4,334.2L314.4,334.2z"/>
				<path class="st14" d="M322.6,321.6c1.1,0,1.1-1.8,0-1.8S321.5,321.6,322.6,321.6L322.6,321.6z"/>
				<path class="st14" d="M293.8,337.9c1.1,0,1.1-1.8,0-1.8S292.6,337.9,293.8,337.9L293.8,337.9z"/>
				<path class="st14" d="M317.2,347c1.1,0,1.1-1.8,0-1.8S316,347,317.2,347L317.2,347z"/>
				<path class="st14" d="M314.1,357.6c1.1,0,1.1-1.8,0-1.8S313,357.6,314.1,357.6L314.1,357.6z"/>
				<path class="st14" d="M326.8,358.6c1.1,0,1.1-1.8,0-1.8S325.6,358.6,326.8,358.6L326.8,358.6z"/>
				<path class="st14" d="M326.3,337.3c1.1,0,1.1-1.8,0-1.8S325.1,337.3,326.3,337.3L326.3,337.3z"/>
				<path class="st14" d="M339.4,322.1c1.1,0,1.1-1.8,0-1.8S338.3,322.1,339.4,322.1L339.4,322.1z"/>
				<path class="st14" d="M336.5,337.6c1.1,0,1.1-1.8,0-1.8S335.4,337.6,336.5,337.6L336.5,337.6z"/>
				<path class="st14" d="M346.8,342.1c1.1,0,1.1-1.8,0-1.8S345.6,342.1,346.8,342.1L346.8,342.1z"/>
				<path class="st14" d="M338.6,353.8c1.1,0,1.1-1.8,0-1.8S337.5,353.8,338.6,353.8L338.6,353.8z"/>
				<path class="st14" d="M350.6,325.3c1.1,0,1.1-1.8,0-1.8S349.5,325.3,350.6,325.3L350.6,325.3z"/>
				<path class="st14" d="M355.4,311.7c1.1,0,1.1-1.8,0-1.8S354.3,311.7,355.4,311.7L355.4,311.7z"/>
				<path class="st14" d="M363.4,330.2c1.1,0,1.1-1.8,0-1.8S362.3,330.2,363.4,330.2L363.4,330.2z"/>
				<path class="st14" d="M354.6,341c1.1,0,1.1-1.8,0-1.8S353.5,341,354.6,341L354.6,341z"/>
				<path class="st14" d="M364.7,354.4c1.1,0,1.1-1.8,0-1.8S363.5,354.4,364.7,354.4L364.7,354.4z"/>
				<path class="st14" d="M372,344.2c1.1,0,1.1-1.8,0-1.8S370.9,344.2,372,344.2L372,344.2z"/>
				<path class="st14" d="M382.1,355.5c1.1,0,1.1-1.8,0-1.8S381,355.5,382.1,355.5L382.1,355.5z"/>
				<path class="st14" d="M374.6,361.9c1.1,0,1.1-1.8,0-1.8S373.5,361.9,374.6,361.9L374.6,361.9z"/>
				<path class="st14" d="M391.1,364.8c1.1,0,1.1-1.8,0-1.8S390,364.8,391.1,364.8L391.1,364.8z"/>
				<path class="st14" d="M302.3,344.8c1.1,0,1.1-1.8,0-1.8S301.1,344.8,302.3,344.8L302.3,344.8z"/>
				<path class="st14" d="M292.8,357.8c1.1,0,1.1-1.8,0-1.8S291.7,357.8,292.8,357.8L292.8,357.8z"/>
				<path class="st14" d="M289.6,347.8c1.1,0,1.1-1.8,0-1.8S288.5,347.8,289.6,347.8L289.6,347.8z"/>
				<path class="st14" d="M277.5,350.7c1.1,0,1.1-1.8,0-1.8S276.3,350.7,277.5,350.7L277.5,350.7z"/>
				<path class="st14" d="M278.9,360.5c1.1,0,1.1-1.8,0-1.8S277.8,360.5,278.9,360.5L278.9,360.5z"/>
				<path class="st14" d="M266.9,358.7c1.1,0,1.1-1.8,0-1.8S265.8,358.7,266.9,358.7L266.9,358.7z"/>
				<path class="st14" d="M263.5,366.7c1.1,0,1.1-1.8,0-1.8S262.4,366.7,263.5,366.7L263.5,366.7z"/>
			</g>
		</g>
	</g>
	<path class="st6" d="M315.4,253.2c0.9,3.1,2.9,5.8,5.6,7.6c5.2,3.4,12.6,3,16.9,7.5c1.9,2.1,2.9,5,2.5,7.8c-0.7,5.2-5.6,9-7,14.1
		c-0.7,2.3-0.6,4.9-0.1,7.2c0.6,2.9,1.7,5.8,3.6,8c3.2,3.6,8.8,5.1,13.3,3.3s7.6-6.8,7-11.6c-0.2-2-1-4-1.2-6c-0.3-3.2,1-6.4,2-9.5
		s1.9-6.5,0.7-9.5c-1.2-3-4-4.9-5.6-7.7c-2.1-3.7-1.6-8.5-3.6-12.3c-1.5-2.9-4.3-4.9-7.2-6.4c-6.8-3.4-15.2-4.1-21.9-0.5
		c-2.6,1.4-5,3.8-5.3,6.8"/>
</g>
</svg>
