<?xml version="1.0" encoding="utf-8"?>
<!-- Generator: Adobe Illustrator 28.2.0, SVG Export Plug-In . SVG Version: 6.00 Build 0)  -->
<svg version="1.1" id="OBJECTS" xmlns="http://www.w3.org/2000/svg" xmlns:xlink="http://www.w3.org/1999/xlink" x="0px" y="0px"
	 viewBox="0 0 500 500" style="enable-background:new 0 0 500 500;" xml:space="preserve">
<style type="text/css">
	.st0{opacity:0.19;}
	.st1{fill:#AACAF9;}
	.st2{fill:#88B4FF;}
	.st3{fill:#A3C9EC;}
	.st4{opacity:0.17;fill:#FFFFFF;enable-background:new    ;}
	.st5{fill:#8CB8ED;}
	.st6{fill:#071330;}
	.st7{fill:#0F1C43;}
	.st8{fill:#061230;}
	.st9{fill:#F59074;}
	.st10{fill:#E26240;}
	.st11{fill:#F3885B;}
	.st12{fill:#4F7AF7;}
	.st13{fill:#254EB7;}
	.st14{fill:#FFFFFF;}
	.st15{opacity:0.54;}
	.st16{opacity:0.5;}
	.st17{fill:#E06338;}
	.st18{fill:#003236;}
	.st19{fill:#E26439;}
	.st20{fill:#E82D1F;}
	.st21{opacity:0.35;fill:#F44A38;enable-background:new    ;}
	.st22{opacity:0.55;}
	.st23{fill:#04137A;}
	.st24{fill:#78ADF9;}
	.st25{fill:#FEBD9F;}
	.st26{fill:#F2A486;}
</style>
<g>
	<path class="st11" d="M180,101.8c0,0,1.3,1.9,3.2,4.9c0.1-0.1,0.2-0.2,0.4-0.3c2-1.7,3.7-3.6,5.5-5.5c-0.5-0.5-0.9-0.9-1.3-1.2
		c-5.1-4.4-8.6-13.6-9.9-20s-3.1-3.2-3.1-3.2s0.9,15.8,0.6,19.5C175,99.6,180,101.7,180,101.8L180,101.8z"/>
	<path class="st11" d="M170.9,101.8c0,0-1.3,1.9-3.2,4.9c-0.1-0.1-0.2-0.2-0.4-0.3c-2-1.7-3.7-3.6-5.5-5.5c0.5-0.5,0.9-0.9,1.3-1.2
		c5.1-4.4,8.6-13.6,9.9-20s3.1-3.2,3.1-3.2s-0.9,15.8-0.6,19.5C175.9,99.6,170.9,101.7,170.9,101.8L170.9,101.8z"/>
	<g>
		<g>
			<path class="st11" d="M167.9,150.7c0.8,2.4,2,6.9,0.7,9.1s-2.3,3.8-9.1,5c1.2,3.5,5.9,14,9.5,15.2s9.2,1.1,12.3-1
				c1.9-1.2,5.4-12.2,6.9-13.8c-3.6-0.6-7-2.3-8-4.7s-0.9-5.4,0.2-7.8"/>
			<g class="st16">
				<path class="st17" d="M162.2,164.4c6-0.2,16-1.5,17.3-8.9c0.2-1.4,0.5-2.5,1.3-3.1l-12.9-1.6c0.8,2.4,2,6.9,0.7,9.1
					s-2.3,3.8-9.1,5c0,0.1,0.1,0.2,0.1,0.2C160.3,164.7,161.2,164.4,162.2,164.4L162.2,164.4z"/>
			</g>
		</g>
		<g>
			<path class="st11" d="M190.8,139c-0.2-0.8-0.5-1.5-1.2-1.9c-0.8-0.4-1.7-0.1-2.5,0.3c0-4.1-0.8-8.1-2.1-12l-23.1,1
				c-0.3,2.5-1.1,8.2-1,10.7c-0.6-0.2-1.2-0.3-1.8,0c-0.7,0.4-1.1,1.1-1.2,1.9c-0.4,1.8,0.1,3.7,1.3,5.1c0.9,1.1,2.1,1.8,3.4,2.1
				c1,2.9,2.5,5.2,5.4,7.9c0.8,0.8,1.9,1.2,2.9,1.7c1.4,0.6,2.8,1.2,4.3,1.1c1-0.1,2-0.6,2.9-1.1c3.4-2.1,6-5.5,7.4-9.4
				c1.5-0.2,3-1.1,4-2.2C190.7,142.7,191.1,140.8,190.8,139L190.8,139z"/>
			<g>
				<g>
					<path class="st18" d="M172,133.4c-4.9-1.4-7.2-0.5-9.6,1.1c2.2-0.1,3.1-0.3,5.3,0c0.5,0.1,1.8,0.1,2.3,0.2
						c0.5,0.1,1.5,0.1,1.9-0.1C172.4,134.3,172.7,133.8,172,133.4"/>
					<path class="st19" d="M174.9,137.4c-0.2,1.9,0.2,3.9,1.4,5.4c0.1,0.2,0.3,0.4,0.4,0.5c0.1,0.1,0.1,0,0,0.1
						c-0.1,0.1-0.2,0.1-0.3,0.2c-0.3,0.2-0.7,0.2-1,0.3c-0.3,0-0.6,0-0.9,0c-0.2,0-0.4,0-0.5,0c-0.6,0.1-0.3,1,0.2,0.9
						c-0.2,0,0,0,0.1,0c0.1,0,0.3,0,0.4,0c0.4,0,0.7,0,1.1-0.1c0.7-0.1,2.1-0.6,1.8-1.6c-0.2-0.5-0.6-0.8-0.9-1.2
						c-0.3-0.4-0.5-0.9-0.6-1.4c-0.3-1-0.4-2.1-0.3-3.1C175.8,136.8,174.9,136.8,174.9,137.4L174.9,137.4L174.9,137.4z"/>
					<g class="st16">
						<path class="st20" d="M171.6,148.3c0.8,0.9,2,1.4,3.1,1.4c1.2-0.1,2.3-0.7,3-1.7"/>
					</g>
					<path class="st19" d="M169.9,138.4c-0.5,0.6-1.5,0.6-2.2,0.5c-0.9-0.1-1.7-0.5-2.4-1c-0.2-0.1-0.4-0.2-0.6,0
						c-0.2,0.2-0.2,0.5,0,0.6c0.9,0.7,1.9,1.2,3,1.3c1,0.1,2.2,0,2.8-0.8c0.1-0.2,0.2-0.4,0-0.6C170.3,138.3,170,138.2,169.9,138.4
						L169.9,138.4L169.9,138.4z"/>
					<path class="st19" d="M184.1,137.9c-0.6,0.4-1.3,0.7-2,0.9c-0.8,0.2-1.9,0.2-2.4-0.4c-0.4-0.4-1,0.2-0.6,0.6
						c0.8,0.9,2.1,0.9,3.1,0.7c1-0.2,1.9-0.6,2.7-1.2C184.5,138.3,184.3,138.1,184.1,137.9L184.1,137.9z"/>
					<path class="st21" d="M169.4,143.9c0,1.2-1.4,2.1-3.1,2.1s-3.1-0.9-3.1-2.1s1.4-2.1,3.1-2.1S169.4,142.7,169.4,143.9z"/>
					<path class="st21" d="M185.5,144.1c0,1.2-1.4,2.1-3.1,2.1s-3.1-0.9-3.1-2.1s1.4-2.1,3.1-2.1S185.5,142.9,185.5,144.1z"/>
				</g>
				<path class="st19" d="M186.4,143.5c-0.4-0.1-0.4-1-0.1-2s0.8-1.8,1.1-1.7c0.4,0.1,0.4,1,0.1,2S186.7,143.6,186.4,143.5z"/>
				<path class="st19" d="M162.2,143.9c-0.4,0.1-0.8-0.7-1-1.8c-0.2-1.1-0.1-1.9,0.3-2s0.8,0.7,1,1.8
					C162.7,142.9,162.6,143.8,162.2,143.9z"/>
			</g>
			<path class="st6" d="M192.2,131c0.1-3.5-1.3-5.7-2.7-7c-1.9-1.7-3.4-3.7-4.6-5.9c-1.2-2.1-3.6-4.5-8.7-5.7
				c-7.9-1.7-11,2.3-12,4.2c-0.3,0.5-0.8,0.9-1.4,1c-7.6,1.7-5.2,14.4-5.2,14.4s1.3,5.4,3.4,7.5c2.6-2.4,4.8-7.6,4.4-11.4
				c0.9,0.2,1.9,0.7,2.7,1.1c1.6,0.9,3.2,1.7,4.7,2.9c1.5,1.2,2.8,2.7,4.5,3.7c1.7,1.1,3.8,1.6,5.8,1.8c0,0,0.1,0,0.4,0
				c0.2,0,0.3,0,0.5,0c0.5,0.9,1.1,1.8,1.8,2.2c0.6-0.8,1.3-1.8,1.9-2.8C190,136.4,192.2,134.8,192.2,131L192.2,131z"/>
		</g>
	</g>
	<g>
		<path class="st11" d="M172.1,392c-0.6,4.1-0.3,6.1-2.6,11.7c-0.4,0.9-0.9,2.9,0.2,4.2c0.5,0.6,1.3,1.2,2.8,1.4
			c6.1,0.9,12.6,0.1,18.5,1.8c3.1,0.9,6.4,1.1,9.4,0.3c0.9-0.2,0.9-1.5,0.1-1.8c-1.3-0.5-2.9-0.4-4.4-0.9c-4.4-1.3-8.8-3-12.2-6.2
			s-5.5-8.5-4.1-13.2"/>
		<path class="st11" d="M159.2,272.3c2,0.3,3.7-1.5,5.2-3s3.9-2.6,5.4-1.2c0.6,0.5,0.9,1.4,1.1,2.1c0.6,2.6,0.1,5.3,0,8
			c-0.4,7.8,2.1,15.5,1.4,23.3c-3.3-4.1-3.7-10-6.5-14.6c-1.8-3-4.5-5.1-7.1-7.3"/>
		<g>
			<path class="st7" d="M200.2,249.2L200.2,249.2c-0.5-2.2-0.3-4.9-1.2-9.1c-0.8-3.6-0.8-9.5-2.7-12.1c-0.8-1.1-4.1,1.7-5.3,2
				c-10.6,2.9-21.8,2.9-32.3,0.1c-1.2-0.3-5.1-3-5.5-1.7c0,0-4.1,7.2-9.1,9.7c-4.8,2.4-41.1,19.4-46.3,35.7c0,0.1-0.1,0.2-0.1,0.3
				c-0.2,0.5-0.3,1-0.3,1.6c0,0.1,0,0.2-0.1,0.2h0c-0.3,3.4,1.7,6.9,4.4,8.8c3.7,2.6,8.5,2.8,12.8,2.7c3.2-0.1,6.4-0.4,9.5-0.8
				c8-1.1,16.1-2.2,24.2-3.4c4.4-0.6,5.3-0.9,9.7-0.9c0.7,0,2.6-0.1,3.1-0.3c0.7-0.4,0.6-0.8,0.6-1.7c0-2.7,0.4-5,0.4-7.7
				c0-0.3,0.1-1.7-0.1-2c-0.2-0.3-1-0.4-1.3-0.4c-2.2-0.3-8.6-0.3-10.4-0.6c1.7-0.2,3.3,0.8,11.1-2.3c2.4-0.9,4.8-2.2,7-3.7l0.8,130
				c0.6,0.4,1.3,0.7,2,1c0.1,0.3,0.4,0.6,0.8,0.6c0.3,0,0.5,0,0.8,0c6.5,1.9,12.5-1.6,12.5-1.6c9.4-24.8,7.7-62.9,11.7-90.3
				c0.3-1.3,0.5-2.5,0.8-3.8c0.3-1.7,0.6-3.3,0.8-4.9c0,0,0,0,0,0C201.7,263.5,200.3,249.3,200.2,249.2L200.2,249.2z"/>
			<path class="st8" d="M161.7,276.8c-1,0.5-2.2,0.7-3.5,0.5c-9.8-1.4-19.7-0.8-29.3,1.6c-9.1,2.3-17.7,5.3-27.1,5.9
				c3.7,2.6,8.4,2.8,12.7,2.7c3.2-0.1,6.4-0.4,9.5-0.8c8.1-1.1,16.1-2.2,24.2-3.4c4.4-0.6,5.3-0.9,9.7-0.9c0.7,0,2.6-0.1,3.1-0.3
				c0.7-0.4,0.6-0.8,0.6-1.7C161.5,279.1,161.6,277.9,161.7,276.8L161.7,276.8z"/>
			<path class="st8" d="M200.2,249.2L200.2,249.2c-0.4-2.1-0.3-4.6-1.1-8.3c-13.2,8.8-29.1,8.7-44.7,11.9c-9.9,2-19.9,4.6-28.9,9.3
				c-4.8,2.5-10.7,5.8-15.4,9.7c7.2-1.6,14.2-4.2,21.6-5.5c9.9-1.8,19.5-1.7,29.4-0.3c0.7,0.1,1.2,0.3,1.8,0.5
				c1.2-0.5,2.4-1.2,3.5-1.8c-0.4-5.9,9.3-8,11.5-1.5c7.9,23.8,7,47.6,6.3,72.4c-0.3,8.9-1.5,17.8-1.6,26.8c0,2.9,0,6,0.8,8.7
				c0.2,0.5,0.4,1.5,0.8,2.1c0-0.2,0.8-0.3,1.4-0.5c1.9-0.6,3.5-0.3,4.7,0.6c3.7-22.5,3.5-49.3,6.5-69.9c0.3-1.3,0.5-2.5,0.8-3.8
				c0.3-1.7,0.6-3.3,0.8-4.9c0,0,0,0,0,0C201.7,263.5,200.2,249.3,200.2,249.2L200.2,249.2z"/>
			<path class="st8" d="M114.7,255c8.3-5.2,17.8-8.7,27.3-11.1c9.2-2.4,18.5-3.6,27.9-5c9.5-1.4,18.8-3.4,26.1-10
				c0.2-0.2,0.4-0.3,0.6-0.4c-0.1-0.1-0.1-0.3-0.2-0.4c-0.8-1.1-4.1,1.7-5.3,2c-10.6,2.9-21.8,2.9-32.3,0.1c-1.2-0.3-5.1-3-5.5-1.7
				c0,0-4.1,7.2-9.1,9.7c-2.9,1.4-17.4,8.3-29.6,17.1C114.6,255.1,114.7,255.1,114.7,255L114.7,255z"/>
		</g>
	</g>
	<g>
		<g>
			<path class="st12" d="M184.2,95.3l-5.7,7.9l29.8,29.1c0,0-18.7,26.7-22.9,30.7l0,0l-5.1-1.8c-6.2,6.5-13,0.3-13,0.3l-3.7,1.2
				c-4.7-5-22.5-30.4-22.5-30.4l29.8-29.1l-5.7-7.9c0,0-45,27.3-43.7,32.4c1.2,5.1,2.5,14.8,21.9,41.9c4.8,6.7,6.1,24.8,6.1,24.8
				l0,0C151,206.5,151,230,151,230c16.1,9.3,46-0.4,46-0.4s1.8-21.6,2.4-33.9c0,0-0.4-15.7,6.7-26.2c18.7-27.6,20.6-36.8,21.9-41.9
				S184.2,95.3,184.2,95.3L184.2,95.3z"/>
			<path class="st13" d="M201.2,181.1c-1.2,1.8-2.3,3.7-2.9,5.8c-1.2,3.9-1.9,8-2.6,12c-1.4,7.2-1.8,15.7-6.3,21.8
				c-8.8,12.1-25.3,10.1-38.2,8.3c0,0,0,0-0.1,0c0,0.7,0,1.1,0,1.1c16.1,9.3,46-0.4,46-0.4s1.8-21.6,2.4-33.9
				C199.3,195.8,199.2,188.8,201.2,181.1L201.2,181.1z"/>
			<path class="st13" d="M149.1,120.8c-3.6,2.8-13.3,6.4-13.3,11.4c0,6,7.4,12,11.3,15.8c4.5,4.5,8.8,9.9,14.8,12.5c0,0,0.1,0,0.1,0
				c-6.3-7.8-20.7-28.3-20.7-28.3l26.7-26C161.2,110.6,155.4,115.9,149.1,120.8z"/>
			<path class="st13" d="M206.7,144.3c5.3-4.1,12.5-8.8,9.6-16.7c-2.3-6.3-9.7-10.1-15.5-12.5c-7.7-3.1-15.2-5.4-21.1-11.7
				c-0.3-0.3-0.5-0.6-0.7-0.9l-0.5,0.7l29.8,29.1c0,0-12.7,18.1-19.4,26.7c3.4-1.6,6.8-3.3,9.4-6
				C201.2,150.1,203.4,146.9,206.7,144.3L206.7,144.3z"/>
		</g>
		<g>
			<g>
				<path class="st14" d="M173.7,164.4c0,0-2.3,1.2-2,3.4c0.2,2.2,2.9,2.1,2.9,2.1s2.7-0.3,2.6-2.3
					C177.1,165.6,175.4,163.8,173.7,164.4z"/>
				<path class="st14" d="M173,169.6c0,0-2.8,8-3.9,24.1c-1.1,15.7-1.2,17.4-1.2,17.4l5.3,5.9l5.2-5.4c0,0,0.5-32.6-3.1-42.7
					L173,169.6L173,169.6z"/>
			</g>
			<path class="st8" d="M173.6,174.1c0.5,0,0.5-0.8,0-0.8S173.1,174.1,173.6,174.1L173.6,174.1z"/>
			<path class="st8" d="M176.2,178.9c0.5,0,0.5-0.8,0-0.8S175.7,178.9,176.2,178.9L176.2,178.9z"/>
			<path class="st8" d="M172,182.6c0.5,0,0.5-0.8,0-0.8S171.4,182.6,172,182.6L172,182.6z"/>
			<path class="st8" d="M175.4,189.6c0.5,0,0.5-0.8,0-0.8S174.9,189.6,175.4,189.6L175.4,189.6z"/>
			<path class="st8" d="M170.6,194.1c0.5,0,0.5-0.8,0-0.8S170.1,194.1,170.6,194.1L170.6,194.1z"/>
			<path class="st8" d="M176.6,198.4c0.5,0,0.5-0.8,0-0.8S176,198.4,176.6,198.4L176.6,198.4z"/>
			<path class="st8" d="M170.1,201.9c0.5,0,0.5-0.8,0-0.8S169.6,201.9,170.1,201.9L170.1,201.9z"/>
			<path class="st8" d="M174.1,205.2c0.5,0,0.5-0.8,0-0.8S173.6,205.2,174.1,205.2L174.1,205.2z"/>
			<path class="st8" d="M170.1,210c0.5,0,0.5-0.8,0-0.8S169.6,210,170.1,210L170.1,210z"/>
			<path class="st8" d="M176.7,210c0.5,0,0.5-0.8,0-0.8S176.1,210,176.7,210L176.7,210z"/>
			<path class="st8" d="M173.9,213.9c0.5,0,0.5-0.8,0-0.8S173.3,213.9,173.9,213.9L173.9,213.9z"/>
			<path class="st8" d="M175,167.2c0.5,0,0.5-0.8,0-0.8S174.4,167.2,175,167.2L175,167.2z"/>
		</g>
		<g>
			<polygon class="st13" points="174.8,164.2 178.9,171.4 185.5,163.1 180.1,160.5 			"/>
			<polygon class="st13" points="173.9,164.2 169.7,171.2 163.8,162.7 168.3,160.4 			"/>
		</g>
	</g>
</g>
<g>
	<g>
		<path class="st1" d="M85.5,370.8c4.6-4.1,6.8-11.6,5.4-17.6c-1.4-6-5.4-11.2-10.3-15c-3.8-2.9-8.6-5.1-13.3-4.3
			c-1.4,0.2-2.7,0.8-3.8,1.5c-1.4,0.9-2.7,2.1-3.3,3.6c-1.1,2.5-0.3,5.5,1.2,7.9c0.6,1,1.3,1.9,1.7,2.9c0.4,1.3,0.2,2.8,0.3,4.1
			c0.2,3.5,2,6.8,4.5,9.3s4,3.4,7.1,5.1C77.3,369.7,82.8,371,85.5,370.8"/>
		<g class="st22">
			<path class="st2" d="M90.9,353.2c-0.6-2.5-1.7-5-3.1-7.2c-0.2,1.4-0.4,2.7-0.7,4.1c-0.6,2.8-1.2,6-2.3,8.7
				c-1.1,2.6-3.3,3.2-5.8,2.2c-1.4-0.5-2.7-1.4-4.1-1.8c-1.5-0.4-2.5-0.8-3.6-2c-1.9-2.1-2.8-4.8-3.4-7.5c-0.7-3.2-1.7-6-3-8.9
				c-0.7-1.5-1.5-3.2-1.8-5c-1.2,0.8-2.3,2-2.9,3.3c-1.1,2.5-0.3,5.5,1.2,7.9c0.6,1,1.3,1.9,1.7,2.9c0.4,1.3,0.2,2.8,0.3,4.1
				c0.2,3.5,2,6.8,4.5,9.3s4,3.4,7.1,5.1c2.4,1.3,7.9,2.6,10.6,2.4C90.1,366.7,92.3,359.2,90.9,353.2L90.9,353.2z"/>
		</g>
		<path class="st23" d="M87.1,387.7c0.3-5.7-0.2-11.4-1.6-16.9c-0.3-1.3-0.7-2.5-1.1-3.7c-0.1-0.2-0.2-0.5-0.2-0.7c0,0,0-0.1,0-0.1
			l0,0c-0.5-1.5-1.1-3.1-1.7-4.5c-0.6-1.4-1.2-2.8-1.9-4.1c0,0,0.1-0.1,0.1-0.1c0.1-1.7-0.1-3.4-0.6-5c-0.1-0.2-0.4-0.1-0.3,0.1
			c0.4,1.5,0.6,3,0.6,4.5c-1.2-2.3-2.5-4.6-3.9-6.8c-2.4-3.6-5.1-7-8.1-10.1c-0.2-0.2-0.4,0.1-0.2,0.2c1.7,1.7,3.3,3.5,4.8,5.5
			c0.8,1.1,1.6,2.1,2.4,3.2c-0.9-0.2-1.9-0.3-2.9-0.4c-0.2,0-0.2,0.3,0,0.3c1.1,0,2.1,0.2,3.2,0.4c1.6,2.3,3,4.7,4.3,7.2
			c1,1.9,1.8,3.8,2.6,5.8c-1.9-0.7-3.8-1.4-5.6-2.3c-0.2-0.1-0.4,0.2-0.2,0.3c1.9,1,3.9,1.7,5.9,2.5c0.4,1.1,0.8,2.2,1.2,3.3
			c-0.1,0.1,2.8,8.3,3,16.8c0,1.6,0,3.1-0.1,4.7C86.7,388,87.1,388,87.1,387.7L87.1,387.7z"/>
	</g>
	<g>
		<path class="st2" d="M96.1,368.4c-5.7-10.8-6-24.2-1.1-35.4c2.7-6.2,7.2-11.9,13.4-14.5c2.1-0.9,4.5-1.5,6.8-1.3s4.6,1.1,6.3,2.7
			c3.1,3.1,3.2,8,2.7,12.3c-1.1,8.3-4.4,16.3-9.3,23.1S103.4,364.3,96.1,368.4"/>
		<path class="st24" d="M91.9,343.9c0.3,2.2,1.1,4.4,2.2,6.5c3.2,5.8,8.2,2.1,12.4-0.3c5-2.8,9.5-5.8,12-11.1
			c2.8-6,2.5-12.9,2.5-19.4c0.1,0.1,0.3,0.2,0.4,0.4c3.1,3.1,3.2,8,2.7,12.3c-1.1,8.3-4.4,16.3-9.3,23.1s-11.3,9.1-18.7,13.1
			C92.2,360.9,90.8,352.2,91.9,343.9L91.9,343.9z"/>
		<path class="st23" d="M95.8,387.2c-0.9-7.4-0.7-15,0.7-22.3c0.3-1.7,0.7-3.3,1.1-5c0.1-0.3,0.2-0.7,0.2-1c0,0,0-0.1,0-0.1l0,0
			c0.5-2.1,1.1-4.1,1.8-6.1c0.6-1.9,1.3-3.8,2.1-5.6c0,0-0.1-0.1-0.1-0.1c-0.2-2.2-0.1-4.4,0.3-6.6c0.1-0.3,0.5-0.2,0.4,0.1
			c-0.4,1.9-0.5,3.9-0.4,5.9c1.3-3.1,2.8-6.2,4.5-9.2c2.8-4.9,6.1-9.6,9.8-13.9c0.2-0.2,0.5,0.1,0.3,0.3c-2.1,2.4-4,4.9-5.8,7.5
			c-1,1.5-1.9,2.9-2.8,4.5c1.2-0.3,2.5-0.6,3.8-0.7c0.3,0,0.3,0.4,0,0.5c-1.4,0.2-2.8,0.4-4.1,0.8c-1.9,3.2-3.6,6.5-5,9.8
			c-1.1,2.5-2.1,5.1-2.9,7.8c2.4-1.1,4.9-2.1,7.1-3.5c0.2-0.1,0.5,0.2,0.2,0.4c-2.4,1.5-5,2.6-7.6,3.7c-0.5,1.5-0.9,3-1.3,4.5
			c0.1,0.1-2.9,11.1-2.5,22.2c0.1,2.1,0.2,4.1,0.5,6.2C96.4,387.6,95.8,387.6,95.8,387.2L95.8,387.2z"/>
	</g>
	<g>
		<path class="st25" d="M106.8,385.8c0.1-0.5-0.3-0.9-0.8-0.9H76.6c-0.5,0-0.9,0.5-0.8,0.9l0.8,4.2c0.1,0.6,0.7,1,1.3,1h26.7
			c0.7,0,1.3-0.5,1.5-1.2L106.8,385.8L106.8,385.8z"/>
		<path class="st25" d="M78.2,390.7l3.7,18.3c0.1,0.3,0.4,0.6,0.7,0.6h17.8c0.3,0,0.6-0.2,0.7-0.6l3.5-18.3L78.2,390.7L78.2,390.7z"
			/>
		<path class="st26" d="M101.3,407.6l3.3-16.9H78.2l0.2,0.7C87,394.8,97.9,398.4,101.3,407.6L101.3,407.6z"/>
	</g>
</g>
</svg>
