<?xml version="1.0" encoding="utf-8"?>
<!-- Generator: Adobe Illustrator 28.2.0, SVG Export Plug-In . SVG Version: 6.00 Build 0)  -->
<svg version="1.1" id="Layer_1" xmlns="http://www.w3.org/2000/svg" xmlns:xlink="http://www.w3.org/1999/xlink" x="0px" y="0px"
	 viewBox="0 0 600 600" style="enable-background:new 0 0 600 600;" xml:space="preserve">
<style type="text/css">
	.st0{fill:#7BC0FF;}
	.st1{fill:#47A4EA;}
	.st2{fill:#EAEFF4;}
	.st3{fill:#2E5799;}
	.st4{fill:#5074AD;}
	.st5{fill:#FFFFFF;}
	.st6{fill:#D7E0F7;}
	.st7{fill:#EBEDF7;}
	.st8{fill:#CC5050;}
	.st9{fill:#CCCCCC;}
	.st10{fill:#FFC24A;}
</style>
<g>
	<g>
		<path class="st0" d="M390.38,164.41c0.45-0.75,1.44-1.13,2.34-0.98c0.91,0.08,1.66,0.6,2.27,1.28s0.98,1.51,1.29,2.34
			c0.53,1.36,0.91,2.86,0.83,4.3c1.59-1.43,3.1-3.01,4.46-4.67c0.15-0.15,0.23-0.3,0.38-0.45c-1.29-0.9-2.5-1.73-3.78-2.64
			c-0.83-0.6-1.74-1.21-2.27-2.03c-0.53-0.83-0.76-2.03-0.23-2.94c0.45-0.75,1.44-1.13,2.34-0.98c0.91,0.08,1.66,0.6,2.27,1.28
			c0.61,0.68,0.98,1.51,1.29,2.34c0.53,1.43,0.98,2.94,0.83,4.45c1.44-1.88,2.72-3.92,3.86-6.03c-1.29-0.9-2.5-1.88-3.78-2.79
			c-0.83-0.6-1.66-1.28-2.19-2.11c-0.53-0.9-0.68-2.03-0.08-2.94c0.53-0.75,1.51-1.06,2.34-0.9c0.91,0.15,1.66,0.68,2.19,1.36
			s0.91,1.51,1.21,2.34c0.45,1.36,0.83,2.79,0.68,4.15c0.76-1.58,1.44-3.17,2.04-4.82c0.15-0.45,0.3-0.98,0.45-1.43
			c-1.29-0.98-2.5-2.03-3.78-3.01c-0.83-0.68-1.59-1.28-2.12-2.19c-0.53-0.9-0.61-2.11,0-2.94c0.53-0.68,1.51-0.98,2.42-0.83
			c0.91,0.15,1.66,0.75,2.19,1.43s0.91,1.51,1.13,2.41c0.38,1.21,0.68,2.49,0.61,3.77c0.45-1.66,0.76-3.39,0.98-5.12
			c-0.61-1.43-1.21-2.86-1.82-4.3c-0.38-0.98-0.83-1.96-0.83-2.94c0-1.06,0.45-2.11,1.36-2.56c0.83-0.38,1.82-0.15,2.5,0.38
			c0.68,0.53,1.06,1.43,1.21,2.34c0.15,0.9,0,1.81-0.15,2.64c-0.3,1.58-0.83,3.24-1.89,4.45l0,0c-0.23,1.81-0.61,3.62-1.06,5.43
			c0.76-1.06,1.82-1.96,2.95-2.64c0.76-0.45,1.51-0.9,2.42-1.13c0.83-0.23,1.82-0.15,2.57,0.23c0.76,0.45,1.36,1.28,1.29,2.19
			c-0.08,1.06-0.91,1.88-1.89,2.26c-0.98,0.38-2.04,0.38-3.03,0.38c-1.59,0-3.1,0-4.69-0.08c-0.68,2.19-1.51,4.3-2.5,6.33
			c1.06-0.9,2.34-1.58,3.71-2.03c0.83-0.3,1.74-0.53,2.65-0.45c0.91,0,1.82,0.3,2.42,0.9c0.68,0.6,0.98,1.58,0.76,2.41
			c-0.3,0.98-1.36,1.58-2.34,1.73c-1.06,0.15-2.04-0.15-3.03-0.38c-1.51-0.38-3.03-0.83-4.54-1.21c0,0.08-0.08,0.15-0.08,0.23
			c-1.06,2.03-2.34,4.07-3.78,5.88c1.29-0.9,2.87-1.28,4.46-1.51c0.91-0.08,1.82-0.15,2.65,0.08c0.83,0.23,1.74,0.68,2.19,1.36
			c0.53,0.75,0.68,1.73,0.23,2.49c-0.53,0.9-1.66,1.28-2.65,1.21c-1.06-0.08-1.97-0.53-2.87-0.98c-1.44-0.75-2.87-1.43-4.31-2.19
			l-0.08,0.08v0.08l0,0c-1.44,1.81-2.95,3.47-4.61,5.05c1.36-0.3,2.8-0.15,4.24,0.15c0.91,0.15,1.74,0.45,2.57,0.9
			c0.76,0.45,1.44,1.21,1.74,2.03c0.3,0.83,0.08,1.88-0.61,2.49c-0.76,0.68-1.97,0.75-2.95,0.3c-0.98-0.38-1.74-1.13-2.5-1.88
			c-1.06-1.06-2.12-2.11-3.18-3.17l-0.08-0.08c-1.89,1.66-3.93,3.17-6.05,4.45c-0.23,0.15-0.45-0.23-0.23-0.3
			c2.12-1.28,4.16-2.71,5.97-4.3c-1.21-0.83-2.42-1.66-3.63-2.49c-0.83-0.6-1.74-1.21-2.27-2.03
			C390,166.45,389.85,165.32,390.38,164.41z"/>
		<g>
			<g>
				<path class="st1" d="M417.22,225.39c-1.36-0.6-3.1-1.28-3.03-2.71c0.08-1.06,1.21-2.03,2.34-2.26s2.27,0.08,3.25,0.53
					c1.66,0.75,3.03,1.96,4.69,2.79c1.59,0.83,3.63,1.36,5.52,0.75c4.61-1.51,5.14-8.06,9.53-10.33c-1.66-0.08-3.33,0.38-4.92,0.9
					c-1.59,0.53-3.25,1.06-4.92,1.13c-1.66,0.08-3.33-0.45-4.16-1.73c-0.76-1.28-0.3-3.24,1.21-3.99c1.82-0.9,3.71,0.38,5.6,0.68
					c2.72,0.53,5.75-1.06,7.64-3.17c1.97-2.11,3.03-4.67,4.16-7.24c-4.16,1.66-8.77,1.81-12.71,0.6c1.06-1.88,3.86-2.03,6.05-2.64
					c3.33-0.9,5.97-3.54,7.56-6.41c1.21-2.26,1.97-4.67,2.5-7.08l-53.7,27.73c0.38,0,0.76,0.08,1.13,0.08c0.15,0,0.3,0,0.53,0
					c-0.38,0.53-0.68,1.06-0.91,1.58c-2.72,6.1,0.98,16.13,6.88,19.52c3.33,1.88,7.79,1.51,11.95,1.13s8.62-0.6,11.8,1.58
					C425.09,231.87,421.91,227.42,417.22,225.39z M418.43,215.89c-0.91-0.15-1.51-0.83-1.44-1.51c0.15-0.68,0.98-1.06,1.89-0.83
					c0.91,0.15,1.51,0.83,1.44,1.51C420.25,215.74,419.42,216.12,418.43,215.89z"/>
				<path class="st0" d="M440.29,183.56c-3.33-0.23-6.96,0.6-9.53,2.86c-1.74,1.51-3.33,3.77-5.52,3.62
					c1.06-3.99,3.71-7.76,7.34-10.33c-2.72-0.45-5.52-0.9-8.32-0.45c-2.8,0.53-5.75,2.19-6.81,4.75c-0.76,1.81-0.68,3.99-2.42,5.05
					c-1.44,0.9-3.4,0.23-4.08-1.13c-0.61-1.36-0.15-3.01,0.76-4.37s2.27-2.49,3.55-3.54c1.29-1.06,2.57-2.26,3.4-3.69
					c-4.24,2.49-10.06-0.6-13.84,2.41c-1.59,1.28-2.19,3.24-2.34,5.05c-0.15,1.81,0.08,3.62-0.15,5.43
					c-0.15,1.06-0.45,2.19-1.29,3.01c-0.83,0.83-2.27,1.28-3.18,0.75c-1.29-0.75-0.91-2.56-0.68-3.99
					c0.83-5.05-1.29-10.1-5.37-12.89c0.15,3.77-2.42,7.46-4.99,10.78c-2.5,3.32-5.29,6.78-5.45,10.63
					c-0.38,6.86,5.9,14.7,12.48,15.37l53.7-27.73C445.28,184.46,442.86,183.71,440.29,183.56z M388.49,194.71
					c-1.13-0.6-1.36-2.41-0.53-3.99c0.83-1.58,2.5-2.41,3.63-1.81c1.13,0.6,1.36,2.41,0.53,3.99
					C391.28,194.49,389.62,195.31,388.49,194.71z M422.06,186.87c-0.68-0.38-0.83-1.43-0.3-2.34c0.53-0.9,1.44-1.43,2.12-1.06
					c0.68,0.38,0.76,1.43,0.3,2.34C423.65,186.8,422.67,187.25,422.06,186.87z"/>
			</g>
		</g>
		<g>
			<ellipse class="st2" cx="300" cy="478.69" rx="195.5" ry="17.11"/>
			<g>
				<path class="st3" d="M327.3,153.03h-19.44c0-10.85-8.85-19.67-19.74-19.67c-10.89,0-19.74,8.82-19.74,19.67h-19.44
					c-3.18,0-5.75,2.56-5.75,5.73v16.2c0,1.43,1.13,2.56,2.57,2.56h84.63c1.44,0,2.57-1.13,2.57-2.56v-16.2
					C333.05,155.6,330.48,153.03,327.3,153.03z M288.13,149.27c-2.57,0-4.69-2.11-4.69-4.67c0-2.56,2.12-4.67,4.69-4.67
					c2.57,0,4.69,2.11,4.69,4.67C292.82,147.16,290.7,149.27,288.13,149.27z"/>
				<path class="st4" d="M391.74,162.53H184.59c-4.08,0-7.41,3.32-7.41,7.39v301.39c0,4.07,3.33,7.39,7.41,7.39h207.15
					c4.08,0,7.41-3.32,7.41-7.39V169.92C399.15,165.85,395.82,162.53,391.74,162.53z"/>
				<path class="st5" d="M387.05,168.56H189.28c-3.33,0-6.05,2.71-6.05,6.03v292.04c0,3.32,2.72,6.03,6.05,6.03h197.77
					c3.33,0,6.05-2.71,6.05-6.03V174.59C393.1,171.27,390.38,168.56,387.05,168.56z"/>
				<g>
					<path class="st6" d="M235.64,283.27h-19.29c-3.48,0-6.28,2.79-6.28,6.26v19.22c0,3.47,2.8,6.26,6.28,6.26h19.29
						c3.48,0,6.28-2.79,6.28-6.26v-19.22C241.92,286.06,239.12,283.27,235.64,283.27z"/>
					<g>
						<path class="st6" d="M364.59,291.11H266.8c-0.91,0-1.66,0.75-1.66,1.66c0,0.9,0.76,1.66,1.66,1.66h97.79
							c0.91,0,1.66-0.75,1.66-1.66C366.25,291.86,365.49,291.11,364.59,291.11z"/>
						<path class="st6" d="M341.14,303.92h-50.9c-0.91,0-1.66,0.75-1.66,1.66c0,0.9,0.76,1.66,1.66,1.66h50.9
							c0.91,0,1.66-0.75,1.66-1.66C342.81,304.67,342.05,303.92,341.14,303.92z"/>
					</g>
					<path class="st5" d="M233.3,289.45c-3.18,4.45-6.35,8.82-9.53,13.26c-2.19-2.03-4.39-4.15-6.66-6.18
						c-1.36,1.66-2.65,3.39-4.01,5.05c3.71,2.49,7.49,4.9,11.19,7.39c4.76-5.12,9.53-10.25,14.29-15.37
						C236.93,292.16,235.11,290.8,233.3,289.45z"/>
					<path class="st6" d="M235.64,327.36h-19.29c-3.48,0-6.28,2.79-6.28,6.26v19.22c0,3.47,2.8,6.26,6.28,6.26h19.29
						c3.48,0,6.28-2.79,6.28-6.26v-19.22C241.92,330.15,239.12,327.36,235.64,327.36z"/>
					<g>
						<path class="st6" d="M364.59,335.12H266.8c-0.91,0-1.66,0.75-1.66,1.66c0,0.9,0.76,1.66,1.66,1.66h97.79
							c0.91,0,1.66-0.75,1.66-1.66C366.25,335.87,365.49,335.12,364.59,335.12z"/>
						<path class="st6" d="M341.14,347.93h-50.9c-0.91,0-1.66,0.75-1.66,1.66c0,0.9,0.76,1.66,1.66,1.66h50.9
							c0.91,0,1.66-0.75,1.66-1.66C342.81,348.69,342.05,347.93,341.14,347.93z"/>
					</g>
					<path class="st5" d="M233.3,333.46c-3.18,4.45-6.35,8.82-9.53,13.26c-2.19-2.03-4.39-4.15-6.66-6.18
						c-1.36,1.66-2.65,3.39-4.01,5.05c3.71,2.49,7.49,4.9,11.19,7.39c4.76-5.12,9.53-10.25,14.29-15.37
						C236.93,336.25,235.11,334.82,233.3,333.46z"/>
					<path class="st6" d="M235.64,371.37h-19.29c-3.48,0-6.28,2.79-6.28,6.26v19.22c0,3.47,2.8,6.26,6.28,6.26h19.29
						c3.48,0,6.28-2.79,6.28-6.26v-19.22C241.92,374.16,239.12,371.37,235.64,371.37z"/>
					<g>
						<path class="st6" d="M364.59,379.13H266.8c-0.91,0-1.66,0.75-1.66,1.66c0,0.9,0.76,1.66,1.66,1.66h97.79
							c0.91,0,1.66-0.75,1.66-1.66C366.25,379.89,365.49,379.13,364.59,379.13z"/>
						<path class="st6" d="M341.14,392.02h-50.9c-0.91,0-1.66,0.75-1.66,1.66c0,0.9,0.76,1.66,1.66,1.66h50.9
							c0.91,0,1.66-0.75,1.66-1.66C342.81,392.77,342.05,392.02,341.14,392.02z"/>
					</g>
					<path class="st5" d="M233.3,377.48c-3.18,4.45-6.35,8.82-9.53,13.26c-2.19-2.03-4.39-4.15-6.66-6.18
						c-1.36,1.66-2.65,3.39-4.01,5.05c3.71,2.49,7.49,4.9,11.19,7.39c4.76-5.12,9.53-10.25,14.29-15.37
						C236.93,380.26,235.11,378.91,233.3,377.48z"/>
					<path class="st6" d="M235.64,415.38h-19.29c-3.48,0-6.28,2.79-6.28,6.26v19.22c0,3.47,2.8,6.26,6.28,6.26h19.29
						c3.48,0,6.28-2.79,6.28-6.26v-19.22C241.92,418.25,239.12,415.38,235.64,415.38z"/>
					<g>
						<path class="st6" d="M364.59,423.22H266.8c-0.91,0-1.66,0.75-1.66,1.66c0,0.9,0.76,1.66,1.66,1.66h97.79
							c0.91,0,1.66-0.75,1.66-1.66C366.25,423.98,365.49,423.22,364.59,423.22z"/>
						<path class="st6" d="M341.14,436.03h-50.9c-0.91,0-1.66,0.75-1.66,1.66c0,0.9,0.76,1.66,1.66,1.66h50.9
							c0.91,0,1.66-0.75,1.66-1.66C342.81,436.79,342.05,436.03,341.14,436.03z"/>
					</g>
					<path class="st5" d="M233.3,421.56c-3.18,4.45-6.35,8.82-9.53,13.26c-2.19-2.03-4.39-4.15-6.66-6.18
						c-1.36,1.66-2.65,3.39-4.01,5.05c3.71,2.49,7.49,4.9,11.19,7.39c4.76-5.12,9.53-10.25,14.29-15.37
						C236.93,424.35,235.11,422.92,233.3,421.56z"/>
				</g>
				<path class="st7" d="M387.05,168.56c-7.56,201.3-80.62,291.89-203.82,298.07c0,3.32,2.72,6.03,6.05,6.03h197.77
					c3.33,0,6.05-2.71,6.05-6.03V174.59C393.1,171.27,390.38,168.56,387.05,168.56z"/>
				<path class="st3" d="M329.8,162.91v14.17c0,2.64-2.12,4.75-4.76,4.75h-73.66c-2.65,0-4.76-2.11-4.76-4.75v-14.17h-2.57v14.62
					c0,3.77,3.03,6.78,6.81,6.78h74.57c3.78,0,6.81-3.01,6.81-6.78v-14.62H329.8z"/>
				<path class="st3" d="M337.13,160.95h-98.01c-2.57,0-4.61,2.03-4.61,4.6s2.04,4.6,4.61,4.6h97.94c2.57,0,4.61-2.03,4.61-4.6
					C341.75,162.98,339.71,160.95,337.13,160.95z"/>
				<g>
					<ellipse class="st8" cx="237.61" cy="230.74" rx="29.57" ry="29.47"/>
					<path class="st5" d="M222.25,226.89h10.81v-9.5c0-2.11,1.74-3.77,3.78-3.77c2.12,0,3.78,1.73,3.78,3.77v9.5h10.81
						c2.12,0,3.78,1.73,3.78,3.77c0,2.11-1.74,3.77-3.78,3.77h-10.81v9.5c0,2.11-1.74,3.77-3.78,3.77c-2.12,0-3.78-1.73-3.78-3.77
						v-9.42h-10.81c-2.12,0-3.78-1.73-3.78-3.77C218.47,228.63,220.14,226.89,222.25,226.89z"/>
				</g>
				<g>
					<path class="st6" d="M296.37,219.21h70.49c0.76,0,1.36-0.6,1.36-1.36s-0.61-1.36-1.36-1.36h-70.49c-0.76,0-1.36,0.6-1.36,1.36
						S295.61,219.21,296.37,219.21z"/>
					<path class="st6" d="M366.86,231.79h-70.49c-0.76,0-1.36,0.6-1.36,1.36s0.61,1.36,1.36,1.36h70.49c0.76,0,1.36-0.6,1.36-1.36
						C368.29,232.4,367.61,231.79,366.86,231.79z"/>
					<path class="st6" d="M357.4,247.09h-51.5c-0.76,0-1.36,0.6-1.36,1.36s0.61,1.36,1.36,1.36h51.5c0.76,0,1.36-0.6,1.36-1.36
						S358.16,247.09,357.4,247.09z"/>
				</g>
			</g>
		</g>
		<g>
			<g>
				<path class="st3" d="M459.88,392.4c-7.41-9.8-16.49-16.2-26.47-18.99c-1.97-16.28-8.32-32.48-15.73-38.66
					c-1.13-0.98-2.87-0.83-3.86,0.3s-0.83,2.86,0.3,3.84c5.6,4.75,11.42,18.77,13.54,33.31c-4.61-0.6-9.38-0.53-14.29,0.38
					c-17.24,3.17-23.67,15.75-22.39,26.15c1.21,9.27,8.7,18.16,20.87,17.26c9.6-0.68,16.41-6.48,19.74-16.66
					c1.89-5.88,2.57-12.89,2.19-20.12c10.36,3.54,17.55,11,21.63,16.35c10.89,14.24,14.6,32.18,11.12,39.34
					c-7.71,15.75-28.81,18.62-48.4,20.42c-1.29,0.15-2.57,0.23-3.86,0.38c-0.15,0-0.23,0-0.38,0c-0.68,0.08-1.44,0.15-2.12,0.23
					c-8.85,0.83-16.87,1.66-23.29,3.69c-0.68,0.23-1.36,0.45-2.04,0.75c-1.44,0.53-2.72,1.21-3.93,1.88
					c0.08,0.53,0.23,1.06,0.3,1.58c0.38,1.36,0.83,2.56,1.44,3.77c1.06-0.75,2.27-1.36,3.63-1.96c0.61-0.23,1.29-0.53,1.97-0.75
					c5.82-1.96,13.84-2.79,22.23-3.54c0.68-0.08,1.44-0.15,2.12-0.23c0.15,0,0.3,0,0.45-0.08c1.21-0.15,2.5-0.23,3.71-0.38
					c21.1-1.96,43.94-5.05,52.94-23.51C476.44,427.44,471.22,407.17,459.88,392.4z M426.53,397.67
					c-2.65,8.06-7.64,12.44-14.97,12.96c-9.23,0.68-14.29-6.03-15.13-12.51c-0.98-7.76,3.55-16.58,15.66-19.67
					c0.76-0.15,1.51-0.38,2.27-0.53c5.07-0.9,9.76-0.83,13.92-0.15C428.87,384.94,428.42,391.87,426.53,397.67z"/>
			</g>
			<g>
				<path class="st3" d="M418.13,455.03c0,0.15,0.08,0.3,0.08,0.45c0.45,1.81,0.53,3.62,0.38,5.43c-0.61,7.46-5.9,14.09-13.54,16.05
					c-8.39,2.11-16.87-1.96-20.57-9.27c-0.61-1.21-1.06-2.41-1.44-3.77c-0.15-0.53-0.23-1.06-0.3-1.58
					c-1.51-9.12,4.24-18.01,13.39-20.35C405.8,439.58,415.64,445.38,418.13,455.03z"/>
				<path class="st9" d="M387.05,462.94c-1.89-7.46,2.57-15,10.06-16.96c7.49-1.88,15.05,2.56,17.02,10.02
					c1.89,7.46-2.57,15-10.06,16.96C396.58,474.92,388.94,470.4,387.05,462.94z"/>
				<path class="st10" d="M389.01,462.41c-1.59-6.33,2.19-12.81,8.62-14.39c6.35-1.58,12.86,2.19,14.45,8.59
					c1.59,6.33-2.19,12.81-8.62,14.39C397.11,472.59,390.68,468.82,389.01,462.41z"/>
			</g>
			<g>
				<path class="st10" d="M414.8,337c-22.76,5.8-46.06-7.99-51.88-30.67l-3.03-11.91c-2.42-9.42,5.97-19.75,18.76-22.99l0.61,2.34
					c-11.42,2.94-19.06,11.91-16.94,20.05l3.03,11.91c5.45,21.4,27.45,34.37,48.93,28.94c21.48-5.43,34.49-27.36,29.04-48.76
					L440.29,274c-2.12-8.14-13.08-12.44-24.5-9.5l-3.1,0.83l-0.61-2.34l3.1-0.83c12.71-3.24,25.11,1.81,27.53,11.23l3.03,11.91
					C451.41,307.99,437.57,331.2,414.8,337z"/>
			</g>
			<g>
				<path class="st3" d="M415.18,338.44c-23.6,6.03-47.72-8.29-53.7-31.8c-0.38-1.43,0.53-2.94,1.97-3.32
					c1.44-0.38,2.95,0.53,3.33,1.96c5.29,20.57,26.39,33.09,47.04,27.81c20.65-5.28,33.2-26.3,27.91-46.88
					c-0.38-1.43,0.53-2.94,1.97-3.32c1.44-0.38,2.95,0.53,3.33,1.96C453.07,308.44,438.78,332.48,415.18,338.44z"/>
			</g>
			<path class="st3" d="M374.12,274c-0.61-2.26,0.83-4.6,3.1-5.12c2.27-0.6,4.61,0.83,5.14,3.09c0.61,2.26-0.83,4.6-3.1,5.12
				C376.99,277.61,374.65,276.26,374.12,274z"/>
			<path class="st3" d="M407.54,265.48c-0.61-2.26,0.83-4.6,3.1-5.12c2.27-0.6,4.61,0.83,5.14,3.09c0.61,2.26-0.83,4.6-3.1,5.12
				C410.42,269.17,408.15,267.74,407.54,265.48z"/>
		</g>
		<g>
			<path class="st8" d="M477.95,362.78l-1.21-6.1c0-0.08-0.08-0.15-0.23-0.23l-6.05-1.28c-0.3-0.08-0.3-0.45,0-0.53l6.13-1.21
				c0.08,0,0.15-0.08,0.23-0.23l1.29-6.03c0.08-0.3,0.45-0.3,0.53,0l1.21,6.1c0,0.08,0.08,0.15,0.23,0.23l6.05,1.28
				c0.3,0.08,0.3,0.45,0,0.53l-6.13,1.21c-0.08,0-0.15,0.08-0.23,0.23l-1.29,6.03C478.41,363,478.03,363,477.95,362.78z"/>
			<path class="st10" d="M452.39,352.53l-0.68-3.32c0-0.08-0.08-0.08-0.08-0.08l-3.33-0.75c-0.15,0-0.15-0.23,0-0.3l3.33-0.68
				c0.08,0,0.08-0.08,0.08-0.08l0.76-3.32c0-0.15,0.23-0.15,0.3,0l0.68,3.32c0,0.08,0.08,0.08,0.08,0.08l3.33,0.75
				c0.15,0,0.15,0.23,0,0.3l-3.33,0.68c-0.08,0-0.08,0.08-0.08,0.08l-0.76,3.32C452.62,352.68,452.39,352.68,452.39,352.53z"/>
			<path class="st0" d="M464.11,342.73l-0.98-5.12c0-0.08-0.08-0.15-0.15-0.15l-5.14-1.13c-0.23-0.08-0.23-0.38,0-0.45l5.14-0.98
				c0.08,0,0.15-0.08,0.15-0.15l1.13-5.12c0.08-0.23,0.38-0.23,0.45,0l0.98,5.12c0,0.08,0.08,0.15,0.15,0.15l5.14,1.13
				c0.23,0.08,0.23,0.38,0,0.45l-5.14,0.98c-0.08,0-0.15,0.08-0.15,0.15l-1.13,5.12C464.49,342.96,464.19,342.96,464.11,342.73z"/>
		</g>
		<g>
			<path class="st8" d="M303.93,113.17l6.13,1.21c0.08,0,0.15,0.08,0.23,0.23l1.29,6.03c0.08,0.3,0.45,0.3,0.53,0l1.21-6.1
				c0-0.08,0.08-0.15,0.23-0.23l6.05-1.28c0.3-0.08,0.3-0.45,0-0.53l-6.13-1.21c-0.08,0-0.15-0.08-0.23-0.23l-1.29-6.03
				c-0.08-0.3-0.45-0.3-0.53,0l-1.21,6.1c0,0.08-0.08,0.15-0.23,0.23l-6.05,1.28C303.71,112.71,303.71,113.09,303.93,113.17z"/>
			<path class="st10" d="M320.27,130.8l3.33,0.68c0.08,0,0.08,0.08,0.08,0.08l0.76,3.32c0,0.15,0.23,0.15,0.3,0l0.68-3.32
				c0-0.08,0.08-0.08,0.08-0.08l3.33-0.75c0.15,0,0.15-0.23,0-0.3l-3.33-0.68c-0.08,0-0.08-0.08-0.08-0.08l-0.76-3.32
				c0-0.15-0.23-0.15-0.3,0l-0.68,3.32c0,0.08-0.08,0.08-0.08,0.08l-3.33,0.75C320.12,130.5,320.12,130.73,320.27,130.8z"/>
			<path class="st0" d="M331.01,119.8l5.14,0.98c0.08,0,0.15,0.08,0.15,0.15l1.13,5.12c0.08,0.23,0.38,0.23,0.45,0l0.98-5.12
				c0-0.08,0.08-0.15,0.15-0.15l5.14-1.13c0.23-0.08,0.23-0.38,0-0.45l-5.14-0.98c-0.08,0-0.15-0.08-0.15-0.15l-1.13-5.12
				c-0.08-0.23-0.38-0.23-0.45,0l-0.98,5.12c0,0.08-0.08,0.15-0.15,0.15l-5.14,1.13C330.78,119.42,330.78,119.8,331.01,119.8z"/>
		</g>
	</g>
</g>
</svg>
