<?xml version="1.0" encoding="utf-8"?>
<!-- Generator: Adobe Illustrator 28.2.0, SVG Export Plug-In . SVG Version: 6.00 Build 0)  -->
<svg version="1.1" id="Layer_1" xmlns="http://www.w3.org/2000/svg" xmlns:xlink="http://www.w3.org/1999/xlink" x="0px" y="0px"
	 viewBox="0 0 600 600" style="enable-background:new 0 0 600 600;" xml:space="preserve">
<style type="text/css">
	.st0{fill:#2E55B7;}
	.st1{fill:#7BC0FF;}
	.st2{fill:#FFFFFF;}
	.st3{fill:#E6E7E8;}
	.st4{fill:#999999;}
	.st5{fill:#2E5799;}
	.st6{fill:#FFC24A;}
	.st7{fill:#47A4EA;}
	.st8{fill:#CC5050;}
</style>
<g>
	<g>
		<path class="st0" d="M211.44,484.12c-21.93,2.11-43.94,2.11-65.87,0c-1.51-0.15-2.72-1.43-2.72-2.94l0,0
			c0-1.58,1.36-2.94,3.03-2.94h65.34c1.66,0,3.03,1.28,3.03,2.94l0,0C214.16,482.69,212.95,483.97,211.44,484.12z"/>
	</g>
	<g>
		<path class="st0" d="M197.98,374.61h-39.1c-4.76,0-8.62-3.84-8.62-8.59l0,0c0-4.75,3.86-8.59,8.62-8.59h39.1
			c4.76,0,8.62,3.84,8.62,8.59l0,0C206.6,370.77,202.74,374.61,197.98,374.61z"/>
	</g>
	<g>
		<g>
			<rect x="151.84" y="372.35" class="st0" width="53.32" height="2.86"/>
		</g>
		<g>
			<path class="st1" d="M205.01,377.48h-53.17c-0.91,0-1.59-0.68-1.59-1.58l0,0c0-0.9,0.68-1.58,1.59-1.58h53.17
				c0.91,0,1.59,0.68,1.59,1.58l0,0C206.6,376.8,205.92,377.48,205.01,377.48z"/>
		</g>
		<g>
			<path class="st1" d="M205.01,372.95h-53.17c-0.91,0-1.59-0.68-1.59-1.58l0,0c0-0.9,0.68-1.58,1.59-1.58h53.17
				c0.91,0,1.59,0.68,1.59,1.58l0,0C206.6,372.2,205.92,372.95,205.01,372.95z"/>
		</g>
	</g>
	<g>
		<path class="st1" d="M212.2,388.63v89.91c-22.61,2.41-45.15,2.56-67.54,0v-89.91c0-2.41,0.68-4.67,1.97-6.63
			c0.45-0.68,0.98-1.36,1.59-1.96l0,0c1.06-1.06,2.27-1.96,3.63-2.56h53.17C209.4,379.43,212.2,383.88,212.2,388.63z"/>
	</g>
	<g>
		<rect x="144.66" y="407.09" class="st2" width="67.54" height="37.38"/>
	</g>
	<g>
		<rect x="144.66" y="401.52" class="st2" width="67.54" height="3.17"/>
	</g>
	<g>
		<rect x="144.66" y="447.19" class="st2" width="67.54" height="3.17"/>
	</g>
	<g>
		<path class="st3" d="M212.2,388.63v89.91l-5.67,0.53c0.3-13.19,1.44-84.41-4.84-92.25c-5.6-7.01-53.55-6.86-53.55-6.86l0,0
			c1.06-1.06,2.27-1.96,3.63-2.56h53.17C209.4,379.43,212.2,383.88,212.2,388.63z"/>
	</g>
	<g>
		<path class="st2" d="M156.31,475.45h-2.87c-2.95,0-5.29-2.34-5.29-5.28l0,0c0-2.94,2.34-5.28,5.29-5.28h2.87
			c2.95,0,5.29,2.34,5.29,5.28l0,0C161.6,473.11,159.26,475.45,156.31,475.45z"/>
	</g>
	<g>
		<path class="st2" d="M204.25,466.78h-37.74c-0.53,0-0.91-0.38-0.91-0.9l0,0c0-0.53,0.38-0.9,0.91-0.9h37.74
			c0.53,0,0.91,0.38,0.91,0.9l0,0C205.16,466.33,204.78,466.78,204.25,466.78z"/>
	</g>
	<g>
		<path class="st2" d="M204.25,471.16h-37.74c-0.53,0-0.91-0.38-0.91-0.9l0,0c0-0.53,0.38-0.9,0.91-0.9h37.74
			c0.53,0,0.91,0.38,0.91,0.9l0,0C205.16,470.7,204.78,471.16,204.25,471.16z"/>
	</g>
	<g>
		<path class="st1" d="M189.43,423.83h-10.44v-10.4c0-1.13-0.91-1.96-1.97-1.96c-1.13,0-1.97,0.9-1.97,1.96v10.4h-10.44
			c-1.13,0-1.97,0.9-1.97,1.96c0,1.13,0.91,1.96,1.97,1.96h10.44v10.4c0,1.13,0.91,1.96,1.97,1.96c1.13,0,1.97-0.9,1.97-1.96v-10.4
			h10.44c1.13,0,1.97-0.9,1.97-1.96C191.47,424.73,190.57,423.83,189.43,423.83z"/>
	</g>
	<g>
		<path class="st4" d="M160.16,360.89h-4.92c-0.68,0-1.36,0.6-1.29,1.28c0,0.68,0.61,1.28,1.29,1.28h4.92c0.68,0,1.36-0.6,1.29-1.28
			C161.37,361.5,160.84,360.89,160.16,360.89z"/>
	</g>
	<g>
		<path class="st4" d="M184.59,361.12h-18.6c-1.66,0-1.66,2.56,0,2.56h18.6C186.25,363.76,186.25,361.12,184.59,361.12z"/>
	</g>
</g>
<g>
	<path class="st5" d="M215.07,375.52l106.86,92.47l-9,10.33l-106.86-92.47c-1.89-1.66-2.12-4.52-0.45-6.41l3.03-3.47
		C210.3,374.08,213.18,373.86,215.07,375.52z"/>
	<polygon class="st5" points="330.55,484.5 312.93,478.32 321.93,467.99 	"/>
	<path class="st6" d="M225.43,384.48l-2.04-1.81l-10.21,11.68l-1.82,2.03l28.59,24.8c0.61,0.53,1.44,0.45,1.97-0.15
		c0.38-0.45,0.45-1.06,0.15-1.58c0,0,0.08,0,0.08-0.08c0.3-0.38,0.15-1.06-0.45-1.58c-0.61-0.53-1.29-0.6-1.66-0.23l-24.81-21.48
		L225.43,384.48z"/>
	<polygon class="st6" points="278.42,448.5 287.4,438.2 321.88,468.05 312.9,478.35 	"/>
	<polygon class="st6" points="272.24,443.13 281.21,432.84 283.95,435.21 274.98,445.51 	"/>
	<polygon class="st6" points="208.92,388.24 217.9,377.94 220.64,380.32 211.66,390.62 	"/>
</g>
<path class="st1" d="M185.73,281.99c-3.4-0.68-6.66-2.11-9.53-4.07c-1.36-0.9-2.65-2.03-3.71-3.32l0.15,0.08
	c0.45-0.08,3.4-0.38,4.54-2.56c0.91-1.73,0.15-3.99-0.38-5.73c-0.23-0.6-0.45-1.13-0.61-1.51c-0.3,0.75-0.76,1.88-1.66,3.01
	c-0.68,0.9-1.13,1.13-1.59,1.73c-0.61,0.75-1.13,2.03-0.91,4.3c-0.91-1.36-1.36-2.94-1.74-4.52c-0.38-1.58-0.61-3.24-1.21-4.67
	c-0.45-1.13-1.21-2.11-2.12-2.86c0.76-0.08,3.33-0.6,4.31-2.56c0.91-1.73,0.15-3.99-0.38-5.73c-0.23-0.6-0.45-1.13-0.61-1.51
	c-0.3,0.75-0.76,1.88-1.66,3.01c-0.68,0.9-1.13,1.13-1.59,1.73c-0.61,0.75-1.13,2.11-0.91,4.45c-1.51-0.9-3.25-1.58-4.92-2.11
	c-0.83-0.3-1.66-0.53-2.5-0.75c0.98-0.15,3.18-0.75,4.01-2.49c0.91-1.73,0.15-3.99-0.38-5.73c-0.23-0.6-0.45-1.13-0.61-1.51
	c-0.3,0.75-0.76,1.88-1.66,3.01c-0.68,0.9-1.13,1.13-1.59,1.73c-0.61,0.83-1.21,2.19-0.91,4.67c-0.45-0.15-0.83-0.23-1.29-0.38
	c-1.89-0.6-3.55-1.51-4.54-3.24l0.3,0.08c0.45-0.08,3.4-0.38,4.54-2.56c0.91-1.73,0.15-3.99-0.38-5.73
	c-0.23-0.6-0.45-1.13-0.61-1.51c-0.3,0.75-0.76,1.88-1.66,3.01c-0.68,0.9-1.13,1.13-1.59,1.73c-0.61,0.75-1.13,1.96-0.91,4.15
	c-0.53-1.28-0.68-2.71-0.68-4.15l0.45-0.3c0.23-0.38,1.89-3.01,0.91-5.28c-0.83-1.88-3.1-2.71-4.92-3.47
	c-0.61-0.23-1.21-0.38-1.59-0.53c0.45,0.75,1.06,1.88,1.36,3.32c0.23,1.13,0.15,1.66,0.3,2.41c0.23,1.06,0.98,2.41,3.25,3.77
	c0.08,1.36,0.23,2.79,0.68,4.07c0.45,1.36,1.29,2.41,2.5,3.24c-0.98-0.3-2.8-0.6-4.16,0.38c-1.51,1.06-1.89,3.17-2.12,4.82
	c-0.08,0.6-0.15,1.13-0.15,1.43c0.53-0.53,1.44-1.21,2.65-1.73c0.98-0.38,1.44-0.38,2.04-0.68c0.91-0.38,1.97-1.28,2.8-3.62
	l-0.08-0.08c1.36,0.6,2.8,0.98,4.24,1.36c1.06,0.3,2.12,0.6,3.18,0.98h-0.08c-0.38,0.08-3.1,0.68-3.93,2.79
	c-0.68,1.66,0.23,3.69,0.91,5.2c0.23,0.53,0.45,0.98,0.68,1.28c0.15-0.75,0.53-1.81,1.29-2.94c0.61-0.9,0.98-1.13,1.36-1.73
	c0.53-0.83,0.91-2.19,0.38-4.45c0.68,0.23,1.29,0.53,1.89,0.75c0.68,0.3,1.29,0.6,1.82,0.98v0.08l0.15,0.08
	c0.83,0.6,1.59,1.36,2.12,2.26c0.53,0.98,0.83,2.03,1.13,3.09l-0.45-0.08c-0.38,0.08-3.18,0.45-4.16,2.49
	c-0.76,1.66-0.08,3.69,0.53,5.28c0.23,0.6,0.38,1.06,0.61,1.36c0.23-0.75,0.68-1.81,1.44-2.79c0.68-0.83,1.06-1.06,1.44-1.58
	c0.45-0.68,0.91-1.66,0.83-3.39c0,0.15,0.08,0.3,0.08,0.53c0.3,1.58,0.68,3.17,1.51,4.6c0.23,0.38,0.45,0.75,0.76,1.13l0,0l0,0
	c0.83,1.13,1.97,2.11,3.1,2.94c3.1,2.41,6.73,3.99,10.51,4.82C185.88,282.29,185.95,281.99,185.73,281.99z"/>
<g>
	<g>
		<path class="st7" d="M157.89,322.16c-1.06,4.52-7.11,9.87-12.93,11.15c0,0,6.35,5.65,10.66,5.73c9.83,0.08,15.73-5.2,26.32-14.17
			c0-0.08,0-0.15,0-0.15c-25.71-11.3-43.34-34.07-70.64-56.6c1.97,3.39,3.18,6.18,4.92,12.96c2.72,10.33,21.63,9.5,17.02,11.76
			c-2.87,1.36-16.26-4.45-18.6-7.24c0,0.3,0.98,6.71,3.33,10.02c2.5,3.62,18.91,2.19,14.82,4.6c-4.08,2.34-15.13-3.47-15.13-3.47
			s1.97,7.39,4.92,11.3c2.87,3.92,21.33-2.86,19.97,0.68c-0.83,2.11-13.01,4.52-19.66,0.9c0,0,6.35,10.02,9.45,12.81
			c3.1,2.79,21.1-13.57,21.4-9.04c0.23,4.45-15.28,12.28-20.42,10.85c0,0,5.45,6.33,9.83,8.06
			C147.53,333.84,158.57,319.22,157.89,322.16z M135.58,303.24c0.23,0.45-0.15,1.13-0.83,1.58c-0.76,0.45-1.51,0.45-1.82,0
			c-0.23-0.45,0.15-1.13,0.83-1.58C134.52,302.79,135.28,302.79,135.58,303.24z M162.13,325.32c0.91,0.75,0.68,2.64-0.68,4.3
			c-1.29,1.66-3.1,2.41-4.01,1.73c-0.91-0.75-0.61-2.64,0.68-4.3C159.41,325.4,161.22,324.64,162.13,325.32z"/>
		<path class="st1" d="M182.02,324.64c2.34-11.76,1.89-21.4,0.08-29.77c-1.29-5.73-8.85-9.65-8.85-9.65
			c-1.51,10.48-6.96,14.47-8.62,13.79c-1.74-0.68,6.43-8.37,6.96-14.24s-9.91-9.27-9.91-9.27c4.92,2.94-1.51,24.42-4.24,24.95
			c-2.72,0.45,3.78-15.37,3.63-21.55c-0.08-6.1-11.95-6.03-12.25-6.03c4.61,1.06,2.95,18.24-0.38,18.16
			c-3.25,0-0.45-18.01-2.57-19.75c-3.25-2.64-12.18-1.43-12.4-1.43c4.84,0.45,8.77,13.42,6.88,18.39
			c-1.97,5.05-1.89-17.86-11.19-18.24c-4.92-0.23-11.8-0.6-17.7-2.11C138.68,290.58,156.31,313.34,182.02,324.64z M127.94,276.41
			c-0.38-1.43,0-2.71,0.76-2.86c0.76-0.23,1.74,0.75,2.04,2.19c0.38,1.43,0,2.71-0.76,2.86
			C129.23,278.82,128.32,277.84,127.94,276.41z M141.18,275.35c0-0.75,0.38-1.43,0.83-1.43c0.53,0,0.98,0.6,0.98,1.36
			s-0.38,1.43-0.83,1.43C141.63,276.71,141.18,276.11,141.18,275.35z M171.13,298.94c0.76-2.41,2.5-3.99,3.78-3.54
			c1.36,0.45,1.82,2.71,1.06,5.12c-0.76,2.41-2.5,3.99-3.78,3.54C170.9,303.69,170.45,301.36,171.13,298.94z M151.69,297.06
			c0.3-1.43,1.21-2.41,1.97-2.26c0.83,0.15,1.21,1.43,0.91,2.86s-1.21,2.41-1.97,2.26C151.77,299.77,151.39,298.49,151.69,297.06z"
			/>
	</g>
</g>
<g>
	<path class="st8" d="M126.28,220.26l1.21-6.1c0-0.08,0.08-0.15,0.23-0.23l6.05-1.28c0.3-0.08,0.3-0.45,0-0.53l-6.13-1.21
		c-0.08,0-0.15-0.08-0.23-0.23l-1.29-6.03c-0.08-0.3-0.45-0.3-0.53,0l-1.21,6.1c0,0.08-0.08,0.15-0.23,0.23l-6.05,1.28
		c-0.3,0.08-0.3,0.45,0,0.53l6.13,1.21c0.08,0,0.15,0.08,0.23,0.23l1.29,6.03C125.83,220.56,126.28,220.56,126.28,220.26z"/>
	<path class="st6" d="M151.92,210.01l0.68-3.32c0-0.08,0.08-0.08,0.08-0.08l3.33-0.75c0.15,0,0.15-0.23,0-0.3l-3.33-0.68
		c-0.08,0-0.08-0.08-0.08-0.08l-0.76-3.32c0-0.15-0.23-0.15-0.3,0l-0.68,3.32c0,0.08-0.08,0.08-0.08,0.08l-3.33,0.75
		c-0.15,0-0.15,0.23,0,0.3l3.33,0.68c0.08,0,0.08,0.08,0.08,0.08l0.76,3.32C151.62,210.16,151.84,210.16,151.92,210.01z"/>
	<path class="st1" d="M140.12,200.21l0.98-5.12c0-0.08,0.08-0.15,0.15-0.15l5.14-1.13c0.23-0.08,0.23-0.38,0-0.45l-5.14-0.98
		c-0.08,0-0.15-0.08-0.15-0.15l-1.13-5.12c-0.08-0.23-0.38-0.23-0.45,0l-0.98,5.12c0,0.08-0.08,0.15-0.15,0.15l-5.14,1.13
		c-0.23,0.08-0.23,0.38,0,0.45l5.14,0.98c0.08,0,0.15,0.08,0.15,0.15l1.13,5.12C139.74,200.44,140.12,200.44,140.12,200.21z"/>
</g>
</svg>
