<?xml version="1.0" encoding="utf-8"?>
<!-- Generator: Adobe Illustrator 28.2.0, SVG Export Plug-In . SVG Version: 6.00 Build 0)  -->
<svg version="1.1" id="Layer_1" xmlns="http://www.w3.org/2000/svg" xmlns:xlink="http://www.w3.org/1999/xlink" x="0px" y="0px"
	 viewBox="0 0 600 600" style="enable-background:new 0 0 600 600;" xml:space="preserve">
<style type="text/css">
	.st0{fill:#007CFF;}
	.st1{fill:#FFFFFF;}
</style>
<g>
	<path class="st0" d="M114.32,431.13l-0.69-0.73c4.68-4.4,10.49-7.2,16.81-8.1l0.14,0.99C124.47,424.16,118.85,426.87,114.32,431.13
		z"/>
	<path class="st0" d="M106.93,442.06l-0.93-0.36c0.99-2.54,2.32-4.94,3.95-7.14l0.8,0.6C109.17,437.28,107.88,439.61,106.93,442.06z
		"/>
	<circle class="st0" cx="134.82" cy="452.93" r="27.44"/>
	<path class="st1" d="M151.18,440.57c-4.46-4.63-11.83-4.68-16.36-0.15c-4.53-4.53-11.89-4.47-16.36,0.15
		c-4.38,4.54-4.04,11.86,0.42,16.32l12.97,12.97c1.64,1.64,4.3,1.64,5.93,0l12.97-12.97C155.22,452.43,155.56,445.11,151.18,440.57z
		"/>
	<path class="st0" d="M134.82,464.92c-0.01,0-0.02,0-0.04,0c-0.41-0.01-0.78-0.28-0.91-0.68l-5.79-16.93l-2.42,7.08
		c-0.14,0.41-0.52,0.68-0.95,0.68h-9.69c-0.55,0-1-0.45-1-1c0-0.55,0.45-1,1-1H124l3.14-9.17c0.14-0.41,0.52-0.68,0.95-0.68
		c0.43,0,0.81,0.27,0.95,0.68l5.89,17.22l5.72-13.47c0.15-0.35,0.49-0.59,0.87-0.61c0.38-0.03,0.74,0.18,0.93,0.51l3.08,5.51h9.11
		c0.55,0,1,0.45,1,1c0,0.55-0.45,1-1,1h-9.69c-0.36,0-0.7-0.2-0.87-0.51l-2.37-4.24l-5.94,13.99
		C135.58,464.68,135.22,464.92,134.82,464.92z"/>
</g>
</svg>
