<?xml version="1.0" encoding="utf-8"?>
<!-- Generator: Adobe Illustrator 28.2.0, SVG Export Plug-In . SVG Version: 6.00 Build 0)  -->
<svg version="1.1" id="Layer_1" xmlns="http://www.w3.org/2000/svg" xmlns:xlink="http://www.w3.org/1999/xlink" x="0px" y="0px"
	 viewBox="0 0 600 600" style="enable-background:new 0 0 600 600;" xml:space="preserve">
<style type="text/css">
	.st0{fill:#FFFFFF;}
	.st1{fill:#007CFF;}
</style>
<g>
	<g>
		<circle class="st0" cx="493.92" cy="446.6" r="31.68"/>
		<path class="st1" d="M493.92,478.67c-17.68,0-32.07-14.39-32.07-32.07c0-17.68,14.39-32.07,32.07-32.07
			c17.68,0,32.07,14.38,32.07,32.07C525.98,464.28,511.6,478.67,493.92,478.67z M493.92,415.31c-17.25,0-31.29,14.04-31.29,31.29
			c0,17.25,14.04,31.29,31.29,31.29c17.25,0,31.29-14.04,31.29-31.29C525.2,429.35,511.17,415.31,493.92,415.31z"/>
	</g>
	<g>
		<rect x="488.82" y="428.64" class="st1" width="10.2" height="35.92"/>

			<rect x="488.82" y="428.64" transform="matrix(-1.836970e-16 1 -1 -1.836970e-16 940.5182 -47.3145)" class="st1" width="10.2" height="35.92"/>
	</g>
</g>
</svg>
