<?xml version="1.0" encoding="utf-8"?>
<!-- Generator: Adobe Illustrator 28.2.0, SVG Export Plug-In . SVG Version: 6.00 Build 0)  -->
<svg version="1.1" id="Layer_1" xmlns="http://www.w3.org/2000/svg" xmlns:xlink="http://www.w3.org/1999/xlink" x="0px" y="0px"
	 viewBox="0 0 600 600" style="enable-background:new 0 0 600 600;" xml:space="preserve">
<style type="text/css">
	.st0{fill:#ECECEC;}
	.st1{fill:#F5F5F5;}
	.st2{fill:#F0F0F0;}
	.st3{fill:#FAFAFA;}
	.st4{fill:#FFFFFF;}
	.st5{opacity:0.15;fill:#007CFF;}
	.st6{opacity:0.5;fill:#007CFF;}
	.st7{fill:#1A2E35;}
	.st8{fill:#007CFF;}
	.st9{opacity:0.3;fill:#FFFFFF;}
	.st10{opacity:0.1;fill:#FFFFFF;}
	.st11{fill:#FFB570;}
	.st12{opacity:0.2;}
	.st13{opacity:0.6;}
	.st14{opacity:0.7;fill:#FFFFFF;}
	.st15{opacity:0.7;}
</style>
<g>
	<g>
		<g>
			<rect x="102.67" y="321.21" class="st0" width="207.88" height="7.48"/>
			<rect x="241.21" y="328.69" class="st1" width="67.54" height="112.77"/>
			<rect x="105.24" y="328.69" class="st1" width="67.54" height="112.77"/>
			<rect x="105.24" y="328.69" class="st0" width="2.31" height="112.77"/>
			<rect x="241.21" y="328.69" class="st0" width="2.31" height="112.77"/>
		</g>
		<polygon class="st2" points="140.71,303.18 128.29,303.18 129.29,321.21 139.71,321.21 		"/>
		<rect x="183.65" y="313.39" class="st2" width="64.89" height="7.82"/>
		<rect x="218.63" y="314.31" class="st3" width="29.92" height="5.99"/>
	</g>
</g>
<ellipse id="_x3C_Path_x3E__238_" class="st1" cx="300.21" cy="475.3" rx="193.89" ry="11.32"/>
<g>
	<g>
		<path class="st4" d="M219.12,89.92H148.6c-7.84,0-13.82,6.41-13.29,14.25l0.64,9.5c0.53,7.84,7.38,14.25,15.21,14.25h70.52
			l14.82,8.45l-2.18-32.2C233.81,96.33,226.96,89.92,219.12,89.92z"/>
		<path class="st5" d="M219.12,89.92H148.6c-7.84,0-13.82,6.41-13.29,14.25l0.64,9.5c0.53,7.84,7.38,14.25,15.21,14.25h70.52
			l14.82,8.45l-2.18-32.2C233.81,96.33,226.96,89.92,219.12,89.92z"/>
	</g>
	<rect x="152.18" y="103.53" class="st6" width="65.36" height="2.38"/>
	<rect x="192.28" y="111.94" class="st6" width="25.83" height="2.38"/>
	<rect x="169.45" y="111.94" class="st6" width="16.5" height="2.38"/>
</g>
<g>
	<g>
		<path class="st7" d="M342.08,440.26H237.7c-7.29,0-12.85-5.96-12.36-13.25l16.88-249.9c0.49-7.29,6.86-13.25,14.15-13.25h104.37
			c7.29,0,12.85,5.96,12.36,13.25l-16.88,249.9C355.73,434.3,349.36,440.26,342.08,440.26z"/>
		<path class="st7" d="M365.16,265.62h-2.63c-2.04,0-3.59-1.67-3.45-3.7l3.23-47.79c0.14-2.04,1.92-3.7,3.95-3.7h2.63
			c2.04,0,3.59,1.67,3.45,3.7l-3.23,47.79C368.98,263.95,367.2,265.62,365.16,265.62z"/>
		<path class="st8" d="M240.69,233.74h-2.63c-1.66,0-2.93-1.36-2.82-3.03l1.17-17.26c0.11-1.66,1.57-3.03,3.23-3.03h2.63
			c1.66,0,2.93,1.36,2.82,3.03l-1.17,17.26C243.81,232.38,242.36,233.74,240.69,233.74z"/>
		<path class="st8" d="M238.61,264.56h-2.63c-1.66,0-2.93-1.36-2.82-3.03l1.17-17.26c0.11-1.66,1.57-3.03,3.23-3.03h2.63
			c1.66,0,2.93,1.36,2.82,3.03l-1.17,17.26C241.73,263.2,240.28,264.56,238.61,264.56z"/>
		<path class="st8" d="M339.87,440.26H235.49c-7.29,0-12.85-5.96-12.36-13.25l16.88-249.9c0.49-7.29,6.86-13.25,14.15-13.25h104.37
			c7.29,0,12.85,5.96,12.36,13.25l-16.88,249.9C353.52,434.3,347.16,440.26,339.87,440.26z"/>
		<polygon class="st9" points="224.23,424.25 240.71,180.3 369.77,180.3 353.29,424.25 		"/>
		<polygon class="st10" points="275.18,424.25 321.24,180.3 350.15,180.3 304.09,424.25 		"/>
		<polygon class="st10" points="253.35,424.25 299.4,180.3 314.05,180.3 267.99,424.25 		"/>
		<path class="st4" d="M293.35,169.98h25.17c0.9,0,1.58,0.74,1.52,1.63l0,0c-0.06,0.9-0.85,1.63-1.74,1.63h-25.17
			c-0.9,0-1.58-0.74-1.52-1.63l0,0C291.67,170.71,292.45,169.98,293.35,169.98z"/>
	</g>
	<g>
		<polygon class="st11" points="288.11,464.3 279.29,465.15 276.11,444.8 284.93,443.95 		"/>
		<path class="st7" d="M278.28,460.84l9.23-2.88c0.35-0.11,0.69,0.05,0.82,0.38l3.02,7.34c0.31,0.76-0.15,1.72-0.95,1.95
			c-3.34,0.98-6.51,1.24-10.54,2.97c-4.71,2.02-6.69,4.68-11.75,4.68c-3.64,0-4.45-3.33-2.92-3.79c6.98-2.12,6.08-3.86,11.17-9.32
			C276.92,461.57,277.55,461.07,278.28,460.84z"/>
		<polygon class="st12" points="276.11,444.8 277.75,455.29 286.58,454.45 284.94,443.95 		"/>
		<path class="st4" d="M282.49,187.65c-11.57-1.36-23.08-0.44-34.63,1.79c-3.92,0.76-6.96,3.99-7.41,7.96
			c-1.25,11.06-2.68,35.85,2.9,72.83c0,0,47.28-3.98,47.28-3.98c0.1-6.71-4.68-37.28-0.73-69.01
			C290.49,192.47,287.21,188.21,282.49,187.65z"/>
		<path class="st7" d="M254.96,197.13l1.7,3.39c0.17,0.34,0.51,0.56,0.89,0.58l1.83,0.09c0.33,0.02,0.65-0.08,0.91-0.28l3.15-2.35
			l-3.9-2.83L254.96,197.13z"/>
		<path class="st7" d="M259.43,200.23c-1.36-0.51-2.13-0.17-2.13-0.17c-1.49,5.25-3.12,20.32-3.29,26.98
			c4.52,13.16,5.99,14.5,5.99,14.5l2.3-15.85C262.3,225.69,259.73,209.5,259.43,200.23z"/>
		<path class="st11" d="M272.48,164.85c-1.08,6.52-2,18.44,2.67,22.65c-3.42,3.6-7.92,7.76-15.62,8.24
			c-7.7,0.47-6.51-4.86-4.56-7.71c7.19-1.92,6.84-7.28,5.43-12.28L272.48,164.85z"/>
		<path class="st1" d="M277.12,186.93c-0.6-0.27-1.26-0.45-1.7-0.55c-0.29-0.07-0.59,0.05-0.74,0.31
			c-0.75,1.26-3.01,6.89-15.15,9.06c1.99,1.18,4.65,4.84,5.8,6.6c3.64-1.89,13.11-7.54,12.2-14.85
			C277.5,187.25,277.35,187.03,277.12,186.93z"/>
		<path class="st1" d="M255.05,188.33c0.1-0.5-0.33-0.93-0.82-0.84c-0.5,0.1-1,0.26-1.24,0.34c-0.1,0.03-0.17,0.08-0.26,0.15
			c-0.93,0.86-6,8.17-1.25,14.1c1.06-1.61,4.45-5.26,8.06-6.33C256.12,194.19,254.44,191.33,255.05,188.33z"/>
		<path class="st12" d="M267.56,169.3l-7.14,6.44c0.34,1.18,0.61,2.39,0.73,3.56c2.75-0.47,6.46-3.6,6.67-6.5
			C267.92,171.35,267.82,169.96,267.56,169.3z"/>
		<path class="st7" d="M258.02,145.15c-6.16,2.41-6.56,7.47-5.95,13.01c0.61,5.54,6.58,1.87,7.91-1.58
			C261.31,153.12,266.55,141.81,258.02,145.15z"/>
		<path class="st11" d="M277.67,156.18c-1.71,8.71-2.27,13.88-7.26,17.89c-7.5,6.03-17.68,0.82-18.58-8.17
			c-0.81-8.09,2.12-20.97,11.09-23.51C271.75,139.89,279.38,147.47,277.67,156.18z"/>
		<path class="st7" d="M277.31,163.39c-7.33,0.39-5.78-3.78-4.44-6.17c1.33-2.39-1.39-6.33,0.39-8.39
			c-3.17,1.26-6.49,0.22-10.72-2.72c-3.28-2.29-7.39,6.87-11.39,2.28c-3.78-4.33-0.27-10.86,8.81-11.92
			c9.07-1.05,10.73,5.38,16.69,4.81c5.96-0.57,3.89,4.33,2.72,5.33C284.36,146.95,287.09,151.73,277.31,163.39z"/>
		<path class="st7" d="M278.25,147.23c0,0,3.75-1.81,3.81-6.39C284,144.31,283.79,148.25,278.25,147.23z"/>
		<path class="st11" d="M279.45,166.04c-1.47,1.91-3.66,2.98-5.59,3.22c-2.92,0.37-3.88-2.34-2.66-4.87
			c1.1-2.28,3.95-5.22,6.67-4.42C280.56,160.75,281.12,163.86,279.45,166.04z"/>
		<path class="st7" d="M276.55,355.43c0.35-26.11,3.68-88.29,3.68-88.29l-36.86,3.11c0,0,7.33,64.09,11.76,90.73
			c4.6,27.7,18.71,92.56,18.71,92.56l14.96-1.27C288.81,452.25,283.36,375.61,276.55,355.43z"/>
		<polygon class="st8" points="272.94,453.94 290.73,452.43 290.03,446.69 271.5,447.93 		"/>
		<path class="st7" d="M307.26,351.22c-7.65-39.32-9.36-70.07-16.63-84.96l-35.71,3.98c0,0,21.27,58.59,31.66,83.6
			c10.79,26,32.09,70.42,32.09,70.42h17.84C336.51,424.25,319.86,369.13,307.26,351.22z"/>
		<path class="st11" d="M194.07,202.37l-3.83-2.44c-1.3-0.83-3.02-0.63-4.06,0.47l-2.62,2.76c-1.19,1.26-1.07,3.23,0.26,4.37
			l1.87,1.6c1.62,1.38,3.52,2.41,5.57,3.02l5.65,1.67l3.71-3.98C201.72,205.63,194.07,202.37,194.07,202.37z"/>
		<g>
			<g>
				<path class="st8" d="M251.2,200.5c-1.4,3.42-2.77,6.6-4.26,9.85c-1.49,3.23-3.01,6.45-4.67,9.64c-1.66,3.2-3.45,6.36-5.47,9.54
					c-1.02,1.59-2.11,3.17-3.36,4.75c-1.27,1.58-2.65,3.18-4.6,4.77c-0.99,0.79-2.14,1.59-3.69,2.28c-0.41,0.17-0.81,0.33-1.27,0.46
					l-0.7,0.19c-0.26,0.07-0.71,0.15-1.07,0.19c-1.48,0.17-2.67-0.02-3.64-0.27c-1.93-0.52-3.1-1.24-4.18-1.9
					c-1.06-0.67-1.93-1.35-2.75-2.03c-3.19-2.72-5.59-5.47-7.95-8.28c-2.33-2.8-4.53-5.61-6.64-8.47c-2.13-2.87-4.15-5.69-6.22-8.7
					l11.06-7.14c3.46,5.57,7.42,11.16,11.56,16.15c2.08,2.46,4.29,4.86,6.37,6.59c0.51,0.42,1.01,0.79,1.41,1.03
					c0.37,0.25,0.74,0.35,0.49,0.26c-0.14-0.04-0.47-0.12-1.09-0.06c-0.14,0.01-0.38,0.06-0.43,0.08c-0.03,0-0.05,0.01-0.08,0.02
					c-0.05,0.02-0.05,0-0.06,0.02c0.02-0.02,0.31-0.19,0.65-0.49c0.71-0.6,1.61-1.61,2.46-2.74c0.86-1.14,1.7-2.41,2.51-3.74
					c1.64-2.67,3.11-5.58,4.52-8.54c1.4-2.98,2.75-6.02,3.98-9.12c1.22-3.08,2.44-6.28,3.45-9.32L251.2,200.5z"/>
			</g>
			<g class="st13">
				<path class="st4" d="M251.2,200.5c-1.4,3.42-2.77,6.6-4.26,9.85c-1.49,3.23-3.01,6.45-4.67,9.64c-1.66,3.2-3.45,6.36-5.47,9.54
					c-1.02,1.59-2.11,3.17-3.36,4.75c-1.27,1.58-2.65,3.18-4.6,4.77c-0.99,0.79-2.14,1.59-3.69,2.28c-0.41,0.17-0.81,0.33-1.27,0.46
					l-0.7,0.19c-0.26,0.07-0.71,0.15-1.07,0.19c-1.48,0.17-2.67-0.02-3.64-0.27c-1.93-0.52-3.1-1.24-4.18-1.9
					c-1.06-0.67-1.93-1.35-2.75-2.03c-3.19-2.72-5.59-5.47-7.95-8.28c-2.33-2.8-4.53-5.61-6.64-8.47c-2.13-2.87-4.15-5.69-6.22-8.7
					l11.06-7.14c3.46,5.57,7.42,11.16,11.56,16.15c2.08,2.46,4.29,4.86,6.37,6.59c0.51,0.42,1.01,0.79,1.41,1.03
					c0.37,0.25,0.74,0.35,0.49,0.26c-0.14-0.04-0.47-0.12-1.09-0.06c-0.14,0.01-0.38,0.06-0.43,0.08c-0.03,0-0.05,0.01-0.08,0.02
					c-0.05,0.02-0.05,0-0.06,0.02c0.02-0.02,0.31-0.19,0.65-0.49c0.71-0.6,1.61-1.61,2.46-2.74c0.86-1.14,1.7-2.41,2.51-3.74
					c1.64-2.67,3.11-5.58,4.52-8.54c1.4-2.98,2.75-6.02,3.98-9.12c1.22-3.08,2.44-6.28,3.45-9.32L251.2,200.5z"/>
			</g>
		</g>
		<g>
			<path class="st8" d="M277.39,185.15c-3.75,6.95-17.1,33.67-18.72,50.13c-5.91-14.96-4.62-48.18-4.62-48.18
				c-2.91,0.08-8.24,1.37-12.28,2.95c-2.61,1.02-4.41,3.52-4.62,6.31c-0.61,8.11-1.46,27.43,1.62,51.47
				c4.15,32.3,8.03,82.52,8.03,82.52s33.05-1.38,58.55-6.76c-3.11-24.69-13.75-66.07-13.85-77.15c-0.12-14.26,0.21-42.14,0.66-53.78
				c0.13-3.44-2.19-6.39-5.52-7.07C282.07,184.66,277.39,185.15,277.39,185.15z"/>
			<path class="st14" d="M277.39,185.15c-3.75,6.95-17.1,33.67-18.72,50.13c-5.91-14.96-4.62-48.18-4.62-48.18
				c-2.91,0.08-8.24,1.37-12.28,2.95c-2.61,1.02-4.41,3.52-4.62,6.31c-0.61,8.11-1.46,27.43,1.62,51.47
				c4.15,32.3,8.03,82.52,8.03,82.52s33.05-1.38,58.55-6.76c-3.11-24.69-13.75-66.07-13.85-77.15c-0.12-14.26,0.21-42.15,0.66-53.79
				c0.13-3.32-2.01-6.29-5.21-7C282.29,184.64,277.39,185.15,277.39,185.15z"/>
		</g>
		<path class="st4" d="M269.6,325c-5.74-31.67-10.29-78.13-10.66-83.73l0.52-0.04c0.37,5.59,4.92,52.03,10.66,83.67L269.6,325z"/>
		<g>
			<path class="st4" d="M266.74,268.66h-30.47c-1.2,0-2.38-0.98-2.64-2.17l-10.2-47.37c-0.26-1.2,0.51-2.17,1.71-2.17h30.47
				c1.2,0,2.38,0.98,2.64,2.17l10.2,47.37C268.7,267.68,267.93,268.66,266.74,268.66z"/>
			<path class="st8" d="M265.79,269.1h-30.98c-1.22,0-2.42-0.99-2.69-2.21l-10.37-48.16c-0.26-1.22,0.52-2.21,1.73-2.21h30.98
				c1.22,0,2.42,0.99,2.69,2.21l10.37,48.16C267.79,268.1,267.01,269.1,265.79,269.1z"/>
		</g>
		<path class="st11" d="M269.34,241.88l-7.71-0.29c-0.93-0.03-1.85,0.13-2.71,0.47l-3.98,1.6c-1.63,0.66-2.37,2.49-1.64,4.06
			l1.6,3.45c0.64,1.37,2.2,2.11,3.7,1.74l4.41-1.09c0,0,8.28-0.66,8.58-4.99L269.34,241.88z"/>
		<g>
			<g>
				<path class="st8" d="M290.63,189.44c1.91,2.96,3.66,5.74,5.38,8.68c1.72,2.91,3.41,5.85,5,8.9c1.58,3.05,3.1,6.17,4.47,9.54
					c0.67,1.7,1.3,3.45,1.82,5.39c0.5,1.96,0.98,4.03,0.88,6.87l-0.01,0.26l-0.01,0.13c0,0.03,0,0.09-0.02,0.2
					c-0.04,0.36-0.09,0.72-0.17,1.08c-0.08,0.32-0.16,0.64-0.26,0.95c-0.1,0.31-0.21,0.55-0.32,0.83c-0.45,1.02-0.98,1.82-1.46,2.42
					c-0.99,1.26-1.9,2.03-2.77,2.76c-1.74,1.4-3.37,2.39-4.98,3.31c-3.22,1.8-6.37,3.21-9.53,4.54c-3.14,1.34-6.29,2.56-9.45,3.71
					c-3.17,1.18-6.27,2.26-9.56,3.36l-3.81-12.6c2.96-0.82,6.06-1.83,9.04-2.85c2.99-1.05,5.96-2.16,8.84-3.35
					c2.86-1.21,5.67-2.52,8.14-3.94c1.22-0.7,2.38-1.45,3.17-2.11c0.38-0.31,0.69-0.65,0.69-0.69c0.03-0.03-0.07,0.06-0.19,0.33
					c-0.04,0.08-0.06,0.14-0.1,0.26c-0.04,0.12-0.08,0.24-0.1,0.36c-0.04,0.15-0.07,0.31-0.08,0.47c0,0.06,0,0.06,0,0.04l0-0.02
					l0-0.04c0.01-0.44-0.18-1.6-0.54-2.79c-0.36-1.21-0.86-2.52-1.43-3.85c-1.15-2.67-2.58-5.39-4.14-8.07
					c-1.56-2.68-3.21-5.36-4.97-7.98c-1.75-2.6-3.6-5.27-5.44-7.67L290.63,189.44z"/>
			</g>
			<g class="st15">
				<path class="st4" d="M290.63,189.44c1.91,2.96,3.66,5.74,5.38,8.68c1.72,2.91,3.41,5.85,5,8.9c1.58,3.05,3.1,6.17,4.47,9.54
					c0.67,1.7,1.3,3.45,1.82,5.39c0.5,1.96,0.98,4.03,0.88,6.87l-0.01,0.26l-0.01,0.13c0,0.03,0,0.09-0.02,0.2
					c-0.04,0.36-0.09,0.72-0.17,1.08c-0.08,0.32-0.16,0.64-0.26,0.95c-0.1,0.31-0.21,0.55-0.32,0.83c-0.45,1.02-0.98,1.82-1.46,2.42
					c-0.99,1.26-1.9,2.03-2.77,2.76c-1.74,1.4-3.37,2.39-4.98,3.31c-3.22,1.8-6.37,3.21-9.53,4.54c-3.14,1.34-6.29,2.56-9.45,3.71
					c-3.17,1.18-6.27,2.26-9.56,3.36l-3.81-12.6c2.96-0.82,6.06-1.83,9.04-2.85c2.99-1.05,5.96-2.16,8.84-3.35
					c2.86-1.21,5.67-2.52,8.14-3.94c1.22-0.7,2.38-1.45,3.17-2.11c0.38-0.31,0.69-0.65,0.69-0.69c0.03-0.03-0.07,0.06-0.19,0.33
					c-0.04,0.08-0.06,0.14-0.1,0.26c-0.04,0.12-0.08,0.24-0.1,0.36c-0.04,0.15-0.07,0.31-0.08,0.47c0,0.06,0,0.06,0,0.04l0-0.02
					l0-0.04c0.01-0.44-0.18-1.6-0.54-2.79c-0.36-1.21-0.86-2.52-1.43-3.85c-1.15-2.67-2.58-5.39-4.14-8.07
					c-1.56-2.68-3.21-5.36-4.97-7.98c-1.75-2.6-3.6-5.27-5.44-7.67L290.63,189.44z"/>
			</g>
		</g>
		<path class="st7" d="M280.51,224.13c-0.13,0-0.26-0.06-0.34-0.18c-0.12-0.18-0.06-0.43,0.12-0.55l1.56-0.99
			c2.99-1.9,4.48-5.38,3.8-8.86l-3.14-15.91c-0.61-3.07-3.1-4.25-5.06-4.34c-1.96-0.08-4.54,0.89-5.4,3.9l-4.45,15.59
			c-0.97,3.41,0.22,7,3.04,9.14l1.47,1.12c0.17,0.13,0.21,0.38,0.08,0.56c-0.13,0.17-0.38,0.21-0.56,0.08l-1.47-1.12
			c-3.09-2.35-4.39-6.27-3.33-10l4.45-15.59c0.81-2.84,3.25-4.58,6.2-4.47c2.95,0.12,5.23,2.08,5.8,4.98l3.14,15.91
			c0.75,3.8-0.88,7.6-4.15,9.68l-1.56,0.99C280.66,224.11,280.58,224.13,280.51,224.13z"/>
		<path class="st7" d="M282.91,197.96c-0.01,0-0.01,0-0.02,0l-11.23-0.47c-0.22-0.01-0.39-0.19-0.38-0.41
			c0.01-0.22,0.2-0.36,0.41-0.38l11.23,0.47c0.22,0.01,0.39,0.19,0.38,0.41C283.3,197.8,283.12,197.96,282.91,197.96z"/>
		<path class="st7" d="M277.45,193.31c-0.21,0-0.39-0.17-0.4-0.39c-0.05-1.96-0.63-5.47-2.5-6.24c-0.2-0.08-0.3-0.32-0.22-0.52
			c0.08-0.2,0.31-0.3,0.52-0.22c2.77,1.14,2.98,6.36,2.99,6.95C277.85,193.12,277.68,193.3,277.45,193.31
			C277.46,193.31,277.45,193.31,277.45,193.31z"/>
		<path class="st7" d="M243.1,206.9c-0.03,0-0.05,0-0.08-0.01c-0.21-0.04-0.35-0.25-0.31-0.47c1.32-6.57,6.78-16.95,11.59-19.98
			c0.19-0.12,0.43-0.06,0.55,0.12c0.12,0.19,0.06,0.43-0.12,0.55c-4.65,2.93-9.95,13.05-11.23,19.47
			C243.45,206.77,243.29,206.9,243.1,206.9z"/>
		<path class="st4" d="M246.38,207.93c-0.62,1.59-1.98,2.55-3.03,2.13c-1.05-0.41-1.39-2.04-0.77-3.63
			c0.62-1.59,1.98-2.55,3.03-2.13C246.66,204.72,247.01,206.34,246.38,207.93z"/>
		<path class="st4" d="M272.78,223.41c-0.03,0.75-0.46,1.34-0.95,1.32s-0.87-0.64-0.84-1.39c0.03-0.75,0.46-1.34,0.95-1.32
			C272.44,222.04,272.81,222.67,272.78,223.41z"/>
		<path class="st4" d="M281.4,223.77c-0.03,0.75-0.46,1.34-0.95,1.32s-0.87-0.64-0.84-1.39c0.03-0.75,0.46-1.34,0.95-1.32
			C281.06,222.41,281.43,223.03,281.4,223.77z"/>
	</g>
</g>
</svg>
