<?xml version="1.0" encoding="utf-8"?>
<!-- Generator: Adobe Illustrator 28.2.0, SVG Export Plug-In . SVG Version: 6.00 Build 0)  -->
<svg version="1.1" id="Layer_1" xmlns="http://www.w3.org/2000/svg" xmlns:xlink="http://www.w3.org/1999/xlink" x="0px" y="0px"
	 viewBox="0 0 600 600" style="enable-background:new 0 0 600 600;" xml:space="preserve">
<style type="text/css">
	.st0{fill:#007CFF;}
	.st1{fill:#FFFFFF;}
	.st2{opacity:0.15;fill:#007CFF;}
	.st3{opacity:0.5;fill:#007CFF;}
</style>
<g>
	<path class="st0" d="M465.99,182.62l-0.66-0.04c0.2-2.9-0.76-5.64-2.7-7.71c-1.93-2.07-4.59-3.21-7.48-3.21V171
		c3.08,0,5.9,1.21,7.96,3.41C465.18,176.62,466.2,179.53,465.99,182.62z"/>

		<rect x="462.56" y="188" transform="matrix(0.0664 -0.9978 0.9978 0.0664 246.4765 640.0737)" class="st0" width="5.44" height="0.66"/>
	<path class="st0" d="M455.15,173.3h-45.34c-5.04,0-9.44,4.12-9.78,9.16l-0.41,6.11c-0.34,5.04,3.5,9.16,8.54,9.16h45.34l8.8,5.43
		l1.4-20.7C464.04,177.42,460.19,173.3,455.15,173.3z"/>
	<rect x="410.83" y="182.05" class="st1" width="42.02" height="1.53"/>
	<rect x="421.29" y="187.46" class="st1" width="31.2" height="1.53"/>
</g>
<g>
	<g>
		<path class="st1" d="M345.69,207.44h70.52c7.84,0,13.82,6.41,13.29,14.25l-0.64,9.5c-0.53,7.84-7.38,14.25-15.21,14.25h-70.52
			l-14.82,8.45l2.18-32.2C331.01,213.85,337.85,207.44,345.69,207.44z"/>
		<path class="st2" d="M345.69,207.44h70.52c7.84,0,13.82,6.41,13.29,14.25l-0.64,9.5c-0.53,7.84-7.38,14.25-15.21,14.25h-70.52
			l-14.82,8.45l2.18-32.2C331.01,213.85,337.85,207.44,345.69,207.44z"/>
	</g>
	<rect x="347.27" y="221.05" class="st3" width="65.36" height="2.38"/>
	<rect x="346.7" y="229.46" class="st3" width="25.83" height="2.38"/>
	<rect x="378.87" y="229.46" class="st3" width="16.5" height="2.38"/>
</g>
</svg>
