<?xml version="1.0" encoding="utf-8"?>
<!-- Generator: Adobe Illustrator 28.2.0, SVG Export Plug-In . SVG Version: 6.00 Build 0)  -->
<svg version="1.1" id="Layer_1" xmlns="http://www.w3.org/2000/svg" xmlns:xlink="http://www.w3.org/1999/xlink" x="0px" y="0px"
	 viewBox="0 0 600 600" style="enable-background:new 0 0 600 600;" xml:space="preserve">
<style type="text/css">
	.st0{fill:#007CFF;}
	.st1{fill:#FFFFFF;}
</style>
<g>
	<path class="st0" d="M462.79,269.72l-0.84-0.06c0.25-3.71-0.98-7.21-3.45-9.86c-2.47-2.64-5.87-4.1-9.57-4.1v-0.84
		c3.94,0,7.55,1.55,10.19,4.37C461.75,262.04,463.06,265.77,462.79,269.72z"/>

		<rect x="458.4" y="276.6" transform="matrix(0.0664 -0.9978 0.9978 0.0664 154.807 719.4904)" class="st0" width="6.96" height="0.84"/>
	<path class="st0" d="M448.93,257.8h-58c-6.45,0-12.08,5.27-12.51,11.72l-0.53,7.81c-0.44,6.45,4.48,11.72,10.93,11.72h58
		l11.25,6.95l1.79-26.48C460.29,263.07,455.37,257.8,448.93,257.8z"/>
	<rect x="392.23" y="268.99" class="st1" width="53.75" height="1.95"/>
	<rect x="405.61" y="275.91" class="st1" width="39.91" height="1.95"/>
</g>
</svg>
