<svg width="55" height="57" viewBox="0 0 55 57" fill="none" xmlns="http://www.w3.org/2000/svg">
<path d="M9.49219 30.1376C12.1523 32.1838 17.227 36.7674 16.2448 38.7318" stroke="#4CA5F5" stroke-width="2" stroke-dasharray="1 1"/>
<path d="M21.1567 36.2764C22.7937 37.5042 27.4183 39.223 32.8203 36.2764" stroke="#4CA5F5" stroke-width="2"/>
<path d="M24.1449 33.1134L20.8501 35.5845C20.3633 35.9496 20.3127 36.6613 20.743 37.0916L23.3181 39.6666C23.5056 39.8542 23.76 39.9595 24.0252 39.9595H29.3798C29.6185 39.9595 29.8493 39.8741 30.0306 39.7188L33.0446 37.1353C33.5477 36.7041 33.4999 35.9116 32.9485 35.544L29.2041 33.0478C28.8075 32.7833 28.2794 32.8356 27.9423 33.1727L26.6804 34.4346L25.452 33.2063C25.1001 32.8544 24.543 32.8148 24.1449 33.1134Z" stroke="#4CA5F5" stroke-width="2"/>
<path d="M23.6112 16.6322C21.7696 21.5432 15.8764 28.7869 7.03662 18.4738" stroke="#4CA5F5" stroke-width="2" stroke-dasharray="1 1"/>
<path d="M22.9973 23.9987L21.7695 29.5235H31.5915L30.3638 24.6125" stroke="#4CA5F5" stroke-width="2"/>
<path d="M7.03662 2.51318V31.461C7.03662 32.1906 7.30249 32.8952 7.78448 33.4429L19.6459 46.9218C20.2155 47.569 21.0359 47.9399 21.8981 47.9399H30.889C31.728 47.9399 32.5287 47.5885 33.0968 46.971L45.5562 33.4283C46.0513 32.8901 46.3328 32.1895 46.3477 31.4583L46.9385 2.51318" stroke="#4CA5F5" stroke-width="2"/>
<path d="M7.03662 7.42323C13.7892 3.33073 31.1005 -2.39876 46.3246 7.42323" stroke="#4CA5F5" stroke-width="2"/>
<path d="M8.87842 17.2481C8.87842 14.1804 15.631 8.65416 19.9282 16.6364" stroke="#4CA5F5" stroke-width="2"/>
<path d="M32.8203 17.2437C32.8203 14.176 40.1868 8.6496 43.2562 17.2429" stroke="#4CA5F5" stroke-width="2"/>
<circle cx="14.4029" cy="15.4045" r="2.06937" stroke="#4CA5F5" stroke-width="2"/>
<circle cx="37.731" cy="15.4045" r="2.06937" stroke="#4CA5F5" stroke-width="2"/>
<path d="M29.1367 16.6322C31.7968 21.7478 38.8359 29.278 45.7113 18.4738" stroke="#4CA5F5" stroke-width="2" stroke-dasharray="1 1"/>
<path d="M43.8689 30.1376C42.4366 30.9561 38.9579 33.8208 36.5024 38.7318" stroke="#4CA5F5" stroke-width="2" stroke-dasharray="1 1"/>
<path d="M46.939 12.949C50.6222 13.5628 58.6026 19.7016 46.939 25.2265" stroke="#4CA5F5" stroke-width="2"/>
<path d="M6.42323 12.949C2.33073 14.9952 -3.39876 20.1927 6.42323 24.6126" stroke="#4CA5F5" stroke-width="2"/>
<path d="M15.6312 43.0287C16.6543 45.2796 17.1045 50.8863 10.7202 55.3062M37.7307 43.0287C37.1168 45.2796 37.2396 51.0091 42.6417 55.9201" stroke="#4CA5F5" stroke-width="2"/>
</svg>
