<svg width="57" height="53" viewBox="0 0 57 53" fill="none" xmlns="http://www.w3.org/2000/svg">
<path d="M19.5628 52.0401C17.392 52.0401 15.2586 51.3152 13.4663 49.9293C10.7418 47.8225 9.1792 44.559 9.1792 40.9757C9.1792 29.8379 17.6661 20.7762 28.0981 20.7762C38.5301 20.7762 47.017 29.8379 47.017 40.9757C47.017 44.559 45.4543 47.8221 42.7298 49.9293C40.2564 51.8415 37.1323 52.4953 34.1604 51.7228L30.0639 50.6582C28.7781 50.3242 27.4185 50.3242 26.1327 50.6582L22.0362 51.7228C21.2172 51.9357 20.387 52.0401 19.5628 52.0401ZM28.0981 48.4215C28.9275 48.4215 29.7568 48.5264 30.5632 48.7361L34.6601 49.8006C37.0338 50.4171 39.5319 49.892 41.5152 48.3584C43.7499 46.6305 45.0313 43.9398 45.0313 40.9761C45.0313 30.933 37.4354 22.7627 28.0985 22.7627C18.7616 22.7627 11.1657 30.933 11.1657 40.9761C11.1657 43.9398 12.4471 46.6305 14.6818 48.3584C16.6651 49.892 19.164 50.4183 21.5369 49.8006L25.6334 48.7361C26.4389 48.5264 27.2687 48.4215 28.0981 48.4215Z" fill="#4CA5F5"/>
<path d="M8.61185 26.1335C8.35167 26.1335 8.08554 26.1149 7.81464 26.0763C5.71179 25.7808 3.5434 24.3195 2.01453 22.1674C-0.636081 18.4363 -0.675802 13.8878 1.92356 11.812C2.93964 11.0009 4.22303 10.6772 5.63831 10.8762C7.74155 11.1717 9.90994 12.633 11.4388 14.7851C14.0894 18.5162 14.1291 23.0647 11.5298 25.1409C10.7079 25.7963 9.71094 26.1335 8.61185 26.1335ZM4.8546 12.8066C4.32591 12.8066 3.70626 12.9302 3.16247 13.3639C1.44452 14.7355 1.66021 18.2401 3.63317 21.0174C4.85182 22.7326 6.51813 23.8889 8.0911 24.1097C8.69129 24.1939 9.5592 24.1721 10.2901 23.5886C12.0076 22.217 11.7923 18.712 9.81938 15.9351C8.60072 14.2199 6.93441 13.0636 5.36185 12.8428C5.20812 12.8209 5.03692 12.8066 4.8546 12.8066Z" fill="#4CA5F5"/>
<path d="M20.7821 18.119C19.8666 18.119 18.9363 17.8544 18.0386 17.3317C15.9786 16.1329 14.3159 13.6801 13.5914 10.7697C12.3537 5.79859 14.1006 1.14483 17.5679 0.17444C18.8759 -0.191394 20.2634 0.0207169 21.5809 0.786942C23.6413 1.98573 25.3036 4.43853 26.0281 7.34891C27.2659 12.3196 25.5193 16.9742 22.0516 17.9446C21.6349 18.0614 21.2103 18.119 20.7821 18.119ZM18.8294 1.98812C18.5947 1.98812 18.3512 2.01791 18.1029 2.08742C15.7582 2.74322 14.5745 6.49967 15.5183 10.2903C16.1161 12.6902 17.4312 14.6811 19.0372 15.6153C19.6251 15.9577 20.5327 16.3081 21.5162 16.032C23.8609 15.3758 25.0446 11.6194 24.1009 7.82914C23.5034 5.42918 22.1879 3.43835 20.5823 2.5041C20.1426 2.24829 19.5246 1.98812 18.8294 1.98812Z" fill="#4CA5F5"/>
<path d="M35.4126 18.119C34.9844 18.119 34.5598 18.061 34.1431 17.9447C30.6754 16.9743 28.9289 12.3197 30.1666 7.34899C30.8911 4.43901 32.5535 1.98581 34.6138 0.787024C35.9318 0.0204022 37.3192 -0.191311 38.6269 0.174523C42.0945 1.14492 43.8411 5.79907 42.6034 10.7698C41.8789 13.6802 40.2161 16.133 38.1562 17.3318C37.2581 17.8545 36.3278 18.119 35.4126 18.119ZM37.3649 1.9882C36.6698 1.9882 36.0517 2.24838 35.612 2.50418C34.0065 3.43843 32.6909 5.42926 32.0935 7.82923C31.1497 11.6194 32.3334 15.3763 34.6782 16.0321C35.6625 16.3081 36.5689 15.9574 37.1572 15.6154C38.7631 14.6812 40.0783 12.6903 40.6761 10.2904C41.6199 6.50015 40.4362 2.7433 38.0914 2.0875C37.8432 2.01799 37.5997 1.9882 37.3649 1.9882Z" fill="#4CA5F5"/>
<path d="M31.9033 46.7409H24.2915V40.6775H18.228V33.0657H24.2915V27.0022H31.9033V33.0657H37.9668V40.6775H31.9033V46.7409V46.7409ZM26.2776 44.7549H29.9172V38.6914H35.9807V35.0517H29.9172V28.9883H26.2776V35.0517H20.2141V38.6914H26.2776V44.7549V44.7549Z" fill="#4CA5F5"/>
<path d="M47.5843 26.1376C46.4848 26.1376 45.4882 25.8004 44.6667 25.1446C42.0674 23.0683 42.1071 18.5198 44.7577 14.7888C46.2866 12.6367 48.455 11.1753 50.5582 10.8798C51.9735 10.6808 53.2569 11.0045 54.2729 11.8157C56.8727 13.8915 56.833 18.44 54.1824 22.171C52.6535 24.3231 50.4851 25.7845 48.3819 26.08C48.111 26.1185 47.8444 26.1376 47.5843 26.1376ZM46.3767 15.9391C44.4042 18.7161 44.1885 22.2211 45.906 23.5926C46.6365 24.1762 47.5052 24.198 48.105 24.1138C49.6776 23.8925 51.3443 22.7366 52.5629 21.0215C54.5359 18.2446 54.7512 14.7399 53.0336 13.368C52.3032 12.7845 51.4352 12.7626 50.8347 12.8464C49.2617 13.0677 47.5954 14.2236 46.3767 15.9391Z" fill="#4CA5F5"/>
</svg>
