<svg width="57" height="55" viewBox="0 0 57 55" fill="none" xmlns="http://www.w3.org/2000/svg">
<path d="M30.7017 28.8003L42.0543 40.1548" stroke="#4CA5F5" stroke-miterlimit="10" stroke-linecap="round" stroke-linejoin="round"/>
<path d="M18.0079 50.8435C13.9479 46.7835 13.9479 40.2107 18.0079 36.1488L38.0455 16.1112C42.1056 12.0512 48.6802 12.0512 52.7403 16.1112C54.7712 18.1422 55.7858 20.8136 55.7858 23.4586C55.7858 26.1035 54.7712 28.775 52.7403 30.8059L32.7027 50.8435C28.6426 54.9054 22.068 54.9054 18.0079 50.8435Z" stroke="#4CA5F5" stroke-width="2" stroke-miterlimit="10" stroke-linecap="round" stroke-linejoin="round"/>
<path d="M28.3947 14.1985C24.7484 14.2136 21.7822 11.2474 21.7955 7.59926C21.7822 3.95297 24.7484 0.986819 28.3947 1.00004C32.0429 0.986819 35.0071 3.95297 34.9939 7.59926C35.0071 11.2474 32.0429 14.2136 28.3947 14.1985Z" stroke="#4CA5F5" stroke-width="2" stroke-miterlimit="10" stroke-linecap="round" stroke-linejoin="round"/>
<path d="M11.3921 28.3798V15.1549" stroke="#4CA5F5" stroke-miterlimit="10" stroke-linecap="round" stroke-linejoin="round"/>
<path d="M11.391 32.1583C17.1298 32.1583 21.782 27.5061 21.782 21.7673C21.782 16.0285 17.1298 11.3763 11.391 11.3763C5.6522 11.3763 1 16.0285 1 21.7673C1 27.5061 5.6522 32.1583 11.391 32.1583Z" stroke="#4CA5F5" stroke-width="2" stroke-miterlimit="10" stroke-linecap="round" stroke-linejoin="round"/>
<path d="M32.8449 45.442L30.0091 48.2778C27.5701 50.715 23.6026 50.715 21.1636 48.2778" stroke="#4CA5F5" stroke-miterlimit="10" stroke-linecap="round" stroke-linejoin="round"/>
<path d="M35.5142 42.7184L35.6464 42.5862" stroke="#4CA5F5" stroke-miterlimit="10" stroke-linecap="round" stroke-linejoin="round"/>
</svg>
