<svg width="22" height="22" viewBox="0 0 22 22" fill="none" xmlns="http://www.w3.org/2000/svg">
<path d="M11 0C4.92545 0 0 4.92545 0 11C0 17.0746 4.92545 22 11 22C17.0746 22 22 17.0746 22 11C22 4.92545 17.0746 0 11 0ZM11.7857 16.3036C11.7857 16.4116 11.6973 16.5 11.5893 16.5H10.4107C10.3027 16.5 10.2143 16.4116 10.2143 16.3036V9.625C10.2143 9.51696 10.3027 9.42857 10.4107 9.42857H11.5893C11.6973 9.42857 11.7857 9.51696 11.7857 9.625V16.3036ZM11 7.85714C10.6916 7.85085 10.3979 7.72391 10.182 7.50357C9.96616 7.28323 9.84524 6.98705 9.84524 6.67857C9.84524 6.3701 9.96616 6.07391 10.182 5.85357C10.3979 5.63323 10.6916 5.5063 11 5.5C11.3084 5.5063 11.6021 5.63323 11.818 5.85357C12.0338 6.07391 12.1548 6.3701 12.1548 6.67857C12.1548 6.98705 12.0338 7.28323 11.818 7.50357C11.6021 7.72391 11.3084 7.85085 11 7.85714Z" fill="#4763DA"/>
</svg>
